<svg xmlns="http://www.w3.org/2000/svg" xmlns:xlink="http://www.w3.org/1999/xlink" overflow="hidden" viewBox="0 0 1040 720">
        <style> text {
        font-family: "Segoe UI", "Avenir Next", "Candara", sans-serif;
        }
    </style>
    <defs><path id="reuse-1" fill-rule="evenodd" d="M7 20h1021v680H7z" clip-rule="evenodd"/><path id="reuse-0" fill-rule="evenodd" d="M109 76h905v575H109z" clip-rule="evenodd"/></defs><defs><clipPath id="a"><path fill-rule="evenodd" d="M0 0h1040v720H0z" clip-rule="evenodd"/></clipPath><clipPath id="b"><use fill-rule="evenodd" clip-rule="evenodd" xlink:href="#reuse-0"/></clipPath><clipPath id="c"><path fill-rule="evenodd" d="M109.5 580.5v45h307v-45zm0-96v45h235v-45zm0-95v44h253v-44zm0-96v44h226v-44zm0-96v45h136v-45zm0-96v45h118v-45zM.00002.00001H1040V720H.00002z" clip-rule="evenodd"/></clipPath><clipPath id="d"><path fill-rule="evenodd" d="M0 0h321v539H0z" clip-rule="evenodd"/></clipPath><clipPath id="f"><use fill-rule="evenodd" clip-rule="evenodd" xlink:href="#reuse-0"/></clipPath><clipPath id="g"><path fill-rule="evenodd" d="M416.5 580.5v45h290v-45zm-72-96v45h308v-45zm18-95v44h308v-44zm-27-96v44h253v-44zm-90-96v45h298v-45zm-18-96v45h253v-45zM.00002.00001H1040V720H.00002z" clip-rule="evenodd"/></clipPath><clipPath id="h"><path fill-rule="evenodd" d="M0 0h494v539H0z" clip-rule="evenodd"/></clipPath><clipPath id="j"><use fill-rule="evenodd" clip-rule="evenodd" xlink:href="#reuse-0"/></clipPath><clipPath id="k"><path fill-rule="evenodd" d="M706.5 580.5v45h90v-45zm-54-96v45h108v-45zm18-95v44h81v-44zm-82-96v44h145v-44zm-45-96v45h136v-45zm-63-96v45h72v-45zM.00002.00001H1040V720H.00002z" clip-rule="evenodd"/></clipPath><clipPath id="l"><path fill-rule="evenodd" d="M0 0h331v539H0z" clip-rule="evenodd"/></clipPath><clipPath id="n"><use fill-rule="evenodd" clip-rule="evenodd" xlink:href="#reuse-0"/></clipPath><clipPath id="o"><path fill-rule="evenodd" d="M796.5 580.5v45h109v-45zm-36-96v45h127v-45zm-9-95v44h136v-44zm-18-96v44h136v-44zm-54-96v45h172v-45zm-127-96v45h217v-45zM.00002.00001H1040V720H.00002z" clip-rule="evenodd"/></clipPath><clipPath id="p"><path fill-rule="evenodd" d="M0 0h368v539H0z" clip-rule="evenodd"/></clipPath><clipPath id="r"><use fill-rule="evenodd" clip-rule="evenodd" xlink:href="#reuse-0"/></clipPath><clipPath id="s"><path fill-rule="evenodd" d="M905.5 580.5v45h108v-45zm-18-96v45h126v-45zm0-95v44h126v-44zm-18-96v44h144v-44zm-18-96v45h162v-45zm-82-96v45h244v-45zM.00002.00001H1040V720H.00002z" clip-rule="evenodd"/></clipPath><clipPath id="t"><path fill-rule="evenodd" d="M0 0h258v539H0z" clip-rule="evenodd"/></clipPath><clipPath id="v"><use fill-rule="evenodd" clip-rule="evenodd" xlink:href="#reuse-0"/></clipPath><clipPath id="w"><use fill-rule="evenodd" clip-rule="evenodd" xlink:href="#reuse-0"/></clipPath><clipPath id="x"><use fill-rule="evenodd" clip-rule="evenodd" xlink:href="#reuse-0"/></clipPath><clipPath id="y"><use fill-rule="evenodd" clip-rule="evenodd" xlink:href="#reuse-0"/></clipPath><clipPath id="z"><use fill-rule="evenodd" clip-rule="evenodd" xlink:href="#reuse-0"/></clipPath><clipPath id="A"><use fill-rule="evenodd" clip-rule="evenodd" xlink:href="#reuse-0"/></clipPath><clipPath id="B"><use fill-rule="evenodd" clip-rule="evenodd" xlink:href="#reuse-0"/></clipPath><clipPath id="C"><use fill-rule="evenodd" clip-rule="evenodd" xlink:href="#reuse-0"/></clipPath><clipPath id="D"><use fill-rule="evenodd" clip-rule="evenodd" xlink:href="#reuse-0"/></clipPath><clipPath id="E"><use fill-rule="evenodd" clip-rule="evenodd" xlink:href="#reuse-0"/></clipPath><clipPath id="F"><use fill-rule="evenodd" clip-rule="evenodd" xlink:href="#reuse-1"/></clipPath><clipPath id="G"><use fill-rule="evenodd" clip-rule="evenodd" xlink:href="#reuse-1"/></clipPath><clipPath id="H"><use fill-rule="evenodd" clip-rule="evenodd" xlink:href="#reuse-1"/></clipPath><clipPath id="I"><use fill-rule="evenodd" clip-rule="evenodd" xlink:href="#reuse-1"/></clipPath><clipPath id="J"><use fill-rule="evenodd" clip-rule="evenodd" xlink:href="#reuse-1"/></clipPath><clipPath id="K"><use fill-rule="evenodd" clip-rule="evenodd" xlink:href="#reuse-1"/></clipPath><clipPath id="L"><use fill-rule="evenodd" clip-rule="evenodd" xlink:href="#reuse-1"/></clipPath><clipPath id="M"><use fill-rule="evenodd" clip-rule="evenodd" xlink:href="#reuse-1"/></clipPath><clipPath id="N"><use fill-rule="evenodd" clip-rule="evenodd" xlink:href="#reuse-1"/></clipPath><clipPath id="O"><use fill-rule="evenodd" clip-rule="evenodd" xlink:href="#reuse-1"/></clipPath><clipPath id="P"><use fill-rule="evenodd" clip-rule="evenodd" xlink:href="#reuse-1"/></clipPath><clipPath id="Q"><use fill-rule="evenodd" clip-rule="evenodd" xlink:href="#reuse-1"/></clipPath><clipPath id="R"><use fill-rule="evenodd" clip-rule="evenodd" xlink:href="#reuse-1"/></clipPath><clipPath id="S"><use fill-rule="evenodd" clip-rule="evenodd" xlink:href="#reuse-1"/></clipPath><clipPath id="T"><use fill-rule="evenodd" clip-rule="evenodd" xlink:href="#reuse-1"/></clipPath><clipPath id="U"><use fill-rule="evenodd" clip-rule="evenodd" xlink:href="#reuse-1"/></clipPath><clipPath id="V"><use fill-rule="evenodd" clip-rule="evenodd" xlink:href="#reuse-1"/></clipPath><clipPath id="W"><use fill-rule="evenodd" clip-rule="evenodd" xlink:href="#reuse-1"/></clipPath><clipPath id="X"><use fill-rule="evenodd" clip-rule="evenodd" xlink:href="#reuse-1"/></clipPath><clipPath id="Y"><use fill-rule="evenodd" clip-rule="evenodd" xlink:href="#reuse-1"/></clipPath><clipPath id="Z"><use fill-rule="evenodd" clip-rule="evenodd" xlink:href="#reuse-1"/></clipPath><clipPath id="aa"><use fill-rule="evenodd" clip-rule="evenodd" xlink:href="#reuse-1"/></clipPath><clipPath id="ab"><use fill-rule="evenodd" clip-rule="evenodd" xlink:href="#reuse-1"/></clipPath><clipPath id="ac"><use fill-rule="evenodd" clip-rule="evenodd" xlink:href="#reuse-1"/></clipPath><clipPath id="ad"><use fill-rule="evenodd" clip-rule="evenodd" xlink:href="#reuse-1"/></clipPath><clipPath id="ae"><use fill-rule="evenodd" clip-rule="evenodd" xlink:href="#reuse-1"/></clipPath><clipPath id="af"><use fill-rule="evenodd" clip-rule="evenodd" xlink:href="#reuse-1"/></clipPath><clipPath id="ag"><use fill-rule="evenodd" clip-rule="evenodd" xlink:href="#reuse-1"/></clipPath><clipPath id="ah"><use fill-rule="evenodd" clip-rule="evenodd" xlink:href="#reuse-1"/></clipPath><clipPath id="ai"><use fill-rule="evenodd" clip-rule="evenodd" xlink:href="#reuse-1"/></clipPath><clipPath id="aj"><use fill-rule="evenodd" clip-rule="evenodd" xlink:href="#reuse-1"/></clipPath><clipPath id="ak"><use fill-rule="evenodd" clip-rule="evenodd" xlink:href="#reuse-1"/></clipPath><clipPath id="al"><use fill-rule="evenodd" clip-rule="evenodd" xlink:href="#reuse-1"/></clipPath><clipPath id="am"><use fill-rule="evenodd" clip-rule="evenodd" xlink:href="#reuse-1"/></clipPath><clipPath id="an"><use fill-rule="evenodd" clip-rule="evenodd" xlink:href="#reuse-1"/></clipPath><clipPath id="ao"><use fill-rule="evenodd" clip-rule="evenodd" xlink:href="#reuse-1"/></clipPath><clipPath id="ap"><use fill-rule="evenodd" clip-rule="evenodd" xlink:href="#reuse-1"/></clipPath><clipPath id="aq"><use fill-rule="evenodd" clip-rule="evenodd" xlink:href="#reuse-1"/></clipPath><clipPath id="ar"><use fill-rule="evenodd" clip-rule="evenodd" xlink:href="#reuse-1"/></clipPath><clipPath id="as"><use fill-rule="evenodd" clip-rule="evenodd" xlink:href="#reuse-1"/></clipPath><clipPath id="at"><use fill-rule="evenodd" clip-rule="evenodd" xlink:href="#reuse-1"/></clipPath><clipPath id="au"><use fill-rule="evenodd" clip-rule="evenodd" xlink:href="#reuse-1"/></clipPath><clipPath id="av"><use fill-rule="evenodd" clip-rule="evenodd" xlink:href="#reuse-1"/></clipPath><clipPath id="aw"><use fill-rule="evenodd" clip-rule="evenodd" xlink:href="#reuse-1"/></clipPath><clipPath id="ax"><use fill-rule="evenodd" clip-rule="evenodd" xlink:href="#reuse-1"/></clipPath><clipPath id="ay"><use fill-rule="evenodd" clip-rule="evenodd" xlink:href="#reuse-1"/></clipPath><clipPath id="az"><use fill-rule="evenodd" clip-rule="evenodd" xlink:href="#reuse-1"/></clipPath></defs><g clip-path="url(#a)"><path fill="#FFF" d="M0 0h1040v720H0z"/><g clip-path="url(#b)"><g clip-path="url(#c)"><g clip-path="url(#d)" transform="translate(103 96)"><use width="100%" height="100%" xlink:href="#e"/></g></g></g><g clip-path="url(#f)"><g clip-path="url(#g)"><g clip-path="url(#h)" transform="translate(220 96)"><use width="100%" height="100%" xlink:href="#i"/></g></g></g><g clip-path="url(#j)"><g clip-path="url(#k)"><g clip-path="url(#l)" transform="translate(473 96)"><use width="100%" height="100%" xlink:href="#m"/></g></g></g><g clip-path="url(#n)"><g clip-path="url(#o)"><g clip-path="url(#p)" transform="translate(545 96)"><use width="100%" height="100%" xlink:href="#q"/></g></g></g><g clip-path="url(#r)"><g clip-path="url(#s)"><g clip-path="url(#t)" transform="translate(762 96)"><use width="100%" height="100%" xlink:href="#u"/></g></g></g><g clip-path="url(#v)"><path fill="#2E75B6" stroke="#1F4E79" stroke-linejoin="round" stroke-miterlimit="10" stroke-width="1.33333" d="M416.5 625.5h-307v-45h307zm-72-96h-235v-45h235zm18-96h-253v-44h253zm-27-96h-226v-44h226zm-90-95h-136v-45h136zm-18-96h-118v-45h118z"/></g><g clip-path="url(#w)"><path fill="none" stroke="#767171" stroke-dasharray="2 2" stroke-linecap="round" stroke-linejoin="round" stroke-miterlimit="10" d="M344.5 529.5l72 51m-54-147l-18 51m-9-147l27 52m-117-147l90 51m-108-147l18 51"/></g><g clip-path="url(#x)"><path fill="#9DC3E6" stroke="#2E75B6" stroke-linejoin="round" stroke-miterlimit="10" stroke-width="1.33333" d="M706.5 625.5h-290v-45h290zm-54-96h-308v-45h308zm18-96h-308v-44h308zm-82-96h-253v-44h253zm-45-95h-298v-45h298zm-63-96h-253v-45h253z"/></g><g clip-path="url(#y)"><path fill="none" stroke="#767171" stroke-dasharray="2 2" stroke-linecap="round" stroke-linejoin="round" stroke-miterlimit="10" d="M652.5 529.5l54 51m-36-147l-18 51m-64-147l82 52m-127-147l45 51m-108-147l63 51"/></g><g clip-path="url(#z)"><path fill="#D9D9D9" stroke="#A6A6A6" stroke-linejoin="round" stroke-miterlimit="10" stroke-width="1.33333" d="M796.5 625.5h-90v-45h90zm-36-96h-108v-45h108zm-9-96h-81v-44h81zm-18-96h-145v-44h145zm-54-95h-136v-45h136zm-127-96h-72v-45h72z"/></g><g clip-path="url(#A)"><path fill="none" stroke="#767171" stroke-dasharray="2 2" stroke-linecap="round" stroke-linejoin="round" stroke-miterlimit="10" d="M760.5 529.5l36 51m-45-147l9 51m-27-147l18 52m-72-147l54 51m-181-147l127 51"/></g><g clip-path="url(#B)"><path fill="#F4B183" stroke="#C55A11" stroke-linejoin="round" stroke-miterlimit="10" stroke-width="1.33333" d="M905.5 625.5h-109v-45h109zm-18-96h-127v-45h127zm0-96h-136v-44h136zm-18-96h-136v-44h136zm-18-95h-172v-45h172zm-82-96h-217v-45h217z"/></g><g clip-path="url(#C)"><path fill="none" stroke="#767171" stroke-dasharray="2 2" stroke-linecap="round" stroke-linejoin="round" stroke-miterlimit="10" d="M887.5 529.5l18 51m-18-147v51m-18-147l18 52m-36-147l18 51m-100-147l82 51"/></g><g clip-path="url(#D)"><path fill="#C55A11" stroke="#843C0C" stroke-linejoin="round" stroke-miterlimit="10" stroke-width="1.33333" d="M1013.5 625.5h-108v-45h108zm0-96h-126v-45h126zm0-96h-126v-44h126zm0-96h-144v-44h144zm0-95h-162v-45h162zm0-96h-244v-45h244z"/></g><g clip-path="url(#E)"><path fill="none" stroke="#767171" stroke-dasharray="2 2" stroke-linecap="round" stroke-linejoin="round" stroke-miterlimit="10" d="M1013.5 529.5v51m0-147v51m0-147v52m0-147v51m0-147v51"/></g><g clip-path="url(#F)"><text fill="#F2F2F2" font-size="16" transform="translate(251.08 608)">34%</text></g><g clip-path="url(#G)"><text fill="#F2F2F2" font-size="16" transform="translate(214.954 512)">26%</text></g><g clip-path="url(#H)"><text fill="#F2F2F2" font-size="16" transform="translate(224.007 417)">28%</text></g><g clip-path="url(#I)"><text fill="#F2F2F2" font-size="16" transform="translate(210.916 321)">25%</text></g><g clip-path="url(#J)"><text fill="#F2F2F2" font-size="16" transform="translate(166.605 225)">15%</text></g><g clip-path="url(#K)"><text fill="#F2F2F2" font-size="16" transform="translate(157.606 129)">13%</text></g><g clip-path="url(#L)"><text fill="#404040" font-size="16" transform="translate(550.044 608)">32%</text></g><g clip-path="url(#M)"><text fill="#404040" font-size="16" transform="translate(486.178 512)">34%</text></g><g clip-path="url(#N)"><text fill="#404040" font-size="16" transform="translate(504.262 417)">34%</text></g><g clip-path="url(#O)"><text fill="#404040" font-size="16" transform="translate(450.062 321)">28%</text></g><g clip-path="url(#P)"><text fill="#404040" font-size="16" transform="translate(382.572 225)">33%</text></g><g clip-path="url(#Q)"><text fill="#404040" font-size="16" transform="translate(341.555 129)">28%</text></g><g clip-path="url(#R)"><text fill="#404040" font-size="15" transform="translate(741.26 608)">10%</text></g><g clip-path="url(#S)"><text fill="#404040" font-size="15" transform="translate(696.689 512)">12%</text></g><g clip-path="url(#T)"><text fill="#404040" font-size="15" transform="translate(703.14 416)">9%</text></g><g clip-path="url(#U)"><text fill="#404040" font-size="15" transform="translate(650.818 321)">16%</text></g><g clip-path="url(#V)"><text fill="#404040" font-size="15" transform="translate(601.529 225)">15%</text></g><g clip-path="url(#W)"><text fill="#404040" font-size="15" transform="translate(508.716 129)">8%</text></g><g clip-path="url(#X)"><text fill="#404040" font-size="16" transform="translate(840.485 608)">12%</text></g><g clip-path="url(#Y)"><text fill="#404040" font-size="16" transform="translate(812.788 512)">14%</text></g><g clip-path="url(#Z)"><text fill="#404040" font-size="16" transform="translate(808.604 417)">15%</text></g><g clip-path="url(#aa)"><text fill="#404040" font-size="16" transform="translate(790.519 321)">15%</text></g><g clip-path="url(#ab)"><text fill="#404040" font-size="16" transform="translate(753.894 225)">19%</text></g><g clip-path="url(#ac)"><text fill="#404040" font-size="16" transform="translate(649.128 129)">24%</text></g><g clip-path="url(#ad)"><text fill="#F2F2F2" font-size="16" transform="translate(948.992 608)">12%</text></g><g clip-path="url(#ae)"><text fill="#F2F2F2" font-size="16" transform="translate(939.38 512)">14%</text></g><g clip-path="url(#af)"><text fill="#F2F2F2" font-size="16" transform="translate(939.38 417)">14%</text></g><g clip-path="url(#ag)"><text fill="#F2F2F2" font-size="16" transform="translate(930.191 321)">16%</text></g><g clip-path="url(#ah)"><text fill="#F2F2F2" font-size="16" transform="translate(921.159 225)">18%</text></g><g clip-path="url(#ai)"><text fill="#F2F2F2" font-size="16" transform="translate(880.192 129)">27%</text></g><g clip-path="url(#aj)"><text fill="#262626" font-size="17" transform="translate(26.3229 608)">Amazon</text></g><g clip-path="url(#ak)"><text fill="#262626" font-size="17" transform="translate(16.6362 512)">Microsoft</text></g><g clip-path="url(#al)"><text fill="#262626" font-size="17" transform="translate(36.2696 417)">Google</text></g><g clip-path="url(#am)"><text fill="#262626" font-size="17" transform="translate(49.2163 321)">Apple</text></g><g clip-path="url(#an)"><text fill="#262626" font-size="17" transform="translate(41.3163 225)">Yahoo!</text></g><g clip-path="url(#ao)"><text fill="#262626" font-size="17" transform="translate(17.4896 130)">Facebook</text></g><g clip-path="url(#ap)"><text fill="#0D0D0D" font-size="24" font-weight="300" transform="translate(138.682 53)">How much do you trust [] to obey laws that protect your personal information?</text></g><g clip-path="url(#aq)"><path fill="#2E75B6" stroke="#1F4E79" stroke-linejoin="round" stroke-miterlimit="10" stroke-width="1.33333" d="M190.5 674.5h9v9h-9z"/></g><g clip-path="url(#ar)"><text fill="#404040" font-size="16" transform="translate(203.149 683)">Trust a lot</text></g><g clip-path="url(#as)"><path fill="#9DC3E6" stroke="#2E75B6" stroke-linejoin="round" stroke-miterlimit="10" stroke-width="1.33333" d="M295.5 674.5h9v9h-9z"/></g><g clip-path="url(#at)"><text fill="#404040" font-size="16" transform="translate(308.292 683)">Trust a little</text></g><g clip-path="url(#au)"><path fill="#D9D9D9" stroke="#A6A6A6" stroke-linejoin="round" stroke-miterlimit="10" stroke-width="1.33333" d="M412.5 674.5h9v9h-9z"/></g><g clip-path="url(#av)"><text fill="#404040" font-size="16" transform="translate(425.602 683)">Don’t know</text></g><g clip-path="url(#aw)"><path fill="#F4B183" stroke="#C55A11" stroke-linejoin="round" stroke-miterlimit="10" stroke-width="1.33333" d="M528.5 674.5h9v9h-9z"/></g><g clip-path="url(#ax)"><text fill="#404040" font-size="16" transform="translate(541.585 683)">Do not trust very much</text></g><g clip-path="url(#ay)"><path fill="#C55A11" stroke="#843C0C" stroke-linejoin="round" stroke-miterlimit="10" stroke-width="1.33333" d="M721.5 674.5h9v9h-9z"/></g><g clip-path="url(#az)"><text fill="#404040" font-size="16" transform="translate(734.202 683)">Do not trust at all</text></g></g></svg>