<svg viewBox="0 0 960 720" xmlns="http://www.w3.org/2000/svg" xmlns:xlink="http://www.w3.org/1999/xlink" overflow="hidden"><defs><clipPath id="clip0"><rect x="0" y="0" width="960" height="720"/></clipPath><clipPath id="clip1"><rect x="5" y="7" width="947" height="704"/></clipPath><clipPath id="clip2"><rect x="5" y="7" width="947" height="704"/></clipPath><clipPath id="clip3"><rect x="82" y="23" width="801" height="616"/></clipPath><clipPath id="clip4"><rect x="5" y="7" width="947" height="704"/></clipPath><clipPath id="clip5"><rect x="5" y="7" width="947" height="704"/></clipPath><clipPath id="clip6"><rect x="5" y="7" width="947" height="704"/></clipPath><clipPath id="clip7"><rect x="5" y="7" width="947" height="704"/></clipPath><clipPath id="clip8"><rect x="5" y="7" width="947" height="704"/></clipPath><clipPath id="clip9"><rect x="82" y="23" width="801" height="616"/></clipPath><clipPath id="clip10"><rect x="5" y="7" width="947" height="704"/></clipPath><clipPath id="clip11"><rect x="5" y="7" width="947" height="704"/></clipPath><clipPath id="clip12"><rect x="5" y="7" width="947" height="704"/></clipPath><clipPath id="clip13"><rect x="5" y="7" width="947" height="704"/></clipPath><clipPath id="clip14"><rect x="5" y="7" width="947" height="704"/></clipPath><clipPath id="clip15"><rect x="5" y="7" width="947" height="704"/></clipPath><clipPath id="clip16"><rect x="5" y="7" width="947" height="704"/></clipPath><clipPath id="clip17"><rect x="5" y="7" width="947" height="704"/></clipPath><clipPath id="clip18"><rect x="5" y="7" width="947" height="704"/></clipPath><clipPath id="clip19"><rect x="5" y="7" width="947" height="704"/></clipPath><clipPath id="clip20"><rect x="5" y="7" width="947" height="704"/></clipPath><clipPath id="clip21"><rect x="5" y="7" width="947" height="704"/></clipPath><clipPath id="clip22"><rect x="5" y="7" width="947" height="704"/></clipPath><clipPath id="clip23"><rect x="5" y="7" width="947" height="704"/></clipPath><clipPath id="clip24"><rect x="5" y="7" width="947" height="704"/></clipPath><clipPath id="clip25"><rect x="5" y="7" width="947" height="704"/></clipPath><clipPath id="clip26"><rect x="5" y="7" width="947" height="704"/></clipPath><clipPath id="clip27"><rect x="5" y="7" width="947" height="704"/></clipPath><clipPath id="clip28"><rect x="5" y="7" width="947" height="704"/></clipPath><clipPath id="clip29"><rect x="5" y="7" width="947" height="704"/></clipPath><clipPath id="clip30"><rect x="5" y="7" width="947" height="704"/></clipPath><clipPath id="clip31"><rect x="5" y="7" width="947" height="704"/></clipPath><clipPath id="clip32"><rect x="5" y="7" width="947" height="704"/></clipPath><clipPath id="clip33"><rect x="5" y="7" width="947" height="704"/></clipPath><clipPath id="clip34"><rect x="5" y="7" width="947" height="704"/></clipPath><clipPath id="clip35"><rect x="5" y="7" width="947" height="704"/></clipPath><clipPath id="clip36"><rect x="5" y="7" width="947" height="704"/></clipPath><clipPath id="clip37"><rect x="5" y="7" width="947" height="704"/></clipPath><clipPath id="clip38"><rect x="5" y="7" width="947" height="704"/></clipPath><clipPath id="clip39"><rect x="5" y="7" width="947" height="704"/></clipPath><clipPath id="clip40"><rect x="5" y="7" width="947" height="704"/></clipPath><clipPath id="clip41"><rect x="5" y="7" width="947" height="704"/></clipPath><clipPath id="clip42"><rect x="5" y="7" width="947" height="704"/></clipPath><clipPath id="clip43"><rect x="5" y="7" width="947" height="704"/></clipPath><clipPath id="clip44"><rect x="5" y="7" width="947" height="704"/></clipPath><clipPath id="clip45"><rect x="5" y="7" width="947" height="704"/></clipPath><clipPath id="clip46"><rect x="5" y="7" width="947" height="704"/></clipPath><clipPath id="clip47"><rect x="5" y="7" width="947" height="704"/></clipPath><clipPath id="clip48"><rect x="5" y="7" width="947" height="704"/></clipPath><clipPath id="clip49"><rect x="5" y="7" width="947" height="704"/></clipPath><clipPath id="clip50"><rect x="5" y="7" width="947" height="704"/></clipPath><clipPath id="clip51"><rect x="5" y="7" width="947" height="704"/></clipPath><clipPath id="clip52"><rect x="5" y="7" width="947" height="704"/></clipPath><clipPath id="clip53"><rect x="5" y="7" width="947" height="704"/></clipPath><clipPath id="clip54"><rect x="5" y="7" width="947" height="704"/></clipPath><clipPath id="clip55"><rect x="5" y="7" width="947" height="704"/></clipPath><clipPath id="clip56"><rect x="5" y="7" width="947" height="704"/></clipPath><clipPath id="clip57"><rect x="5" y="7" width="947" height="704"/></clipPath><clipPath id="clip58"><rect x="5" y="7" width="947" height="704"/></clipPath><clipPath id="clip59"><rect x="5" y="7" width="947" height="704"/></clipPath><clipPath id="clip60"><rect x="5" y="7" width="947" height="704"/></clipPath><clipPath id="clip61"><rect x="5" y="7" width="947" height="704"/></clipPath><clipPath id="clip62"><rect x="5" y="7" width="947" height="704"/></clipPath><clipPath id="clip63"><rect x="5" y="7" width="947" height="704"/></clipPath><clipPath id="clip64"><rect x="5" y="7" width="947" height="704"/></clipPath><clipPath id="clip65"><rect x="5" y="7" width="947" height="704"/></clipPath><clipPath id="clip66"><rect x="5" y="7" width="947" height="704"/></clipPath><clipPath id="clip67"><rect x="5" y="7" width="947" height="704"/></clipPath><clipPath id="clip68"><rect x="5" y="7" width="947" height="704"/></clipPath><clipPath id="clip69"><rect x="5" y="7" width="947" height="704"/></clipPath><clipPath id="clip70"><rect x="5" y="7" width="947" height="704"/></clipPath><clipPath id="clip71"><rect x="5" y="7" width="947" height="704"/></clipPath><clipPath id="clip72"><rect x="5" y="7" width="947" height="704"/></clipPath><clipPath id="clip73"><rect x="5" y="7" width="947" height="704"/></clipPath><clipPath id="clip74"><rect x="5" y="7" width="947" height="704"/></clipPath><clipPath id="clip75"><rect x="5" y="7" width="947" height="704"/></clipPath><clipPath id="clip76"><rect x="5" y="7" width="947" height="704"/></clipPath><clipPath id="clip77"><rect x="5" y="7" width="947" height="704"/></clipPath><clipPath id="clip78"><rect x="5" y="7" width="947" height="704"/></clipPath><clipPath id="clip79"><rect x="5" y="7" width="947" height="704"/></clipPath><clipPath id="clip80"><rect x="5" y="7" width="947" height="704"/></clipPath><clipPath id="clip81"><rect x="5" y="7" width="947" height="704"/></clipPath><clipPath id="clip82"><rect x="5" y="7" width="947" height="704"/></clipPath><clipPath id="clip83"><rect x="5" y="7" width="947" height="704"/></clipPath><clipPath id="clip84"><rect x="5" y="7" width="947" height="704"/></clipPath><clipPath id="clip85"><rect x="5" y="7" width="947" height="704"/></clipPath><clipPath id="clip86"><rect x="5" y="7" width="947" height="704"/></clipPath><clipPath id="clip87"><rect x="5" y="7" width="947" height="704"/></clipPath><clipPath id="clip88"><rect x="5" y="7" width="947" height="704"/></clipPath><clipPath id="clip89"><rect x="5" y="7" width="947" height="704"/></clipPath><clipPath id="clip90"><rect x="5" y="7" width="947" height="704"/></clipPath><clipPath id="clip91"><rect x="5" y="7" width="947" height="704"/></clipPath><clipPath id="clip92"><rect x="5" y="7" width="947" height="704"/></clipPath><clipPath id="clip93"><rect x="5" y="7" width="947" height="704"/></clipPath><clipPath id="clip94"><rect x="5" y="7" width="947" height="704"/></clipPath><clipPath id="clip95"><rect x="5" y="7" width="947" height="704"/></clipPath><clipPath id="clip96"><rect x="5" y="7" width="947" height="704"/></clipPath><clipPath id="clip97"><rect x="5" y="7" width="947" height="704"/></clipPath><clipPath id="clip98"><rect x="5" y="7" width="947" height="704"/></clipPath><clipPath id="clip99"><rect x="5" y="7" width="947" height="704"/></clipPath><clipPath id="clip100"><rect x="5" y="7" width="947" height="704"/></clipPath><clipPath id="clip101"><rect x="5" y="7" width="947" height="704"/></clipPath><clipPath id="clip102"><rect x="5" y="7" width="947" height="704"/></clipPath><clipPath id="clip103"><rect x="5" y="7" width="947" height="704"/></clipPath><clipPath id="clip104"><rect x="5" y="7" width="947" height="704"/></clipPath><clipPath id="clip105"><rect x="5" y="7" width="947" height="704"/></clipPath><clipPath id="clip106"><rect x="5" y="7" width="947" height="704"/></clipPath><clipPath id="clip107"><rect x="5" y="7" width="947" height="704"/></clipPath><clipPath id="clip108"><rect x="5" y="7" width="947" height="704"/></clipPath></defs><g clip-path="url(#clip0)"><rect x="0" y="0" width="960" height="720" fill="#FFFFFF"/><g clip-path="url(#clip1)"><path d="M82.5001 618.5 882.5 618.5M82.5001 597.5 882.5 597.5M82.5001 577.5 882.5 577.5M82.5001 556.5 882.5 556.5M82.5001 515.5 882.5 515.5M82.5001 495.5 882.5 495.5M82.5001 474.5 882.5 474.5M82.5001 454.5 882.5 454.5M82.5001 413.5 882.5 413.5M82.5001 392.5 882.5 392.5M82.5001 372.5 882.5 372.5M82.5001 351.5 882.5 351.5M82.5001 310.5 882.5 310.5M82.5001 290.5 882.5 290.5M82.5001 269.5 882.5 269.5M82.5001 249.5 882.5 249.5M82.5001 208.5 882.5 208.5M82.5001 187.5 882.5 187.5M82.5001 167.5 882.5 167.5M82.5001 146.5 882.5 146.5M82.5001 105.5 882.5 105.5M82.5001 85.5 882.5 85.5M82.5001 64.5001 882.5 64.5001M82.5001 44.5001 882.5 44.5001" stroke="#F2F2F2" stroke-linejoin="round" stroke-miterlimit="10" fill="none"/></g><g clip-path="url(#clip2)"><path d="M82.5001 638.5 882.5 638.5M82.5001 433.5 882.5 433.5M82.5001 331.5 882.5 331.5M82.5001 228.5 882.5 228.5M82.5001 126.5 882.5 126.5M82.5001 23.5001 882.5 23.5001" stroke="#D9D9D9" stroke-linejoin="round" stroke-miterlimit="10" fill="none"/></g><g clip-path="url(#clip3)"><path d="M102.5 263.5 128.5 263.5 128.5 536.5 102.5 536.5ZM168.5 283.5 195.5 283.5 195.5 536.5 168.5 536.5ZM235.5 285.5 262.5 285.5 262.5 536.5 235.5 536.5ZM302.5 195.5 328.5 195.5 328.5 536.5 302.5 536.5ZM368.5 250.5 395.5 250.5 395.5 536.5 368.5 536.5ZM435.5 578.5 462.5 578.5 462.5 536.5 435.5 536.5ZM502.5 543.5 529.5 543.5 529.5 536.5 502.5 536.5ZM569.5 442.5 595.5 442.5 595.5 536.5 569.5 536.5ZM635.5 336.5 662.5 336.5 662.5 536.5 635.5 536.5ZM702.5 314.5 729.5 314.5 729.5 536.5 702.5 536.5ZM769.5 325.5 795.5 325.5 795.5 536.5 769.5 536.5ZM835.5 336.5 862.5 336.5 862.5 536.5 835.5 536.5Z" stroke="#767171" stroke-linejoin="round" stroke-miterlimit="10" fill="#70AD47"/></g><g clip-path="url(#clip4)"><path d="M0 0 0.000104987 615" stroke="#4472C4" stroke-linejoin="round" stroke-miterlimit="10" fill="none" fill-rule="evenodd" transform="matrix(1 0 0 -1 882.5 638.5)"/></g><g clip-path="url(#clip5)"><path d="M882.5 638.5 887.5 638.5M882.5 536.5 887.5 536.5M882.5 433.5 887.5 433.5M882.5 331.5 887.5 331.5M882.5 228.5 887.5 228.5M882.5 126.5 887.5 126.5M882.5 23.5001 887.5 23.5001" stroke="#4472C4" stroke-linejoin="round" stroke-miterlimit="10" fill="none"/></g><g clip-path="url(#clip6)"><path d="M0 0 0.000104987 615" stroke="#4472C4" stroke-linejoin="round" stroke-miterlimit="10" fill="none" fill-rule="evenodd" transform="matrix(1 0 0 -1 282.5 638.5)"/></g><g clip-path="url(#clip7)"><path d="M277.5 638.5 282.5 638.5M277.5 536.5 282.5 536.5M277.5 433.5 282.5 433.5M277.5 331.5 282.5 331.5M277.5 228.5 282.5 228.5M277.5 126.5 282.5 126.5M277.5 23.5001 282.5 23.5001" stroke="#4472C4" stroke-linejoin="round" stroke-miterlimit="10" fill="none"/></g><g clip-path="url(#clip8)"><path d="M82.5001 536.5 882.5 536.5" stroke="#D9D9D9" stroke-linejoin="round" stroke-miterlimit="10" fill="none" fill-rule="evenodd"/></g><g clip-path="url(#clip9)"><path d="M115.5 228.5 182.5 249.5 248.5 249.5 315.5 105.5 382.5 177.5 448.5 628.5 515.5 597.5 582.5 423.5 649.5 259.5 715.5 249.5 782.5 259.5 849.5 280.5" stroke="#2E75B6" stroke-width="3.33333" stroke-linecap="round" stroke-linejoin="round" stroke-miterlimit="10" fill="none"/></g><g clip-path="url(#clip10)"><path d="M448.5 578.5 439.5 589.5 433.5 589.5" stroke="#A6A6A6" stroke-linejoin="round" stroke-miterlimit="10" fill="none"/></g><g clip-path="url(#clip11)"><path d="M515.5 543.5 529.5 564.5 535.5 564.5" stroke="#A6A6A6" stroke-linejoin="round" stroke-miterlimit="10" fill="none"/></g><g clip-path="url(#clip12)"><rect x="99" y="238" width="33" height="22" fill="#E2F0D9"/></g><g clip-path="url(#clip13)"><text fill="#404040" font-family="Segoe UI,Segoe UI_MSFontService,sans-serif" font-weight="400" font-size="13" transform="translate(102.786 254)">31%</text></g><g clip-path="url(#clip14)"><rect x="165" y="258" width="34" height="21" fill="#E2F0D9"/></g><g clip-path="url(#clip15)"><text fill="#404040" font-family="Segoe UI,Segoe UI_MSFontService,sans-serif" font-weight="400" font-size="13" transform="translate(169.5 274)">30%</text></g><g clip-path="url(#clip16)"><rect x="232" y="260" width="33" height="21" fill="#E2F0D9"/></g><g clip-path="url(#clip17)"><text fill="#404040" font-family="Segoe UI,Segoe UI_MSFontService,sans-serif" font-weight="400" font-size="13" transform="translate(236.213 276)">35%</text></g><g clip-path="url(#clip18)"><rect x="299" y="169" width="33" height="22" fill="#E2F0D9"/></g><g clip-path="url(#clip19)"><text fill="#404040" font-family="Segoe UI,Segoe UI_MSFontService,sans-serif" font-weight="400" font-size="13" transform="translate(302.927 185)">22%</text></g><g clip-path="url(#clip20)"><rect x="366" y="225" width="33" height="21" fill="#E2F0D9"/></g><g clip-path="url(#clip21)"><text fill="#404040" font-family="Segoe UI,Segoe UI_MSFontService,sans-serif" font-weight="400" font-size="13" transform="translate(369.64 241)">12%</text></g><g clip-path="url(#clip22)"><rect x="387" y="578" width="46" height="22" fill="#E2F0D9"/></g><g clip-path="url(#clip23)"><text fill="#404040" font-family="Segoe UI,Segoe UI_MSFontService,sans-serif" font-weight="400" font-size="13" transform="translate(391.224 594)">-</text></g><g clip-path="url(#clip24)"><text fill="#404040" font-family="Segoe UI,Segoe UI_MSFontService,sans-serif" font-weight="400" font-size="13" transform="translate(396.558 594)">114%</text></g><g clip-path="url(#clip25)"><rect x="536" y="553" width="46" height="22" fill="#E2F0D9"/></g><g clip-path="url(#clip26)"><text fill="#404040" font-family="Segoe UI,Segoe UI_MSFontService,sans-serif" font-weight="400" font-size="13" transform="translate(539.841 569)">-</text></g><g clip-path="url(#clip27)"><text fill="#404040" font-family="Segoe UI,Segoe UI_MSFontService,sans-serif" font-weight="400" font-size="13" transform="translate(545.174 569)">103%</text></g><g clip-path="url(#clip28)"><rect x="563" y="416" width="39" height="22" fill="#E2F0D9"/></g><g clip-path="url(#clip29)"><text fill="#404040" font-family="Segoe UI,Segoe UI_MSFontService,sans-serif" font-weight="400" font-size="13" transform="translate(567.114 432)">-</text></g><g clip-path="url(#clip30)"><text fill="#404040" font-family="Segoe UI,Segoe UI_MSFontService,sans-serif" font-weight="400" font-size="13" transform="translate(572.447 432)">68%</text></g><g clip-path="url(#clip31)"><rect x="630" y="311" width="38" height="22" fill="#E2F0D9"/></g><g clip-path="url(#clip32)"><text fill="#404040" font-family="Segoe UI,Segoe UI_MSFontService,sans-serif" font-weight="400" font-size="13" transform="translate(633.827 327)">-</text></g><g clip-path="url(#clip33)"><text fill="#404040" font-family="Segoe UI,Segoe UI_MSFontService,sans-serif" font-weight="400" font-size="13" transform="translate(639.161 327)">31%</text></g><g clip-path="url(#clip34)"><rect x="697" y="288" width="38" height="22" fill="#E2F0D9"/></g><g clip-path="url(#clip35)"><text fill="#404040" font-family="Segoe UI,Segoe UI_MSFontService,sans-serif" font-weight="400" font-size="13" transform="translate(700.541 304)">-</text></g><g clip-path="url(#clip36)"><text fill="#404040" font-family="Segoe UI,Segoe UI_MSFontService,sans-serif" font-weight="400" font-size="13" transform="translate(705.874 304)">28%</text></g><g clip-path="url(#clip37)"><rect x="763" y="300" width="39" height="21" fill="#E2F0D9"/></g><g clip-path="url(#clip38)"><text fill="#404040" font-family="Segoe UI,Segoe UI_MSFontService,sans-serif" font-weight="400" font-size="13" transform="translate(767.254 316)">-</text></g><g clip-path="url(#clip39)"><text fill="#404040" font-family="Segoe UI,Segoe UI_MSFontService,sans-serif" font-weight="400" font-size="13" transform="translate(772.588 316)">28%</text></g><g clip-path="url(#clip40)"><rect x="830" y="311" width="39" height="22" fill="#E2F0D9"/></g><g clip-path="url(#clip41)"><text fill="#404040" font-family="Segoe UI,Segoe UI_MSFontService,sans-serif" font-weight="400" font-size="13" transform="translate(833.968 327)">-</text></g><g clip-path="url(#clip42)"><text fill="#404040" font-family="Segoe UI,Segoe UI_MSFontService,sans-serif" font-weight="400" font-size="13" transform="translate(839.301 327)">28%</text></g><g clip-path="url(#clip43)"><path d="M448.5 628.5 447.5 626.5 441.5 626.5" stroke="#A6A6A6" stroke-linejoin="round" stroke-miterlimit="10" fill="none"/></g><g clip-path="url(#clip44)"><path d="M515.5 597.5 516.5 608.5 522.5 608.5" stroke="#A6A6A6" stroke-linejoin="round" stroke-miterlimit="10" fill="none"/></g><g clip-path="url(#clip45)"><rect x="99" y="200" width="33" height="22" fill="#DEEBF7"/></g><g clip-path="url(#clip46)"><text fill="#404040" font-family="Segoe UI,Segoe UI_MSFontService,sans-serif" font-weight="400" font-size="13" transform="translate(102.786 216)">30%</text></g><g clip-path="url(#clip47)"><rect x="165" y="220" width="34" height="22" fill="#DEEBF7"/></g><g clip-path="url(#clip48)"><text fill="#404040" font-family="Segoe UI,Segoe UI_MSFontService,sans-serif" font-weight="400" font-size="13" transform="translate(169.5 236)">29%</text></g><g clip-path="url(#clip49)"><rect x="232" y="220" width="33" height="22" fill="#DEEBF7"/></g><g clip-path="url(#clip50)"><text fill="#404040" font-family="Segoe UI,Segoe UI_MSFontService,sans-serif" font-weight="400" font-size="13" transform="translate(236.213 236)">35%</text></g><g clip-path="url(#clip51)"><rect x="299" y="77" width="33" height="22" fill="#DEEBF7"/></g><g clip-path="url(#clip52)"><text fill="#404040" font-family="Segoe UI,Segoe UI_MSFontService,sans-serif" font-weight="400" font-size="13" transform="translate(302.927 93)">24%</text></g><g clip-path="url(#clip53)"><rect x="366" y="149" width="33" height="21" fill="#DEEBF7"/></g><g clip-path="url(#clip54)"><text fill="#404040" font-family="Segoe UI,Segoe UI_MSFontService,sans-serif" font-weight="400" font-size="13" transform="translate(369.64 165)">15%</text></g><g clip-path="url(#clip55)"><rect x="396" y="616" width="46" height="21" fill="#DEEBF7"/></g><g clip-path="url(#clip56)"><text fill="#404040" font-family="Segoe UI,Segoe UI_MSFontService,sans-serif" font-weight="400" font-size="13" transform="translate(399.697 632)">-</text></g><g clip-path="url(#clip57)"><text fill="#404040" font-family="Segoe UI,Segoe UI_MSFontService,sans-serif" font-weight="400" font-size="13" transform="translate(405.031 632)">127%</text></g><g clip-path="url(#clip58)"><rect x="522" y="598" width="46" height="21" fill="#DEEBF7"/></g><g clip-path="url(#clip59)"><text fill="#404040" font-family="Segoe UI,Segoe UI_MSFontService,sans-serif" font-weight="400" font-size="13" transform="translate(526.103 614)">-</text></g><g clip-path="url(#clip60)"><text fill="#404040" font-family="Segoe UI,Segoe UI_MSFontService,sans-serif" font-weight="400" font-size="13" transform="translate(531.436 614)">119%</text></g><g clip-path="url(#clip61)"><rect x="563" y="395" width="39" height="21" fill="#DEEBF7"/></g><g clip-path="url(#clip62)"><text fill="#404040" font-family="Segoe UI,Segoe UI_MSFontService,sans-serif" font-weight="400" font-size="13" transform="translate(567.114 411)">-</text></g><g clip-path="url(#clip63)"><text fill="#404040" font-family="Segoe UI,Segoe UI_MSFontService,sans-serif" font-weight="400" font-size="13" transform="translate(572.447 411)">69%</text></g><g clip-path="url(#clip64)"><rect x="630" y="231" width="38" height="21" fill="#DEEBF7"/></g><g clip-path="url(#clip65)"><text fill="#404040" font-family="Segoe UI,Segoe UI_MSFontService,sans-serif" font-weight="400" font-size="13" transform="translate(633.827 247)">-</text></g><g clip-path="url(#clip66)"><text fill="#404040" font-family="Segoe UI,Segoe UI_MSFontService,sans-serif" font-weight="400" font-size="13" transform="translate(639.161 247)">17%</text></g><g clip-path="url(#clip67)"><rect x="697" y="220" width="38" height="22" fill="#DEEBF7"/></g><g clip-path="url(#clip68)"><text fill="#404040" font-family="Segoe UI,Segoe UI_MSFontService,sans-serif" font-weight="400" font-size="13" transform="translate(700.541 236)">-</text></g><g clip-path="url(#clip69)"><text fill="#404040" font-family="Segoe UI,Segoe UI_MSFontService,sans-serif" font-weight="400" font-size="13" transform="translate(705.874 236)">19%</text></g><g clip-path="url(#clip70)"><rect x="763" y="231" width="39" height="21" fill="#DEEBF7"/></g><g clip-path="url(#clip71)"><text fill="#404040" font-family="Segoe UI,Segoe UI_MSFontService,sans-serif" font-weight="400" font-size="13" transform="translate(767.254 247)">-</text></g><g clip-path="url(#clip72)"><text fill="#404040" font-family="Segoe UI,Segoe UI_MSFontService,sans-serif" font-weight="400" font-size="13" transform="translate(772.588 247)">14%</text></g><g clip-path="url(#clip73)"><rect x="830" y="251" width="39" height="22" fill="#DEEBF7"/></g><g clip-path="url(#clip74)"><text fill="#404040" font-family="Segoe UI,Segoe UI_MSFontService,sans-serif" font-weight="400" font-size="13" transform="translate(833.968 267)">-</text></g><g clip-path="url(#clip75)"><text fill="#404040" font-family="Segoe UI,Segoe UI_MSFontService,sans-serif" font-weight="400" font-size="13" transform="translate(839.301 267)">17%</text></g><g clip-path="url(#clip76)"><text font-family="Segoe UI,Segoe UI_MSFontService,sans-serif" font-weight="400" font-size="14" transform="translate(896.98 643)">-1</text></g><g clip-path="url(#clip77)"><text font-family="Segoe UI,Segoe UI_MSFontService,sans-serif" font-weight="400" font-size="14" transform="translate(896.98 541)">0</text></g><g clip-path="url(#clip78)"><text font-family="Segoe UI,Segoe UI_MSFontService,sans-serif" font-weight="400" font-size="14" transform="translate(896.98 438)">1</text></g><g clip-path="url(#clip79)"><text font-family="Segoe UI,Segoe UI_MSFontService,sans-serif" font-weight="400" font-size="14" transform="translate(896.98 336)">2</text></g><g clip-path="url(#clip80)"><text font-family="Segoe UI,Segoe UI_MSFontService,sans-serif" font-weight="400" font-size="14" transform="translate(896.98 233)">3</text></g><g clip-path="url(#clip81)"><text font-family="Segoe UI,Segoe UI_MSFontService,sans-serif" font-weight="400" font-size="14" transform="translate(896.98 131)">4</text></g><g clip-path="url(#clip82)"><text font-family="Segoe UI,Segoe UI_MSFontService,sans-serif" font-weight="400" font-size="14" transform="translate(896.98 28)">5</text></g><g clip-path="url(#clip83)"><text font-family="Segoe UI,Segoe UI_MSFontService,sans-serif" font-weight="400" font-size="14" transform="translate(47.0338 643)">-10</text></g><g clip-path="url(#clip84)"><text font-family="Segoe UI,Segoe UI_MSFontService,sans-serif" font-weight="400" font-size="14" transform="translate(60.1805 541)">0</text></g><g clip-path="url(#clip85)"><text font-family="Segoe UI,Segoe UI_MSFontService,sans-serif" font-weight="400" font-size="14" transform="translate(52.6338 438)">10</text></g><g clip-path="url(#clip86)"><text font-family="Segoe UI,Segoe UI_MSFontService,sans-serif" font-weight="400" font-size="14" transform="translate(52.6338 336)">20</text></g><g clip-path="url(#clip87)"><text font-family="Segoe UI,Segoe UI_MSFontService,sans-serif" font-weight="400" font-size="14" transform="translate(52.6338 233)">30</text></g><g clip-path="url(#clip88)"><text font-family="Segoe UI,Segoe UI_MSFontService,sans-serif" font-weight="400" font-size="14" transform="translate(52.6338 131)">40</text></g><g clip-path="url(#clip89)"><text font-family="Segoe UI,Segoe UI_MSFontService,sans-serif" font-weight="400" font-size="14" transform="translate(52.6338 28)">50</text></g><g clip-path="url(#clip90)"><text font-family="Segoe UI,Segoe UI_MSFontService,sans-serif" font-weight="400" font-size="14" transform="translate(87.5361 664)">Oct 2019</text></g><g clip-path="url(#clip91)"><text font-family="Segoe UI,Segoe UI_MSFontService,sans-serif" font-weight="400" font-size="14" transform="translate(152.443 664)">Nov 2019</text></g><g clip-path="url(#clip92)"><text font-family="Segoe UI,Segoe UI_MSFontService,sans-serif" font-weight="400" font-size="14" transform="translate(220.046 664)">Dec 2019</text></g><g clip-path="url(#clip93)"><text font-family="Segoe UI,Segoe UI_MSFontService,sans-serif" font-weight="400" font-size="14" transform="translate(288.54 664)">Jan 2020</text></g><g clip-path="url(#clip94)"><text font-family="Segoe UI,Segoe UI_MSFontService,sans-serif" font-weight="400" font-size="14" transform="translate(354.08 664)">Feb 2020</text></g><g clip-path="url(#clip95)"><text font-family="Segoe UI,Segoe UI_MSFontService,sans-serif" font-weight="400" font-size="14" transform="translate(419.707 664)">Mar 2020</text></g><g clip-path="url(#clip96)"><text font-family="Segoe UI,Segoe UI_MSFontService,sans-serif" font-weight="400" font-size="14" transform="translate(487.634 664)">Apr 2020</text></g><g clip-path="url(#clip97)"><text font-family="Segoe UI,Segoe UI_MSFontService,sans-serif" font-weight="400" font-size="14" transform="translate(552.18 664)">May 2020</text></g><g clip-path="url(#clip98)"><text font-family="Segoe UI,Segoe UI_MSFontService,sans-serif" font-weight="400" font-size="14" transform="translate(621.707 664)">Jun 2020</text></g><g clip-path="url(#clip99)"><text font-family="Segoe UI,Segoe UI_MSFontService,sans-serif" font-weight="400" font-size="14" transform="translate(690.684 664)">Jul 2020</text></g><g clip-path="url(#clip100)"><text font-family="Segoe UI,Segoe UI_MSFontService,sans-serif" font-weight="400" font-size="14" transform="translate(752.954 664)">Aug 2020</text></g><g clip-path="url(#clip101)"><text font-family="Segoe UI,Segoe UI_MSFontService,sans-serif" font-weight="400" font-size="14" transform="translate(820.771 664)">Sep 2020</text></g><g clip-path="url(#clip102)"><text font-family="Segoe UI,Segoe UI_MSFontService,sans-serif" font-weight="400" font-size="16" transform="matrix(6.12323e-17 -1 1 6.12323e-17 931.127 451)">Gross Booking Value ($ in billions)</text></g><g clip-path="url(#clip103)"><text font-family="Segoe UI,Segoe UI_MSFontService,sans-serif" font-weight="400" font-size="16" transform="matrix(6.12323e-17 -1 1 6.12323e-17 38.7538 486)">Nights</text></g><g clip-path="url(#clip104)"><text font-family="Segoe UI,Segoe UI_MSFontService,sans-serif" font-weight="400" font-size="16" transform="matrix(6.12323e-17 -1 1 6.12323e-17 38.7538 435)">and Experiences booked (in millions)</text></g><g clip-path="url(#clip105)"><rect x="180.5" y="685.5" width="25" height="9" stroke="#767171" stroke-linejoin="round" stroke-miterlimit="10" fill="#70AD47"/></g><g clip-path="url(#clip106)"><text font-family="Segoe UI,Segoe UI_MSFontService,sans-serif" font-weight="400" font-size="15" transform="translate(208.533 695)">Nights and Experiences booked (in millions)</text></g><g clip-path="url(#clip107)"><path d="M533.5 689.5 558.5 689.5" stroke="#2E75B6" stroke-width="3.33333" stroke-linecap="round" stroke-linejoin="round" stroke-miterlimit="10" fill="none" fill-rule="evenodd"/></g><g clip-path="url(#clip108)"><text font-family="Segoe UI,Segoe UI_MSFontService,sans-serif" font-weight="400" font-size="15" transform="translate(561.306 695)">Gross Booking Value ($ in billions)</text></g></g></svg>