<svg xmlns="http://www.w3.org/2000/svg" xmlns:xlink="http://www.w3.org/1999/xlink" overflow="hidden" viewBox="0 0 960 720"><defs><clipPath id="clip0"><path d="M0 0 960 0 960 720 0 720Z" fill-rule="evenodd" clip-rule="evenodd"/></clipPath><clipPath id="clip1"><path d="M6 0 951 0 951 718 6 718Z" fill-rule="evenodd" clip-rule="evenodd"/></clipPath><clipPath id="clip2"><path d="M6 0 951 0 951 718 6 718Z" fill-rule="evenodd" clip-rule="evenodd"/></clipPath><clipPath id="clip3"><path d="M6 0 951 0 951 718 6 718Z" fill-rule="evenodd" clip-rule="evenodd"/></clipPath><clipPath id="clip4"><path d="M6 0 951 0 951 718 6 718Z" fill-rule="evenodd" clip-rule="evenodd"/></clipPath><clipPath id="clip5"><path d="M6 0 951 0 951 718 6 718Z" fill-rule="evenodd" clip-rule="evenodd"/></clipPath><clipPath id="clip6"><path d="M6 0 951 0 951 718 6 718Z" fill-rule="evenodd" clip-rule="evenodd"/></clipPath><clipPath id="clip7"><path d="M6 0 951 0 951 718 6 718Z" fill-rule="evenodd" clip-rule="evenodd"/></clipPath><clipPath id="clip8"><path d="M60 17 910 17 910 644 60 644Z" fill-rule="evenodd" clip-rule="evenodd"/></clipPath><clipPath id="clip9"><path d="M60 17 910 17 910 644 60 644Z" fill-rule="evenodd" clip-rule="evenodd"/></clipPath><clipPath id="clip10"><path d="M60 17 910 17 910 644 60 644Z" fill-rule="evenodd" clip-rule="evenodd"/></clipPath><clipPath id="clip11"><path d="M60 17 910 17 910 644 60 644Z" fill-rule="evenodd" clip-rule="evenodd"/></clipPath><clipPath id="clip12"><path d="M60 17 910 17 910 644 60 644Z" fill-rule="evenodd" clip-rule="evenodd"/></clipPath><clipPath id="clip13"><path d="M60 17 910 17 910 644 60 644Z" fill-rule="evenodd" clip-rule="evenodd"/></clipPath><clipPath id="clip14"><path d="M60 17 910 17 910 644 60 644Z" fill-rule="evenodd" clip-rule="evenodd"/></clipPath><clipPath id="clip15"><path d="M6 0 951 0 951 718 6 718Z" fill-rule="evenodd" clip-rule="evenodd"/></clipPath><clipPath id="clip16"><path d="M6 0 951 0 951 718 6 718Z" fill-rule="evenodd" clip-rule="evenodd"/></clipPath><clipPath id="clip17"><path d="M6 0 951 0 951 718 6 718Z" fill-rule="evenodd" clip-rule="evenodd"/></clipPath><clipPath id="clip18"><path d="M6 0 951 0 951 718 6 718Z" fill-rule="evenodd" clip-rule="evenodd"/></clipPath><clipPath id="clip19"><path d="M6 0 951 0 951 718 6 718Z" fill-rule="evenodd" clip-rule="evenodd"/></clipPath><clipPath id="clip20"><path d="M6 0 951 0 951 718 6 718Z" fill-rule="evenodd" clip-rule="evenodd"/></clipPath><clipPath id="clip21"><path d="M6 0 951 0 951 718 6 718Z" fill-rule="evenodd" clip-rule="evenodd"/></clipPath><clipPath id="clip22"><path d="M6 0 951 0 951 718 6 718Z" fill-rule="evenodd" clip-rule="evenodd"/></clipPath><clipPath id="clip23"><path d="M6 0 951 0 951 718 6 718Z" fill-rule="evenodd" clip-rule="evenodd"/></clipPath><clipPath id="clip24"><path d="M6 0 951 0 951 718 6 718Z" fill-rule="evenodd" clip-rule="evenodd"/></clipPath><clipPath id="clip25"><path d="M6 0 951 0 951 718 6 718Z" fill-rule="evenodd" clip-rule="evenodd"/></clipPath><clipPath id="clip26"><path d="M6 0 951 0 951 718 6 718Z" fill-rule="evenodd" clip-rule="evenodd"/></clipPath><clipPath id="clip27"><path d="M6 0 951 0 951 718 6 718Z" fill-rule="evenodd" clip-rule="evenodd"/></clipPath><clipPath id="clip28"><path d="M6 0 951 0 951 718 6 718Z" fill-rule="evenodd" clip-rule="evenodd"/></clipPath><clipPath id="clip29"><path d="M6 0 951 0 951 718 6 718Z" fill-rule="evenodd" clip-rule="evenodd"/></clipPath><clipPath id="clip30"><path d="M6 0 951 0 951 718 6 718Z" fill-rule="evenodd" clip-rule="evenodd"/></clipPath><clipPath id="clip31"><path d="M6 0 951 0 951 718 6 718Z" fill-rule="evenodd" clip-rule="evenodd"/></clipPath><clipPath id="clip32"><path d="M6 0 951 0 951 718 6 718Z" fill-rule="evenodd" clip-rule="evenodd"/></clipPath><clipPath id="clip33"><path d="M6 0 951 0 951 718 6 718Z" fill-rule="evenodd" clip-rule="evenodd"/></clipPath><clipPath id="clip34"><path d="M6 0 951 0 951 718 6 718Z" fill-rule="evenodd" clip-rule="evenodd"/></clipPath><clipPath id="clip35"><path d="M6 0 951 0 951 718 6 718Z" fill-rule="evenodd" clip-rule="evenodd"/></clipPath><clipPath id="clip36"><path d="M6 0 951 0 951 718 6 718Z" fill-rule="evenodd" clip-rule="evenodd"/></clipPath><clipPath id="clip37"><path d="M6 0 951 0 951 718 6 718Z" fill-rule="evenodd" clip-rule="evenodd"/></clipPath><clipPath id="clip38"><path d="M6 0 951 0 951 718 6 718Z" fill-rule="evenodd" clip-rule="evenodd"/></clipPath><clipPath id="clip39"><path d="M6 0 951 0 951 718 6 718Z" fill-rule="evenodd" clip-rule="evenodd"/></clipPath><clipPath id="clip40"><path d="M6 0 951 0 951 718 6 718Z" fill-rule="evenodd" clip-rule="evenodd"/></clipPath><clipPath id="clip41"><path d="M6 0 951 0 951 718 6 718Z" fill-rule="evenodd" clip-rule="evenodd"/></clipPath><clipPath id="clip42"><path d="M6 0 951 0 951 718 6 718Z" fill-rule="evenodd" clip-rule="evenodd"/></clipPath><clipPath id="clip43"><path d="M6 0 951 0 951 718 6 718Z" fill-rule="evenodd" clip-rule="evenodd"/></clipPath></defs><g clip-path="url(#clip0)"><rect x="0" y="0" width="960" height="720" fill="#FFFFFF"/><rect x="6" y="0" width="945" height="719" fill="#FFFFFF"/><g clip-path="url(#clip1)"><path d="M60.5001 581.5 909.5 581.5M60.5001 544.5 909.5 544.5M60.5001 518.5 909.5 518.5M60.5001 497.5 909.5 497.5M60.5001 481.5 909.5 481.5M60.5001 467.5 909.5 467.5M60.5001 455.5 909.5 455.5M60.5001 444.5 909.5 444.5M60.5001 372.5 909.5 372.5M60.5001 335.5 909.5 335.5M60.5001 309.5 909.5 309.5M60.5001 289.5 909.5 289.5M60.5001 272.5 909.5 272.5M60.5001 258.5 909.5 258.5M60.5001 246.5 909.5 246.5M60.5001 235.5 909.5 235.5M60.5001 163.5 909.5 163.5M60.5001 126.5 909.5 126.5M60.5001 100.5 909.5 100.5M60.5001 80.5 909.5 80.5M60.5001 63.5001 909.5 63.5001M60.5001 49.5001 909.5 49.5001M60.5001 37.5001 909.5 37.5001M60.5001 26.5001 909.5 26.5001" stroke="#D9D9D9" stroke-linejoin="round" stroke-miterlimit="10" stroke-dasharray="1 1" fill="none"/></g><g clip-path="url(#clip2)"><path d="M60.5001 435.5 909.5 435.5M60.5001 226.5 909.5 226.5M60.5001 17.5001 909.5 17.5001" stroke="#D9D9D9" stroke-linejoin="round" stroke-miterlimit="10" fill="none"/></g><g clip-path="url(#clip3)"><path d="M272.5 17.5001 272.5 643.5M485.5 17.5001 485.5 643.5M697.5 17.5001 697.5 643.5M909.5 17.5001 909.5 643.5" stroke="#D9D9D9" stroke-linejoin="round" stroke-miterlimit="10" fill="none"/></g><g clip-path="url(#clip4)"><path d="M0 0 0.000104987 626" stroke="#BFBFBF" stroke-linejoin="round" stroke-miterlimit="10" fill="none" fill-rule="evenodd" transform="matrix(1 0 0 -1 60.5001 643.5)"/></g><g clip-path="url(#clip5)"><path d="M60.5001 643.5 64.5001 643.5M60.5001 581.5 64.5001 581.5M60.5001 544.5 64.5001 544.5M60.5001 518.5 64.5001 518.5M60.5001 497.5 64.5001 497.5M60.5001 481.5 64.5001 481.5M60.5001 467.5 64.5001 467.5M60.5001 455.5 64.5001 455.5M60.5001 444.5 64.5001 444.5M60.5001 435.5 64.5001 435.5M60.5001 372.5 64.5001 372.5M60.5001 335.5 64.5001 335.5M60.5001 309.5 64.5001 309.5M60.5001 289.5 64.5001 289.5M60.5001 272.5 64.5001 272.5M60.5001 258.5 64.5001 258.5M60.5001 246.5 64.5001 246.5M60.5001 235.5 64.5001 235.5M60.5001 226.5 64.5001 226.5M60.5001 163.5 64.5001 163.5M60.5001 126.5 64.5001 126.5M60.5001 100.5 64.5001 100.5M60.5001 80.5 64.5001 80.5M60.5001 63.5001 64.5001 63.5001M60.5001 49.5001 64.5001 49.5001M60.5001 37.5001 64.5001 37.5001M60.5001 26.5001 64.5001 26.5001M60.5001 17.5001 64.5001 17.5001M56.5001 643.5 65.5001 643.5M56.5001 435.5 65.5001 435.5M56.5001 226.5 65.5001 226.5M56.5001 17.5001 65.5001 17.5001" stroke="#BFBFBF" stroke-linejoin="round" stroke-miterlimit="10" fill="none"/></g><g clip-path="url(#clip6)"><path d="M60.5001 643.5 909.5 643.5" stroke="#BFBFBF" stroke-linejoin="round" stroke-miterlimit="10" fill="none" fill-rule="evenodd"/></g><g clip-path="url(#clip7)"><path d="M60.5001 640.5 60.5001 643.5M124.5 640.5 124.5 643.5M161.5 640.5 161.5 643.5M188.5 640.5 188.5 643.5M209.5 640.5 209.5 643.5M225.5 640.5 225.5 643.5M240.5 640.5 240.5 643.5M252.5 640.5 252.5 643.5M263.5 640.5 263.5 643.5M272.5 640.5 272.5 643.5M336.5 640.5 336.5 643.5M374.5 640.5 374.5 643.5M400.5 640.5 400.5 643.5M421.5 640.5 421.5 643.5M438.5 640.5 438.5 643.5M452.5 640.5 452.5 643.5M464.5 640.5 464.5 643.5M475.5 640.5 475.5 643.5M485.5 640.5 485.5 643.5M549.5 640.5 549.5 643.5M586.5 640.5 586.5 643.5M613.5 640.5 613.5 643.5M633.5 640.5 633.5 643.5M650.5 640.5 650.5 643.5M664.5 640.5 664.5 643.5M676.5 640.5 676.5 643.5M687.5 640.5 687.5 643.5M697.5 640.5 697.5 643.5M761.5 640.5 761.5 643.5M798.5 640.5 798.5 643.5M825.5 640.5 825.5 643.5M845.5 640.5 845.5 643.5M862.5 640.5 862.5 643.5M876.5 640.5 876.5 643.5M889.5 640.5 889.5 643.5M900.5 640.5 900.5 643.5M909.5 640.5 909.5 643.5M60.5001 639.5 60.5001 648.5M272.5 639.5 272.5 648.5M485.5 639.5 485.5 648.5M697.5 639.5 697.5 648.5M909.5 639.5 909.5 648.5" stroke="#BFBFBF" stroke-linejoin="round" stroke-miterlimit="10" fill="none"/></g><g clip-path="url(#clip8)"><path d="M-264 930-264 904-264 883-264 867C-264 866.525-263.666 866.116-263.201 866.02-262.736 865.925-262.268 866.17-262.081 866.606L-235.081 929.606-236 929-215 929-199 929C-198.448 929-198 929.448-198 930L-198 966-198 1029-198 1062C-198 1062.55-198.448 1063-199 1063-199.552 1063-200 1062.55-200 1062L-200 883C-200 882.448-199.552 882-199 882L-143 882C-142.448 882-142 882.448-142 883L-142 1062C-142 1062.55-142.448 1063-143 1063-143.552 1063-144 1062.55-144 1062L-144 1029C-144 1028.45-143.552 1028-143 1028L-135 1028C-134.448 1028-134 1028.45-134 1029L-134 1062C-134 1062.55-134.448 1063-135 1063-135.552 1063-136 1062.55-136 1062L-136 966-136 883-136 734C-136 733.909-135.988 733.818-135.963 733.73L-121.963 683.73-103.959 622.717C-103.868 622.409-103.635 622.163-103.331 622.057L-29.3315 596.057-29.6321 596.225 8.36786 565.225C8.4678 565.144 8.58258 565.082 8.7059 565.044L60.7059 549.044 60.2407 549.349 84.2407 521.349 113.249 488.34 113.1 488.564 129.1 455.564C129.218 455.321 129.428 455.137 129.684 455.051L156.684 446.051 156.235 446.356 193.235 402.356C193.313 402.264 193.407 402.186 193.512 402.127L227.512 383.127 227.156 383.463 241.156 361.463C241.25 361.316 241.381 361.195 241.536 361.114L283.536 339.114 283.329 339.258 304.329 320.258 325.329 301.258 348.344 281.245C348.393 281.202 348.447 281.164 348.504 281.132L369.504 269.132 392.406 252.196 411.466 240.155 428.393 227.206 446.36 212.232 460.459 203.159 476.47 193.152C476.547 193.104 476.631 193.066 476.718 193.041L493.718 188.041 493.162 188.455 506.162 168.455C506.225 168.357 506.306 168.27 506.4 168.2L518.4 159.2 528.331 150.257C528.383 150.21 528.439 150.169 528.499 150.135L547.499 139.135 547.293 139.293 558.293 128.293 570.324 117.263C570.434 117.163 570.564 117.088 570.706 117.044L583.706 113.044 594.821 111.016 594.183 111.423 606.183 94.4233C606.216 94.3768 606.253 94.3331 606.293 94.2929L612.293 88.2929C612.597 87.9885 613.062 87.9131 613.447 88.1056L623.447 93.1056 622.725 93.0385 636.725 89.0385C636.85 89.0027 636.981 88.9918 637.11 89.0061L646.11 90.0061C646.269 90.0238 646.422 90.0793 646.555 90.168L649.555 92.168 649.242 92.0299 657.242 94.0299C657.526 94.1007 657.764 94.2917 657.894 94.5528L663.894 106.553 665.894 110.553 664.152 110.47 669.152 102.47C669.441 102.008 670.047 101.862 670.515 102.143L675.515 105.143C675.585 105.185 675.649 105.235 675.707 105.293L679.707 109.293 679.196 109.019 684.196 110.019C684.427 110.066 684.634 110.192 684.781 110.375L688.781 115.375 687.132 115.504 691.132 108.504C691.339 108.142 691.749 107.946 692.16 108.013 692.572 108.08 692.899 108.395 692.981 108.804L693.981 113.804 693.894 113.553 696.894 119.553C696.923 119.61 696.946 119.67 696.964 119.732L701.964 137.732 701.707 137.293 703.707 139.293C703.803 139.389 703.878 139.503 703.928 139.629L705.928 144.629 706.949 147.684C706.97 147.749 706.985 147.815 706.993 147.883L708.993 164.883 709 170 708.97 169.757 710.97 177.757 709.019 177.804 711.019 167.804C711.11 167.351 711.498 167.019 711.96 167.001 712.421 166.982 712.835 167.281 712.962 167.725L714.962 174.725 715.949 177.684C715.965 177.733 715.978 177.784 715.986 177.836L716.986 183.836 717.997 197.929 717.949 197.684 718.949 200.684 719.981 205.804C719.993 205.868 720 205.934 720 206L720 219 719.976 218.783 721.976 227.783C721.992 227.854 722 227.927 722 228L722 230 722.994 238.89 721 239 721 238 722 205.969C722.018 205.423 722.469 204.992 723.016 205 723.562 205.009 724 205.454 724 206L724 212 722.293 211.293 723.293 210.293C723.511 210.075 723.817 209.97 724.122 210.007 724.428 210.045 724.699 210.221 724.857 210.486L727.857 215.486C727.951 215.641 728 215.819 728 216L728 217 728 218 727.981 217.804 728.981 222.804C728.993 222.868 729 222.934 729 223L729 287 728.97 286.757 729.97 290.757 728 291 728 289 728 285C728 284.448 728.448 284 729 284 729.552 284 730 284.448 730 285L730 289 730 291C730 291.505 729.623 291.931 729.122 291.992 728.621 292.054 728.152 291.732 728.03 291.243L727.03 287.243C727.01 287.163 727 287.082 727 287L727 223 727.019 223.196 726.019 218.196C726.006 218.132 726 218.066 726 218L726 217 726 216 726.142 216.514 723.142 211.514 724.707 211.707 723.707 212.707C723.421 212.993 722.991 213.079 722.617 212.924 722.244 212.769 722 212.404 722 212L722 206 723.999 206.031 723 238 723 239C723 239.531 722.585 239.969 722.055 239.998 721.525 240.028 721.065 239.638 721.006 239.11L720 230 720 228 720.024 228.217 718.024 219.217C718.008 219.146 718 219.073 718 219L718 206 718.019 206.196 717.051 201.316 716.051 198.316C716.025 198.237 716.008 198.155 716.003 198.071L715.014 184.164 714.014 178.164 714.051 178.316 713.038 175.275 711.038 168.275 712.981 168.196 710.981 178.196C710.889 178.655 710.491 178.989 710.024 179 709.556 179.011 709.143 178.696 709.03 178.243L707.03 170.243C707.01 170.163 707 170.082 707 170L707.007 165.117 705.007 148.117 705.051 148.316 704.071 145.371 702.071 140.371 702.293 140.707 700.293 138.707C700.171 138.585 700.083 138.434 700.036 138.268L695.036 120.268 695.106 120.447 692.106 114.447C692.066 114.368 692.037 114.283 692.019 114.196L691.019 109.196 692.868 109.496 688.868 116.496C688.704 116.784 688.408 116.971 688.078 116.997 687.747 117.023 687.426 116.883 687.219 116.625L683.219 111.625 683.804 111.981 678.804 110.981C678.61 110.942 678.432 110.847 678.293 110.707L674.293 106.707 674.485 106.857 669.485 103.857 670.848 103.53 665.848 111.53C665.656 111.837 665.314 112.016 664.953 111.999 664.591 111.982 664.267 111.771 664.106 111.447L662.106 107.447 656.106 95.4472 656.757 95.9701 648.757 93.9701C648.646 93.9423 648.541 93.8956 648.445 93.832L645.445 91.832 645.89 91.9939 636.89 90.9939 637.275 90.9615 623.275 94.9615C623.034 95.0303 622.776 95.0063 622.553 94.8944L612.553 89.8944 613.707 89.7071 607.707 95.7071 607.817 95.5767 595.817 112.577C595.666 112.791 595.437 112.937 595.179 112.984L584.294 114.956 571.294 118.956 571.676 118.737 559.707 129.707 548.707 140.707C548.646 140.769 548.576 140.822 548.501 140.865L529.501 151.865 529.669 151.743 519.6 160.8 507.6 169.8 507.838 169.545 494.838 189.545C494.708 189.745 494.511 189.892 494.282 189.959L477.282 194.959 477.53 194.848 461.541 204.841 447.64 213.768 429.607 228.794 412.534 241.845 393.594 253.804 370.496 270.868 349.496 282.868 349.656 282.755 326.671 302.742 305.671 321.742 284.671 340.742C284.608 340.798 284.539 340.847 284.464 340.886L242.464 362.886 242.844 362.537 228.844 384.537C228.755 384.677 228.632 384.792 228.488 384.873L194.488 403.873 194.765 403.644 157.765 447.644C157.647 447.785 157.491 447.89 157.316 447.949L130.316 456.949 130.9 456.436 114.9 489.436C114.861 489.517 114.811 489.592 114.751 489.66L85.7592 522.651 61.7592 550.651C61.6362 550.794 61.4749 550.9 61.2941 550.956L9.2941 566.956 9.63211 566.775-28.3679 597.775C-28.4576 597.848-28.5593 597.905-28.6685 597.943L-102.669 623.943-102.041 623.283-120.037 684.27-134.037 734.27-134 734-134 883-134 966-134 1062-136 1062-136 1029-135 1030-143 1030-142 1029-142 1062-144 1062-144 883-143 884-199 884-198 883-198 1062-200 1062-200 1029-200 966-200 930-199 931-215 931-236 931C-236.4 931-236.762 930.762-236.919 930.394L-263.919 867.394-262 867-262 883-262 904-262 930C-262 930.552-262.448 931-263 931-263.552 931-264 930.552-264 930ZM729 285 722.333 290.333 729 277 735.667 290.333Z" fill="#C00000"/></g><g clip-path="url(#clip9)"><path d="M-364.228 882.026-236.228 852.026-237 853-237 841C-237 840.628-236.794 840.287-236.464 840.114L-215.464 829.114C-215.414 829.088-215.361 829.066-215.307 829.048L-184.307 819.048C-183.795 818.883-183.244 819.153-183.06 819.658L-171.06 852.658-172 852-161 852-143 852C-142.448 852-142 852.448-142 853L-142 867-142 883-142.066 882.644-134.066 903.644C-134.038 903.717-134.018 903.794-134.008 903.872L-126.008 965.872-128 966-128 904C-128 903.448-127.552 903-127 903-126.448 903-126 903.448-126 904L-126 930-126.059 929.66-113.059 965.66C-113.02 965.769-113 965.884-113 966L-113 1062C-113 1062.55-113.448 1063-114 1063-114.552 1063-115 1062.55-115 1062L-115 966-115 867-115 715C-115 714.861-114.971 714.724-114.915 714.597L-103.915 689.597-103.966 689.742-83.9662 614.742C-83.8684 614.375-83.571 614.095-83.1987 614.02L-9.19867 599.02-9.74332 599.331 8.25668 579.331C8.37024 579.205 8.51401 579.11 8.67447 579.054L69.6745 558.054 69.1122 558.54 83.1122 531.54 101.111 496.543 122.073 444.626C122.16 444.409 122.32 444.23 122.526 444.12L148.526 430.12C148.634 430.061 148.751 430.024 148.873 430.008L187.873 425.008 187.597 425.085 237.597 403.085 257.553 393.106 257.051 393.684 262.051 378.684C262.073 378.62 262.101 378.558 262.135 378.499L284.135 340.499 296.183 323.423 313.255 304.333C313.304 304.278 313.36 304.228 313.421 304.185L351.421 277.185 375.379 258.216 395.352 241.238C395.414 241.186 395.481 241.142 395.553 241.106L417.553 230.106 417.067 230.641 437.067 178.641C437.095 178.566 437.133 178.495 437.179 178.429L453.179 155.429 466.267 141.32C466.406 141.17 466.586 141.067 466.785 141.023L516.785 130.023 516.508 130.129 539.508 117.129C539.569 117.095 539.634 117.067 539.702 117.046L555.702 112.046 555.267 112.32 568.267 98.3195C568.472 98.0988 568.766 97.9822 569.067 98.0022L584.067 99.0022 583.293 99.2929 590.293 92.2929C590.446 92.1399 590.644 92.0406 590.859 92.01L604.859 90.01 604.706 90.0442 617.706 86.0442C617.777 86.0225 617.849 86.0086 617.923 86.0029L630.923 85.0029 630.247 85.3415 637.247 77.3415C637.356 77.2171 637.494 77.1217 637.649 77.0637L645.649 74.0637C645.717 74.0383 645.787 74.0203 645.859 74.01L652.859 73.01C652.947 72.9975 653.036 72.9967 653.124 73.0077L661.124 74.0077 660.47 74.152 668.47 69.152C668.734 68.987 669.06 68.9544 669.351 69.0637L677.351 72.0637 677.164 72.0136 683.164 73.0136C683.281 73.0331 683.393 73.0731 683.496 73.1318L690.496 77.1318C690.573 77.1759 690.644 77.23 690.707 77.2929L693.707 80.2929 693.447 80.1056 697.447 82.1056C697.641 82.2023 697.798 82.3593 697.894 82.5528L700.894 88.5528 705.874 97.5144 705.707 97.2929 709.707 101.293C709.783 101.369 709.846 101.457 709.894 101.553L712.894 107.553 715.858 112.486C715.908 112.57 715.946 112.662 715.97 112.757L717.97 120.757 718.994 129.89 718.707 129.293 720.707 131.293 722.707 133.293C722.754 133.339 722.795 133.391 722.832 133.445L724.832 136.445 724.555 136.168 727.555 138.168C727.609 138.204 727.661 138.246 727.707 138.293L728.707 139.293C728.754 139.339 728.795 139.391 728.832 139.445L730.832 142.445C730.904 142.554 730.955 142.676 730.981 142.804L731.981 147.804 732.994 156.89 732.928 156.629 734.928 161.629C734.951 161.685 734.969 161.744 734.981 161.804L735.981 166.804 736.97 170.757 737.99 177.859 738.99 184.859 739.999 205.952 738 206 738 201C738 200.467 738.418 200.028 738.95 200.001 739.483 199.975 739.942 200.37 739.995 200.9L740.995 210.9 741 214 740.949 213.684 742.949 219.684C742.983 219.786 743 219.893 743 220L743 223 742.97 222.757 743.97 226.757 742 227 742 212C742 211.46 742.429 211.017 742.969 211 743.509 210.984 743.964 211.399 743.998 211.938L744.998 227.938 745 230 744.97 229.757 745.97 233.757 744.051 233.684 745.051 230.684C745.206 230.218 745.676 229.934 746.16 230.013 746.644 230.091 747 230.51 747 231L747 234 747 238 746.97 237.757 747.97 241.757C747.99 241.837 748 241.918 748 242L748 250 746.106 249.553 747.106 247.553 747 248 747 244C747 243.448 747.448 243 748 243 748.552 243 749 243.448 749 244L749 248C749 248.155 748.964 248.308 748.894 248.447L747.894 250.447C747.687 250.862 747.222 251.08 746.77 250.973 746.319 250.867 746 250.464 746 250L746 242 746.03 242.243 745.03 238.243C745.01 238.163 745 238.082 745 238L745 234 745 231 746.949 231.316 745.949 234.316C745.808 234.738 745.406 235.016 744.962 234.999 744.517 234.982 744.138 234.674 744.03 234.243L743.03 230.243C743.01 230.163 743 230.082 743 230L743.002 228.062 742.002 212.062 744 212 744 227C744 227.505 743.623 227.931 743.122 227.993 742.621 228.054 742.152 227.732 742.03 227.243L741.03 223.243C741.01 223.163 741 223.082 741 223L741 220 741.051 220.316 739.051 214.316C739.017 214.214 739 214.107 739 214L739.005 211.1 738.005 201.1 740 201 740 206C740 206.543 739.567 206.987 739.024 207 738.481 207.013 738.027 206.59 738.001 206.048L737.01 185.141 736.01 178.141 735.03 171.243 734.019 167.196 733.019 162.196 733.071 162.371 731.071 157.371C731.038 157.288 731.016 157.2 731.006 157.11L730.019 148.196 729.019 143.196 729.168 143.555 727.168 140.555 727.293 140.707 726.293 139.707 726.445 139.832 723.445 137.832C723.335 137.759 723.241 137.665 723.168 137.555L721.168 134.555 721.293 134.707 719.293 132.707 717.293 130.707C717.132 130.547 717.031 130.336 717.006 130.11L716.03 121.243 714.03 113.243 714.142 113.514 711.106 108.447 708.106 102.447 708.293 102.707 704.293 98.7071C704.227 98.6414 704.171 98.5669 704.126 98.4856L699.106 89.4472 696.106 83.4472 696.553 83.8944 692.553 81.8944C692.457 81.8464 692.369 81.7831 692.293 81.7071L689.293 78.7071 689.504 78.8682 682.504 74.8682 682.836 74.9864 676.836 73.9864C676.772 73.9758 676.709 73.959 676.649 73.9363L668.649 70.9363 669.53 70.848 661.53 75.848C661.335 75.9698 661.104 76.0208 660.876 75.9923L652.876 74.9923 653.141 74.99 646.141 75.99 646.351 75.9363 638.351 78.9363 638.753 78.6585 631.753 86.6585C631.58 86.8554 631.338 86.977 631.077 86.9971L618.077 87.9971 618.294 87.9558 605.294 91.9558C605.244 91.9711 605.193 91.9826 605.141 91.9899L591.141 93.9899 591.707 93.7071 584.707 100.707C584.503 100.911 584.221 101.017 583.933 100.998L568.933 99.9978 569.733 99.6805 556.733 113.68C556.614 113.808 556.464 113.903 556.298 113.954L540.298 118.954 540.492 118.871 517.492 131.871C517.405 131.92 517.312 131.955 517.215 131.977L467.215 142.977 467.733 142.68 454.821 156.571 438.821 179.571 438.933 179.359 418.933 231.359C418.844 231.592 418.67 231.783 418.447 231.894L396.447 242.894 396.648 242.762 376.621 259.784 352.579 278.815 314.579 305.815 314.745 305.667 297.817 324.577 285.865 341.501 263.865 379.501 263.949 379.316 258.949 394.316C258.865 394.568 258.684 394.776 258.447 394.894L238.403 404.915 188.403 426.915C188.315 426.954 188.222 426.98 188.127 426.992L149.127 431.992 149.474 431.88 123.474 445.88 123.927 445.374 102.889 497.457 84.8878 532.46 70.8877 559.46C70.7695 559.688 70.5683 559.862 70.3255 559.945L9.3255 580.945 9.74329 580.669-8.25671 600.669C-8.40021 600.828-8.59113 600.937-8.80136 600.98L-82.8014 615.98-82.0338 615.258-102.034 690.258C-102.047 690.307-102.064 690.356-102.085 690.403L-113.085 715.403-113 715-113 867-113 966-113 1062-115 1062-115 966-114.941 966.34-127.941 930.34C-127.98 930.231-128 930.116-128 930L-128 904-126 904-126 966C-126 966.527-126.41 966.964-126.936 966.998-127.462 967.032-127.924 966.651-127.992 966.128L-135.992 904.128-135.934 904.356-143.934 883.356C-143.978 883.242-144 883.122-144 883L-144 867-144 853-143 854-161 854-172 854C-172.421 854-172.796 853.737-172.94 853.342L-184.94 820.342-183.693 820.952-214.693 830.952-214.536 830.886-235.536 841.886-235 841-235 853C-235 853.464-235.32 853.868-235.772 853.974L-363.772 883.974C-364.31 884.1-364.848 883.766-364.974 883.228-365.1 882.69-364.766 882.152-364.228 882.026ZM748 244 741.333 249.333 748 236 754.667 249.333Z" fill="#404040"/></g><g clip-path="url(#clip10)"><path d="M-362 1029-362 1062C-362 1063.1-362.895 1064-364 1064-365.105 1064-366 1063.1-366 1062L-366 1029C-366 1027.9-365.105 1027-364 1027L-300 1027C-298.895 1027-298 1027.9-298 1029L-298 1062C-298 1063.1-298.895 1064-300 1064-301.105 1064-302 1063.1-302 1062L-302 1029-302 853-302 784C-302 783.682-301.924 783.369-301.779 783.086L-264.779 711.086C-264.559 710.658-264.192 710.324-263.746 710.144L-161.941 669.223-104.116 630.34-37.1486 583.363 2.77484 552.419 40.8136 524.39C40.9102 524.319 41.0131 524.256 41.1209 524.204L87.7543 501.383 119.487 464.692 149.541 432.632 174.424 400.769C174.534 400.628 174.663 400.502 174.807 400.395L213.632 371.525 246.49 333.689 279.608 301.564 310.659 273.516 348.871 247.349 380.903 226.328 408.8 205.4C408.904 205.322 409.015 205.254 409.132 205.198L436.132 192.198 458.837 178.366 481.605 159.559 496.5 142.677C496.568 142.6 496.641 142.529 496.72 142.464L514.72 127.464 536.873 112.348 556.069 102.23 572.88 93.33 590.72 78.4636 603.708 67.4732 614.586 56.5858C614.715 56.4569 614.861 56.3462 615.019 56.2568L631.019 47.2568C631.118 47.2015 631.221 47.1545 631.327 47.1165L645.327 42.1165 659.581 39.0444 671.671 37.0272C671.78 37.0091 671.89 37 672 37L681 37C681.186 37 681.371 37.0259 681.549 37.077L688.549 39.077 694.632 41.1026 701.788 44.1617 708.788 47.1617 714.632 49.1026C714.856 49.1772 715.065 49.2909 715.249 49.4383L720.249 53.4383C720.354 53.5222 720.45 53.6164 720.536 53.7196L725.536 59.7196 729.414 63.5858C729.566 63.7378 729.693 63.9133 729.789 64.1056L731.789 68.1056 734.789 74.1056 738.664 79.8906 741.394 83.5259 744.109 85.3359C744.479 85.5826 744.757 85.9456 744.897 86.3675L746.813 92.1134 748.664 94.8906C748.779 95.0627 748.866 95.2516 748.923 95.4506L750.781 101.952 752.414 103.586 754.414 105.586C754.735 105.907 754.938 106.328 754.988 106.779L756.948 124.425 758.236 127 759 127C759.565 127 760.104 127.239 760.483 127.658 760.862 128.077 761.046 128.637 760.99 129.199L760.02 138.901 760.961 143.608 762.952 152.566 763.984 160.752 760.006 160.847 761.006 147.847C761.079 146.897 761.811 146.131 762.756 146.015 763.7 145.899 764.596 146.464 764.897 147.368L765.897 150.368C765.939 150.492 765.968 150.621 765.984 150.752L766.984 158.752 767.99 168.801 768.993 180.834 769 187 769.992 197.819 770 205 770.994 217.847 771 222 770 222C771.104 222 772 222.895 772 224L772 228 772 230.858 772.98 237.717 769 238 769 207C769 206.191 769.487 205.462 770.235 205.152 770.982 204.843 771.842 205.014 772.414 205.586L773.414 206.586C773.789 206.961 774 207.47 774 208L774 213.802 774.961 218.608C774.987 218.737 775 218.868 775 219L775 220 775.996 234.867 772 235 772 233C772 231.895 772.895 231 774 231 775.104 231 776 231.895 776 233L776 294 774.667 294 774.667 233C774.667 232.632 774.368 232.333 774 232.333 773.632 232.333 773.333 232.632 773.333 233L773.333 235 774.665 234.956 773.667 220 773.667 219C773.667 218.956 773.662 218.912 773.654 218.869L772.667 213.934 772.667 208C772.667 207.823 772.596 207.654 772.471 207.529L771.471 206.529C771.281 206.338 770.994 206.281 770.745 206.384 770.496 206.487 770.333 206.73 770.333 207L770.333 238 771.66 237.906 770.667 230.953 770.667 228 770.667 224C770.667 223.632 770.368 223.333 770 223.333L769.667 223.333 769.665 217.949 768.667 205 768.664 197.94 767.667 187 767.664 180.945 766.663 168.934 765.661 158.917 764.661 150.917C764.656 150.874 764.646 150.831 764.632 150.789L763.632 147.789C763.532 147.488 763.233 147.3 762.918 147.338 762.604 147.377 762.36 147.632 762.335 147.949L761.335 160.949 762.661 160.917 761.651 152.855 759.654 143.869 758.673 138.967 759.663 129.066C759.682 128.879 759.621 128.692 759.494 128.553 759.368 128.413 759.188 128.333 759 128.333L757.412 128.333 755.649 124.808 753.663 106.926C753.646 106.776 753.578 106.636 753.471 106.529L751.471 104.529 749.594 102.651 747.641 95.8168C747.622 95.7505 747.593 95.6876 747.555 95.6302L745.604 92.7045 743.632 86.7892C743.585 86.6485 743.493 86.5275 743.37 86.4453L740.465 84.5086 737.555 80.6302 733.596 74.7019 730.596 68.7019 728.596 64.7019C728.564 64.6378 728.522 64.5793 728.471 64.5286L724.512 60.5732 719.512 54.5732C719.483 54.5388 719.451 54.5074 719.417 54.4794L714.417 50.4794C714.355 50.4303 714.285 50.3924 714.211 50.3675L708.263 48.3872 701.263 45.3872 694.211 42.3675 688.183 40.359 681.183 38.359C681.124 38.342 681.062 38.3333 681 38.3333L672 38.3333C671.963 38.3333 671.927 38.3364 671.89 38.3424L659.86 40.3481 645.776 43.3722 631.776 48.3722C631.74 48.3848 631.706 48.4005 631.673 48.4189L615.673 57.4189C615.62 57.4487 615.572 57.4856 615.529 57.5286L604.569 68.4911 591.573 79.4879 573.627 94.4433 556.69 103.41 537.624 113.449 515.573 128.488 497.573 143.488C497.547 143.51 497.523 143.533 497.5 143.559L482.535 160.52 459.612 179.455 436.711 193.399 409.711 206.399C409.672 206.418 409.635 206.441 409.6 206.467L381.634 227.443 349.624 248.45 311.553 274.505 280.536 302.521 247.497 334.563 214.544 372.508 175.602 401.465C175.554 401.501 175.511 401.543 175.475 401.59L150.514 433.544 120.496 465.564 88.5848 502.461 41.7069 525.401C41.671 525.419 41.6367 525.44 41.6045 525.463L3.59161 553.473-36.3829 584.454-103.372 631.447-161.314 670.408-263.249 711.381C-263.397 711.441-263.52 711.553-263.593 711.695L-300.593 783.695C-300.641 783.79-300.667 783.894-300.667 784L-300.667 853-300.667 1029-300.667 1062C-300.667 1062.37-300.368 1062.67-300 1062.67-299.632 1062.67-299.333 1062.37-299.333 1062L-299.333 1029C-299.333 1028.63-299.632 1028.33-300 1028.33L-364 1028.33C-364.368 1028.33-364.667 1028.63-364.667 1029L-364.667 1062C-364.667 1062.37-364.368 1062.67-364 1062.67-363.632 1062.67-363.333 1062.37-363.333 1062L-363.333 1029ZM-364.667 1029-364.667 1062-363.333 1062-363.333 1029.67-300.667 1029.67-300.667 1062-299.333 1062-299.333 1029-299.333 853-299.333 784.161-262.521 712.526-160.751 671.619C-160.708 671.601-160.667 671.579-160.628 671.553L-102.628 632.553-35.6172 585.546 4.40836 554.527 42.347 526.572 89.293 503.599C89.3736 503.559 89.4455 503.504 89.5042 503.436L121.504 466.436 151.486 434.456 176.47 402.481 215.398 373.535C215.436 373.506 215.472 373.473 215.503 373.437L248.503 335.437 281.464 303.479 312.447 275.495 350.376 249.55 382.366 228.557 410.348 207.572 437.289 194.601 460.347 180.569C460.374 180.553 460.4 180.534 460.425 180.514L483.425 161.514C483.452 161.492 483.477 161.467 483.5 161.441L498.466 144.479 516.427 129.512 538.375 114.551 557.31 104.59 574.312 95.5892C574.353 95.5676 574.391 95.5417 574.427 95.5121L592.427 80.5121 605.431 69.5089 616.407 58.5362 632.277 49.6088 646.224 44.6278 660.14 41.6519 672.055 39.6667 680.907 39.6667 687.817 41.641 693.789 43.6325 700.737 46.6128 707.737 49.6128 713.676 51.5949 718.531 55.4785 723.488 61.4268 727.452 65.3949 729.404 69.2981 732.404 75.2981 736.445 81.3698 739.467 85.4C739.512 85.4605 739.567 85.5128 739.63 85.5547L742.44 87.4278 744.368 93.2108C744.386 93.267 744.412 93.3205 744.445 93.3698L746.388 96.2832 748.359 103.183C748.39 103.292 748.448 103.391 748.529 103.471L750.529 105.471 752.363 107.306 754.337 125.074C754.346 125.152 754.368 125.228 754.404 125.298L756.404 129.298C756.517 129.524 756.747 129.667 757 129.667L758.263 129.667 757.337 138.934C757.33 138.999 757.333 139.066 757.346 139.131L758.346 144.131 760.349 153.145 761.339 161.083C761.381 161.422 761.674 161.675 762.016 161.666 762.358 161.658 762.638 161.392 762.665 161.051L763.665 148.051 762.368 148.211 763.347 151.148 764.339 159.083 765.337 169.066 766.336 181.055 766.333 187 767.336 198.06 767.333 205 768.335 218.051 768.333 224C768.333 224.368 768.632 224.667 769 224.667L769.333 224.667 769.333 228 769.333 231C769.333 231.032 769.335 231.063 769.34 231.094L770.34 238.094C770.39 238.441 770.698 238.69 771.047 238.665 771.396 238.64 771.667 238.35 771.667 238L771.667 208.609 771.333 208.276 771.333 214C771.333 214.044 771.338 214.088 771.346 214.131L772.333 219.066 772.333 220 773.335 235.044C773.359 235.403 773.663 235.678 774.022 235.666 774.381 235.654 774.667 235.36 774.667 235L774.667 233 773.333 233 773.333 294 772 294 772 233 776 233 776 235C776 236.079 775.145 236.963 774.067 236.999 772.988 237.035 772.076 236.209 772.004 235.133L771 220 771 219.198 770.039 214.392C770.013 214.263 770 214.132 770 214L770 208.828 773 211.828 773 238C773 239.05 772.189 239.921 771.142 239.995 770.095 240.069 769.168 239.322 769.02 238.283L768.02 231.283C768.007 231.189 768 231.095 768 231L768 228 768 226 769 226C767.895 226 767 225.105 767 224L767.006 218.153 766 205 766.008 198.181 765 187 765.007 181.166 764.01 169.199 763.015 159.248 762.04 151.445 761.103 148.632 764.994 148.153 763.994 161.153C763.915 162.177 763.074 162.975 762.047 162.999 761.021 163.024 760.143 162.267 760.015 161.248L759.048 153.434 757.039 144.392 756.039 139.392C756 139.198 755.99 138.998 756.01 138.801L756.79 131 757 131C756.242 131 755.55 130.572 755.211 129.894L753.211 125.894C753.106 125.683 753.038 125.455 753.012 125.221L751.09 107.918 749.586 106.414 747.586 104.414C747.345 104.174 747.17 103.876 747.077 103.549L745.163 96.8496 743.336 94.1094C743.237 93.9615 743.159 93.8011 743.103 93.6325L741.32 88.2835 738.891 86.6641C738.702 86.5383 738.536 86.3814 738.4 86.2L735.336 82.1094 731.211 75.8944 728.211 69.8944 726.356 66.1847 722.464 62.2804 717.593 56.4355 713.029 52.7846 707.212 50.8383 700.212 47.8383 693.368 44.8974 687.451 42.923 680.72 41 672.166 41 660.419 42.9556 646.673 45.8835 632.833 50.8264 617.22 59.6085 606.292 70.5268 593.28 81.5364 575.28 96.5364C575.174 96.6252 575.058 96.7027 574.936 96.7676L557.931 105.77 539.127 115.652 517.28 130.536 499.398 145.438 484.5 162.323C484.43 162.402 484.355 162.475 484.274 162.542L461.274 181.542C461.2 181.603 461.122 181.659 461.04 181.708L437.868 195.802 411.044 208.717 383.097 229.672 351.129 250.651 313.341 276.484 282.392 304.436 249.51 336.311 216.51 374.311C216.415 374.42 216.309 374.519 216.193 374.605L177.41 403.444 152.459 435.368 122.513 467.308 90.5127 504.308C90.3365 504.512 90.121 504.678 89.8791 504.796L43.0411 527.717 5.22513 555.581-34.8514 586.637-101.884 633.66-159.884 672.66C-160 672.738-160.124 672.803-160.254 672.856L-261.562 713.578-298 784.484-298 853-298 1029-298 1062-302 1062-302 1031-362 1031-362 1062-366 1062-366 1029ZM-366 1029C-366 1027.9-365.105 1027-364 1027-362.895 1027-362 1027.9-362 1029ZM776 294C776 295.105 775.104 296 774 296 772.895 296 772 295.105 772 294ZM774 294 780 290 774 302 768 290Z" fill="#FFC000"/></g><g clip-path="url(#clip11)"><path d="M-262 930-262 1062C-262 1062.55-262.448 1063-263 1063-263.552 1063-264 1062.55-264 1062L-264 790-264 637-264 589C-264 588.565-263.718 588.179-263.304 588.047L-103.304 537.047 38.7802 505.024 38.6252 505.073 85.6252 486.073 85.3383 486.25 136.338 441.25 167.343 414.246 187.352 397.238 232.386 362.211C232.442 362.167 232.502 362.13 232.565 362.099L261.565 348.099 261.389 348.209 283.389 331.209C283.437 331.171 283.489 331.138 283.543 331.11L320.543 312.11 320.315 312.272 337.315 296.272 356.407 282.195 356.26 282.327 376.26 260.327C376.296 260.288 376.334 260.252 376.375 260.219L396.375 244.219 396.223 244.371 413.223 223.371C413.355 223.208 413.535 223.09 413.737 223.035L435.737 217.035 435.349 217.241 456.349 199.241 476.352 182.238 476.207 182.39 486.207 169.39C486.258 169.325 486.316 169.266 486.38 169.215L505.38 154.215C505.453 154.158 505.534 154.111 505.619 154.075L522.619 147.075 522.409 147.194 537.409 136.194 553.4 124.2 565.445 116.168 579.419 106.186 579.293 106.293 590.293 95.2929C590.326 95.2595 590.362 95.2283 590.4 95.2L602.4 86.2 614.496 79.1362C614.604 79.073 614.724 79.0307 614.848 79.0116L627.848 77.0116 627.684 77.0513 639.684 73.0513 648.684 70.0513 655.725 68.0385C655.815 68.0129 655.907 68 656 68L664 68C664.107 68 664.214 68.0173 664.316 68.0513L670.316 70.0513 670 70 678 70C678.107 70 678.214 70.0173 678.316 70.0513L684.316 72.0513C684.361 72.0663 684.405 72.0844 684.447 72.1056L690.447 75.1056 690.196 75.0194 695.196 76.0194C695.39 76.0581 695.567 76.1533 695.707 76.2929L699.707 80.2929 703.707 84.2929 703.6 84.2 707.6 87.2 707.447 87.1056 711.447 89.1056 714.555 91.168 718.6 94.2C718.638 94.2284 718.674 94.2595 718.707 94.2929L721.707 97.2929 721.447 97.1056 723.447 98.1056 726.555 100.168 728.447 101.106 728 101 731 101C731.265 101 731.52 101.105 731.707 101.293L733.707 103.293 733 103 736 103C736.315 103 736.611 103.148 736.8 103.4L739.8 107.4 739.707 107.293 741.707 109.293 742.707 110.293C742.803 110.389 742.878 110.503 742.928 110.629L744.928 115.629 746.894 119.553 748.894 123.553 748.447 123.106 750.447 124.106 749.051 124.684 750.051 121.684C750.192 121.262 750.594 120.984 751.038 121.001 751.483 121.018 751.862 121.326 751.97 121.757L752.97 125.757 752.707 125.293 754.707 127.293C754.854 127.44 754.952 127.63 754.986 127.836L755.986 133.836 755.832 133.445 757.832 136.445C757.881 136.519 757.92 136.599 757.949 136.684L758.949 139.684 759.949 142.684C759.968 142.741 759.981 142.799 759.99 142.859L760.99 149.859 761.97 153.757 762.99 160.859 762.894 160.553 763.894 162.553C763.942 162.649 763.975 162.752 763.99 162.859L764.99 169.859 764.949 169.684 765.949 172.684C765.969 172.746 765.984 172.811 765.992 172.876L766.992 180.876 767 186 766.97 185.757 767.97 189.757C767.99 189.837 768 189.918 768 190L768 196 768.992 203.876 769 210 768.986 209.836 769.986 215.836 768 216 768 212C768 211.48 768.399 211.046 768.917 211.003 769.436 210.96 769.901 211.322 769.986 211.836L770.986 217.836C770.995 217.89 771 217.945 771 218L771 218.063C771 218.615 770.552 219.063 770 219.063 769.448 219.063 769 218.615 769 218.063L769 218 769.014 218.164 768.014 212.164 770 212 770 216C770 216.52 769.601 216.954 769.083 216.997 768.564 217.039 768.099 216.678 768.014 216.164L767.014 210.164C767.005 210.11 767 210.055 767 210L767.008 204.124 766 196 766 190 766.03 190.243 765.03 186.243C765.01 186.163 765 186.082 765 186L765.008 181.124 764.008 173.124 764.051 173.316 763.051 170.316C763.032 170.259 763.019 170.201 763.01 170.141L762.01 163.141 762.106 163.447 761.106 161.447C761.057 161.351 761.025 161.248 761.01 161.141L760.03 154.243 759.01 150.141 758.01 143.141 758.051 143.316 757.051 140.316 756.051 137.316 756.168 137.555 754.168 134.555C754.089 134.437 754.037 134.304 754.014 134.164L753.014 128.164 753.293 128.707 751.293 126.707C751.165 126.579 751.074 126.418 751.03 126.243L750.03 122.243 751.949 122.316 750.949 125.316C750.857 125.591 750.65 125.813 750.383 125.924 750.115 126.035 749.812 126.024 749.553 125.894L747.553 124.894C747.359 124.798 747.202 124.641 747.106 124.447L745.106 120.447 743.071 116.371 741.071 111.371 741.293 111.707 740.293 110.707 738.293 108.707C738.26 108.674 738.228 108.638 738.2 108.6L735.2 104.6 736 105 733 105C732.735 105 732.48 104.895 732.293 104.707L730.293 102.707 731 103 728 103C727.845 103 727.692 102.964 727.553 102.894L725.445 101.832 722.553 99.8944 720.553 98.8944C720.457 98.8464 720.369 98.7831 720.293 98.7071L717.293 95.7071 717.4 95.8 713.445 92.832 710.553 90.8944 706.553 88.8944C706.499 88.8676 706.448 88.836 706.4 88.8L702.4 85.8C702.362 85.7717 702.326 85.7405 702.293 85.7071L698.293 81.7071 694.293 77.7071 694.804 77.9806 689.804 76.9806C689.717 76.9632 689.632 76.9342 689.553 76.8944L683.553 73.8944 683.684 73.9487 677.684 71.9487 678 72 670 72C669.892 72 669.786 71.9827 669.684 71.9487L663.684 69.9487 664 70 656 70 656.275 69.9615 649.316 71.9487 640.316 74.9487 628.316 78.9487C628.263 78.9665 628.208 78.9798 628.152 78.9884L615.152 80.9884 615.504 80.8638 603.6 87.8 591.6 96.8 591.707 96.7071 580.707 107.707C580.668 107.746 580.626 107.782 580.581 107.814L566.555 117.832 554.6 125.8 538.591 137.806 523.591 148.806C523.526 148.854 523.455 148.894 523.381 148.925L506.381 155.925 506.62 155.785 487.62 170.785 487.793 170.61 477.793 183.61C477.75 183.665 477.701 183.716 477.648 183.762L457.651 200.759 436.651 218.759C436.538 218.856 436.406 218.926 436.263 218.965L414.263 224.965 414.777 224.629 397.777 245.629C397.732 245.685 397.681 245.736 397.625 245.781L377.625 261.781 377.74 261.673 357.74 283.673C357.695 283.721 357.646 283.766 357.593 283.805L338.685 297.728 321.685 313.728C321.617 313.792 321.54 313.847 321.457 313.89L284.457 332.89 284.611 332.791 262.611 349.791C262.557 349.834 262.497 349.87 262.435 349.901L233.435 363.901 233.614 363.789 188.648 398.762 168.657 415.754 137.662 442.75 86.6616 487.75C86.5767 487.825 86.4797 487.885 86.3748 487.927L39.3748 506.927C39.3245 506.947 39.2727 506.964 39.2198 506.976L-102.696 538.953-262.696 589.953-262 589-262 637-262 790-262 1062-264 1062-264 930C-264 929.448-263.552 929-263 929-262.448 929-262 929.448-262 930ZM770 218.063 775.948 211.938 771 226 762.719 213.605Z" fill="#00B050"/></g><g clip-path="url(#clip12)"><path d="M-216.53 770.712-200.53 751.712C-200.378 751.532-200.196 751.38-199.992 751.263L-144.257 719.415-104.464 676.638-80.4142 652.586-48.5766 611.769C-48.3253 611.448-47.9815 611.21-47.5914 611.089L-6.08087 598.241 23.5628 567.609C23.6539 567.515 23.7539 567.43 23.8616 567.356L62.7384 540.441 79.6292 524.544C79.771 524.41 79.9315 524.298 80.1056 524.211L112.106 508.211 139.815 494.356 156.586 477.586 175.761 462.43 192.913 451.321 213.947 438.299 229.739 425.448 244.817 414.387 261.862 404.349 276.751 392.438 289.781 382.415C289.919 382.309 290.07 382.221 290.231 382.154L302.231 377.154 317.154 370.188 328.647 364.44 337.356 351.862 348.473 338.708C348.853 338.259 349.412 338 350 338L358.359 338 371.838 328.373C371.96 328.285 372.092 328.212 372.231 328.154L383.866 323.306 390.586 316.586C390.792 316.379 391.042 316.22 391.317 316.12L402.317 312.12C402.625 312.008 402.957 311.974 403.283 312.02L410.283 313.02 417.589 314.836 423.838 310.373C424.578 309.844 425.581 309.881 426.28 310.464L431.99 315.222 437.632 317.103C437.927 317.201 438.195 317.366 438.414 317.586L443.657 322.829 447.608 322.039C448.128 321.935 448.668 322.042 449.109 322.336L450.745 323.426 453.586 320.586C454.151 320.02 455 319.846 455.743 320.143L459.034 321.46 462.211 315.106C462.43 314.667 462.802 314.325 463.257 314.143L468.257 312.143C468.493 312.049 468.746 312 469 312L473 312C473.362 312 473.718 312.099 474.029 312.285L478.24 314.812 480.368 314.103C481.086 313.863 481.879 314.05 482.414 314.586L484.828 317 487 317C487.8 317 488.523 317.477 488.838 318.212L491.484 324.387 492.704 324.793 494.606 323.526 497.4 319.8C497.816 319.245 498.489 318.946 499.18 319.008 499.87 319.07 500.479 319.486 500.789 320.106L502.789 324.106 505.708 329.944 508.317 333.422 508.605 333.566 508.356 333.815 510.211 330.106C510.55 329.428 511.242 329 512 329 512.758 329 513.45 329.428 513.789 330.106L514.248 331.023 514.336 330.891C514.409 330.781 514.493 330.679 514.586 330.586L517.586 327.586C517.738 327.434 517.913 327.307 518.106 327.211L520.106 326.211 522.106 325.211 523.365 324.582 525.103 319.368C525.286 318.818 525.699 318.374 526.235 318.152 526.77 317.93 527.376 317.952 527.894 318.211L527.664 318.096 528.06 316.515C528.201 315.949 528.583 315.472 529.106 315.211L532.663 313.432 533.259 314.625 529.702 316.404C529.528 316.491 529.4 316.65 529.353 316.838L528.555 320.032 527.298 319.404C527.125 319.317 526.923 319.31 526.745 319.384 526.566 319.458 526.429 319.606 526.368 319.789L524.455 325.527 522.702 326.404 520.702 327.404 518.702 328.404C518.638 328.436 518.579 328.478 518.529 328.529L515.529 331.529C515.498 331.56 515.47 331.594 515.445 331.63L514.083 333.674 512.596 330.702C512.483 330.476 512.252 330.333 512 330.333 511.747 330.333 511.517 330.476 511.404 330.702L509.452 334.605 508.868 335.189 507.439 334.474 504.569 330.648 501.596 324.702 499.596 320.702C499.493 320.495 499.29 320.357 499.06 320.336 498.83 320.315 498.605 320.415 498.467 320.6L495.535 324.509 492.901 326.264 490.495 325.462 487.613 318.737C487.508 318.492 487.267 318.333 487 318.333L484.276 318.333 481.471 315.529C481.293 315.35 481.029 315.288 480.789 315.368L478.08 316.271 473.343 313.428C473.239 313.366 473.121 313.333 473 313.333L469 313.333C468.915 313.333 468.831 313.35 468.752 313.381L463.752 315.381C463.601 315.442 463.477 315.556 463.404 315.702L459.678 323.153 455.248 321.381C455 321.282 454.717 321.34 454.529 321.529L450.915 325.142 448.37 323.445C448.223 323.347 448.043 323.312 447.869 323.346L443.219 324.276 437.471 318.529C437.398 318.455 437.309 318.4 437.211 318.368L431.33 316.407 425.427 311.488C425.194 311.294 424.859 311.281 424.612 311.458L417.863 316.279 410.094 314.34 403.094 313.34C402.986 313.325 402.875 313.336 402.772 313.373L391.772 317.373C391.681 317.407 391.597 317.46 391.529 317.529L384.622 324.435 372.744 329.385C372.697 329.404 372.653 329.428 372.612 329.458L358.786 339.333 350 339.333C349.804 339.333 349.618 339.42 349.491 339.569L338.452 352.621 329.549 365.48 317.718 371.396 302.744 378.385 290.744 383.385C290.69 383.407 290.64 383.436 290.594 383.472L277.583 393.479 262.621 405.45 245.606 415.462 230.58 426.483 214.649 439.433 193.638 452.44 176.587 463.477 157.529 478.529 140.605 495.452 112.702 509.404 80.7018 525.404C80.6438 525.433 80.5903 525.47 80.5431 525.515L63.5794 541.48 24.6205 568.452C24.5846 568.477 24.5513 568.505 24.5209 568.536L-5.36029 599.414-47.1971 612.363C-47.3272 612.403-47.4418 612.482-47.5255 612.59L-79.4714 653.529-103.488 677.546-143.419 720.472-199.331 752.421C-199.399 752.46-199.459 752.511-199.51 752.571L-215.51 771.571ZM-214.49 772.429-198.566 753.52-142.669 721.579C-142.611 721.545-142.558 721.503-142.512 721.454L-102.512 678.454-78.5286 654.471-46.6031 613.575-4.80289 600.637C-4.69583 600.604-4.59886 600.544-4.52094 600.464L25.4334 569.511 64.3795 542.548C64.4068 542.529 64.4326 542.508 64.4569 542.485L81.3857 526.552 113.298 510.596 141.298 496.596C141.362 496.564 141.421 496.522 141.471 496.471L158.471 479.471 177.413 464.523 194.362 453.56 215.351 440.567 231.42 427.517 246.394 416.538 263.338 406.575C263.365 406.559 263.392 406.54 263.416 406.521L278.416 394.521 291.337 384.582 303.256 379.615 318.282 372.604 330.298 366.596C330.398 366.546 330.484 366.472 330.548 366.379L339.548 353.379 350.309 340.667 359 340.667C359.139 340.667 359.274 340.623 359.388 340.542L373.326 330.586 385.256 325.615C385.337 325.582 385.41 325.533 385.471 325.471L392.367 318.576 403.071 314.684 409.906 315.66 417.838 317.647C418.028 317.694 418.229 317.656 418.388 317.542L424.969 312.842 430.573 317.512C430.637 317.565 430.71 317.606 430.789 317.632L436.64 319.583 442.529 325.471C442.686 325.629 442.912 325.697 443.131 325.654L447.86 324.708 450.63 326.555C450.895 326.731 451.247 326.696 451.471 326.471L455.161 322.782 459.752 324.619C460.074 324.748 460.441 324.608 460.596 324.298L464.483 316.525 469.128 314.667 472.815 314.667 477.657 317.572C477.824 317.672 478.026 317.694 478.211 317.632L480.82 316.763 483.529 319.471C483.654 319.596 483.823 319.667 484 319.667L486.56 319.667 489.387 326.263C489.462 326.438 489.609 326.572 489.789 326.632L492.789 327.632C492.984 327.698 493.199 327.669 493.37 327.555L496.37 325.555C496.433 325.513 496.488 325.46 496.533 325.4L498.886 322.263 500.404 325.298 503.404 331.298C503.422 331.334 503.443 331.368 503.467 331.4L506.467 335.4C506.529 335.483 506.609 335.55 506.702 335.596L508.702 336.596C508.958 336.725 509.268 336.674 509.471 336.471L510.471 335.471C510.522 335.421 510.564 335.362 510.596 335.298L512 332.491 513.404 335.298C513.51 335.511 513.721 335.651 513.959 335.665 514.196 335.68 514.423 335.568 514.555 335.37L516.518 332.425 519.395 329.548 521.298 328.596 523.298 327.596 525.298 326.596C525.456 326.517 525.577 326.379 525.632 326.211L527.389 320.94 528.702 321.596C528.883 321.687 529.095 321.69 529.279 321.606 529.462 321.521 529.598 321.358 529.647 321.162L530.572 317.459 533.855 315.818 534.452 317.01 531.717 318.377 530.94 321.485C530.793 322.074 530.387 322.564 529.836 322.817 529.285 323.071 528.648 323.06 528.106 322.789L528.168 322.82 526.897 326.632C526.73 327.136 526.369 327.552 525.894 327.789L523.894 328.789 521.894 329.789 520.185 330.644 517.554 333.274 515.664 336.109C515.269 336.703 514.587 337.04 513.876 336.996 513.164 336.952 512.53 336.532 512.211 335.894L512 335.472 511.789 335.894C511.693 336.087 511.566 336.262 511.414 336.414L510.414 337.414C509.805 338.023 508.875 338.174 508.106 337.789L506.106 336.789C505.828 336.65 505.586 336.448 505.4 336.2L502.4 332.2C502.328 332.104 502.265 332.002 502.211 331.894L499.211 325.894 498.658 324.789 497.6 326.2C497.464 326.381 497.298 326.538 497.109 326.664L494.109 328.664C493.596 329.006 492.953 329.093 492.368 328.897L489.368 327.897C488.826 327.717 488.387 327.313 488.162 326.788L485.681 321 484 321C483.47 321 482.961 320.789 482.586 320.414L480.46 318.288 478.632 318.897C478.078 319.082 477.472 319.015 476.971 318.715L472.446 316 469.385 316 465.449 317.575 461.789 324.894C461.324 325.825 460.223 326.243 459.257 325.857L455.482 324.347 452.414 327.414C451.74 328.088 450.684 328.193 449.891 327.664L447.58 326.124 443.392 326.961C442.737 327.092 442.059 326.887 441.586 326.414L435.92 320.748 430.368 318.897C430.131 318.819 429.911 318.696 429.72 318.536L424.906 314.525 419.162 318.627C418.686 318.968 418.083 319.082 417.515 318.94L409.717 316.98 403.213 316.051 393.1 319.728 386.414 326.414C386.229 326.599 386.01 326.746 385.769 326.846L373.978 331.759 360.162 341.627C359.823 341.87 359.417 342 359 342L350.928 342 340.644 354.138 331.644 367.138C331.453 367.415 331.195 367.639 330.894 367.789L318.846 373.812 303.769 380.846 292.011 385.745 279.249 395.562 264.249 407.562C264.175 407.621 264.096 407.676 264.014 407.724L247.183 417.613 232.261 428.552 216.053 441.701 195.086 454.679 178.239 465.57 159.414 480.414 142.414 497.414C142.262 497.566 142.087 497.693 141.894 497.789L113.894 511.789 82.157 527.658 65.3707 543.456C65.298 543.525 65.2205 543.588 65.1384 543.644L26.3003 570.532-3.56281 601.391C-3.7966 601.632-4.08749 601.811-4.40865 601.911L-45.8094 614.725-77.5858 655.414-101.536 679.362-141.536 722.362C-141.673 722.51-141.832 722.636-142.008 722.736L-197.699 754.56-213.47 773.288ZM-213.47 773.288C-214.182 774.133-215.443 774.241-216.288 773.53-217.133 772.818-217.241 771.557-216.53 770.712ZM532.663 313.432C533.651 312.939 534.852 313.339 535.346 314.327 535.84 315.315 535.44 316.516 534.452 317.01ZM533.557 315.221 526.42 316.25 537 308 537.252 321.414Z" fill="#FF0000"/></g><g clip-path="url(#clip13)"><path d="M-364 929-263 929-264 930-264 904C-264 903.448-263.552 903-263 903-262.448 903-262 903.448-262 904L-262 922C-262 922.552-262.448 923-263 923-263.552 923-264 922.552-264 922L-264 904-262 904-262 930C-262 930.552-262.448 931-263 931L-364 931C-364.552 931-365 930.552-365 930-365 929.448-364.552 929-364 929ZM-263 922-256.333 916.667-263 930-269.667 916.667ZM-199.682 803.269-184.682 789.269C-184.64 789.229-184.593 789.193-184.544 789.161L-127.544 752.161-127.978 752.792-114.978 691.792-103.942 660.666C-103.884 660.502-103.784 660.356-103.653 660.242L-67.6525 629.242C-67.5539 629.157-67.4397 629.092-67.3162 629.051L-13.3162 611.051-13.5183 611.145 19.4817 591.145 19.331 591.257 49.331 564.257C49.3804 564.212 49.4341 564.173 49.4912 564.139L71.4912 551.139 90.5343 541.115C90.6894 541.033 90.8633 540.994 91.0384 541.001L117.038 542.001 116.868 542.009 131.868 540.009 131.364 540.228 148.364 526.228 148.092 526.581 154.092 513.581 163.055 487.673C163.075 487.615 163.1 487.56 163.13 487.507L180.13 457.507C180.169 457.438 180.216 457.374 180.27 457.316L195.27 441.316C195.351 441.23 195.447 441.158 195.553 441.106L221.553 428.106 221.307 428.279 247.307 403.279C247.368 403.221 247.436 403.17 247.51 403.128L263.51 394.128 263.168 394.445 275.168 376.445C275.326 376.209 275.577 376.05 275.859 376.01L296.859 373.01 296.427 373.181 306.427 366.181C306.534 366.106 306.655 366.052 306.783 366.024L324.783 362.024 324.331 362.257 334.331 353.257 347.431 344.178 347.168 344.445 355.168 332.445C355.393 332.108 355.799 331.94 356.196 332.019L366.196 334.019 366 334 380 334 379.737 334.035 390.737 331.035 390.419 331.186 397.419 326.186 397.168 326.445 401.168 320.445C401.328 320.206 401.583 320.047 401.868 320.009 402.154 319.971 402.442 320.058 402.659 320.247L410.659 327.247 409.504 327.132 416.504 323.132C416.583 323.086 416.669 323.052 416.757 323.03L424.757 321.03 424.293 321.293 429.293 316.293C429.597 315.989 430.062 315.913 430.447 316.106L438.447 320.106 438 320 443 320 442.553 320.106 446.553 318.106 446.4 318.2 450.4 315.2C450.62 315.035 450.898 314.968 451.169 315.014 451.44 315.061 451.68 315.217 451.832 315.445L455.832 321.445 455 321 461 321C461.304 321 461.591 321.138 461.781 321.375L465.781 326.375 464.553 326.106 468.553 324.106 468.219 324.375 472.219 319.375C472.432 319.109 472.766 318.97 473.105 319.006 473.444 319.042 473.742 319.248 473.894 319.553L475.894 323.553 475.316 323.051 478.316 324.051C478.493 324.11 478.649 324.217 478.768 324.36L483.768 330.36 482.293 330.293 485.293 327.293 485.143 327.486 488.143 322.486C488.411 322.037 488.98 321.872 489.447 322.106L491.447 323.106C491.586 323.175 491.707 323.276 491.8 323.4L494.8 327.4C494.836 327.448 494.868 327.499 494.894 327.553L497.894 333.553 496.553 333.106 498.553 332.106C498.938 331.913 499.403 331.989 499.707 332.293L502.707 335.293 501.293 335.293 503.293 333.293 505.293 331.293 505.106 331.553 506.106 329.553C506.249 329.265 506.523 329.064 506.84 329.013 507.157 328.961 507.48 329.066 507.707 329.293L511.707 333.293 510.072 333.629 512.072 328.629C512.223 328.249 512.591 328 513 328L515 328 514.051 328.684 516.051 322.684C516.192 322.262 516.594 321.984 517.038 322.001 517.483 322.018 517.862 322.326 517.97 322.757L519.97 330.757 521.928 335.629 523.962 342.725 523.707 342.293 525.707 344.293C525.86 344.446 525.959 344.644 525.99 344.859L526.99 351.859 527.876 355.38C528.01 355.916 527.684 356.459 527.148 356.593 526.612 356.727 526.069 356.401 525.935 355.865L525.01 352.141 524.01 345.141 524.293 345.707 522.293 343.707C522.173 343.587 522.085 343.438 522.038 343.275L520.071 336.371 518.03 331.243 516.03 323.243 517.949 323.316 515.949 329.316C515.813 329.725 515.43 330 515 330L513 330 513.928 329.371 511.928 334.371C511.804 334.684 511.53 334.912 511.201 334.98 510.872 335.047 510.531 334.945 510.293 334.707L506.293 330.707 507.894 330.447 506.894 332.447C506.846 332.543 506.783 332.631 506.707 332.707L504.707 334.707 502.707 336.707C502.317 337.098 501.683 337.098 501.293 336.707L498.293 333.707 499.447 333.894 497.447 334.894C496.953 335.141 496.353 334.941 496.106 334.447L493.106 328.447 493.2 328.6 490.2 324.6 490.553 324.894 488.553 323.894 489.857 323.514 486.857 328.514C486.815 328.585 486.765 328.649 486.707 328.707L483.707 331.707C483.508 331.906 483.235 332.012 482.955 331.999 482.674 331.986 482.412 331.856 482.232 331.64L477.232 325.64 477.684 325.949 474.684 324.949C474.432 324.865 474.224 324.684 474.106 324.447L472.106 320.447 473.781 320.625 469.781 325.625C469.69 325.738 469.577 325.83 469.447 325.894L465.447 327.894C465.025 328.105 464.514 327.993 464.219 327.625L460.219 322.625 461 323 455 323C454.666 323 454.353 322.833 454.168 322.555L450.168 316.555 451.6 316.8 447.6 319.8C447.552 319.836 447.501 319.868 447.447 319.894L443.447 321.894C443.308 321.964 443.155 322 443 322L438 322C437.845 322 437.692 321.964 437.553 321.894L429.553 317.894 430.707 317.707 425.707 322.707C425.579 322.835 425.418 322.926 425.242 322.97L417.242 324.97 417.496 324.868 410.496 328.868C410.126 329.08 409.662 329.033 409.341 328.753L401.341 321.753 402.832 321.555 398.832 327.555C398.765 327.656 398.68 327.743 398.581 327.814L391.581 332.814C391.485 332.883 391.377 332.934 391.263 332.965L380.263 335.965C380.177 335.988 380.089 336 380 336L366 336C365.934 336 365.868 335.993 365.804 335.981L355.804 333.981 356.832 333.555 348.832 345.555C348.762 345.66 348.673 345.75 348.569 345.822L335.669 354.743 325.669 363.743C325.541 363.859 325.385 363.939 325.217 363.976L307.217 367.976 307.573 367.819 297.573 374.819C297.445 374.909 297.297 374.968 297.141 374.99L276.141 377.99 276.832 377.555 264.832 395.555C264.745 395.686 264.628 395.794 264.49 395.872L248.49 404.872 248.693 404.721 222.693 429.721C222.62 429.791 222.537 429.849 222.447 429.894L196.447 442.894 196.73 442.684 181.73 458.684 181.87 458.493 164.87 488.493 164.945 488.327 155.908 514.419 149.908 527.419C149.845 527.556 149.752 527.676 149.636 527.772L132.636 541.772C132.492 541.891 132.317 541.967 132.132 541.991L117.132 543.991C117.076 543.999 117.019 544.001 116.962 543.999L90.9615 542.999 91.4657 542.885 72.5087 552.861 50.5087 565.861 50.669 565.743 20.669 592.743C20.6223 592.785 20.5719 592.823 20.5183 592.855L-12.4817 612.855C-12.5454 612.894-12.6132 612.925-12.6838 612.949L-66.6838 630.949-66.3475 630.758-102.348 661.758-102.058 661.334-113.022 692.208-126.022 753.208C-126.077 753.468-126.233 753.694-126.456 753.839L-183.456 790.839-183.318 790.731-198.318 804.731C-198.721 805.108-199.354 805.086-199.731 804.682-200.108 804.279-200.086 803.646-199.682 803.269ZM526.906 355.623 530.99 348.126 530 363 518.695 353.283Z" fill="#0066CC"/></g><g clip-path="url(#clip14)"><path d="M-298 966-298 1029C-298 1030.1-298.895 1031-300 1031-301.105 1031-302 1030.1-302 1029L-302 966C-302 964.895-301.105 964-300 964L-265 964-265 867C-265 865.895-264.105 865-263 865L-238 865-238 853C-238 852.395-237.726 851.822-237.254 851.442-236.782 851.062-236.164 850.917-235.573 851.046L-171.573 865.046C-171.076 865.155-170.64 865.448-170.352 865.867L-159.352 881.867C-159.123 882.2-159 882.595-159 883L-159 1029-159 1062C-159 1063.1-159.895 1064-161 1064-162.105 1064-163 1063.1-163 1062L-163 904C-163 902.895-162.105 902-161 902L-129 902-129 853-129 830-129 790C-129 789.733-128.946 789.468-128.842 789.222L-109.842 744.222C-109.782 744.079-109.705 743.943-109.613 743.817L-98.6128 728.817-76.631 697.843-34.8066 640.085-25.9041 612.388C-25.8488 612.216-25.7706 612.052-25.6714 611.902L-2.67142 576.902C-2.46161 576.582-2.1647 576.33-1.81589 576.174L44.9189 555.292 72.6984 531.481C72.8354 531.364 72.9877 531.266 73.1511 531.189L105.151 516.189 126.008 504.263 151.621 491.453 166.325 468.907C166.428 468.748 166.554 468.605 166.698 468.481L180.317 456.808 199.135 408.277C199.279 407.906 199.531 407.586 199.858 407.358L222.858 391.358C222.95 391.294 223.047 391.238 223.148 391.19L240.148 383.19 283.579 359.497 301.301 330.945 311.23 312.068C311.355 311.831 311.526 311.622 311.734 311.452L333.734 293.452C333.826 293.377 333.925 293.31 334.029 293.252L361.029 278.252 380.9 269.302 398.671 253.505 420.777 236.417 431.655 226.52 446.464 208.72 464.481 187.698C464.563 187.603 464.653 187.516 464.751 187.438L479.751 175.438 497.829 162.379C497.927 162.308 498.031 162.246 498.14 162.194L519.14 152.194 533.693 143.452 545.481 129.698C545.558 129.609 545.642 129.527 545.734 129.452L556.734 120.452C556.848 120.358 556.973 120.277 557.106 120.211L569.106 114.211C569.19 114.169 569.278 114.133 569.368 114.103L583.963 109.238 595.648 98.5257C595.856 98.3357 596.101 98.1915 596.368 98.1026L608.368 94.1026 616.515 92.0597 628.368 88.1026C628.572 88.0347 628.785 88 629 88L635.72 88 641.763 86.2735 650.356 73.8616C650.796 73.2249 651.565 72.8999 652.329 73.0272L658.023 73.9763 664.512 73.0495 675.317 69.1204C675.741 68.9662 676.204 68.9599 676.632 69.1026L682.324 71 685.834 71 691.671 70.0272C692.537 69.8829 693.396 70.3203 693.789 71.1056L696.894 77.3167 699.106 76.2111C699.265 76.1317 699.433 76.0737 699.608 76.0388L704.608 75.0388C705.096 74.9413 705.602 75.029 706.029 75.285L710.554 78 714 78 718 78C718.215 78 718.428 78.0347 718.632 78.1026L721.632 79.1026 724.632 80.1026C725.018 80.2313 725.356 80.4745 725.6 80.8L728.174 84.2319 731.485 85.0597 734.632 86.1026 735.987 86.5541 737.211 84.1056C737.307 83.9133 737.434 83.7378 737.586 83.5858L739.586 81.5858C739.961 81.2107 740.47 81 741 81L744 81C744.215 81 744.428 81.0347 744.632 81.1026L747.324 82 749.675 82 751.488 81.396 753.143 77.2572C753.351 76.7379 753.766 76.3293 754.289 76.1306 754.812 75.9318 755.394 75.961 755.894 76.2111L757.894 77.2111C758.281 77.4047 758.595 77.7185 758.789 78.1056L760.644 81.8153 763.185 84.3563 764.472 85 766 85C766.669 85 767.293 85.3342 767.664 85.8906L769.664 88.8906C769.801 89.096 769.899 89.3251 769.952 89.5661L771.952 98.5661 772.916 105.268 772.998 105.392 771.889 106.132 771.639 105.756 770.651 98.8554 768.651 89.8554C768.633 89.775 768.6 89.6987 768.555 89.6302L766.555 86.6302C766.431 86.4447 766.223 86.3333 766 86.3333L764.157 86.3333 762.395 85.4521 759.548 82.6051 757.596 78.7019C757.532 78.5728 757.427 78.4682 757.298 78.4037L755.298 77.4037C755.131 77.3203 754.937 77.3106 754.763 77.3769 754.589 77.4431 754.45 77.5793 754.381 77.7524L752.496 82.4653 749.892 83.3333 747.108 83.3333 744.211 82.3675C744.143 82.3449 744.072 82.3333 744 82.3333L741 82.3333C740.823 82.3333 740.654 82.4036 740.529 82.5286L738.529 84.5286C738.478 84.5793 738.436 84.6378 738.404 84.7019L736.662 88.1847 734.211 87.3675 731.162 86.3532 727.391 85.4106 724.533 81.6C724.452 81.4915 724.339 81.4104 724.211 81.3675L721.211 80.3675 718.211 79.3675C718.143 79.3449 718.072 79.3333 718 79.3333L714 79.3333 710.185 79.3333 705.343 76.4283C705.201 76.343 705.032 76.3138 704.869 76.3463L699.869 77.3463C699.811 77.3579 699.755 77.3772 699.702 77.4037L696.298 79.1056 692.596 71.7019C692.465 71.4401 692.179 71.2943 691.89 71.3424L685.945 72.3333 682.108 72.3333 676.211 70.3675C676.068 70.32 675.913 70.3221 675.772 70.3735L664.837 74.3498 658.008 75.3254 652.11 74.3424C651.855 74.3 651.599 74.4083 651.452 74.6205L642.588 87.4245 635.907 89.3333 629 89.3333C628.928 89.3333 628.857 89.3449 628.789 89.3675L616.838 93.3532 608.789 95.3675 596.789 99.3675C596.7 99.3972 596.619 99.4452 596.549 99.5086L584.654 110.412 569.789 115.368C569.759 115.378 569.73 115.39 569.702 115.404L557.702 121.404C557.658 121.426 557.616 121.453 557.578 121.484L546.578 130.484C546.547 130.509 546.519 130.536 546.494 130.566L534.564 144.484 519.713 153.398 498.713 163.398C498.677 163.415 498.642 163.436 498.61 163.46L480.583 176.479 465.583 188.479C465.551 188.505 465.521 188.534 465.494 188.566L447.488 209.573 432.552 227.507 421.592 237.472 399.557 254.502 381.633 270.434 361.676 279.417 334.676 294.417C334.641 294.437 334.609 294.459 334.578 294.484L312.578 312.484C312.509 312.541 312.452 312.61 312.41 312.69L302.434 331.648 284.526 360.499 240.716 384.397 223.716 392.397C223.682 392.413 223.65 392.431 223.619 392.453L200.619 408.453C200.51 408.529 200.426 408.635 200.378 408.759L181.439 457.603 167.566 469.494C167.518 469.535 167.476 469.583 167.442 469.636L152.54 492.484 126.669 505.421 105.717 517.396 73.717 532.396C73.6626 532.422 73.6118 532.455 73.5661 532.494L45.6396 556.431-1.27197 577.391C-1.38824 577.443-1.48721 577.527-1.55716 577.634L-24.5572 612.634C-24.5902 612.684-24.6163 612.739-24.6347 612.796L-33.6022 640.695-75.5437 698.614-97.5376 729.606-108.538 744.606C-108.568 744.648-108.594 744.693-108.614 744.741L-127.614 789.741C-127.649 789.823-127.667 789.911-127.667 790L-127.667 830-127.667 853-127.667 903.333-161 903.333C-161.368 903.333-161.667 903.632-161.667 904L-161.667 1062C-161.667 1062.37-161.368 1062.67-161 1062.67-160.632 1062.67-160.333 1062.37-160.333 1062L-160.333 1029-160.333 883C-160.333 882.865-160.374 882.733-160.451 882.622L-171.451 866.622C-171.547 866.483-171.692 866.385-171.858 866.349L-235.858 852.349C-236.055 852.306-236.261 852.354-236.418 852.481-236.575 852.607-236.667 852.798-236.667 853L-236.667 866.333-263 866.333C-263.368 866.333-263.667 866.632-263.667 867L-263.667 965.333-300 965.333C-300.368 965.333-300.667 965.632-300.667 966L-300.667 1029C-300.667 1029.37-300.368 1029.67-300 1029.67-299.632 1029.67-299.333 1029.37-299.333 1029L-299.333 966ZM-300.667 966-300.667 1029-299.333 1029-299.333 966.667-263 966.667C-262.632 966.667-262.333 966.368-262.333 966L-262.333 867.667-236 867.667C-235.632 867.667-235.333 867.368-235.333 867L-235.333 853.828-172.4 867.595-161.667 883.207-161.667 1029-161.667 1062-160.333 1062-160.333 904.667-127 904.667C-126.632 904.667-126.333 904.368-126.333 904L-126.333 853-126.333 830-126.333 790.135-107.416 745.331-96.4624 730.394-74.4563 699.386-32.46 641.391C-32.4188 641.334-32.3868 641.271-32.3653 641.204L-23.3931 613.29-0.549988 578.529 46.272 557.609C46.3306 557.582 46.3851 557.548 46.4338 557.506L74.365 533.565 106.283 518.604 127.331 506.579 153.298 493.596C153.404 493.543 153.494 493.463 153.558 493.364L168.506 470.444 182.434 458.506C182.517 458.435 182.582 458.344 182.622 458.241L201.548 409.431 224.335 393.579 241.284 385.603 285.319 361.585C285.42 361.53 285.506 361.45 285.566 361.352L303.566 332.352 313.527 313.43 335.376 295.554 362.324 280.583 382.274 271.608C382.335 271.58 382.392 271.543 382.443 271.498L400.443 255.498 422.408 238.528 433.448 228.493 448.512 210.427 466.465 189.481 481.416 177.521 499.341 164.576 520.287 154.602 535.343 145.572C535.404 145.535 535.46 145.488 535.506 145.434L547.468 131.479 558.365 122.563 570.256 116.617 585.211 111.632C585.3 111.603 585.381 111.555 585.451 111.491L597.346 100.588 609.211 96.6325 617.162 94.6468 629.108 90.6667 636 90.6667C636.062 90.6667 636.124 90.658 636.183 90.641L643.183 88.641C643.331 88.5987 643.46 88.5062 643.548 88.3795L652.307 75.7271 657.89 76.6576C657.958 76.6688 658.027 76.6696 658.094 76.66L665.094 75.66C665.14 75.6535 665.185 75.6423 665.228 75.6265L676.01 71.7059 681.789 73.6325C681.857 73.6551 681.928 73.6667 682 73.6667L686 73.6667C686.037 73.6667 686.073 73.6636 686.11 73.6576L691.624 72.7385 695.404 80.2981C695.568 80.6275 695.969 80.7609 696.298 80.5963L700.218 78.6362 704.878 77.7043 709.657 80.5717C709.761 80.6338 709.879 80.6667 710 80.6667L714 80.6667 717.892 80.6667 720.789 81.6325 723.592 82.5666 726.467 86.4C726.558 86.5225 726.69 86.6096 726.838 86.6468L730.838 87.6468 733.789 88.6325 736.789 89.6325C737.104 89.7374 737.448 89.5949 737.596 89.2981L739.548 85.3949 741.276 83.6667 743.892 83.6667 746.789 84.6325C746.857 84.6551 746.928 84.6667 747 84.6667L750 84.6667C750.072 84.6667 750.143 84.6551 750.211 84.6325L753.211 83.6325C753.397 83.5704 753.546 83.4297 753.619 83.2476L755.35 78.9203 756.503 79.4969 758.404 83.2981C758.436 83.3622 758.478 83.4207 758.529 83.4714L761.529 86.4714C761.579 86.5221 761.638 86.5642 761.702 86.5963L763.702 87.5963C763.794 87.6426 763.896 87.6667 764 87.6667L765.643 87.6667 767.376 90.2662 769.349 99.1446 770.34 106.094C770.354 106.193 770.39 106.287 770.445 106.37L770.78 106.871 769.67 107.611 769.336 107.109C769.17 106.861 769.062 106.578 769.02 106.283L768.048 99.4339 766.129 90.7986 764.93 89 764 89C763.69 89 763.383 88.9277 763.106 88.7889L761.106 87.7889C760.913 87.6927 760.738 87.5662 760.586 87.4142L757.586 84.4142C757.434 84.2622 757.307 84.0867 757.211 83.8944L755.509 80.4907 756.05 80.7609 754.857 83.7428C754.638 84.289 754.191 84.7113 753.632 84.8974L750.632 85.8974C750.428 85.9653 750.215 86 750 86L747 86C746.785 86 746.572 85.9653 746.368 85.8974L743.675 85 741.828 85 740.644 86.1847 738.789 89.8944C738.344 90.7847 737.312 91.2121 736.368 90.8974L733.368 89.8974 730.515 88.9403 726.515 87.9403C726.069 87.8289 725.676 87.5675 725.4 87.2L722.775 83.6998 720.368 82.8974 717.675 82 714 82 710 82C709.637 82 709.282 81.9015 708.971 81.715L704.634 79.1128 700.655 79.9086 696.894 81.7889C695.906 82.2828 694.705 81.8824 694.211 80.8944L690.872 74.2156 686.329 74.9728C686.22 74.9909 686.11 75 686 75L682 75C681.785 75 681.572 74.9653 681.368 74.8974L676.029 73.1177 665.683 76.8796C665.554 76.9268 665.419 76.9604 665.283 76.9799L658.283 77.9799C658.08 78.0089 657.873 78.0065 657.671 77.9728L652.922 77.1813 644.644 89.1384C644.381 89.5187 643.994 89.796 643.549 89.923L636.549 91.923C636.371 91.9741 636.186 92 636 92L629.324 92 617.485 95.9403 609.632 97.8974 598.037 101.762 586.351 112.474C586.144 112.664 585.899 112.808 585.632 112.897L570.767 117.852 559.094 123.689 548.403 132.436 536.518 146.302C536.379 146.465 536.213 146.604 536.029 146.715L520.86 155.806 500.024 165.728 482.249 178.562 467.396 190.444 449.536 211.28 434.345 229.48 423.223 239.583 401.329 256.495 383.329 272.495C383.177 272.63 383.006 272.741 382.821 272.824L362.971 281.748 336.128 296.661 314.581 314.291 304.699 333.055 286.699 362.055C286.517 362.349 286.261 362.59 285.958 362.756L241.852 386.81 225.004 394.738 202.644 410.293 183.865 458.723C183.745 459.031 183.552 459.304 183.302 459.518L169.519 471.332 154.675 494.093C154.481 494.39 154.212 494.63 153.894 494.789L127.992 507.736 106.849 519.811 75.0951 534.695 47.3016 558.519C47.1553 558.644 46.9918 558.747 46.8159 558.826L0.350067 579.587-22.1792 613.871-31.0959 641.612C-31.1605 641.813-31.2564 642.002-31.3801 642.173L-73.369 700.157-95.3872 731.183-106.249 745.994-125 790.405-125 830-125 853-125 904C-125 905.105-125.895 906-127 906L-159 906-159 1062-163 1062-163 1029-163 883.621-173.2 868.785-234 855.485-234 867C-234 868.105-234.895 869-236 869L-261 869-261 966C-261 967.105-261.895 968-263 968L-298 968-298 1029-302 1029-302 966ZM-302 966C-302 964.895-301.105 964-300 964-298.895 964-298 964.895-298 966ZM772.998 105.392C773.611 106.311 773.363 107.553 772.444 108.166 771.525 108.778 770.283 108.53 769.67 107.611ZM771.334 106.501 773.875 99.7529 776 113 764.128 106.751Z" fill="#002060"/></g><g clip-path="url(#clip15)"><text fill="#595959" font-family="Calibri,Calibri_MSFontService,sans-serif" font-weight="400" font-size="15" transform="translate(32.2196 648)">10</text></g><g clip-path="url(#clip16)"><text fill="#595959" font-family="Calibri,Calibri_MSFontService,sans-serif" font-weight="400" font-size="15" transform="translate(24.7862 439)">100</text></g><g clip-path="url(#clip17)"><text fill="#595959" font-family="Calibri,Calibri_MSFontService,sans-serif" font-weight="400" font-size="15" transform="translate(17.3529 230)">1000</text></g><g clip-path="url(#clip18)"><text fill="#595959" font-family="Calibri,Calibri_MSFontService,sans-serif" font-weight="400" font-size="15" transform="translate(9.91947 22)">10000</text></g><g clip-path="url(#clip19)"><text fill="#595959" font-family="Calibri,Calibri_MSFontService,sans-serif" font-weight="400" font-size="15" transform="translate(49.5453 667)">100</text></g><g clip-path="url(#clip20)"><text fill="#595959" font-family="Calibri,Calibri_MSFontService,sans-serif" font-weight="400" font-size="15" transform="translate(258.09 667)">1000</text></g><g clip-path="url(#clip21)"><text fill="#595959" font-family="Calibri,Calibri_MSFontService,sans-serif" font-weight="400" font-size="15" transform="translate(466.634 667)">10000</text></g><g clip-path="url(#clip22)"><text fill="#595959" font-family="Calibri,Calibri_MSFontService,sans-serif" font-weight="400" font-size="15" transform="translate(675.178 667)">100000</text></g><g clip-path="url(#clip23)"><text fill="#595959" font-family="Calibri,Calibri_MSFontService,sans-serif" font-weight="400" font-size="15" transform="translate(883.723 667)">1000000</text></g><g clip-path="url(#clip24)"><rect x="67.0001" y="21" width="24" height="209" fill="#FFFFFF"/></g><g clip-path="url(#clip25)"><text fill="#595959" font-family="Calibri,Calibri_MSFontService,sans-serif" font-weight="400" font-size="16" transform="matrix(6.12323e-17 -1 1 6.12323e-17 84.1684 226)">Daily cases (7</text></g><g clip-path="url(#clip26)"><text fill="#595959" font-family="Calibri,Calibri_MSFontService,sans-serif" font-weight="400" font-size="16" transform="matrix(6.12323e-17 -1 1 6.12323e-17 84.1684 139)">-</text></g><g clip-path="url(#clip27)"><text fill="#595959" font-family="Calibri,Calibri_MSFontService,sans-serif" font-weight="400" font-size="16" transform="matrix(6.12323e-17 -1 1 6.12323e-17 84.1684 134)">day average, log)</text></g><g clip-path="url(#clip28)"><rect x="745" y="612" width="153" height="24" fill="#FFFFFF"/></g><g clip-path="url(#clip29)"><text fill="#595959" font-family="Calibri,Calibri_MSFontService,sans-serif" font-weight="400" font-size="16" transform="translate(749.156 629)">Cumulative cases (log)</text></g><g clip-path="url(#clip30)"><path d="M103 694 121 694C121.552 694 122 694.448 122 695 122 695.552 121.552 696 121 696L103 696C102.448 696 102 695.552 102 695 102 694.448 102.448 694 103 694ZM121 695 115.667 688.333 129 695 115.667 701.667Z" fill="#C00000"/></g><g clip-path="url(#clip31)"><text fill="#595959" font-family="Calibri,Calibri_MSFontService,sans-serif" font-weight="400" font-size="19" transform="translate(131.257 701)">France</text></g><g clip-path="url(#clip32)"><path d="M202 694 220 694C220.552 694 221 694.448 221 695 221 695.552 220.552 696 220 696L202 696C201.448 696 201 695.552 201 695 201 694.448 201.448 694 202 694ZM220 695 214.667 688.333 228 695 214.667 701.667Z" fill="#404040"/></g><g clip-path="url(#clip33)"><text fill="#595959" font-family="Calibri,Calibri_MSFontService,sans-serif" font-weight="400" font-size="19" transform="translate(230.788 701)">Germany</text></g><g clip-path="url(#clip34)"><path d="M321 693 338 693 338 694.333 321 694.333ZM321 695.667 338 695.667 338 697 321 697ZM321 697C319.895 697 319 696.105 319 695 319 693.895 319.895 693 321 693ZM338 693C339.105 693 340 693.896 340 695 340 696.105 339.105 697 338 697ZM338 695 334 689 346 695 334 701Z" fill="#FFC000"/></g><g clip-path="url(#clip35)"><text fill="#595959" font-family="Calibri,Calibri_MSFontService,sans-serif" font-weight="400" font-size="19" transform="translate(348.979 701)">Spain</text></g><g clip-path="url(#clip36)"><path d="M411 694 428 694C428.552 694 429 694.448 429 695 429 695.552 428.552 696 428 696L411 696C410.448 696 410 695.552 410 695 410 694.448 410.448 694 411 694ZM428 695 422.667 688.333 436 695 422.667 701.667Z" fill="#00B050"/></g><g clip-path="url(#clip37)"><text fill="#595959" font-family="Calibri,Calibri_MSFontService,sans-serif" font-weight="400" font-size="19" transform="translate(438.917 701)">Italy</text></g><g clip-path="url(#clip38)"><path d="M492 693 509 693 509 694.333 492 694.333ZM492 695.667 509 695.667 509 697 492 697ZM492 697C490.895 697 490 696.105 490 695 490 693.895 490.895 693 492 693ZM509 693C510.105 693 511 693.896 511 695 511 696.105 510.105 697 509 697ZM509 695 505 689 517 695 505 701Z" fill="#FF0000"/></g><g clip-path="url(#clip39)"><text fill="#595959" font-family="Calibri,Calibri_MSFontService,sans-serif" font-weight="400" font-size="19" transform="translate(520.062 701)">Poland</text></g><g clip-path="url(#clip40)"><path d="M593 694 610 694C610.552 694 611 694.448 611 695 611 695.552 610.552 696 610 696L593 696C592.448 696 592 695.552 592 695 592 694.448 592.448 694 593 694ZM610 695 604.667 688.333 618 695 604.667 701.667Z" fill="#0066CC"/></g><g clip-path="url(#clip41)"><text fill="#595959" font-family="Calibri,Calibri_MSFontService,sans-serif" font-weight="400" font-size="19" transform="translate(620.906 701)">Romania</text></g><g clip-path="url(#clip42)"><path d="M708 693 726 693 726 694.333 708 694.333ZM708 695.667 726 695.667 726 697 708 697ZM708 697C706.895 697 706 696.105 706 695 706 693.895 706.895 693 708 693ZM726 693C727.105 693 728 693.896 728 695 728 696.105 727.105 697 726 697ZM726 695 722 689 734 695 722 701Z" fill="#002060"/></g><g clip-path="url(#clip43)"><text fill="#595959" font-family="Calibri,Calibri_MSFontService,sans-serif" font-weight="400" font-size="19" transform="translate(736.291 701)">United Kingdom</text></g><rect x="6.50005" y="0.500053" width="945" height="719" stroke="#D9D9D9" stroke-linejoin="round" stroke-miterlimit="10" stroke-dasharray="3 1" fill="none"/></g></svg>