<svg xmlns="http://www.w3.org/2000/svg" version="1.1" style="font-family:&#x27;Segoe UI&#x27;, sans-serif;font-size:18px;background-color:white;text-rendering:optimizeLegibility;-webkit-font-smoothing:antialiased" viewBox="0 0 850 600"><g class="HeaderView"><g transform="translate(774, 15) scale(0.29)"><svg width="210" height="120" viewBox="0 0 210 120" fill="none" xmlns="http://www.w3.org/2000/svg">
<g clip-path="url(#clip0)">
  <path d="M0 0h210v107.89H0V0z" fill="#002147" />
  <path
    d="M40.98 32.25c0 2.36-.38 4.53-1.12 6.51a14.26 14.26 0 01-8.1 8.4c-1.9.78-4.02 1.17-6.34 1.17-2.31 0-4.42-.39-6.33-1.17a14.31 14.31 0 01-8.08-8.4 18.29 18.29 0 01-1.12-6.51c0-2.36.38-4.53 1.12-6.5.75-1.97 1.8-3.67 3.17-5.1 1.37-1.43 3-2.55 4.9-3.34 1.92-.8 4.03-1.19 6.34-1.19 2.32 0 4.43.4 6.34 1.19 1.92.8 3.56 1.9 4.93 3.34a14.87 14.87 0 013.17 5.1 18.1 18.1 0 011.12 6.5zm-4.38 0c0-1.94-.26-3.68-.8-5.22a10.91 10.91 0 00-2.24-3.89 9.68 9.68 0 00-3.52-2.46 11.95 11.95 0 00-4.62-.86c-1.68 0-3.21.28-4.6.86a9.88 9.88 0 00-3.54 2.46 10.91 10.91 0 00-2.24 3.9c-.53 1.53-.8 3.27-.8 5.2 0 1.94.27 3.68.8 5.22a11.17 11.17 0 002.24 3.9 10.01 10.01 0 003.55 2.44c1.38.56 2.9.83 4.6.83 1.7 0 3.24-.27 4.61-.83a9.8 9.8 0 003.52-2.44 11.17 11.17 0 002.25-3.9c.53-1.54.8-3.28.8-5.21zm26.22-6.54V48H60.5c-.56 0-.9-.27-1.05-.81l-.31-2.4a12.45 12.45 0 01-3.26 2.6c-1.2.64-2.58.96-4.13.96-1.22 0-2.3-.2-3.24-.6a6.52 6.52 0 01-2.33-1.7 7.37 7.37 0 01-1.43-2.67c-.3-1.04-.46-2.2-.46-3.45V25.7h3.91v14.22c0 1.68.38 2.99 1.15 3.91.77.93 1.96 1.39 3.54 1.39 1.16 0 2.24-.27 3.23-.82a10.42 10.42 0 002.8-2.28V25.7h3.91zm8.61 4.47a9.94 9.94 0 012.6-3.56 5.64 5.64 0 013.76-1.3c.47 0 .92.05 1.34.15.44.1.83.27 1.17.49L80 28.88c-.09.37-.3.55-.66.55-.2 0-.5-.04-.9-.13a6.21 6.21 0 00-3.24.18c-.54.2-1.03.5-1.47.92-.42.4-.81.9-1.17 1.5-.33.58-.64 1.26-.92 2.02V48h-3.94V25.71h2.25c.42 0 .72.08.88.25.16.16.27.44.33.83l.26 3.39zm61.16-13.7L122.75 48h-3.82l-7.99-24.05a21.95 21.95 0 01-.42-1.58 38.36 38.36 0 01-.44 1.58L102.05 48h-3.83L88.4 16.47h3.54c.38 0 .7.1.95.29.26.2.43.43.5.73l6.52 21.9c.1.4.2.83.28 1.28.1.46.2.94.29 1.46l.3-1.46c.12-.47.25-.9.38-1.27l7.41-21.91c.1-.25.26-.48.51-.69.27-.22.58-.33.95-.33h1.23c.38 0 .69.1.92.29.24.2.41.43.53.73l7.4 21.9a28.4 28.4 0 01.68 2.62 29.52 29.52 0 01.52-2.61l6.54-21.91c.07-.27.23-.5.48-.7.27-.21.58-.32.95-.32h3.32zm9.35 8.88c1.63 0 3.1.27 4.4.82a9.43 9.43 0 015.46 5.94c.5 1.4.74 2.98.74 4.73 0 1.76-.25 3.34-.74 4.75a9.43 9.43 0 01-5.46 5.92c-1.3.52-2.77.79-4.4.79-1.64 0-3.12-.27-4.44-.8a9.42 9.42 0 01-3.35-2.3c-.92-1-1.63-2.2-2.13-3.61-.49-1.41-.73-3-.73-4.75s.24-3.33.73-4.73c.5-1.43 1.2-2.64 2.13-3.63.93-1 2.04-1.77 3.35-2.31 1.32-.55 2.8-.82 4.44-.82zm0 19.89c2.2 0 3.84-.73 4.93-2.2 1.08-1.48 1.63-3.54 1.63-6.18 0-2.66-.55-4.72-1.63-6.2-1.09-1.49-2.73-2.23-4.93-2.23-1.12 0-2.09.2-2.93.57-.82.39-1.5.94-2.06 1.65-.55.72-.96 1.61-1.24 2.67-.26 1.04-.4 2.22-.4 3.54 0 2.64.55 4.7 1.64 6.18 1.1 1.47 2.76 2.2 4.99 2.2zm17.97-15.07a9.94 9.94 0 012.6-3.56 5.64 5.64 0 013.76-1.3c.47 0 .91.05 1.34.15.44.1.83.27 1.16.49l-.28 2.92c-.09.37-.31.55-.66.55-.2 0-.5-.04-.9-.13a6.2 6.2 0 00-3.24.18c-.54.2-1.03.5-1.47.92-.43.4-.82.9-1.17 1.5a13.1 13.1 0 00-.92 2.02V48h-3.94V25.71h2.24c.43 0 .72.08.88.25.17.16.28.44.33.83l.27 3.39zm15.04-14.59V48h-3.92V15.6h3.92zm19.55 15.43a6.22 6.22 0 00-2.38-2.05 6.7 6.7 0 00-2.86-.6c-2.07 0-3.66.75-4.77 2.23-1.12 1.48-1.68 3.6-1.68 6.33 0 1.46.13 2.7.38 3.74a7.29 7.29 0 001.1 2.56 4.35 4.35 0 001.78 1.45c.7.3 1.5.46 2.4.46 1.29 0 2.41-.3 3.36-.88a9.6 9.6 0 002.67-2.49V31.02zm3.91-15.43V48h-2.33c-.56 0-.9-.27-1.06-.81l-.35-2.71a12.13 12.13 0 01-3.25 2.77 8.28 8.28 0 01-4.23 1.06 7.31 7.31 0 01-6.14-2.9c-.73-.96-1.3-2.15-1.69-3.57a18.35 18.35 0 01.07-9.48 11.29 11.29 0 011.89-3.7 8.7 8.7 0 017.06-3.34 7.96 7.96 0 016.12 2.62V15.59h3.91zM46.61 70.71V93H42.7V70.71h3.91zm.84-7c0 .39-.08.75-.24 1.09-.15.32-.35.61-.62.88-.25.25-.55.44-.9.59a2.67 2.67 0 01-2.16 0 2.9 2.9 0 01-1.45-1.47 2.67 2.67 0 010-2.16c.15-.35.35-.65.6-.9.25-.27.53-.47.85-.62a2.67 2.67 0 012.16 0c.35.15.65.35.9.62.27.25.47.55.62.9.16.34.24.7.24 1.08zm7.97 10.24c.49-.54 1-1.04 1.54-1.48a9.85 9.85 0 013.66-1.84 8.96 8.96 0 015.43.35c.94.4 1.72.97 2.33 1.71.63.74 1.11 1.62 1.43 2.67.32 1.04.49 2.19.49 3.45V93h-3.94V78.81c0-1.69-.4-3-1.17-3.92-.76-.93-1.93-1.4-3.5-1.4-1.15 0-2.24.27-3.25.83-1 .56-1.92 1.31-2.77 2.27V93h-3.94V70.71h2.35c.56 0 .9.28 1.04.82l.3 2.42zm57.7 3.3c0 2.36-.37 4.5-1.11 6.44a14.3 14.3 0 01-3.17 4.98c-1.37 1.37-3 2.45-4.93 3.2-1.9.76-4.02 1.13-6.33 1.13H85.8V61.47h11.77c2.31 0 4.42.39 6.33 1.15a13.8 13.8 0 018.1 8.18 17.75 17.75 0 011.12 6.45zm-4.37 0c0-1.94-.26-3.67-.8-5.2a10.94 10.94 0 00-2.23-3.87 9.57 9.57 0 00-3.53-2.42 12.23 12.23 0 00-4.61-.83h-7.5v24.62h7.5c1.7 0 3.24-.28 4.61-.84a9.7 9.7 0 003.53-2.4 10.94 10.94 0 002.24-3.87c.53-1.53.8-3.26.8-5.2zm19.8 5.72c-1.8.06-3.34.2-4.62.44-1.26.22-2.3.51-3.1.88-.8.36-1.37.8-1.74 1.3-.35.5-.53 1.05-.53 1.67 0 .58.1 1.1.3 1.52a3 3 0 00.76 1.05c.34.27.73.46 1.17.6.45.11.94.17 1.45.17a7.28 7.28 0 003.5-.81 11.95 11.95 0 002.82-2.2v-4.62zm-12.65-9.11a12.73 12.73 0 013.98-2.66c1.43-.59 3-.88 4.73-.88 1.25 0 2.36.2 3.33.61a6.81 6.81 0 013.94 4.38c.33 1.04.5 2.19.5 3.43V93h-1.74a1.8 1.8 0 01-.88-.18c-.2-.13-.36-.38-.48-.74l-.44-2.12c-.59.55-1.16 1.03-1.72 1.46a9.48 9.48 0 01-3.74 1.7c-.69.15-1.46.23-2.3.23-.87 0-1.69-.12-2.45-.35a5.34 5.34 0 01-3.34-2.93 6.64 6.64 0 01-.49-2.64c0-.88.25-1.72.73-2.53a6.33 6.33 0 012.35-2.17c1.09-.63 2.5-1.15 4.25-1.54 1.75-.41 3.89-.65 6.42-.7v-1.75c0-1.73-.37-3.03-1.12-3.91-.75-.9-1.84-1.34-3.28-1.34-.97 0-1.78.12-2.44.37-.64.23-1.2.5-1.7.81l-1.23.82c-.33.23-.67.35-1 .35-.27 0-.5-.07-.69-.2a2.1 2.1 0 01-.48-.53l-.7-1.25zm27.67 19.5c-1.76 0-3.12-.5-4.07-1.48-.94-.98-1.41-2.4-1.41-4.25V74h-2.68a.9.9 0 01-.6-.2c-.16-.14-.24-.36-.24-.66v-1.56l3.65-.46.9-6.89c.05-.22.14-.4.29-.52a.88.88 0 01.62-.22H142v7.67h6.44V74h-6.44v13.38c0 .94.22 1.63.68 2.09.45.45 1.04.68 1.76.68a3.21 3.21 0 001.85-.53l.55-.35c.16-.12.3-.18.41-.18.2 0 .4.13.55.38l1.15 1.87a7.45 7.45 0 01-2.44 1.5c-.96.35-1.94.52-2.95.52zm19.68-10.4c-1.8.07-3.34.21-4.62.45-1.26.22-2.3.51-3.1.88-.8.36-1.37.8-1.74 1.3-.35.5-.53 1.05-.53 1.67 0 .58.1 1.1.3 1.52.18.42.44.77.76 1.05.34.27.73.46 1.17.6.45.11.94.17 1.45.17a7.3 7.3 0 003.5-.81 12.04 12.04 0 002.82-2.2v-4.62zm-12.65-9.1a12.72 12.72 0 013.99-2.66c1.42-.59 3-.88 4.72-.88 1.25 0 2.36.2 3.33.61a6.81 6.81 0 013.94 4.38c.33 1.04.5 2.19.5 3.43V93h-1.74a1.8 1.8 0 01-.88-.18c-.2-.13-.36-.38-.48-.74l-.44-2.12c-.59.55-1.16 1.03-1.72 1.46a9.48 9.48 0 01-3.74 1.7c-.69.15-1.46.23-2.3.23-.87 0-1.69-.12-2.45-.35a5.33 5.33 0 01-3.34-2.93 6.62 6.62 0 01-.49-2.64c0-.88.25-1.72.73-2.53a6.33 6.33 0 012.35-2.17c1.09-.63 2.5-1.15 4.25-1.54 1.74-.41 3.89-.65 6.42-.7v-1.75c0-1.73-.37-3.03-1.12-3.91-.75-.9-1.84-1.34-3.28-1.34-.97 0-1.78.12-2.44.37-.64.23-1.2.5-1.7.81-.46.3-.87.57-1.22.82-.34.23-.68.35-1.02.35-.26 0-.49-.07-.68-.2-.19-.14-.35-.32-.48-.53l-.7-1.25z"
    fill="#fff"
  />
  <path fill="#D42B21" d="M0 106.79h210V120H0z" />
</g>
<defs>
  <clipPath id="clip0"><path fill="#fff" d="M0 0h210v120H0z" /></clipPath>
</defs>
</svg></g><a href="https://ourworldindata.org/coronavirus-data-explorer?zoomToSelection=true&amp;time=2020-03-10..latest&amp;country=BRA~EuropeanUnion~IND~RUS~USA~CHN&amp;region=World&amp;casesMetric=true&amp;interval=smoothed&amp;smoothing=7&amp;pickerMetric=location&amp;pickerSort=asc" style="font-family:&quot;Playfair Display&quot;, Georgia, &quot;Times New Roman&quot;, serif" target="_blank" rel="noopener"><text font-size="25.20" x="15.0" y="35.2" fill="#555"><tspan x="15" y="35.160000000000004">Daily new confirmed COVID-19 cases</tspan></text></a><text font-size="14.40" x="15.0" y="55.7" fill="#666"><tspan x="15" y="55.72">Shown is the rolling 7-day average. The number of confirmed cases is lower than the number of actual cases; the</tspan><tspan x="15" y="73">main reason for that is limited testing.</tspan></text></g><g class="LineChart"><defs><clipPath id="boundsClip-2"><rect x="59.896" y="0" width="830" height="928.6"></rect></clipPath></defs><g class="DualAxisView"><g class="HorizontalAxis"><line x1="69.9" y1="535.3000000000001" x2="69.9" y2="539.3000000000001" stroke="#ccc"></line><line x1="216.6" y1="535.3000000000001" x2="216.6" y2="539.3000000000001" stroke="#ccc"></line><line x1="360.4" y1="535.3000000000001" x2="360.4" y2="539.3000000000001" stroke="#ccc"></line><line x1="504.3" y1="535.3000000000001" x2="504.3" y2="539.3000000000001" stroke="#ccc"></line><line x1="674" y1="535.3000000000001" x2="674" y2="539.3000000000001" stroke="#ccc"></line><text x="69.9" y="556.5" fill="#666" text-anchor="middle" font-size="16.2">Mar 10, 2020</text><text x="216.6" y="556.5" fill="#666" text-anchor="middle" font-size="16.2">Apr 30</text><text x="360.4" y="556.5" fill="#666" text-anchor="middle" font-size="16.2">Jun 19</text><text x="504.3" y="556.5" fill="#666" text-anchor="middle" font-size="16.2">Aug 8</text><text x="674" y="556.5" fill="#666" text-anchor="middle" font-size="16.2">Oct 6, 2020</text></g><g class="VerticalAxis"><text x="64.90" y="535.3" fill="#666" dominant-baseline="middle" text-anchor="end" font-size="16.2">0</text><text x="64.90" y="440.2" fill="#666" dominant-baseline="middle" text-anchor="end" font-size="16.2">20,000</text><text x="64.90" y="345.1" fill="#666" dominant-baseline="middle" text-anchor="end" font-size="16.2">40,000</text><text x="64.90" y="250" fill="#666" dominant-baseline="middle" text-anchor="end" font-size="16.2">60,000</text><text x="64.90" y="155" fill="#666" dominant-baseline="middle" text-anchor="end" font-size="16.2">80,000</text></g><g class="AxisGridLines horizontalLines"><line x1="69.90" y1="535.3" x2="674.00" y2="535.3" stroke="#ccc"></line><line x1="69.90" y1="440.2" x2="674.00" y2="440.2" stroke="#d3d3d3" stroke-dasharray="3,2"></line><line x1="69.90" y1="345.1" x2="674.00" y2="345.1" stroke="#d3d3d3" stroke-dasharray="3,2"></line><line x1="69.90" y1="250" x2="674.00" y2="250" stroke="#d3d3d3" stroke-dasharray="3,2"></line><line x1="69.90" y1="155" x2="674.00" y2="155" stroke="#d3d3d3" stroke-dasharray="3,2"></line></g></g><g clip-path="url(#boundsClip-2)"><g class="LineLabels" style="cursor:default"><g class="legendMark"><rect x="674.0045" y="161.95" width="64.43" height="13.5" fill="#fff" opacity="0"></rect><text font-size="13.50" x="678.0" y="172.8" fill="#00847E"><tspan x="678.0045" y="172.75">India</tspan></text></g><g class="legendMark"><rect x="674.0045" y="302.075" width="116.405" height="13.5" fill="#fff" opacity="0"></rect><text font-size="13.50" x="678.0" y="312.9" fill="#CF0A66"><tspan x="678.0045" y="312.875">United States</tspan></text></g><g class="legendMark"><rect x="674.0045" y="317.575" width="160.9955" height="65.4" fill="#fff" opacity="0"></rect><text font-size="13.50" x="678.0" y="328.4" fill="#B13507"><tspan x="678.0045" y="328.375">European Union</tspan></text><text font-size="12.15" x="678.0" y="340.8" fill="#333" class="textAnnotation" style="font-weight:lighter"><tspan x="678.0045" y="340.79499999999996">Some EU countries</tspan><tspan x="678.0045" y="354.15999999999997">changed methodology.</tspan><tspan x="678.0045" y="367.525">See country-by-country</tspan><tspan x="678.0045" y="380.89">series.</tspan></text></g><g class="legendMark"><rect x="674.0045" y="405.05" width="68.75" height="13.5" fill="#fff" opacity="0"></rect><text font-size="13.50" x="678.0" y="415.9" fill="#3C4E66"><tspan x="678.0045" y="415.85">Brazil</tspan></text></g><g class="legendMark"><rect x="674.0045" y="483.55" width="76.31" height="13.5" fill="#fff" opacity="0"></rect><text font-size="13.50" x="678.0" y="494.4" fill="#6D3E91"><tspan x="678.0045" y="494.35">Russia</tspan></text></g><g class="legendMark"><rect x="674.0045" y="521.8000000000001" width="70.37" height="13.5" fill="#fff" opacity="0"></rect><text font-size="13.50" x="678.0" y="532.6" fill="#883039"><tspan x="678.0045" y="532.6">China</tspan></text></g></g><g class="Lines"><rect x="70" y="92" width="604" height="443" fill="rgba(255,255,255,0)" opacity="0"></rect><g class="key-Brazil_0"><path stroke="#3C4E66" stroke-linecap="round" d="M70 535L73 535L76 535L79 535L81 535L84 535L87 535L90 535L93 535L96 535L99 535L102 535L104 535L107 534L110 534L113 534L116 534L119 534L122 534L125 533L127 534L130 534L133 533L136 532L139 532L142 532L145 531L148 531L150 530L153 530L156 529L159 529L162 528L165 528L168 528L171 528L174 528L176 527L179 527L182 526L185 525L188 524L191 524L194 523L197 524L199 522L202 522L205 520L208 520L211 518L214 516L217 513L220 511L222 509L225 510L228 509L231 507L234 506L237 503L240 502L243 499L245 495L248 494L251 494L254 493L257 492L260 489L263 486L266 483L268 482L271 477L274 471L277 466L280 463L283 459L286 458L289 452L291 453L294 454L297 454L300 448L303 444L306 433L309 432L312 432L314 424L317 418L320 415L323 413L326 417L329 415L332 412L335 410L337 407L340 408L343 411L346 415L349 416L352 413L355 411L358 411L360 416L363 397L366 388L369 388L372 387L375 384L378 377L381 366L384 371L386 368L389 359L392 358L395 361L398 359L401 353L404 356L407 356L409 359L412 362L415 354L418 356L421 359L424 358L427 357L430 358L432 358L435 360L438 363L441 361L444 369L447 376L450 377L453 377L455 377L458 358L461 348L464 334L467 318L470 318L473 315L476 316L478 315L481 316L484 319L487 323L490 322L493 326L496 319L499 327L501 330L504 332L507 329L510 330L513 327L516 326L519 328L522 323L524 323L527 328L530 328L533 330L536 333L539 337L542 347L545 361L547 355L550 355L553 357L556 357L559 358L562 359L565 350L568 356L570 361L573 342L576 345L579 345L582 345L585 340L588 347L591 348L594 373L596 392L599 399L602 402L605 407L608 404L611 404L614 401L617 386L619 385L622 388L625 391L628 391L631 390L634 391L637 393L640 396L642 398L645 403L648 406L651 408L654 408L657 409L660 409L663 407L665 406L668 407L671 411L674 412" fill="none" stroke-width="1.5"></path></g><g class="key-European-Union_0"><path stroke="#B13507" stroke-linecap="round" d="M70 526L73 525L76 522L79 518L81 515L84 511L87 507L90 503L93 497L96 492L99 482L102 473L104 466L107 459L110 449L113 440L116 431L119 423L122 416L125 411L127 408L130 406L133 401L136 399L139 402L142 403L145 403L148 407L150 410L153 415L156 418L159 418L162 421L165 425L168 427L171 432L174 433L176 438L179 442L182 447L185 452L188 455L191 456L194 460L197 462L199 466L202 468L205 470L208 472L211 475L214 480L217 484L220 487L222 491L225 494L228 497L231 499L234 499L237 499L240 500L243 500L245 499L248 500L251 501L254 502L257 506L260 507L263 508L266 511L268 511L271 512L274 513L277 513L280 514L283 514L286 515L289 515L291 515L294 516L297 517L300 515L303 515L306 514L309 514L312 515L314 516L317 516L320 518L323 519L326 519L329 519L332 518L335 517L337 517L340 517L343 517L346 517L349 517L352 517L355 517L358 516L360 516L363 516L366 516L369 516L372 516L375 515L378 516L381 516L384 515L386 515L389 516L392 515L395 515L398 516L401 515L404 517L407 517L409 517L412 517L415 518L418 518L421 517L424 517L427 517L430 516L432 516L435 515L438 515L441 514L444 514L447 514L450 511L453 510L455 509L458 507L461 505L464 505L467 504L470 502L473 501L476 500L478 499L481 497L484 497L487 496L490 495L493 491L496 490L499 487L501 486L504 484L507 483L510 483L513 483L516 482L519 478L522 476L524 475L527 473L530 465L533 467L536 465L539 464L542 460L545 459L547 458L550 454L553 451L556 449L559 446L562 445L565 442L568 440L570 437L573 436L576 434L579 433L582 430L585 428L588 425L591 421L594 418L596 415L599 411L602 406L605 404L608 401L611 399L614 396L617 390L619 386L622 380L625 375L628 371L631 363L634 361L637 358L640 354L642 351L645 347L648 344L651 342L654 342L657 341L660 339L663 336L665 335L668 330L671 335L674 335" fill="none" stroke-width="1.5"></path></g><g class="key-India_0"><path stroke="#00847E" stroke-linecap="round" d="M70 535L73 535L76 535L79 535L81 535L84 535L87 535L90 535L93 535L96 535L99 535L102 535L104 535L107 535L110 535L113 535L116 535L119 535L122 535L125 535L127 535L130 535L133 535L136 534L139 534L142 534L145 534L148 533L150 533L153 533L156 533L159 533L162 532L165 532L168 532L171 531L174 531L176 531L179 531L182 531L185 530L188 530L191 530L194 530L197 529L199 529L202 528L205 528L208 528L211 528L214 528L217 527L220 527L222 527L225 526L228 525L231 524L234 523L237 522L240 521L243 520L245 520L248 519L251 519L254 518L257 518L260 518L263 518L266 516L268 516L271 515L274 513L277 512L280 511L283 509L286 508L289 506L291 505L294 505L297 504L300 503L303 502L306 501L309 500L312 499L314 497L317 496L320 494L323 493L326 492L329 490L332 489L335 489L337 488L340 487L343 486L346 485L349 484L352 483L355 483L358 481L360 479L363 477L366 475L369 472L372 469L375 466L378 463L381 461L384 458L386 455L389 452L392 449L395 448L398 446L401 444L404 441L407 437L409 434L412 432L415 429L418 425L421 421L424 418L427 416L430 413L432 408L435 404L438 398L441 393L444 387L447 380L450 372L453 367L455 361L458 352L461 342L464 333L467 326L470 320L473 313L476 305L478 301L481 297L484 291L487 287L490 285L493 282L496 280L499 277L501 272L504 269L507 262L510 256L513 255L516 249L519 242L522 241L524 238L527 239L530 242L533 241L536 238L539 236L542 233L545 230L547 226L550 224L553 220L556 218L559 214L562 208L565 204L568 197L570 186L573 180L576 172L579 166L582 162L585 156L588 147L591 139L594 135L596 127L599 119L602 110L605 103L608 100L611 99L614 94L617 94L619 92L622 92L625 95L628 96L631 100L634 106L637 110L640 118L642 125L645 131L648 133L651 137L654 140L657 142L660 141L663 144L665 148L668 157L671 162L674 169" fill="none" stroke-width="1.5"></path></g><g class="key-Russia_0"><path stroke="#6D3E91" stroke-linecap="round" d="M70 535L73 535L76 535L79 535L81 535L84 535L87 535L90 535L93 535L96 535L99 535L102 535L104 535L107 535L110 535L113 535L116 535L119 535L122 535L125 535L127 535L130 534L133 534L136 534L139 534L142 533L145 533L148 533L150 532L153 532L156 531L159 531L162 530L165 529L168 528L171 527L174 526L176 525L179 523L182 522L185 520L188 517L191 516L194 514L197 513L199 512L202 510L205 510L208 509L211 508L214 508L217 507L220 506L222 504L225 502L228 499L231 496L234 493L237 490L240 487L243 485L245 485L248 484L251 484L254 483L257 483L260 484L263 484L266 486L268 486L271 488L274 489L277 490L280 491L283 492L286 492L289 493L291 493L294 493L297 493L300 494L303 494L306 494L309 494L312 494L314 494L317 494L320 493L323 493L326 493L329 493L332 493L335 494L337 494L340 494L343 494L346 494L349 494L352 494L355 494L358 495L360 496L363 496L366 497L369 498L372 498L375 499L378 499L381 499L384 500L386 501L389 502L392 502L395 503L398 503L401 503L404 503L407 504L409 504L412 504L415 504L418 504L421 504L424 504L427 504L430 504L432 504L435 504L438 504L441 504L444 505L447 505L450 505L453 506L455 506L458 506L461 507L464 507L467 507L470 508L473 508L476 508L478 508L481 509L484 509L487 509L490 509L493 509L496 510L499 509L501 510L504 510L507 510L510 510L513 511L516 511L519 511L522 511L524 511L527 511L530 511L533 512L536 512L539 512L542 512L545 512L547 512L550 512L553 512L556 512L559 513L562 513L565 513L568 513L570 513L573 512L576 512L579 512L582 512L585 512L588 512L591 511L594 511L596 511L599 511L602 511L605 510L608 510L611 510L614 510L617 509L619 509L622 509L625 509L628 508L631 508L634 507L637 507L640 506L642 506L645 505L648 504L651 503L654 501L657 500L660 499L663 497L665 496L668 494L671 492L674 490" fill="none" stroke-width="1.5"></path></g><g class="key-United-States_0"><path stroke="#CF0A66" stroke-linecap="round" d="M70 535L73 535L76 535L79 534L81 534L84 534L87 533L90 533L93 532L96 530L99 527L102 523L104 519L107 514L110 507L113 502L116 495L119 487L122 478L125 469L127 462L130 455L133 444L136 435L139 427L142 418L145 408L148 403L150 397L153 393L156 389L159 386L162 383L165 387L168 386L171 390L174 392L176 394L179 396L182 399L185 396L188 398L191 396L194 389L197 397L199 401L202 407L205 397L208 395L211 399L214 408L217 401L220 399L222 391L225 404L228 405L231 405L234 405L237 407L240 408L243 413L245 415L248 419L251 422L254 423L257 425L260 426L263 427L266 428L268 429L271 426L274 428L277 426L280 427L283 428L286 430L289 429L291 431L294 432L297 435L300 437L303 436L306 435L309 436L312 434L314 433L317 432L320 433L323 433L326 434L329 432L332 434L335 435L337 434L340 433L343 433L346 430L349 432L352 432L355 428L358 425L360 421L363 419L366 413L369 408L372 401L375 393L378 387L381 378L384 368L386 362L389 353L392 346L395 340L398 328L401 320L404 314L407 312L409 305L412 299L415 290L418 285L421 279L424 270L427 258L430 253L432 247L435 240L438 234L441 224L444 221L447 220L450 217L453 218L455 216L458 215L461 224L464 220L467 218L470 222L473 223L476 230L478 226L481 222L484 230L487 235L490 241L493 248L496 251L499 266L501 271L504 277L507 279L510 279L513 277L516 284L519 282L522 288L524 283L527 289L530 292L533 302L536 304L539 309L542 314L545 324L547 327L550 332L553 330L556 334L559 337L562 336L565 336L568 336L570 335L573 338L576 334L579 337L582 343L585 342L588 342L591 346L594 352L596 364L599 369L602 368L605 370L608 372L611 370L614 363L617 346L619 351L622 347L625 346L628 346L631 342L634 329L637 338L640 329L642 329L645 326L648 322L651 325L654 338L657 335L660 332L663 332L665 332L668 329L671 330L674 324" fill="none" stroke-width="1.5"></path></g><g class="key-China_0"><path stroke="#883039" stroke-linecap="round" d="M70 535L73 535L76 535L79 535L81 535L84 535L87 535L90 535L93 535L96 535L99 535L102 535L104 535L107 535L110 535L113 535L116 535L119 535L122 535L125 535L127 535L130 535L133 535L136 535L139 535L142 535L145 535L148 535L150 535L153 535L156 535L159 535L162 535L165 535L168 535L171 535L174 535L176 535L179 535L182 535L185 535L188 535L191 535L194 535L197 535L199 535L202 535L205 535L208 535L211 535L214 535L217 535L220 535L222 535L225 535L228 535L231 535L234 535L237 535L240 535L243 535L245 535L248 535L251 535L254 535L257 535L260 535L263 535L266 535L268 535L271 535L274 535L277 535L280 535L283 535L286 535L289 535L291 535L294 535L297 535L300 535L303 535L306 535L309 535L312 535L314 535L317 535L320 535L323 535L326 535L329 535L332 535L335 535L337 535L340 535L343 535L346 535L349 535L352 535L355 535L358 535L360 535L363 535L366 535L369 535L372 535L375 535L378 535L381 535L384 535L386 535L389 535L392 535L395 535L398 535L401 535L404 535L407 535L409 535L412 535L415 535L418 535L421 535L424 535L427 535L430 535L432 535L435 535L438 535L441 535L444 535L447 535L450 535L453 535L455 535L458 535L461 535L464 535L467 535L470 535L473 535L476 535L478 534L481 534L484 534L487 534L490 534L493 534L496 535L499 535L501 535L504 535L507 535L510 535L513 535L516 535L519 535L522 535L524 535L527 535L530 535L533 535L536 535L539 535L542 535L545 535L547 535L550 535L553 535L556 535L559 535L562 535L565 535L568 535L570 535L573 535L576 535L579 535L582 535L585 535L588 535L591 535L594 535L596 535L599 535L602 535L605 535L608 535L611 535L614 535L617 535L619 535L622 535L625 535L628 535L631 535L634 535L637 535L640 535L642 535L645 535L648 535L651 535L654 535L657 535L660 535L663 535L665 535L668 535L671 535L674 535" fill="none" stroke-width="1.5"></path></g></g></g></g><g class="SourcesFooter" style="fill:#777"><g class="clickable" style="fill:#777"><text font-size="12.60" x="15.0" y="581.6"><tspan x="15" y="581.58">Source: European CDC – Situation Update Worldwide – Last updated 6 October, 10:06 (London time)</tspan></text></g><text font-size="12.60" x="796.4" y="581.6"><tspan x="796.444" y="581.58"><a style="fill: #777;" class="cclogo" href="http://creativecommons.org/licenses/by/4.0/deed.en_US" target="_blank">CC BY</a></tspan></text></g></svg>