<svg xmlns="http://www.w3.org/2000/svg" version="1.1" style="font-family:&#x27;Segoe UI&#x27;,Candara,sans-serif;font-size:18px;background-color:white;text-rendering:optimizeLegibility;" viewBox="0 0 850 600"><g class="HeaderView"><g transform="translate(774, 15) scale(0.29)"><svg width="210" height="120" viewBox="0 0 210 120" fill="none" xmlns="http://www.w3.org/2000/svg">
<g clip-path="url(#clip0)">
  <path d="M0 0h210v107.89H0V0z" fill="#002147" />
  <path
    d="M40.98 32.25c0 2.36-.38 4.53-1.12 6.51a14.26 14.26 0 01-8.1 8.4c-1.9.78-4.02 1.17-6.34 1.17-2.31 0-4.42-.39-6.33-1.17a14.31 14.31 0 01-8.08-8.4 18.29 18.29 0 01-1.12-6.51c0-2.36.38-4.53 1.12-6.5.75-1.97 1.8-3.67 3.17-5.1 1.37-1.43 3-2.55 4.9-3.34 1.92-.8 4.03-1.19 6.34-1.19 2.32 0 4.43.4 6.34 1.19 1.92.8 3.56 1.9 4.93 3.34a14.87 14.87 0 013.17 5.1 18.1 18.1 0 011.12 6.5zm-4.38 0c0-1.94-.26-3.68-.8-5.22a10.91 10.91 0 00-2.24-3.89 9.68 9.68 0 00-3.52-2.46 11.95 11.95 0 00-4.62-.86c-1.68 0-3.21.28-4.6.86a9.88 9.88 0 00-3.54 2.46 10.91 10.91 0 00-2.24 3.9c-.53 1.53-.8 3.27-.8 5.2 0 1.94.27 3.68.8 5.22a11.17 11.17 0 002.24 3.9 10.01 10.01 0 003.55 2.44c1.38.56 2.9.83 4.6.83 1.7 0 3.24-.27 4.61-.83a9.8 9.8 0 003.52-2.44 11.17 11.17 0 002.25-3.9c.53-1.54.8-3.28.8-5.21zm26.22-6.54V48H60.5c-.56 0-.9-.27-1.05-.81l-.31-2.4a12.45 12.45 0 01-3.26 2.6c-1.2.64-2.58.96-4.13.96-1.22 0-2.3-.2-3.24-.6a6.52 6.52 0 01-2.33-1.7 7.37 7.37 0 01-1.43-2.67c-.3-1.04-.46-2.2-.46-3.45V25.7h3.91v14.22c0 1.68.38 2.99 1.15 3.91.77.93 1.96 1.39 3.54 1.39 1.16 0 2.24-.27 3.23-.82a10.42 10.42 0 002.8-2.28V25.7h3.91zm8.61 4.47a9.94 9.94 0 012.6-3.56 5.64 5.64 0 013.76-1.3c.47 0 .92.05 1.34.15.44.1.83.27 1.17.49L80 28.88c-.09.37-.3.55-.66.55-.2 0-.5-.04-.9-.13a6.21 6.21 0 00-3.24.18c-.54.2-1.03.5-1.47.92-.42.4-.81.9-1.17 1.5-.33.58-.64 1.26-.92 2.02V48h-3.94V25.71h2.25c.42 0 .72.08.88.25.16.16.27.44.33.83l.26 3.39zm61.16-13.7L122.75 48h-3.82l-7.99-24.05a21.95 21.95 0 01-.42-1.58 38.36 38.36 0 01-.44 1.58L102.05 48h-3.83L88.4 16.47h3.54c.38 0 .7.1.95.29.26.2.43.43.5.73l6.52 21.9c.1.4.2.83.28 1.28.1.46.2.94.29 1.46l.3-1.46c.12-.47.25-.9.38-1.27l7.41-21.91c.1-.25.26-.48.51-.69.27-.22.58-.33.95-.33h1.23c.38 0 .69.1.92.29.24.2.41.43.53.73l7.4 21.9a28.4 28.4 0 01.68 2.62 29.52 29.52 0 01.52-2.61l6.54-21.91c.07-.27.23-.5.48-.7.27-.21.58-.32.95-.32h3.32zm9.35 8.88c1.63 0 3.1.27 4.4.82a9.43 9.43 0 015.46 5.94c.5 1.4.74 2.98.74 4.73 0 1.76-.25 3.34-.74 4.75a9.43 9.43 0 01-5.46 5.92c-1.3.52-2.77.79-4.4.79-1.64 0-3.12-.27-4.44-.8a9.42 9.42 0 01-3.35-2.3c-.92-1-1.63-2.2-2.13-3.61-.49-1.41-.73-3-.73-4.75s.24-3.33.73-4.73c.5-1.43 1.2-2.64 2.13-3.63.93-1 2.04-1.77 3.35-2.31 1.32-.55 2.8-.82 4.44-.82zm0 19.89c2.2 0 3.84-.73 4.93-2.2 1.08-1.48 1.63-3.54 1.63-6.18 0-2.66-.55-4.72-1.63-6.2-1.09-1.49-2.73-2.23-4.93-2.23-1.12 0-2.09.2-2.93.57-.82.39-1.5.94-2.06 1.65-.55.72-.96 1.61-1.24 2.67-.26 1.04-.4 2.22-.4 3.54 0 2.64.55 4.7 1.64 6.18 1.1 1.47 2.76 2.2 4.99 2.2zm17.97-15.07a9.94 9.94 0 012.6-3.56 5.64 5.64 0 013.76-1.3c.47 0 .91.05 1.34.15.44.1.83.27 1.16.49l-.28 2.92c-.09.37-.31.55-.66.55-.2 0-.5-.04-.9-.13a6.2 6.2 0 00-3.24.18c-.54.2-1.03.5-1.47.92-.43.4-.82.9-1.17 1.5a13.1 13.1 0 00-.92 2.02V48h-3.94V25.71h2.24c.43 0 .72.08.88.25.17.16.28.44.33.83l.27 3.39zm15.04-14.59V48h-3.92V15.6h3.92zm19.55 15.43a6.22 6.22 0 00-2.38-2.05 6.7 6.7 0 00-2.86-.6c-2.07 0-3.66.75-4.77 2.23-1.12 1.48-1.68 3.6-1.68 6.33 0 1.46.13 2.7.38 3.74a7.29 7.29 0 001.1 2.56 4.35 4.35 0 001.78 1.45c.7.3 1.5.46 2.4.46 1.29 0 2.41-.3 3.36-.88a9.6 9.6 0 002.67-2.49V31.02zm3.91-15.43V48h-2.33c-.56 0-.9-.27-1.06-.81l-.35-2.71a12.13 12.13 0 01-3.25 2.77 8.28 8.28 0 01-4.23 1.06 7.31 7.31 0 01-6.14-2.9c-.73-.96-1.3-2.15-1.69-3.57a18.35 18.35 0 01.07-9.48 11.29 11.29 0 011.89-3.7 8.7 8.7 0 017.06-3.34 7.96 7.96 0 016.12 2.62V15.59h3.91zM46.61 70.71V93H42.7V70.71h3.91zm.84-7c0 .39-.08.75-.24 1.09-.15.32-.35.61-.62.88-.25.25-.55.44-.9.59a2.67 2.67 0 01-2.16 0 2.9 2.9 0 01-1.45-1.47 2.67 2.67 0 010-2.16c.15-.35.35-.65.6-.9.25-.27.53-.47.85-.62a2.67 2.67 0 012.16 0c.35.15.65.35.9.62.27.25.47.55.62.9.16.34.24.7.24 1.08zm7.97 10.24c.49-.54 1-1.04 1.54-1.48a9.85 9.85 0 013.66-1.84 8.96 8.96 0 015.43.35c.94.4 1.72.97 2.33 1.71.63.74 1.11 1.62 1.43 2.67.32 1.04.49 2.19.49 3.45V93h-3.94V78.81c0-1.69-.4-3-1.17-3.92-.76-.93-1.93-1.4-3.5-1.4-1.15 0-2.24.27-3.25.83-1 .56-1.92 1.31-2.77 2.27V93h-3.94V70.71h2.35c.56 0 .9.28 1.04.82l.3 2.42zm57.7 3.3c0 2.36-.37 4.5-1.11 6.44a14.3 14.3 0 01-3.17 4.98c-1.37 1.37-3 2.45-4.93 3.2-1.9.76-4.02 1.13-6.33 1.13H85.8V61.47h11.77c2.31 0 4.42.39 6.33 1.15a13.8 13.8 0 018.1 8.18 17.75 17.75 0 011.12 6.45zm-4.37 0c0-1.94-.26-3.67-.8-5.2a10.94 10.94 0 00-2.23-3.87 9.57 9.57 0 00-3.53-2.42 12.23 12.23 0 00-4.61-.83h-7.5v24.62h7.5c1.7 0 3.24-.28 4.61-.84a9.7 9.7 0 003.53-2.4 10.94 10.94 0 002.24-3.87c.53-1.53.8-3.26.8-5.2zm19.8 5.72c-1.8.06-3.34.2-4.62.44-1.26.22-2.3.51-3.1.88-.8.36-1.37.8-1.74 1.3-.35.5-.53 1.05-.53 1.67 0 .58.1 1.1.3 1.52a3 3 0 00.76 1.05c.34.27.73.46 1.17.6.45.11.94.17 1.45.17a7.28 7.28 0 003.5-.81 11.95 11.95 0 002.82-2.2v-4.62zm-12.65-9.11a12.73 12.73 0 013.98-2.66c1.43-.59 3-.88 4.73-.88 1.25 0 2.36.2 3.33.61a6.81 6.81 0 013.94 4.38c.33 1.04.5 2.19.5 3.43V93h-1.74a1.8 1.8 0 01-.88-.18c-.2-.13-.36-.38-.48-.74l-.44-2.12c-.59.55-1.16 1.03-1.72 1.46a9.48 9.48 0 01-3.74 1.7c-.69.15-1.46.23-2.3.23-.87 0-1.69-.12-2.45-.35a5.34 5.34 0 01-3.34-2.93 6.64 6.64 0 01-.49-2.64c0-.88.25-1.72.73-2.53a6.33 6.33 0 012.35-2.17c1.09-.63 2.5-1.15 4.25-1.54 1.75-.41 3.89-.65 6.42-.7v-1.75c0-1.73-.37-3.03-1.12-3.91-.75-.9-1.84-1.34-3.28-1.34-.97 0-1.78.12-2.44.37-.64.23-1.2.5-1.7.81l-1.23.82c-.33.23-.67.35-1 .35-.27 0-.5-.07-.69-.2a2.1 2.1 0 01-.48-.53l-.7-1.25zm27.67 19.5c-1.76 0-3.12-.5-4.07-1.48-.94-.98-1.41-2.4-1.41-4.25V74h-2.68a.9.9 0 01-.6-.2c-.16-.14-.24-.36-.24-.66v-1.56l3.65-.46.9-6.89c.05-.22.14-.4.29-.52a.88.88 0 01.62-.22H142v7.67h6.44V74h-6.44v13.38c0 .94.22 1.63.68 2.09.45.45 1.04.68 1.76.68a3.21 3.21 0 001.85-.53l.55-.35c.16-.12.3-.18.41-.18.2 0 .4.13.55.38l1.15 1.87a7.45 7.45 0 01-2.44 1.5c-.96.35-1.94.52-2.95.52zm19.68-10.4c-1.8.07-3.34.21-4.62.45-1.26.22-2.3.51-3.1.88-.8.36-1.37.8-1.74 1.3-.35.5-.53 1.05-.53 1.67 0 .58.1 1.1.3 1.52.18.42.44.77.76 1.05.34.27.73.46 1.17.6.45.11.94.17 1.45.17a7.3 7.3 0 003.5-.81 12.04 12.04 0 002.82-2.2v-4.62zm-12.65-9.1a12.72 12.72 0 013.99-2.66c1.42-.59 3-.88 4.72-.88 1.25 0 2.36.2 3.33.61a6.81 6.81 0 013.94 4.38c.33 1.04.5 2.19.5 3.43V93h-1.74a1.8 1.8 0 01-.88-.18c-.2-.13-.36-.38-.48-.74l-.44-2.12c-.59.55-1.16 1.03-1.72 1.46a9.48 9.48 0 01-3.74 1.7c-.69.15-1.46.23-2.3.23-.87 0-1.69-.12-2.45-.35a5.33 5.33 0 01-3.34-2.93 6.62 6.62 0 01-.49-2.64c0-.88.25-1.72.73-2.53a6.33 6.33 0 012.35-2.17c1.09-.63 2.5-1.15 4.25-1.54 1.74-.41 3.89-.65 6.42-.7v-1.75c0-1.73-.37-3.03-1.12-3.91-.75-.9-1.84-1.34-3.28-1.34-.97 0-1.78.12-2.44.37-.64.23-1.2.5-1.7.81-.46.3-.87.57-1.22.82-.34.23-.68.35-1.02.35-.26 0-.49-.07-.68-.2-.19-.14-.35-.32-.48-.53l-.7-1.25z"
    fill="#fff"
  />
  <path fill="#D42B21" d="M0 106.79h210V120H0z" />
</g>
<defs>
  <clipPath id="clip0"><path fill="#fff" d="M0 0h210v120H0z" /></clipPath>
</defs>
</svg></g><a href="https://ourworldindata.org/coronavirus-data-explorer?zoomToSelection=true&amp;time=2020-08-01..latest&amp;country=ITA~FRA~ROU~DEU~GBR~POL~ESP&amp;region=World&amp;casesMetric=true&amp;interval=smoothed&amp;smoothing=7&amp;pickerMetric=location&amp;pickerSort=asc" style="font-family:&quot;Playfair Display&quot;, Georgia, &quot;Times New Roman&quot;, serif" target="_blank" rel="noopener"><text font-size="25.20" x="15.0" y="35.2" fill="#555"><tspan x="15" y="35.160000000000004">Daily new confirmed COVID-19 cases</tspan></text></a><text font-size="14.40" x="15.0" y="55.7" fill="#666"><tspan x="15" y="55.72">Shown is the rolling 7-day average. The number of confirmed cases is lower than the number of actual cases; the</tspan><tspan x="15" y="73">main reason for that is limited testing.</tspan></text></g><g class="LineChart"><defs><clipPath id="boundsClip-6"><rect x="59.896" y="0" width="830" height="928.6"></rect></clipPath></defs><g class="DualAxisView"><g class="HorizontalAxis"><line x1="69.9" y1="535.3000000000001" x2="69.9" y2="539.3000000000001" stroke="#ccc"></line><line x1="217.4" y1="535.3000000000001" x2="217.4" y2="539.3000000000001" stroke="#ccc"></line><line x1="326.7" y1="535.3000000000001" x2="326.7" y2="539.3000000000001" stroke="#ccc"></line><line x1="435.9" y1="535.3000000000001" x2="435.9" y2="539.3000000000001" stroke="#ccc"></line><line x1="545.2" y1="535.3000000000001" x2="545.2" y2="539.3000000000001" stroke="#ccc"></line><line x1="703.6" y1="535.3000000000001" x2="703.6" y2="539.3000000000001" stroke="#ccc"></line><text x="69.9" y="556.5" fill="#666" text-anchor="middle" font-size="16.2">Aug 1, 2020</text><text x="217.4" y="556.5" fill="#666" text-anchor="middle" font-size="16.2">Aug 28</text><text x="326.7" y="556.5" fill="#666" text-anchor="middle" font-size="16.2">Sep 17</text><text x="435.9" y="556.5" fill="#666" text-anchor="middle" font-size="16.2">Oct 7</text><text x="545.2" y="556.5" fill="#666" text-anchor="middle" font-size="16.2">Oct 27</text><text x="703.6" y="556.5" fill="#666" text-anchor="middle" font-size="16.2">Nov 25, 2020</text></g><g class="VerticalAxis"><text x="64.90" y="535.3" fill="#666" dominant-baseline="middle" text-anchor="end" font-size="16.2">0</text><text x="64.90" y="454.5" fill="#666" dominant-baseline="middle" text-anchor="end" font-size="16.2">10,000</text><text x="64.90" y="373.8" fill="#666" dominant-baseline="middle" text-anchor="end" font-size="16.2">20,000</text><text x="64.90" y="293" fill="#666" dominant-baseline="middle" text-anchor="end" font-size="16.2">30,000</text><text x="64.90" y="212.3" fill="#666" dominant-baseline="middle" text-anchor="end" font-size="16.2">40,000</text><text x="64.90" y="131.5" fill="#666" dominant-baseline="middle" text-anchor="end" font-size="16.2">50,000</text></g><g class="AxisGridLines horizontalLines"><line x1="69.90" y1="535.3" x2="703.61" y2="535.3" stroke="#ccc"></line><line x1="69.90" y1="454.5" x2="703.61" y2="454.5" stroke="#d3d3d3" stroke-dasharray="3,2"></line><line x1="69.90" y1="373.8" x2="703.61" y2="373.8" stroke="#d3d3d3" stroke-dasharray="3,2"></line><line x1="69.90" y1="293" x2="703.61" y2="293" stroke="#d3d3d3" stroke-dasharray="3,2"></line><line x1="69.90" y1="212.3" x2="703.61" y2="212.3" stroke="#d3d3d3" stroke-dasharray="3,2"></line><line x1="69.90" y1="131.5" x2="703.61" y2="131.5" stroke="#d3d3d3" stroke-dasharray="3,2"></line></g></g><g clip-path="url(#boundsClip-6)"><g class="LineLabels" style="cursor:default"><g class="legendMark"><g class="indicator"><path d="M707.61,285 H721.11 V285 H734.61" stroke="#999" stroke-width="0.5" fill="none"></path></g><rect x="703.61" y="278.25" width="59.84" height="13.5" fill="#fff" opacity="0"></rect><text font-size="13.50" x="738.6" y="289.1" fill="#3C4E66"><tspan x="738.61" y="289.05">Italy</tspan></text></g><g class="legendMark"><g class="indicator"><path d="M707.61,355.2 H721.11 V355.2 H734.61" stroke="#999" stroke-width="0.5" fill="none"></path></g><rect x="703.61" y="348.45" width="77.255" height="13.5" fill="#fff" opacity="0"></rect><text font-size="13.50" x="738.6" y="359.3" fill="#883039"><tspan x="738.61" y="359.25">Poland</tspan></text></g><g class="legendMark"><g class="indicator"><path d="M707.61,387.6 H725.61 V376.33333333333337 H734.61" stroke="#999" stroke-width="0.5" fill="none"></path></g><rect x="703.61" y="369.58333333333337" width="90.62" height="13.5" fill="#fff" opacity="0"></rect><text font-size="13.50" x="738.6" y="380.4" fill="#6D3E91"><tspan x="738.61" y="380.3833333333334">Germany</tspan></text></g><g class="legendMark"><g class="indicator"><path d="M707.61,387.6 H725.61 V391.83333333333337 H734.61" stroke="#999" stroke-width="0.5" fill="none"></path></g><rect x="703.61" y="385.08333333333337" width="131.39" height="13.5" fill="#fff" opacity="0"></rect><text font-size="13.50" x="738.6" y="395.9" fill="#CF0A66"><tspan x="738.61" y="395.8833333333334">United Kingdom</tspan></text></g><g class="legendMark"><g class="indicator"><path d="M707.61,400.3 H716.61 V407.33333333333337 H734.61" stroke="#999" stroke-width="0.5" fill="none"></path></g><rect x="703.61" y="400.58333333333337" width="77.12" height="13.5" fill="#fff" opacity="0"></rect><text font-size="13.50" x="738.6" y="411.4" fill="#B13507"><tspan x="738.61" y="411.3833333333334">France</tspan></text></g><g class="legendMark"><g class="indicator"><path d="M707.61,437.4 H721.11 V437.4 H734.61" stroke="#999" stroke-width="0.5" fill="none"></path></g><rect x="703.61" y="430.65" width="69.695" height="13.5" fill="#fff" opacity="0"></rect><text font-size="13.50" x="738.6" y="441.4" fill="#00823F"><tspan x="738.61" y="441.45">Spain</tspan></text></g><g class="legendMark"><g class="indicator"><path d="M707.61,469.4 H721.11 V469.4 H734.61" stroke="#999" stroke-width="0.5" fill="none"></path></g><rect x="703.61" y="462.65" width="89.135" height="13.5" fill="#fff" opacity="0"></rect><text font-size="13.50" x="738.6" y="473.4" fill="#00847E"><tspan x="738.61" y="473.45">Romania</tspan></text></g></g><g class="Lines"><rect x="70" y="92" width="634" height="443" fill="rgba(255,255,255,0)" opacity="0"></rect><g class="key-Italy_0"><path stroke="#3C4E66" stroke-linecap="round" d="M70 533L75 533L81 533L86 533L92 533L97 533L103 533L108 533L114 533L119 532L125 532L130 532L136 532L141 532L146 532L152 532L157 531L163 531L168 531L174 531L179 531L185 530L190 530L196 529L201 528L207 528L212 527L217 526L223 526L228 525L234 525L239 525L245 525L250 525L256 525L261 525L267 524L272 524L278 524L283 524L288 524L294 524L299 524L305 524L310 524L316 524L321 524L327 524L332 524L338 524L343 523L349 523L354 523L359 523L365 523L370 522L376 522L381 522L387 522L392 522L398 521L403 521L409 520L414 520L420 518L425 518L431 517L436 515L441 513L447 511L452 508L458 504L463 501L469 498L474 495L480 491L485 486L491 480L496 474L502 467L507 462L512 456L518 447L523 438L529 428L534 418L540 407L545 398L551 385L556 374L562 361L567 348L573 334L578 324L583 318L589 310L594 304L600 295L605 287L611 278L616 275L622 271L627 264L633 261L638 257L644 253L649 256L654 255L660 252L665 255L671 254L676 256L682 260L687 263L693 270L698 275L704 285" fill="none" stroke-width="1.5"></path></g><g class="key-France_0"><path stroke="#B13507" stroke-linecap="round" d="M70 527L75 527L81 527L86 526L92 526L97 525L103 525L108 524L114 524L119 524L125 522L130 522L136 521L141 520L146 519L152 515L157 512L163 517L168 516L174 514L179 512L185 510L190 509L196 507L201 506L207 504L212 502L217 501L223 498L228 496L234 495L239 494L245 492L250 490L256 489L261 487L267 483L272 481L278 480L283 478L288 476L294 473L299 473L305 471L310 470L316 468L321 467L327 465L332 464L338 460L343 457L349 452L354 454L359 451L365 447L370 441L376 438L381 437L387 438L392 438L398 440L403 440L409 443L414 447L420 444L425 442L431 441L436 438L441 432L447 427L452 417L458 406L463 402L469 398L474 395L480 391L485 376L491 371L496 364L502 348L507 343L512 334L518 330L523 317L529 297L534 282L540 257L545 241L551 226L556 215L562 208L567 200L573 214L578 218L583 188L589 185L594 180L600 168L605 155L611 92L616 105L622 142L627 158L633 164L638 192L644 235L649 298L654 311L660 323L665 296L671 305L676 319L682 320L687 336L693 353L698 358L704 400" fill="none" stroke-width="1.5"></path></g><g class="key-Romania_0"><path stroke="#00847E" stroke-linecap="round" d="M70 526L75 526L81 526L86 526L92 526L97 526L103 526L108 526L114 526L119 525L125 526L130 526L136 525L141 525L146 525L152 525L157 525L163 525L168 526L174 526L179 526L185 526L190 526L196 526L201 526L207 526L212 526L217 526L223 526L228 526L234 526L239 526L245 526L250 526L256 526L261 526L267 526L272 526L278 526L283 526L288 526L294 526L299 526L305 526L310 526L316 526L321 526L327 525L332 525L338 525L343 525L349 525L354 525L359 525L365 525L370 525L376 524L381 524L387 524L392 523L398 523L403 522L409 522L414 521L420 521L425 522L431 520L436 519L441 518L447 517L452 516L458 514L463 511L469 512L474 511L480 510L485 509L491 508L496 508L502 506L507 506L512 506L518 505L523 504L529 502L534 502L540 502L545 501L551 500L556 499L562 497L567 495L573 494L578 493L583 491L589 488L594 484L600 480L605 476L611 471L616 469L622 470L627 471L633 470L638 469L644 470L649 471L654 470L660 468L665 467L671 467L676 467L682 467L687 467L693 468L698 469L704 469" fill="none" stroke-width="1.5"></path></g><g class="key-Germany_0"><path stroke="#6D3E91" stroke-linecap="round" d="M70 530L75 530L81 530L86 530L92 529L97 529L103 529L108 529L114 528L119 529L125 528L130 528L136 527L141 527L146 527L152 527L157 526L163 526L168 526L174 525L179 525L185 525L190 524L196 524L201 524L207 524L212 525L217 524L223 525L228 525L234 525L239 525L245 526L250 526L256 526L261 526L267 526L272 526L278 525L283 525L288 525L294 525L299 524L305 524L310 524L316 524L321 524L327 523L332 523L338 522L343 522L349 522L354 521L359 521L365 521L370 521L376 521L381 521L387 520L392 520L398 520L403 520L409 519L414 519L420 518L425 518L431 517L436 516L441 514L447 512L452 509L458 508L463 507L469 505L474 502L480 499L485 496L491 493L496 490L502 488L507 485L512 482L518 477L523 472L529 464L534 458L540 453L545 448L551 439L556 433L562 424L567 419L573 416L578 412L583 407L589 405L594 401L600 398L605 393L611 390L616 389L622 389L627 388L633 385L638 383L644 384L649 383L654 386L660 387L665 388L671 387L676 387L682 387L687 388L693 388L698 389L704 388" fill="none" stroke-width="1.5"></path></g><g class="key-United-Kingdom_0"><path stroke="#CF0A66" stroke-linecap="round" d="M70 531L75 531L81 530L86 530L92 529L97 529L103 529L108 529L114 529L119 528L125 528L130 528L136 528L141 528L146 527L152 526L157 527L163 527L168 527L174 527L179 527L185 527L190 527L196 527L201 527L207 527L212 526L217 526L223 526L228 526L234 525L239 525L245 525L250 524L256 524L261 523L267 522L272 521L278 519L283 518L288 516L294 515L299 513L305 511L310 511L316 511L321 510L327 509L332 508L338 507L343 506L349 506L354 504L359 502L365 499L370 495L376 492L381 490L387 488L392 489L398 486L403 485L409 485L414 485L420 477L425 457L431 447L436 438L441 430L447 418L452 410L458 407L463 419L469 418L474 414L480 408L485 406L491 404L496 403L502 398L507 393L512 388L518 380L523 377L529 372L534 364L540 361L545 358L551 356L556 359L562 357L567 352L573 353L578 349L583 352L589 355L594 354L600 353L605 355L611 351L616 354L622 351L627 351L633 353L638 343L644 338L649 336L654 331L660 331L665 331L671 335L676 347L682 355L687 363L693 371L698 378L704 388" fill="none" stroke-width="1.5"></path></g><g class="key-Poland_0"><path stroke="#883039" stroke-linecap="round" d="M70 531L75 531L81 531L86 531L92 530L97 530L103 530L108 530L114 530L119 530L125 530L130 530L136 530L141 530L146 530L152 530L157 530L163 530L168 530L174 530L179 530L185 530L190 529L196 529L201 530L207 529L212 529L217 529L223 529L228 530L234 529L239 530L245 530L250 530L256 530L261 530L267 531L272 531L278 531L283 531L288 531L294 532L299 532L305 532L310 532L316 531L321 531L327 531L332 531L338 530L343 530L349 529L354 529L359 529L365 528L370 528L376 527L381 527L387 526L392 525L398 525L403 524L409 523L414 522L420 521L425 523L431 520L436 519L441 517L447 514L452 512L458 508L463 503L469 503L474 500L480 496L485 491L491 488L496 483L502 478L507 474L512 469L518 465L523 461L529 454L534 449L540 445L545 442L551 434L556 424L562 415L567 406L573 396L578 390L583 384L589 380L594 373L600 365L605 359L611 352L616 343L622 336L627 329L633 329L638 334L644 337L649 340L654 343L660 344L665 352L671 358L676 356L682 358L687 360L693 364L698 371L704 355" fill="none" stroke-width="1.5"></path></g><g class="key-Spain_0"><path stroke="#00823F" stroke-linecap="round" d="M70 517L75 517L81 514L86 510L92 509L97 507L103 506L108 506L114 506L119 505L125 508L130 508L136 504L141 503L146 503L152 503L157 494L163 492L168 488L174 489L179 485L185 485L190 485L196 482L201 480L207 479L212 476L217 474L223 474L228 474L234 469L239 468L245 466L250 467L256 466L261 466L267 466L272 463L278 462L283 462L288 460L294 458L299 458L305 458L310 457L316 456L321 453L327 453L332 450L338 450L343 450L349 446L354 444L359 444L365 445L370 447L376 447L381 447L387 447L392 448L398 448L403 450L409 451L414 451L420 451L425 460L431 458L436 458L441 455L447 453L452 453L458 453L463 448L469 454L474 452L480 451L485 448L491 448L496 448L502 437L507 429L512 423L518 414L523 409L529 409L534 409L540 392L545 387L551 384L556 381L562 374L567 374L573 374L578 371L583 371L589 365L594 367L600 370L605 370L611 370L616 373L622 375L627 382L633 384L638 386L644 386L649 386L654 402L660 407L665 411L671 415L676 422L682 422L687 422L693 436L698 437" fill="none" stroke-width="1.5"></path></g></g></g></g><g class="SourcesFooter" style="fill:#777"><g class="clickable" style="fill:#777"><text font-size="12.60" x="15.0" y="581.6"><tspan x="15" y="581.58">Source: European CDC – Situation Update Worldwide – Last updated 25 November, 10:06 (London time)</tspan></text></g><text font-size="12.60" x="796.4" y="581.6"><tspan x="796.444" y="581.58"><a style="fill: #777;" class="cclogo" href="http://creativecommons.org/licenses/by/4.0/deed.en_US" target="_blank">CC BY</a></tspan></text></g></svg>