<svg xmlns="http://www.w3.org/2000/svg" version="1.1" style="font-family:&#x27;Segoe UI&#x27;, &#x27;Avenir Next&#x27;, Candara, sans-serif;font-variant-numeric: tabular-nums;font-size:18px;background-color:white;" viewBox="0 0 850 600"><g class="HeaderView"><g transform="translate(774, 15) scale(0.29)"><svg width="210" height="120" viewBox="0 0 210 120" fill="none" xmlns="http://www.w3.org/2000/svg">
<g clip-path="url(#clip0)">
  <path d="M0 0h210v107.89H0V0z" fill="#002147" />
  <path
    d="M40.98 32.25c0 2.36-.38 4.53-1.12 6.51a14.26 14.26 0 01-8.1 8.4c-1.9.78-4.02 1.17-6.34 1.17-2.31 0-4.42-.39-6.33-1.17a14.31 14.31 0 01-8.08-8.4 18.29 18.29 0 01-1.12-6.51c0-2.36.38-4.53 1.12-6.5.75-1.97 1.8-3.67 3.17-5.1 1.37-1.43 3-2.55 4.9-3.34 1.92-.8 4.03-1.19 6.34-1.19 2.32 0 4.43.4 6.34 1.19 1.92.8 3.56 1.9 4.93 3.34a14.87 14.87 0 013.17 5.1 18.1 18.1 0 011.12 6.5zm-4.38 0c0-1.94-.26-3.68-.8-5.22a10.91 10.91 0 00-2.24-3.89 9.68 9.68 0 00-3.52-2.46 11.95 11.95 0 00-4.62-.86c-1.68 0-3.21.28-4.6.86a9.88 9.88 0 00-3.54 2.46 10.91 10.91 0 00-2.24 3.9c-.53 1.53-.8 3.27-.8 5.2 0 1.94.27 3.68.8 5.22a11.17 11.17 0 002.24 3.9 10.01 10.01 0 003.55 2.44c1.38.56 2.9.83 4.6.83 1.7 0 3.24-.27 4.61-.83a9.8 9.8 0 003.52-2.44 11.17 11.17 0 002.25-3.9c.53-1.54.8-3.28.8-5.21zm26.22-6.54V48H60.5c-.56 0-.9-.27-1.05-.81l-.31-2.4a12.45 12.45 0 01-3.26 2.6c-1.2.64-2.58.96-4.13.96-1.22 0-2.3-.2-3.24-.6a6.52 6.52 0 01-2.33-1.7 7.37 7.37 0 01-1.43-2.67c-.3-1.04-.46-2.2-.46-3.45V25.7h3.91v14.22c0 1.68.38 2.99 1.15 3.91.77.93 1.96 1.39 3.54 1.39 1.16 0 2.24-.27 3.23-.82a10.42 10.42 0 002.8-2.28V25.7h3.91zm8.61 4.47a9.94 9.94 0 012.6-3.56 5.64 5.64 0 013.76-1.3c.47 0 .92.05 1.34.15.44.1.83.27 1.17.49L80 28.88c-.09.37-.3.55-.66.55-.2 0-.5-.04-.9-.13a6.21 6.21 0 00-3.24.18c-.54.2-1.03.5-1.47.92-.42.4-.81.9-1.17 1.5-.33.58-.64 1.26-.92 2.02V48h-3.94V25.71h2.25c.42 0 .72.08.88.25.16.16.27.44.33.83l.26 3.39zm61.16-13.7L122.75 48h-3.82l-7.99-24.05a21.95 21.95 0 01-.42-1.58 38.36 38.36 0 01-.44 1.58L102.05 48h-3.83L88.4 16.47h3.54c.38 0 .7.1.95.29.26.2.43.43.5.73l6.52 21.9c.1.4.2.83.28 1.28.1.46.2.94.29 1.46l.3-1.46c.12-.47.25-.9.38-1.27l7.41-21.91c.1-.25.26-.48.51-.69.27-.22.58-.33.95-.33h1.23c.38 0 .69.1.92.29.24.2.41.43.53.73l7.4 21.9a28.4 28.4 0 01.68 2.62 29.52 29.52 0 01.52-2.61l6.54-21.91c.07-.27.23-.5.48-.7.27-.21.58-.32.95-.32h3.32zm9.35 8.88c1.63 0 3.1.27 4.4.82a9.43 9.43 0 015.46 5.94c.5 1.4.74 2.98.74 4.73 0 1.76-.25 3.34-.74 4.75a9.43 9.43 0 01-5.46 5.92c-1.3.52-2.77.79-4.4.79-1.64 0-3.12-.27-4.44-.8a9.42 9.42 0 01-3.35-2.3c-.92-1-1.63-2.2-2.13-3.61-.49-1.41-.73-3-.73-4.75s.24-3.33.73-4.73c.5-1.43 1.2-2.64 2.13-3.63.93-1 2.04-1.77 3.35-2.31 1.32-.55 2.8-.82 4.44-.82zm0 19.89c2.2 0 3.84-.73 4.93-2.2 1.08-1.48 1.63-3.54 1.63-6.18 0-2.66-.55-4.72-1.63-6.2-1.09-1.49-2.73-2.23-4.93-2.23-1.12 0-2.09.2-2.93.57-.82.39-1.5.94-2.06 1.65-.55.72-.96 1.61-1.24 2.67-.26 1.04-.4 2.22-.4 3.54 0 2.64.55 4.7 1.64 6.18 1.1 1.47 2.76 2.2 4.99 2.2zm17.97-15.07a9.94 9.94 0 012.6-3.56 5.64 5.64 0 013.76-1.3c.47 0 .91.05 1.34.15.44.1.83.27 1.16.49l-.28 2.92c-.09.37-.31.55-.66.55-.2 0-.5-.04-.9-.13a6.2 6.2 0 00-3.24.18c-.54.2-1.03.5-1.47.92-.43.4-.82.9-1.17 1.5a13.1 13.1 0 00-.92 2.02V48h-3.94V25.71h2.24c.43 0 .72.08.88.25.17.16.28.44.33.83l.27 3.39zm15.04-14.59V48h-3.92V15.6h3.92zm19.55 15.43a6.22 6.22 0 00-2.38-2.05 6.7 6.7 0 00-2.86-.6c-2.07 0-3.66.75-4.77 2.23-1.12 1.48-1.68 3.6-1.68 6.33 0 1.46.13 2.7.38 3.74a7.29 7.29 0 001.1 2.56 4.35 4.35 0 001.78 1.45c.7.3 1.5.46 2.4.46 1.29 0 2.41-.3 3.36-.88a9.6 9.6 0 002.67-2.49V31.02zm3.91-15.43V48h-2.33c-.56 0-.9-.27-1.06-.81l-.35-2.71a12.13 12.13 0 01-3.25 2.77 8.28 8.28 0 01-4.23 1.06 7.31 7.31 0 01-6.14-2.9c-.73-.96-1.3-2.15-1.69-3.57a18.35 18.35 0 01.07-9.48 11.29 11.29 0 011.89-3.7 8.7 8.7 0 017.06-3.34 7.96 7.96 0 016.12 2.62V15.59h3.91zM46.61 70.71V93H42.7V70.71h3.91zm.84-7c0 .39-.08.75-.24 1.09-.15.32-.35.61-.62.88-.25.25-.55.44-.9.59a2.67 2.67 0 01-2.16 0 2.9 2.9 0 01-1.45-1.47 2.67 2.67 0 010-2.16c.15-.35.35-.65.6-.9.25-.27.53-.47.85-.62a2.67 2.67 0 012.16 0c.35.15.65.35.9.62.27.25.47.55.62.9.16.34.24.7.24 1.08zm7.97 10.24c.49-.54 1-1.04 1.54-1.48a9.85 9.85 0 013.66-1.84 8.96 8.96 0 015.43.35c.94.4 1.72.97 2.33 1.71.63.74 1.11 1.62 1.43 2.67.32 1.04.49 2.19.49 3.45V93h-3.94V78.81c0-1.69-.4-3-1.17-3.92-.76-.93-1.93-1.4-3.5-1.4-1.15 0-2.24.27-3.25.83-1 .56-1.92 1.31-2.77 2.27V93h-3.94V70.71h2.35c.56 0 .9.28 1.04.82l.3 2.42zm57.7 3.3c0 2.36-.37 4.5-1.11 6.44a14.3 14.3 0 01-3.17 4.98c-1.37 1.37-3 2.45-4.93 3.2-1.9.76-4.02 1.13-6.33 1.13H85.8V61.47h11.77c2.31 0 4.42.39 6.33 1.15a13.8 13.8 0 018.1 8.18 17.75 17.75 0 011.12 6.45zm-4.37 0c0-1.94-.26-3.67-.8-5.2a10.94 10.94 0 00-2.23-3.87 9.57 9.57 0 00-3.53-2.42 12.23 12.23 0 00-4.61-.83h-7.5v24.62h7.5c1.7 0 3.24-.28 4.61-.84a9.7 9.7 0 003.53-2.4 10.94 10.94 0 002.24-3.87c.53-1.53.8-3.26.8-5.2zm19.8 5.72c-1.8.06-3.34.2-4.62.44-1.26.22-2.3.51-3.1.88-.8.36-1.37.8-1.74 1.3-.35.5-.53 1.05-.53 1.67 0 .58.1 1.1.3 1.52a3 3 0 00.76 1.05c.34.27.73.46 1.17.6.45.11.94.17 1.45.17a7.28 7.28 0 003.5-.81 11.95 11.95 0 002.82-2.2v-4.62zm-12.65-9.11a12.73 12.73 0 013.98-2.66c1.43-.59 3-.88 4.73-.88 1.25 0 2.36.2 3.33.61a6.81 6.81 0 013.94 4.38c.33 1.04.5 2.19.5 3.43V93h-1.74a1.8 1.8 0 01-.88-.18c-.2-.13-.36-.38-.48-.74l-.44-2.12c-.59.55-1.16 1.03-1.72 1.46a9.48 9.48 0 01-3.74 1.7c-.69.15-1.46.23-2.3.23-.87 0-1.69-.12-2.45-.35a5.34 5.34 0 01-3.34-2.93 6.64 6.64 0 01-.49-2.64c0-.88.25-1.72.73-2.53a6.33 6.33 0 012.35-2.17c1.09-.63 2.5-1.15 4.25-1.54 1.75-.41 3.89-.65 6.42-.7v-1.75c0-1.73-.37-3.03-1.12-3.91-.75-.9-1.84-1.34-3.28-1.34-.97 0-1.78.12-2.44.37-.64.23-1.2.5-1.7.81l-1.23.82c-.33.23-.67.35-1 .35-.27 0-.5-.07-.69-.2a2.1 2.1 0 01-.48-.53l-.7-1.25zm27.67 19.5c-1.76 0-3.12-.5-4.07-1.48-.94-.98-1.41-2.4-1.41-4.25V74h-2.68a.9.9 0 01-.6-.2c-.16-.14-.24-.36-.24-.66v-1.56l3.65-.46.9-6.89c.05-.22.14-.4.29-.52a.88.88 0 01.62-.22H142v7.67h6.44V74h-6.44v13.38c0 .94.22 1.63.68 2.09.45.45 1.04.68 1.76.68a3.21 3.21 0 001.85-.53l.55-.35c.16-.12.3-.18.41-.18.2 0 .4.13.55.38l1.15 1.87a7.45 7.45 0 01-2.44 1.5c-.96.35-1.94.52-2.95.52zm19.68-10.4c-1.8.07-3.34.21-4.62.45-1.26.22-2.3.51-3.1.88-.8.36-1.37.8-1.74 1.3-.35.5-.53 1.05-.53 1.67 0 .58.1 1.1.3 1.52.18.42.44.77.76 1.05.34.27.73.46 1.17.6.45.11.94.17 1.45.17a7.3 7.3 0 003.5-.81 12.04 12.04 0 002.82-2.2v-4.62zm-12.65-9.1a12.72 12.72 0 013.99-2.66c1.42-.59 3-.88 4.72-.88 1.25 0 2.36.2 3.33.61a6.81 6.81 0 013.94 4.38c.33 1.04.5 2.19.5 3.43V93h-1.74a1.8 1.8 0 01-.88-.18c-.2-.13-.36-.38-.48-.74l-.44-2.12c-.59.55-1.16 1.03-1.72 1.46a9.48 9.48 0 01-3.74 1.7c-.69.15-1.46.23-2.3.23-.87 0-1.69-.12-2.45-.35a5.33 5.33 0 01-3.34-2.93 6.62 6.62 0 01-.49-2.64c0-.88.25-1.72.73-2.53a6.33 6.33 0 012.35-2.17c1.09-.63 2.5-1.15 4.25-1.54 1.74-.41 3.89-.65 6.42-.7v-1.75c0-1.73-.37-3.03-1.12-3.91-.75-.9-1.84-1.34-3.28-1.34-.97 0-1.78.12-2.44.37-.64.23-1.2.5-1.7.81-.46.3-.87.57-1.22.82-.34.23-.68.35-1.02.35-.26 0-.49-.07-.68-.2-.19-.14-.35-.32-.48-.53l-.7-1.25z"
    fill="#fff"
  />
  <path fill="#D42B21" d="M0 106.79h210V120H0z" />
</g>
<defs>
  <clipPath id="clip0"><path fill="#fff" d="M0 0h210v120H0z" /></clipPath>
</defs>
</svg></g><a href="https://ourworldindata.org/coronavirus-data-explorer?zoomToSelection=true&amp;minPopulationFilter=1000000&amp;time=2020-03-10..&amp;country=IND~EuropeanUnion~USA~RUS~BRA~CHN&amp;casesMetric=true&amp;dailyFreq=true&amp;smoothing=7&amp;pickerMetric=population&amp;pickerSort=desc" style="font-family:&quot;Playfair Display&quot;, Georgia, &quot;Times New Roman&quot;, serif" target="_blank"><text font-size="25.20" x="15.0" y="35.2" fill="#555"><tspan x="15" y="35.160000000000004">Daily new confirmed COVID-19 cases</tspan></text></a><text font-size="14.40" x="15.0" y="55.7" fill="#666"><tspan x="15" y="55.72">Shown is the rolling 7-day average. The number of confirmed cases is lower than the number of actual cases; the</tspan><tspan x="15" y="73">main reason for that is limited testing.</tspan></text></g><g class="LineChart"><defs><clipPath id="boundsClip-2"><rect x="59.896" y="0" width="830" height="924.6"></rect></clipPath></defs><g class="AxisBoxView"><g class="HorizontalAxis"><line x1="69.9" y1="535.3000000000001" x2="69.9" y2="539.3000000000001" stroke="#ccc"></line><line x1="223.4" y1="535.3000000000001" x2="223.4" y2="539.3000000000001" stroke="#ccc"></line><line x1="322.4" y1="535.3000000000001" x2="322.4" y2="539.3000000000001" stroke="#ccc"></line><line x1="421.5" y1="535.3000000000001" x2="421.5" y2="539.3000000000001" stroke="#ccc"></line><line x1="520.5" y1="535.3000000000001" x2="520.5" y2="539.3000000000001" stroke="#ccc"></line><line x1="674" y1="535.3000000000001" x2="674" y2="539.3000000000001" stroke="#ccc"></line><text x="69.9" y="556.5" fill="#666" text-anchor="middle" font-size="16.2">Mar 10, 2020</text><text x="223.4" y="556.5" fill="#666" text-anchor="middle" font-size="16.2">Apr 10</text><text x="322.4" y="556.5" fill="#666" text-anchor="middle" font-size="16.2">Apr 30</text><text x="421.5" y="556.5" fill="#666" text-anchor="middle" font-size="16.2">May 20</text><text x="520.5" y="556.5" fill="#666" text-anchor="middle" font-size="16.2">Jun 9</text><text x="674" y="556.5" fill="#666" text-anchor="middle" font-size="16.2">Jul 10, 2020</text></g><g class="VerticalAxis"><text x="64.90" y="535.3" fill="#666" dominant-baseline="middle" text-anchor="end" font-size="16.2">0</text><text x="64.90" y="453.6" fill="#666" dominant-baseline="middle" text-anchor="end" font-size="16.2">10,000</text><text x="64.90" y="372" fill="#666" dominant-baseline="middle" text-anchor="end" font-size="16.2">20,000</text><text x="64.90" y="290.3" fill="#666" dominant-baseline="middle" text-anchor="end" font-size="16.2">30,000</text><text x="64.90" y="208.7" fill="#666" dominant-baseline="middle" text-anchor="end" font-size="16.2">40,000</text><text x="64.90" y="127" fill="#666" dominant-baseline="middle" text-anchor="end" font-size="16.2">50,000</text></g><g class="AxisGridLines horizontalLines"><line x1="69.90" y1="535.3" x2="674.00" y2="535.3" stroke="#ccc"></line><line x1="69.90" y1="453.6" x2="674.00" y2="453.6" stroke="#ddd" stroke-dasharray="3,2"></line><line x1="69.90" y1="372" x2="674.00" y2="372" stroke="#ddd" stroke-dasharray="3,2"></line><line x1="69.90" y1="290.3" x2="674.00" y2="290.3" stroke="#ddd" stroke-dasharray="3,2"></line><line x1="69.90" y1="208.7" x2="674.00" y2="208.7" stroke="#ddd" stroke-dasharray="3,2"></line><line x1="69.90" y1="127" x2="674.00" y2="127" stroke="#ddd" stroke-dasharray="3,2"></line></g></g><g clip-path="url(#boundsClip-2)"><g class="HeightedLegend" style="cursor:default"><g class="legendMark"><g class="indicator"><path d="M678.0045,94.2 H691.5045 V100.95 H705.0045" stroke="#999" stroke-width="0.5" fill="none"></path></g><rect x="674.0045" y="94.2" width="116.405" height="13.5" fill="#fff" opacity="0"></rect><text font-size="13.50" x="709.0" y="105.0" fill="#CF0A66"><tspan x="709.0045" y="105">United States</tspan></text></g><g class="legendMark"><g class="indicator"><path d="M678.0045,233.3 H691.5045 V233.3 H705.0045" stroke="#999" stroke-width="0.5" fill="none"></path></g><rect x="674.0045" y="226.55" width="68.75" height="13.5" fill="#fff" opacity="0"></rect><text font-size="13.50" x="709.0" y="237.4" fill="#3C4E66"><tspan x="709.0045" y="237.35000000000002">Brazil</tspan></text></g><g class="legendMark"><g class="indicator"><path d="M678.0045,339 H691.5045 V339 H705.0045" stroke="#999" stroke-width="0.5" fill="none"></path></g><rect x="674.0045" y="332.25" width="64.43" height="13.5" fill="#fff" opacity="0"></rect><text font-size="13.50" x="709.0" y="343.1" fill="#00847E"><tspan x="709.0045" y="343.05">India</tspan></text></g><g class="legendMark"><g class="indicator"><path d="M678.0045,481.5 H684.7545 V445.65000000000003 H705.0045" stroke="#999" stroke-width="0.5" fill="none"></path></g><rect x="674.0045" y="438.90000000000003" width="76.31" height="13.5" fill="#fff" opacity="0"></rect><text font-size="13.50" x="709.0" y="449.7" fill="#6D3E91"><tspan x="709.0045" y="449.70000000000005">Russia</tspan></text></g><g class="legendMark"><g class="indicator"><path d="M678.0045,504.4 H691.5045 V487.1 H705.0045" stroke="#999" stroke-width="0.5" fill="none"></path></g><rect x="674.0045" y="454.40000000000003" width="160.9955" height="65.4" fill="#fff" opacity="0"></rect><text font-size="13.50" x="709.0" y="465.2" fill="#883039"><tspan x="709.0045" y="465.20000000000005">European Union</tspan></text><text font-size="12.15" x="709.0" y="477.6" fill="#333" class="textAnnotation" style="font-weight:lighter"><tspan x="709.0045" y="477.62">Some EU countries</tspan><tspan x="709.0045" y="490.985">changed methodology.</tspan><tspan x="709.0045" y="504.35">See country-by-country</tspan><tspan x="709.0045" y="517.715">series.</tspan></text></g><g class="legendMark"><g class="indicator"><path d="M678.0045,535.1 H698.2545 V528.5500000000001 H705.0045" stroke="#999" stroke-width="0.5" fill="none"></path></g><rect x="674.0045" y="521.8000000000001" width="70.37" height="13.5" fill="#fff" opacity="0"></rect><text font-size="13.50" x="709.0" y="532.6" fill="#B13507"><tspan x="709.0045" y="532.6">China</tspan></text></g></g><g class="Lines"><rect x="70" y="94" width="604" height="441" fill="rgba(255,255,255,0)" opacity="0"></rect><g class="key-India_0"><path stroke="#00847E" stroke-linecap="round" d="M70 535L75 535L80 535L85 535L90 535L95 535L100 535L105 535L110 535L115 535L119 535L124 535L129 535L134 535L139 535L144 535L149 535L154 535L159 535L164 535L169 535L174 534L179 534L184 534L189 534L194 533L199 533L204 532L209 532L214 531L218 531L223 531L228 530L233 530L238 529L243 528L248 528L253 528L258 527L263 527L268 527L273 526L278 526L283 525L288 525L293 524L298 524L303 523L308 523L313 523L318 522L322 522L327 521L332 520L337 520L342 518L347 516L352 514L357 512L362 511L367 509L372 509L377 507L382 507L387 506L392 506L397 505L402 505L407 503L412 502L417 500L422 497L426 495L431 493L436 490L441 488L446 486L451 484L456 483L461 482L466 480L471 479L476 477L481 475L486 473L491 470L496 467L501 464L506 462L511 460L516 458L521 456L526 455L530 454L535 453L540 451L545 449L550 447L555 446L560 445L565 442L570 439L575 435L580 431L585 427L590 422L595 416L600 412L605 407L610 402L615 397L620 392L625 388L629 385L634 382L639 378L644 373L649 367L654 361L659 357L664 352L669 346L674 339" fill="none" stroke-width="1.5"></path></g><g class="key-European-Union_0"><path stroke="#883039" stroke-linecap="round" d="M70 520L75 517L80 513L85 506L90 500L95 493L100 487L105 479L110 469L115 460L119 444L124 429L129 416L134 404L139 386L144 372L149 356L154 343L159 331L164 322L169 316L174 314L179 305L184 302L189 307L194 308L199 309L204 314L209 319L214 329L218 334L223 334L228 340L233 346L238 349L243 357L248 359L253 367L258 375L263 384L268 393L273 397L278 399L283 407L288 410L293 417L298 420L303 423L308 427L313 432L318 440L322 447L327 454L332 460L337 465L342 469L347 473L352 474L357 473L362 473L367 475L372 473L377 475L382 477L387 478L392 485L397 487L402 489L407 493L412 494L417 496L422 497L426 498L431 499L436 499L441 500L446 502L451 501L456 503L461 503L466 501L471 501L476 499L481 499L486 500L491 502L496 502L501 505L506 505L511 506L516 506L521 505L526 503L530 504L535 504L540 504L545 503L550 504L555 504L560 504L565 502L570 502L575 503L580 504L585 505L590 502L595 501L600 501L605 502L610 498L615 499L620 500L625 499L629 500L634 500L639 499L644 502L649 502L654 501L659 502L664 503L669 504L674 504" fill="none" stroke-width="1.5"></path></g><g class="key-United-States_0"><path stroke="#CF0A66" stroke-linecap="round" d="M70 535L75 534L80 534L85 534L90 533L95 532L100 532L105 531L110 529L115 526L119 521L124 515L129 508L134 499L139 487L144 478L149 466L154 452L159 436L164 421L169 410L174 397L179 379L184 363L189 349L194 333L199 317L204 308L209 298L214 291L218 284L223 278L228 275L233 281L238 279L243 285L248 290L253 293L258 296L263 301L268 296L273 300L278 296L283 284L288 299L293 305L298 316L303 297L308 295L313 301L318 317L322 305L327 301L332 287L337 309L342 311L347 311L352 312L357 315L362 317L367 325L372 329L377 335L382 340L387 342L392 346L397 348L402 349L407 351L412 352L417 348L422 350L426 347L431 349L436 351L441 355L446 353L451 356L456 357L461 363L466 367L471 365L476 363L481 364L486 362L491 360L496 359L501 359L506 359L511 361L516 358L521 360L526 363L530 362L535 360L540 359L545 355L550 358L555 357L560 351L565 345L570 340L575 335L580 325L585 317L590 304L595 291L600 281L605 266L610 247L615 238L620 223L625 211L629 200L634 179L639 165L644 154L649 151L654 139L659 129L664 113L669 105L674 94" fill="none" stroke-width="1.5"></path></g><g class="key-Russia_0"><path stroke="#6D3E91" stroke-linecap="round" d="M70 535L75 535L80 535L85 535L90 535L95 535L100 535L105 535L110 535L115 535L119 535L124 535L129 535L134 535L139 535L144 535L149 535L154 535L159 534L164 534L169 534L174 534L179 533L184 533L189 532L194 532L199 531L204 531L209 530L214 529L218 528L223 528L228 526L233 525L238 523L243 521L248 519L253 517L258 515L263 512L268 508L273 504L278 502L283 498L288 496L293 495L298 493L303 491L308 491L313 489L318 488L322 487L327 484L332 482L337 478L342 473L347 468L352 463L357 458L362 453L367 450L372 448L377 448L382 447L387 446L392 446L397 448L402 448L407 450L412 451L417 454L422 456L426 458L431 459L436 461L441 461L446 462L451 462L456 463L461 463L466 464L471 464L476 465L481 464L486 464L491 464L496 463L501 463L506 463L511 463L516 463L521 463L526 464L530 464L535 464L540 464L545 464L550 464L555 465L560 465L565 466L570 467L575 468L580 469L585 470L590 471L595 472L600 473L605 474L610 475L615 476L620 477L625 478L629 479L634 480L639 480L644 480L649 481L654 481L659 481L664 481L669 481L674 482" fill="none" stroke-width="1.5"></path></g><g class="key-Brazil_0"><path stroke="#3C4E66" stroke-linecap="round" d="M70 535L75 535L80 535L85 535L90 535L95 535L100 535L105 535L110 535L115 535L119 535L124 534L129 534L134 534L139 533L144 533L149 533L154 533L159 532L164 532L169 532L174 532L179 531L184 530L189 530L194 529L199 528L204 527L209 527L214 526L218 525L223 524L228 523L233 523L238 522L243 522L248 522L253 521L258 521L263 519L268 517L273 516L278 515L283 515L288 515L293 513L298 513L303 510L308 508L313 505L318 502L322 498L327 493L332 490L337 491L342 490L347 487L352 485L357 480L362 477L367 473L372 466L377 464L382 465L387 462L392 461L397 456L402 450L407 445L412 444L417 435L422 426L426 416L431 410L436 404L441 402L446 393L451 395L456 396L461 395L466 386L471 379L476 359L481 358L486 359L491 344L496 334L501 329L506 325L511 332L516 329L521 324L526 321L530 316L535 316L540 322L545 328L550 330L555 324L560 321L565 322L570 331L575 297L580 282L585 282L590 281L595 276L600 263L605 244L610 253L615 248L620 233L625 230L629 237L634 232L639 222L644 227L649 228L654 233L659 238L664 224L669 227L674 233" fill="none" stroke-width="1.5"></path></g><g class="key-China_0"><path stroke="#B13507" stroke-linecap="round" d="M70 535L75 535L80 535L85 535L90 535L95 535L100 535L105 535L110 535L115 535L119 535L124 535L129 535L134 535L139 535L144 535L149 535L154 535L159 535L164 535L169 535L174 535L179 535L184 535L189 535L194 535L199 535L204 535L209 535L214 535L218 535L223 535L228 535L233 535L238 535L243 535L248 535L253 535L258 534L263 534L268 535L273 535L278 535L283 535L288 535L293 535L298 535L303 535L308 535L313 535L318 535L322 535L327 535L332 535L337 535L342 535L347 535L352 535L357 535L362 535L367 535L372 535L377 535L382 535L387 535L392 535L397 535L402 535L407 535L412 535L417 535L422 535L426 535L431 535L436 535L441 535L446 535L451 535L456 535L461 535L466 535L471 535L476 535L481 535L486 535L491 535L496 535L501 535L506 535L511 535L516 535L521 535L526 535L530 535L535 535L540 535L545 535L550 535L555 535L560 535L565 535L570 535L575 535L580 535L585 535L590 535L595 535L600 535L605 535L610 535L615 535L620 535L625 535L629 535L634 535L639 535L644 535L649 535L654 535L659 535L664 535L669 535L674 535" fill="none" stroke-width="1.5"></path></g></g></g></g><g class="SourcesFooter" style="fill:#777"><g class="clickable" style="fill:#777"><text font-size="12.60" x="15.0" y="581.6"><tspan x="15" y="581.58">Source: European CDC – Situation Update Worldwide - Data last updated 10th Jul, 12:32 (GMT+03:00)</tspan></text></g><text font-size="12.60" x="796.4" y="581.6"><tspan x="796.444" y="581.58"><a style="fill: #777;" class="cclogo" href="http://creativecommons.org/licenses/by/4.0/deed.en_US" target="_blank">CC BY</a></tspan></text></g></svg>