<svg xmlns="http://www.w3.org/2000/svg" version="1.1" style="font-family:&#x27;Segoe UI&#x27;,Candara,sans-serif;font-size:18px;background-color:white;text-rendering:optimizeLegibility;" viewBox="0 0 850 600"><g class="HeaderView"><g transform="translate(774, 15) scale(0.29)"><svg width="210" height="120" viewBox="0 0 210 120" fill="none" xmlns="http://www.w3.org/2000/svg">
<g clip-path="url(#clip0)">
  <path d="M0 0h210v107.89H0V0z" fill="#002147" />
  <path
    d="M40.98 32.25c0 2.36-.38 4.53-1.12 6.51a14.26 14.26 0 01-8.1 8.4c-1.9.78-4.02 1.17-6.34 1.17-2.31 0-4.42-.39-6.33-1.17a14.31 14.31 0 01-8.08-8.4 18.29 18.29 0 01-1.12-6.51c0-2.36.38-4.53 1.12-6.5.75-1.97 1.8-3.67 3.17-5.1 1.37-1.43 3-2.55 4.9-3.34 1.92-.8 4.03-1.19 6.34-1.19 2.32 0 4.43.4 6.34 1.19 1.92.8 3.56 1.9 4.93 3.34a14.87 14.87 0 013.17 5.1 18.1 18.1 0 011.12 6.5zm-4.38 0c0-1.94-.26-3.68-.8-5.22a10.91 10.91 0 00-2.24-3.89 9.68 9.68 0 00-3.52-2.46 11.95 11.95 0 00-4.62-.86c-1.68 0-3.21.28-4.6.86a9.88 9.88 0 00-3.54 2.46 10.91 10.91 0 00-2.24 3.9c-.53 1.53-.8 3.27-.8 5.2 0 1.94.27 3.68.8 5.22a11.17 11.17 0 002.24 3.9 10.01 10.01 0 003.55 2.44c1.38.56 2.9.83 4.6.83 1.7 0 3.24-.27 4.61-.83a9.8 9.8 0 003.52-2.44 11.17 11.17 0 002.25-3.9c.53-1.54.8-3.28.8-5.21zm26.22-6.54V48H60.5c-.56 0-.9-.27-1.05-.81l-.31-2.4a12.45 12.45 0 01-3.26 2.6c-1.2.64-2.58.96-4.13.96-1.22 0-2.3-.2-3.24-.6a6.52 6.52 0 01-2.33-1.7 7.37 7.37 0 01-1.43-2.67c-.3-1.04-.46-2.2-.46-3.45V25.7h3.91v14.22c0 1.68.38 2.99 1.15 3.91.77.93 1.96 1.39 3.54 1.39 1.16 0 2.24-.27 3.23-.82a10.42 10.42 0 002.8-2.28V25.7h3.91zm8.61 4.47a9.94 9.94 0 012.6-3.56 5.64 5.64 0 013.76-1.3c.47 0 .92.05 1.34.15.44.1.83.27 1.17.49L80 28.88c-.09.37-.3.55-.66.55-.2 0-.5-.04-.9-.13a6.21 6.21 0 00-3.24.18c-.54.2-1.03.5-1.47.92-.42.4-.81.9-1.17 1.5-.33.58-.64 1.26-.92 2.02V48h-3.94V25.71h2.25c.42 0 .72.08.88.25.16.16.27.44.33.83l.26 3.39zm61.16-13.7L122.75 48h-3.82l-7.99-24.05a21.95 21.95 0 01-.42-1.58 38.36 38.36 0 01-.44 1.58L102.05 48h-3.83L88.4 16.47h3.54c.38 0 .7.1.95.29.26.2.43.43.5.73l6.52 21.9c.1.4.2.83.28 1.28.1.46.2.94.29 1.46l.3-1.46c.12-.47.25-.9.38-1.27l7.41-21.91c.1-.25.26-.48.51-.69.27-.22.58-.33.95-.33h1.23c.38 0 .69.1.92.29.24.2.41.43.53.73l7.4 21.9a28.4 28.4 0 01.68 2.62 29.52 29.52 0 01.52-2.61l6.54-21.91c.07-.27.23-.5.48-.7.27-.21.58-.32.95-.32h3.32zm9.35 8.88c1.63 0 3.1.27 4.4.82a9.43 9.43 0 015.46 5.94c.5 1.4.74 2.98.74 4.73 0 1.76-.25 3.34-.74 4.75a9.43 9.43 0 01-5.46 5.92c-1.3.52-2.77.79-4.4.79-1.64 0-3.12-.27-4.44-.8a9.42 9.42 0 01-3.35-2.3c-.92-1-1.63-2.2-2.13-3.61-.49-1.41-.73-3-.73-4.75s.24-3.33.73-4.73c.5-1.43 1.2-2.64 2.13-3.63.93-1 2.04-1.77 3.35-2.31 1.32-.55 2.8-.82 4.44-.82zm0 19.89c2.2 0 3.84-.73 4.93-2.2 1.08-1.48 1.63-3.54 1.63-6.18 0-2.66-.55-4.72-1.63-6.2-1.09-1.49-2.73-2.23-4.93-2.23-1.12 0-2.09.2-2.93.57-.82.39-1.5.94-2.06 1.65-.55.72-.96 1.61-1.24 2.67-.26 1.04-.4 2.22-.4 3.54 0 2.64.55 4.7 1.64 6.18 1.1 1.47 2.76 2.2 4.99 2.2zm17.97-15.07a9.94 9.94 0 012.6-3.56 5.64 5.64 0 013.76-1.3c.47 0 .91.05 1.34.15.44.1.83.27 1.16.49l-.28 2.92c-.09.37-.31.55-.66.55-.2 0-.5-.04-.9-.13a6.2 6.2 0 00-3.24.18c-.54.2-1.03.5-1.47.92-.43.4-.82.9-1.17 1.5a13.1 13.1 0 00-.92 2.02V48h-3.94V25.71h2.24c.43 0 .72.08.88.25.17.16.28.44.33.83l.27 3.39zm15.04-14.59V48h-3.92V15.6h3.92zm19.55 15.43a6.22 6.22 0 00-2.38-2.05 6.7 6.7 0 00-2.86-.6c-2.07 0-3.66.75-4.77 2.23-1.12 1.48-1.68 3.6-1.68 6.33 0 1.46.13 2.7.38 3.74a7.29 7.29 0 001.1 2.56 4.35 4.35 0 001.78 1.45c.7.3 1.5.46 2.4.46 1.29 0 2.41-.3 3.36-.88a9.6 9.6 0 002.67-2.49V31.02zm3.91-15.43V48h-2.33c-.56 0-.9-.27-1.06-.81l-.35-2.71a12.13 12.13 0 01-3.25 2.77 8.28 8.28 0 01-4.23 1.06 7.31 7.31 0 01-6.14-2.9c-.73-.96-1.3-2.15-1.69-3.57a18.35 18.35 0 01.07-9.48 11.29 11.29 0 011.89-3.7 8.7 8.7 0 017.06-3.34 7.96 7.96 0 016.12 2.62V15.59h3.91zM46.61 70.71V93H42.7V70.71h3.91zm.84-7c0 .39-.08.75-.24 1.09-.15.32-.35.61-.62.88-.25.25-.55.44-.9.59a2.67 2.67 0 01-2.16 0 2.9 2.9 0 01-1.45-1.47 2.67 2.67 0 010-2.16c.15-.35.35-.65.6-.9.25-.27.53-.47.85-.62a2.67 2.67 0 012.16 0c.35.15.65.35.9.62.27.25.47.55.62.9.16.34.24.7.24 1.08zm7.97 10.24c.49-.54 1-1.04 1.54-1.48a9.85 9.85 0 013.66-1.84 8.96 8.96 0 015.43.35c.94.4 1.72.97 2.33 1.71.63.74 1.11 1.62 1.43 2.67.32 1.04.49 2.19.49 3.45V93h-3.94V78.81c0-1.69-.4-3-1.17-3.92-.76-.93-1.93-1.4-3.5-1.4-1.15 0-2.24.27-3.25.83-1 .56-1.92 1.31-2.77 2.27V93h-3.94V70.71h2.35c.56 0 .9.28 1.04.82l.3 2.42zm57.7 3.3c0 2.36-.37 4.5-1.11 6.44a14.3 14.3 0 01-3.17 4.98c-1.37 1.37-3 2.45-4.93 3.2-1.9.76-4.02 1.13-6.33 1.13H85.8V61.47h11.77c2.31 0 4.42.39 6.33 1.15a13.8 13.8 0 018.1 8.18 17.75 17.75 0 011.12 6.45zm-4.37 0c0-1.94-.26-3.67-.8-5.2a10.94 10.94 0 00-2.23-3.87 9.57 9.57 0 00-3.53-2.42 12.23 12.23 0 00-4.61-.83h-7.5v24.62h7.5c1.7 0 3.24-.28 4.61-.84a9.7 9.7 0 003.53-2.4 10.94 10.94 0 002.24-3.87c.53-1.53.8-3.26.8-5.2zm19.8 5.72c-1.8.06-3.34.2-4.62.44-1.26.22-2.3.51-3.1.88-.8.36-1.37.8-1.74 1.3-.35.5-.53 1.05-.53 1.67 0 .58.1 1.1.3 1.52a3 3 0 00.76 1.05c.34.27.73.46 1.17.6.45.11.94.17 1.45.17a7.28 7.28 0 003.5-.81 11.95 11.95 0 002.82-2.2v-4.62zm-12.65-9.11a12.73 12.73 0 013.98-2.66c1.43-.59 3-.88 4.73-.88 1.25 0 2.36.2 3.33.61a6.81 6.81 0 013.94 4.38c.33 1.04.5 2.19.5 3.43V93h-1.74a1.8 1.8 0 01-.88-.18c-.2-.13-.36-.38-.48-.74l-.44-2.12c-.59.55-1.16 1.03-1.72 1.46a9.48 9.48 0 01-3.74 1.7c-.69.15-1.46.23-2.3.23-.87 0-1.69-.12-2.45-.35a5.34 5.34 0 01-3.34-2.93 6.64 6.64 0 01-.49-2.64c0-.88.25-1.72.73-2.53a6.33 6.33 0 012.35-2.17c1.09-.63 2.5-1.15 4.25-1.54 1.75-.41 3.89-.65 6.42-.7v-1.75c0-1.73-.37-3.03-1.12-3.91-.75-.9-1.84-1.34-3.28-1.34-.97 0-1.78.12-2.44.37-.64.23-1.2.5-1.7.81l-1.23.82c-.33.23-.67.35-1 .35-.27 0-.5-.07-.69-.2a2.1 2.1 0 01-.48-.53l-.7-1.25zm27.67 19.5c-1.76 0-3.12-.5-4.07-1.48-.94-.98-1.41-2.4-1.41-4.25V74h-2.68a.9.9 0 01-.6-.2c-.16-.14-.24-.36-.24-.66v-1.56l3.65-.46.9-6.89c.05-.22.14-.4.29-.52a.88.88 0 01.62-.22H142v7.67h6.44V74h-6.44v13.38c0 .94.22 1.63.68 2.09.45.45 1.04.68 1.76.68a3.21 3.21 0 001.85-.53l.55-.35c.16-.12.3-.18.41-.18.2 0 .4.13.55.38l1.15 1.87a7.45 7.45 0 01-2.44 1.5c-.96.35-1.94.52-2.95.52zm19.68-10.4c-1.8.07-3.34.21-4.62.45-1.26.22-2.3.51-3.1.88-.8.36-1.37.8-1.74 1.3-.35.5-.53 1.05-.53 1.67 0 .58.1 1.1.3 1.52.18.42.44.77.76 1.05.34.27.73.46 1.17.6.45.11.94.17 1.45.17a7.3 7.3 0 003.5-.81 12.04 12.04 0 002.82-2.2v-4.62zm-12.65-9.1a12.72 12.72 0 013.99-2.66c1.42-.59 3-.88 4.72-.88 1.25 0 2.36.2 3.33.61a6.81 6.81 0 013.94 4.38c.33 1.04.5 2.19.5 3.43V93h-1.74a1.8 1.8 0 01-.88-.18c-.2-.13-.36-.38-.48-.74l-.44-2.12c-.59.55-1.16 1.03-1.72 1.46a9.48 9.48 0 01-3.74 1.7c-.69.15-1.46.23-2.3.23-.87 0-1.69-.12-2.45-.35a5.33 5.33 0 01-3.34-2.93 6.62 6.62 0 01-.49-2.64c0-.88.25-1.72.73-2.53a6.33 6.33 0 012.35-2.17c1.09-.63 2.5-1.15 4.25-1.54 1.74-.41 3.89-.65 6.42-.7v-1.75c0-1.73-.37-3.03-1.12-3.91-.75-.9-1.84-1.34-3.28-1.34-.97 0-1.78.12-2.44.37-.64.23-1.2.5-1.7.81-.46.3-.87.57-1.22.82-.34.23-.68.35-1.02.35-.26 0-.49-.07-.68-.2-.19-.14-.35-.32-.48-.53l-.7-1.25z"
    fill="#fff"
  />
  <path fill="#D42B21" d="M0 106.79h210V120H0z" />
</g>
<defs>
  <clipPath id="clip0"><path fill="#fff" d="M0 0h210v120H0z" /></clipPath>
</defs>
</svg></g><a href="https://ourworldindata.org/coronavirus-data-explorer?zoomToSelection=true&amp;time=2020-03-15..latest&amp;country=CHN~USA~RUS~IND~BRA~EuropeanUnion&amp;region=World&amp;casesMetric=true&amp;interval=smoothed&amp;smoothing=7&amp;pickerMetric=location&amp;pickerSort=asc" style="font-family:&quot;Playfair Display&quot;, Georgia, &quot;Times New Roman&quot;, serif" target="_blank" rel="noopener"><text font-size="25.20" x="15.0" y="35.2" fill="#555"><tspan x="15" y="35.160000000000004">Daily new confirmed COVID-19 cases</tspan></text></a><text font-size="14.40" x="15.0" y="55.7" fill="#666"><tspan x="15" y="55.72">Shown is the rolling 7-day average. The number of confirmed cases is lower than the number of actual cases; the</tspan><tspan x="15" y="73">main reason for that is limited testing.</tspan></text></g><g class="LineChart"><defs><clipPath id="boundsClip-8"><rect x="68.968" y="0" width="830" height="928.6"></rect></clipPath></defs><g class="DualAxisView"><g class="HorizontalAxis"><line x1="79" y1="535.3000000000001" x2="79" y2="539.3000000000001" stroke="#ccc"></line><line x1="191.4" y1="535.3000000000001" x2="191.4" y2="539.3000000000001" stroke="#ccc"></line><line x1="313.5" y1="535.3000000000001" x2="313.5" y2="539.3000000000001" stroke="#ccc"></line><line x1="435.7" y1="535.3000000000001" x2="435.7" y2="539.3000000000001" stroke="#ccc"></line><line x1="557.8" y1="535.3000000000001" x2="557.8" y2="539.3000000000001" stroke="#ccc"></line><line x1="702" y1="535.3000000000001" x2="702" y2="539.3000000000001" stroke="#ccc"></line><text x="79" y="556.5" fill="#666" text-anchor="middle" font-size="16.2">Mar 15, 2020</text><text x="191.4" y="556.5" fill="#666" text-anchor="middle" font-size="16.2">Apr 30</text><text x="313.5" y="556.5" fill="#666" text-anchor="middle" font-size="16.2">Jun 19</text><text x="435.7" y="556.5" fill="#666" text-anchor="middle" font-size="16.2">Aug 8</text><text x="557.8" y="556.5" fill="#666" text-anchor="middle" font-size="16.2">Sep 27</text><text x="702" y="556.5" fill="#666" text-anchor="middle" font-size="16.2">Nov 25, 2020</text></g><g class="VerticalAxis"><text x="73.97" y="535.3" fill="#666" dominant-baseline="middle" text-anchor="end" font-size="16.2">0</text><text x="73.97" y="432.7" fill="#666" dominant-baseline="middle" text-anchor="end" font-size="16.2">50,000</text><text x="73.97" y="330" fill="#666" dominant-baseline="middle" text-anchor="end" font-size="16.2">100,000</text><text x="73.97" y="227.4" fill="#666" dominant-baseline="middle" text-anchor="end" font-size="16.2">150,000</text><text x="73.97" y="124.8" fill="#666" dominant-baseline="middle" text-anchor="end" font-size="16.2">200,000</text></g><g class="AxisGridLines horizontalLines"><line x1="78.97" y1="535.3" x2="701.99" y2="535.3" stroke="#ccc"></line><line x1="78.97" y1="432.7" x2="701.99" y2="432.7" stroke="#d3d3d3" stroke-dasharray="3,2"></line><line x1="78.97" y1="330" x2="701.99" y2="330" stroke="#d3d3d3" stroke-dasharray="3,2"></line><line x1="78.97" y1="227.4" x2="701.99" y2="227.4" stroke="#d3d3d3" stroke-dasharray="3,2"></line><line x1="78.97" y1="124.8" x2="701.99" y2="124.8" stroke="#d3d3d3" stroke-dasharray="3,2"></line></g></g><g clip-path="url(#boundsClip-8)"><g class="LineLabels" style="cursor:default"><g class="legendMark"><rect x="701.99" y="167.45" width="116.405" height="13.5" fill="#fff" opacity="0"></rect><text font-size="13.50" x="706.0" y="178.3" fill="#B13507"><tspan x="705.99" y="178.25">United States</tspan></text></g><g class="legendMark"><rect x="701.99" y="196.15" width="133.01" height="13.5" fill="#fff" opacity="0"></rect><text font-size="13.50" x="706.0" y="207.0" fill="#883039"><tspan x="705.99" y="206.95000000000002">European Union</tspan></text></g><g class="legendMark"><rect x="701.99" y="437.85" width="64.43" height="13.5" fill="#fff" opacity="0"></rect><text font-size="13.50" x="706.0" y="448.7" fill="#6D3E91"><tspan x="705.99" y="448.65000000000003">India</tspan></text></g><g class="legendMark"><rect x="701.99" y="465.45000000000005" width="68.75" height="13.5" fill="#fff" opacity="0"></rect><text font-size="13.50" x="706.0" y="476.3" fill="#CF0A66"><tspan x="705.99" y="476.25000000000006">Brazil</tspan></text></g><g class="legendMark"><rect x="701.99" y="480.95000000000005" width="76.31" height="13.5" fill="#fff" opacity="0"></rect><text font-size="13.50" x="706.0" y="491.8" fill="#00847E"><tspan x="705.99" y="491.75000000000006">Russia</tspan></text></g><g class="legendMark"><rect x="701.99" y="521.8000000000001" width="70.37" height="13.5" fill="#fff" opacity="0"></rect><text font-size="13.50" x="706.0" y="532.6" fill="#3C4E66"><tspan x="705.99" y="532.6">China</tspan></text></g></g><g class="Lines"><rect x="79" y="92" width="623" height="443" fill="rgba(255,255,255,0)" opacity="0"></rect><g class="key-China_0"><path stroke="#3C4E66" stroke-linecap="round" d="M79 535L81 535L84 535L86 535L89 535L91 535L94 535L96 535L99 535L101 535L103 535L106 535L108 535L111 535L113 535L116 535L118 535L121 535L123 535L125 535L128 535L130 535L133 535L135 535L138 535L140 535L143 535L145 535L147 535L150 535L152 535L155 535L157 535L160 535L162 535L165 535L167 535L169 535L172 535L174 535L177 535L179 535L182 535L184 535L187 535L189 535L191 535L194 535L196 535L199 535L201 535L204 535L206 535L209 535L211 535L213 535L216 535L218 535L221 535L223 535L226 535L228 535L230 535L233 535L235 535L238 535L240 535L243 535L245 535L248 535L250 535L252 535L255 535L257 535L260 535L262 535L265 535L267 535L270 535L272 535L274 535L277 535L279 535L282 535L284 535L287 535L289 535L292 535L294 535L296 535L299 535L301 535L304 535L306 535L309 535L311 535L314 535L316 535L318 535L321 535L323 535L326 535L328 535L331 535L333 535L336 535L338 535L340 535L343 535L345 535L348 535L350 535L353 535L355 535L358 535L360 535L362 535L365 535L367 535L370 535L372 535L375 535L377 535L380 535L382 535L384 535L387 535L389 535L392 535L394 535L397 535L399 535L402 535L404 535L406 535L409 535L411 535L414 535L416 535L419 535L421 535L424 535L426 535L428 535L431 535L433 535L436 535L438 535L441 535L443 535L446 535L448 535L450 535L453 535L455 535L458 535L460 535L463 535L465 535L467 535L470 535L472 535L475 535L477 535L480 535L482 535L485 535L487 535L489 535L492 535L494 535L497 535L499 535L502 535L504 535L507 535L509 535L511 535L514 535L516 535L519 535L521 535L524 535L526 535L529 535L531 535L533 535L536 535L538 535L541 535L543 535L546 535L548 535L551 535L553 535L555 535L558 535L560 535L563 535L565 535L568 535L570 535L573 535L575 535L577 535L580 535L582 535L585 535L587 535L590 535L592 535L595 535L597 535L599 535L602 535L604 535L607 535L609 535L612 535L614 535L617 535L619 535L621 535L624 535L626 535L629 535L631 535L634 535L636 535L639 535L641 535L643 535L646 535L648 535L651 535L653 535L656 535L658 535L661 535L663 535L665 535L668 535L670 535L673 535L675 535L678 535L680 535L682 535L685 535L687 535L690 535L692 535L695 535L697 535L700 535L702 535" fill="none" stroke-width="1.5"></path></g><g class="key-United-States_0"><path stroke="#B13507" stroke-linecap="round" d="M79 535L81 534L84 534L86 534L89 533L91 532L94 530L96 528L99 526L101 523L103 521L106 518L108 514L111 510L113 507L116 504L118 501L121 496L123 492L125 489L128 485L130 480L133 478L135 476L138 474L140 472L143 471L145 470L147 472L150 471L152 472L155 474L157 474L160 475L162 477L165 475L167 476L169 475L172 472L174 476L177 477L179 480L182 476L184 475L187 477L189 480L191 478L194 477L196 473L199 478L201 479L204 479L206 479L209 480L211 480L213 483L216 484L218 485L221 486L223 487L226 488L228 488L230 489L233 489L235 489L238 488L240 489L243 488L245 489L248 489L250 490L252 489L255 490L257 491L260 492L262 493L265 493L267 492L270 492L272 492L274 491L277 491L279 491L282 491L284 491L287 491L289 491L292 492L294 492L296 491L299 491L301 490L304 491L306 491L309 489L311 488L314 486L316 485L318 482L321 481L323 477L326 474L328 471L331 468L333 463L336 461L338 457L340 454L343 451L345 446L348 442L350 440L353 439L355 436L358 433L360 429L362 427L365 424L367 421L370 416L372 413L375 411L377 408L380 405L382 401L384 400L387 399L389 398L392 398L394 397L397 397L399 401L402 399L404 399L406 400L409 400L411 403L414 402L416 400L419 404L421 406L424 408L426 411L428 412L431 419L433 421L436 424L438 425L441 425L443 424L446 427L448 426L450 428L453 426L455 429L458 430L460 435L463 435L465 438L467 440L470 444L472 445L475 448L477 447L480 448L482 450L485 449L487 449L489 449L492 449L494 450L497 448L499 450L502 452L504 452L507 452L509 453L511 456L514 461L516 463L519 463L521 464L524 465L526 464L529 461L531 454L533 456L536 454L538 453L541 454L543 452L546 446L548 450L551 446L553 446L555 445L558 443L560 444L563 450L565 449L568 448L570 448L573 448L575 446L577 447L580 444L582 444L585 442L587 439L590 438L592 437L595 434L597 434L599 431L602 428L604 426L607 422L609 422L612 420L614 415L617 413L619 412L621 410L624 405L626 398L629 394L631 392L634 387L636 382L639 378L641 373L643 374L646 368L648 363L651 358L653 351L656 341L658 332L661 320L663 311L665 295L668 279L670 267L673 258L675 242L678 229L680 223L682 214L685 212L687 204L690 194L692 191L695 188L697 181L700 179L702 174" fill="none" stroke-width="1.5"></path></g><g class="key-Russia_0"><path stroke="#00847E" stroke-linecap="round" d="M79 535L81 535L84 535L86 535L89 535L91 535L94 535L96 535L99 535L101 535L103 535L106 535L108 535L111 535L113 535L116 535L118 535L121 535L123 535L125 535L128 534L130 534L133 534L135 534L138 534L140 534L143 533L145 533L147 533L150 532L152 532L155 531L157 531L160 530L162 529L165 529L167 527L169 527L172 526L174 526L177 525L179 525L182 524L184 524L187 524L189 523L191 523L194 523L196 522L199 521L201 520L204 518L206 517L209 516L211 515L213 514L216 513L218 513L221 513L223 513L226 513L228 513L230 513L233 514L235 514L238 515L240 515L243 516L245 516L248 517L250 517L252 517L255 517L257 517L260 517L262 517L265 517L267 518L270 517L272 517L274 517L277 517L279 517L282 517L284 517L287 517L289 517L292 517L294 517L296 517L299 517L301 517L304 517L306 518L309 518L311 518L314 518L316 518L318 519L321 519L323 519L326 519L328 520L331 520L333 520L336 520L338 521L340 521L343 521L345 521L348 522L350 522L353 522L355 522L358 522L360 522L362 522L365 522L367 522L370 522L372 522L375 522L377 522L380 522L382 522L384 522L387 522L389 522L392 523L394 523L397 523L399 523L402 523L404 523L406 523L409 523L411 524L414 524L416 524L419 524L421 524L424 524L426 524L428 524L431 524L433 524L436 524L438 525L441 525L443 525L446 525L448 525L450 525L453 525L455 525L458 525L460 525L463 525L465 525L467 525L470 525L472 525L475 525L477 525L480 525L482 526L485 526L487 526L489 526L492 526L494 525L497 525L499 525L502 525L504 525L507 525L509 525L511 525L514 525L516 525L519 525L521 525L524 524L526 524L529 524L531 524L533 524L536 524L538 524L541 524L543 523L546 523L548 523L551 523L553 523L555 522L558 522L560 521L563 521L565 520L568 520L570 519L573 518L575 517L577 517L580 516L582 515L585 514L587 513L590 513L592 512L595 511L597 510L599 509L602 508L604 508L607 507L609 506L612 506L614 505L617 504L619 504L621 503L624 503L626 502L629 502L631 501L634 501L636 501L639 501L641 500L643 500L646 499L648 499L651 498L653 497L656 497L658 496L661 496L663 495L665 494L668 493L670 493L673 493L675 492L678 492L680 491L682 484L685 484L687 483L690 482L692 481L695 481L697 480L700 486L702 485" fill="none" stroke-width="1.5"></path></g><g class="key-India_0"><path stroke="#6D3E91" stroke-linecap="round" d="M79 535L81 535L84 535L86 535L89 535L91 535L94 535L96 535L99 535L101 535L103 535L106 535L108 535L111 535L113 535L116 535L118 535L121 535L123 535L125 535L128 535L130 535L133 534L135 534L138 534L140 534L143 534L145 534L147 534L150 534L152 534L155 534L157 533L160 533L162 533L165 533L167 533L169 533L172 533L174 533L177 533L179 532L182 532L184 532L187 532L189 532L191 532L194 532L196 532L199 531L201 531L204 530L206 530L209 530L211 529L213 529L216 529L218 528L221 528L223 528L226 528L228 528L230 528L233 527L235 527L238 526L240 526L243 525L245 525L248 524L250 523L252 523L255 522L257 522L260 522L262 521L265 521L267 521L270 520L272 520L274 519L277 518L279 517L282 517L284 516L287 516L289 515L292 515L294 515L296 515L299 514L301 514L304 513L306 513L309 513L311 512L314 511L316 510L318 509L321 508L323 507L326 505L328 504L331 503L333 502L336 501L338 499L340 498L343 497L345 497L348 496L350 494L353 493L355 492L358 491L360 489L362 488L365 486L367 485L370 484L372 482L375 480L377 479L380 476L382 474L384 471L387 468L389 465L392 463L394 460L397 456L399 452L402 448L404 445L406 442L409 439L411 436L414 434L416 432L419 430L421 428L424 427L426 426L428 425L431 424L433 422L436 420L438 417L441 415L443 414L446 412L448 409L450 408L453 407L455 407L458 409L460 408L463 407L465 406L467 405L470 404L472 402L475 401L477 399L480 398L482 397L485 394L487 392L489 389L492 384L494 382L497 378L499 376L502 374L504 371L507 368L509 364L511 363L514 359L516 356L519 352L521 349L524 348L526 347L529 345L531 345L533 344L536 344L538 345L541 346L543 347L546 350L548 352L551 355L553 358L555 361L558 362L560 363L563 365L565 365L568 365L570 367L573 368L575 372L577 374L580 377L582 380L585 382L587 385L590 387L592 387L595 390L597 391L599 394L602 397L604 399L607 402L609 406L612 409L614 412L617 415L619 418L621 421L624 423L626 427L629 430L631 433L634 436L636 438L639 439L641 441L643 442L646 442L648 441L651 440L653 440L656 441L658 440L661 440L663 440L665 440L668 441L670 442L673 442L675 444L678 445L680 450L682 452L685 454L687 455L690 455L692 454L695 453L697 449L700 446L702 445" fill="none" stroke-width="1.5"></path></g><g class="key-Brazil_0"><path stroke="#CF0A66" stroke-linecap="round" d="M79 535L81 535L84 535L86 535L89 535L91 535L94 535L96 535L99 535L101 535L103 535L106 535L108 535L111 535L113 535L116 535L118 535L121 534L123 534L125 534L128 534L130 533L133 533L135 533L138 533L140 533L143 532L145 532L147 532L150 532L152 532L155 532L157 532L160 532L162 531L165 531L167 531L169 530L172 530L174 530L177 530L179 530L182 529L184 529L187 528L189 527L191 526L194 525L196 524L199 524L201 524L204 523L206 523L209 522L211 521L213 520L216 518L218 517L221 518L223 517L226 517L228 515L230 514L233 513L235 512L238 510L240 508L243 505L245 504L248 502L250 502L252 500L255 500L257 500L260 500L262 498L265 496L267 491L270 491L272 491L274 487L277 485L279 484L282 482L284 484L287 483L289 482L292 481L294 480L296 480L299 482L301 483L304 484L306 482L309 481L311 482L314 484L316 476L318 472L321 472L323 471L326 470L328 467L331 462L333 464L336 463L338 459L340 459L343 460L345 459L348 457L350 458L353 458L355 459L358 461L360 457L362 458L365 459L367 459L370 458L372 459L375 459L377 460L380 461L382 460L384 463L387 466L389 467L392 467L394 467L397 459L399 455L402 448L404 442L406 441L409 440L411 440L414 440L416 441L419 442L421 443L424 443L426 445L428 442L431 445L433 447L436 447L438 446L441 447L443 445L446 445L448 446L450 444L453 444L455 446L458 446L460 447L463 448L465 450L467 454L470 460L472 458L475 457L477 458L480 458L482 459L485 459L487 455L489 458L492 460L494 452L497 453L499 453L502 453L504 451L507 454L509 455L511 465L514 473L516 477L519 478L521 480L524 479L526 479L529 477L531 471L533 470L536 472L538 473L541 473L543 473L546 473L548 474L551 475L553 476L555 478L558 480L560 480L563 480L565 481L568 481L570 480L573 479L575 480L577 482L580 482L582 479L585 480L587 482L590 484L592 484L595 483L597 484L599 493L602 494L604 494L607 493L609 494L612 494L614 492L617 488L619 489L621 490L624 490L626 490L629 489L631 489L634 487L636 486L639 485L641 488L643 490L646 491L648 493L651 498L653 500L656 501L658 501L661 501L663 501L665 500L668 496L670 489L673 486L675 483L678 478L680 477L682 476L685 473L687 477L690 477L692 474L695 476L697 474L700 473L702 475" fill="none" stroke-width="1.5"></path></g><g class="key-European-Union_0"><path stroke="#883039" stroke-linecap="round" d="M79 525L81 523L84 521L86 519L89 516L91 512L94 509L96 505L99 502L101 498L103 494L106 490L108 487L111 484L113 482L116 480L118 480L121 477L123 477L125 478L128 478L130 478L133 480L135 481L138 483L140 485L143 485L145 486L147 488L150 489L152 491L155 491L157 493L160 495L162 497L165 500L167 501L169 501L172 503L174 504L177 506L179 506L182 507L184 508L187 509L189 511L191 513L194 514L196 516L199 518L201 519L204 520L206 520L209 520L211 520L213 520L216 520L218 520L221 521L223 521L226 523L228 523L230 524L233 525L235 525L238 525L240 526L243 526L245 526L248 526L250 527L252 527L255 527L257 527L260 527L262 527L265 526L267 526L270 526L272 526L274 527L277 527L279 528L282 528L284 528L287 528L289 528L292 528L294 527L296 527L299 527L301 527L304 527L306 527L309 527L311 527L314 527L316 527L318 527L321 527L323 527L326 527L328 527L331 527L333 527L336 527L338 527L340 527L343 527L345 527L348 527L350 527L353 528L355 527L358 528L360 528L362 528L365 528L367 528L370 527L372 527L375 527L377 527L380 526L382 526L384 526L387 526L389 525L392 524L394 524L397 523L399 522L402 522L404 522L406 521L409 521L411 520L414 520L416 519L419 519L421 518L424 518L426 516L428 516L431 515L433 514L436 513L438 513L441 513L443 513L446 512L448 511L450 510L453 510L455 508L458 505L460 506L463 505L465 504L467 503L470 502L472 502L475 500L477 499L480 498L482 497L485 496L487 495L489 494L492 493L494 492L497 491L499 491L502 490L504 489L507 488L509 486L511 485L514 484L516 482L519 480L521 479L524 477L526 476L529 475L531 473L533 471L536 468L538 466L541 464L543 461L546 460L548 459L551 457L553 456L555 454L558 453L560 452L563 452L565 451L568 451L570 449L573 448L575 446L577 447L580 442L582 439L585 431L587 425L590 416L592 408L595 400L597 397L599 388L602 378L604 366L607 357L609 347L612 334L614 323L617 311L619 297L621 282L624 265L626 251L629 231L631 216L634 199L636 186L639 172L641 160L643 156L646 150L648 139L651 135L653 128L656 120L658 114L661 92L663 93L665 102L668 106L670 111L673 118L675 130L678 149L680 158L682 162L685 160L687 165L690 172L692 176L695 182L697 194L700 203" fill="none" stroke-width="1.5"></path></g></g></g></g><g class="SourcesFooter" style="fill:#777"><g class="clickable" style="fill:#777"><text font-size="12.60" x="15.0" y="581.6"><tspan x="15" y="581.58">Source: European CDC – Situation Update Worldwide – Last updated 25 November, 10:06 (London time)</tspan></text></g><text font-size="12.60" x="796.4" y="581.6"><tspan x="796.444" y="581.58"><a style="fill: #777;" class="cclogo" href="http://creativecommons.org/licenses/by/4.0/deed.en_US" target="_blank">CC BY</a></tspan></text></g></svg>