<svg xmlns="http://www.w3.org/2000/svg" version="1.1" style="font-family:&#x27;Segoe UI&#x27;, sans-serif;
font-size:18px;background-color:white;text-rendering:optimizeLegibility;-webkit-font-smoothing:antialiased" viewBox="0 0 850 600"><g class="HeaderView"><g transform="translate(774, 15) scale(0.29)"><svg width="210" height="120" viewBox="0 0 210 120" fill="none" xmlns="http://www.w3.org/2000/svg">
<g clip-path="url(#clip0)">
  <path d="M0 0h210v107.89H0V0z" fill="#002147" />
  <path
    d="M40.98 32.25c0 2.36-.38 4.53-1.12 6.51a14.26 14.26 0 01-8.1 8.4c-1.9.78-4.02 1.17-6.34 1.17-2.31 0-4.42-.39-6.33-1.17a14.31 14.31 0 01-8.08-8.4 18.29 18.29 0 01-1.12-6.51c0-2.36.38-4.53 1.12-6.5.75-1.97 1.8-3.67 3.17-5.1 1.37-1.43 3-2.55 4.9-3.34 1.92-.8 4.03-1.19 6.34-1.19 2.32 0 4.43.4 6.34 1.19 1.92.8 3.56 1.9 4.93 3.34a14.87 14.87 0 013.17 5.1 18.1 18.1 0 011.12 6.5zm-4.38 0c0-1.94-.26-3.68-.8-5.22a10.91 10.91 0 00-2.24-3.89 9.68 9.68 0 00-3.52-2.46 11.95 11.95 0 00-4.62-.86c-1.68 0-3.21.28-4.6.86a9.88 9.88 0 00-3.54 2.46 10.91 10.91 0 00-2.24 3.9c-.53 1.53-.8 3.27-.8 5.2 0 1.94.27 3.68.8 5.22a11.17 11.17 0 002.24 3.9 10.01 10.01 0 003.55 2.44c1.38.56 2.9.83 4.6.83 1.7 0 3.24-.27 4.61-.83a9.8 9.8 0 003.52-2.44 11.17 11.17 0 002.25-3.9c.53-1.54.8-3.28.8-5.21zm26.22-6.54V48H60.5c-.56 0-.9-.27-1.05-.81l-.31-2.4a12.45 12.45 0 01-3.26 2.6c-1.2.64-2.58.96-4.13.96-1.22 0-2.3-.2-3.24-.6a6.52 6.52 0 01-2.33-1.7 7.37 7.37 0 01-1.43-2.67c-.3-1.04-.46-2.2-.46-3.45V25.7h3.91v14.22c0 1.68.38 2.99 1.15 3.91.77.93 1.96 1.39 3.54 1.39 1.16 0 2.24-.27 3.23-.82a10.42 10.42 0 002.8-2.28V25.7h3.91zm8.61 4.47a9.94 9.94 0 012.6-3.56 5.64 5.64 0 013.76-1.3c.47 0 .92.05 1.34.15.44.1.83.27 1.17.49L80 28.88c-.09.37-.3.55-.66.55-.2 0-.5-.04-.9-.13a6.21 6.21 0 00-3.24.18c-.54.2-1.03.5-1.47.92-.42.4-.81.9-1.17 1.5-.33.58-.64 1.26-.92 2.02V48h-3.94V25.71h2.25c.42 0 .72.08.88.25.16.16.27.44.33.83l.26 3.39zm61.16-13.7L122.75 48h-3.82l-7.99-24.05a21.95 21.95 0 01-.42-1.58 38.36 38.36 0 01-.44 1.58L102.05 48h-3.83L88.4 16.47h3.54c.38 0 .7.1.95.29.26.2.43.43.5.73l6.52 21.9c.1.4.2.83.28 1.28.1.46.2.94.29 1.46l.3-1.46c.12-.47.25-.9.38-1.27l7.41-21.91c.1-.25.26-.48.51-.69.27-.22.58-.33.95-.33h1.23c.38 0 .69.1.92.29.24.2.41.43.53.73l7.4 21.9a28.4 28.4 0 01.68 2.62 29.52 29.52 0 01.52-2.61l6.54-21.91c.07-.27.23-.5.48-.7.27-.21.58-.32.95-.32h3.32zm9.35 8.88c1.63 0 3.1.27 4.4.82a9.43 9.43 0 015.46 5.94c.5 1.4.74 2.98.74 4.73 0 1.76-.25 3.34-.74 4.75a9.43 9.43 0 01-5.46 5.92c-1.3.52-2.77.79-4.4.79-1.64 0-3.12-.27-4.44-.8a9.42 9.42 0 01-3.35-2.3c-.92-1-1.63-2.2-2.13-3.61-.49-1.41-.73-3-.73-4.75s.24-3.33.73-4.73c.5-1.43 1.2-2.64 2.13-3.63.93-1 2.04-1.77 3.35-2.31 1.32-.55 2.8-.82 4.44-.82zm0 19.89c2.2 0 3.84-.73 4.93-2.2 1.08-1.48 1.63-3.54 1.63-6.18 0-2.66-.55-4.72-1.63-6.2-1.09-1.49-2.73-2.23-4.93-2.23-1.12 0-2.09.2-2.93.57-.82.39-1.5.94-2.06 1.65-.55.72-.96 1.61-1.24 2.67-.26 1.04-.4 2.22-.4 3.54 0 2.64.55 4.7 1.64 6.18 1.1 1.47 2.76 2.2 4.99 2.2zm17.97-15.07a9.94 9.94 0 012.6-3.56 5.64 5.64 0 013.76-1.3c.47 0 .91.05 1.34.15.44.1.83.27 1.16.49l-.28 2.92c-.09.37-.31.55-.66.55-.2 0-.5-.04-.9-.13a6.2 6.2 0 00-3.24.18c-.54.2-1.03.5-1.47.92-.43.4-.82.9-1.17 1.5a13.1 13.1 0 00-.92 2.02V48h-3.94V25.71h2.24c.43 0 .72.08.88.25.17.16.28.44.33.83l.27 3.39zm15.04-14.59V48h-3.92V15.6h3.92zm19.55 15.43a6.22 6.22 0 00-2.38-2.05 6.7 6.7 0 00-2.86-.6c-2.07 0-3.66.75-4.77 2.23-1.12 1.48-1.68 3.6-1.68 6.33 0 1.46.13 2.7.38 3.74a7.29 7.29 0 001.1 2.56 4.35 4.35 0 001.78 1.45c.7.3 1.5.46 2.4.46 1.29 0 2.41-.3 3.36-.88a9.6 9.6 0 002.67-2.49V31.02zm3.91-15.43V48h-2.33c-.56 0-.9-.27-1.06-.81l-.35-2.71a12.13 12.13 0 01-3.25 2.77 8.28 8.28 0 01-4.23 1.06 7.31 7.31 0 01-6.14-2.9c-.73-.96-1.3-2.15-1.69-3.57a18.35 18.35 0 01.07-9.48 11.29 11.29 0 011.89-3.7 8.7 8.7 0 017.06-3.34 7.96 7.96 0 016.12 2.62V15.59h3.91zM46.61 70.71V93H42.7V70.71h3.91zm.84-7c0 .39-.08.75-.24 1.09-.15.32-.35.61-.62.88-.25.25-.55.44-.9.59a2.67 2.67 0 01-2.16 0 2.9 2.9 0 01-1.45-1.47 2.67 2.67 0 010-2.16c.15-.35.35-.65.6-.9.25-.27.53-.47.85-.62a2.67 2.67 0 012.16 0c.35.15.65.35.9.62.27.25.47.55.62.9.16.34.24.7.24 1.08zm7.97 10.24c.49-.54 1-1.04 1.54-1.48a9.85 9.85 0 013.66-1.84 8.96 8.96 0 015.43.35c.94.4 1.72.97 2.33 1.71.63.74 1.11 1.62 1.43 2.67.32 1.04.49 2.19.49 3.45V93h-3.94V78.81c0-1.69-.4-3-1.17-3.92-.76-.93-1.93-1.4-3.5-1.4-1.15 0-2.24.27-3.25.83-1 .56-1.92 1.31-2.77 2.27V93h-3.94V70.71h2.35c.56 0 .9.28 1.04.82l.3 2.42zm57.7 3.3c0 2.36-.37 4.5-1.11 6.44a14.3 14.3 0 01-3.17 4.98c-1.37 1.37-3 2.45-4.93 3.2-1.9.76-4.02 1.13-6.33 1.13H85.8V61.47h11.77c2.31 0 4.42.39 6.33 1.15a13.8 13.8 0 018.1 8.18 17.75 17.75 0 011.12 6.45zm-4.37 0c0-1.94-.26-3.67-.8-5.2a10.94 10.94 0 00-2.23-3.87 9.57 9.57 0 00-3.53-2.42 12.23 12.23 0 00-4.61-.83h-7.5v24.62h7.5c1.7 0 3.24-.28 4.61-.84a9.7 9.7 0 003.53-2.4 10.94 10.94 0 002.24-3.87c.53-1.53.8-3.26.8-5.2zm19.8 5.72c-1.8.06-3.34.2-4.62.44-1.26.22-2.3.51-3.1.88-.8.36-1.37.8-1.74 1.3-.35.5-.53 1.05-.53 1.67 0 .58.1 1.1.3 1.52a3 3 0 00.76 1.05c.34.27.73.46 1.17.6.45.11.94.17 1.45.17a7.28 7.28 0 003.5-.81 11.95 11.95 0 002.82-2.2v-4.62zm-12.65-9.11a12.73 12.73 0 013.98-2.66c1.43-.59 3-.88 4.73-.88 1.25 0 2.36.2 3.33.61a6.81 6.81 0 013.94 4.38c.33 1.04.5 2.19.5 3.43V93h-1.74a1.8 1.8 0 01-.88-.18c-.2-.13-.36-.38-.48-.74l-.44-2.12c-.59.55-1.16 1.03-1.72 1.46a9.48 9.48 0 01-3.74 1.7c-.69.15-1.46.23-2.3.23-.87 0-1.69-.12-2.45-.35a5.34 5.34 0 01-3.34-2.93 6.64 6.64 0 01-.49-2.64c0-.88.25-1.72.73-2.53a6.33 6.33 0 012.35-2.17c1.09-.63 2.5-1.15 4.25-1.54 1.75-.41 3.89-.65 6.42-.7v-1.75c0-1.73-.37-3.03-1.12-3.91-.75-.9-1.84-1.34-3.28-1.34-.97 0-1.78.12-2.44.37-.64.23-1.2.5-1.7.81l-1.23.82c-.33.23-.67.35-1 .35-.27 0-.5-.07-.69-.2a2.1 2.1 0 01-.48-.53l-.7-1.25zm27.67 19.5c-1.76 0-3.12-.5-4.07-1.48-.94-.98-1.41-2.4-1.41-4.25V74h-2.68a.9.9 0 01-.6-.2c-.16-.14-.24-.36-.24-.66v-1.56l3.65-.46.9-6.89c.05-.22.14-.4.29-.52a.88.88 0 01.62-.22H142v7.67h6.44V74h-6.44v13.38c0 .94.22 1.63.68 2.09.45.45 1.04.68 1.76.68a3.21 3.21 0 001.85-.53l.55-.35c.16-.12.3-.18.41-.18.2 0 .4.13.55.38l1.15 1.87a7.45 7.45 0 01-2.44 1.5c-.96.35-1.94.52-2.95.52zm19.68-10.4c-1.8.07-3.34.21-4.62.45-1.26.22-2.3.51-3.1.88-.8.36-1.37.8-1.74 1.3-.35.5-.53 1.05-.53 1.67 0 .58.1 1.1.3 1.52.18.42.44.77.76 1.05.34.27.73.46 1.17.6.45.11.94.17 1.45.17a7.3 7.3 0 003.5-.81 12.04 12.04 0 002.82-2.2v-4.62zm-12.65-9.1a12.72 12.72 0 013.99-2.66c1.42-.59 3-.88 4.72-.88 1.25 0 2.36.2 3.33.61a6.81 6.81 0 013.94 4.38c.33 1.04.5 2.19.5 3.43V93h-1.74a1.8 1.8 0 01-.88-.18c-.2-.13-.36-.38-.48-.74l-.44-2.12c-.59.55-1.16 1.03-1.72 1.46a9.48 9.48 0 01-3.74 1.7c-.69.15-1.46.23-2.3.23-.87 0-1.69-.12-2.45-.35a5.33 5.33 0 01-3.34-2.93 6.62 6.62 0 01-.49-2.64c0-.88.25-1.72.73-2.53a6.33 6.33 0 012.35-2.17c1.09-.63 2.5-1.15 4.25-1.54 1.74-.41 3.89-.65 6.42-.7v-1.75c0-1.73-.37-3.03-1.12-3.91-.75-.9-1.84-1.34-3.28-1.34-.97 0-1.78.12-2.44.37-.64.23-1.2.5-1.7.81-.46.3-.87.57-1.22.82-.34.23-.68.35-1.02.35-.26 0-.49-.07-.68-.2-.19-.14-.35-.32-.48-.53l-.7-1.25z"
    fill="#fff"
  />
  <path fill="#D42B21" d="M0 106.79h210V120H0z" />
</g>
<defs>
  <clipPath id="clip0"><path fill="#fff" d="M0 0h210v120H0z" /></clipPath>
</defs>
</svg></g><a href="https://ourworldindata.org/coronavirus-data-explorer?zoomToSelection=true&amp;time=2020-03-10..latest&amp;country=FRA~ITA~DEU~POL~ROU~GBR~ESP&amp;region=World&amp;casesMetric=true&amp;interval=smoothed&amp;smoothing=7&amp;pickerMetric=location&amp;pickerSort=asc" style="font-family:&quot;Playfair Display&quot;, Georgia, &quot;Times New Roman&quot;, serif" target="_blank" rel="noopener"><text font-size="25.20" x="15.0" y="35.2" fill="#555"><tspan x="15" y="35.160000000000004">Daily new confirmed COVID-19 cases</tspan></text></a><text font-size="14.40" x="15.0" y="55.7" fill="#666"><tspan x="15" y="55.72">Shown is the rolling 7-day average. The number of confirmed cases is lower than the number of actual cases; the</tspan><tspan x="15" y="73">main reason for that is limited testing.</tspan></text></g><g class="LineChart"><defs><clipPath id="boundsClip-4"><rect x="59.896" y="0" width="830" height="928.6"></rect></clipPath></defs><g class="DualAxisView"><g class="HorizontalAxis"><line x1="69.9" y1="535.3000000000001" x2="69.9" y2="539.3000000000001" stroke="#ccc"></line><line x1="218.9" y1="535.3000000000001" x2="218.9" y2="539.3000000000001" stroke="#ccc"></line><line x1="364.9" y1="535.3000000000001" x2="364.9" y2="539.3000000000001" stroke="#ccc"></line><line x1="511" y1="535.3000000000001" x2="511" y2="539.3000000000001" stroke="#ccc"></line><line x1="683.4" y1="535.3000000000001" x2="683.4" y2="539.3000000000001" stroke="#ccc"></line><text x="69.9" y="556.5" fill="#666" text-anchor="middle" font-size="16.2">Mar 10, 2020</text><text x="218.9" y="556.5" fill="#666" text-anchor="middle" font-size="16.2">Apr 30</text><text x="364.9" y="556.5" fill="#666" text-anchor="middle" font-size="16.2">Jun 19</text><text x="511" y="556.5" fill="#666" text-anchor="middle" font-size="16.2">Aug 8</text><text x="683.4" y="556.5" fill="#666" text-anchor="middle" font-size="16.2">Oct 6, 2020</text></g><g class="VerticalAxis"><text x="64.90" y="535.3" fill="#666" dominant-baseline="middle" text-anchor="end" font-size="16.2">0</text><text x="64.90" y="462.5" fill="#666" dominant-baseline="middle" text-anchor="end" font-size="16.2">2,000</text><text x="64.90" y="389.8" fill="#666" dominant-baseline="middle" text-anchor="end" font-size="16.2">4,000</text><text x="64.90" y="317" fill="#666" dominant-baseline="middle" text-anchor="end" font-size="16.2">6,000</text><text x="64.90" y="244.2" fill="#666" dominant-baseline="middle" text-anchor="end" font-size="16.2">8,000</text><text x="64.90" y="171.5" fill="#666" dominant-baseline="middle" text-anchor="end" font-size="16.2">10,000</text><text x="64.90" y="98.7" fill="#666" dominant-baseline="middle" text-anchor="end" font-size="16.2">12,000</text></g><g class="AxisGridLines horizontalLines"><line x1="69.90" y1="535.3" x2="683.36" y2="535.3" stroke="#ccc"></line><line x1="69.90" y1="462.5" x2="683.36" y2="462.5" stroke="#d3d3d3" stroke-dasharray="3,2"></line><line x1="69.90" y1="389.8" x2="683.36" y2="389.8" stroke="#d3d3d3" stroke-dasharray="3,2"></line><line x1="69.90" y1="317" x2="683.36" y2="317" stroke="#d3d3d3" stroke-dasharray="3,2"></line><line x1="69.90" y1="244.2" x2="683.36" y2="244.2" stroke="#d3d3d3" stroke-dasharray="3,2"></line><line x1="69.90" y1="171.5" x2="683.36" y2="171.5" stroke="#d3d3d3" stroke-dasharray="3,2"></line><line x1="69.90" y1="98.7" x2="683.36" y2="98.7" stroke="#d3d3d3" stroke-dasharray="3,2"></line></g></g><g clip-path="url(#boundsClip-4)"><g class="LineLabels" style="cursor:default"><g class="legendMark"><g class="indicator"><path d="M687.36,111 H707.61 V111.65 H714.36" stroke="#999" stroke-width="0.5" fill="none"></path></g><rect x="683.36" y="92.2" width="141.5555" height="38.900000000000006" fill="#fff" opacity="0"></rect><text font-size="13.50" x="718.4" y="103.0" fill="#3C4E66"><tspan x="718.36" y="103">France</tspan></text><text font-size="12.15" x="718.4" y="115.4" fill="#333" class="textAnnotation" style="font-weight:lighter"><tspan x="718.36" y="115.42">Jun 2: methodology</tspan><tspan x="718.36" y="128.785">change</tspan></text></g><g class="legendMark"><g class="indicator"><path d="M687.36,137.4 H700.86 V159.175 H714.36" stroke="#999" stroke-width="0.5" fill="none"></path></g><rect x="683.36" y="133.10000000000002" width="151.64" height="52.150000000000006" fill="#fff" opacity="0"></rect><text font-size="13.50" x="718.4" y="143.9" fill="#883039"><tspan x="718.36" y="143.90000000000003">United Kingdom</tspan></text><text font-size="12.15" x="718.4" y="156.3" fill="#333" class="textAnnotation" style="font-weight:lighter"><tspan x="718.36" y="156.32000000000002">May 20: methodology</tspan><tspan x="718.36" y="169.68500000000003">change &amp; Jul 3:</tspan><tspan x="718.36" y="183.05">methodology change</tspan></text></g><g class="legendMark"><g class="indicator"><path d="M687.36,196.7 H694.11 V213.32500000000005 H714.36" stroke="#999" stroke-width="0.5" fill="none"></path></g><rect x="683.36" y="187.25000000000003" width="148.3595" height="52.150000000000006" fill="#fff" opacity="0"></rect><text font-size="13.50" x="718.4" y="198.1" fill="#00823F"><tspan x="718.36" y="198.05000000000004">Spain</tspan></text><text font-size="12.15" x="718.4" y="210.5" fill="#333" class="textAnnotation" style="font-weight:lighter"><tspan x="718.36" y="210.47000000000003">Apr 19: methodology</tspan><tspan x="718.36" y="223.83500000000004">change &amp; Apr 25:</tspan><tspan x="718.36" y="237.20000000000005">methodology change</tspan></text></g><g class="legendMark"><g class="indicator"><path d="M687.36,451 H696.36 V435.325 H714.36" stroke="#999" stroke-width="0.5" fill="none"></path></g><rect x="683.36" y="428.575" width="59.84" height="13.5" fill="#fff" opacity="0"></rect><text font-size="13.50" x="718.4" y="439.4" fill="#B13507"><tspan x="718.36" y="439.375">Italy</tspan></text></g><g class="legendMark"><g class="indicator"><path d="M687.36,453 H705.36 V450.825 H714.36" stroke="#999" stroke-width="0.5" fill="none"></path></g><rect x="683.36" y="444.075" width="90.62" height="13.5" fill="#fff" opacity="0"></rect><text font-size="13.50" x="718.4" y="454.9" fill="#00847E"><tspan x="718.36" y="454.875">Germany</tspan></text></g><g class="legendMark"><g class="indicator"><path d="M687.36,464.9 H705.36 V466.325 H714.36" stroke="#999" stroke-width="0.5" fill="none"></path></g><rect x="683.36" y="459.575" width="89.135" height="13.5" fill="#fff" opacity="0"></rect><text font-size="13.50" x="718.4" y="470.4" fill="#CF0A66"><tspan x="718.36" y="470.375">Romania</tspan></text></g><g class="legendMark"><g class="indicator"><path d="M687.36,465.4 H696.36 V481.825 H714.36" stroke="#999" stroke-width="0.5" fill="none"></path></g><rect x="683.36" y="475.075" width="77.255" height="13.5" fill="#fff" opacity="0"></rect><text font-size="13.50" x="718.4" y="485.9" fill="#6D3E91"><tspan x="718.36" y="485.875">Poland</tspan></text></g></g><g class="Lines"><rect x="70" y="92" width="613" height="443" fill="rgba(255,255,255,0)" opacity="0"></rect><g class="key-France_0"><path stroke="#3C4E66" stroke-linecap="round" d="M70 529L73 527L76 525L79 523L82 520L85 516L87 513L90 508L93 504L96 500L99 493L102 489L105 484L108 480L111 467L114 460L117 452L120 441L123 430L125 415L128 410L131 407L134 380L137 370L140 380L143 372L146 374L149 378L152 380L155 400L158 405L161 394L163 398L166 404L169 406L172 412L175 403L178 410L181 418L184 439L187 442L190 446L193 449L196 464L198 468L201 473L204 466L207 471L210 473L213 478L216 486L219 487L222 490L225 496L228 500L231 500L234 504L236 503L239 490L242 493L245 493L248 494L251 495L254 496L257 498L260 517L263 517L266 517L269 517L272 518L274 518L277 519L280 519L283 521L286 522L289 522L292 522L295 523L298 524L301 525L304 510L307 509L309 501L312 500L315 500L318 505L321 505L324 518L327 518L330 524L333 524L336 524L339 518L342 517L345 519L347 519L350 519L353 518L356 519L359 519L362 520L365 519L368 519L371 518L374 519L377 518L380 517L383 519L385 521L388 517L391 521L394 522L397 517L400 517L403 513L406 509L409 514L412 514L415 514L418 514L420 515L423 516L426 516L429 516L432 516L435 516L438 514L441 517L444 515L447 516L450 515L453 515L456 515L458 513L461 510L464 509L467 506L470 505L473 505L476 505L479 502L482 502L485 500L488 498L491 497L494 497L496 497L499 493L502 491L505 489L508 488L511 483L514 483L517 483L520 476L523 474L526 470L529 464L532 461L534 444L537 428L540 451L543 446L546 440L549 429L552 420L555 419L558 409L561 401L564 396L567 387L569 380L572 366L575 356L578 353L581 347L584 339L587 330L590 325L593 317L596 301L599 292L602 286L605 278L607 270L610 256L613 254L616 243L619 243L622 232L625 226L628 219L631 216L634 196L637 180L640 158L643 167L645 156L648 139L651 110L654 97L657 92L660 95L663 96L666 106L669 107L672 118L675 137L678 124L680 116L683 111" fill="none" stroke-width="1.5"></path></g><g class="key-Italy_0"><path stroke="#B13507" stroke-linecap="round" d="M70 498L73 496L76 487L79 477L82 468L85 456L87 449L90 438L93 424L96 415L99 401L102 383L105 367L108 353L111 349L114 340L117 334L120 330L123 330L125 333L128 335L131 339L134 345L137 347L140 355L143 362L146 368L149 373L152 375L155 380L158 385L161 388L163 391L166 392L169 393L172 395L175 396L178 402L181 404L184 406L187 412L190 418L193 423L196 424L198 420L201 426L204 428L207 434L210 438L213 441L216 444L219 451L222 455L225 460L228 463L231 468L234 470L236 476L239 479L242 481L245 485L248 489L251 492L254 494L257 493L260 496L263 498L266 501L269 502L272 502L274 504L277 507L280 508L283 510L286 511L289 512L292 512L295 513L298 515L301 516L304 516L307 517L309 518L312 519L315 520L318 520L321 521L324 523L327 523L330 524L333 525L336 525L339 525L342 525L345 524L347 526L350 526L353 525L356 525L359 525L362 525L365 525L368 526L371 527L374 528L377 528L380 528L383 527L385 527L388 525L391 526L394 526L397 526L400 526L403 528L406 529L409 529L412 529L415 529L418 528L420 528L423 528L426 528L429 528L432 528L435 528L438 528L441 528L444 528L447 528L450 528L453 528L456 528L458 528L461 528L464 527L467 527L470 527L473 527L476 527L479 527L482 526L485 526L488 526L491 525L494 525L496 525L499 525L502 525L505 525L508 525L511 524L514 524L517 522L520 522L523 521L526 520L529 520L532 519L534 518L537 518L540 518L543 518L546 517L549 515L552 513L555 511L558 507L561 504L564 501L567 498L569 495L572 492L575 490L578 489L581 489L584 488L587 489L590 489L593 487L596 486L599 486L602 486L605 484L607 483L610 482L613 483L616 484L619 483L622 483L625 484L628 484L631 484L634 483L637 482L640 481L643 480L645 479L648 478L651 477L654 477L657 475L660 474L663 474L666 472L669 471L672 467L675 464L678 459L680 455L683 451" fill="none" stroke-width="1.5"></path></g><g class="key-Germany_0"><path stroke="#00847E" stroke-linecap="round" d="M70 530L73 530L76 529L79 525L82 523L85 520L87 515L90 510L93 505L96 501L99 474L102 457L105 444L108 432L111 415L114 409L117 388L120 389L123 377L125 374L128 366L131 365L134 349L137 343L140 341L143 342L146 332L149 337L152 341L155 349L158 355L161 360L163 370L166 386L169 392L172 401L175 409L178 420L181 430L184 433L187 434L190 438L193 440L196 441L198 444L201 449L204 457L207 461L210 465L213 468L216 473L219 478L222 481L225 487L228 492L231 494L234 496L236 498L239 499L242 501L245 500L248 500L251 502L254 501L257 502L260 503L263 505L266 508L269 509L272 509L274 511L277 511L280 512L283 514L286 514L289 515L292 515L295 516L298 518L301 520L304 518L307 518L309 519L312 518L315 520L318 520L321 520L324 521L327 522L330 522L333 523L336 522L339 522L342 522L345 523L347 523L350 523L353 524L356 523L359 523L362 523L365 520L368 519L371 517L374 515L377 514L380 513L383 513L385 514L388 514L391 516L394 518L397 518L400 518L403 519L406 519L409 521L412 521L415 521L418 521L420 522L423 522L426 522L429 523L432 523L435 523L438 523L441 523L444 522L447 521L450 521L453 521L456 520L458 520L461 519L464 519L467 518L470 517L473 516L476 516L479 515L482 514L485 512L488 512L491 511L494 511L496 510L499 509L502 509L505 505L508 503L511 503L514 500L517 501L520 500L523 498L526 499L529 498L532 496L534 496L537 495L540 493L543 495L546 494L549 490L552 491L555 490L558 489L561 490L564 486L567 487L569 491L572 489L575 489L578 490L581 490L584 492L587 493L590 493L593 494L596 493L599 492L602 490L605 491L607 488L610 487L613 486L616 486L619 486L622 486L625 482L628 481L631 479L634 475L637 473L640 473L643 471L645 472L648 472L651 471L654 470L657 469L660 468L663 466L666 466L669 464L672 462L675 461L678 457L680 456L683 453" fill="none" stroke-width="1.5"></path></g><g class="key-Poland_0"><path stroke="#6D3E91" stroke-linecap="round" d="M70 535L73 535L76 535L79 535L82 535L85 535L87 535L90 535L93 534L96 534L99 534L102 533L105 533L108 533L111 532L114 532L117 531L120 531L123 530L125 530L128 529L131 529L134 528L137 528L140 526L143 525L146 525L149 524L152 523L155 522L158 522L161 522L163 522L166 521L169 522L172 522L175 523L178 523L181 523L184 523L187 523L190 522L193 522L196 522L198 522L201 522L204 522L207 522L210 523L213 523L216 523L219 523L222 523L225 524L228 524L231 525L234 524L236 524L239 524L242 524L245 524L248 524L251 523L254 523L257 522L260 523L263 522L266 522L269 522L272 522L274 522L277 523L280 522L283 522L286 522L289 521L292 521L295 521L298 521L301 521L304 521L307 522L309 522L312 523L315 522L318 523L321 524L324 524L327 524L330 523L333 521L336 520L339 519L342 519L345 519L347 519L350 520L353 521L356 522L359 522L362 520L365 521L368 521L371 522L374 522L377 523L380 523L383 524L385 524L388 525L391 524L394 525L397 525L400 526L403 525L406 525L409 525L412 525L415 525L418 525L420 525L423 525L426 526L429 526L432 526L435 525L438 525L441 525L444 524L447 524L450 524L453 524L456 524L458 524L461 523L464 523L467 522L470 522L473 520L476 520L479 520L482 519L485 518L488 517L491 516L494 516L496 515L499 514L502 513L505 513L508 512L511 511L514 510L517 510L520 510L523 510L526 510L529 510L532 509L534 510L537 510L540 510L543 510L546 510L549 510L552 510L555 509L558 509L561 509L564 508L567 508L569 508L572 508L575 509L578 509L581 509L584 510L587 511L590 512L593 513L596 514L599 515L602 516L605 517L607 518L610 518L613 519L616 518L619 518L622 518L625 517L628 516L631 514L634 513L637 511L640 509L643 507L645 506L648 504L651 503L654 499L657 496L660 493L663 490L666 487L669 484L672 480L675 476L678 472L680 479L683 465" fill="none" stroke-width="1.5"></path></g><g class="key-Romania_0"><path stroke="#CF0A66" stroke-linecap="round" d="M70 535L73 535L76 535L79 535L82 535L85 535L87 535L90 534L93 534L96 534L99 534L102 534L105 534L108 534L111 533L114 533L117 532L120 531L123 530L125 530L128 528L131 528L134 528L137 527L140 526L143 526L146 524L149 524L152 524L155 524L158 523L161 523L163 523L166 523L169 523L172 522L175 523L178 523L181 522L184 522L187 523L190 523L193 523L196 523L198 522L201 523L204 523L207 524L210 523L213 523L216 523L219 524L222 524L225 524L228 524L231 524L234 524L236 524L239 524L242 524L245 524L248 523L251 524L254 525L257 525L260 526L263 526L266 527L269 527L272 528L274 528L277 528L280 528L283 528L286 529L289 529L292 529L295 529L298 529L301 529L304 529L307 529L309 529L312 529L315 530L318 530L321 530L324 530L327 530L330 529L333 529L336 529L339 529L342 529L345 529L347 529L350 528L353 527L356 527L359 527L362 526L365 525L368 525L371 525L374 525L377 524L380 524L383 525L385 524L388 523L391 523L394 524L397 523L400 523L403 523L406 523L409 523L412 522L415 522L418 522L420 522L423 520L426 520L429 519L432 517L435 517L438 516L441 515L444 514L447 513L450 512L453 511L456 510L458 508L461 507L464 504L467 503L470 501L473 499L476 497L479 495L482 494L485 493L488 492L491 491L494 492L496 492L499 493L502 493L505 492L508 492L511 492L514 491L517 491L520 491L523 491L526 491L529 490L532 490L534 490L537 490L540 490L543 491L546 491L549 492L552 492L555 493L558 493L561 493L564 493L567 494L569 493L572 493L575 492L578 492L581 493L584 493L587 492L590 493L593 493L596 494L599 493L602 492L605 491L607 492L610 492L613 491L616 491L619 491L622 492L625 492L628 490L631 489L634 488L637 488L640 487L643 486L645 487L648 486L651 487L654 486L657 485L660 484L663 482L666 479L669 477L672 475L675 471L678 469L680 476L683 465" fill="none" stroke-width="1.5"></path></g><g class="key-United-Kingdom_0"><path stroke="#883039" stroke-linecap="round" d="M70 533L73 533L76 532L79 530L82 528L85 526L87 524L90 522L93 520L96 517L99 514L102 511L105 507L108 502L111 498L114 489L117 480L120 471L123 461L125 451L128 442L131 435L134 425L137 414L140 402L143 393L146 384L149 378L152 374L155 369L158 364L161 363L163 363L166 366L169 368L172 368L175 374L178 380L181 380L184 378L187 375L190 369L193 367L196 363L198 361L201 359L204 360L207 360L210 365L213 367L216 367L219 368L222 368L225 369L228 370L231 373L234 375L236 382L239 388L242 396L245 402L248 411L251 416L254 420L257 419L260 420L263 423L266 429L269 432L272 432L274 435L277 440L280 442L283 445L286 445L289 447L292 450L295 453L298 458L301 465L304 470L307 474L309 477L312 479L315 480L318 481L321 482L324 485L327 487L330 489L333 491L336 493L339 495L342 496L345 497L347 498L350 499L353 498L356 498L359 498L362 498L365 499L368 499L371 500L374 501L377 502L380 502L383 503L385 505L388 506L391 508L394 508L397 509L400 510L403 511L406 512L409 513L412 513L415 514L418 514L420 514L423 514L426 514L429 513L432 513L435 513L438 514L441 514L444 514L447 513L450 513L453 513L456 513L458 513L461 512L464 512L467 512L470 512L473 511L476 512L479 512L482 516L485 516L488 515L491 514L494 514L496 512L499 509L502 506L505 506L508 505L511 505L514 505L517 503L520 504L523 502L526 501L529 500L532 497L534 495L537 496L540 496L543 496L546 497L549 497L552 499L555 498L558 498L561 497L564 496L567 495L569 493L572 492L575 493L578 489L581 487L584 487L587 484L590 483L593 480L596 476L599 469L602 461L605 455L607 449L610 443L613 435L616 426L619 424L622 426L625 423L628 416L631 413L634 409L637 404L640 401L643 392L645 383L648 372L651 355L654 341L657 333L660 324L663 325L666 314L669 309L672 308L675 307L678 272L680 182L683 137" fill="none" stroke-width="1.5"></path></g><g class="key-Spain_0"><path stroke="#00823F" stroke-linecap="round" d="M70 524L73 520L76 514L79 507L82 500L85 490L87 484L90 475L93 460L96 445L99 430L102 410L105 396L108 381L111 354L114 328L117 303L120 279L123 264L125 256L128 250L131 248L134 254L137 261L140 271L143 279L146 284L149 295L152 310L155 320L158 329L161 343L163 354L166 363L169 366L172 377L175 383L178 393L181 397L184 401L187 424L190 429L193 430L196 441L198 445L201 454L204 461L207 449L210 452L213 459L216 467L219 475L222 479L225 486L228 489L231 496L234 498L236 498L239 500L242 501L245 503L248 490L251 491L254 494L257 496L260 496L263 499L266 500L269 515L272 515L274 516L277 515L280 517L283 511L286 511L289 512L292 516L295 513L298 513L301 510L304 516L307 515L309 516L312 513L315 516L318 517L321 521L324 523L327 525L330 524L333 525L336 525L339 525L342 525L345 524L347 523L350 523L353 523L356 523L359 523L362 522L365 523L368 523L371 523L374 523L377 523L380 523L383 524L385 523L388 522L391 522L394 523L397 522L400 522L403 522L406 522L409 525L412 526L415 521L418 520L420 521L423 520L426 518L429 518L432 518L435 514L438 512L441 509L444 505L447 502L450 502L453 502L456 489L458 486L461 483L464 477L467 472L470 472L473 472L476 463L479 460L482 457L485 456L488 452L491 452L494 452L496 440L499 420L502 415L505 408L508 401L511 401L514 401L517 401L520 412L523 411L526 393L529 387L532 387L534 387L537 348L540 340L543 322L546 324L549 311L552 311L555 311L558 294L561 284L564 281L567 267L569 259L572 259L575 259L578 237L581 232L584 225L587 229L590 225L593 225L596 225L599 210L602 205L605 204L607 194L610 185L613 185L616 185L619 181L622 179L625 166L628 164L631 152L634 152L637 152L640 131L643 124L645 124L648 127L651 138L654 138L657 138L660 136L663 141L666 142L669 149L672 154L675 154L678 154L680 197" fill="none" stroke-width="1.5"></path></g></g></g></g><g class="SourcesFooter" style="fill:#777"><g class="clickable" style="fill:#777"><text font-size="12.60" x="15.0" y="581.6"><tspan x="15" y="581.58">Source: European CDC – Situation Update Worldwide – Last updated 6 October, 10:06 (London time)</tspan></text></g><text font-size="12.60" x="796.4" y="581.6"><tspan x="796.444" y="581.58"><a style="fill: #777;" class="cclogo" href="http://creativecommons.org/licenses/by/4.0/deed.en_US" target="_blank">CC BY</a></tspan></text></g></svg>