<svg id="sample_content" data-name="sample content" xmlns="http://www.w3.org/2000/svg" viewBox="0 0 680 445.54"><defs><style>.cls-1,.cls-8{fill:none}.cls-1{stroke:#e6d9ce}.cls-3,.cls-4{fill:#36baf2}.cls-4,.cls-8{stroke:#000}.cls-5{fill:#66605c}.cls-8{stroke-width:.75px}</style></defs><path class="cls-1" d="M72.57 387.17h582.54M72.57 322.58h582.54M72.57 257.97h582.54M72.57 193.36h582.54M72.57 128.75h589.07"/><path d="M71.63 64.15h598.41M79.57 401.78V23.71" stroke="#cec6b9" fill="none"/><path class="cls-1" d="M239.16 401.78V23.71m159.58 378.07V23.71m159.6 378.07V23.71"/><path class="cls-3" d="M98 157.19a4.17 4.17 0 114.17 4.16 4.18 4.18 0 01-4.17-4.16m39.54 91.74a4.16 4.16 0 114.15 4.16 4.17 4.17 0 01-4.15-4.16"/><path class="cls-4" d="M641.89 260.56a4.17 4.17 0 114.16 4.16 4.18 4.18 0 01-4.16-4.16m-403.71-23.27a4.16 4.16 0 114.17 4.17 4.18 4.18 0 01-4.17-4.17M524 201.11a4.17 4.17 0 114.17 4.17 4.17 4.17 0 01-4.17-4.17m-95.63 78.83a4.17 4.17 0 114.16 4.16 4.18 4.18 0 01-4.16-4.16"/><path class="cls-3" d="M134.46 215.33a4.16 4.16 0 114.15 4.16 4.18 4.18 0 01-4.15-4.16"/><path class="cls-4" d="M148.8 177.86A4.17 4.17 0 11153 182a4.18 4.18 0 01-4.16-4.17"/><path class="cls-3" d="M108.12 163.64a4.17 4.17 0 114.17 4.17 4.18 4.18 0 01-4.17-4.17"/><path class="cls-4" d="M115.42 137.81a4.16 4.16 0 114.15 4.15 4.17 4.17 0 01-4.15-4.15M387 308.36a4.17 4.17 0 114.16 4.16 4.18 4.18 0 01-4.16-4.16"/><path class="cls-3" d="M102.15 252.81a4.16 4.16 0 114.17 4.15 4.17 4.17 0 01-4.17-4.15m36.5 3.87a4.17 4.17 0 114.17 4.16 4.18 4.18 0 01-4.17-4.16m-45.58-7.75a4.17 4.17 0 114.16 4.16 4.18 4.18 0 01-4.16-4.16"/><path class="cls-4" d="M311.3 167.52a4.17 4.17 0 114.16 4.17 4.17 4.17 0 01-4.16-4.17"/><path class="cls-3" d="M215.23 190.77a4.16 4.16 0 114.16 4.17 4.17 4.17 0 01-4.16-4.17"/><path class="cls-4" d="M458.29 294.14a4.17 4.17 0 114.16 4.17 4.17 4.17 0 01-4.16-4.17"/><path class="cls-3" d="M88.75 183a4.17 4.17 0 114.17 4.17 4.18 4.18 0 01-4.17-4.17M99 139.1a4.16 4.16 0 114.15 4.15A4.17 4.17 0 0199 139.1M209.28 174a4.16 4.16 0 114.15 4.17 4.18 4.18 0 01-4.15-4.17"/><path class="cls-4" d="M493.93 296.73a4.16 4.16 0 114.17 4.16 4.18 4.18 0 01-4.17-4.16M317.55 192.07a4.17 4.17 0 114.17 4.16 4.18 4.18 0 01-4.17-4.16"/><path class="cls-3" d="M108.23 150.72a4.16 4.16 0 114.16 4.16 4.18 4.18 0 01-4.16-4.16M125.91 183a4.16 4.16 0 114.16 4.17 4.18 4.18 0 01-4.16-4.17"/><path class="cls-4" d="M204.7 286.39a4.16 4.16 0 114.17 4.17 4.18 4.18 0 01-4.17-4.17"/><path class="cls-3" d="M82.54 232.12a4.17 4.17 0 114.16 4.17 4.17 4.17 0 01-4.16-4.17m36.27 15.51a4.17 4.17 0 114.19 4.17 4.18 4.18 0 01-4.17-4.17"/><path class="cls-4" d="M521.93 349.71a4.16 4.16 0 114.16 4.16 4.17 4.17 0 01-4.16-4.16m-80.71-180.89a4.16 4.16 0 114.16 4.15 4.17 4.17 0 01-4.16-4.15"/><path class="cls-3" d="M208.89 199.83a4.17 4.17 0 114.16 4.15 4.17 4.17 0 01-4.16-4.15M143 207.58a4.16 4.16 0 114.17 4.16 4.17 4.17 0 01-4.17-4.16"/><path class="cls-4" d="M484.68 345.84a4.16 4.16 0 114.15 4.15 4.17 4.17 0 01-4.15-4.15m-9.07-151.19a4.17 4.17 0 114.17 4.17 4.18 4.18 0 01-4.17-4.17M414.45 318.7a4.17 4.17 0 114.17 4.16 4.18 4.18 0 01-4.17-4.16m116.13-100.79a4.17 4.17 0 114.17 4.17 4.18 4.18 0 01-4.17-4.17"/><path class="cls-3" d="M157 189.49a4.16 4.16 0 114.15 4.17 4.17 4.17 0 01-4.15-4.17"/><path class="cls-4" d="M126.4 384.6a4.17 4.17 0 114.16 4.15 4.17 4.17 0 01-4.16-4.15"/><path class="cls-3" d="M253.85 219.21a4.17 4.17 0 114.17 4.16 4.17 4.17 0 01-4.17-4.16m-78.53-102.08a4.16 4.16 0 114.16 4.16 4.17 4.17 0 01-4.16-4.16m-5.98 21.97a4.17 4.17 0 114.17 4.15 4.18 4.18 0 01-4.17-4.15"/><path class="cls-4" d="M269.22 279.94a4.17 4.17 0 114.17 4.16 4.18 4.18 0 01-4.17-4.16"/><path d="M598.69 267c0 1.79-1.25 2.77-3.27 2.77h-3.55v-9.83h3.23c2 0 3.25.91 3.25 2.61a2.1 2.1 0 01-1.44 2.13 2.37 2.37 0 011.78 2.32zm-3.59-2.79c1.31 0 2-.53 2-1.6s-.72-1.57-2-1.57h-2v3.17zm-2 4.45h2.32c1.33 0 2-.67 2-1.69s-.7-1.7-2-1.7h-2.32zm7.95-2.25a2.27 2.27 0 002.39 2.43 3.05 3.05 0 002-.67v1.11a3.45 3.45 0 01-2.16.62 3.3 3.3 0 01-3.42-3.63c0-2.21 1.28-3.76 3.16-3.76S606 263.9 606 266v.43zm.06-.94h3.67c0-1-.58-1.94-1.73-1.94-.94 0-1.71.62-1.94 1.94zm7.67 4.29h-1.2v-10.41h1.2zm6.78-.95a2.48 2.48 0 01-2 1c-2.08 0-3.17-1.73-3.17-3.63s1.09-3.63 3.17-3.63a2.47 2.47 0 012 .94v-.8h1.22v6.55a3.24 3.24 0 01-3.47 3.44A4.11 4.11 0 01611 272v-1.33a3.15 3.15 0 002.29.88 2.1 2.1 0 002.25-2.27zm0-4.13a2 2 0 00-1.8-1.1c-1.35 0-2.13 1.07-2.13 2.56s.78 2.54 2.13 2.54a2 2 0 001.8-1.1zm3.94-3.41a.78.78 0 01-.77-.77.78.78 0 011.55 0 .78.78 0 01-.78.77zm.61 8.49h-1.2v-7.11h1.2zm7.81 0h-1.22v-.9a2.56 2.56 0 01-2.07 1 2.34 2.34 0 01-2.48-2.59v-4.66h1.22v4.47a1.47 1.47 0 001.55 1.68 1.89 1.89 0 001.78-1.33v-4.82h1.22zm9.32-7.25c1.45 0 2.25 1 2.25 2.54v4.71h-1.22v-4.52c0-1-.43-1.65-1.35-1.65a1.65 1.65 0 00-1.56 1.27v4.9h-1.2v-4.52c0-1-.44-1.65-1.35-1.65a1.67 1.67 0 00-1.57 1.27v4.9H630v-7.11h1.2v.83a2.22 2.22 0 011.92-1 2.07 2.07 0 011.92 1.13 2.57 2.57 0 012.2-1.1zM251.71 239a4 4 0 012.64.85v1.33a3.63 3.63 0 00-2.63-1c-2 0-3.36 1.55-3.36 3.92s1.38 3.92 3.36 3.92a3.71 3.71 0 002.63-1v1.33a4 4 0 01-2.64.85c-2.63 0-4.61-2-4.61-5.06s1.98-5.14 4.61-5.14zm8.46 5.2c0-.88-.66-1.42-1.7-1.42a3.6 3.6 0 00-2 .62v-1.14a4.15 4.15 0 012.21-.59 2.36 2.36 0 012.67 2.44v4.81h-1.17v-.52a2.83 2.83 0 01-1.84.65 2.38 2.38 0 01-2.64-2.27c0-1.33 1.18-2.23 2.7-2.23a3 3 0 011.78.58zm0 2.23a1.72 1.72 0 00-1.65-.88c-.86 0-1.7.38-1.7 1.23s.84 1.26 1.7 1.26a1.72 1.72 0 001.65-.88zm3.21-4.61h1.2v.89a2.67 2.67 0 012.1-1 2.35 2.35 0 012.5 2.6v4.65H268v-4.46a1.48 1.48 0 00-1.57-1.68 1.93 1.93 0 00-1.81 1.33v4.81h-1.2zm11.78 2.38c0-.88-.65-1.42-1.69-1.42a3.6 3.6 0 00-2 .62v-1.14a4.17 4.17 0 012.21-.59 2.36 2.36 0 012.67 2.44v4.81h-1.17v-.52a2.83 2.83 0 01-1.84.65 2.38 2.38 0 01-2.64-2.27c0-1.33 1.18-2.23 2.71-2.23a3 3 0 011.77.58zm0 2.23a1.71 1.71 0 00-1.65-.88c-.86 0-1.69.38-1.69 1.23s.83 1.26 1.69 1.26a1.71 1.71 0 001.65-.88zm7.91 1.66a2.52 2.52 0 01-2 1c-2.08 0-3.21-1.68-3.21-3.7s1.13-3.7 3.21-3.7a2.52 2.52 0 012 1v-4.13h1.21v10.4h-1.21zm0-4.16a2.05 2.05 0 00-1.83-1.17c-1.36 0-2.16 1.11-2.16 2.61s.8 2.61 2.16 2.61a2.05 2.05 0 001.83-1.17zm7.29.27c0-.88-.65-1.42-1.69-1.42a3.6 3.6 0 00-2 .62v-1.14a4.17 4.17 0 012.21-.59 2.36 2.36 0 012.67 2.44v4.81h-1.17v-.52a2.83 2.83 0 01-1.84.65 2.38 2.38 0 01-2.64-2.27c0-1.33 1.19-2.23 2.71-2.23a3 3 0 011.77.58zm0 2.23a1.71 1.71 0 00-1.65-.88c-.86 0-1.69.38-1.69 1.23s.83 1.26 1.69 1.26a1.71 1.71 0 001.65-.88zM409.44 263a4 4 0 012.64.85v1.33a3.63 3.63 0 00-2.63-1c-2 0-3.36 1.55-3.36 3.92s1.38 3.92 3.36 3.92a3.71 3.71 0 002.63-1v1.33a4 4 0 01-2.64.85c-2.63 0-4.61-2-4.61-5.06s1.98-5.14 4.61-5.14zm7.26 10.14c-1.95 0-3.26-1.52-3.26-3.7s1.31-3.7 3.26-3.7 3.27 1.52 3.27 3.7-1.33 3.7-3.27 3.7zm0-6.34c-1.28 0-2.05 1.09-2.05 2.64s.77 2.64 2.05 2.64 2.05-1.09 2.05-2.64-.75-2.64-2.05-2.64zm6.1 6.2h-1.2v-10.4h1.2zm4.89.14c-1.95 0-3.26-1.52-3.26-3.7s1.31-3.7 3.26-3.7 3.27 1.52 3.27 3.7-1.33 3.7-3.27 3.7zm0-6.34c-1.28 0-2.05 1.09-2.05 2.64s.77 2.64 2.05 2.64 2.05-1.09 2.05-2.64-.74-2.64-2.05-2.64zm12.1-1.06c1.44 0 2.24 1 2.24 2.55V273h-1.21v-4.51c0-1-.44-1.65-1.35-1.65a1.67 1.67 0 00-1.57 1.27V273h-1.2v-4.51c0-1-.43-1.65-1.34-1.65a1.66 1.66 0 00-1.57 1.27V273h-1.2v-7.1h1.2v.83a2.22 2.22 0 011.92-1 2.09 2.09 0 011.92 1.14 2.58 2.58 0 012.16-1.13zm5.47 7.26H444v-10.4h1.22v4.13a2.51 2.51 0 012-1c2.08 0 3.2 1.7 3.2 3.7s-1.12 3.7-3.2 3.7a2.51 2.51 0 01-2-1zm0-2.11a2 2 0 001.83 1.17c1.36 0 2.16-1.1 2.16-2.61s-.8-2.61-2.16-2.61a2 2 0 00-1.83 1.17zm7.43-6.38a.77.77 0 11.78-.77.78.78 0 01-.78.77zm.6 8.48h-1.2v-7.1h1.2zm6.1-4.72c0-.88-.66-1.42-1.7-1.42a3.6 3.6 0 00-2 .62v-1.13a4.06 4.06 0 012.21-.6 2.36 2.36 0 012.67 2.44V273h-1.17v-.52a2.83 2.83 0 01-1.84.65 2.38 2.38 0 01-2.64-2.27c0-1.33 1.18-2.22 2.7-2.22a3 3 0 011.78.57zm0 2.23a1.72 1.72 0 00-1.65-.88c-.86 0-1.7.38-1.7 1.23s.84 1.26 1.7 1.26a1.72 1.72 0 001.65-.88zm-313.7-109.25h3.15a4.92 4.92 0 010 9.83h-3.15zm3.14 8.7c2.22 0 3.53-1.48 3.53-3.78s-1.31-3.8-3.53-3.8H147V170zm7.17-2.21a2.26 2.26 0 002.38 2.43 3.08 3.08 0 002-.67v1.1a3.43 3.43 0 01-2.16.63 3.32 3.32 0 01-3.43-3.64c0-2.21 1.28-3.76 3.17-3.76s2.91 1.39 2.91 3.47v.44zm.06-1h3.66c0-1-.57-1.93-1.72-1.93-1 .05-1.77.67-2 1.98zm6.41-2.74h1.2v.89a2.67 2.67 0 012.1-1 2.35 2.35 0 012.5 2.59v4.66h-1.22v-4.46a1.48 1.48 0 00-1.57-1.68 1.94 1.94 0 00-1.81 1.32v4.82h-1.2zm15.03-.17c1.44 0 2.24 1 2.24 2.55v4.7h-1.22v-4.51c0-1-.43-1.65-1.34-1.65a1.66 1.66 0 00-1.57 1.26v4.9h-1.2v-4.51c0-1-.43-1.65-1.34-1.65a1.66 1.66 0 00-1.57 1.26v4.9h-1.2V164h1.2v.83a2.22 2.22 0 011.92-1 2.1 2.1 0 011.92 1.14 2.58 2.58 0 012.16-1.14zm8.22 2.53c0-.88-.65-1.42-1.69-1.42a3.6 3.6 0 00-2 .62v-1.14a4.17 4.17 0 012.21-.59 2.36 2.36 0 012.67 2.43v4.82h-1.17v-.53a2.77 2.77 0 01-1.84.66 2.38 2.38 0 01-2.64-2.27c0-1.33 1.18-2.23 2.71-2.23a3 3 0 011.77.58zm0 2.23a1.71 1.71 0 00-1.65-.89c-.86 0-1.69.39-1.69 1.24s.83 1.26 1.69 1.26a1.71 1.71 0 001.65-.88zm6.87-3.41a1.53 1.53 0 00-.8-.2 1.72 1.72 0 00-1.65 1.33v4.77h-1.2V164h1.2v.92a2 2 0 011.76-1.07 1.85 1.85 0 01.69.11zm7.41 5.9h-1.49l-3.28-3.52v3.52h-1.2v-10.4h1.2V167l3.16-3H200l-3.49 3.24zm146 148.86v-9.83h6v1.12h-4.74v3.32h4.45v1.12h-4.45v4.27zm11.34-5.94a1.48 1.48 0 00-.8-.2 1.73 1.73 0 00-1.65 1.33v4.77h-1.2v-7.1h1.2v.92a2 2 0 011.76-1.07 1.81 1.81 0 01.69.11zm5.44 1.22c0-.88-.65-1.43-1.7-1.43a3.6 3.6 0 00-2 .63v-1.14a4.17 4.17 0 012.21-.59 2.36 2.36 0 012.67 2.43v4.82h-1.17v-.53a2.77 2.77 0 01-1.84.66 2.38 2.38 0 01-2.64-2.27c0-1.33 1.18-2.23 2.7-2.23a3 3 0 011.78.58zm0 2.22a1.73 1.73 0 00-1.65-.88c-.86 0-1.69.39-1.69 1.24s.83 1.26 1.69 1.26a1.71 1.71 0 001.65-.88zm3.22-4.6h1.2v.89a2.64 2.64 0 012.09-1 2.35 2.35 0 012.5 2.59v4.66h-1.22v-4.46a1.48 1.48 0 00-1.56-1.69 1.93 1.93 0 00-1.81 1.33v4.82H366zm10.73-.15a2.94 2.94 0 011.91.59v1.22a2.51 2.51 0 00-1.83-.74 2.65 2.65 0 000 5.25 2.5 2.5 0 001.83-.73v1.21a2.89 2.89 0 01-1.91.6 3.71 3.71 0 010-7.4zm4.27 3.91a2.27 2.27 0 002.39 2.43 3.05 3.05 0 002-.67v1.1a3.39 3.39 0 01-2.16.63 3.31 3.31 0 01-3.42-3.64c0-2.21 1.28-3.76 3.17-3.76s2.91 1.39 2.91 3.47v.44zm.07-1h3.66c-.05-1-.57-1.94-1.73-1.94-1 .05-1.74.68-2 1.99zm-56.18-150.19h-1.26v-9.83h1.26zm5.89-5.91a1.51 1.51 0 00-.8-.19 1.72 1.72 0 00-1.65 1.33v4.77h-1.2v-7.11h1.2v.93a2 2 0 011.76-1.07 1.67 1.67 0 01.69.11zm2.16 2.56a2.27 2.27 0 002.38 2.43 3.08 3.08 0 002-.67v1.11a3.47 3.47 0 01-2.16.62 3.31 3.31 0 01-3.43-3.63c0-2.21 1.28-3.76 3.17-3.76s2.91 1.39 2.91 3.47v.43zm.06-.94h3.67c-.05-1-.58-1.94-1.73-1.94-.94 0-1.71.62-1.94 1.94zm7.66 4.29h-1.2V155h1.2zm6.1-4.73c0-.88-.65-1.42-1.69-1.42a3.6 3.6 0 00-2 .62v-1.13a4.08 4.08 0 012.21-.59 2.35 2.35 0 012.67 2.43v4.82h-1.17v-.53a2.77 2.77 0 01-1.84.65 2.38 2.38 0 01-2.64-2.27c0-1.33 1.19-2.22 2.71-2.22a3 3 0 011.77.57zm0 2.23a1.71 1.71 0 00-1.65-.88c-.86 0-1.69.38-1.69 1.23s.83 1.27 1.69 1.27a1.73 1.73 0 001.65-.88zm3.24-4.61h1.2v.9a2.64 2.64 0 012.1-1 2.34 2.34 0 012.49 2.59v4.66h-1.21v-4.47a1.48 1.48 0 00-1.57-1.68 1.92 1.92 0 00-1.81 1.33v4.82H350zm12.49 6.27a2.48 2.48 0 01-2 1c-2.08 0-3.2-1.68-3.2-3.7s1.12-3.69 3.2-3.69a2.5 2.5 0 012 1V155h1.22v10.41h-1.22zm0-4.16a2.06 2.06 0 00-1.82-1.17c-1.36 0-2.17 1.11-2.17 2.61s.81 2.61 2.17 2.61a2 2 0 001.82-1.17zm80.1 147.83h-1.26v-9.83h1.26zm4.23 0h-1.2v-6.09h-1.49v-1h1.49v-1.87h1.2v1.87h1.65v1h-1.65zm7.05-4.72c0-.88-.65-1.43-1.69-1.43a3.6 3.6 0 00-2 .62v-1.13a4.08 4.08 0 012.21-.59 2.35 2.35 0 012.67 2.43v4.82h-1.17v-.53a2.77 2.77 0 01-1.84.66 2.39 2.39 0 01-2.64-2.28c0-1.33 1.19-2.22 2.71-2.22a3 3 0 011.77.57zm0 2.22a1.71 1.71 0 00-1.65-.88c-.86 0-1.69.38-1.69 1.23s.83 1.27 1.69 1.27a1.73 1.73 0 001.65-.88zm4.42 2.5h-1.2v-10.41h1.2zm3.05 2.76l1.08-2.67-2.77-7.16H461l2.09 5.6 2.07-5.6h1.25l-3.88 9.83zM45.76 176.53a3.07 3.07 0 001.89.7c1.17 0 1.67-.67 1.67-2.3v-6.52h1.26V175c0 2.36-1 3.4-2.9 3.4a3.58 3.58 0 01-1.92-.56zm10.82-3.01c0-.88-.65-1.43-1.7-1.43a3.53 3.53 0 00-2 .63v-1.14a4.17 4.17 0 012.21-.59 2.36 2.36 0 012.67 2.43v4.82h-1.18v-.53a2.77 2.77 0 01-1.84.66 2.38 2.38 0 01-2.64-2.27c0-1.33 1.18-2.23 2.7-2.23a2.93 2.93 0 011.78.58zm0 2.22a1.71 1.71 0 00-1.65-.88c-.86 0-1.69.39-1.69 1.24s.83 1.26 1.69 1.26a1.71 1.71 0 001.65-.88zM61 181h-1.2v-9.83H61v.83a2.49 2.49 0 012-1c2.09 0 3.2 1.73 3.2 3.7s-1.11 3.69-3.2 3.69a2.52 2.52 0 01-2-1zm0-4.83a2 2 0 001.82 1.17c1.36 0 2.16-1.11 2.16-2.61s-.8-2.61-2.16-2.61a2 2 0 00-1.82 1.13zm10.78-2.65c0-.88-.65-1.43-1.7-1.43a3.53 3.53 0 00-2 .63v-1.14a4.17 4.17 0 012.21-.59 2.36 2.36 0 012.71 2.43v4.82h-1.22v-.53a2.77 2.77 0 01-1.84.66 2.38 2.38 0 01-2.64-2.27c0-1.33 1.18-2.23 2.7-2.23a2.93 2.93 0 011.78.58zm0 2.22a1.71 1.71 0 00-1.65-.88c-.86 0-1.69.39-1.69 1.24s.83 1.26 1.69 1.26a1.71 1.71 0 001.65-.88zm3.22-4.61h1.2v.9a2.64 2.64 0 012.09-1 2.35 2.35 0 012.5 2.59v4.66h-1.22v-4.47a1.48 1.48 0 00-1.57-1.72 1.92 1.92 0 00-1.81 1.33v4.82H75zm-40.58-52.45a4.6 4.6 0 003.09 1.15c1.26 0 2.1-.54 2.1-1.55s-.53-1.22-1.57-1.65l-1.44-.56c-1.15-.45-2.21-1.1-2.21-2.66s1.46-2.57 3.15-2.57a5 5 0 012.82.8V113a4.36 4.36 0 00-2.8-1c-1.09 0-1.94.48-1.94 1.46 0 .83.56 1.18 1.47 1.53l1.56.61c1.5.58 2.17 1.36 2.17 2.72 0 1.68-1.41 2.69-3.31 2.69a5 5 0 01-3.09-.91zm11.44-3.33L50.3 111h1.58l-4.83 4.71 5 5.12h-1.66l-4.53-4.63v4.63H44.6V111h1.26zm9.46 5.65c-2 0-3.27-1.52-3.27-3.7s1.31-3.69 3.27-3.69 3.26 1.52 3.26 3.69-1.33 3.7-3.26 3.7zm0-6.34c-1.28 0-2 1.09-2 2.64s.77 2.65 2 2.65 2-1.09 2-2.65-.72-2.69-2-2.69zm8.54.24a1.48 1.48 0 00-.8-.19 1.73 1.73 0 00-1.65 1.29v4.77h-1.2v-7.07h1.2v.93a2 2 0 011.76-1.07 1.64 1.64 0 01.69.11zm2.14 2.56a2.28 2.28 0 002.39 2.44 3.06 3.06 0 002-.68v1.11a3.39 3.39 0 01-2.16.62 3.3 3.3 0 01-3.42-3.63c0-2.21 1.28-3.76 3.17-3.76s2.94 1.44 2.94 3.44v.43zm.06-.94h3.67c0-1-.58-1.94-1.73-1.94-.92 0-1.69.63-1.92 1.94zm10.44-.43c0-.88-.65-1.43-1.69-1.43a3.53 3.53 0 00-2 .63v-1.14a4.08 4.08 0 012.21-.59 2.35 2.35 0 012.65 2.44v4.82H76.5v-.53a2.77 2.77 0 01-1.84.66 2.38 2.38 0 01-2.66-2.29c0-1.33 1.18-2.22 2.71-2.22a3 3 0 011.77.57zm0 2.22a1.71 1.71 0 00-1.65-.88c-.86 0-1.69.38-1.69 1.23s.83 1.27 1.69 1.27a1.71 1.71 0 001.65-.88zM510.37 298.7l-3.37-5.37v7.56h-1.23v-9.83h1.16l3.49 5.65 3.48-5.65h1.1v9.83h-1.23v-7.56l-3.33 5.37zm7.54-1.16a2.27 2.27 0 002.38 2.44 3.08 3.08 0 002-.67v1.1a3.39 3.39 0 01-2.16.62 3.3 3.3 0 01-3.42-3.63c0-2.21 1.28-3.76 3.16-3.76s2.92 1.39 2.92 3.47v.43zm.06-.94h3.67c0-1-.58-1.94-1.73-1.94-.91 0-1.71.63-1.91 1.94zm9.65.61l2.64 3.68h-1.36l-2-2.77-2 2.77h-1.3l2.63-3.63-2.48-3.48h1.37l1.8 2.55 1.84-2.55h1.31zm4.59-4.8a.79.79 0 01-.77-.77.78.78 0 011.56 0 .79.79 0 01-.79.77zm.61 8.48h-1.2v-7.11h1.2zm5.06-7.25a2.89 2.89 0 011.9.59v1.22a2.48 2.48 0 00-1.82-.74 2.65 2.65 0 000 5.25 2.47 2.47 0 001.82-.73v1.21a2.89 2.89 0 01-1.9.59 3.71 3.71 0 010-7.39zm6.32 7.36c-2 0-3.27-1.52-3.27-3.69s1.31-3.7 3.27-3.7 3.26 1.52 3.26 3.7-1.33 3.69-3.26 3.69zm0-6.33c-1.28 0-2.05 1.08-2.05 2.64s.77 2.64 2.05 2.64 2-1.09 2-2.64-.72-2.61-2-2.61zm-219.93-86.08h-.93l-5.49-7.82v7.82h-1.22v-9.83h1.2l5.24 7.47v-7.47h1.2zm2.91-3.35a2.26 2.26 0 002.38 2.43 3.08 3.08 0 002-.67v1.11a3.49 3.49 0 01-2.16.62 3.31 3.31 0 01-3.4-3.63c0-2.21 1.28-3.76 3.17-3.76s2.91 1.39 2.91 3.47v.43zm.06-.94h3.66c0-1-.57-1.94-1.72-1.94-.95 0-1.72.64-1.94 1.94zm8.45 4.29h-1.2v-6.09H333v-1h1.49v-1.87h1.2v1.87h1.65v1h-1.65zm3.1-10.41H340v4.2a2.67 2.67 0 012.1-1 2.35 2.35 0 012.5 2.59v4.66h-1.22v-4.47a1.48 1.48 0 00-1.57-1.68 1.93 1.93 0 00-1.81 1.33v4.82h-1.2zm8.5 7.06a2.26 2.26 0 002.38 2.43 3.08 3.08 0 002-.67v1.11a3.47 3.47 0 01-2.16.62 3.31 3.31 0 01-3.43-3.63c0-2.21 1.28-3.76 3.17-3.76s2.91 1.39 2.91 3.47v.43zm.06-.94H351c0-1-.58-1.94-1.73-1.94-.93 0-1.7.64-1.92 1.94zm10.11-1.62a1.48 1.48 0 00-.8-.19 1.72 1.72 0 00-1.65 1.33v4.77h-1.2v-7.11H355v.93a2 2 0 011.77-1.07 1.58 1.58 0 01.68.11zm2.69 5.91H359v-10.41h1.2zm6.1-4.73c0-.88-.66-1.42-1.7-1.42a3.65 3.65 0 00-2 .62v-1.13a4.11 4.11 0 012.21-.59c1.68 0 2.68.92 2.68 2.43v4.82h-1.17v-.53a2.77 2.77 0 01-1.84.65 2.38 2.38 0 01-2.64-2.27c0-1.33 1.18-2.22 2.7-2.22a3 3 0 011.78.57zm0 2.23a1.72 1.72 0 00-1.65-.88c-.86 0-1.7.38-1.7 1.23s.84 1.27 1.7 1.27a1.74 1.74 0 001.65-.88zm3.21-4.61h1.2v.9a2.67 2.67 0 012.1-1 2.35 2.35 0 012.5 2.59v4.66H374v-4.47a1.48 1.48 0 00-1.57-1.68 1.93 1.93 0 00-1.81 1.33v4.82h-1.2zm12.54 6.27a2.49 2.49 0 01-2 1c-2.09 0-3.21-1.68-3.21-3.7s1.12-3.69 3.21-3.69a2.52 2.52 0 012 1v-4.13h1.21v10.41H382zm0-4.16a2.07 2.07 0 00-1.83-1.17c-1.36 0-2.16 1.11-2.16 2.61s.8 2.61 2.16 2.61a2.05 2.05 0 001.83-1.17zm2.9 3.16a3.48 3.48 0 002.34 1c.78 0 1.47-.29 1.47-1 0-.52-.4-.81-1-1l-1-.34c-1.07-.35-1.79-.86-1.79-2s1.1-2 2.51-2a3.67 3.67 0 012.11.62v1.25a3.14 3.14 0 00-2.11-.85c-.73 0-1.34.32-1.34.93s.38.77 1.05 1l1.09.36a2.07 2.07 0 011.67 2c0 1.31-1.17 2.06-2.66 2.06a4 4 0 01-2.34-.7zm-281.3 30.91h-.93l-5.49-7.81v7.81H96v-9.83h1.2l5.24 7.47v-7.47h1.2zm2.91-3.35a2.27 2.27 0 002.38 2.44 3.09 3.09 0 002-.68v1.11a3.41 3.41 0 01-2.16.62 3.31 3.31 0 01-3.43-3.63c0-2.21 1.28-3.76 3.17-3.76s2.91 1.39 2.91 3.47v.43zm.06-.94h3.67c0-1-.58-1.94-1.73-1.94-.95 0-1.72.63-1.94 1.94zM119 236l1.57-5.43h1.17l-2.09 7.11h-1.17l-1.48-5.4-1.48 5.4h-1.17l-2.1-7.11h1.2L115 236l1.46-5.43h1.07zm14.44 1.66H126v-.07l5.5-8.59h-5.22v-1.12h7.2v.06l-5.42 8.63h5.38zm2.33-3.35a2.27 2.27 0 002.38 2.44 3.09 3.09 0 002-.68v1.11a3.39 3.39 0 01-2.16.62 3.3 3.3 0 01-3.42-3.63c0-2.21 1.28-3.76 3.16-3.76s2.92 1.39 2.92 3.47v.43zm.06-.94h3.67c-.05-1-.58-1.94-1.73-1.94-.94 0-1.71.63-1.94 1.94zm10.42-.43c0-.88-.65-1.43-1.7-1.43a3.53 3.53 0 00-2 .63V231a4.08 4.08 0 012.21-.59 2.36 2.36 0 012.67 2.43v4.82h-1.17v-.53a2.77 2.77 0 01-1.84.66 2.38 2.38 0 01-2.64-2.28c0-1.33 1.18-2.22 2.7-2.22a3 3 0 011.78.57zm0 2.22a1.71 1.71 0 00-1.65-.88c-.86 0-1.69.38-1.69 1.23s.83 1.27 1.69 1.27a1.71 1.71 0 001.65-.88zm4.42 2.5h-1.2v-10.41h1.2zm6.09-4.72c0-.88-.65-1.43-1.69-1.43a3.53 3.53 0 00-2 .63V231a4.08 4.08 0 012.21-.59 2.36 2.36 0 012.67 2.43v4.82h-1.17v-.53a2.77 2.77 0 01-1.84.66 2.39 2.39 0 01-2.64-2.28c0-1.33 1.19-2.22 2.71-2.22a3 3 0 011.77.57zm0 2.22a1.71 1.71 0 00-1.65-.88c-.86 0-1.69.38-1.69 1.23s.83 1.27 1.69 1.27a1.71 1.71 0 001.65-.88zm3.24-4.61h1.2v.9a2.64 2.64 0 012.1-1 2.34 2.34 0 012.49 2.59v4.66h-1.21v-4.47a1.48 1.48 0 00-1.57-1.68 1.92 1.92 0 00-1.81 1.33v4.82H160zm12.49 6.28a2.5 2.5 0 01-2 1c-2.08 0-3.2-1.68-3.2-3.7s1.12-3.69 3.2-3.69a2.5 2.5 0 012 1v-4.13h1.22v10.41h-1.22zm0-4.17a2 2 0 00-1.82-1.16c-1.36 0-2.16 1.1-2.16 2.6s.8 2.61 2.16 2.61a2 2 0 001.82-1.17zm13.82 64.54v3.93H185v-9.82h3.64c2 0 3.28 1 3.28 2.94s-1.3 2.95-3.28 2.95zm2.35-4.79h-2.35v3.67h2.35c1.33 0 2.05-.72 2.05-1.83s-.71-1.84-2.05-1.84zm7.63 8.87c-1.95 0-3.26-1.52-3.26-3.7s1.31-3.7 3.26-3.7 3.27 1.52 3.27 3.7-1.33 3.7-3.27 3.7zm0-6.34c-1.28 0-2 1.09-2 2.64s.77 2.64 2 2.64 2.05-1.09 2.05-2.64-.77-2.64-2.05-2.64zm8.07.29a1.53 1.53 0 00-.8-.19 1.71 1.71 0 00-1.65 1.32v4.77h-1.2V294h1.2v1a2 2 0 011.76-1.08 1.64 1.64 0 01.69.12zm2.99 5.9h-1.2v-6.08h-1.49v-1h1.49v-1.88h1.2V294H209v1h-1.65zm8.29 0h-1.22v-.89a2.56 2.56 0 01-2.06 1 2.34 2.34 0 01-2.49-2.6V294h1.22v4.46c0 1 .48 1.68 1.55 1.68a1.89 1.89 0 001.78-1.33V294h1.22zm6.28-.94a2.48 2.48 0 01-2 1c-2.08 0-3.17-1.73-3.17-3.63s1.09-3.64 3.17-3.64a2.47 2.47 0 012 .95V294h1.22v6.54a3.25 3.25 0 01-3.47 3.45 4 4 0 01-2.29-.65v-1.32a3.19 3.19 0 002.29.88 2.11 2.11 0 002.25-2.28zm0-4.13a2 2 0 00-1.8-1.1c-1.35 0-2.13 1.07-2.13 2.56s.78 2.54 2.13 2.54a2 2 0 001.8-1.1zm6.82.35c0-.88-.66-1.42-1.7-1.42a3.6 3.6 0 00-2 .62v-1.13a4.08 4.08 0 012.21-.6 2.36 2.36 0 012.67 2.44v4.81h-1.17v-.52a2.83 2.83 0 01-1.84.65 2.38 2.38 0 01-2.64-2.27c0-1.33 1.18-2.23 2.7-2.23a3 3 0 011.78.58zm0 2.23a1.72 1.72 0 00-1.65-.88c-.86 0-1.69.38-1.69 1.23s.83 1.26 1.69 1.26a1.72 1.72 0 001.65-.88zm3.93 2.49h-1.2v-10.4h1.2zm278.55 60.41a4.6 4.6 0 003.09 1.15c1.26 0 2.1-.54 2.1-1.55s-.53-1.22-1.57-1.65l-1.44-.56c-1.16-.45-2.21-1.1-2.21-2.66s1.45-2.57 3.15-2.57a5 5 0 012.82.8v1.33a4.32 4.32 0 00-2.8-1c-1.09 0-1.94.48-1.94 1.46 0 .83.56 1.18 1.47 1.53l1.56.61c1.5.58 2.17 1.36 2.17 2.72 0 1.68-1.41 2.69-3.31 2.69a5 5 0 01-3.09-.91zm9.31 4.85h-1.2v-9.83h1.2v.83a2.53 2.53 0 012-1c2.1 0 3.2 1.73 3.2 3.7s-1.1 3.69-3.2 3.69a2.53 2.53 0 01-2-1zm0-4.83a2 2 0 001.83 1.16c1.36 0 2.16-1.1 2.16-2.6s-.8-2.61-2.16-2.61a2 2 0 00-1.83 1.16zm10.79-2.56c0-.88-.66-1.43-1.7-1.43a3.58 3.58 0 00-2 .63V357a4.08 4.08 0 012.21-.59 2.36 2.36 0 012.68 2.43v4.82h-1.17v-.53a2.8 2.8 0 01-1.84.66 2.39 2.39 0 01-2.65-2.28c0-1.32 1.19-2.22 2.71-2.22a3 3 0 011.78.58zm0 2.22a1.73 1.73 0 00-1.65-.88c-.87 0-1.7.39-1.7 1.23s.83 1.27 1.7 1.27a1.73 1.73 0 001.65-.88zm3.8-6.03a.78.78 0 01-.76-.77.78.78 0 011.55 0 .79.79 0 01-.79.77zm.61 8.48h-1.2v-7.11h1.2zm2.15-7.11h1.2v.9a2.64 2.64 0 012.09-1 2.35 2.35 0 012.5 2.59v4.66h-1.22v-4.51a1.48 1.48 0 00-1.56-1.68 1.92 1.92 0 00-1.81 1.33v4.82h-1.2zm-86.19-190.72a4.54 4.54 0 003.09 1.16c1.26 0 2.09-.55 2.09-1.56 0-.86-.52-1.21-1.56-1.64l-1.45-.56c-1.15-.45-2.2-1.11-2.2-2.66 0-1.7 1.45-2.58 3.15-2.58a5 5 0 012.82.8v1.33a4.36 4.36 0 00-2.8-1c-1.09 0-1.94.48-1.94 1.45s.56 1.19 1.47 1.54l1.55.61c1.51.57 2.18 1.36 2.18 2.72 0 1.68-1.41 2.69-3.31 2.69a5.11 5.11 0 01-3.09-.91zm14.08.45l1.57-5.42h1.17l-2.1 7.1h-1.17l-1.47-5.39-1.49 5.42h-1.17l-2.09-7.1h1.2l1.56 5.42 1.46-5.42h1.07zm4.77-1.66a2.26 2.26 0 002.38 2.43 3.08 3.08 0 002-.67v1.1a3.41 3.41 0 01-2.16.63 3.32 3.32 0 01-3.43-3.64c0-2.21 1.28-3.76 3.17-3.76s2.91 1.39 2.91 3.48v.43zm.06-.95h3.67c0-1-.58-1.93-1.73-1.93-.95 0-1.72.62-1.94 1.93zm11.15 3.46a2.51 2.51 0 01-2 1c-2.08 0-3.2-1.68-3.2-3.7s1.12-3.7 3.2-3.7a2.51 2.51 0 012 1v-4.13H483V168h-1.22zm0-4.16a2 2 0 00-1.82-1.17c-1.36 0-2.16 1.11-2.16 2.61s.8 2.61 2.16 2.61a2 2 0 001.82-1.17zm4.02 1.65a2.27 2.27 0 002.38 2.43 3.08 3.08 0 002-.67v1.1a3.41 3.41 0 01-2.16.63 3.32 3.32 0 01-3.43-3.64c0-2.21 1.28-3.76 3.17-3.76s2.92 1.39 2.92 3.48v.43zm.06-.95h3.67c-.05-1-.58-1.93-1.73-1.93-.95 0-1.71.62-1.94 1.93zm6.47-2.81h1.2v.89a2.64 2.64 0 012.09-1 2.35 2.35 0 012.5 2.6V168h-1.22v-4.46a1.48 1.48 0 00-1.56-1.68 1.92 1.92 0 00-1.81 1.33V168h-1.2zm-11.18 198.05V353h1.25v5.77c0 2.1 1 3.08 2.59 3.08s2.6-1 2.6-3.08V353h1.26v5.93c0 2.69-1.62 4-3.86 4s-3.84-1.31-3.84-4.01zm11.14-1.55l4.43-4.37h1.59l-4.84 4.7 5 5.12h-1.63l-4.53-4.62v4.62H491V353h1.27zm-5.92-168.16v-5.92h1.25v5.78c0 2.09 1 3.07 2.59 3.07s2.6-1 2.6-3.07v-5.78H494v5.94c0 2.69-1.62 4-3.86 4s-3.8-1.31-3.8-4.02zm9.36 1.79a4.6 4.6 0 003.09 1.15c1.26 0 2.1-.54 2.1-1.55s-.53-1.22-1.57-1.65l-1.44-.56c-1.16-.45-2.21-1.11-2.21-2.66s1.45-2.58 3.15-2.58a5 5 0 012.82.8v1.33a4.36 4.36 0 00-2.8-1c-1.09 0-1.94.48-1.94 1.46 0 .83.56 1.18 1.47 1.53l1.56.61c1.5.58 2.17 1.36 2.17 2.72 0 1.68-1.41 2.69-3.31 2.69a5 5 0 01-3.09-.91zm-88.39 132.5l3.85 9.83h-1.29l-1.13-3h-4.05l-1.12 3h-1.28l3.84-9.83zm-2.2 5.77h3.2l-1.6-4.2zm11.1-1.84a1.51 1.51 0 00-.8-.2 1.73 1.73 0 00-1.65 1.33v4.77h-1.2v-7.1h1.2v.92a2 2 0 011.76-1.07 1.81 1.81 0 01.69.11zm6.13 4.96a2.53 2.53 0 01-2 1c-2.08 0-3.17-1.73-3.17-3.63s1.09-3.64 3.17-3.64a2.5 2.5 0 012 .95v-.8h1.21v6.54a3.23 3.23 0 01-3.47 3.44 4.05 4.05 0 01-2.29-.64v-1.32a3.21 3.21 0 002.29.88 2.11 2.11 0 002.26-2.28zm0-4.13a2.07 2.07 0 00-1.81-1.11c-1.35 0-2.13 1.08-2.13 2.57s.78 2.54 2.13 2.54a2.06 2.06 0 001.81-1.1zm4.01 1.74a2.27 2.27 0 002.39 2.43 3.05 3.05 0 002-.67v1.1a3.39 3.39 0 01-2.16.63 3.31 3.31 0 01-3.42-3.64c0-2.21 1.28-3.76 3.17-3.76s2.91 1.39 2.91 3.48v.43zm.07-.95h3.66c-.05-1-.57-1.93-1.73-1.93-.94-.01-1.71.61-1.93 1.88zm6.46-2.82h1.2v.89a2.66 2.66 0 012.1-1 2.35 2.35 0 012.49 2.6v4.65h-1.21v-4.46a1.48 1.48 0 00-1.57-1.68 1.93 1.93 0 00-1.81 1.33v4.81h-1.2zm9.81 7.1h-1.2v-6.08H440v-1h1.49v-1.88h1.2v1.88h1.65v1h-1.65zm3.69-8.48a.77.77 0 11.79-.77.77.77 0 01-.79.77zm.61 8.48h-1.2v-7.1H447zm2.15-7.1h1.2v.89a2.64 2.64 0 012.09-1 2.35 2.35 0 012.5 2.6v4.65h-1.22v-4.46a1.48 1.48 0 00-1.56-1.68 1.92 1.92 0 00-1.81 1.33v4.81h-1.2zm11.77 2.38c0-.88-.65-1.42-1.69-1.42a3.6 3.6 0 00-2 .62v-1.14a4.17 4.17 0 012.21-.59 2.36 2.36 0 012.67 2.44v4.81h-1.17v-.53a2.77 2.77 0 01-1.84.66 2.38 2.38 0 01-2.64-2.27c0-1.33 1.19-2.23 2.71-2.23a3 3 0 011.77.58zm0 2.23a1.71 1.71 0 00-1.65-.88c-.86 0-1.69.38-1.69 1.23s.83 1.26 1.69 1.26a1.71 1.71 0 001.65-.88zm-364.7 47.73h-1.27v-9.83h1.27zm2.24-7.1h1.2v.89a2.64 2.64 0 012.09-1 2.35 2.35 0 012.5 2.59v4.66H103v-4.46a1.47 1.47 0 00-1.56-1.68 1.92 1.92 0 00-1.81 1.32v4.82h-1.2zm12.55 6.27a2.51 2.51 0 01-2 1c-2.08 0-3.2-1.68-3.2-3.7s1.12-3.7 3.2-3.7a2.51 2.51 0 012 1v-4.13h1.22v10.4H111zm0-4.16a2 2 0 00-1.82-1.17c-1.36 0-2.17 1.1-2.17 2.61s.81 2.61 2.17 2.61a2 2 0 001.82-1.17zm3.9-3.49a.77.77 0 11.78-.77.78.78 0 01-.78.77zm.6 8.48h-1.2v-7.1h1.2zm6.1-4.72c0-.88-.66-1.42-1.7-1.42a3.6 3.6 0 00-2 .62v-1.14a4.15 4.15 0 012.21-.59 2.36 2.36 0 012.67 2.43v4.82h-1.18V378a2.77 2.77 0 01-1.84.66 2.38 2.38 0 01-2.64-2.27c0-1.33 1.18-2.23 2.7-2.23a3 3 0 011.78.58zm0 2.23a1.72 1.72 0 00-1.65-.88c-.86 0-1.7.38-1.7 1.23s.84 1.26 1.7 1.26a1.72 1.72 0 001.65-.88zM258.67 292a4.55 4.55 0 003.09 1.15c1.27 0 2.1-.54 2.1-1.55s-.53-1.22-1.57-1.65l-1.44-.56c-1.15-.45-2.21-1.1-2.21-2.66s1.46-2.57 3.15-2.57a5 5 0 012.82.8v1.33a4.28 4.28 0 00-2.8-1c-1.09 0-1.94.48-1.94 1.46 0 .83.56 1.18 1.48 1.54l1.55.6c1.5.58 2.17 1.36 2.17 2.73 0 1.68-1.4 2.68-3.31 2.68a5 5 0 01-3.09-.91zm10.87 2.29c-2 0-3.27-1.52-3.27-3.69s1.31-3.7 3.27-3.7 3.26 1.52 3.26 3.7-1.33 3.69-3.26 3.69zm0-6.33c-1.28 0-2.05 1.08-2.05 2.64s.77 2.64 2.05 2.64 2-1.09 2-2.64-.72-2.6-2-2.6zm10.56 6.19h-1.22v-.9a2.56 2.56 0 01-2.06 1 2.33 2.33 0 01-2.48-2.59V287h1.21v4.47a1.47 1.47 0 001.56 1.68 1.88 1.88 0 001.77-1.33V287h1.22zm4.11 0H283v-6.08h-1.49v-1H283v-1.87h1.2v1.8h1.65v1h-1.65zm3.1-10.4h1.2v4.19a2.67 2.67 0 012.1-1 2.35 2.35 0 012.5 2.59v4.66h-1.22v-4.47a1.48 1.48 0 00-1.57-1.68 1.93 1.93 0 00-1.81 1.33v4.82h-1.2zm15.69.57l3.84 9.83h-1.28l-1.13-3h-4.05l-1.12 3h-1.28l3.84-9.83zm-2.21 5.76H304l-1.6-4.19zm10.97-5.23a1.4 1.4 0 00-.75-.19 1.13 1.13 0 00-1.17 1.29V287h1.6v1h-1.6v6.08h-1.18V288h-1.2v-1h1.2v-1.18a2.08 2.08 0 012.17-2.26 2.32 2.32 0 01.93.16zm4.72 3.39a1.58 1.58 0 00-.8-.19 1.73 1.73 0 00-1.65 1.33v4.77h-1.2V287H314v1a2 2 0 011.76-1.07 1.81 1.81 0 01.69.11zm2.08-2.57a.78.78 0 01-.77-.77.78.78 0 011.55 0 .79.79 0 01-.78.77zm.61 8.48H318V287h1.2zm5.05-7.25a2.94 2.94 0 011.91.59v1.22a2.51 2.51 0 00-1.83-.74 2.65 2.65 0 000 5.25 2.5 2.5 0 001.83-.73v1.21a2.94 2.94 0 01-1.91.59 3.71 3.71 0 010-7.39zm7.53 2.53c0-.88-.66-1.43-1.7-1.43a3.53 3.53 0 00-2 .63v-1.14a4.17 4.17 0 012.21-.59 2.36 2.36 0 012.67 2.43v4.82h-1.16v-.53a2.8 2.8 0 01-1.85.66 2.39 2.39 0 01-2.64-2.28c0-1.32 1.19-2.22 2.71-2.22a3 3 0 011.78.58zm0 2.22a1.73 1.73 0 00-1.65-.88c-.87 0-1.7.39-1.7 1.23s.83 1.27 1.7 1.27a1.73 1.73 0 001.65-.88zM88.23 39.5l-3.79-9.83h1.33l3.07 8.16 3.09-8.16h1.28l-3.79 9.83zm6.98-8.5a.78.78 0 01-.77-.77.78.78 0 011.55 0 .79.79 0 01-.78.77zm.61 8.48h-1.2v-7.09h1.2zm2.81-3.33a2.28 2.28 0 002.37 2.44 3.06 3.06 0 002-.68V39a3.39 3.39 0 01-2.16.62A3.3 3.3 0 0197.45 36c0-2.21 1.28-3.76 3.17-3.76s2.91 1.39 2.91 3.47v.43zm.07-.94h3.66c0-1-.57-1.94-1.73-1.94-.94 0-1.71.63-1.93 1.94zm8.45 4.29H106v-6.08h-1.49v-1H106v-1.9h1.2v1.87h1.64v1h-1.64zm3.1-7.11h1.2v.9a2.66 2.66 0 012.1-1 2.34 2.34 0 012.45 2.55v4.66h-1.21V35a1.48 1.48 0 00-1.57-1.68 1.93 1.93 0 00-1.81 1.33v4.85h-1.2zM122 34.78c0-.88-.66-1.43-1.7-1.43a3.53 3.53 0 00-2 .63v-1.14a4.08 4.08 0 012.21-.59 2.36 2.36 0 012.67 2.43v4.82H122V39a2.8 2.8 0 01-1.84.66 2.39 2.39 0 01-2.65-2.28c0-1.33 1.19-2.22 2.71-2.22a3 3 0 011.78.58zm0 2.22a1.73 1.73 0 00-1.65-.88c-.87 0-1.7.39-1.7 1.23s.83 1.27 1.7 1.27a1.73 1.73 0 001.65-.88zm10.44-4.75c1.44 0 2.24 1 2.24 2.54v4.71h-1.21V35c0-1-.44-1.64-1.35-1.64a1.66 1.66 0 00-1.57 1.26v4.9h-1.2V35c0-1-.43-1.64-1.34-1.64a1.65 1.65 0 00-1.57 1.26v4.9h-1.2v-7.13h1.2v.83a2.22 2.22 0 011.92-1 2.07 2.07 0 011.92 1.13 2.57 2.57 0 012.16-1.1z"/><path class="cls-5" d="M48.15 386.61h5.54v.87h-5.54zm12.72 3.62v1h-5.69v-.06l2.63-3.24c.89-1.06 1.6-1.89 1.6-3a1.41 1.41 0 00-1.58-1.48 3.51 3.51 0 00-2.45 1.19v-1.12a3.59 3.59 0 012.53-1 2.33 2.33 0 012.58 2.42c0 1.24-.83 2.26-1.78 3.44l-1.58 1.89zm7.39-1.67c0 1.75-1.4 2.77-3.19 2.77a3.79 3.79 0 01-2.32-.68v-1.19a3.25 3.25 0 002.27.92c1.19 0 2.22-.66 2.22-1.82s-1-1.81-2.23-1.81a4.6 4.6 0 00-1.91.41v-4.55h4.7v1H64V386a3.76 3.76 0 011.1-.16c1.77-.03 3.16.98 3.16 2.72zM48.15 322h5.54v.87h-5.54zm12.72 3.62v1h-5.69v-.06l2.63-3.23c.89-1.07 1.6-1.89 1.6-3a1.41 1.41 0 00-1.58-1.49 3.55 3.55 0 00-2.45 1.16v-1.12a3.59 3.59 0 012.53-1.05 2.33 2.33 0 012.58 2.42c0 1.24-.83 2.26-1.78 3.44l-1.58 1.89zm1.42-3.32c0-2.62 1.28-4.43 3.2-4.43s3.19 1.81 3.19 4.43-1.28 4.42-3.19 4.42-3.2-1.8-3.2-4.42zm1.07 0c0 2 .72 3.43 2.13 3.43s2.11-1.43 2.11-3.43-.73-3.43-2.11-3.43-2.13 1.42-2.13 3.43zm-15.21-64.9h5.54v.87h-5.54zm7.37 3.6H58v-6.3l-2.41 1.23v-1.12l2.83-1.44h.66V261h2.12v1h-5.68zm12.74-1.66c0 1.76-1.4 2.78-3.19 2.78a3.79 3.79 0 01-2.32-.69v-1.19a3.26 3.26 0 002.27.93c1.19 0 2.22-.66 2.22-1.83s-1-1.8-2.23-1.8a4.77 4.77 0 00-1.91.4v-4.55h4.7v1H64v2.38a4.17 4.17 0 011.1-.15c1.77-.02 3.16.99 3.16 2.72zm-20.11-66.55h5.54v.87h-5.54zm7.37 3.61H58v-6.3l-2.41 1.23v-1.12l2.83-1.44h.66v7.63h2.12v1h-5.68zm6.77-3.32c0-2.62 1.28-4.42 3.2-4.42s3.19 1.8 3.19 4.42-1.28 4.43-3.19 4.43-3.2-1.81-3.2-4.43zm1.07 0c0 2 .72 3.43 2.13 3.43s2.11-1.42 2.11-3.43-.73-3.43-2.11-3.43-2.13 1.43-2.13 3.43zm-7.93-64.9H61v.87h-5.57zm12.83 1.95c0 1.75-1.4 2.77-3.19 2.77a3.79 3.79 0 01-2.32-.68V131a3.23 3.23 0 002.25 1c1.19 0 2.22-.66 2.22-1.82s-1-1.81-2.23-1.81a4.52 4.52 0 00-1.9.41v-4.55h4.71v1H64v2.38a3.64 3.64 0 011.09-.16c1.78-.07 3.17.94 3.17 2.68zm-5.97-66.25c0-2.62 1.28-4.43 3.2-4.43s3.19 1.81 3.19 4.43-1.28 4.43-3.19 4.43-3.2-1.81-3.2-4.43zm1.07 0c0 2 .72 3.43 2.13 3.43s2.11-1.43 2.11-3.43-.73-3.43-2.11-3.43-2.13 1.43-2.13 3.43zm12.42 346.95c0-2.62 1.28-4.43 3.19-4.43s3.2 1.81 3.2 4.43-1.28 4.42-3.2 4.42-3.19-1.8-3.19-4.42zm1.07 0c0 2 .72 3.43 2.12 3.43s2.12-1.43 2.12-3.43-.73-3.44-2.12-3.44-2.12 1.43-2.12 3.44zM234 414.15v1h-5.69v-.06l2.64-3.23c.88-1.07 1.59-1.9 1.59-3a1.41 1.41 0 00-1.58-1.49 3.57 3.57 0 00-2.45 1.19v-1.12a3.61 3.61 0 012.49-1.04 2.33 2.33 0 012.58 2.42c0 1.24-.83 2.26-1.78 3.44l-1.58 1.89zm7.34-1.67c0 1.75-1.4 2.77-3.19 2.77a3.73 3.73 0 01-2.31-.68v-1.19a3.23 3.23 0 002.27.92c1.19 0 2.21-.66 2.21-1.82s-1-1.81-2.23-1.81a4.55 4.55 0 00-1.9.41v-4.55h4.69v1h-3.78v2.38a3.64 3.64 0 011.09-.16c1.81-.02 3.15.99 3.15 2.73zm1.31-1.65c0-2.62 1.28-4.43 3.2-4.43s3.19 1.81 3.19 4.43-1.27 4.42-3.19 4.42-3.2-1.8-3.2-4.42zm1.07 0c0 2 .73 3.43 2.13 3.43s2.11-1.43 2.11-3.43-.73-3.44-2.11-3.44-2.13 1.43-2.13 3.44zm149.93 1.65c0 1.75-1.4 2.77-3.19 2.77a3.73 3.73 0 01-2.31-.68v-1.19a3.23 3.23 0 002.27.92c1.19 0 2.21-.66 2.21-1.82s-1-1.81-2.23-1.81a4.59 4.59 0 00-1.9.41v-4.55h4.69v1h-3.78v2.38a3.75 3.75 0 011.09-.16c1.77-.02 3.15.99 3.15 2.73zm1.35-1.65c0-2.62 1.27-4.43 3.19-4.43s3.2 1.81 3.2 4.43-1.28 4.42-3.2 4.42-3.19-1.8-3.19-4.42zm1.06 0c0 2 .73 3.43 2.13 3.43s2.12-1.43 2.12-3.43-.73-3.44-2.12-3.44-2.19 1.43-2.19 3.44zm6.19 0c0-2.62 1.27-4.43 3.19-4.43s3.19 1.81 3.19 4.43-1.27 4.42-3.19 4.42-3.19-1.8-3.19-4.42zm1.06 0c0 2 .73 3.43 2.13 3.43s2.12-1.43 2.12-3.43-.73-3.44-2.12-3.44-2.13 1.43-2.13 3.44zm146.46 4.3h-1.1l3.5-7.62h-4.64v-1h6.15zm10.76-2.65c0 1.75-1.4 2.77-3.2 2.77a3.78 3.78 0 01-2.31-.68v-1.19a3.25 3.25 0 002.27.92c1.19 0 2.22-.66 2.22-1.82s-1-1.81-2.23-1.81a4.6 4.6 0 00-1.91.41v-4.55h4.7v1h-3.79v2.38a3.76 3.76 0 011.1-.16c1.76-.02 3.15.99 3.15 2.73zm1.31-1.65c0-2.62 1.27-4.43 3.19-4.43s3.2 1.81 3.2 4.43-1.28 4.42-3.2 4.42-3.19-1.8-3.19-4.42zm1.06 0c0 2 .73 3.43 2.13 3.43s2.12-1.43 2.12-3.43-.73-3.44-2.12-3.44-2.13 1.43-2.13 3.44zm95.57-24.22H664v.87h-5.54zm12.72 3.62v1h-5.69v-.06l2.63-3.24c.89-1.06 1.6-1.89 1.6-3a1.41 1.41 0 00-1.58-1.48 3.51 3.51 0 00-2.45 1.19v-1.12a3.59 3.59 0 012.53-1 2.33 2.33 0 012.58 2.42c0 1.24-.83 2.26-1.78 3.44l-1.58 1.89zm7.39-1.67c0 1.75-1.4 2.77-3.19 2.77a3.79 3.79 0 01-2.32-.68v-1.19a3.27 3.27 0 002.27.92c1.19 0 2.22-.66 2.22-1.82s-1-1.81-2.23-1.81a4.6 4.6 0 00-1.91.41v-4.55h4.7v1h-3.79V386a3.76 3.76 0 011.1-.16c1.76-.03 3.15.98 3.15 2.72zM658.47 322H664v.87h-5.54zm12.72 3.62v1h-5.69v-.06l2.63-3.23c.89-1.07 1.6-1.89 1.6-3a1.41 1.41 0 00-1.58-1.49 3.55 3.55 0 00-2.45 1.16v-1.12a3.59 3.59 0 012.53-1.05 2.33 2.33 0 012.58 2.42c0 1.24-.83 2.26-1.78 3.44l-1.58 1.89zm1.42-3.32c0-2.62 1.28-4.43 3.2-4.43s3.19 1.81 3.19 4.43-1.28 4.42-3.19 4.42-3.2-1.8-3.2-4.42zm1.07 0c0 2 .72 3.43 2.13 3.43s2.11-1.43 2.11-3.43-.73-3.43-2.11-3.43-2.13 1.42-2.13 3.43zm-15.21-64.9H664v.87h-5.54zm7.37 3.6h2.45v-6.3l-2.41 1.23v-1.12l2.83-1.44h.66V261h2.15v1h-5.68zm12.74-1.66c0 1.76-1.4 2.78-3.19 2.78a3.79 3.79 0 01-2.32-.69v-1.19a3.28 3.28 0 002.27.93c1.19 0 2.22-.66 2.22-1.83s-1-1.8-2.23-1.8a4.77 4.77 0 00-1.91.4v-4.55h4.7v1h-3.79v2.38a4.17 4.17 0 011.1-.15c1.76-.02 3.15.99 3.15 2.72zm-20.11-66.55H664v.87h-5.54zm7.37 3.61h2.45v-6.3l-2.41 1.23v-1.12l2.83-1.44h.66v7.63h2.15v1h-5.68zm6.77-3.32c0-2.62 1.28-4.42 3.2-4.42s3.19 1.8 3.19 4.42-1.28 4.43-3.19 4.43-3.2-1.81-3.2-4.43zm1.07 0c0 2 .72 3.43 2.13 3.43s2.11-1.42 2.11-3.43-.73-3.43-2.11-3.43-2.13 1.43-2.13 3.43zm-7.93-64.9h5.54v.87h-5.54zm12.83 1.95c0 1.75-1.4 2.77-3.19 2.77a3.79 3.79 0 01-2.32-.68V131a3.23 3.23 0 002.27.93c1.19 0 2.22-.66 2.22-1.82s-1-1.81-2.23-1.81a4.52 4.52 0 00-1.9.41v-4.55h4.69v1h-3.78v2.38a3.64 3.64 0 011.09-.16c1.76 0 3.15 1.01 3.15 2.75zm-5.97-66.25c0-2.62 1.28-4.43 3.2-4.43s3.19 1.81 3.19 4.43-1.28 4.43-3.19 4.43-3.2-1.81-3.2-4.43zm1.07 0c0 2 .72 3.43 2.13 3.43s2.11-1.43 2.11-3.43-.73-3.43-2.11-3.43-2.13 1.43-2.13 3.43z"/><path class="cls-5" d="M48.15 386.61h5.54v.87h-5.54zm12.72 3.62v1h-5.69v-.06l2.63-3.24c.89-1.06 1.6-1.89 1.6-3a1.41 1.41 0 00-1.58-1.48 3.51 3.51 0 00-2.45 1.19v-1.12a3.59 3.59 0 012.53-1 2.33 2.33 0 012.58 2.42c0 1.24-.83 2.26-1.78 3.44l-1.58 1.89zm7.39-1.67c0 1.75-1.4 2.77-3.19 2.77a3.79 3.79 0 01-2.32-.68v-1.19a3.25 3.25 0 002.27.92c1.19 0 2.22-.66 2.22-1.82s-1-1.81-2.23-1.81a4.6 4.6 0 00-1.91.41v-4.55h4.7v1H64V386a3.76 3.76 0 011.1-.16c1.77-.03 3.16.98 3.16 2.72zM48.15 322h5.54v.87h-5.54zm12.72 3.62v1h-5.69v-.06l2.63-3.23c.89-1.07 1.6-1.89 1.6-3a1.41 1.41 0 00-1.58-1.49 3.55 3.55 0 00-2.45 1.16v-1.12a3.59 3.59 0 012.53-1.05 2.33 2.33 0 012.58 2.42c0 1.24-.83 2.26-1.78 3.44l-1.58 1.89zm1.42-3.32c0-2.62 1.28-4.43 3.2-4.43s3.19 1.81 3.19 4.43-1.28 4.42-3.19 4.42-3.2-1.8-3.2-4.42zm1.07 0c0 2 .72 3.43 2.13 3.43s2.11-1.43 2.11-3.43-.73-3.43-2.11-3.43-2.13 1.42-2.13 3.43zm-15.21-64.9h5.54v.87h-5.54zm7.37 3.6H58v-6.3l-2.41 1.23v-1.12l2.83-1.44h.66V261h2.12v1h-5.68zm12.74-1.66c0 1.76-1.4 2.78-3.19 2.78a3.79 3.79 0 01-2.32-.69v-1.19a3.26 3.26 0 002.27.93c1.19 0 2.22-.66 2.22-1.83s-1-1.8-2.23-1.8a4.77 4.77 0 00-1.91.4v-4.55h4.7v1H64v2.38a4.17 4.17 0 011.1-.15c1.77-.02 3.16.99 3.16 2.72zm-20.11-66.55h5.54v.87h-5.54zm7.37 3.61H58v-6.3l-2.41 1.23v-1.12l2.83-1.44h.66v7.63h2.12v1h-5.68zm6.77-3.32c0-2.62 1.28-4.42 3.2-4.42s3.19 1.8 3.19 4.42-1.28 4.43-3.19 4.43-3.2-1.81-3.2-4.43zm1.07 0c0 2 .72 3.43 2.13 3.43s2.11-1.42 2.11-3.43-.73-3.43-2.11-3.43-2.13 1.43-2.13 3.43zm-7.93-64.9H61v.87h-5.57zm12.83 1.95c0 1.75-1.4 2.77-3.19 2.77a3.79 3.79 0 01-2.32-.68V131a3.23 3.23 0 002.25 1c1.19 0 2.22-.66 2.22-1.82s-1-1.81-2.23-1.81a4.52 4.52 0 00-1.9.41v-4.55h4.71v1H64v2.38a3.64 3.64 0 011.09-.16c1.78-.07 3.17.94 3.17 2.68zm-5.97-66.25c0-2.62 1.28-4.43 3.2-4.43s3.19 1.81 3.19 4.43-1.28 4.43-3.19 4.43-3.2-1.81-3.2-4.43zm1.07 0c0 2 .72 3.43 2.13 3.43s2.11-1.43 2.11-3.43-.73-3.43-2.11-3.43-2.13 1.43-2.13 3.43zm12.42 346.95c0-2.62 1.28-4.43 3.19-4.43s3.2 1.81 3.2 4.43-1.28 4.42-3.2 4.42-3.19-1.8-3.19-4.42zm1.07 0c0 2 .72 3.43 2.12 3.43s2.12-1.43 2.12-3.43-.73-3.44-2.12-3.44-2.12 1.43-2.12 3.44zM234 414.15v1h-5.69v-.06l2.64-3.23c.88-1.07 1.59-1.9 1.59-3a1.41 1.41 0 00-1.58-1.49 3.57 3.57 0 00-2.45 1.19v-1.12a3.61 3.61 0 012.49-1.04 2.33 2.33 0 012.58 2.42c0 1.24-.83 2.26-1.78 3.44l-1.58 1.89zm7.34-1.67c0 1.75-1.4 2.77-3.19 2.77a3.73 3.73 0 01-2.31-.68v-1.19a3.23 3.23 0 002.27.92c1.19 0 2.21-.66 2.21-1.82s-1-1.81-2.23-1.81a4.55 4.55 0 00-1.9.41v-4.55h4.69v1h-3.78v2.38a3.64 3.64 0 011.09-.16c1.81-.02 3.15.99 3.15 2.73zm1.31-1.65c0-2.62 1.28-4.43 3.2-4.43s3.19 1.81 3.19 4.43-1.27 4.42-3.19 4.42-3.2-1.8-3.2-4.42zm1.07 0c0 2 .73 3.43 2.13 3.43s2.11-1.43 2.11-3.43-.73-3.44-2.11-3.44-2.13 1.43-2.13 3.44zm149.93 1.65c0 1.75-1.4 2.77-3.19 2.77a3.73 3.73 0 01-2.31-.68v-1.19a3.23 3.23 0 002.27.92c1.19 0 2.21-.66 2.21-1.82s-1-1.81-2.23-1.81a4.59 4.59 0 00-1.9.41v-4.55h4.69v1h-3.78v2.38a3.75 3.75 0 011.09-.16c1.77-.02 3.15.99 3.15 2.73zm1.35-1.65c0-2.62 1.27-4.43 3.19-4.43s3.2 1.81 3.2 4.43-1.28 4.42-3.2 4.42-3.19-1.8-3.19-4.42zm1.06 0c0 2 .73 3.43 2.13 3.43s2.12-1.43 2.12-3.43-.73-3.44-2.12-3.44-2.19 1.43-2.19 3.44zm6.19 0c0-2.62 1.27-4.43 3.19-4.43s3.19 1.81 3.19 4.43-1.27 4.42-3.19 4.42-3.19-1.8-3.19-4.42zm1.06 0c0 2 .73 3.43 2.13 3.43s2.12-1.43 2.12-3.43-.73-3.44-2.12-3.44-2.13 1.43-2.13 3.44zm146.46 4.3h-1.1l3.5-7.62h-4.64v-1h6.15zm10.76-2.65c0 1.75-1.4 2.77-3.2 2.77a3.78 3.78 0 01-2.31-.68v-1.19a3.25 3.25 0 002.27.92c1.19 0 2.22-.66 2.22-1.82s-1-1.81-2.23-1.81a4.6 4.6 0 00-1.91.41v-4.55h4.7v1h-3.79v2.38a3.76 3.76 0 011.1-.16c1.76-.02 3.15.99 3.15 2.73zm1.31-1.65c0-2.62 1.27-4.43 3.19-4.43s3.2 1.81 3.2 4.43-1.28 4.42-3.2 4.42-3.19-1.8-3.19-4.42zm1.06 0c0 2 .73 3.43 2.13 3.43s2.12-1.43 2.12-3.43-.73-3.44-2.12-3.44-2.13 1.43-2.13 3.44z"/><path class="cls-4" d="M78.64 237.29a4.17 4.17 0 114.17 4.17 4.18 4.18 0 01-4.17-4.17m70.6-24.55a4.16 4.16 0 114.15 4.17 4.17 4.17 0 01-4.15-4.17"/><path d="M83.63 174a4.17 4.17 0 114.17 4.17 4.19 4.19 0 01-4.17-4.17m-2.88-53a4.17 4.17 0 114.16 4.17 4.18 4.18 0 01-4.16-4.17m-3.18-60.73a4.16 4.16 0 114.15 4.17 4.17 4.17 0 01-4.15-4.17m25.77 102.08a4.17 4.17 0 114.16 4.17 4.18 4.18 0 01-4.16-4.17M75.63 40.89a4.17 4.17 0 114.16 4.17 4.18 4.18 0 01-4.16-4.17" fill="#b30563" stroke="#000"/><path d="M168.67 217.47v-2.32h-2.16v-1.05h3.33v3.84a4.55 4.55 0 01-3.46 1.41c-2.73 0-4.59-2-4.59-5.06s2-5.06 4.74-5.06a4.59 4.59 0 012.83.88v1.35a4 4 0 00-2.83-1.09c-2.05 0-3.48 1.55-3.48 3.92s1.32 3.94 3.37 3.94a3.34 3.34 0 002.25-.76zm3.76-1.61a2.27 2.27 0 002.39 2.43 3.07 3.07 0 002-.67v1.1a3.39 3.39 0 01-2.16.63 3.31 3.31 0 01-3.42-3.64c0-2.21 1.28-3.76 3.16-3.76s2.92 1.39 2.92 3.47v.44zm.06-1h3.67c0-1-.58-1.93-1.73-1.93-.94.07-1.71.67-1.94 1.98zm10.12-1.56a1.51 1.51 0 00-.8-.2 1.72 1.72 0 00-1.65 1.33v4.77H179v-7.1h1.2v.9a2 2 0 011.76-1.07 1.85 1.85 0 01.69.11zm8.69-1.3c1.44 0 2.24 1 2.24 2.55v4.7h-1.22v-4.51c0-1-.43-1.65-1.34-1.65a1.66 1.66 0 00-1.57 1.26v4.9h-1.2v-4.51c0-1-.43-1.65-1.35-1.65a1.67 1.67 0 00-1.57 1.26v4.9h-1.2v-7.1h1.2v.83a2.23 2.23 0 011.92-1 2.1 2.1 0 011.93 1.14 2.55 2.55 0 012.16-1.12zm8.22 2.48c0-.88-.66-1.42-1.7-1.42a3.6 3.6 0 00-2 .62v-1.14A4.15 4.15 0 01198 212a2.36 2.36 0 012.67 2.43v4.82h-1.17v-.53a2.77 2.77 0 01-1.84.66 2.38 2.38 0 01-2.64-2.27c0-1.33 1.18-2.23 2.7-2.23a3 3 0 011.78.58zm0 2.23a1.72 1.72 0 00-1.65-.89c-.86 0-1.7.39-1.7 1.24s.84 1.26 1.7 1.26a1.72 1.72 0 001.65-.88zm3.21-4.61h1.2v.9a2.67 2.67 0 012.1-1 2.35 2.35 0 012.5 2.59v4.66h-1.22v-4.46a1.47 1.47 0 00-1.57-1.68 1.94 1.94 0 00-1.81 1.32v4.82h-1.2zm8.74 9.82l1.07-2.67-2.77-7.15h1.3l2.1 5.6 2.06-5.6h1.25l-3.83 9.82z"/><path d="M42.5 162.86h-1.26V153h1.26zm2.24-7.11h1.2v.9A2.68 2.68 0 0148 155.6a2.36 2.36 0 012.5 2.6v4.66h-1.18v-4.47a1.48 1.48 0 00-1.57-1.68 1.93 1.93 0 00-1.81 1.29v4.82h-1.2zM57.26 162a2.51 2.51 0 01-2 1c-2.08 0-3.2-1.68-3.2-3.7s1.12-3.7 3.2-3.7a2.54 2.54 0 012 1v-4.13h1.21v10.41h-1.21zm0-4.16a2.07 2.07 0 00-1.83-1.17c-1.36 0-2.16 1.11-2.16 2.61s.8 2.61 2.16 2.61a2.05 2.05 0 001.83-1.17zm6.09 5.16c-2 0-3.26-1.52-3.26-3.7s1.31-3.7 3.26-3.7 3.27 1.53 3.27 3.7-1.33 3.7-3.27 3.7zm0-6.34c-1.28 0-2.05 1.09-2.05 2.64s.77 2.64 2.05 2.64 2.05-1.09 2.05-2.64-.77-2.64-2.05-2.64zm4.89-.91h1.21v.9a2.64 2.64 0 012.09-1.05 2.35 2.35 0 012.5 2.6v4.66h-1.22v-4.47a1.48 1.48 0 00-1.57-1.68 1.91 1.91 0 00-1.8 1.33v4.82h-1.21zm8.5 3.76a2.27 2.27 0 002.39 2.43 3.05 3.05 0 002-.67v1.11A3.45 3.45 0 0179 163a3.3 3.3 0 01-3.42-3.63c0-2.21 1.28-3.77 3.17-3.77s2.91 1.4 2.91 3.48v.43zm.07-.94h3.66c0-1-.57-1.94-1.73-1.94-.94 0-1.74.62-1.93 1.94zm6.04 2.43a3.46 3.46 0 002.34 1c.78 0 1.47-.29 1.47-1 0-.53-.4-.81-1-1l-1-.34c-1.07-.35-1.79-.86-1.79-2s1.1-2 2.51-2a3.68 3.68 0 012.11.63v1.25a3.14 3.14 0 00-2.11-.85c-.73 0-1.34.32-1.34.93s.38.77 1 1l1.09.36a2.07 2.07 0 011.67 2c0 1.32-1.17 2.07-2.66 2.07a4 4 0 01-2.34-.7zm7.3-6.63a.78.78 0 01-.77-.77.78.78 0 011.55 0 .78.78 0 01-.78.77zm.61 8.49h-1.2v-7.11h1.2zm6.1-4.73c0-.88-.66-1.42-1.7-1.42a3.6 3.6 0 00-2 .62v-1.13a4.08 4.08 0 012.21-.6A2.36 2.36 0 0198 158v4.82h-1.14v-.53A2.81 2.81 0 0195 163a2.38 2.38 0 01-2.64-2.27c0-1.33 1.19-2.22 2.71-2.22a3 3 0 011.78.57zm0 2.23a1.73 1.73 0 00-1.65-.88c-.87 0-1.7.38-1.7 1.23s.83 1.27 1.7 1.27a1.73 1.73 0 001.65-.89z" stroke-linejoin="round" stroke="#fff1e5" stroke-width="4"/><path d="M42.5 162.86h-1.26V153h1.26zm2.24-7.11h1.2v.9A2.68 2.68 0 0148 155.6a2.36 2.36 0 012.5 2.6v4.66h-1.18v-4.47a1.48 1.48 0 00-1.57-1.68 1.93 1.93 0 00-1.81 1.29v4.82h-1.2zM57.26 162a2.51 2.51 0 01-2 1c-2.08 0-3.2-1.68-3.2-3.7s1.12-3.7 3.2-3.7a2.54 2.54 0 012 1v-4.13h1.21v10.41h-1.21zm0-4.16a2.07 2.07 0 00-1.83-1.17c-1.36 0-2.16 1.11-2.16 2.61s.8 2.61 2.16 2.61a2.05 2.05 0 001.83-1.17zm6.09 5.16c-2 0-3.26-1.52-3.26-3.7s1.31-3.7 3.26-3.7 3.27 1.53 3.27 3.7-1.33 3.7-3.27 3.7zm0-6.34c-1.28 0-2.05 1.09-2.05 2.64s.77 2.64 2.05 2.64 2.05-1.09 2.05-2.64-.77-2.64-2.05-2.64zm4.89-.91h1.21v.9a2.64 2.64 0 012.09-1.05 2.35 2.35 0 012.5 2.6v4.66h-1.22v-4.47a1.48 1.48 0 00-1.57-1.68 1.91 1.91 0 00-1.8 1.33v4.82h-1.21zm8.5 3.76a2.27 2.27 0 002.39 2.43 3.05 3.05 0 002-.67v1.11A3.45 3.45 0 0179 163a3.3 3.3 0 01-3.42-3.63c0-2.21 1.28-3.77 3.17-3.77s2.91 1.4 2.91 3.48v.43zm.07-.94h3.66c0-1-.57-1.94-1.73-1.94-.94 0-1.74.62-1.93 1.94zm6.04 2.43a3.46 3.46 0 002.34 1c.78 0 1.47-.29 1.47-1 0-.53-.4-.81-1-1l-1-.34c-1.07-.35-1.79-.86-1.79-2s1.1-2 2.51-2a3.68 3.68 0 012.11.63v1.25a3.14 3.14 0 00-2.11-.85c-.73 0-1.34.32-1.34.93s.38.77 1 1l1.09.36a2.07 2.07 0 011.67 2c0 1.32-1.17 2.07-2.66 2.07a4 4 0 01-2.34-.7zm7.3-6.63a.78.78 0 01-.77-.77.78.78 0 011.55 0 .78.78 0 01-.78.77zm.61 8.49h-1.2v-7.11h1.2zm6.1-4.73c0-.88-.66-1.42-1.7-1.42a3.6 3.6 0 00-2 .62v-1.13a4.08 4.08 0 012.21-.6A2.36 2.36 0 0198 158v4.82h-1.14v-.53A2.81 2.81 0 0195 163a2.38 2.38 0 01-2.64-2.27c0-1.33 1.19-2.22 2.71-2.22a3 3 0 011.78.57zm0 2.23a1.73 1.73 0 00-1.65-.88c-.87 0-1.7.38-1.7 1.23s.83 1.27 1.7 1.27a1.73 1.73 0 001.65-.89zm23.89-7.9v-9.83h6v1.12H122v3.31h4.45v1.12H122v4.28zM129 144a.77.77 0 01-.76-.77.78.78 0 011.55 0 .78.78 0 01-.79.77zm.61 8.49h-1.2v-7.11h1.2zm2.14-7.14H133v.9a2.68 2.68 0 012.1-1.05 2.35 2.35 0 012.5 2.6v4.66h-1.22V148a1.48 1.48 0 00-1.57-1.68 1.93 1.93 0 00-1.81 1.33v4.82h-1.2zm9.03 7.11h-1.2v-10.41h1.2zm6.1-4.73c0-.88-.66-1.42-1.7-1.42a3.63 3.63 0 00-2 .62v-1.13a4.08 4.08 0 012.21-.6 2.36 2.36 0 012.67 2.44v4.82h-1.16v-.53a2.8 2.8 0 01-1.84.65 2.39 2.39 0 01-2.65-2.27c0-1.33 1.19-2.22 2.71-2.22a3 3 0 011.78.57zm0 2.23a1.73 1.73 0 00-1.65-.88c-.87 0-1.7.38-1.7 1.23s.83 1.27 1.7 1.27a1.73 1.73 0 001.65-.89zm3.21-4.61h1.2v.9a2.68 2.68 0 012.1-1.05 2.36 2.36 0 012.5 2.6v4.66h-1.22V148a1.48 1.48 0 00-1.57-1.68 1.93 1.93 0 00-1.81 1.33v4.82h-1.2zm12.52 6.27a2.51 2.51 0 01-2 1c-2.08 0-3.2-1.68-3.2-3.7s1.12-3.7 3.2-3.7a2.54 2.54 0 012 1v-4.13h1.21v10.41h-1.21zm0-4.16a2.07 2.07 0 00-1.83-1.17c-1.36 0-2.16 1.11-2.16 2.61s.8 2.61 2.16 2.61a2.05 2.05 0 001.83-1.17z"/><path class="cls-8" d="M86.29 239.57c2.6 3.31 10.41 2.91 12-.88"/><path d="M540 194a4 4 0 012.64.85v1.33a3.63 3.63 0 00-2.63-1c-2 0-3.36 1.55-3.36 3.92S538 203 540 203a3.71 3.71 0 002.63-1v1.33a4 4 0 01-2.64.85c-2.63 0-4.61-2-4.61-5.06S537.32 194 540 194zm4.46-.42h1.2v4.19a2.64 2.64 0 012.1-1 2.35 2.35 0 012.49 2.6V204H549v-4.46a1.48 1.48 0 00-1.57-1.68 1.92 1.92 0 00-1.81 1.33V204h-1.2zm8.41 1.92a.77.77 0 11.79-.77.77.77 0 01-.79.77zm.61 8.48h-1.2v-7.1h1.2zm3.35.02h-1.2v-10.4h1.2zm2.81-3.36a2.27 2.27 0 002.39 2.43 3.05 3.05 0 002-.67v1.1a3.39 3.39 0 01-2.16.63 3.31 3.31 0 01-3.42-3.64c0-2.2 1.28-3.76 3.17-3.76s2.91 1.4 2.91 3.48v.43zm.07-.95h3.66c0-1-.57-1.93-1.73-1.93-.94 0-1.71.62-1.93 1.93zm-34.17 29.67c0 1.79-1.25 2.77-3.26 2.77h-3.56v-9.83H522c2 0 3.25.91 3.25 2.61a2.12 2.12 0 01-1.44 2.13 2.37 2.37 0 011.73 2.32zm-3.54-2.78c1.31 0 2-.53 2-1.6s-.72-1.57-2-1.57h-2v3.17zm-2 4.42h2.32c1.33 0 2-.68 2-1.7s-.7-1.7-2-1.7H520zm10.88-4.78a1.58 1.58 0 00-.8-.19 1.72 1.72 0 00-1.64 1.33v4.77h-1.2V225h1.2v1a2 2 0 011.76-1.07 1.76 1.76 0 01.68.11zm5.45 1.19c0-.88-.66-1.43-1.7-1.43a3.53 3.53 0 00-2 .63v-1.14a4.17 4.17 0 012.21-.59 2.36 2.36 0 012.67 2.43v4.82h-1.16v-.53a2.8 2.8 0 01-1.84.66 2.39 2.39 0 01-2.65-2.27c0-1.33 1.19-2.23 2.71-2.23a3 3 0 011.78.58zm0 2.22a1.75 1.75 0 00-1.65-.88c-.87 0-1.7.39-1.7 1.24s.83 1.26 1.7 1.26a1.73 1.73 0 001.65-.88zm8.3 2.5H539v-.06l3.83-6h-3.65v-1h5.51v.07l-3.81 6h3.79zm2.29-8.48a.78.78 0 01-.77-.77.78.78 0 011.55 0 .79.79 0 01-.78.77zm.6 8.48h-1.2V225h1.2zm3.35 0h-1.2v-10.4h1.2zM93.6 50.73a4 4 0 012.64.85v1.33a3.63 3.63 0 00-2.63-1c-2 0-3.36 1.55-3.36 3.92s1.38 3.92 3.36 3.92a3.71 3.71 0 002.63-1V60a4 4 0 01-2.64.85c-2.63 0-4.61-2-4.61-5.06s2.01-5.06 4.61-5.06zm4.51-.43h1.2v4.2a2.64 2.64 0 012.09-1 2.35 2.35 0 012.5 2.6v4.66h-1.21v-4.52a1.48 1.48 0 00-1.57-1.68 1.92 1.92 0 00-1.81 1.33v4.82h-1.2zm8.41 1.92a.77.77 0 01-.76-.77.78.78 0 011.55 0 .78.78 0 01-.79.77zm.61 8.49h-1.2V53.6h1.2zm2.15-7.11h1.2v.9a2.64 2.64 0 012.09-1 2.35 2.35 0 012.5 2.6v4.66h-1.22v-4.52a1.48 1.48 0 00-1.57-1.68 1.91 1.91 0 00-1.8 1.33v4.82h-1.2zm11.77 2.4c0-.88-.65-1.42-1.69-1.42a3.6 3.6 0 00-2 .62v-1.15a4.08 4.08 0 012.21-.6 2.36 2.36 0 012.67 2.44v4.82h-1.17v-.53a2.77 2.77 0 01-1.84.65 2.38 2.38 0 01-2.64-2.27c0-1.33 1.19-2.22 2.71-2.22a3 3 0 011.77.57zm0 2.23a1.71 1.71 0 00-1.65-.88c-.86 0-1.69.38-1.69 1.23s.83 1.27 1.69 1.27a1.71 1.71 0 001.65-.89z"/><path class="cls-5" d="M238 424.54a4 4 0 012.64.85v1.33a3.62 3.62 0 00-2.62-1c-2 0-3.37 1.55-3.37 3.92s1.38 3.92 3.37 3.92a3.7 3.7 0 002.62-1v1.33a4 4 0 01-2.64.85c-2.62 0-4.61-2-4.61-5.06s1.97-5.14 4.61-5.14zm10.16 9.97h-1.22v-.89a2.56 2.56 0 01-2.07 1 2.34 2.34 0 01-2.48-2.6v-4.65h1.22v4.46a1.47 1.47 0 001.55 1.68 1.89 1.89 0 001.78-1.33v-4.81h1.22zm9.33-7.25c1.44 0 2.24 1 2.24 2.55v4.7h-1.22V430c0-1-.43-1.65-1.35-1.65a1.66 1.66 0 00-1.56 1.26v4.9h-1.2V430c0-1-.44-1.65-1.35-1.65a1.67 1.67 0 00-1.57 1.26v4.9h-1.2v-7.1h1.2v.83a2.22 2.22 0 011.92-1 2.08 2.08 0 011.92 1.14 2.58 2.58 0 012.17-1.12zm9.93 7.25h-1.22v-.89a2.56 2.56 0 01-2.06 1 2.34 2.34 0 01-2.48-2.6v-4.65h1.22v4.46a1.47 1.47 0 001.55 1.68 1.88 1.88 0 001.77-1.33v-4.81h1.22zm3.33 0h-1.2v-10.4h1.2zm6.09-4.72c0-.88-.65-1.42-1.69-1.42a3.6 3.6 0 00-2 .62v-1.14a4.17 4.17 0 012.21-.59 2.36 2.36 0 012.67 2.43v4.82h-1.17V434a2.75 2.75 0 01-1.84.66 2.38 2.38 0 01-2.64-2.27c0-1.33 1.19-2.23 2.71-2.23a3 3 0 011.77.58zm0 2.23a1.7 1.7 0 00-1.64-.88c-.87 0-1.7.38-1.7 1.23s.83 1.26 1.7 1.26a1.7 1.7 0 001.64-.88zm5.16 2.49h-1.2v-6.08h-1.49v-1h1.49v-1.88h1.2v1.88h1.65v1H282zm3.74-8.51a.77.77 0 11.78-.77.78.78 0 01-.78.77zm.61 8.48h-1.2v-7.1h1.2zm4.11.03l-2.75-7.1H289l2.08 5.58 2.07-5.58h1.26l-2.77 7.1zm5.98-3.34a2.27 2.27 0 002.39 2.43 3.05 3.05 0 002-.67V434a3.39 3.39 0 01-2.16.63 3.31 3.31 0 01-3.42-3.64c0-2.21 1.28-3.76 3.17-3.76s2.91 1.39 2.91 3.48v.43zm.07-.95h3.66c-.05-1-.57-1.93-1.73-1.93-.94 0-1.71.62-1.93 1.93zm14.69 3.46a2.54 2.54 0 01-2 1c-2.09 0-3.21-1.68-3.21-3.7s1.12-3.7 3.21-3.7a2.54 2.54 0 012 1v-4.13h1.21v10.4h-1.21zm0-4.16a2.05 2.05 0 00-1.83-1.17c-1.36 0-2.16 1.11-2.16 2.61s.8 2.61 2.16 2.61a2.05 2.05 0 001.83-1.17zm4.01 1.65a2.27 2.27 0 002.39 2.43 3.05 3.05 0 002-.67V434a3.39 3.39 0 01-2.16.63A3.31 3.31 0 01314 431c0-2.21 1.28-3.76 3.17-3.76s2.91 1.39 2.91 3.48v.43zm.06-.95h3.67c-.05-1-.58-1.93-1.73-1.93-.94 0-1.71.62-1.94 1.93zm10.42-.43c0-.88-.66-1.42-1.7-1.42a3.6 3.6 0 00-2 .62v-1.14a4.17 4.17 0 012.21-.59 2.36 2.36 0 012.67 2.43v4.82h-1.17V434a2.77 2.77 0 01-1.84.66 2.38 2.38 0 01-2.64-2.27c0-1.33 1.18-2.23 2.7-2.23a3 3 0 011.78.58zm0 2.23a1.72 1.72 0 00-1.65-.88c-.86 0-1.69.38-1.69 1.23s.83 1.26 1.69 1.26a1.72 1.72 0 001.65-.88zm5.2 2.49h-1.2v-6.08h-1.49v-1h1.49v-1.88h1.2v1.88h1.65v1h-1.65zm3.11-10.4h1.2v4.19a2.67 2.67 0 012.1-1 2.35 2.35 0 012.5 2.59v4.66h-1.22v-4.46a1.48 1.48 0 00-1.57-1.68 1.94 1.94 0 00-1.81 1.32v4.82H334zm7.4 8.56a3.43 3.43 0 002.34 1c.78 0 1.47-.29 1.47-1 0-.53-.4-.82-1-1l-1-.34c-1.07-.35-1.79-.86-1.79-2s1.1-2 2.51-2a3.68 3.68 0 012.11.63v1.24a3.2 3.2 0 00-2.11-.84c-.74 0-1.34.32-1.34.92s.38.77 1.05 1l1.09.37a2.06 2.06 0 011.67 2c0 1.31-1.17 2.07-2.66 2.07a3.92 3.92 0 01-2.34-.71zm11.44 4.56h-1.2v-9.82h1.2v.83a2.54 2.54 0 012-1c2.1 0 3.2 1.73 3.2 3.7s-1.1 3.7-3.2 3.7a2.54 2.54 0 01-2-1zm0-4.83a2 2 0 001.83 1.17c1.36 0 2.16-1.11 2.16-2.61s-.8-2.61-2.16-2.61a2 2 0 00-1.83 1.17zm7.51-1.23a2.26 2.26 0 002.38 2.43 3.08 3.08 0 002-.67V434a3.43 3.43 0 01-2.16.63 3.32 3.32 0 01-3.43-3.64c0-2.21 1.28-3.76 3.17-3.76s2.91 1.39 2.91 3.48v.43zm.06-.95h3.66c0-1-.57-1.93-1.72-1.93-.95 0-1.72.62-1.94 1.93zm10.11-1.61a1.48 1.48 0 00-.8-.2 1.73 1.73 0 00-1.65 1.33v4.77h-1.2v-7.1h1.2v.92a2 2 0 011.76-1.07 1.81 1.81 0 01.69.11zm12.23-1.35c1.44 0 2.24 1 2.24 2.55v4.7h-1.22V430c0-1-.43-1.65-1.34-1.65a1.66 1.66 0 00-1.57 1.26v4.9h-1.2V430c0-1-.43-1.65-1.35-1.65a1.67 1.67 0 00-1.57 1.26v4.9h-1.2v-7.1h1.2v.83a2.25 2.25 0 011.93-1 2.1 2.1 0 011.92 1.14 2.56 2.56 0 012.16-1.12zm4.86-1.26a.77.77 0 11.78-.77.78.78 0 01-.78.77zm.61 8.48H387v-7.1h1.2zm3.34.03h-1.2v-10.4h1.2zm3.34 0h-1.2v-10.4h1.2zm2.74-8.51a.77.77 0 11.79-.77.79.79 0 01-.79.77zm.61 8.48h-1.2v-7.1h1.2zm4.9.18c-2 0-3.27-1.52-3.27-3.7s1.31-3.7 3.27-3.7 3.26 1.52 3.26 3.7-1.33 3.7-3.26 3.7zm0-6.34c-1.28 0-2 1.09-2 2.64s.77 2.64 2 2.64 2.05-1.09 2.05-2.64-.77-2.64-2.05-2.64zm4.85-.91h1.2v.89a2.67 2.67 0 012.1-1 2.35 2.35 0 012.5 2.59v4.66h-1.22v-4.46a1.48 1.48 0 00-1.57-1.68 1.94 1.94 0 00-1.81 1.32v4.82H408zm8 7.12a.78.78 0 01-.7-.8.83.83 0 01.86-.85.84.84 0 01.85.93 2.08 2.08 0 01-.35 1l-.85 1.41H415zm10.09.13c-2.58 0-4.43-2.1-4.43-5.06s1.85-5.06 4.43-5.06 4.45 2.08 4.45 5.06-1.86 5.06-4.45 5.06zm0-9c-1.89 0-3.17 1.61-3.17 3.92s1.28 3.92 3.17 3.92 3.19-1.62 3.19-3.92-1.28-3.9-3.19-3.9zm9.02 1.6a2.94 2.94 0 011.91.59v1.22a2.51 2.51 0 00-1.83-.74 2.65 2.65 0 000 5.25 2.5 2.5 0 001.83-.73v1.21a2.89 2.89 0 01-1.91.6 3.71 3.71 0 010-7.4zm5.56 7.25h-1.21v-6.08H438v-1h1.48v-1.88h1.21v1.88h1.64v1h-1.64zm6.65-1.12h2.8v-7.2l-2.75 1.41v-1.28l3.23-1.65h.75v8.72h2.47v1.12h-6.5zm9.41-2.16h2.91v-2.37h1.17v2.37h1.63v1.06h-1.63v2.22h-1.17v-2.22H455v-.07l3.45-7.54h1.25zm17.51 2.16v1.12h-6.5v-.06l3-3.7c1-1.21 1.82-2.16 1.82-3.39a1.62 1.62 0 00-1.81-1.7A4.06 4.06 0 00468 427v-1.28a4.11 4.11 0 012.9-1.2 2.66 2.66 0 012.94 2.77c0 1.41-.94 2.58-2 3.92l-1.84 2.18zm1.62-3.79c0-3 1.46-5.06 3.65-5.06s3.65 2.07 3.65 5.06-1.45 5.06-3.65 5.06-3.65-2.07-3.65-5.06zm1.22 0c0 2.29.83 3.92 2.43 3.92s2.42-1.63 2.42-3.92-.83-3.92-2.42-3.92-2.43 1.63-2.43 3.92zm13.79 3.79v1.12h-6.5v-.06l3-3.7c1-1.21 1.83-2.16 1.83-3.39a1.62 1.62 0 00-1.81-1.7 4.06 4.06 0 00-2.8 1.36v-1.28a4.11 4.11 0 012.9-1.2 2.66 2.66 0 012.94 2.77c0 1.41-.94 2.58-2 3.92l-1.81 2.16zm1.63-3.79c0-3 1.46-5.06 3.65-5.06s3.65 2.07 3.65 5.06-1.45 5.06-3.65 5.06-3.65-2.07-3.65-5.06zm1.22 0c0 2.29.83 3.92 2.43 3.92s2.42-1.63 2.42-3.92-.83-3.92-2.42-3.92-2.43 1.63-2.43 3.92zM2.17 221.74v-9.82h6V213H3.43v3.31h4.45v1.12H3.43v4.27zM13.79 217c0-.88-.66-1.42-1.7-1.42a3.6 3.6 0 00-2 .62v-1.14a4.17 4.17 0 012.21-.59 2.36 2.36 0 012.7 2.45v4.82h-1.21v-.53a2.8 2.8 0 01-1.84.66 2.39 2.39 0 01-2.65-2.27c0-1.33 1.19-2.23 2.71-2.23a3 3 0 011.78.58zm0 2.23a1.73 1.73 0 00-1.65-.88c-.87 0-1.7.38-1.7 1.23s.83 1.26 1.7 1.26a1.73 1.73 0 001.65-.88zm4.41 2.51H17v-10.4h1.2zm3.34 0h-1.2v-10.4h1.2zm6.28-8.48a.77.77 0 11.78-.77.78.78 0 01-.78.77zm.6 8.48h-1.2v-7.1h1.2zm2.15-7.1h1.2v.89a2.66 2.66 0 012.1-1 2.35 2.35 0 012.49 2.6v4.65h-1.21v-4.46a1.48 1.48 0 00-1.57-1.68 1.93 1.93 0 00-1.81 1.32v4.82h-1.2zM48.33 220v-2.32h-2.16v-1.05h3.33v3.84a4.57 4.57 0 01-3.5 1.42c-2.74 0-4.59-2-4.59-5.06s2-5.06 4.74-5.06a4.59 4.59 0 012.83.88V214a4 4 0 00-2.83-1.09c-2 0-3.48 1.55-3.48 3.92s1.31 3.94 3.36 3.94a3.35 3.35 0 002.3-.77zm3.18-8.08h3.15a4.91 4.91 0 010 9.82h-3.15zm3.14 8.69c2.22 0 3.54-1.48 3.54-3.78S56.87 213 54.65 213h-1.87v7.57zm7.81-2.8v3.93h-1.27v-9.82h3.63c2 0 3.29 1 3.29 2.94s-1.3 2.95-3.29 2.95zm2.35-4.81h-2.35v3.67h2.35c1.33 0 2-.73 2-1.83s-.67-1.84-2-1.84zM8.2 237.62v1.12H1.7v-.06l3-3.7c1-1.21 1.83-2.16 1.83-3.39a1.62 1.62 0 00-1.81-1.7 4.06 4.06 0 00-2.8 1.36V230a4.1 4.1 0 012.89-1.2 2.67 2.67 0 012.95 2.77c0 1.41-.94 2.58-2 3.92l-1.81 2.16zm1.63-3.79c0-3 1.46-5.06 3.65-5.06s3.65 2.07 3.65 5.06-1.46 5.06-3.65 5.06-3.65-2.07-3.65-5.06zm1.22 0c0 2.29.83 3.92 2.43 3.92s2.42-1.63 2.42-3.92-.83-3.92-2.42-3.92-2.43 1.63-2.43 3.92zm13.79 3.79v1.12h-6.5v-.06l3-3.7c1-1.21 1.83-2.16 1.83-3.39a1.62 1.62 0 00-1.81-1.7 4.06 4.06 0 00-2.8 1.36V230a4.1 4.1 0 012.89-1.2 2.67 2.67 0 012.95 2.77c0 1.41-.94 2.58-2 3.92l-1.81 2.16zm1.63-3.79c0-3 1.46-5.06 3.65-5.06s3.65 2.07 3.65 5.06-1.46 5.06-3.65 5.06-3.65-2.07-3.65-5.06zm1.22 0c0 2.29.83 3.92 2.43 3.92s2.42-1.63 2.42-3.92-.84-3.92-2.42-3.92-2.43 1.63-2.43 3.92zm19.38-4.91v9.82H45.8v-4.48h-5.55v4.48H39v-9.82h1.27v4.21h5.53v-4.21zm2.25 8.7h2.8v-7.2l-2.75 1.41v-1.28l3.23-1.65h.75v8.72h2.47v1.12h-6.5zm-43.55 7.72v1.28a5 5 0 000 9.19v1.28a6.17 6.17 0 010-11.75zm2.62.43a1.95 1.95 0 11-1.95 1.95 1.95 1.95 0 011.95-1.95zm4.48.15h1l-6.13 9.82h-1zm-4.48 2.91a1.12 1.12 0 000-2.23 1.12 1.12 0 000 2.23zm3.83 7.06a1.95 1.95 0 110-3.89 1.95 1.95 0 010 3.89zm0-3.06a1.11 1.11 0 100 2.22 1.11 1.11 0 000-2.22zm2.6 4.26v-1.28c1.72-.43 3.09-2.13 3.09-4.6s-1.37-4.16-3.09-4.59v-1.28a6.17 6.17 0 010 11.75z"/><path d="M574.14 78.56l-2.83-4.23v6.34h-2v-9.83h1.9l3 4.64 3-4.64H579v9.83h-2v-6.34l-2.8 4.23zm9.73 2.27a3.74 3.74 0 113.5-3.73 3.46 3.46 0 01-3.5 3.73zm0-5.79c-1 0-1.54.86-1.54 2.06s.55 2.05 1.54 2.05 1.54-.86 1.54-2.05-.55-2.1-1.54-2.1zm9.13.43a2 2 0 00-1-.24 1.3 1.3 0 00-1.36 1v4.43h-2v-7.14h2v.7a1.85 1.85 0 011.6-.86 1.94 1.94 0 01.75.12zm2.71 2.08a1.86 1.86 0 002.06 1.65 3.44 3.44 0 002.05-.63v1.64a3.93 3.93 0 01-2.35.62 3.45 3.45 0 01-3.67-3.68c0-2.24 1.41-3.79 3.36-3.79s3.16 1.44 3.16 3.55v.64zm.06-1.3h2.71a1.24 1.24 0 00-1.27-1.31 1.51 1.51 0 00-1.44 1.31zm13.83 3.83a2.49 2.49 0 01-1.8.75c-2.08 0-3.24-1.68-3.24-3.73s1.16-3.74 3.24-3.74a2.45 2.45 0 011.8.75v-3.84h2v10.4h-2zm0-4.16a1.53 1.53 0 00-1.35-.84 2 2 0 000 4 1.47 1.47 0 001.35-.83zm5.17 1.63a1.85 1.85 0 002.06 1.65 3.48 3.48 0 002-.63v1.64a3.93 3.93 0 01-2.35.62 3.45 3.45 0 01-3.67-3.68c0-2.24 1.41-3.79 3.36-3.79s3.15 1.44 3.15 3.55v.64zm.06-1.3h2.7a1.23 1.23 0 00-1.26-1.31 1.49 1.49 0 00-1.44 1.31zm9.78-.05c0-.68-.6-1.12-1.61-1.12a3.52 3.52 0 00-2 .58V74a4.88 4.88 0 012.39-.59c2 0 3.07 1 3.07 2.75v4.56h-1.9v-.38a2.83 2.83 0 01-1.73.51 2.38 2.38 0 01-2.64-2.32c0-1.36 1.2-2.29 2.76-2.29a3.31 3.31 0 011.61.41zm0 2a1.38 1.38 0 00-1.27-.63c-.62 0-1.26.27-1.26.88s.64.88 1.26.88a1.4 1.4 0 001.27-.62zm6.39 2.47h-2v-5.55h-1.36v-1.6H629v-1.94h2v1.94h1.52v1.6H631zm2.69-10.4h2v3.9a2.53 2.53 0 011.92-.81 2.39 2.39 0 012.52 2.64v4.67h-2v-4.26a1.11 1.11 0 00-1.13-1.26 1.29 1.29 0 00-1.29 1v4.53h-2zm7.78 8a3.94 3.94 0 002.46 1c.59 0 1.06-.17 1.06-.61s-.32-.54-.82-.7l-.69-.19c-1.24-.34-2-.93-2-2.16 0-1.4 1.2-2.24 2.8-2.24a4 4 0 012.29.64v1.8a3.56 3.56 0 00-2.19-.88c-.55 0-1 .21-1 .61s.27.51.77.67l.8.24c1.36.39 2 1 2 2.18 0 1.44-1.26 2.21-2.94 2.21a4.39 4.39 0 01-2.53-.72zm7.33 2.35a1.11 1.11 0 01-1-1.15 1.2 1.2 0 011.24-1.22 1.23 1.23 0 011.25 1.36 2.73 2.73 0 01-.51 1.44l-.91 1.36h-1.28zM562 95.27a4 4 0 002.47 1c.59 0 1-.17 1-.61s-.32-.54-.81-.7l-.69-.19c-1.25-.34-2-.93-2-2.16 0-1.4 1.2-2.24 2.8-2.24a4 4 0 012.29.64v1.8a3.56 3.56 0 00-2.2-.88c-.54 0-1 .21-1 .61s.27.51.77.67l.8.24c1.36.39 2 1 2 2.18 0 1.44-1.27 2.21-3 2.21a4.42 4.42 0 01-2.53-.72zm14.65-4.91c1.47 0 2.35 1 2.35 2.64v4.67h-2v-4.26c0-.77-.34-1.28-1-1.28a1.1 1.1 0 00-1.1.93v4.61h-2v-4.26c0-.77-.32-1.28-1-1.28a1.12 1.12 0 00-1.12.93v4.61h-2v-7.15h2v.59a2.27 2.27 0 011.81-.75 2.37 2.37 0 011.92.91 2.78 2.78 0 012.14-.91zm7.93 2.84c0-.68-.59-1.12-1.6-1.12a3.52 3.52 0 00-2 .58V91a4.87 4.87 0 012.38-.59c2 0 3.08 1 3.08 2.75v4.56h-1.91v-.38a2.79 2.79 0 01-1.73.51 2.38 2.38 0 01-2.64-2.32c0-1.36 1.2-2.29 2.77-2.29a3.27 3.27 0 011.6.41zm0 2a1.35 1.35 0 00-1.26-.63c-.63 0-1.27.27-1.27.88s.64.88 1.27.88a1.37 1.37 0 001.26-.62zm5.54 2.47h-2v-10.4h2zm3.71 0h-2v-10.4h2zm6.57-3.12a1.86 1.86 0 002.07 1.65 3.48 3.48 0 002-.63v1.64a4 4 0 01-2.36.62 3.45 3.45 0 01-3.66-3.68c0-2.24 1.41-3.79 3.36-3.79S605 91.8 605 93.91v.64zm.07-1.3h2.7a1.24 1.24 0 00-1.26-1.31 1.49 1.49 0 00-1.44 1.31zm9.01-2.89a3.12 3.12 0 011.93.56v1.8a2.46 2.46 0 00-1.69-.64 2 2 0 000 4 2.56 2.56 0 001.69-.64v1.79a3.12 3.12 0 01-1.93.56 3.74 3.74 0 010-7.47zm6.36 7.47a3.74 3.74 0 113.51-3.73 3.46 3.46 0 01-3.51 3.73zm0-5.79c-1 0-1.53.86-1.53 2.06s.54 2.05 1.53 2.05 1.54-.86 1.54-2.05-.54-2.1-1.54-2.1zm4.77-1.52h2v.65a2.53 2.53 0 011.92-.81 2.39 2.39 0 012.52 2.64v4.67h-2v-4.26a1.11 1.11 0 00-1.17-1.26 1.29 1.29 0 00-1.29 1v4.53h-2zm11.14 7.31a3.74 3.74 0 113.5-3.73 3.46 3.46 0 01-3.5 3.73zm0-5.79c-1 0-1.54.86-1.54 2.06s.55 2.05 1.54 2.05 1.53-.86 1.53-2.05-.54-2.1-1.53-2.1zm12.64-1.68c1.47 0 2.35 1 2.35 2.64v4.67h-2v-4.26c0-.77-.34-1.28-1-1.28a1.1 1.1 0 00-1.1.93v4.61h-2v-4.26c0-.77-.32-1.28-1-1.28a1.12 1.12 0 00-1.12.93v4.61h-2v-7.15h2v.59a2.27 2.27 0 011.81-.75 2.36 2.36 0 011.92.91 2.78 2.78 0 012.14-.91zm4.99-.77a1.14 1.14 0 111.17-1.14 1.15 1.15 0 01-1.17 1.14zm1 8.08h-2v-7.15h2zm4.89-7.31a3.12 3.12 0 011.93.56v1.8a2.46 2.46 0 00-1.69-.64 2 2 0 000 4 2.56 2.56 0 001.69-.64v1.79a3.12 3.12 0 01-1.93.56 3.74 3.74 0 010-7.47zm-53.51 13.91h2v3.9a2.55 2.55 0 011.92-.81 2.39 2.39 0 012.52 2.64v4.67h-2v-4.26a1.11 1.11 0 00-1.17-1.26 1.3 1.3 0 00-1.29 1v4.53h-2zm9.08 2.32a1.14 1.14 0 111.16-1.14 1.14 1.14 0 01-1.16 1.14zm1 8.08h-2v-7.15h2zm4.53 0h-2v-5.55H613v-1.6h1.36v-1.94h2v1.94h1.52v1.6h-1.52zM574.14 325l-2.83-4.23v6.34h-2v-9.82h1.9l3 4.64 3-4.64H579v9.82h-2v-6.34l-2.8 4.23zm9.73 2.25a3.74 3.74 0 113.5-3.73 3.46 3.46 0 01-3.5 3.73zm0-5.79c-1 0-1.54.86-1.54 2.06s.55 2.05 1.54 2.05 1.54-.86 1.54-2.05-.55-2.06-1.54-2.06zm9.13.43a2 2 0 00-1-.24 1.3 1.3 0 00-1.36 1v4.43h-2v-7.15h2v.7a1.85 1.85 0 011.6-.86 1.73 1.73 0 01.75.13zm2.71 2.11a1.86 1.86 0 002.06 1.65 3.43 3.43 0 002.05-.62v1.63a3.93 3.93 0 01-2.35.62 3.45 3.45 0 01-3.67-3.68c0-2.24 1.41-3.79 3.36-3.79s3.16 1.44 3.16 3.55v.64zm.06-1.29h2.71a1.25 1.25 0 00-1.27-1.32 1.51 1.51 0 00-1.44 1.29zm13.83 3.79a2.45 2.45 0 01-1.8.75c-2.08 0-3.24-1.68-3.24-3.73s1.16-3.74 3.24-3.74a2.49 2.49 0 011.8.75v-3.84h2v10.4h-2zm0-4.16a1.52 1.52 0 00-1.35-.83 2 2 0 000 4 1.47 1.47 0 001.35-.83zm5.17 1.66a1.85 1.85 0 002.06 1.65 3.47 3.47 0 002-.62v1.63a3.93 3.93 0 01-2.35.62 3.45 3.45 0 01-3.67-3.68c0-2.24 1.41-3.79 3.36-3.79s3.15 1.44 3.15 3.55v.64zm.06-1.29h2.7a1.24 1.24 0 00-1.26-1.32 1.49 1.49 0 00-1.44 1.29zm9.78-.08c0-.69-.6-1.12-1.61-1.12a3.51 3.51 0 00-2 .57v-1.71a4.88 4.88 0 012.39-.59c2 0 3.07 1 3.07 2.75v4.56h-1.9v-.38a2.83 2.83 0 01-1.73.51 2.38 2.38 0 01-2.64-2.32c0-1.36 1.2-2.29 2.76-2.29a3.2 3.2 0 011.61.42zm0 2a1.38 1.38 0 00-1.27-.63c-.62 0-1.26.28-1.26.88s.64.88 1.26.88a1.4 1.4 0 001.27-.62zm6.39 2.46h-2v-5.55h-1.36v-1.6H629V318h2v1.94h1.52v1.6H631zm2.69-10.4h2v3.9a2.57 2.57 0 011.92-.81 2.4 2.4 0 012.53 2.64v4.67h-2v-4.25a1.11 1.11 0 00-1.17-1.27 1.29 1.29 0 00-1.29 1v4.53h-2zm7.78 8a3.88 3.88 0 002.46 1c.59 0 1.06-.17 1.06-.6s-.32-.55-.82-.71l-.69-.19c-1.24-.34-2-.93-2-2.16 0-1.39 1.2-2.24 2.8-2.24a4 4 0 012.29.64v1.81a3.5 3.5 0 00-2.19-.88c-.55 0-1 .21-1 .61s.27.51.77.67l.8.24c1.36.38 2 1 2 2.17 0 1.45-1.26 2.21-2.94 2.21a4.32 4.32 0 01-2.53-.72zm7.33 2.36a1.13 1.13 0 01-1-1.16 1.2 1.2 0 011.24-1.21 1.23 1.23 0 011.25 1.36 2.73 2.73 0 01-.51 1.44l-.91 1.36h-1.28zm-84.11 17.04h-2v-10.4h2zm5.67-4.46c0-.69-.59-1.12-1.6-1.12a3.55 3.55 0 00-2 .57v-1.71a4.91 4.91 0 012.39-.59c2 0 3.07 1 3.07 2.75v4.56h-1.9v-.38a2.81 2.81 0 01-1.73.51 2.38 2.38 0 01-2.59-2.32c0-1.36 1.2-2.29 2.77-2.29a3.19 3.19 0 011.6.42zm0 2a1.38 1.38 0 00-1.27-.63c-.62 0-1.26.28-1.26.88s.64.88 1.26.88a1.4 1.4 0 001.27-.62zm7.89-2.74a2 2 0 00-1-.24 1.3 1.3 0 00-1.36 1v4.43h-2v-7.15h2v.7a1.85 1.85 0 011.6-.86 1.82 1.82 0 01.76.13zm5.8 4.39a2.32 2.32 0 01-1.74.72c-2.07 0-3.24-1.67-3.24-3.6s1.17-3.62 3.24-3.62a2.32 2.32 0 011.74.72v-.56h2v6.37c0 2.62-1.94 3.58-3.89 3.58a4.89 4.89 0 01-2.47-.6v-2a3.49 3.49 0 002.44.88 1.7 1.7 0 001.93-1.71zm0-4.1a1.54 1.54 0 00-1.33-.74c-1.05 0-1.66.82-1.66 2s.61 1.93 1.66 1.93a1.51 1.51 0 001.33-.73zm5.17 1.82a1.86 1.86 0 002.06 1.65 3.43 3.43 0 002.05-.62v1.63a3.93 3.93 0 01-2.35.62 3.44 3.44 0 01-3.66-3.68c0-2.24 1.4-3.79 3.36-3.79s3.15 1.44 3.15 3.55v.64zm.06-1.29H592a1.25 1.25 0 00-1.27-1.32 1.51 1.51 0 00-1.45 1.29zM600 341a1.86 1.86 0 002.07 1.65 3.47 3.47 0 002.05-.62v1.63a4 4 0 01-2.36.62 3.45 3.45 0 01-3.66-3.68c0-2.24 1.41-3.79 3.36-3.79s3.15 1.44 3.15 3.55v.64zm.07-1.29h2.7a1.25 1.25 0 00-1.26-1.32 1.49 1.49 0 00-1.51 1.29zm8.93-2.93a3.15 3.15 0 011.94.56v1.81a2.44 2.44 0 00-1.7-.64 2 2 0 000 4 2.53 2.53 0 001.7-.64v1.79a3.15 3.15 0 01-1.94.56 3.74 3.74 0 010-7.47zm6.41 7.47a3.74 3.74 0 113.51-3.73 3.45 3.45 0 01-3.51 3.73zm0-5.79c-1 0-1.53.86-1.53 2.06s.54 2.05 1.53 2.05 1.54-.86 1.54-2.05-.55-2.06-1.54-2.06zm4.77-1.52h2v.65a2.6 2.6 0 011.92-.81 2.39 2.39 0 012.53 2.64v4.67h-2v-4.25a1.12 1.12 0 00-1.17-1.27 1.31 1.31 0 00-1.3 1v4.53h-2zm11.14 7.31a3.74 3.74 0 113.5-3.73 3.46 3.46 0 01-3.5 3.73zm0-5.79c-1 0-1.54.86-1.54 2.06s.54 2.05 1.54 2.05 1.53-.86 1.53-2.05-.54-2.06-1.53-2.06zm12.68-1.68c1.47 0 2.35 1 2.35 2.64v4.67h-2v-4.25c0-.77-.34-1.28-1-1.28a1.1 1.1 0 00-1.1.92v4.61h-2v-4.25c0-.77-.32-1.28-1-1.28a1.12 1.12 0 00-1.12.92v4.61h-2v-7.15h2v.59a2.27 2.27 0 011.81-.75 2.37 2.37 0 011.92.91 2.78 2.78 0 012.14-.91zm5-.78a1.14 1.14 0 111.17-1.14A1.14 1.14 0 01649 336zm1 8.08h-2v-7.15h2zm4.84-7.3a3.12 3.12 0 011.93.56v1.81a2.41 2.41 0 00-1.69-.64 2 2 0 000 4 2.51 2.51 0 001.69-.64v1.79a3.12 3.12 0 01-1.93.56 3.74 3.74 0 010-7.47zm-53.08 13.91h2v3.9a2.59 2.59 0 011.92-.81 2.39 2.39 0 012.53 2.64v4.67h-2v-4.25a1.11 1.11 0 00-1.17-1.27 1.3 1.3 0 00-1.29 1v4.53h-2zm9.08 2.31a1.14 1.14 0 111.16-1.14 1.13 1.13 0 01-1.16 1.14zm1 8.08h-2v-7.15h2zm4.53.01h-2v-5.55H613v-1.6h1.36V352h2v1.94h1.52v1.6h-1.52zM92.63 80.67v-9.83h6.55v1.79h-4.52v2.5h4.18v1.78h-4.18v3.76zm9.37-3.12a1.85 1.85 0 002.06 1.65 3.48 3.48 0 002.05-.63v1.64a3.93 3.93 0 01-2.35.62 3.45 3.45 0 01-3.67-3.68c0-2.24 1.41-3.79 3.36-3.79s3.15 1.44 3.15 3.55v.64zm.06-1.3h2.7a1.23 1.23 0 00-1.26-1.31 1.49 1.49 0 00-1.43 1.31zm12.33 1.83l1.28-4.56h1.92l-2.18 7.15h-1.82l-1.17-4.39-1.17 4.39h-1.82l-2.18-7.15h2l1.28 4.56 1.17-4.56h1.52zm5.73-.53a1.85 1.85 0 002.06 1.65 3.44 3.44 0 002-.63v1.64a3.93 3.93 0 01-2.35.62 3.45 3.45 0 01-3.67-3.68c0-2.24 1.41-3.79 3.36-3.79s3.16 1.44 3.16 3.55v.64zm.06-1.3h2.71a1.25 1.25 0 00-1.27-1.31 1.49 1.49 0 00-1.44 1.31zm10.18-.78a2 2 0 00-1-.24 1.28 1.28 0 00-1.36 1v4.43h-2v-7.14h2v.7a1.83 1.83 0 011.6-.86 2 2 0 01.75.12zm9.26 4.61a2.47 2.47 0 01-1.79.75c-2.08 0-3.25-1.68-3.25-3.73s1.17-3.74 3.25-3.74a2.43 2.43 0 011.79.75v-3.84h2v10.4h-2zm0-4.16a1.52 1.52 0 00-1.34-.84c-1.08 0-1.71.87-1.71 2a1.77 1.77 0 001.71 2 1.45 1.45 0 001.34-.83zm5.17 1.63a1.86 1.86 0 002.06 1.65 3.44 3.44 0 002.05-.63v1.64a3.93 3.93 0 01-2.35.62 3.45 3.45 0 01-3.67-3.68c0-2.24 1.41-3.79 3.36-3.79s3.16 1.44 3.16 3.55v.64zm.06-1.3h2.71a1.24 1.24 0 00-1.27-1.31 1.51 1.51 0 00-1.44 1.31zm9.78-.05c0-.68-.59-1.12-1.6-1.12a3.52 3.52 0 00-1.95.58V74a4.87 4.87 0 012.38-.59c2 0 3.07 1 3.07 2.75v4.56h-1.9v-.38a2.79 2.79 0 01-1.73.51 2.38 2.38 0 01-2.64-2.32c0-1.36 1.2-2.29 2.77-2.29a3.3 3.3 0 011.6.41zm0 2a1.37 1.37 0 00-1.27-.63c-.62 0-1.26.27-1.26.88s.64.88 1.26.88a1.38 1.38 0 001.27-.62zm6.37 2.47h-2v-5.55h-1.36v-1.6H159v-1.94h2v1.94h1.52v1.6H161zm2.72-10.4h2v3.9a2.55 2.55 0 011.92-.81 2.39 2.39 0 012.51 2.64v4.67h-2v-4.26a1.11 1.11 0 00-1.15-1.26 1.31 1.31 0 00-1.3 1v4.53h-2zm7.77 8a4 4 0 002.47 1c.59 0 1-.17 1-.61s-.32-.54-.81-.7l-.69-.19c-1.25-.34-2-.93-2-2.16 0-1.4 1.2-2.24 2.8-2.24a4 4 0 012.29.64v1.8a3.56 3.56 0 00-2.2-.88c-.54 0-1 .21-1 .61s.27.51.77.67l.8.24c1.36.39 2 1 2 2.18 0 1.44-1.27 2.21-2.95 2.21a4.42 4.42 0 01-2.53-.72zm7.33 2.35a1.11 1.11 0 01-1-1.15 1.21 1.21 0 011.25-1.22 1.23 1.23 0 011.25 1.36 2.75 2.75 0 01-.52 1.44l-.91 1.36h-1.28zM88.64 95.27a4 4 0 002.47 1c.59 0 1.06-.17 1.06-.61s-.32-.54-.82-.7l-.69-.19c-1.25-.34-2-.93-2-2.16 0-1.4 1.2-2.24 2.8-2.24a4 4 0 012.29.64v1.8a3.56 3.56 0 00-2.19-.88c-.55 0-1 .21-1 .61s.27.51.76.67l.8.24c1.36.39 2 1 2 2.18 0 1.44-1.27 2.21-3 2.21a4.42 4.42 0 01-2.53-.72zm14.68-4.91c1.47 0 2.35 1 2.35 2.64v4.67h-2v-4.26c0-.77-.34-1.28-1-1.28a1.1 1.1 0 00-1.1.93v4.61h-2v-4.26c0-.77-.32-1.28-1-1.28a1.12 1.12 0 00-1.12.93v4.61h-2v-7.15h2v.59a2.27 2.27 0 011.81-.75 2.36 2.36 0 011.92.91 2.78 2.78 0 012.14-.91zm7.93 2.84c0-.68-.59-1.12-1.6-1.12a3.52 3.52 0 00-2 .58V91a4.88 4.88 0 012.39-.59c2 0 3.07 1 3.07 2.75v4.56h-1.91v-.38a2.77 2.77 0 01-1.72.51 2.38 2.38 0 01-2.65-2.32c0-1.36 1.2-2.29 2.77-2.29a3.24 3.24 0 011.6.41zm0 2a1.35 1.35 0 00-1.26-.63c-.63 0-1.27.27-1.27.88s.64.88 1.27.88a1.37 1.37 0 001.26-.62zm5.54 2.47h-2v-10.4h2zm3.71 0h-2v-10.4h2zm6.58-3.12a1.85 1.85 0 002.06 1.65 3.46 3.46 0 002.05-.63v1.64a3.93 3.93 0 01-2.35.62 3.45 3.45 0 01-3.67-3.68c0-2.24 1.41-3.79 3.36-3.79s3.16 1.44 3.16 3.55v.64zm.06-1.3h2.7a1.23 1.23 0 00-1.26-1.31 1.49 1.49 0 00-1.44 1.31zm9.01-2.89a3.17 3.17 0 011.94.56v1.8a2.48 2.48 0 00-1.7-.64 2 2 0 000 4 2.58 2.58 0 001.7-.64v1.79a3.17 3.17 0 01-1.94.56 3.74 3.74 0 010-7.47zm6.37 7.47A3.74 3.74 0 11146 94.1a3.46 3.46 0 01-3.48 3.73zm0-5.79c-1 0-1.54.86-1.54 2.06s.54 2.05 1.54 2.05 1.53-.86 1.53-2.05-.54-2.1-1.53-2.1zm4.76-1.52h2v.65a2.55 2.55 0 011.92-.81 2.39 2.39 0 012.52 2.64v4.67h-2v-4.26a1.11 1.11 0 00-1.17-1.26 1.3 1.3 0 00-1.29 1v4.53h-2zm11.14 7.31a3.74 3.74 0 113.51-3.73 3.46 3.46 0 01-3.51 3.73zm0-5.79c-1 0-1.54.86-1.54 2.06s.55 2.05 1.54 2.05 1.58-.86 1.58-2.05-.59-2.1-1.58-2.1zm12.64-1.68a2.33 2.33 0 012.36 2.64v4.67h-2v-4.26c0-.77-.34-1.28-1-1.28a1.11 1.11 0 00-1.11.93v4.61h-2v-4.26c0-.77-.32-1.28-1-1.28a1.12 1.12 0 00-1.12.93v4.61h-2v-7.15h2v.59a2.27 2.27 0 011.81-.75 2.36 2.36 0 011.92.91 2.8 2.8 0 012.14-.91zm4.99-.77a1.14 1.14 0 111.17-1.14 1.14 1.14 0 01-1.17 1.14zm1 8.08h-2v-7.15h2zm4.89-7.31a3.17 3.17 0 011.94.56v1.8a2.48 2.48 0 00-1.7-.64 2 2 0 000 4 2.58 2.58 0 001.7-.64v1.79a3.17 3.17 0 01-1.94.56 3.74 3.74 0 010-7.47zm-53.5 13.91h2v3.9a2.55 2.55 0 011.92-.81 2.39 2.39 0 012.53 2.64v4.67h-2v-4.26a1.11 1.11 0 00-1.17-1.26 1.31 1.31 0 00-1.3 1v4.53h-2zm9.07 2.32a1.14 1.14 0 111.17-1.14 1.15 1.15 0 01-1.17 1.14zm1 8.08h-2v-7.15h2zm4.49 0h-2v-5.55h-1.3v-1.6h1.36v-1.94h2v1.94h1.53v1.6H143zM93.06 327.09v-9.82h6.55v1.79h-4.52v2.5h4.18v1.77h-4.18v3.76zm9.38-3.09a1.86 1.86 0 002.06 1.65 3.43 3.43 0 002-.62v1.63a3.93 3.93 0 01-2.35.62 3.45 3.45 0 01-3.67-3.68c0-2.24 1.41-3.79 3.36-3.79s3.16 1.44 3.16 3.55v.64zm.06-1.29h2.71a1.25 1.25 0 00-1.27-1.32 1.51 1.51 0 00-1.44 1.29zm12.32 1.79l1.28-4.56h1.9l-2.17 7.15H114l-1.17-4.38-1.16 4.38h-1.83l-2.18-7.15h2l1.34 4.56 1.17-4.56h1.52zm5.73-.5a1.86 1.86 0 002.06 1.65 3.43 3.43 0 002-.62v1.63a3.93 3.93 0 01-2.35.62 3.45 3.45 0 01-3.67-3.68c0-2.24 1.41-3.79 3.37-3.79s3.15 1.44 3.15 3.55v.64zm.06-1.29h2.71a1.25 1.25 0 00-1.27-1.32 1.51 1.51 0 00-1.44 1.29zm10.18-.82a2 2 0 00-1-.24 1.29 1.29 0 00-1.36 1v4.43h-2v-7.15h2v.7a1.83 1.83 0 011.6-.86 1.76 1.76 0 01.75.13zm9.26 4.61a2.43 2.43 0 01-1.79.75c-2.08 0-3.25-1.68-3.25-3.73s1.17-3.74 3.25-3.74a2.47 2.47 0 011.79.75v-3.84h2v10.4h-2zm0-4.16a1.5 1.5 0 00-1.34-.83 2 2 0 000 4 1.45 1.45 0 001.34-.83zm5.17 1.66a1.86 1.86 0 002.07 1.65 3.42 3.42 0 002-.62v1.63a3.93 3.93 0 01-2.35.62 3.44 3.44 0 01-3.66-3.68c0-2.24 1.41-3.79 3.36-3.79s3.15 1.44 3.15 3.55v.64zm.06-1.29H148a1.25 1.25 0 00-1.26-1.32 1.51 1.51 0 00-1.46 1.29zm9.78-.08c0-.69-.59-1.12-1.6-1.12a3.51 3.51 0 00-2 .57v-1.71a4.87 4.87 0 012.38-.59c2 0 3.08 1 3.08 2.75v4.56h-1.91v-.38a2.79 2.79 0 01-1.73.51 2.38 2.38 0 01-2.64-2.32c0-1.36 1.2-2.29 2.77-2.29a3.16 3.16 0 011.6.42zm0 2a1.35 1.35 0 00-1.26-.63c-.63 0-1.27.28-1.27.88s.64.88 1.27.88a1.37 1.37 0 001.26-.62zm6.37 2.46h-2v-5.55h-1.36v-1.6h1.36V318h2v1.94H163v1.6h-1.52zm2.72-10.4h2v3.9a2.6 2.6 0 011.92-.81 2.39 2.39 0 012.53 2.64v4.67h-2v-4.25a1.12 1.12 0 00-1.17-1.27 1.31 1.31 0 00-1.3 1v4.53h-2zm7.77 8a3.93 3.93 0 002.47 1c.59 0 1.06-.17 1.06-.6s-.32-.55-.82-.71l-.69-.19c-1.25-.34-2-.93-2-2.16 0-1.39 1.2-2.24 2.8-2.24a4 4 0 012.29.64v1.81a3.5 3.5 0 00-2.19-.88c-.55 0-1 .21-1 .61s.27.51.76.67l.8.24c1.36.38 2 1 2 2.17 0 1.45-1.27 2.21-3 2.21a4.34 4.34 0 01-2.53-.72zm7.33 2.36a1.13 1.13 0 01-1-1.16 1.2 1.2 0 011.25-1.21 1.23 1.23 0 011.25 1.36 2.82 2.82 0 01-.51 1.44l-.92 1.36h-1.28zM91.8 344.09h-2v-10.4h2zm5.66-4.46c0-.69-.59-1.12-1.6-1.12a3.51 3.51 0 00-2 .57v-1.71a4.87 4.87 0 012.38-.59c2 0 3.08 1 3.08 2.75v4.56h-1.86v-.38a2.79 2.79 0 01-1.73.51 2.38 2.38 0 01-2.64-2.32c0-1.36 1.2-2.29 2.77-2.29a3.16 3.16 0 011.6.42zm0 2a1.35 1.35 0 00-1.26-.63c-.63 0-1.27.28-1.27.88s.64.88 1.27.88a1.37 1.37 0 001.26-.62zm7.89-2.74a2 2 0 00-1-.24 1.29 1.29 0 00-1.36 1v4.43h-2v-7.15h2v.7a1.83 1.83 0 011.6-.86 1.76 1.76 0 01.75.13zm5.81 4.39a2.34 2.34 0 01-1.75.72c-2.06 0-3.23-1.67-3.23-3.6s1.17-3.62 3.23-3.62a2.34 2.34 0 011.75.72v-.56h2v6.37c0 2.62-1.93 3.58-3.89 3.58a4.85 4.85 0 01-2.46-.6v-2a3.45 3.45 0 002.43.88c1.07 0 1.94-.54 1.94-1.71zm0-4.1a1.57 1.57 0 00-1.33-.74c-1.06 0-1.67.82-1.67 2a1.7 1.7 0 001.67 1.93 1.54 1.54 0 001.33-.73zm5.16 1.82a1.86 1.86 0 002.07 1.65 3.47 3.47 0 002-.62v1.63a3.93 3.93 0 01-2.35.62 3.45 3.45 0 01-3.67-3.68c0-2.24 1.41-3.79 3.36-3.79s3.15 1.44 3.15 3.55v.64zm.07-1.29h2.7a1.24 1.24 0 00-1.26-1.32 1.49 1.49 0 00-1.44 1.29zm10.69 1.29a1.85 1.85 0 002.06 1.65 3.43 3.43 0 002.05-.62v1.63a3.93 3.93 0 01-2.35.62 3.45 3.45 0 01-3.67-3.68c0-2.24 1.41-3.79 3.36-3.79s3.16 1.44 3.16 3.55v.64zm.06-1.29h2.71a1.25 1.25 0 00-1.27-1.32 1.49 1.49 0 00-1.44 1.29zm9.01-2.93a3.17 3.17 0 011.94.56v1.81a2.44 2.44 0 00-1.7-.64 2 2 0 000 4 2.53 2.53 0 001.7-.64v1.79a3.17 3.17 0 01-1.94.56 3.74 3.74 0 010-7.47zm6.37 7.47a3.74 3.74 0 113.5-3.73 3.46 3.46 0 01-3.5 3.73zm0-5.79c-1 0-1.54.86-1.54 2.06s.54 2.05 1.54 2.05 1.53-.86 1.53-2.05-.54-2.06-1.53-2.06zm4.76-1.52h2v.65a2.59 2.59 0 011.92-.81 2.39 2.39 0 012.53 2.64v4.67h-2v-4.25c0-.76-.38-1.27-1.16-1.27a1.31 1.31 0 00-1.3 1v4.53h-2zm11.14 7.31a3.74 3.74 0 113.51-3.73 3.46 3.46 0 01-3.51 3.73zm0-5.79c-1 0-1.54.86-1.54 2.06s.55 2.05 1.54 2.05 1.54-.86 1.54-2.05-.55-2.06-1.54-2.06zm12.64-1.68a2.33 2.33 0 012.36 2.64v4.67h-2v-4.25c0-.77-.34-1.28-1-1.28a1.11 1.11 0 00-1.11.92v4.61h-2v-4.25c0-.77-.32-1.28-1-1.28a1.12 1.12 0 00-1.12.92v4.61h-2v-7.15h2v.59a2.27 2.27 0 011.81-.75 2.36 2.36 0 011.92.91 2.8 2.8 0 012.14-.91zm4.99-.78a1.14 1.14 0 111.17-1.14 1.14 1.14 0 01-1.17 1.14zm1 8.08h-2v-7.15h2zm4.89-7.3a3.17 3.17 0 011.94.56v1.81a2.44 2.44 0 00-1.7-.64 2 2 0 000 4 2.53 2.53 0 001.7-.64v1.79a3.17 3.17 0 01-1.94.56 3.74 3.74 0 010-7.47zm-53.07 13.91h2v3.9a2.6 2.6 0 011.92-.81 2.39 2.39 0 012.53 2.64v4.67h-2v-4.25a1.12 1.12 0 00-1.17-1.27 1.31 1.31 0 00-1.3 1v4.53h-2zm9.07 2.31a1.14 1.14 0 111.17-1.14 1.14 1.14 0 01-1.17 1.14zm1 8.08h-2v-7.15h2zm4.54.01h-2v-5.55h-1.36v-1.6h1.36V352h2v1.94H145v1.6h-1.52z" fill="#97918c" stroke="#fff1e5" stroke-width="4"/><path d="M574.14 78.56l-2.83-4.23v6.34h-2v-9.83h1.9l3 4.64 3-4.64H579v9.83h-2v-6.34l-2.8 4.23zm9.73 2.27a3.74 3.74 0 113.5-3.73 3.46 3.46 0 01-3.5 3.73zm0-5.79c-1 0-1.54.86-1.54 2.06s.55 2.05 1.54 2.05 1.54-.86 1.54-2.05-.55-2.1-1.54-2.1zm9.13.43a2 2 0 00-1-.24 1.3 1.3 0 00-1.36 1v4.43h-2v-7.14h2v.7a1.85 1.85 0 011.6-.86 1.94 1.94 0 01.75.12zm2.71 2.08a1.86 1.86 0 002.06 1.65 3.44 3.44 0 002.05-.63v1.64a3.93 3.93 0 01-2.35.62 3.45 3.45 0 01-3.67-3.68c0-2.24 1.41-3.79 3.36-3.79s3.16 1.44 3.16 3.55v.64zm.06-1.3h2.71a1.24 1.24 0 00-1.27-1.31 1.51 1.51 0 00-1.44 1.31zm13.83 3.83a2.49 2.49 0 01-1.8.75c-2.08 0-3.24-1.68-3.24-3.73s1.16-3.74 3.24-3.74a2.45 2.45 0 011.8.75v-3.84h2v10.4h-2zm0-4.16a1.53 1.53 0 00-1.35-.84 2 2 0 000 4 1.47 1.47 0 001.35-.83zm5.17 1.63a1.85 1.85 0 002.06 1.65 3.48 3.48 0 002-.63v1.64a3.93 3.93 0 01-2.35.62 3.45 3.45 0 01-3.67-3.68c0-2.24 1.41-3.79 3.36-3.79s3.15 1.44 3.15 3.55v.64zm.06-1.3h2.7a1.23 1.23 0 00-1.26-1.31 1.49 1.49 0 00-1.44 1.31zm9.78-.05c0-.68-.6-1.12-1.61-1.12a3.52 3.52 0 00-2 .58V74a4.88 4.88 0 012.39-.59c2 0 3.07 1 3.07 2.75v4.56h-1.9v-.38a2.83 2.83 0 01-1.73.51 2.38 2.38 0 01-2.64-2.32c0-1.36 1.2-2.29 2.76-2.29a3.31 3.31 0 011.61.41zm0 2a1.38 1.38 0 00-1.27-.63c-.62 0-1.26.27-1.26.88s.64.88 1.26.88a1.4 1.4 0 001.27-.62zm6.39 2.47h-2v-5.55h-1.36v-1.6H629v-1.94h2v1.94h1.52v1.6H631zm2.69-10.4h2v3.9a2.53 2.53 0 011.92-.81 2.39 2.39 0 012.52 2.64v4.67h-2v-4.26a1.11 1.11 0 00-1.13-1.26 1.29 1.29 0 00-1.29 1v4.53h-2zm7.78 8a3.94 3.94 0 002.46 1c.59 0 1.06-.17 1.06-.61s-.32-.54-.82-.7l-.69-.19c-1.24-.34-2-.93-2-2.16 0-1.4 1.2-2.24 2.8-2.24a4 4 0 012.29.64v1.8a3.56 3.56 0 00-2.19-.88c-.55 0-1 .21-1 .61s.27.51.77.67l.8.24c1.36.39 2 1 2 2.18 0 1.44-1.26 2.21-2.94 2.21a4.39 4.39 0 01-2.53-.72zm7.33 2.35a1.11 1.11 0 01-1-1.15 1.2 1.2 0 011.24-1.22 1.23 1.23 0 011.25 1.36 2.73 2.73 0 01-.51 1.44l-.91 1.36h-1.28zM562 95.27a4 4 0 002.47 1c.59 0 1-.17 1-.61s-.32-.54-.81-.7l-.69-.19c-1.25-.34-2-.93-2-2.16 0-1.4 1.2-2.24 2.8-2.24a4 4 0 012.29.64v1.8a3.56 3.56 0 00-2.2-.88c-.54 0-1 .21-1 .61s.27.51.77.67l.8.24c1.36.39 2 1 2 2.18 0 1.44-1.27 2.21-3 2.21a4.42 4.42 0 01-2.53-.72zm14.65-4.91c1.47 0 2.35 1 2.35 2.64v4.67h-2v-4.26c0-.77-.34-1.28-1-1.28a1.1 1.1 0 00-1.1.93v4.61h-2v-4.26c0-.77-.32-1.28-1-1.28a1.12 1.12 0 00-1.12.93v4.61h-2v-7.15h2v.59a2.27 2.27 0 011.81-.75 2.37 2.37 0 011.92.91 2.78 2.78 0 012.14-.91zm7.93 2.84c0-.68-.59-1.12-1.6-1.12a3.52 3.52 0 00-2 .58V91a4.87 4.87 0 012.38-.59c2 0 3.08 1 3.08 2.75v4.56h-1.91v-.38a2.79 2.79 0 01-1.73.51 2.38 2.38 0 01-2.64-2.32c0-1.36 1.2-2.29 2.77-2.29a3.27 3.27 0 011.6.41zm0 2a1.35 1.35 0 00-1.26-.63c-.63 0-1.27.27-1.27.88s.64.88 1.27.88a1.37 1.37 0 001.26-.62zm5.54 2.47h-2v-10.4h2zm3.71 0h-2v-10.4h2zm6.57-3.12a1.86 1.86 0 002.07 1.65 3.48 3.48 0 002-.63v1.64a4 4 0 01-2.36.62 3.45 3.45 0 01-3.66-3.68c0-2.24 1.41-3.79 3.36-3.79S605 91.8 605 93.91v.64zm.07-1.3h2.7a1.24 1.24 0 00-1.26-1.31 1.49 1.49 0 00-1.44 1.31zm9.01-2.89a3.12 3.12 0 011.93.56v1.8a2.46 2.46 0 00-1.69-.64 2 2 0 000 4 2.56 2.56 0 001.69-.64v1.79a3.12 3.12 0 01-1.93.56 3.74 3.74 0 010-7.47zm6.36 7.47a3.74 3.74 0 113.51-3.73 3.46 3.46 0 01-3.51 3.73zm0-5.79c-1 0-1.53.86-1.53 2.06s.54 2.05 1.53 2.05 1.54-.86 1.54-2.05-.54-2.1-1.54-2.1zm4.77-1.52h2v.65a2.53 2.53 0 011.92-.81 2.39 2.39 0 012.52 2.64v4.67h-2v-4.26a1.11 1.11 0 00-1.17-1.26 1.29 1.29 0 00-1.29 1v4.53h-2zm11.14 7.31a3.74 3.74 0 113.5-3.73 3.46 3.46 0 01-3.5 3.73zm0-5.79c-1 0-1.54.86-1.54 2.06s.55 2.05 1.54 2.05 1.53-.86 1.53-2.05-.54-2.1-1.53-2.1zm12.64-1.68c1.47 0 2.35 1 2.35 2.64v4.67h-2v-4.26c0-.77-.34-1.28-1-1.28a1.1 1.1 0 00-1.1.93v4.61h-2v-4.26c0-.77-.32-1.28-1-1.28a1.12 1.12 0 00-1.12.93v4.61h-2v-7.15h2v.59a2.27 2.27 0 011.81-.75 2.36 2.36 0 011.92.91 2.78 2.78 0 012.14-.91zm4.99-.77a1.14 1.14 0 111.17-1.14 1.15 1.15 0 01-1.17 1.14zm1 8.08h-2v-7.15h2zm4.89-7.31a3.12 3.12 0 011.93.56v1.8a2.46 2.46 0 00-1.69-.64 2 2 0 000 4 2.56 2.56 0 001.69-.64v1.79a3.12 3.12 0 01-1.93.56 3.74 3.74 0 010-7.47zm-53.51 13.91h2v3.9a2.55 2.55 0 011.92-.81 2.39 2.39 0 012.52 2.64v4.67h-2v-4.26a1.11 1.11 0 00-1.17-1.26 1.3 1.3 0 00-1.29 1v4.53h-2zm9.08 2.32a1.14 1.14 0 111.16-1.14 1.14 1.14 0 01-1.16 1.14zm1 8.08h-2v-7.15h2zm4.53 0h-2v-5.55H613v-1.6h1.36v-1.94h2v1.94h1.52v1.6h-1.52zM574.14 325l-2.83-4.23v6.34h-2v-9.82h1.9l3 4.64 3-4.64H579v9.82h-2v-6.34l-2.8 4.23zm9.73 2.25a3.74 3.74 0 113.5-3.73 3.46 3.46 0 01-3.5 3.73zm0-5.79c-1 0-1.54.86-1.54 2.06s.55 2.05 1.54 2.05 1.54-.86 1.54-2.05-.55-2.06-1.54-2.06zm9.13.43a2 2 0 00-1-.24 1.3 1.3 0 00-1.36 1v4.43h-2v-7.15h2v.7a1.85 1.85 0 011.6-.86 1.73 1.73 0 01.75.13zm2.71 2.11a1.86 1.86 0 002.06 1.65 3.43 3.43 0 002.05-.62v1.63a3.93 3.93 0 01-2.35.62 3.45 3.45 0 01-3.67-3.68c0-2.24 1.41-3.79 3.36-3.79s3.16 1.44 3.16 3.55v.64zm.06-1.29h2.71a1.25 1.25 0 00-1.27-1.32 1.51 1.51 0 00-1.44 1.29zm13.83 3.79a2.45 2.45 0 01-1.8.75c-2.08 0-3.24-1.68-3.24-3.73s1.16-3.74 3.24-3.74a2.49 2.49 0 011.8.75v-3.84h2v10.4h-2zm0-4.16a1.52 1.52 0 00-1.35-.83 2 2 0 000 4 1.47 1.47 0 001.35-.83zm5.17 1.66a1.85 1.85 0 002.06 1.65 3.47 3.47 0 002-.62v1.63a3.93 3.93 0 01-2.35.62 3.45 3.45 0 01-3.67-3.68c0-2.24 1.41-3.79 3.36-3.79s3.15 1.44 3.15 3.55v.64zm.06-1.29h2.7a1.24 1.24 0 00-1.26-1.32 1.49 1.49 0 00-1.44 1.29zm9.78-.08c0-.69-.6-1.12-1.61-1.12a3.51 3.51 0 00-2 .57v-1.71a4.88 4.88 0 012.39-.59c2 0 3.07 1 3.07 2.75v4.56h-1.9v-.38a2.83 2.83 0 01-1.73.51 2.38 2.38 0 01-2.64-2.32c0-1.36 1.2-2.29 2.76-2.29a3.2 3.2 0 011.61.42zm0 2a1.38 1.38 0 00-1.27-.63c-.62 0-1.26.28-1.26.88s.64.88 1.26.88a1.4 1.4 0 001.27-.62zm6.39 2.46h-2v-5.55h-1.36v-1.6H629V318h2v1.94h1.52v1.6H631zm2.69-10.4h2v3.9a2.57 2.57 0 011.92-.81 2.4 2.4 0 012.53 2.64v4.67h-2v-4.25a1.11 1.11 0 00-1.17-1.27 1.29 1.29 0 00-1.29 1v4.53h-2zm7.78 8a3.88 3.88 0 002.46 1c.59 0 1.06-.17 1.06-.6s-.32-.55-.82-.71l-.69-.19c-1.24-.34-2-.93-2-2.16 0-1.39 1.2-2.24 2.8-2.24a4 4 0 012.29.64v1.81a3.5 3.5 0 00-2.19-.88c-.55 0-1 .21-1 .61s.27.51.77.67l.8.24c1.36.38 2 1 2 2.17 0 1.45-1.26 2.21-2.94 2.21a4.32 4.32 0 01-2.53-.72zm7.33 2.36a1.13 1.13 0 01-1-1.16 1.2 1.2 0 011.24-1.21 1.23 1.23 0 011.25 1.36 2.73 2.73 0 01-.51 1.44l-.91 1.36h-1.28zm-84.11 17.04h-2v-10.4h2zm5.67-4.46c0-.69-.59-1.12-1.6-1.12a3.55 3.55 0 00-2 .57v-1.71a4.91 4.91 0 012.39-.59c2 0 3.07 1 3.07 2.75v4.56h-1.9v-.38a2.81 2.81 0 01-1.73.51 2.38 2.38 0 01-2.59-2.32c0-1.36 1.2-2.29 2.77-2.29a3.19 3.19 0 011.6.42zm0 2a1.38 1.38 0 00-1.27-.63c-.62 0-1.26.28-1.26.88s.64.88 1.26.88a1.4 1.4 0 001.27-.62zm7.89-2.74a2 2 0 00-1-.24 1.3 1.3 0 00-1.36 1v4.43h-2v-7.15h2v.7a1.85 1.85 0 011.6-.86 1.82 1.82 0 01.76.13zm5.8 4.39a2.32 2.32 0 01-1.74.72c-2.07 0-3.24-1.67-3.24-3.6s1.17-3.62 3.24-3.62a2.32 2.32 0 011.74.72v-.56h2v6.37c0 2.62-1.94 3.58-3.89 3.58a4.89 4.89 0 01-2.47-.6v-2a3.49 3.49 0 002.44.88 1.7 1.7 0 001.93-1.71zm0-4.1a1.54 1.54 0 00-1.33-.74c-1.05 0-1.66.82-1.66 2s.61 1.93 1.66 1.93a1.51 1.51 0 001.33-.73zm5.17 1.82a1.86 1.86 0 002.06 1.65 3.43 3.43 0 002.05-.62v1.63a3.93 3.93 0 01-2.35.62 3.44 3.44 0 01-3.66-3.68c0-2.24 1.4-3.79 3.36-3.79s3.15 1.44 3.15 3.55v.64zm.06-1.29H592a1.25 1.25 0 00-1.27-1.32 1.51 1.51 0 00-1.45 1.29zM600 341a1.86 1.86 0 002.07 1.65 3.47 3.47 0 002.05-.62v1.63a4 4 0 01-2.36.62 3.45 3.45 0 01-3.66-3.68c0-2.24 1.41-3.79 3.36-3.79s3.15 1.44 3.15 3.55v.64zm.07-1.29h2.7a1.25 1.25 0 00-1.26-1.32 1.49 1.49 0 00-1.51 1.29zm8.93-2.93a3.15 3.15 0 011.94.56v1.81a2.44 2.44 0 00-1.7-.64 2 2 0 000 4 2.53 2.53 0 001.7-.64v1.79a3.15 3.15 0 01-1.94.56 3.74 3.74 0 010-7.47zm6.41 7.47a3.74 3.74 0 113.51-3.73 3.45 3.45 0 01-3.51 3.73zm0-5.79c-1 0-1.53.86-1.53 2.06s.54 2.05 1.53 2.05 1.54-.86 1.54-2.05-.55-2.06-1.54-2.06zm4.77-1.52h2v.65a2.6 2.6 0 011.92-.81 2.39 2.39 0 012.53 2.64v4.67h-2v-4.25a1.12 1.12 0 00-1.17-1.27 1.31 1.31 0 00-1.3 1v4.53h-2zm11.14 7.31a3.74 3.74 0 113.5-3.73 3.46 3.46 0 01-3.5 3.73zm0-5.79c-1 0-1.54.86-1.54 2.06s.54 2.05 1.54 2.05 1.53-.86 1.53-2.05-.54-2.06-1.53-2.06zm12.68-1.68c1.47 0 2.35 1 2.35 2.64v4.67h-2v-4.25c0-.77-.34-1.28-1-1.28a1.1 1.1 0 00-1.1.92v4.61h-2v-4.25c0-.77-.32-1.28-1-1.28a1.12 1.12 0 00-1.12.92v4.61h-2v-7.15h2v.59a2.27 2.27 0 011.81-.75 2.37 2.37 0 011.92.91 2.78 2.78 0 012.14-.91zm5-.78a1.14 1.14 0 111.17-1.14A1.14 1.14 0 01649 336zm1 8.08h-2v-7.15h2zm4.84-7.3a3.12 3.12 0 011.93.56v1.81a2.41 2.41 0 00-1.69-.64 2 2 0 000 4 2.51 2.51 0 001.69-.64v1.79a3.12 3.12 0 01-1.93.56 3.74 3.74 0 010-7.47zm-53.08 13.91h2v3.9a2.59 2.59 0 011.92-.81 2.39 2.39 0 012.53 2.64v4.67h-2v-4.25a1.11 1.11 0 00-1.17-1.27 1.3 1.3 0 00-1.29 1v4.53h-2zm9.08 2.31a1.14 1.14 0 111.16-1.14 1.13 1.13 0 01-1.16 1.14zm1 8.08h-2v-7.15h2zm4.53.01h-2v-5.55H613v-1.6h1.36V352h2v1.94h1.52v1.6h-1.52zM92.63 80.67v-9.83h6.55v1.79h-4.52v2.5h4.18v1.78h-4.18v3.76zm9.37-3.12a1.85 1.85 0 002.06 1.65 3.48 3.48 0 002.05-.63v1.64a3.93 3.93 0 01-2.35.62 3.45 3.45 0 01-3.67-3.68c0-2.24 1.41-3.79 3.36-3.79s3.15 1.44 3.15 3.55v.64zm.06-1.3h2.7a1.23 1.23 0 00-1.26-1.31 1.49 1.49 0 00-1.43 1.31zm12.33 1.83l1.28-4.56h1.92l-2.18 7.15h-1.82l-1.17-4.39-1.17 4.39h-1.82l-2.18-7.15h2l1.28 4.56 1.17-4.56h1.52zm5.73-.53a1.85 1.85 0 002.06 1.65 3.44 3.44 0 002-.63v1.64a3.93 3.93 0 01-2.35.62 3.45 3.45 0 01-3.67-3.68c0-2.24 1.41-3.79 3.36-3.79s3.16 1.44 3.16 3.55v.64zm.06-1.3h2.71a1.25 1.25 0 00-1.27-1.31 1.49 1.49 0 00-1.44 1.31zm10.18-.78a2 2 0 00-1-.24 1.28 1.28 0 00-1.36 1v4.43h-2v-7.14h2v.7a1.83 1.83 0 011.6-.86 2 2 0 01.75.12zm9.26 4.61a2.47 2.47 0 01-1.79.75c-2.08 0-3.25-1.68-3.25-3.73s1.17-3.74 3.25-3.74a2.43 2.43 0 011.79.75v-3.84h2v10.4h-2zm0-4.16a1.52 1.52 0 00-1.34-.84c-1.08 0-1.71.87-1.71 2a1.77 1.77 0 001.71 2 1.45 1.45 0 001.34-.83zm5.17 1.63a1.86 1.86 0 002.06 1.65 3.44 3.44 0 002.05-.63v1.64a3.93 3.93 0 01-2.35.62 3.45 3.45 0 01-3.67-3.68c0-2.24 1.41-3.79 3.36-3.79s3.16 1.44 3.16 3.55v.64zm.06-1.3h2.71a1.24 1.24 0 00-1.27-1.31 1.51 1.51 0 00-1.44 1.31zm9.78-.05c0-.68-.59-1.12-1.6-1.12a3.52 3.52 0 00-1.95.58V74a4.87 4.87 0 012.38-.59c2 0 3.07 1 3.07 2.75v4.56h-1.9v-.38a2.79 2.79 0 01-1.73.51 2.38 2.38 0 01-2.64-2.32c0-1.36 1.2-2.29 2.77-2.29a3.3 3.3 0 011.6.41zm0 2a1.37 1.37 0 00-1.27-.63c-.62 0-1.26.27-1.26.88s.64.88 1.26.88a1.38 1.38 0 001.27-.62zm6.37 2.47h-2v-5.55h-1.36v-1.6H159v-1.94h2v1.94h1.52v1.6H161zm2.72-10.4h2v3.9a2.55 2.55 0 011.92-.81 2.39 2.39 0 012.51 2.64v4.67h-2v-4.26a1.11 1.11 0 00-1.15-1.26 1.31 1.31 0 00-1.3 1v4.53h-2zm7.77 8a4 4 0 002.47 1c.59 0 1-.17 1-.61s-.32-.54-.81-.7l-.69-.19c-1.25-.34-2-.93-2-2.16 0-1.4 1.2-2.24 2.8-2.24a4 4 0 012.29.64v1.8a3.56 3.56 0 00-2.2-.88c-.54 0-1 .21-1 .61s.27.51.77.67l.8.24c1.36.39 2 1 2 2.18 0 1.44-1.27 2.21-2.95 2.21a4.42 4.42 0 01-2.53-.72zm7.33 2.35a1.11 1.11 0 01-1-1.15 1.21 1.21 0 011.25-1.22 1.23 1.23 0 011.25 1.36 2.75 2.75 0 01-.52 1.44l-.91 1.36h-1.28zM88.64 95.27a4 4 0 002.47 1c.59 0 1.06-.17 1.06-.61s-.32-.54-.82-.7l-.69-.19c-1.25-.34-2-.93-2-2.16 0-1.4 1.2-2.24 2.8-2.24a4 4 0 012.29.64v1.8a3.56 3.56 0 00-2.19-.88c-.55 0-1 .21-1 .61s.27.51.76.67l.8.24c1.36.39 2 1 2 2.18 0 1.44-1.27 2.21-3 2.21a4.42 4.42 0 01-2.53-.72zm14.68-4.91c1.47 0 2.35 1 2.35 2.64v4.67h-2v-4.26c0-.77-.34-1.28-1-1.28a1.1 1.1 0 00-1.1.93v4.61h-2v-4.26c0-.77-.32-1.28-1-1.28a1.12 1.12 0 00-1.12.93v4.61h-2v-7.15h2v.59a2.27 2.27 0 011.81-.75 2.36 2.36 0 011.92.91 2.78 2.78 0 012.14-.91zm7.93 2.84c0-.68-.59-1.12-1.6-1.12a3.52 3.52 0 00-2 .58V91a4.88 4.88 0 012.39-.59c2 0 3.07 1 3.07 2.75v4.56h-1.91v-.38a2.77 2.77 0 01-1.72.51 2.38 2.38 0 01-2.65-2.32c0-1.36 1.2-2.29 2.77-2.29a3.24 3.24 0 011.6.41zm0 2a1.35 1.35 0 00-1.26-.63c-.63 0-1.27.27-1.27.88s.64.88 1.27.88a1.37 1.37 0 001.26-.62zm5.54 2.47h-2v-10.4h2zm3.71 0h-2v-10.4h2zm6.58-3.12a1.85 1.85 0 002.06 1.65 3.46 3.46 0 002.05-.63v1.64a3.93 3.93 0 01-2.35.62 3.45 3.45 0 01-3.67-3.68c0-2.24 1.41-3.79 3.36-3.79s3.16 1.44 3.16 3.55v.64zm.06-1.3h2.7a1.23 1.23 0 00-1.26-1.31 1.49 1.49 0 00-1.44 1.31zm9.01-2.89a3.17 3.17 0 011.94.56v1.8a2.48 2.48 0 00-1.7-.64 2 2 0 000 4 2.58 2.58 0 001.7-.64v1.79a3.17 3.17 0 01-1.94.56 3.74 3.74 0 010-7.47zm6.37 7.47A3.74 3.74 0 11146 94.1a3.46 3.46 0 01-3.48 3.73zm0-5.79c-1 0-1.54.86-1.54 2.06s.54 2.05 1.54 2.05 1.53-.86 1.53-2.05-.54-2.1-1.53-2.1zm4.76-1.52h2v.65a2.55 2.55 0 011.92-.81 2.39 2.39 0 012.52 2.64v4.67h-2v-4.26a1.11 1.11 0 00-1.17-1.26 1.3 1.3 0 00-1.29 1v4.53h-2zm11.14 7.31a3.74 3.74 0 113.51-3.73 3.46 3.46 0 01-3.51 3.73zm0-5.79c-1 0-1.54.86-1.54 2.06s.55 2.05 1.54 2.05 1.58-.86 1.58-2.05-.59-2.1-1.58-2.1zm12.64-1.68a2.33 2.33 0 012.36 2.64v4.67h-2v-4.26c0-.77-.34-1.28-1-1.28a1.11 1.11 0 00-1.11.93v4.61h-2v-4.26c0-.77-.32-1.28-1-1.28a1.12 1.12 0 00-1.12.93v4.61h-2v-7.15h2v.59a2.27 2.27 0 011.81-.75 2.36 2.36 0 011.92.91 2.8 2.8 0 012.14-.91zm4.99-.77a1.14 1.14 0 111.17-1.14 1.14 1.14 0 01-1.17 1.14zm1 8.08h-2v-7.15h2zm4.89-7.31a3.17 3.17 0 011.94.56v1.8a2.48 2.48 0 00-1.7-.64 2 2 0 000 4 2.58 2.58 0 001.7-.64v1.79a3.17 3.17 0 01-1.94.56 3.74 3.74 0 010-7.47zm-53.5 13.91h2v3.9a2.55 2.55 0 011.92-.81 2.39 2.39 0 012.53 2.64v4.67h-2v-4.26a1.11 1.11 0 00-1.17-1.26 1.31 1.31 0 00-1.3 1v4.53h-2zm9.07 2.32a1.14 1.14 0 111.17-1.14 1.15 1.15 0 01-1.17 1.14zm1 8.08h-2v-7.15h2zm4.49 0h-2v-5.55h-1.3v-1.6h1.36v-1.94h2v1.94h1.53v1.6H143zM93.06 327.09v-9.82h6.55v1.79h-4.52v2.5h4.18v1.77h-4.18v3.76zm9.38-3.09a1.86 1.86 0 002.06 1.65 3.43 3.43 0 002-.62v1.63a3.93 3.93 0 01-2.35.62 3.45 3.45 0 01-3.67-3.68c0-2.24 1.41-3.79 3.36-3.79s3.16 1.44 3.16 3.55v.64zm.06-1.29h2.71a1.25 1.25 0 00-1.27-1.32 1.51 1.51 0 00-1.44 1.29zm12.32 1.79l1.28-4.56h1.9l-2.17 7.15H114l-1.17-4.38-1.16 4.38h-1.83l-2.18-7.15h2l1.34 4.56 1.17-4.56h1.52zm5.73-.5a1.86 1.86 0 002.06 1.65 3.43 3.43 0 002-.62v1.63a3.93 3.93 0 01-2.35.62 3.45 3.45 0 01-3.67-3.68c0-2.24 1.41-3.79 3.37-3.79s3.15 1.44 3.15 3.55v.64zm.06-1.29h2.71a1.25 1.25 0 00-1.27-1.32 1.51 1.51 0 00-1.44 1.29zm10.18-.82a2 2 0 00-1-.24 1.29 1.29 0 00-1.36 1v4.43h-2v-7.15h2v.7a1.83 1.83 0 011.6-.86 1.76 1.76 0 01.75.13zm9.26 4.61a2.43 2.43 0 01-1.79.75c-2.08 0-3.25-1.68-3.25-3.73s1.17-3.74 3.25-3.74a2.47 2.47 0 011.79.75v-3.84h2v10.4h-2zm0-4.16a1.5 1.5 0 00-1.34-.83 2 2 0 000 4 1.45 1.45 0 001.34-.83zm5.17 1.66a1.86 1.86 0 002.07 1.65 3.42 3.42 0 002-.62v1.63a3.93 3.93 0 01-2.35.62 3.44 3.44 0 01-3.66-3.68c0-2.24 1.41-3.79 3.36-3.79s3.15 1.44 3.15 3.55v.64zm.06-1.29H148a1.25 1.25 0 00-1.26-1.32 1.51 1.51 0 00-1.46 1.29zm9.78-.08c0-.69-.59-1.12-1.6-1.12a3.51 3.51 0 00-2 .57v-1.71a4.87 4.87 0 012.38-.59c2 0 3.08 1 3.08 2.75v4.56h-1.91v-.38a2.79 2.79 0 01-1.73.51 2.38 2.38 0 01-2.64-2.32c0-1.36 1.2-2.29 2.77-2.29a3.16 3.16 0 011.6.42zm0 2a1.35 1.35 0 00-1.26-.63c-.63 0-1.27.28-1.27.88s.64.88 1.27.88a1.37 1.37 0 001.26-.62zm6.37 2.46h-2v-5.55h-1.36v-1.6h1.36V318h2v1.94H163v1.6h-1.52zm2.72-10.4h2v3.9a2.6 2.6 0 011.92-.81 2.39 2.39 0 012.53 2.64v4.67h-2v-4.25a1.12 1.12 0 00-1.17-1.27 1.31 1.31 0 00-1.3 1v4.53h-2zm7.77 8a3.93 3.93 0 002.47 1c.59 0 1.06-.17 1.06-.6s-.32-.55-.82-.71l-.69-.19c-1.25-.34-2-.93-2-2.16 0-1.39 1.2-2.24 2.8-2.24a4 4 0 012.29.64v1.81a3.5 3.5 0 00-2.19-.88c-.55 0-1 .21-1 .61s.27.51.76.67l.8.24c1.36.38 2 1 2 2.17 0 1.45-1.27 2.21-3 2.21a4.34 4.34 0 01-2.53-.72zm7.33 2.36a1.13 1.13 0 01-1-1.16 1.2 1.2 0 011.25-1.21 1.23 1.23 0 011.25 1.36 2.82 2.82 0 01-.51 1.44l-.92 1.36h-1.28zM91.8 344.09h-2v-10.4h2zm5.66-4.46c0-.69-.59-1.12-1.6-1.12a3.51 3.51 0 00-2 .57v-1.71a4.87 4.87 0 012.38-.59c2 0 3.08 1 3.08 2.75v4.56h-1.86v-.38a2.79 2.79 0 01-1.73.51 2.38 2.38 0 01-2.64-2.32c0-1.36 1.2-2.29 2.77-2.29a3.16 3.16 0 011.6.42zm0 2a1.35 1.35 0 00-1.26-.63c-.63 0-1.27.28-1.27.88s.64.88 1.27.88a1.37 1.37 0 001.26-.62zm7.89-2.74a2 2 0 00-1-.24 1.29 1.29 0 00-1.36 1v4.43h-2v-7.15h2v.7a1.83 1.83 0 011.6-.86 1.76 1.76 0 01.75.13zm5.81 4.39a2.34 2.34 0 01-1.75.72c-2.06 0-3.23-1.67-3.23-3.6s1.17-3.62 3.23-3.62a2.34 2.34 0 011.75.72v-.56h2v6.37c0 2.62-1.93 3.58-3.89 3.58a4.85 4.85 0 01-2.46-.6v-2a3.45 3.45 0 002.43.88c1.07 0 1.94-.54 1.94-1.71zm0-4.1a1.57 1.57 0 00-1.33-.74c-1.06 0-1.67.82-1.67 2a1.7 1.7 0 001.67 1.93 1.54 1.54 0 001.33-.73zm5.16 1.82a1.86 1.86 0 002.07 1.65 3.47 3.47 0 002-.62v1.63a3.93 3.93 0 01-2.35.62 3.45 3.45 0 01-3.67-3.68c0-2.24 1.41-3.79 3.36-3.79s3.15 1.44 3.15 3.55v.64zm.07-1.29h2.7a1.24 1.24 0 00-1.26-1.32 1.49 1.49 0 00-1.44 1.29zm10.69 1.29a1.85 1.85 0 002.06 1.65 3.43 3.43 0 002.05-.62v1.63a3.93 3.93 0 01-2.35.62 3.45 3.45 0 01-3.67-3.68c0-2.24 1.41-3.79 3.36-3.79s3.16 1.44 3.16 3.55v.64zm.06-1.29h2.71a1.25 1.25 0 00-1.27-1.32 1.49 1.49 0 00-1.44 1.29zm9.01-2.93a3.17 3.17 0 011.94.56v1.81a2.44 2.44 0 00-1.7-.64 2 2 0 000 4 2.53 2.53 0 001.7-.64v1.79a3.17 3.17 0 01-1.94.56 3.74 3.74 0 010-7.47zm6.37 7.47a3.74 3.74 0 113.5-3.73 3.46 3.46 0 01-3.5 3.73zm0-5.79c-1 0-1.54.86-1.54 2.06s.54 2.05 1.54 2.05 1.53-.86 1.53-2.05-.54-2.06-1.53-2.06zm4.76-1.52h2v.65a2.59 2.59 0 011.92-.81 2.39 2.39 0 012.53 2.64v4.67h-2v-4.25c0-.76-.38-1.27-1.16-1.27a1.31 1.31 0 00-1.3 1v4.53h-2zm11.14 7.31a3.74 3.74 0 113.51-3.73 3.46 3.46 0 01-3.51 3.73zm0-5.79c-1 0-1.54.86-1.54 2.06s.55 2.05 1.54 2.05 1.54-.86 1.54-2.05-.55-2.06-1.54-2.06zm12.64-1.68a2.33 2.33 0 012.36 2.64v4.67h-2v-4.25c0-.77-.34-1.28-1-1.28a1.11 1.11 0 00-1.11.92v4.61h-2v-4.25c0-.77-.32-1.28-1-1.28a1.12 1.12 0 00-1.12.92v4.61h-2v-7.15h2v.59a2.27 2.27 0 011.81-.75 2.36 2.36 0 011.92.91 2.8 2.8 0 012.14-.91zm4.99-.78a1.14 1.14 0 111.17-1.14 1.14 1.14 0 01-1.17 1.14zm1 8.08h-2v-7.15h2zm4.89-7.3a3.17 3.17 0 011.94.56v1.81a2.44 2.44 0 00-1.7-.64 2 2 0 000 4 2.53 2.53 0 001.7-.64v1.79a3.17 3.17 0 01-1.94.56 3.74 3.74 0 010-7.47zm-53.07 13.91h2v3.9a2.6 2.6 0 011.92-.81 2.39 2.39 0 012.53 2.64v4.67h-2v-4.25a1.12 1.12 0 00-1.17-1.27 1.31 1.31 0 00-1.3 1v4.53h-2zm9.07 2.31a1.14 1.14 0 111.17-1.14 1.14 1.14 0 01-1.17 1.14zm1 8.08h-2v-7.15h2zm4.54.01h-2v-5.55h-1.36v-1.6h1.36V352h2v1.94H145v1.6h-1.52z" fill="#97918c"/><path class="cls-8" d="M161.2 29.92C146 18 123.43 15.42 99.72 27.7"/><path d="M100.6 23.87l.7.27-1.32 3.45 3.55 1.07-.22.72-4.31-1.3 1.6-4.21zm69.52-2.97l-3.38-5.36v7.55h-1.23v-9.82h1.17l3.49 5.65 3.47-5.65h1.11v9.82h-1.24v-7.55l-3.32 5.36zm10.82-2.53c0-.88-.66-1.42-1.7-1.42a3.65 3.65 0 00-2 .62v-1.13a4.08 4.08 0 012.21-.6 2.37 2.37 0 012.68 2.44v4.81h-1.17v-.52a2.85 2.85 0 01-1.84.65 2.39 2.39 0 01-2.67-2.22c0-1.33 1.19-2.23 2.71-2.23a3 3 0 011.78.58zm0 2.23a1.73 1.73 0 00-1.65-.88c-.87 0-1.7.38-1.7 1.23s.83 1.26 1.7 1.26a1.73 1.73 0 001.65-.88zm3.21-4.6h1.2v.89a2.67 2.67 0 012.1-1 2.35 2.35 0 012.5 2.6v4.65h-1.22v-4.51a1.48 1.48 0 00-1.57-1.63 1.93 1.93 0 00-1.81 1.33v4.81h-1.2zm8.74 9.82l1.11-2.68-2.81-7.14h1.3l2.09 5.6 2.07-5.6h1.25l-3.83 9.83z"/><path d="M207.75 13.27l3.76 9.82h-2.08l-.88-2.36h-3.68l-.87 2.36h-2l3.76-9.82zM205.51 19h2.4l-1.2-3.27zm6.8 1.69a3.92 3.92 0 002.47 1c.59 0 1.05-.18 1.05-.61s-.32-.55-.81-.71l-.69-.19c-1.25-.34-2-.93-2-2.16 0-1.39 1.2-2.24 2.81-2.24a4 4 0 012.28.64v1.81a3.54 3.54 0 00-2.19-.88c-.54 0-1 .21-1 .61s.27.51.77.67l.8.24c1.36.38 2 1 2 2.18 0 1.44-1.26 2.2-2.94 2.2a4.32 4.32 0 01-2.53-.72zM220.1 15a1.14 1.14 0 111.17-1.14A1.14 1.14 0 01220.1 15zm1 8.08h-2v-7.14h2zm5.66-4.45c0-.69-.59-1.12-1.6-1.12a3.6 3.6 0 00-1.95.57v-1.71a4.87 4.87 0 012.38-.59c2 0 3.07 1 3.07 2.75v4.56h-1.9v-.38a2.79 2.79 0 01-1.73.51 2.38 2.38 0 01-2.64-2.32c0-1.36 1.2-2.29 2.77-2.29a3.19 3.19 0 011.6.42zm0 2a1.39 1.39 0 00-1.27-.63c-.62 0-1.26.28-1.26.89s.64.88 1.26.88a1.37 1.37 0 001.27-.63zm3.55-4.69h2v.66a2.54 2.54 0 011.92-.82 2.39 2.39 0 012.52 2.64v4.67h-2v-4.25a1.11 1.11 0 00-1.17-1.27 1.29 1.29 0 00-1.29 1v4.53h-2zm14.69-.16a3.17 3.17 0 011.94.56v1.81a2.48 2.48 0 00-1.7-.64 1.84 1.84 0 00-1.89 2 1.86 1.86 0 001.89 2 2.53 2.53 0 001.7-.64v1.79a3.17 3.17 0 01-1.94.56 3.52 3.52 0 01-3.62-3.73 3.52 3.52 0 013.62-3.71zm6.32 7.47a3.46 3.46 0 01-3.51-3.73 3.51 3.51 0 117 0 3.45 3.45 0 01-3.49 3.73zm0-5.79c-1 0-1.54.86-1.54 2.06s.55 2.05 1.54 2.05 1.54-.86 1.54-2.05-.55-2.06-1.54-2.06zm11.1 5.63h-2v-.65a2.58 2.58 0 01-1.92.81 2.38 2.38 0 01-2.5-2.64v-4.67h2v4.27c0 .76.37 1.27 1.15 1.27a1.27 1.27 0 001.28-1v-4.54h2zm1.71-7.15h2v.66a2.55 2.55 0 011.92-.82 2.39 2.39 0 012.53 2.64v4.67h-2v-4.25a1.11 1.11 0 00-1.17-1.27 1.3 1.3 0 00-1.29 1v4.53h-2zM275 23.09h-2v-5.55h-1.36v-1.6H273V14h2v1.94h1.52v1.6H275zm7.09-5.2a2 2 0 00-1-.24 1.3 1.3 0 00-1.36 1v4.43h-2v-7.14h2v.7a1.85 1.85 0 011.6-.86 1.82 1.82 0 01.76.13zm2.27-2.89a1.14 1.14 0 111.17-1.14 1.14 1.14 0 01-1.17 1.14zm1 8.08h-2v-7.14h2zm3.17-3.08a1.86 1.86 0 002.07 1.65 3.47 3.47 0 002-.62v1.63a4 4 0 01-2.36.62 3.44 3.44 0 01-3.66-3.68c0-2.24 1.41-3.79 3.36-3.79s3.15 1.44 3.15 3.55V20zm.07-1.29h2.7a1.25 1.25 0 00-1.3-1.35 1.49 1.49 0 00-1.4 1.32zm5.53 1.98a3.92 3.92 0 002.47 1c.59 0 1-.18 1-.61s-.32-.55-.81-.71l-.69-.19c-1.25-.34-2-.93-2-2.16 0-1.39 1.2-2.24 2.8-2.24a4 4 0 012.29.64v1.81a3.56 3.56 0 00-2.2-.88c-.54 0-1 .21-1 .61s.28.51.77.67l.8.24c1.36.38 2 1 2 2.18 0 1.44-1.27 2.2-2.95 2.2a4.34 4.34 0 01-2.53-.72z" fill="#b30563"/><path d="M169 29.79a1.44 1.44 0 00-.75-.19c-.71 0-1.17.45-1.17 1.3V32h1.6v1h-1.6v6.08h-1.19V33h-1.2v-1h1.2v-1.2a2.09 2.09 0 012.11-2.25 2.18 2.18 0 01.93.16zm5 4.58c0-.88-.65-1.42-1.69-1.42a3.6 3.6 0 00-2 .62v-1.13a4.08 4.08 0 012.21-.6 2.36 2.36 0 012.67 2.44v4.81H174v-.52a2.83 2.83 0 01-1.84.65 2.38 2.38 0 01-2.65-2.22c0-1.33 1.19-2.23 2.71-2.23a3 3 0 011.77.58zm0 2.23a1.71 1.71 0 00-1.65-.88c-.86 0-1.69.38-1.69 1.23s.83 1.26 1.69 1.26a1.71 1.71 0 001.65-.88zm6.86-3.41a1.53 1.53 0 00-.8-.19 1.71 1.71 0 00-1.65 1.32v4.77h-1.2V32h1.2v.93a2 2 0 011.76-1.08 1.64 1.64 0 01.69.12zm2.14 2.56a2.26 2.26 0 002.38 2.43 3.08 3.08 0 002-.67v1.1a3.43 3.43 0 01-2.16.63 3.31 3.31 0 01-3.43-3.63c0-2.21 1.28-3.77 3.17-3.77s2.91 1.4 2.91 3.48v.43zm.06-1h3.66c0-1-.57-1.93-1.72-1.93-.93.05-1.7.67-1.92 1.98zm11.17 3.51a2.51 2.51 0 01-2 1c-2.08 0-3.2-1.68-3.2-3.7s1.12-3.7 3.2-3.7a2.51 2.51 0 012 1v-4.17h1.22v10.4h-1.22zm0-4.16a2 2 0 00-1.82-1.17c-1.36 0-2.16 1.11-2.16 2.61s.8 2.61 2.16 2.61a2 2 0 001.82-1.15zm10.53-.91A1.51 1.51 0 00204 33a1.72 1.72 0 00-1.65 1.32v4.77h-1.2V32h1.2v.93a2 2 0 011.76-1.08 1.61 1.61 0 01.69.12zm2.16 2.56a2.27 2.27 0 002.38 2.43 3.08 3.08 0 002-.67v1.1a3.41 3.41 0 01-2.16.63 3.3 3.3 0 01-3.42-3.63c0-2.21 1.28-3.77 3.16-3.77s2.92 1.4 2.92 3.48v.43zm.06-1h3.67c-.05-1-.58-1.93-1.73-1.93-.92.05-1.71.67-1.92 1.98zm7.67 4.34h-1.2v-10.4h1.2zm6.09-4.72c0-.88-.65-1.42-1.69-1.42a3.6 3.6 0 00-2 .62v-1.13a4.08 4.08 0 012.21-.6 2.36 2.36 0 012.67 2.44v4.81h-1.17v-.52a2.81 2.81 0 01-1.84.65 2.38 2.38 0 01-2.66-2.22c0-1.33 1.19-2.23 2.71-2.23a3 3 0 011.77.58zm0 2.23a1.71 1.71 0 00-1.65-.88c-.86 0-1.69.38-1.69 1.23s.83 1.26 1.69 1.26a1.71 1.71 0 001.65-.88zm5.2 2.49h-1.2V33h-1.49v-1h1.49v-1.89h1.2V32h1.65v1h-1.65zm3.7-8.48a.77.77 0 11.78-.77.78.78 0 01-.78.77zm.61 8.48h-1.2V32h1.2zm4.11 0L231.61 32h1.29l2.1 5.57 2.05-5.57h1.26l-2.77 7.1zm5.98-3.34a2.27 2.27 0 002.39 2.43 3.05 3.05 0 002-.67v1.1a3.39 3.39 0 01-2.16.63 3.3 3.3 0 01-3.42-3.63c0-2.21 1.28-3.77 3.17-3.77s2.91 1.4 2.91 3.48v.43zm.07-1h3.66c0-1-.57-1.93-1.73-1.93-.94.05-1.71.67-1.93 1.98zm7.66 4.34h-1.2v-10.4h1.2zm3.06 2.73l1.07-2.68-2.77-7.14h1.3l2.09 5.6 2.07-5.6h1.25l-3.83 9.83zM267 37.41l1.57-5.41h1.17l-2.1 7.1h-1.17L265 33.7l-1.49 5.39h-1.17L260.25 32h1.2l1.55 5.41 1.47-5.41h1.07zm4.77-1.66a2.26 2.26 0 002.38 2.43 3.08 3.08 0 002-.67v1.1a3.41 3.41 0 01-2.16.63 3.31 3.31 0 01-3.43-3.63c0-2.21 1.28-3.77 3.17-3.77s2.91 1.4 2.91 3.48v.43zm.06-1h3.67c-.05-1-.58-1.93-1.73-1.93-.95.05-1.72.67-1.94 1.98zm7.66 4.34h-1.2v-10.4h1.2zm3.35 0h-1.2v-10.4h1.2zM168.17 55.24c-1.95 0-3.27-1.52-3.27-3.7s1.32-3.7 3.27-3.7 3.26 1.52 3.26 3.7-1.32 3.7-3.26 3.7zm0-6.34c-1.28 0-2 1.09-2 2.64s.77 2.64 2 2.64 2.05-1.09 2.05-2.64-.77-2.64-2.05-2.64zm4.89-.9h1.2v.89a2.67 2.67 0 012.1-1 2.35 2.35 0 012.5 2.6v4.65h-1.22v-4.51a1.48 1.48 0 00-1.57-1.63 1.93 1.93 0 00-1.81 1.33v4.81h-1.2zm12.56 7.09h-1.21v-10.4h1.21v4.13a2.52 2.52 0 012-1c2.08 0 3.2 1.7 3.2 3.7s-1.12 3.7-3.2 3.7a2.52 2.52 0 01-2-1zm0-2.11a2.05 2.05 0 001.83 1.17c1.36 0 2.16-1.1 2.16-2.61s-.8-2.61-2.16-2.61a2.05 2.05 0 00-1.83 1.17zm9.59 2.26c-2 0-3.27-1.52-3.27-3.7s1.32-3.7 3.27-3.7 3.26 1.52 3.26 3.7-1.32 3.7-3.26 3.7zm0-6.34c-1.28 0-2.05 1.09-2.05 2.64s.77 2.64 2.05 2.64 2-1.09 2-2.64-.72-2.64-2-2.64zm6.88 6.19h-1.2V49h-1.49v-1h1.49v-1.89h1.2V48h1.65v1h-1.65zm3.1-10.4h1.2v4.19a2.66 2.66 0 012.1-1 2.35 2.35 0 012.5 2.6v4.65h-1.22v-4.5A1.48 1.48 0 00208.2 49a1.93 1.93 0 00-1.81 1.33v4.81h-1.2zm18.56 3.15c1.44 0 2.24 1 2.24 2.55v4.7h-1.21v-4.51c0-1-.43-1.65-1.35-1.65a1.67 1.67 0 00-1.57 1.27v4.89h-1.2v-4.51c0-1-.43-1.65-1.34-1.65a1.67 1.67 0 00-1.57 1.27v4.89h-1.2V48h1.2v.83a2.22 2.22 0 011.92-1 2.08 2.08 0 011.92 1.17 2.58 2.58 0 012.16-1.16zm4.95 3.91a2.26 2.26 0 002.38 2.43 3.08 3.08 0 002-.67v1.1a3.43 3.43 0 01-2.16.63 3.31 3.31 0 01-3.43-3.63c0-2.21 1.28-3.77 3.17-3.77s2.91 1.4 2.91 3.48v.43zm.06-1h3.66c0-1-.57-1.93-1.72-1.93-.95.05-1.7.67-1.94 1.98zm8.45 4.34H236V49h-1.49v-1H236v-1.89h1.2V48h1.65v1h-1.65zm6.79-5.9a1.51 1.51 0 00-.8-.19 1.72 1.72 0 00-1.65 1.32v4.77h-1.2V48h1.2v.93a2 2 0 011.76-1.08 1.61 1.61 0 01.69.15zm2-2.58a.77.77 0 11.78-.77.78.78 0 01-.78.77zm.61 8.48h-1.2V48h1.2zm5.09-7.25a2.89 2.89 0 011.91.6v1.21a2.5 2.5 0 00-1.83-.73 2.65 2.65 0 000 5.25 2.51 2.51 0 001.83-.74v1.22a2.94 2.94 0 01-1.91.59 3.42 3.42 0 01-3.42-3.7 3.42 3.42 0 013.42-3.7zm3.15 5.41a3.45 3.45 0 002.34 1c.79 0 1.47-.28 1.47-1 0-.53-.4-.81-1-1l-1-.34c-1.07-.35-1.79-.86-1.79-2s1.1-2 2.51-2a3.73 3.73 0 012.12.63v1.25a3.18 3.18 0 00-2.12-.85c-.73 0-1.34.32-1.34.93s.38.76 1.06 1l1.08.37a2.06 2.06 0 011.67 2c0 1.32-1.17 2.07-2.66 2.07a3.92 3.92 0 01-2.34-.71z"/></svg>