<svg viewBox="0 0 960 720" xmlns="http://www.w3.org/2000/svg" xmlns:xlink="http://www.w3.org/1999/xlink" overflow="hidden">
<style> text { font-family: "Segoe UI",Candara,sans-serif; font-weight: 400; } </style>
<defs><clipPath id="clip0"><rect x="0" y="0" width="960" height="720"/></clipPath><clipPath id="clip1"><rect x="0" y="0" width="960" height="720"/></clipPath><clipPath id="clip2"><rect x="95" y="30" width="661" height="660"/></clipPath><clipPath id="clip3"><rect x="0" y="0" width="960" height="720"/></clipPath><clipPath id="clip4"><rect x="95" y="30" width="661" height="660"/></clipPath><clipPath id="clip5"><rect x="0" y="0" width="960" height="720"/></clipPath><clipPath id="clip6"><rect x="95" y="30" width="661" height="660"/></clipPath><clipPath id="clip7"><rect x="95" y="30" width="661" height="660"/></clipPath><clipPath id="clip8"><rect x="95" y="30" width="661" height="660"/></clipPath><clipPath id="clip9"><rect x="95" y="30" width="661" height="660"/></clipPath><clipPath id="clip10"><rect x="95" y="30" width="661" height="660"/></clipPath><clipPath id="clip11"><rect x="0" y="0" width="960" height="720"/></clipPath><clipPath id="clip12"><rect x="0" y="0" width="960" height="720"/></clipPath><clipPath id="clip13"><rect x="0" y="0" width="960" height="720"/></clipPath><clipPath id="clip14"><rect x="0" y="0" width="960" height="720"/></clipPath><clipPath id="clip15"><rect x="0" y="0" width="960" height="720"/></clipPath><clipPath id="clip16"><rect x="0" y="0" width="960" height="720"/></clipPath><clipPath id="clip17"><rect x="0" y="0" width="960" height="720"/></clipPath><clipPath id="clip18"><rect x="0" y="0" width="960" height="720"/></clipPath><clipPath id="clip19"><rect x="0" y="0" width="960" height="720"/></clipPath><clipPath id="clip20"><rect x="0" y="0" width="960" height="720"/></clipPath><clipPath id="clip21"><rect x="0" y="0" width="960" height="720"/></clipPath><clipPath id="clip22"><rect x="0" y="0" width="960" height="720"/></clipPath><clipPath id="clip23"><rect x="0" y="0" width="960" height="720"/></clipPath><clipPath id="clip24"><rect x="0" y="0" width="960" height="720"/></clipPath><clipPath id="clip25"><rect x="0" y="0" width="960" height="720"/></clipPath><clipPath id="clip26"><rect x="0" y="0" width="960" height="720"/></clipPath><clipPath id="clip27"><rect x="0" y="0" width="960" height="720"/></clipPath><clipPath id="clip28"><rect x="0" y="0" width="960" height="720"/></clipPath><clipPath id="clip29"><rect x="0" y="0" width="960" height="720"/></clipPath><clipPath id="clip30"><rect x="0" y="0" width="960" height="720"/></clipPath><clipPath id="clip31"><rect x="0" y="0" width="960" height="720"/></clipPath><clipPath id="clip32"><rect x="0" y="0" width="960" height="720"/></clipPath><clipPath id="clip33"><rect x="0" y="0" width="960" height="720"/></clipPath><clipPath id="clip34"><rect x="0" y="0" width="960" height="720"/></clipPath><clipPath id="clip35"><rect x="0" y="0" width="960" height="720"/></clipPath><clipPath id="clip36"><rect x="0" y="0" width="960" height="720"/></clipPath><clipPath id="clip37"><rect x="0" y="0" width="960" height="720"/></clipPath><clipPath id="clip38"><rect x="0" y="0" width="960" height="720"/></clipPath><clipPath id="clip39"><rect x="0" y="0" width="960" height="720"/></clipPath><clipPath id="clip40"><rect x="0" y="0" width="960" height="720"/></clipPath><clipPath id="clip41"><rect x="0" y="0" width="960" height="720"/></clipPath><clipPath id="clip42"><rect x="0" y="0" width="960" height="720"/></clipPath><clipPath id="clip43"><rect x="0" y="0" width="960" height="720"/></clipPath><clipPath id="clip44"><rect x="0" y="0" width="960" height="720"/></clipPath><clipPath id="clip45"><rect x="0" y="0" width="960" height="720"/></clipPath><clipPath id="clip46"><rect x="0" y="0" width="960" height="720"/></clipPath><clipPath id="clip47"><rect x="0" y="0" width="960" height="720"/></clipPath><clipPath id="clip48"><rect x="0" y="0" width="960" height="720"/></clipPath><clipPath id="clip49"><rect x="0" y="0" width="960" height="720"/></clipPath></defs><g clip-path="url(#clip0)"><rect x="0" y="0" width="960" height="720" fill="#FFFFFF"/><g clip-path="url(#clip1)"><path d="M425.5 312.5 449.5 319.5M449.5 319.5 466.5 336.5M466.5 336.5 472.5 360.5M472.5 360.5 466.5 383.5M466.5 383.5 449.5 400.5M449.5 400.5 425.5 407.5M425.5 407.5 402.5 400.5M402.5 400.5 384.5 383.5M384.5 383.5 378.5 360.5M378.5 360.5 384.5 336.5M384.5 336.5 402.5 319.5M402.5 319.5 425.5 312.5M425.5 265.5 472.5 278.5M472.5 278.5 507.5 312.5M507.5 312.5 519.5 360.5M519.5 360.5 507.5 407.5M507.5 407.5 472.5 441.5M472.5 441.5 425.5 454.5M425.5 454.5 378.5 441.5M378.5 441.5 344.5 407.5M344.5 407.5 331.5 360.5M331.5 360.5 344.5 312.5M344.5 312.5 378.5 278.5M378.5 278.5 425.5 265.5M425.5 218.5 496.5 237.5M496.5 237.5 548.5 289.5M548.5 289.5 567.5 360.5M567.5 360.5 548.5 430.5M548.5 430.5 496.5 482.5M496.5 482.5 425.5 501.5M425.5 501.5 355.5 482.5M355.5 482.5 303.5 430.5M303.5 430.5 284.5 360.5M284.5 360.5 303.5 289.5M303.5 289.5 355.5 237.5M355.5 237.5 425.5 218.5M425.5 171.5 519.5 196.5M519.5 196.5 588.5 265.5M588.5 265.5 614.5 360.5M614.5 360.5 588.5 454.5M588.5 454.5 519.5 523.5M519.5 523.5 425.5 548.5M425.5 548.5 331.5 523.5M331.5 523.5 262.5 454.5M262.5 454.5 237.5 360.5M237.5 360.5 262.5 265.5M262.5 265.5 331.5 196.5M331.5 196.5 425.5 171.5M425.5 124.5 543.5 155.5M543.5 155.5 629.5 242.5M629.5 242.5 661.5 360.5M661.5 360.5 629.5 477.5M629.5 477.5 543.5 564.5M543.5 564.5 425.5 595.5M425.5 595.5 307.5 564.5M307.5 564.5 221.5 477.5M221.5 477.5 190.5 360.5M190.5 360.5 221.5 242.5M221.5 242.5 307.5 155.5M307.5 155.5 425.5 124.5M425.5 77.5001 567.5 115.5M567.5 115.5 670.5 218.5M670.5 218.5 708.5 360.5M708.5 360.5 670.5 501.5M670.5 501.5 567.5 604.5M567.5 604.5 425.5 642.5M425.5 642.5 284.5 604.5M284.5 604.5 180.5 501.5M180.5 501.5 142.5 360.5M142.5 360.5 180.5 218.5M180.5 218.5 284.5 115.5M284.5 115.5 425.5 77.5001M425.5 30.5001 590.5 74.5001M590.5 74.5001 711.5 195.5M711.5 195.5 755.5 360.5M755.5 360.5 711.5 524.5M711.5 524.5 590.5 645.5M590.5 645.5 425.5 689.5M425.5 689.5 260.5 645.5M260.5 645.5 140.5 524.5M140.5 524.5 95.5001 360.5M95.5001 360.5 140.5 195.5M140.5 195.5 260.5 74.5001M260.5 74.5001 425.5 30.5001" stroke="#D9D9D9" stroke-width="1.33333" stroke-linejoin="round" stroke-miterlimit="10" stroke-dasharray="1.33333 1.33333" fill="none"/></g><g clip-path="url(#clip2)"><path d="M426 219 496 238 548 289 567 360 548 431 496 482 426 501 355 482 303 431 284 360 303 289 355 238Z" fill="#F2F2F2" fill-opacity="0.701961"/></g><g clip-path="url(#clip3)"><path d="M425.5 360.5 425.5 30.5001M425.5 360.5 590.5 74.5001M425.5 360.5 711.5 195.5M425.5 360.5 755.5 360.5M425.5 360.5 711.5 524.5M425.5 360.5 590.5 645.5M425.5 360.5 425.5 689.5M425.5 360.5 260.5 645.5M425.5 360.5 140.5 524.5M425.5 360.5 95.5001 360.5M425.5 360.5 140.5 195.5M425.5 360.5 260.5 74.5001M425.5 360.5 425.5 30.5001" stroke="#D9D9D9" stroke-width="1.33333" stroke-linejoin="round" stroke-miterlimit="10" fill="none"/></g><g clip-path="url(#clip4)"><path d="M355.5 237.5 425.5 204.5 492.5 245.5 536.5 295.5 557.5 360.5 551.5 432.5 499.5 488.5 425.5 500.5 353.5 485.5 300.5 432.5 284.5 360.5 308.5 292.5 355.5 237.5" stroke="#404040" stroke-width="2.66667" stroke-linecap="round" stroke-linejoin="round" stroke-miterlimit="10" fill="none"/></g><g clip-path="url(#clip5)"><path d="M425.5 201.5 428.5 204.5 425.5 207.5 422.5 204.5Z" stroke="#262626" stroke-width="1.33333" stroke-linejoin="round" stroke-miterlimit="10" fill="#FFFFFF"/><path d="M492.5 242.5 495.5 245.5 492.5 248.5 489.5 245.5Z" stroke="#262626" stroke-width="1.33333" stroke-linejoin="round" stroke-miterlimit="10" fill="#FFFFFF"/><path d="M536.5 292.5 539.5 295.5 536.5 298.5 533.5 295.5Z" stroke="#262626" stroke-width="1.33333" stroke-linejoin="round" stroke-miterlimit="10" fill="#FFFFFF"/><path d="M557.5 357.5 560.5 360.5 557.5 363.5 554.5 360.5Z" stroke="#262626" stroke-width="1.33333" stroke-linejoin="round" stroke-miterlimit="10" fill="#FFFFFF"/><path d="M551.5 429.5 554.5 432.5 551.5 435.5 548.5 432.5Z" stroke="#262626" stroke-width="1.33333" stroke-linejoin="round" stroke-miterlimit="10" fill="#FFFFFF"/><path d="M499.5 485.5 502.5 488.5 499.5 491.5 496.5 488.5Z" stroke="#262626" stroke-width="1.33333" stroke-linejoin="round" stroke-miterlimit="10" fill="#FFFFFF"/><path d="M425.5 497.5 428.5 500.5 425.5 503.5 422.5 500.5Z" stroke="#262626" stroke-width="1.33333" stroke-linejoin="round" stroke-miterlimit="10" fill="#FFFFFF"/><path d="M353.5 482.5 356.5 485.5 353.5 488.5 350.5 485.5Z" stroke="#262626" stroke-width="1.33333" stroke-linejoin="round" stroke-miterlimit="10" fill="#FFFFFF"/><path d="M300.5 429.5 303.5 432.5 300.5 435.5 297.5 432.5Z" stroke="#262626" stroke-width="1.33333" stroke-linejoin="round" stroke-miterlimit="10" fill="#FFFFFF"/><path d="M284.5 357.5 287.5 360.5 284.5 363.5 281.5 360.5Z" stroke="#262626" stroke-width="1.33333" stroke-linejoin="round" stroke-miterlimit="10" fill="#FFFFFF"/><path d="M308.5 289.5 311.5 292.5 308.5 295.5 305.5 292.5Z" stroke="#262626" stroke-width="1.33333" stroke-linejoin="round" stroke-miterlimit="10" fill="#FFFFFF"/><path d="M355.5 234.5 358.5 237.5 355.5 240.5 352.5 237.5Z" stroke="#262626" stroke-width="1.33333" stroke-linejoin="round" stroke-miterlimit="10" fill="#FFFFFF"/></g><g clip-path="url(#clip6)"><path d="M329.5 193.5 425.5 230.5 471.5 281.5 478.5 329.5 520.5 360.5 561.5 438.5 514.5 513.5 425.5 478.5 354.5 482.5 296.5 434.5 260.5 360.5 304.5 289.5 329.5 193.5" stroke="#7F7F7F" stroke-width="1.33333" stroke-linecap="round" stroke-linejoin="round" stroke-miterlimit="10" stroke-dasharray="2.66667 2.66667" fill="none"/></g><g clip-path="url(#clip7)"><path d="M376.5 274.5 425.5 101.5 511.5 212.5 549.5 288.5 578.5 360.5 532.5 421.5 485.5 463.5 425.5 508.5 341.5 505.5 307.5 428.5 289.5 360.5 304.5 290.5 376.5 274.5" stroke="#7F7F7F" stroke-width="1.33333" stroke-linecap="round" stroke-linejoin="round" stroke-miterlimit="10" stroke-dasharray="0 2.66667" fill="none"/></g><g clip-path="url(#clip8)"><path d="M333.5 199.5 425.5 345.5 499.5 231.5 608.5 254.5 573.5 360.5 552.5 433.5 488.5 469.5 425.5 513.5 354.5 483.5 288.5 438.5 257.5 360.5 290.5 281.5 333.5 199.5" stroke="#7F7F7F" stroke-width="1.33333" stroke-linecap="round" stroke-linejoin="round" stroke-miterlimit="10" stroke-dasharray="2.66667 2.66667" fill="none"/></g><g clip-path="url(#clip9)"><path d="M381.5 282.5 425.5 139.5 486.5 255.5 509.5 311.5 558.5 360.5 559.5 437.5 510.5 506.5 425.5 501.5 361.5 470.5 310.5 426.5 328.5 360.5 335.5 307.5 381.5 282.5" stroke="#7F7F7F" stroke-width="1.33333" stroke-linecap="round" stroke-linejoin="round" stroke-miterlimit="10" stroke-dasharray="0 2.66667" fill="none"/></g><g clip-path="url(#clip10)"><path d="M425.5 313.5 488.5 251.5 526.5 301.5 578.5 360.5 527.5 418.5 502.5 493.5 425.5 551.5 316.5 549.5 242.5 465.5 133.5 360.5" stroke="#C00000" stroke-width="2.66667" stroke-linecap="square" stroke-linejoin="round" stroke-miterlimit="10" fill="none"/></g><g clip-path="url(#clip11)"><path d="M422.5 310.5 428.5 310.5 428.5 316.5 422.5 316.5Z" stroke="#FFFFFF" stroke-width="1.33333" stroke-linejoin="round" stroke-miterlimit="10" fill="#FFFFFF"/><path d="M485.5 248.5 491.5 248.5 491.5 254.5 485.5 254.5Z" stroke="#FFFFFF" stroke-width="1.33333" stroke-linejoin="round" stroke-miterlimit="10" fill="#FFFFFF"/><path d="M523.5 298.5 529.5 298.5 529.5 304.5 523.5 304.5Z" stroke="#FFFFFF" stroke-width="1.33333" stroke-linejoin="round" stroke-miterlimit="10" fill="#FFFFFF"/><path d="M575.5 357.5 581.5 357.5 581.5 363.5 575.5 363.5Z" stroke="#FFFFFF" stroke-width="1.33333" stroke-linejoin="round" stroke-miterlimit="10" fill="#FFFFFF"/><path d="M524.5 415.5 530.5 415.5 530.5 421.5 524.5 421.5Z" stroke="#FFFFFF" stroke-width="1.33333" stroke-linejoin="round" stroke-miterlimit="10" fill="#FFFFFF"/><path d="M499.5 490.5 505.5 490.5 505.5 496.5 499.5 496.5Z" stroke="#FFFFFF" stroke-width="1.33333" stroke-linejoin="round" stroke-miterlimit="10" fill="#FFFFFF"/><path d="M422.5 548.5 428.5 548.5 428.5 554.5 422.5 554.5Z" stroke="#FFFFFF" stroke-width="1.33333" stroke-linejoin="round" stroke-miterlimit="10" fill="#FFFFFF"/><path d="M313.5 546.5 319.5 546.5 319.5 552.5 313.5 552.5Z" stroke="#FFFFFF" stroke-width="1.33333" stroke-linejoin="round" stroke-miterlimit="10" fill="#FFFFFF"/><path d="M239.5 462.5 245.5 462.5 245.5 468.5 239.5 468.5Z" stroke="#FFFFFF" stroke-width="1.33333" stroke-linejoin="round" stroke-miterlimit="10" fill="#FFFFFF"/><path d="M130.5 357.5 136.5 357.5 136.5 363.5 130.5 363.5Z" stroke="#FFFFFF" stroke-width="1.33333" stroke-linejoin="round" stroke-miterlimit="10" fill="#FFFFFF"/></g><g clip-path="url(#clip12)"><path d="M425.5 310 425.5 317M422 313.5 429 313.5" stroke="#C00000" stroke-width="1.33333" stroke-linejoin="round" stroke-miterlimit="10" fill="#FFFFFF"/><path d="M488.5 248 488.5 255M485 251.5 492 251.5" stroke="#C00000" stroke-width="1.33333" stroke-linejoin="round" stroke-miterlimit="10" fill="#FFFFFF"/><path d="M526.5 298 526.5 305M523 301.5 530 301.5" stroke="#C00000" stroke-width="1.33333" stroke-linejoin="round" stroke-miterlimit="10" fill="#FFFFFF"/><path d="M578.5 357 578.5 364M575 360.5 582 360.5" stroke="#C00000" stroke-width="1.33333" stroke-linejoin="round" stroke-miterlimit="10" fill="#FFFFFF"/><path d="M527.5 415 527.5 422M524 418.5 531 418.5" stroke="#C00000" stroke-width="1.33333" stroke-linejoin="round" stroke-miterlimit="10" fill="#FFFFFF"/><path d="M502.5 490 502.5 497M499 493.5 506 493.5" stroke="#C00000" stroke-width="1.33333" stroke-linejoin="round" stroke-miterlimit="10" fill="#FFFFFF"/><path d="M425.5 548 425.5 555M422 551.5 429 551.5" stroke="#C00000" stroke-width="1.33333" stroke-linejoin="round" stroke-miterlimit="10" fill="#FFFFFF"/><path d="M316.5 546 316.5 553M313 549.5 320 549.5" stroke="#C00000" stroke-width="1.33333" stroke-linejoin="round" stroke-miterlimit="10" fill="#FFFFFF"/><path d="M242.5 462 242.5 469M239 465.5 246 465.5" stroke="#C00000" stroke-width="1.33333" stroke-linejoin="round" stroke-miterlimit="10" fill="#FFFFFF"/><path d="M133.5 357 133.5 364M130 360.5 137 360.5" stroke="#C00000" stroke-width="1.33333" stroke-linejoin="round" stroke-miterlimit="10" fill="#FFFFFF"/></g><g clip-path="url(#clip13)"><text font-size="13" transform="translate(398.787 365)">-6</text></g><g clip-path="url(#clip14)"><text font-size="13" transform="translate(398.787 318)">-4</text></g><g clip-path="url(#clip15)"><text font-size="13" transform="translate(398.787 271)">-2</text></g><g clip-path="url(#clip16)"><text font-size="13" transform="translate(404.12 224)">0</text></g><g clip-path="url(#clip17)"><text font-size="13" transform="translate(404.12 177)">2</text></g><g clip-path="url(#clip18)"><text font-size="13" transform="translate(404.12 130)">4</text></g><g clip-path="url(#clip19)"><text font-size="13" transform="translate(404.12 82)">6</text></g><g clip-path="url(#clip20)"><text font-size="13" transform="translate(404.12 35)">8</text></g><g clip-path="url(#clip21)"><text font-size="13" transform="translate(422.087 11)">1</text></g><g clip-path="url(#clip22)"><text font-size="13" transform="translate(597.178 67)">2</text></g><g clip-path="url(#clip23)"><text font-size="13" transform="translate(722.724 193)">3</text></g><g clip-path="url(#clip24)"><text font-size="13" transform="translate(768.677 364)">4</text></g><g clip-path="url(#clip25)"><text font-size="13" transform="translate(722.724 536)">5</text></g><g clip-path="url(#clip26)"><text font-size="13" transform="translate(597.178 661)">6</text></g><g clip-path="url(#clip27)"><text font-size="13" transform="translate(422.087 717)">7</text></g><g clip-path="url(#clip28)"><text font-size="13" transform="translate(246.995 661)">8</text></g><g clip-path="url(#clip29)"><text font-size="13" transform="translate(121.449 536)">9</text></g><g clip-path="url(#clip30)"><text font-size="13" transform="translate(68.3098 364)">10</text></g><g clip-path="url(#clip31)"><text font-size="13" transform="translate(114.263 193)">11</text></g><g clip-path="url(#clip32)"><text font-size="13" transform="translate(239.808 67)">12</text></g><g clip-path="url(#clip33)"><rect x="859" y="277" width="33" height="8" fill="#F2F2F2" fill-opacity="0.701961"/></g><g clip-path="url(#clip34)"><text font-size="14" transform="translate(895.86 285)">baseline</text></g><g clip-path="url(#clip35)"><path d="M858.5 307.5 892.5 307.5" stroke="#404040" stroke-width="2.66667" stroke-linecap="round" stroke-linejoin="round" stroke-miterlimit="10" fill="none" fill-rule="evenodd"/></g><g clip-path="url(#clip36)"><path d="M875.5 304.5 878.5 307.5 875.5 310.5 872.5 307.5Z" stroke="#262626" stroke-width="1.33333" stroke-linejoin="round" stroke-miterlimit="10" fill="#FFFFFF"/></g><g clip-path="url(#clip37)"><text font-size="14" transform="translate(895.86 312)">Avg</text></g><g clip-path="url(#clip38)"><path d="M858.5 333.5 892.5 333.5" stroke="#7F7F7F" stroke-width="1.33333" stroke-linecap="round" stroke-linejoin="round" stroke-miterlimit="10" stroke-dasharray="2.66667 2.66667" fill="none" fill-rule="evenodd"/></g><g clip-path="url(#clip39)"><text font-size="14" transform="translate(895.86 338)">2016</text></g><g clip-path="url(#clip40)"><path d="M858.5 360.5 892.5 360.5" stroke="#7F7F7F" stroke-width="1.33333" stroke-linecap="round" stroke-linejoin="round" stroke-miterlimit="10" stroke-dasharray="0 2.66667" fill="none" fill-rule="evenodd"/></g><g clip-path="url(#clip41)"><text font-size="14" transform="translate(895.86 365)">2017</text></g><g clip-path="url(#clip42)"><path d="M858.5 386.5 892.5 386.5" stroke="#7F7F7F" stroke-width="1.33333" stroke-linecap="round" stroke-linejoin="round" stroke-miterlimit="10" stroke-dasharray="2.66667 2.66667" fill="none" fill-rule="evenodd"/></g><g clip-path="url(#clip43)"><text font-size="14" transform="translate(895.86 391)">2018</text></g><g clip-path="url(#clip44)"><path d="M858.5 412.5 892.5 412.5" stroke="#7F7F7F" stroke-width="1.33333" stroke-linecap="round" stroke-linejoin="round" stroke-miterlimit="10" stroke-dasharray="0 2.66667" fill="none" fill-rule="evenodd"/></g><g clip-path="url(#clip45)"><text font-size="14" transform="translate(895.86 417)">2019</text></g><g clip-path="url(#clip46)"><path d="M858.5 439.5 892.5 439.5" stroke="#C00000" stroke-width="2.66667" stroke-linecap="square" stroke-linejoin="round" stroke-miterlimit="10" fill="none" fill-rule="evenodd"/></g><g clip-path="url(#clip47)"><path d="M872.5 436.5 878.5 436.5 878.5 442.5 872.5 442.5Z" stroke="#FFFFFF" stroke-width="1.33333" stroke-linejoin="round" stroke-miterlimit="10" fill="#FFFFFF"/></g><g clip-path="url(#clip48)"><path d="M875.5 436.5 875.5 443.5M872.5 439.5 879.5 439.5" stroke="#C00000" stroke-width="1.33333" stroke-linejoin="round" stroke-miterlimit="10" fill="#FFFFFF"/></g><g clip-path="url(#clip49)"><text font-size="14" transform="translate(895.86 444)">2020</text></g></g></svg>