<svg viewBox="0 0 960 720" xmlns="http://www.w3.org/2000/svg" xmlns:xlink="http://www.w3.org/1999/xlink" overflow="hidden">
<style>
text { font-family: "Segoe UI",Candara,sans-serif; font-weight: 400; }
</style>
<defs><clipPath id="clip0"><rect x="0" y="0" width="960" height="720"/></clipPath><clipPath id="clip1"><rect x="0" y="0" width="959" height="720"/></clipPath><clipPath id="clip2"><rect x="0" y="0" width="959" height="720"/></clipPath><clipPath id="clip3"><rect x="63" y="59" width="839" height="589"/></clipPath><clipPath id="clip4"><rect x="63" y="59" width="839" height="589"/></clipPath><clipPath id="clip5"><rect x="63" y="59" width="839" height="589"/></clipPath><clipPath id="clip6"><rect x="63" y="59" width="839" height="589"/></clipPath><clipPath id="clip7"><rect x="63" y="59" width="839" height="589"/></clipPath><clipPath id="clip8"><rect x="63" y="59" width="839" height="589"/></clipPath><clipPath id="clip9"><rect x="63" y="59" width="839" height="589"/></clipPath><clipPath id="clip10"><rect x="0" y="0" width="959" height="720"/></clipPath><clipPath id="clip11"><rect x="0" y="0" width="959" height="720"/></clipPath><clipPath id="clip12"><rect x="0" y="0" width="959" height="720"/></clipPath><clipPath id="clip13"><rect x="0" y="0" width="959" height="720"/></clipPath><clipPath id="clip14"><rect x="0" y="0" width="959" height="720"/></clipPath><clipPath id="clip15"><rect x="0" y="0" width="959" height="720"/></clipPath><clipPath id="clip16"><rect x="0" y="0" width="959" height="720"/></clipPath><clipPath id="clip17"><rect x="0" y="0" width="959" height="720"/></clipPath><clipPath id="clip18"><rect x="0" y="0" width="959" height="720"/></clipPath><clipPath id="clip19"><rect x="0" y="0" width="959" height="720"/></clipPath><clipPath id="clip20"><rect x="0" y="0" width="959" height="720"/></clipPath><clipPath id="clip21"><rect x="0" y="0" width="959" height="720"/></clipPath><clipPath id="clip22"><rect x="0" y="0" width="959" height="720"/></clipPath><clipPath id="clip23"><rect x="0" y="0" width="959" height="720"/></clipPath><clipPath id="clip24"><rect x="0" y="0" width="959" height="720"/></clipPath><clipPath id="clip25"><rect x="0" y="0" width="959" height="720"/></clipPath><clipPath id="clip26"><rect x="0" y="0" width="959" height="720"/></clipPath><clipPath id="clip27"><rect x="0" y="0" width="959" height="720"/></clipPath><clipPath id="clip28"><rect x="0" y="0" width="959" height="720"/></clipPath><clipPath id="clip29"><rect x="0" y="0" width="959" height="720"/></clipPath><clipPath id="clip30"><rect x="0" y="0" width="959" height="720"/></clipPath><clipPath id="clip31"><rect x="0" y="0" width="959" height="720"/></clipPath><clipPath id="clip32"><rect x="0" y="0" width="959" height="720"/></clipPath><clipPath id="clip33"><rect x="0" y="0" width="959" height="720"/></clipPath><clipPath id="clip34"><rect x="0" y="0" width="959" height="720"/></clipPath><clipPath id="clip35"><rect x="0" y="0" width="959" height="720"/></clipPath><clipPath id="clip36"><rect x="0" y="0" width="959" height="720"/></clipPath><clipPath id="clip37"><rect x="0" y="0" width="959" height="720"/></clipPath><clipPath id="clip38"><rect x="0" y="0" width="959" height="720"/></clipPath><clipPath id="clip39"><rect x="0" y="0" width="959" height="720"/></clipPath><clipPath id="clip40"><rect x="0" y="0" width="959" height="720"/></clipPath><clipPath id="clip41"><rect x="0" y="0" width="959" height="720"/></clipPath><clipPath id="clip42"><rect x="0" y="0" width="959" height="720"/></clipPath><clipPath id="clip43"><rect x="0" y="0" width="959" height="720"/></clipPath><clipPath id="clip44"><rect x="0" y="0" width="959" height="720"/></clipPath><clipPath id="clip45"><rect x="0" y="0" width="959" height="720"/></clipPath><clipPath id="clip46"><rect x="0" y="0" width="959" height="720"/></clipPath><clipPath id="clip47"><rect x="0" y="0" width="959" height="720"/></clipPath><clipPath id="clip48"><rect x="0" y="0" width="959" height="720"/></clipPath><clipPath id="clip49"><rect x="0" y="0" width="959" height="720"/></clipPath><clipPath id="clip50"><rect x="0" y="0" width="959" height="720"/></clipPath><clipPath id="clip51"><rect x="0" y="0" width="959" height="720"/></clipPath><clipPath id="clip52"><rect x="0" y="0" width="959" height="720"/></clipPath><clipPath id="clip53"><rect x="0" y="0" width="959" height="720"/></clipPath><clipPath id="clip54"><rect x="0" y="0" width="959" height="720"/></clipPath><clipPath id="clip55"><rect x="0" y="0" width="959" height="720"/></clipPath><clipPath id="clip56"><rect x="0" y="0" width="959" height="720"/></clipPath><clipPath id="clip57"><rect x="0" y="0" width="959" height="720"/></clipPath><clipPath id="clip58"><rect x="0" y="0" width="959" height="720"/></clipPath><clipPath id="clip59"><rect x="0" y="0" width="959" height="720"/></clipPath><clipPath id="clip60"><rect x="0" y="0" width="959" height="720"/></clipPath><clipPath id="clip61"><rect x="0" y="0" width="959" height="720"/></clipPath></defs><g clip-path="url(#clip0)"><rect x="0" y="0" width="960" height="720" fill="#FFFFFF"/><g clip-path="url(#clip1)"><path d="M63.5001 608.5 901.5 608.5M63.5001 569.5 901.5 569.5M63.5001 529.5 901.5 529.5M63.5001 490.5 901.5 490.5M63.5001 451.5 901.5 451.5M63.5001 412.5 901.5 412.5M63.5001 373.5 901.5 373.5M63.5001 334.5 901.5 334.5M63.5001 294.5 901.5 294.5M63.5001 255.5 901.5 255.5M63.5001 216.5 901.5 216.5M63.5001 177.5 901.5 177.5M63.5001 138.5 901.5 138.5M63.5001 99.5001 901.5 99.5001M63.5001 59.5001 901.5 59.5001" stroke="#D9D9D9" stroke-linejoin="round" stroke-miterlimit="10" fill="none"/></g><g clip-path="url(#clip2)"><path d="M63.5001 59.5001 63.5001 647.5M133.5 59.5001 133.5 647.5M203.5 59.5001 203.5 647.5M273.5 59.5001 273.5 647.5M343.5 59.5001 343.5 647.5M412.5 59.5001 412.5 647.5M482.5 59.5001 482.5 647.5M552.5 59.5001 552.5 647.5M622.5 59.5001 622.5 647.5M692.5 59.5001 692.5 647.5M762.5 59.5001 762.5 647.5M831.5 59.5001 831.5 647.5M901.5 59.5001 901.5 647.5" stroke="#D9D9D9" stroke-linejoin="round" stroke-miterlimit="10" fill="none"/></g><g clip-path="url(#clip3)"><path d="M63.5001 232.5 133.5 232.5 133.5 647.5 63.5001 647.5ZM133.5 340.5 203.5 340.5 203.5 647.5 133.5 647.5ZM203.5 297.5 273.5 297.5 273.5 647.5 203.5 647.5ZM273.5 392.5 343.5 392.5 343.5 647.5 273.5 647.5ZM343.5 417.5 412.5 417.5 412.5 647.5 343.5 647.5ZM412.5 452.5 482.5 452.5 482.5 647.5 412.5 647.5ZM482.5 446.5 552.5 446.5 552.5 647.5 482.5 647.5ZM552.5 456.5 622.5 456.5 622.5 647.5 552.5 647.5ZM622.5 497.5 692.5 497.5 692.5 647.5 622.5 647.5ZM692.5 386.5 762.5 386.5 762.5 647.5 692.5 647.5ZM762.5 393.5 831.5 393.5 831.5 647.5 762.5 647.5ZM831.5 323.5 901.5 323.5 901.5 647.5 831.5 647.5Z" stroke="#595959" stroke-width="2.66667" stroke-linecap="square" stroke-linejoin="bevel" stroke-miterlimit="10" fill="none"/></g><g clip-path="url(#clip4)"><path d="M68.5001 256.5 78.5001 256.5 78.5001 647.5 68.5001 647.5ZM138.5 301.5 148.5 301.5 148.5 647.5 138.5 647.5ZM208.5 220.5 218.5 220.5 218.5 647.5 208.5 647.5ZM278.5 336.5 288.5 336.5 288.5 647.5 278.5 647.5ZM348.5 426.5 358.5 426.5 358.5 647.5 348.5 647.5ZM417.5 474.5 427.5 474.5 427.5 647.5 417.5 647.5ZM487.5 433.5 497.5 433.5 497.5 647.5 487.5 647.5ZM557.5 479.5 567.5 479.5 567.5 647.5 557.5 647.5ZM627.5 509.5 637.5 509.5 637.5 647.5 627.5 647.5ZM697.5 409.5 707.5 409.5 707.5 647.5 697.5 647.5ZM767.5 390.5 777.5 390.5 777.5 647.5 767.5 647.5ZM836.5 356.5 846.5 356.5 846.5 647.5 836.5 647.5Z" stroke="#404040" stroke-linejoin="round" stroke-miterlimit="10" fill="#7F7F7F"/></g><g clip-path="url(#clip5)"><path d="M78.5001 277.5 88.5001 277.5 88.5001 647.5 78.5001 647.5ZM148.5 385.5 158.5 385.5 158.5 647.5 148.5 647.5ZM218.5 353.5 228.5 353.5 228.5 647.5 218.5 647.5ZM288.5 414.5 298.5 414.5 298.5 647.5 288.5 647.5ZM358.5 401.5 368.5 401.5 368.5 647.5 358.5 647.5ZM427.5 415.5 437.5 415.5 437.5 647.5 427.5 647.5ZM497.5 472.5 507.5 472.5 507.5 647.5 497.5 647.5ZM567.5 479.5 577.5 479.5 577.5 647.5 567.5 647.5ZM637.5 496.5 647.5 496.5 647.5 647.5 637.5 647.5ZM707.5 370.5 717.5 370.5 717.5 647.5 707.5 647.5ZM777.5 392.5 787.5 392.5 787.5 647.5 777.5 647.5ZM846.5 271.5 856.5 271.5 856.5 647.5 846.5 647.5Z" stroke="#404040" stroke-linejoin="round" stroke-miterlimit="10" fill="#A6A6A6"/></g><g clip-path="url(#clip6)"><path d="M88.5001 82.5001 98.5001 82.5001 98.5001 647.5 88.5001 647.5ZM158.5 336.5 168.5 336.5 168.5 647.5 158.5 647.5ZM228.5 350.5 238.5 350.5 238.5 647.5 228.5 647.5ZM298.5 395.5 308.5 395.5 308.5 647.5 298.5 647.5ZM368.5 431.5 378.5 431.5 378.5 647.5 368.5 647.5ZM437.5 452.5 447.5 452.5 447.5 647.5 437.5 647.5ZM507.5 460.5 517.5 460.5 517.5 647.5 507.5 647.5ZM577.5 435.5 587.5 435.5 587.5 647.5 577.5 647.5ZM647.5 504.5 657.5 504.5 657.5 647.5 647.5 647.5ZM717.5 380.5 727.5 380.5 727.5 647.5 717.5 647.5ZM787.5 395.5 796.5 395.5 796.5 647.5 787.5 647.5ZM856.5 342.5 866.5 342.5 866.5 647.5 856.5 647.5Z" stroke="#404040" stroke-linejoin="round" stroke-miterlimit="10" fill="#BFBFBF"/></g><g clip-path="url(#clip7)"><path d="M98.5001 293.5 108.5 293.5 108.5 647.5 98.5001 647.5ZM168.5 325.5 178.5 325.5 178.5 647.5 168.5 647.5ZM238.5 234.5 248.5 234.5 248.5 647.5 238.5 647.5ZM308.5 384.5 318.5 384.5 318.5 647.5 308.5 647.5ZM378.5 423.5 387.5 423.5 387.5 647.5 378.5 647.5ZM447.5 477.5 457.5 477.5 457.5 647.5 447.5 647.5ZM517.5 439.5 527.5 439.5 527.5 647.5 517.5 647.5ZM587.5 433.5 597.5 433.5 597.5 647.5 587.5 647.5ZM657.5 477.5 667.5 477.5 667.5 647.5 657.5 647.5ZM727.5 336.5 737.5 336.5 737.5 647.5 727.5 647.5ZM796.5 371.5 806.5 371.5 806.5 647.5 796.5 647.5ZM866.5 269.5 876.5 269.5 876.5 647.5 866.5 647.5Z" stroke="#404040" stroke-linejoin="round" stroke-miterlimit="10" fill="#D9D9D9"/></g><g clip-path="url(#clip8)"><path d="M108.5 162.5 118.5 162.5 118.5 647.5 108.5 647.5ZM178.5 359.5 188.5 359.5 188.5 647.5 178.5 647.5ZM248.5 307.5 258.5 307.5 258.5 647.5 248.5 647.5ZM318.5 399.5 328.5 399.5 328.5 647.5 318.5 647.5ZM387.5 402.5 397.5 402.5 397.5 647.5 387.5 647.5ZM457.5 430.5 467.5 430.5 467.5 647.5 457.5 647.5ZM527.5 439.5 537.5 439.5 537.5 647.5 527.5 647.5ZM597.5 455.5 607.5 455.5 607.5 647.5 597.5 647.5ZM667.5 491.5 677.5 491.5 677.5 647.5 667.5 647.5ZM737.5 409.5 747.5 409.5 747.5 647.5 737.5 647.5ZM806.5 432.5 816.5 432.5 816.5 647.5 806.5 647.5ZM876.5 356.5 886.5 356.5 886.5 647.5 876.5 647.5Z" stroke="#404040" stroke-linejoin="round" stroke-miterlimit="10" fill="#F2F2F2"/></g><g clip-path="url(#clip9)"><path d="M118.5 320.5 128.5 320.5 128.5 647.5 118.5 647.5ZM188.5 384.5 198.5 384.5 198.5 647.5 188.5 647.5ZM258.5 350.5 268.5 350.5 268.5 647.5 258.5 647.5ZM328.5 380.5 338.5 380.5 338.5 647.5 328.5 647.5ZM397.5 441.5 407.5 441.5 407.5 647.5 397.5 647.5ZM467.5 409.5 477.5 409.5 477.5 647.5 467.5 647.5ZM537.5 356.5 547.5 356.5 547.5 647.5 537.5 647.5ZM607.5 327.5 617.5 327.5 617.5 647.5 607.5 647.5ZM677.5 374.5 687.5 374.5 687.5 647.5 677.5 647.5ZM747.5 158.5 757.5 158.5 757.5 647.5 747.5 647.5ZM816.5 1234.5 826.5 1234.5 826.5 647.5 816.5 647.5ZM886.5 1234.5 896.5 1234.5 896.5 647.5 886.5 647.5Z" stroke="#000000" stroke-linejoin="round" stroke-miterlimit="10" fill="#C00000"/></g><g clip-path="url(#clip10)"><path d="M63.5001 647.5 901.5 647.5" stroke="#D9D9D9" stroke-linejoin="round" stroke-miterlimit="10" fill="none" fill-rule="evenodd"/></g><g clip-path="url(#clip11)"><text font-size="13" transform="translate(915.4 651)">15000</text></g><g clip-path="url(#clip12)"><text font-size="13" transform="translate(915.4 456)">20000</text></g><g clip-path="url(#clip13)"><text font-size="13" transform="translate(915.4 260)">25000</text></g><g clip-path="url(#clip14)"><text font-size="13" transform="translate(915.4 64)">30000</text></g><g clip-path="url(#clip15)"><text font-size="14" transform="translate(8.66667 652)">15,000</text></g><g clip-path="url(#clip16)"><text font-size="14" transform="translate(8.66667 613)">16,000</text></g><g clip-path="url(#clip17)"><text font-size="14" transform="translate(8.66667 574)">17,000</text></g><g clip-path="url(#clip18)"><text font-size="14" transform="translate(8.66667 534)">18,000</text></g><g clip-path="url(#clip19)"><text font-size="14" transform="translate(8.66667 495)">19,000</text></g><g clip-path="url(#clip20)"><text font-size="14" transform="translate(8.66667 456)">20,000</text></g><g clip-path="url(#clip21)"><text font-size="14" transform="translate(8.66667 417)">21,000</text></g><g clip-path="url(#clip22)"><text font-size="14" transform="translate(8.66667 378)">22,000</text></g><g clip-path="url(#clip23)"><text font-size="14" transform="translate(8.66667 339)">23,000</text></g><g clip-path="url(#clip24)"><text font-size="14" transform="translate(8.66667 299)">24,000</text></g><g clip-path="url(#clip25)"><text font-size="14" transform="translate(8.66667 260)">25,000</text></g><g clip-path="url(#clip26)"><text font-size="14" transform="translate(8.66667 221)">26,000</text></g><g clip-path="url(#clip27)"><text font-size="14" transform="translate(8.66667 182)">27,000</text></g><g clip-path="url(#clip28)"><text font-size="14" transform="translate(8.66667 143)">28,000</text></g><g clip-path="url(#clip29)"><text font-size="14" transform="translate(8.66667 104)">29,000</text></g><g clip-path="url(#clip30)"><text font-size="14" transform="translate(8.66667 64)">30,000</text></g><g clip-path="url(#clip31)"><text font-size="14" transform="translate(75.3339 672)">January</text></g><g clip-path="url(#clip32)"><text font-size="14" transform="translate(141.557 672)">February</text></g><g clip-path="url(#clip33)"><text font-size="14" transform="translate(218.88 672)">March</text></g><g clip-path="url(#clip34)"><text font-size="14" transform="translate(293.723 672)">April</text></g><g clip-path="url(#clip35)"><text font-size="14" transform="translate(364.78 672)">May</text></g><g clip-path="url(#clip36)"><text font-size="14" transform="translate(433.763 672)">June</text></g><g clip-path="url(#clip37)"><text font-size="14" transform="translate(506.13 672)">July</text></g><g clip-path="url(#clip38)"><text font-size="14" transform="translate(565.6 672)">August</text></g><g clip-path="url(#clip39)"><text font-size="14" transform="translate(623.563 672)">September</text></g><g clip-path="url(#clip40)"><text font-size="14" transform="translate(701.97 672)">October</text></g><g clip-path="url(#clip41)"><text font-size="14" transform="translate(764.403 672)">November</text></g><g clip-path="url(#clip42)"><text font-size="14" transform="translate(835.123 672)">December</text></g><g clip-path="url(#clip43)"><text fill="#595959" font-size="24" transform="translate(265.137 36)">Monthly Deaths in Romania (2015</text></g><g clip-path="url(#clip44)"><text fill="#595959" font-size="24" transform="translate(623.863 36)">–</text></g><g clip-path="url(#clip45)"><text fill="#595959" font-size="24" transform="translate(635.863 36)">2020)</text></g><g clip-path="url(#clip46)"><rect x="227.5" y="693.5" width="8" height="9" stroke="#595959" stroke-width="2.66667" stroke-linecap="square" stroke-linejoin="bevel" stroke-miterlimit="10" fill="none"/></g><g clip-path="url(#clip47)"><text font-size="15" transform="translate(239.805 703)">Average (2015</text></g><g clip-path="url(#clip48)"><text font-size="15" transform="translate(332.899 703)">–</text></g><g clip-path="url(#clip49)"><text font-size="15" transform="translate(340.232 703)">2019)</text></g><g clip-path="url(#clip50)"><rect x="392.5" y="693.5" width="9" height="9" stroke="#404040" stroke-linejoin="round" stroke-miterlimit="10" fill="#7F7F7F"/></g><g clip-path="url(#clip51)"><text font-size="15" transform="translate(405.069 703)">2015</text></g><g clip-path="url(#clip52)"><rect x="452.5" y="693.5" width="9" height="9" stroke="#404040" stroke-linejoin="round" stroke-miterlimit="10" fill="#A6A6A6"/></g><g clip-path="url(#clip53)"><text font-size="15" transform="translate(465.48 703)">2016</text></g><g clip-path="url(#clip54)"><rect x="513.5" y="693.5" width="9" height="9" stroke="#404040" stroke-linejoin="round" stroke-miterlimit="10" fill="#BFBFBF"/></g><g clip-path="url(#clip55)"><text font-size="15" transform="translate(525.891 703)">2017</text></g><g clip-path="url(#clip56)"><rect x="573.5" y="693.5" width="9" height="9" stroke="#404040" stroke-linejoin="round" stroke-miterlimit="10" fill="#D9D9D9"/></g><g clip-path="url(#clip57)"><text font-size="15" transform="translate(586.301 703)">2018</text></g><g clip-path="url(#clip58)"><rect x="634.5" y="693.5" width="8" height="9" stroke="#404040" stroke-linejoin="round" stroke-miterlimit="10" fill="#F2F2F2"/></g><g clip-path="url(#clip59)"><text font-size="15" transform="translate(646.712 703)">2019</text></g><g clip-path="url(#clip60)"><rect x="694.5" y="693.5" width="9" height="9" stroke="#000000" stroke-linejoin="round" stroke-miterlimit="10" fill="#C00000"/></g><g clip-path="url(#clip61)"><text font-size="15" transform="translate(707.123 703)">2020</text></g></g></svg>