<svg viewBox="0 0 960 720" xmlns="http://www.w3.org/2000/svg" xmlns:xlink="http://www.w3.org/1999/xlink" overflow="hidden">
<style> text { font-family: "Segoe UI",Candara,sans-serif; font-weight: 400; } </style>
<defs><clipPath id="clip0"><rect x="0" y="0" width="960" height="720"/></clipPath><clipPath id="clip1"><rect x="0" y="0" width="960" height="720"/></clipPath><clipPath id="clip2"><rect x="94" y="30" width="661" height="660"/></clipPath><clipPath id="clip3"><rect x="0" y="0" width="960" height="720"/></clipPath><clipPath id="clip4"><rect x="94" y="30" width="661" height="660"/></clipPath><clipPath id="clip5"><rect x="0" y="0" width="960" height="720"/></clipPath><clipPath id="clip6"><rect x="94" y="30" width="661" height="660"/></clipPath><clipPath id="clip7"><rect x="94" y="30" width="661" height="660"/></clipPath><clipPath id="clip8"><rect x="94" y="30" width="661" height="660"/></clipPath><clipPath id="clip9"><rect x="94" y="30" width="661" height="660"/></clipPath><clipPath id="clip10"><rect x="94" y="30" width="661" height="660"/></clipPath><clipPath id="clip11"><rect x="94" y="30" width="661" height="660"/></clipPath><clipPath id="clip12"><rect x="0" y="0" width="960" height="720"/></clipPath><clipPath id="clip13"><rect x="0" y="0" width="960" height="720"/></clipPath><clipPath id="clip14"><rect x="0" y="0" width="960" height="720"/></clipPath><clipPath id="clip15"><rect x="0" y="0" width="960" height="720"/></clipPath><clipPath id="clip16"><rect x="0" y="0" width="960" height="720"/></clipPath><clipPath id="clip17"><rect x="0" y="0" width="960" height="720"/></clipPath><clipPath id="clip18"><rect x="0" y="0" width="960" height="720"/></clipPath><clipPath id="clip19"><rect x="0" y="0" width="960" height="720"/></clipPath><clipPath id="clip20"><rect x="0" y="0" width="960" height="720"/></clipPath><clipPath id="clip21"><rect x="0" y="0" width="960" height="720"/></clipPath><clipPath id="clip22"><rect x="0" y="0" width="960" height="720"/></clipPath><clipPath id="clip23"><rect x="0" y="0" width="960" height="720"/></clipPath><clipPath id="clip24"><rect x="0" y="0" width="960" height="720"/></clipPath><clipPath id="clip25"><rect x="0" y="0" width="960" height="720"/></clipPath><clipPath id="clip26"><rect x="0" y="0" width="960" height="720"/></clipPath><clipPath id="clip27"><rect x="0" y="0" width="960" height="720"/></clipPath><clipPath id="clip28"><rect x="0" y="0" width="960" height="720"/></clipPath><clipPath id="clip29"><rect x="0" y="0" width="960" height="720"/></clipPath><clipPath id="clip30"><rect x="0" y="0" width="960" height="720"/></clipPath><clipPath id="clip31"><rect x="0" y="0" width="960" height="720"/></clipPath><clipPath id="clip32"><rect x="0" y="0" width="960" height="720"/></clipPath><clipPath id="clip33"><rect x="0" y="0" width="960" height="720"/></clipPath><clipPath id="clip34"><rect x="0" y="0" width="960" height="720"/></clipPath><clipPath id="clip35"><rect x="0" y="0" width="960" height="720"/></clipPath><clipPath id="clip36"><rect x="0" y="0" width="960" height="720"/></clipPath><clipPath id="clip37"><rect x="0" y="0" width="960" height="720"/></clipPath><clipPath id="clip38"><rect x="0" y="0" width="960" height="720"/></clipPath><clipPath id="clip39"><rect x="0" y="0" width="960" height="720"/></clipPath><clipPath id="clip40"><rect x="0" y="0" width="960" height="720"/></clipPath><clipPath id="clip41"><rect x="0" y="0" width="960" height="720"/></clipPath><clipPath id="clip42"><rect x="0" y="0" width="960" height="720"/></clipPath><clipPath id="clip43"><rect x="0" y="0" width="960" height="720"/></clipPath><clipPath id="clip44"><rect x="0" y="0" width="960" height="720"/></clipPath><clipPath id="clip45"><rect x="0" y="0" width="960" height="720"/></clipPath><clipPath id="clip46"><rect x="0" y="0" width="960" height="720"/></clipPath><clipPath id="clip47"><rect x="0" y="0" width="960" height="720"/></clipPath><clipPath id="clip48"><rect x="0" y="0" width="960" height="720"/></clipPath><clipPath id="clip49"><rect x="0" y="0" width="960" height="720"/></clipPath><clipPath id="clip50"><rect x="0" y="0" width="960" height="720"/></clipPath><clipPath id="clip51"><rect x="0" y="0" width="960" height="720"/></clipPath><clipPath id="clip52"><rect x="0" y="0" width="960" height="720"/></clipPath></defs><g clip-path="url(#clip0)"><rect x="0" y="0" width="960" height="720" fill="#FFFFFF"/><rect x="0" y="0" width="960" height="720" fill="#FFFFFF"/><g clip-path="url(#clip1)"><path d="M424.5 312.5 448.5 319.5M448.5 319.5 465.5 336.5M465.5 336.5 471.5 360.5M471.5 360.5 465.5 383.5M465.5 383.5 448.5 400.5M448.5 400.5 424.5 407.5M424.5 407.5 400.5 400.5M400.5 400.5 383.5 383.5M383.5 383.5 377.5 360.5M377.5 360.5 383.5 336.5M383.5 336.5 400.5 319.5M400.5 319.5 424.5 312.5M424.5 265.5 471.5 278.5M471.5 278.5 506.5 312.5M506.5 312.5 518.5 360.5M518.5 360.5 506.5 407.5M506.5 407.5 471.5 441.5M471.5 441.5 424.5 454.5M424.5 454.5 377.5 441.5M377.5 441.5 342.5 407.5M342.5 407.5 330.5 360.5M330.5 360.5 342.5 312.5M342.5 312.5 377.5 278.5M377.5 278.5 424.5 265.5M424.5 218.5 495.5 237.5M495.5 237.5 546.5 289.5M546.5 289.5 565.5 360.5M565.5 360.5 546.5 430.5M546.5 430.5 495.5 482.5M495.5 482.5 424.5 501.5M424.5 501.5 353.5 482.5M353.5 482.5 302.5 430.5M302.5 430.5 283.5 360.5M283.5 360.5 302.5 289.5M302.5 289.5 353.5 237.5M353.5 237.5 424.5 218.5M424.5 171.5 518.5 196.5M518.5 196.5 587.5 265.5M587.5 265.5 612.5 360.5M612.5 360.5 587.5 454.5M587.5 454.5 518.5 523.5M518.5 523.5 424.5 548.5M424.5 548.5 330.5 523.5M330.5 523.5 261.5 454.5M261.5 454.5 236.5 360.5M236.5 360.5 261.5 265.5M261.5 265.5 330.5 196.5M330.5 196.5 424.5 171.5M424.5 124.5 542.5 155.5M542.5 155.5 628.5 242.5M628.5 242.5 660.5 360.5M660.5 360.5 628.5 477.5M628.5 477.5 542.5 564.5M542.5 564.5 424.5 595.5M424.5 595.5 306.5 564.5M306.5 564.5 220.5 477.5M220.5 477.5 188.5 360.5M188.5 360.5 220.5 242.5M220.5 242.5 306.5 155.5M306.5 155.5 424.5 124.5M424.5 77.5001 565.5 115.5M565.5 115.5 669.5 218.5M669.5 218.5 707.5 360.5M707.5 360.5 669.5 501.5M669.5 501.5 565.5 604.5M565.5 604.5 424.5 642.5M424.5 642.5 283.5 604.5M283.5 604.5 179.5 501.5M179.5 501.5 141.5 360.5M141.5 360.5 179.5 218.5M179.5 218.5 283.5 115.5M283.5 115.5 424.5 77.5001M424.5 30.5001 589.5 74.5001M589.5 74.5001 710.5 195.5M710.5 195.5 754.5 360.5M754.5 360.5 710.5 524.5M710.5 524.5 589.5 645.5M589.5 645.5 424.5 689.5M424.5 689.5 259.5 645.5M259.5 645.5 138.5 524.5M138.5 524.5 94.5001 360.5M94.5001 360.5 138.5 195.5M138.5 195.5 259.5 74.5001M259.5 74.5001 424.5 30.5001" stroke="#D9D9D9" stroke-width="1.33333" stroke-linejoin="round" stroke-miterlimit="10" stroke-dasharray="1.33333 1.33333" fill="none"/></g><g clip-path="url(#clip2)"><path d="M424 172 519 197 588 266 613 360 588 454 519 523 424 548 330 523 261 454 236 360 261 266 330 197Z" fill="#F2F2F2" fill-opacity="0.701961"/></g><g clip-path="url(#clip3)"><path d="M424.5 360.5 424.5 30.5001M424.5 360.5 589.5 74.5001M424.5 360.5 710.5 195.5M424.5 360.5 754.5 360.5M424.5 360.5 710.5 524.5M424.5 360.5 589.5 645.5M424.5 360.5 424.5 689.5M424.5 360.5 259.5 645.5M424.5 360.5 138.5 524.5M424.5 360.5 94.5001 360.5M424.5 360.5 138.5 195.5M424.5 360.5 259.5 74.5001M424.5 360.5 424.5 30.5001" stroke="#D9D9D9" stroke-width="1.33333" stroke-linejoin="round" stroke-miterlimit="10" fill="none"/></g><g clip-path="url(#clip4)"><path d="M306.5 156.5 424.5 107.5 480.5 262.5 612.5 251.5 557.5 360.5 571.5 444.5 508.5 505.5 424.5 549.5 332.5 519.5 281.5 442.5 167.5 360.5 269.5 270.5 306.5 156.5" stroke="#404040" stroke-width="2.66667" stroke-linecap="round" stroke-linejoin="round" stroke-miterlimit="10" fill="none"/></g><g clip-path="url(#clip5)"><path d="M424.5 104.5 427.5 107.5 424.5 110.5 421.5 107.5Z" stroke="#404040" stroke-width="1.33333" stroke-linejoin="round" stroke-miterlimit="10" fill="#FFFFFF"/><path d="M480.5 259.5 483.5 262.5 480.5 265.5 477.5 262.5Z" stroke="#404040" stroke-width="1.33333" stroke-linejoin="round" stroke-miterlimit="10" fill="#FFFFFF"/><path d="M612.5 248.5 615.5 251.5 612.5 254.5 609.5 251.5Z" stroke="#404040" stroke-width="1.33333" stroke-linejoin="round" stroke-miterlimit="10" fill="#FFFFFF"/><path d="M557.5 357.5 560.5 360.5 557.5 363.5 554.5 360.5Z" stroke="#404040" stroke-width="1.33333" stroke-linejoin="round" stroke-miterlimit="10" fill="#FFFFFF"/><path d="M571.5 441.5 574.5 444.5 571.5 447.5 568.5 444.5Z" stroke="#404040" stroke-width="1.33333" stroke-linejoin="round" stroke-miterlimit="10" fill="#FFFFFF"/><path d="M508.5 502.5 511.5 505.5 508.5 508.5 505.5 505.5Z" stroke="#404040" stroke-width="1.33333" stroke-linejoin="round" stroke-miterlimit="10" fill="#FFFFFF"/><path d="M424.5 546.5 427.5 549.5 424.5 552.5 421.5 549.5Z" stroke="#404040" stroke-width="1.33333" stroke-linejoin="round" stroke-miterlimit="10" fill="#FFFFFF"/><path d="M332.5 516.5 335.5 519.5 332.5 522.5 329.5 519.5Z" stroke="#404040" stroke-width="1.33333" stroke-linejoin="round" stroke-miterlimit="10" fill="#FFFFFF"/><path d="M281.5 439.5 284.5 442.5 281.5 445.5 278.5 442.5Z" stroke="#404040" stroke-width="1.33333" stroke-linejoin="round" stroke-miterlimit="10" fill="#FFFFFF"/><path d="M167.5 357.5 170.5 360.5 167.5 363.5 164.5 360.5Z" stroke="#404040" stroke-width="1.33333" stroke-linejoin="round" stroke-miterlimit="10" fill="#FFFFFF"/><path d="M269.5 267.5 272.5 270.5 269.5 273.5 266.5 270.5Z" stroke="#404040" stroke-width="1.33333" stroke-linejoin="round" stroke-miterlimit="10" fill="#FFFFFF"/><path d="M306.5 153.5 309.5 156.5 306.5 159.5 303.5 156.5Z" stroke="#404040" stroke-width="1.33333" stroke-linejoin="round" stroke-miterlimit="10" fill="#FFFFFF"/></g><g clip-path="url(#clip6)"><path d="M319.5 178.5 424.5 171.5 505.5 219.5 629.5 241.5 543.5 360.5 541.5 427.5 504.5 497.5 424.5 573.5 344.5 499.5 276.5 445.5 176.5 360.5 251.5 260.5 319.5 178.5" stroke="#7F7F7F" stroke-width="1.33333" stroke-linecap="round" stroke-linejoin="round" stroke-miterlimit="10" stroke-dasharray="0 2.66667" fill="none"/></g><g clip-path="url(#clip7)"><path d="M293.5 133.5 424.5 124.5 486.5 252.5 604.5 256.5 576.5 360.5 594.5 458.5 514.5 515.5 424.5 514.5 332.5 519.5 269.5 449.5 160.5 360.5 272.5 272.5 293.5 133.5" stroke="#7F7F7F" stroke-width="1.33333" stroke-linecap="round" stroke-linejoin="round" stroke-miterlimit="10" stroke-dasharray="2.66667 2.66667" fill="none"/></g><g clip-path="url(#clip8)"><path d="M314.5 169.5 424.5 57.5001 442.5 329.5 580.5 269.5 586.5 360.5 568.5 443.5 512.5 512.5 424.5 543.5 322.5 535.5 297.5 433.5 161.5 360.5 269.5 270.5 314.5 169.5" stroke="#7F7F7F" stroke-width="1.33333" stroke-linecap="round" stroke-linejoin="round" stroke-miterlimit="10" stroke-dasharray="0 2.66667" fill="none"/></g><g clip-path="url(#clip9)"><path d="M299.5 143.5 424.5 142.5 509.5 213.5 635.5 238.5 522.5 360.5 567.5 442.5 502.5 494.5 424.5 571.5 328.5 526.5 284.5 441.5 151.5 360.5 279.5 276.5 299.5 143.5" stroke="#7F7F7F" stroke-width="1.33333" stroke-linecap="round" stroke-linejoin="round" stroke-miterlimit="10" stroke-dasharray="2.66667 2.66667" fill="none"/></g><g clip-path="url(#clip10)"><path d="M307.5 156.5 424.5 106.5 459.5 299.5 614.5 250.5 558.5 360.5 586.5 453.5 510.5 508.5 424.5 543.5 335.5 514.5 279.5 443.5 186.5 360.5 273.5 272.5 307.5 156.5" stroke="#7F7F7F" stroke-width="1.33333" stroke-linecap="round" stroke-linejoin="round" stroke-miterlimit="10" stroke-dasharray="0 2.66667" fill="none"/></g><g clip-path="url(#clip11)"><path d="M424.5 149.5 499.5 230.5 605.5 255.5 594.5 360.5 555.5 435.5 528.5 540.5 424.5 580.5 321.5 538.5 285.5 440.5 106.5 360.5" stroke="#C00000" stroke-width="2.66667" stroke-linecap="square" stroke-linejoin="round" stroke-miterlimit="10" fill="none"/></g><g clip-path="url(#clip12)"><path d="M421.5 146.5 427.5 146.5 427.5 152.5 421.5 152.5Z" stroke="#FFFFFF" stroke-width="1.33333" stroke-linejoin="round" stroke-miterlimit="10" fill="#FFFFFF"/><path d="M496.5 227.5 502.5 227.5 502.5 233.5 496.5 233.5Z" stroke="#FFFFFF" stroke-width="1.33333" stroke-linejoin="round" stroke-miterlimit="10" fill="#FFFFFF"/><path d="M602.5 252.5 608.5 252.5 608.5 258.5 602.5 258.5Z" stroke="#FFFFFF" stroke-width="1.33333" stroke-linejoin="round" stroke-miterlimit="10" fill="#FFFFFF"/><path d="M591.5 357.5 597.5 357.5 597.5 363.5 591.5 363.5Z" stroke="#FFFFFF" stroke-width="1.33333" stroke-linejoin="round" stroke-miterlimit="10" fill="#FFFFFF"/><path d="M552.5 432.5 558.5 432.5 558.5 438.5 552.5 438.5Z" stroke="#FFFFFF" stroke-width="1.33333" stroke-linejoin="round" stroke-miterlimit="10" fill="#FFFFFF"/><path d="M525.5 537.5 531.5 537.5 531.5 543.5 525.5 543.5Z" stroke="#FFFFFF" stroke-width="1.33333" stroke-linejoin="round" stroke-miterlimit="10" fill="#FFFFFF"/><path d="M421.5 577.5 427.5 577.5 427.5 583.5 421.5 583.5Z" stroke="#FFFFFF" stroke-width="1.33333" stroke-linejoin="round" stroke-miterlimit="10" fill="#FFFFFF"/><path d="M318.5 535.5 324.5 535.5 324.5 541.5 318.5 541.5Z" stroke="#FFFFFF" stroke-width="1.33333" stroke-linejoin="round" stroke-miterlimit="10" fill="#FFFFFF"/><path d="M282.5 437.5 288.5 437.5 288.5 443.5 282.5 443.5Z" stroke="#FFFFFF" stroke-width="1.33333" stroke-linejoin="round" stroke-miterlimit="10" fill="#FFFFFF"/><path d="M103.5 357.5 109.5 357.5 109.5 363.5 103.5 363.5Z" stroke="#FFFFFF" stroke-width="1.33333" stroke-linejoin="round" stroke-miterlimit="10" fill="#FFFFFF"/></g><g clip-path="url(#clip13)"><path d="M424.5 146 424.5 153M421 149.5 428 149.5" stroke="#C00000" stroke-width="1.33333" stroke-linejoin="round" stroke-miterlimit="10" fill="#FFFFFF"/><path d="M499.5 227 499.5 234M496 230.5 503 230.5" stroke="#C00000" stroke-width="1.33333" stroke-linejoin="round" stroke-miterlimit="10" fill="#FFFFFF"/><path d="M605.5 252 605.5 259M602 255.5 609 255.5" stroke="#C00000" stroke-width="1.33333" stroke-linejoin="round" stroke-miterlimit="10" fill="#FFFFFF"/><path d="M594.5 357 594.5 364M591 360.5 598 360.5" stroke="#C00000" stroke-width="1.33333" stroke-linejoin="round" stroke-miterlimit="10" fill="#FFFFFF"/><path d="M555.5 432 555.5 439M552 435.5 559 435.5" stroke="#C00000" stroke-width="1.33333" stroke-linejoin="round" stroke-miterlimit="10" fill="#FFFFFF"/><path d="M528.5 537 528.5 544M525 540.5 532 540.5" stroke="#C00000" stroke-width="1.33333" stroke-linejoin="round" stroke-miterlimit="10" fill="#FFFFFF"/><path d="M424.5 577 424.5 584M421 580.5 428 580.5" stroke="#C00000" stroke-width="1.33333" stroke-linejoin="round" stroke-miterlimit="10" fill="#FFFFFF"/><path d="M321.5 535 321.5 542M318 538.5 325 538.5" stroke="#C00000" stroke-width="1.33333" stroke-linejoin="round" stroke-miterlimit="10" fill="#FFFFFF"/><path d="M285.5 437 285.5 444M282 440.5 289 440.5" stroke="#C00000" stroke-width="1.33333" stroke-linejoin="round" stroke-miterlimit="10" fill="#FFFFFF"/><path d="M106.5 357 106.5 364M103 360.5 110 360.5" stroke="#C00000" stroke-width="1.33333" stroke-linejoin="round" stroke-miterlimit="10" fill="#FFFFFF"/></g><g clip-path="url(#clip14)"><text font-size="13" transform="translate(397.586 365)">-8</text></g><g clip-path="url(#clip15)"><text font-size="13" transform="translate(397.586 318)">-6</text></g><g clip-path="url(#clip16)"><text font-size="13" transform="translate(397.586 271)">-4</text></g><g clip-path="url(#clip17)"><text font-size="13" transform="translate(397.586 224)">-2</text></g><g clip-path="url(#clip18)"><text font-size="13" transform="translate(402.92 177)">0</text></g><g clip-path="url(#clip19)"><text font-size="13" transform="translate(402.92 130)">2</text></g><g clip-path="url(#clip20)"><text font-size="13" transform="translate(402.92 82)">4</text></g><g clip-path="url(#clip21)"><text font-size="13" transform="translate(402.92 35)">6</text></g><g clip-path="url(#clip22)"><text font-size="13" transform="translate(420.887 11)">1</text></g><g clip-path="url(#clip23)"><text font-size="13" transform="translate(595.978 67)">2</text></g><g clip-path="url(#clip24)"><text font-size="13" transform="translate(721.524 193)">3</text></g><g clip-path="url(#clip25)"><text font-size="13" transform="translate(767.477 364)">4</text></g><g clip-path="url(#clip26)"><text font-size="13" transform="translate(721.524 536)">5</text></g><g clip-path="url(#clip27)"><text font-size="13" transform="translate(595.978 661)">6</text></g><g clip-path="url(#clip28)"><text font-size="13" transform="translate(420.887 717)">7</text></g><g clip-path="url(#clip29)"><text font-size="13" transform="translate(245.795 661)">8</text></g><g clip-path="url(#clip30)"><text font-size="13" transform="translate(120.249 536)">9</text></g><g clip-path="url(#clip31)"><text font-size="13" transform="translate(67.1097 364)">10</text></g><g clip-path="url(#clip32)"><text font-size="13" transform="translate(113.063 193)">11</text></g><g clip-path="url(#clip33)"><text font-size="13" transform="translate(238.608 67)">12</text></g><g clip-path="url(#clip34)"><rect x="856" y="260" width="34" height="9" fill="#F2F2F2" fill-opacity="0.701961"/></g><g clip-path="url(#clip35)"><text font-size="15" transform="translate(893.46 269)">baseline</text></g><g clip-path="url(#clip36)"><path d="M856.5 291.5 889.5 291.5" stroke="#404040" stroke-width="2.66667" stroke-linecap="round" stroke-linejoin="round" stroke-miterlimit="10" fill="none" fill-rule="evenodd"/></g><g clip-path="url(#clip37)"><path d="M872.5 288.5 875.5 291.5 872.5 294.5 869.5 291.5Z" stroke="#404040" stroke-width="1.33333" stroke-linejoin="round" stroke-miterlimit="10" fill="#FFFFFF"/></g><g clip-path="url(#clip38)"><text font-size="15" transform="translate(893.46 297)">Avg</text></g><g clip-path="url(#clip39)"><path d="M856.5 319.5 889.5 319.5" stroke="#7F7F7F" stroke-width="1.33333" stroke-linecap="round" stroke-linejoin="round" stroke-miterlimit="10" stroke-dasharray="0 2.66667" fill="none" fill-rule="evenodd"/></g><g clip-path="url(#clip40)"><text font-size="15" transform="translate(893.46 324)">2015</text></g><g clip-path="url(#clip41)"><path d="M856.5 346.5 889.5 346.5" stroke="#7F7F7F" stroke-width="1.33333" stroke-linecap="round" stroke-linejoin="round" stroke-miterlimit="10" stroke-dasharray="2.66667 2.66667" fill="none" fill-rule="evenodd"/></g><g clip-path="url(#clip42)"><text font-size="15" transform="translate(893.46 351)">2016</text></g><g clip-path="url(#clip43)"><path d="M856.5 373.5 889.5 373.5" stroke="#7F7F7F" stroke-width="1.33333" stroke-linecap="round" stroke-linejoin="round" stroke-miterlimit="10" stroke-dasharray="0 2.66667" fill="none" fill-rule="evenodd"/></g><g clip-path="url(#clip44)"><text font-size="15" transform="translate(893.46 379)">2017</text></g><g clip-path="url(#clip45)"><path d="M856.5 400.5 889.5 400.5" stroke="#7F7F7F" stroke-width="1.33333" stroke-linecap="round" stroke-linejoin="round" stroke-miterlimit="10" stroke-dasharray="2.66667 2.66667" fill="none" fill-rule="evenodd"/></g><g clip-path="url(#clip46)"><text font-size="15" transform="translate(893.46 406)">2018</text></g><g clip-path="url(#clip47)"><path d="M856.5 428.5 889.5 428.5" stroke="#7F7F7F" stroke-width="1.33333" stroke-linecap="round" stroke-linejoin="round" stroke-miterlimit="10" stroke-dasharray="0 2.66667" fill="none" fill-rule="evenodd"/></g><g clip-path="url(#clip48)"><text font-size="15" transform="translate(893.46 433)">2019</text></g><g clip-path="url(#clip49)"><path d="M856.5 455.5 889.5 455.5" stroke="#C00000" stroke-width="2.66667" stroke-linecap="square" stroke-linejoin="round" stroke-miterlimit="10" fill="none" fill-rule="evenodd"/></g><g clip-path="url(#clip50)"><path d="M869.5 452.5 875.5 452.5 875.5 458.5 869.5 458.5Z" stroke="#FFFFFF" stroke-width="1.33333" stroke-linejoin="round" stroke-miterlimit="10" fill="#FFFFFF"/></g><g clip-path="url(#clip51)"><path d="M872.5 452.5 872.5 459.5M869.5 455.5 876.5 455.5" stroke="#C00000" stroke-width="1.33333" stroke-linejoin="round" stroke-miterlimit="10" fill="#FFFFFF"/></g><g clip-path="url(#clip52)"><text font-size="15" transform="translate(893.46 461)">2020</text></g></g></svg>