<svg viewBox="0 0 960 720" xmlns="http://www.w3.org/2000/svg" xmlns:xlink="http://www.w3.org/1999/xlink" overflow="hidden">
<style> text { font-family: "Segoe UI",Candara,sans-serif; font-weight: 400; } </style>
<defs><clipPath id="clip0"><rect x="0" y="0" width="960" height="720"/></clipPath><clipPath id="clip1"><rect x="0" y="0" width="959" height="720"/></clipPath><clipPath id="clip2"><rect x="68" y="56" width="871" height="564"/></clipPath><clipPath id="clip3"><rect x="68" y="56" width="871" height="564"/></clipPath><clipPath id="clip4"><rect x="0" y="0" width="959" height="720"/></clipPath><clipPath id="clip5"><rect x="0" y="0" width="959" height="720"/></clipPath><clipPath id="clip6"><rect x="68" y="56" width="871" height="563"/></clipPath><clipPath id="clip7"><rect x="68" y="56" width="871" height="563"/></clipPath><clipPath id="clip8"><rect x="68" y="56" width="871" height="563"/></clipPath><clipPath id="clip9"><rect x="68" y="56" width="871" height="563"/></clipPath><clipPath id="clip10"><rect x="68" y="56" width="871" height="563"/></clipPath><clipPath id="clip11"><rect x="68" y="56" width="871" height="563"/></clipPath><clipPath id="clip12"><rect x="68" y="56" width="871" height="563"/></clipPath><clipPath id="clip13"><rect x="68" y="56" width="871" height="563"/></clipPath><clipPath id="clip14"><rect x="68" y="56" width="871" height="563"/></clipPath><clipPath id="clip15"><rect x="68" y="56" width="871" height="563"/></clipPath><clipPath id="clip16"><rect x="68" y="56" width="871" height="563"/></clipPath><clipPath id="clip17"><rect x="68" y="56" width="871" height="563"/></clipPath><clipPath id="clip18"><rect x="68" y="56" width="871" height="564"/></clipPath><clipPath id="clip19"><rect x="0" y="0" width="959" height="720"/></clipPath><clipPath id="clip20"><rect x="0" y="0" width="959" height="720"/></clipPath><clipPath id="clip21"><rect x="0" y="0" width="959" height="720"/></clipPath><clipPath id="clip22"><rect x="0" y="0" width="959" height="720"/></clipPath><clipPath id="clip23"><rect x="0" y="0" width="959" height="720"/></clipPath><clipPath id="clip24"><rect x="0" y="0" width="959" height="720"/></clipPath><clipPath id="clip25"><rect x="0" y="0" width="959" height="720"/></clipPath><clipPath id="clip26"><rect x="0" y="0" width="959" height="720"/></clipPath><clipPath id="clip27"><rect x="0" y="0" width="959" height="720"/></clipPath><clipPath id="clip28"><rect x="0" y="0" width="959" height="720"/></clipPath><clipPath id="clip29"><rect x="0" y="0" width="959" height="720"/></clipPath><clipPath id="clip30"><rect x="0" y="0" width="959" height="720"/></clipPath><clipPath id="clip31"><rect x="0" y="0" width="959" height="720"/></clipPath><clipPath id="clip32"><rect x="0" y="0" width="959" height="720"/></clipPath><clipPath id="clip33"><rect x="0" y="0" width="959" height="720"/></clipPath><clipPath id="clip34"><rect x="0" y="0" width="959" height="720"/></clipPath><clipPath id="clip35"><rect x="0" y="0" width="959" height="720"/></clipPath><clipPath id="clip36"><rect x="0" y="0" width="959" height="720"/></clipPath><clipPath id="clip37"><rect x="0" y="0" width="959" height="720"/></clipPath><clipPath id="clip38"><rect x="0" y="0" width="959" height="720"/></clipPath><clipPath id="clip39"><rect x="0" y="0" width="959" height="720"/></clipPath><clipPath id="clip40"><rect x="0" y="0" width="959" height="720"/></clipPath><clipPath id="clip41"><rect x="0" y="0" width="959" height="720"/></clipPath><clipPath id="clip42"><rect x="0" y="0" width="959" height="720"/></clipPath><clipPath id="clip43"><rect x="0" y="0" width="959" height="720"/></clipPath><clipPath id="clip44"><rect x="0" y="0" width="959" height="720"/></clipPath><clipPath id="clip45"><rect x="0" y="0" width="959" height="720"/></clipPath><clipPath id="clip46"><rect x="0" y="0" width="959" height="720"/></clipPath><clipPath id="clip47"><rect x="0" y="0" width="959" height="720"/></clipPath><clipPath id="clip48"><rect x="0" y="0" width="959" height="720"/></clipPath><clipPath id="clip49"><rect x="0" y="0" width="959" height="720"/></clipPath><clipPath id="clip50"><rect x="0" y="0" width="959" height="720"/></clipPath><clipPath id="clip51"><rect x="0" y="0" width="959" height="720"/></clipPath><clipPath id="clip52"><rect x="0" y="0" width="959" height="720"/></clipPath><clipPath id="clip53"><rect x="0" y="0" width="959" height="720"/></clipPath><clipPath id="clip54"><rect x="0" y="0" width="959" height="720"/></clipPath><clipPath id="clip55"><rect x="0" y="0" width="959" height="720"/></clipPath><clipPath id="clip56"><rect x="0" y="0" width="959" height="720"/></clipPath><clipPath id="clip57"><rect x="0" y="0" width="959" height="720"/></clipPath><clipPath id="clip58"><rect x="0" y="0" width="959" height="720"/></clipPath></defs><g clip-path="url(#clip0)"><rect x="0" y="0" width="960" height="720" fill="#FFFFFF"/><g clip-path="url(#clip1)"><path d="M68.5001 538.5 938.5 538.5M68.5001 458.5 938.5 458.5M68.5001 378.5 938.5 378.5M68.5001 297.5 938.5 297.5M68.5001 217.5 938.5 217.5M68.5001 136.5 938.5 136.5M68.5001 56.5001 938.5 56.5001" stroke="#E0E5EB" stroke-linejoin="round" stroke-miterlimit="10" fill="none"/></g><g clip-path="url(#clip2)"><path d="M69 218 81 218 81 619 69 619ZM81 236 93 236 93 619 81 619ZM93 203 105 203 105 619 93 619ZM105 250 117 250 117 619 105 619ZM117 287 129 287 129 619 117 619ZM129 307 141 307 141 619 129 619ZM141 290 153 290 153 619 141 619ZM153 309 165 309 165 619 153 619ZM165 321 177 321 177 619 165 619ZM177 281 190 281 190 619 177 619ZM190 273 202 273 202 619 190 619ZM202 259 214 259 214 619 202 619ZM214 226 226 226 226 619 214 619ZM226 270 238 270 238 619 226 619ZM238 257 250 257 250 619 238 619ZM250 283 262 283 262 619 250 619ZM262 277 274 277 274 619 262 619ZM274 283 286 283 286 619 274 619ZM286 306 298 306 298 619 286 619ZM298 309 310 309 310 619 298 619ZM310 316 322 316 322 619 310 619ZM322 265 335 265 335 619 322 619ZM335 274 347 274 347 619 335 619ZM347 224 359 224 359 619 347 619ZM359 146 371 146 371 619 359 619ZM371 250 383 250 383 619 371 619ZM383 256 395 256 395 619 383 619ZM395 275 407 275 407 619 395 619ZM407 289 419 289 419 619 407 619ZM419 298 431 298 431 619 419 619ZM431 301 443 301 443 619 431 619ZM443 291 455 291 455 619 443 619ZM455 319 467 319 467 619 455 619ZM467 268 480 268 480 619 467 619ZM480 275 492 275 492 619 480 619ZM492 253 504 253 504 619 492 619ZM504 233 516 233 516 619 504 619ZM516 246 528 246 528 619 516 619ZM528 208 540 208 540 619 528 619ZM540 270 552 270 552 619 540 619ZM552 286 564 286 564 619 552 619ZM564 308 576 308 576 619 564 619ZM576 293 588 293 588 619 576 619ZM588 290 600 290 600 619 588 619ZM600 308 612 308 612 619 600 619ZM612 250 625 250 625 619 612 619ZM625 265 637 265 637 619 625 619ZM637 223 649 223 649 619 637 619ZM649 179 661 179 661 619 649 619ZM661 260 673 260 673 619 661 619ZM673 239 685 239 685 619 673 619ZM685 276 697 276 697 619 685 619ZM697 277 709 277 709 619 697 619ZM709 289 721 289 721 619 709 619ZM721 293 733 293 733 619 721 619ZM733 299 745 299 745 619 733 619ZM745 314 757 314 757 619 745 619ZM757 280 770 280 770 619 757 619ZM770 290 782 290 782 619 770 619ZM782 259 794 259 794 619 782 619ZM794 244 806 244 806 619 794 619ZM806 270 818 270 818 619 806 619ZM818 256 830 256 830 619 818 619ZM830 269 842 269 842 619 830 619ZM842 294 854 294 854 619 842 619ZM854 280 866 280 866 619 854 619ZM866 259 878 259 878 619 866 619ZM878 247 890 247 890 619 878 619ZM890 266 902 266 902 619 890 619ZM902 177 915 177 915 619 902 619Z" fill="#F4B183"/></g><g clip-path="url(#clip3)"><path d="M69 218 81 218 81 619 69 619ZM81 236 93 236 93 619 81 619ZM93 203 105 203 105 619 93 619ZM105 250 117 250 117 619 105 619ZM117 287 129 287 129 619 117 619ZM129 307 141 307 141 619 129 619ZM141 290 153 290 153 619 141 619ZM153 309 165 309 165 619 153 619ZM165 321 177 321 177 619 165 619ZM177 281 190 281 190 619 177 619ZM190 273 202 273 202 619 190 619ZM202 259 214 259 214 619 202 619ZM214 226 226 226 226 619 214 619ZM226 270 238 270 238 619 226 619ZM238 257 250 257 250 619 238 619ZM250 283 262 283 262 619 250 619ZM262 277 274 277 274 619 262 619ZM274 283 286 283 286 619 274 619ZM286 306 298 306 298 619 286 619ZM298 309 310 309 310 619 298 619ZM310 316 322 316 322 619 310 619ZM322 265 335 265 335 619 322 619ZM335 274 347 274 347 619 335 619ZM347 224 359 224 359 619 347 619ZM359 146 371 146 371 619 359 619ZM371 250 383 250 383 619 371 619ZM383 256 395 256 395 619 383 619ZM395 275 407 275 407 619 395 619ZM407 289 419 289 419 619 407 619ZM419 298 431 298 431 619 419 619ZM431 301 443 301 443 619 431 619ZM443 291 455 291 455 619 443 619ZM455 319 467 319 467 619 455 619ZM467 268 480 268 480 619 467 619ZM480 275 492 275 492 619 480 619ZM492 253 504 253 504 619 492 619ZM504 233 516 233 516 619 504 619ZM516 246 528 246 528 619 516 619ZM528 208 540 208 540 619 528 619ZM540 270 552 270 552 619 540 619ZM552 286 564 286 564 619 552 619ZM564 308 576 308 576 619 564 619ZM576 293 588 293 588 619 576 619ZM588 290 600 290 600 619 588 619ZM600 308 612 308 612 619 600 619ZM612 250 625 250 625 619 612 619ZM625 265 637 265 637 619 625 619ZM637 223 649 223 649 619 637 619ZM649 179 661 179 661 619 649 619ZM661 260 673 260 673 619 661 619ZM673 239 685 239 685 619 673 619ZM685 276 697 276 697 619 685 619ZM697 277 709 277 709 619 697 619ZM709 289 721 289 721 619 709 619ZM721 293 733 293 733 619 721 619ZM733 299 745 299 745 619 733 619ZM745 314 757 314 757 619 745 619ZM757 280 770 280 770 619 757 619ZM770 290 782 290 782 619 770 619ZM782 259 794 259 794 619 782 619Z" fill="#767171"/></g><g clip-path="url(#clip4)"><path d="M68.5001 619.5 938.5 619.5" stroke="#E0E5EB" stroke-linejoin="round" stroke-miterlimit="10" fill="none" fill-rule="evenodd"/></g><g clip-path="url(#clip5)"><path d="M68.5001 614.5 68.5001 624.5M104.5 614.5 104.5 624.5M141.5 614.5 141.5 624.5M177.5 614.5 177.5 624.5M213.5 614.5 213.5 624.5M249.5 614.5 249.5 624.5M286.5 614.5 286.5 624.5M322.5 614.5 322.5 624.5M358.5 614.5 358.5 624.5M394.5 614.5 394.5 624.5M431.5 614.5 431.5 624.5M467.5 614.5 467.5 624.5M503.5 614.5 503.5 624.5M539.5 614.5 539.5 624.5M576.5 614.5 576.5 624.5M612.5 614.5 612.5 624.5M648.5 614.5 648.5 624.5M684.5 614.5 684.5 624.5M721.5 614.5 721.5 624.5M757.5 614.5 757.5 624.5M793.5 614.5 793.5 624.5M829.5 614.5 829.5 624.5M866.5 614.5 866.5 624.5M902.5 614.5 902.5 624.5M938.5 614.5 938.5 624.5" stroke="#E0E5EB" stroke-linejoin="round" stroke-miterlimit="10" fill="none"/></g><g clip-path="url(#clip6)"><path d="M799.5 206.5 799.5 238.5M799.5 206.5 799.5 175.5M796.5 238.5 802.5 238.5M796.5 175.5 802.5 175.5" stroke="#333F50" stroke-linejoin="round" stroke-miterlimit="10" fill="none"/></g><g clip-path="url(#clip7)"><path d="M811.5 260.5 811.5 293.5M811.5 260.5 811.5 228.5M808.5 293.5 814.5 293.5M808.5 228.5 814.5 228.5" stroke="#333F50" stroke-linejoin="round" stroke-miterlimit="10" fill="none"/></g><g clip-path="url(#clip8)"><path d="M823.5 246.5 823.5 279.5M823.5 246.5 823.5 212.5M820.5 279.5 826.5 279.5M820.5 212.5 826.5 212.5" stroke="#333F50" stroke-linejoin="round" stroke-miterlimit="10" fill="none"/></g><g clip-path="url(#clip9)"><path d="M836.5 281.5 836.5 315.5M836.5 281.5 836.5 247.5M833.5 315.5 839.5 315.5M833.5 247.5 839.5 247.5" stroke="#333F50" stroke-linejoin="round" stroke-miterlimit="10" fill="none"/></g><g clip-path="url(#clip10)"><path d="M848.5 289.5 848.5 324.5M848.5 289.5 848.5 254.5M845.5 324.5 851.5 324.5M845.5 254.5 851.5 254.5" stroke="#333F50" stroke-linejoin="round" stroke-miterlimit="10" fill="none"/></g><g clip-path="url(#clip11)"><path d="M860.5 300.5 860.5 336.5M860.5 300.5 860.5 264.5M857.5 336.5 863.5 336.5M857.5 264.5 863.5 264.5" stroke="#333F50" stroke-linejoin="round" stroke-miterlimit="10" fill="none"/></g><g clip-path="url(#clip12)"><path d="M872.5 303.5 872.5 340.5M872.5 303.5 872.5 266.5M869.5 340.5 875.5 340.5M869.5 266.5 875.5 266.5" stroke="#333F50" stroke-linejoin="round" stroke-miterlimit="10" fill="none"/></g><g clip-path="url(#clip13)"><path d="M884.5 307.5 884.5 345.5M884.5 307.5 884.5 270.5M881.5 345.5 887.5 345.5M881.5 270.5 887.5 270.5" stroke="#333F50" stroke-linejoin="round" stroke-miterlimit="10" fill="none"/></g><g clip-path="url(#clip14)"><path d="M896.5 323.5 896.5 362.5M896.5 323.5 896.5 284.5M893.5 362.5 899.5 362.5M893.5 284.5 899.5 284.5" stroke="#333F50" stroke-linejoin="round" stroke-miterlimit="10" fill="none"/></g><g clip-path="url(#clip15)"><path d="M908.5 275.5 908.5 315.5M908.5 275.5 908.5 236.5M905.5 315.5 911.5 315.5M905.5 236.5 911.5 236.5" stroke="#333F50" stroke-linejoin="round" stroke-miterlimit="10" fill="none"/></g><g clip-path="url(#clip16)"><path d="M920.5 278.5 920.5 318.5M920.5 278.5 920.5 237.5M917.5 318.5 923.5 318.5M917.5 237.5 923.5 237.5" stroke="#333F50" stroke-linejoin="round" stroke-miterlimit="10" fill="none"/></g><g clip-path="url(#clip17)"><path d="M932.5 249.5 932.5 290.5M932.5 249.5 932.5 208.5M929.5 290.5 935.5 290.5M929.5 208.5 935.5 208.5" stroke="#333F50" stroke-linejoin="round" stroke-miterlimit="10" fill="none"/></g><g clip-path="url(#clip18)"><path d="M799.5 206.5 811.5 260.5 823.5 246.5 836.5 281.5 848.5 289.5 860.5 300.5 872.5 303.5 884.5 307.5 896.5 323.5 908.5 275.5 920.5 278.5 932.5 249.5" stroke="#ED7D31" stroke-width="3.33333" stroke-linecap="round" stroke-linejoin="round" stroke-miterlimit="10" fill="none"/></g><g clip-path="url(#clip19)"><text fill="#44546A" font-size="14" transform="translate(46.8334 624)">0</text></g><g clip-path="url(#clip20)"><text fill="#44546A" font-size="14" transform="translate(46.8334 544)">5</text></g><g clip-path="url(#clip21)"><text fill="#44546A" font-size="14" transform="translate(39.2867 463)">10</text></g><g clip-path="url(#clip22)"><text fill="#44546A" font-size="14" transform="translate(39.2867 383)">15</text></g><g clip-path="url(#clip23)"><text fill="#44546A" font-size="14" transform="translate(39.2867 302)">20</text></g><g clip-path="url(#clip24)"><text fill="#44546A" font-size="14" transform="translate(39.2867 222)">25</text></g><g clip-path="url(#clip25)"><text fill="#44546A" font-size="14" transform="translate(39.2867 141)">30</text></g><g clip-path="url(#clip26)"><text fill="#44546A" font-size="14" transform="translate(39.2867 61)">35</text></g><g clip-path="url(#clip27)"><text fill="#44546A" font-size="14" transform="matrix(0.707107 -0.707107 0.707107 0.707107 49.988 669)">Jan-15</text></g><g clip-path="url(#clip28)"><text fill="#44546A" font-size="14" transform="matrix(0.707107 -0.707107 0.707107 0.707107 84.7583 670)">Apr-15</text></g><g clip-path="url(#clip29)"><text fill="#44546A" font-size="14" transform="matrix(0.707107 -0.707107 0.707107 0.707107 125.124 666)">Jul-15</text></g><g clip-path="url(#clip30)"><text fill="#44546A" font-size="14" transform="matrix(0.707107 -0.707107 0.707107 0.707107 157.519 670)">Oct-15</text></g><g clip-path="url(#clip31)"><text fill="#44546A" font-size="14" transform="matrix(0.707107 -0.707107 0.707107 0.707107 194.99 669)">Jan-16</text></g><g clip-path="url(#clip32)"><text fill="#44546A" font-size="14" transform="matrix(0.707107 -0.707107 0.707107 0.707107 229.761 670)">Apr-16</text></g><g clip-path="url(#clip33)"><text fill="#44546A" font-size="14" transform="matrix(0.707107 -0.707107 0.707107 0.707107 270.127 666)">Jul-16</text></g><g clip-path="url(#clip34)"><text fill="#44546A" font-size="14" transform="matrix(0.707107 -0.707107 0.707107 0.707107 302.522 670)">Oct-16</text></g><g clip-path="url(#clip35)"><text fill="#44546A" font-size="14" transform="matrix(0.707107 -0.707107 0.707107 0.707107 339.993 669)">Jan-17</text></g><g clip-path="url(#clip36)"><text fill="#44546A" font-size="14" transform="matrix(0.707107 -0.707107 0.707107 0.707107 374.763 670)">Apr-17</text></g><g clip-path="url(#clip37)"><text fill="#44546A" font-size="14" transform="matrix(0.707107 -0.707107 0.707107 0.707107 415.13 666)">Jul-17</text></g><g clip-path="url(#clip38)"><text fill="#44546A" font-size="14" transform="matrix(0.707107 -0.707107 0.707107 0.707107 447.524 670)">Oct-17</text></g><g clip-path="url(#clip39)"><text fill="#44546A" font-size="14" transform="matrix(0.707107 -0.707107 0.707107 0.707107 484.996 669)">Jan-18</text></g><g clip-path="url(#clip40)"><text fill="#44546A" font-size="14" transform="matrix(0.707107 -0.707107 0.707107 0.707107 519.766 670)">Apr-18</text></g><g clip-path="url(#clip41)"><text fill="#44546A" font-size="14" transform="matrix(0.707107 -0.707107 0.707107 0.707107 560.132 666)">Jul-18</text></g><g clip-path="url(#clip42)"><text fill="#44546A" font-size="14" transform="matrix(0.707107 -0.707107 0.707107 0.707107 592.527 670)">Oct-18</text></g><g clip-path="url(#clip43)"><text fill="#44546A" font-size="14" transform="matrix(0.707107 -0.707107 0.707107 0.707107 629.998 669)">Jan-19</text></g><g clip-path="url(#clip44)"><text fill="#44546A" font-size="14" transform="matrix(0.707107 -0.707107 0.707107 0.707107 664.769 670)">Apr-19</text></g><g clip-path="url(#clip45)"><text fill="#44546A" font-size="14" transform="matrix(0.707107 -0.707107 0.707107 0.707107 705.135 666)">Jul-19</text></g><g clip-path="url(#clip46)"><text fill="#44546A" font-size="14" transform="matrix(0.707107 -0.707107 0.707107 0.707107 737.529 670)">Oct-19</text></g><g clip-path="url(#clip47)"><text fill="#44546A" font-size="14" transform="matrix(0.707107 -0.707107 0.707107 0.707107 775.001 669)">Jan-20</text></g><g clip-path="url(#clip48)"><text fill="#44546A" font-size="14" transform="matrix(0.707107 -0.707107 0.707107 0.707107 806.707 673)">May-20</text></g><g clip-path="url(#clip49)"><text fill="#44546A" font-size="14" transform="matrix(0.707107 -0.707107 0.707107 0.707107 850.137 666)">Jul-20</text></g><g clip-path="url(#clip50)"><text fill="#44546A" font-size="14" transform="matrix(0.707107 -0.707107 0.707107 0.707107 882.532 670)">Oct-20</text></g><g clip-path="url(#clip51)"><text font-size="14" transform="matrix(6.12323e-17 -1 1 6.12323e-17 31.6667 127)">Thousands</text></g><g clip-path="url(#clip52)"><text font-size="21" transform="translate(153.497 33)">Mortality in 2020 compared to forecast based on the previous 5 years</text></g><g clip-path="url(#clip53)"><rect x="224" y="694" width="26" height="9" fill="#F4B183"/></g><g clip-path="url(#clip54)"><text fill="#44546A" font-size="15" transform="translate(252.661 703)">Deceased (2020)</text></g><g clip-path="url(#clip55)"><rect x="387" y="694" width="25" height="9" fill="#767171"/></g><g clip-path="url(#clip56)"><text fill="#44546A" font-size="15" transform="translate(415.163 703)">Deceased (2015-2019)</text></g><g clip-path="url(#clip57)"><path d="M586.5 698.5 612.5 698.5" stroke="#ED7D31" stroke-width="3.33333" stroke-linecap="round" stroke-linejoin="round" stroke-miterlimit="10" fill="none" fill-rule="evenodd"/></g><g clip-path="url(#clip58)"><text fill="#44546A" font-size="15" transform="translate(615.158 703)">Forecast(Deceased)</text></g></g></svg>