<svg viewBox="0 0 960 720" xmlns="http://www.w3.org/2000/svg" xmlns:xlink="http://www.w3.org/1999/xlink" overflow="hidden">
<style>
text { font-family: "Segoe UI",Candara,sans-serif; font-weight: 400; }
</style>
<defs><clipPath id="clip0"><rect x="0" y="0" width="960" height="720"/></clipPath><clipPath id="clip1"><rect x="0" y="0" width="960" height="720"/></clipPath><clipPath id="clip2"><rect x="58" y="59" width="888" height="587"/></clipPath><clipPath id="clip3"><rect x="58" y="59" width="888" height="587"/></clipPath><clipPath id="clip4"><rect x="58" y="59" width="888" height="586"/></clipPath><clipPath id="clip5"><rect x="58" y="59" width="888" height="586"/></clipPath><clipPath id="clip6"><rect x="58" y="59" width="888" height="586"/></clipPath><clipPath id="clip7"><rect x="58" y="59" width="888" height="586"/></clipPath><clipPath id="clip8"><rect x="58" y="59" width="888" height="586"/></clipPath><clipPath id="clip9"><rect x="58" y="59" width="888" height="586"/></clipPath><clipPath id="clip10"><rect x="58" y="59" width="888" height="586"/></clipPath><clipPath id="clip11"><rect x="58" y="59" width="888" height="586"/></clipPath><clipPath id="clip12"><rect x="58" y="59" width="888" height="586"/></clipPath><clipPath id="clip13"><rect x="58" y="59" width="888" height="586"/></clipPath><clipPath id="clip14"><rect x="58" y="59" width="888" height="586"/></clipPath><clipPath id="clip15"><rect x="58" y="59" width="888" height="586"/></clipPath><clipPath id="clip16"><rect x="0" y="0" width="960" height="720"/></clipPath><clipPath id="clip17"><rect x="0" y="0" width="960" height="720"/></clipPath><clipPath id="clip18"><rect x="0" y="0" width="960" height="720"/></clipPath><clipPath id="clip19"><rect x="0" y="0" width="960" height="720"/></clipPath><clipPath id="clip20"><rect x="0" y="0" width="960" height="720"/></clipPath><clipPath id="clip21"><rect x="0" y="0" width="960" height="720"/></clipPath><clipPath id="clip22"><rect x="0" y="0" width="960" height="720"/></clipPath><clipPath id="clip23"><rect x="0" y="0" width="960" height="720"/></clipPath><clipPath id="clip24"><rect x="0" y="0" width="960" height="720"/></clipPath><clipPath id="clip25"><rect x="0" y="0" width="960" height="720"/></clipPath><clipPath id="clip26"><rect x="0" y="0" width="960" height="720"/></clipPath><clipPath id="clip27"><rect x="0" y="0" width="960" height="720"/></clipPath><clipPath id="clip28"><rect x="0" y="0" width="960" height="720"/></clipPath><clipPath id="clip29"><rect x="0" y="0" width="960" height="720"/></clipPath><clipPath id="clip30"><rect x="0" y="0" width="960" height="720"/></clipPath><clipPath id="clip31"><rect x="0" y="0" width="960" height="720"/></clipPath><clipPath id="clip32"><rect x="0" y="0" width="960" height="720"/></clipPath><clipPath id="clip33"><rect x="0" y="0" width="960" height="720"/></clipPath><clipPath id="clip34"><rect x="0" y="0" width="960" height="720"/></clipPath><clipPath id="clip35"><rect x="0" y="0" width="960" height="720"/></clipPath><clipPath id="clip36"><rect x="0" y="0" width="960" height="720"/></clipPath><clipPath id="clip37"><rect x="0" y="0" width="960" height="720"/></clipPath><clipPath id="clip38"><rect x="0" y="0" width="960" height="720"/></clipPath><clipPath id="clip39"><rect x="0" y="0" width="960" height="720"/></clipPath><clipPath id="clip40"><rect x="0" y="0" width="960" height="720"/></clipPath><clipPath id="clip41"><rect x="0" y="0" width="960" height="720"/></clipPath><clipPath id="clip42"><rect x="0" y="0" width="960" height="720"/></clipPath><clipPath id="clip43"><rect x="0" y="0" width="960" height="720"/></clipPath><clipPath id="clip44"><rect x="0" y="0" width="960" height="720"/></clipPath><clipPath id="clip45"><rect x="0" y="0" width="960" height="720"/></clipPath><clipPath id="clip46"><rect x="0" y="0" width="960" height="720"/></clipPath><clipPath id="clip47"><rect x="0" y="0" width="960" height="720"/></clipPath><clipPath id="clip48"><rect x="0" y="0" width="960" height="720"/></clipPath></defs><g clip-path="url(#clip0)"><rect x="0" y="0" width="960" height="720" fill="#FFFFFF"/><g clip-path="url(#clip1)"><path d="M58.5001 645.5 945.5 645.5M58.5001 587.5 945.5 587.5M58.5001 528.5 945.5 528.5M58.5001 411.5 945.5 411.5M58.5001 352.5 945.5 352.5M58.5001 294.5 945.5 294.5M58.5001 235.5 945.5 235.5M58.5001 177.5 945.5 177.5M58.5001 118.5 945.5 118.5M58.5001 59.5001 945.5 59.5001" stroke="#D9D9D9" stroke-linejoin="round" stroke-miterlimit="10" stroke-dasharray="3 1" fill="none"/></g><g clip-path="url(#clip2)"><path d="M211.5 465.5 237.5 465.5 237.5 469.5 211.5 469.5ZM279.5 433.5 305.5 433.5 305.5 469.5 279.5 469.5ZM347.5 436.5 373.5 436.5 373.5 469.5 347.5 469.5ZM415.5 447.5 441.5 447.5 441.5 469.5 415.5 469.5ZM484.5 429.5 509.5 429.5 509.5 469.5 484.5 469.5ZM552.5 395.5 577.5 395.5 577.5 469.5 552.5 469.5ZM620.5 399.5 646.5 399.5 646.5 469.5 620.5 469.5ZM688.5 344.5 714.5 344.5 714.5 469.5 688.5 469.5ZM756.5 214.5 782.5 214.5 782.5 469.5 756.5 469.5Z" stroke="#000000" stroke-width="1.33333" stroke-linejoin="round" stroke-miterlimit="10" fill="#C00000"/></g><g clip-path="url(#clip3)"><path d="M85.5001 601.5 110.5 601.5 110.5 469.5 85.5001 469.5ZM153.5 536.5 179.5 536.5 179.5 469.5 153.5 469.5ZM221.5 548.5 247.5 548.5 247.5 469.5 221.5 469.5ZM289.5 451.5 315.5 451.5 315.5 469.5 289.5 469.5ZM357.5 506.5 383.5 506.5 383.5 469.5 357.5 469.5ZM426.5 405.5 451.5 405.5 451.5 469.5 426.5 469.5ZM494.5 335.5 520.5 335.5 520.5 469.5 494.5 469.5ZM562.5 276.5 588.5 276.5 588.5 469.5 562.5 469.5ZM630.5 285.5 656.5 285.5 656.5 469.5 630.5 469.5ZM698.5 127.5 724.5 127.5 724.5 469.5 698.5 469.5Z" stroke="#7F7F7F" stroke-width="1.33333" stroke-linejoin="round" stroke-miterlimit="10" fill="#F4B183"/></g><g clip-path="url(#clip4)"><path d="M92.5001 469.5 92.5001 603.5M92.5001 469.5 92.5001 335.5M89.5001 603.5 95.5001 603.5M89.5001 335.5 95.5001 335.5" stroke="#595959" stroke-linejoin="round" stroke-miterlimit="10" fill="none"/></g><g clip-path="url(#clip5)"><path d="M161.5 469.5 161.5 517.5M161.5 469.5 161.5 421.5M158.5 517.5 164.5 517.5M158.5 421.5 164.5 421.5" stroke="#595959" stroke-linejoin="round" stroke-miterlimit="10" fill="none"/></g><g clip-path="url(#clip6)"><path d="M229.5 469.5 229.5 564.5M229.5 469.5 229.5 375.5M226.5 564.5 232.5 564.5M226.5 375.5 232.5 375.5" stroke="#595959" stroke-linejoin="round" stroke-miterlimit="10" fill="none"/></g><g clip-path="url(#clip7)"><path d="M297.5 469.5 297.5 514.5M297.5 469.5 297.5 425.5M294.5 514.5 300.5 514.5M294.5 425.5 300.5 425.5" stroke="#595959" stroke-linejoin="round" stroke-miterlimit="10" fill="none"/></g><g clip-path="url(#clip8)"><path d="M365.5 469.5 365.5 490.5M365.5 469.5 365.5 448.5M362.5 490.5 368.5 490.5M362.5 448.5 368.5 448.5" stroke="#595959" stroke-linejoin="round" stroke-miterlimit="10" fill="none"/></g><g clip-path="url(#clip9)"><path d="M433.5 469.5 433.5 510.5M433.5 469.5 433.5 429.5M430.5 510.5 436.5 510.5M430.5 429.5 436.5 429.5" stroke="#595959" stroke-linejoin="round" stroke-miterlimit="10" fill="none"/></g><g clip-path="url(#clip10)"><path d="M502.5 469.5 502.5 494.5M502.5 469.5 502.5 445.5M499.5 494.5 505.5 494.5M499.5 445.5 505.5 445.5" stroke="#595959" stroke-linejoin="round" stroke-miterlimit="10" fill="none"/></g><g clip-path="url(#clip11)"><path d="M570.5 469.5 570.5 503.5M570.5 469.5 570.5 435.5M567.5 503.5 573.5 503.5M567.5 435.5 573.5 435.5" stroke="#595959" stroke-linejoin="round" stroke-miterlimit="10" fill="none"/></g><g clip-path="url(#clip12)"><path d="M638.5 469.5 638.5 488.5M638.5 469.5 638.5 451.5M635.5 488.5 641.5 488.5M635.5 451.5 641.5 451.5" stroke="#595959" stroke-linejoin="round" stroke-miterlimit="10" fill="none"/></g><g clip-path="url(#clip13)"><path d="M706.5 469.5 706.5 515.5M706.5 469.5 706.5 424.5M703.5 515.5 709.5 515.5M703.5 424.5 709.5 424.5" stroke="#595959" stroke-linejoin="round" stroke-miterlimit="10" fill="none"/></g><g clip-path="url(#clip14)"><path d="M774.5 469.5 774.5 503.5M774.5 469.5 774.5 436.5M771.5 503.5 777.5 503.5M771.5 436.5 777.5 436.5" stroke="#595959" stroke-linejoin="round" stroke-miterlimit="10" fill="none"/></g><g clip-path="url(#clip15)"><path d="M843.5 469.5 843.5 537.5M843.5 469.5 843.5 402.5M840.5 537.5 846.5 537.5M840.5 402.5 846.5 402.5" stroke="#595959" stroke-linejoin="round" stroke-miterlimit="10" fill="none"/></g><g clip-path="url(#clip16)"><path d="M58.5001 469.5 945.5 469.5" stroke="#D9D9D9" stroke-linejoin="round" stroke-miterlimit="10" fill="none" fill-rule="evenodd"/></g><g clip-path="url(#clip17)"><text font-size="14" transform="translate(8.66677 650)">-3000</text></g><g clip-path="url(#clip18)"><text font-size="14" transform="translate(8.66677 592)">-2000</text></g><g clip-path="url(#clip19)"><text font-size="14" transform="translate(8.66677 533)">-1000</text></g><g clip-path="url(#clip20)"><text font-size="14" transform="translate(36.9068 474)">0</text></g><g clip-path="url(#clip21)"><text font-size="14" transform="translate(14.2668 416)">1000</text></g><g clip-path="url(#clip22)"><text font-size="14" transform="translate(14.2668 357)">2000</text></g><g clip-path="url(#clip23)"><text font-size="14" transform="translate(14.2668 299)">3000</text></g><g clip-path="url(#clip24)"><text font-size="14" transform="translate(14.2668 240)">4000</text></g><g clip-path="url(#clip25)"><text font-size="14" transform="translate(14.2668 182)">5000</text></g><g clip-path="url(#clip26)"><text font-size="14" transform="translate(14.2668 123)">6000</text></g><g clip-path="url(#clip27)"><text font-size="14" transform="translate(14.2668 64)">7000</text></g><g clip-path="url(#clip28)"><text font-size="14" transform="translate(69.5365 671)">January</text></g><g clip-path="url(#clip29)"><text font-size="14" transform="translate(134.125 671)">February</text></g><g clip-path="url(#clip30)"><text font-size="14" transform="translate(209.813 671)">March</text></g><g clip-path="url(#clip31)"><text font-size="14" transform="translate(283.021 671)">April</text></g><g clip-path="url(#clip32)"><text font-size="14" transform="translate(352.443 671)">May</text></g><g clip-path="url(#clip33)"><text font-size="14" transform="translate(419.791 671)">June</text></g><g clip-path="url(#clip34)"><text font-size="14" transform="translate(490.523 671)">July</text></g><g clip-path="url(#clip35)"><text font-size="14" transform="translate(548.358 671)">August</text></g><g clip-path="url(#clip36)"><text font-size="14" transform="translate(604.686 671)">September</text></g><g clip-path="url(#clip37)"><text font-size="14" transform="translate(681.458 671)">October</text></g><g clip-path="url(#clip38)"><text font-size="14" transform="translate(742.256 671)">November</text></g><g clip-path="url(#clip39)"><text font-size="14" transform="translate(811.341 671)">December</text></g><g clip-path="url(#clip40)"><text font-size="24" transform="translate(188.783 36)">Mortality in 2020 compared to previous 5</text></g><g clip-path="url(#clip41)"><text font-size="24" transform="translate(627.07 36)">-</text></g><g clip-path="url(#clip42)"><text font-size="24" transform="translate(636.67 36)">year average</text></g><g clip-path="url(#clip43)"><rect x="320.5" y="692.5" width="10" height="10" stroke="#000000" stroke-width="1.33333" stroke-linejoin="round" stroke-miterlimit="10" fill="#C00000"/></g><g clip-path="url(#clip44)"><text font-size="16" transform="translate(334.757 703)">Corona deaths</text></g><g clip-path="url(#clip45)"><rect x="458" y="693" width="10" height="9" fill="#636363"/></g><g clip-path="url(#clip46)"><text font-size="16" transform="translate(471.873 703)">5-year average</text></g><g clip-path="url(#clip47)"><rect x="597.5" y="692.5" width="9" height="10" stroke="#7F7F7F" stroke-width="1.33333" stroke-linejoin="round" stroke-miterlimit="10" fill="#F4B183"/></g><g clip-path="url(#clip48)"><text font-size="16" transform="translate(610.889 703)">2020</text></g></g></svg>