<svg version="1.1" id="Layer_1" xmlns="http://www.w3.org/2000/svg" xmlns:xlink="http://www.w3.org/1999/xlink" x="0px" y="0px" viewBox="0 0 350 212.2" style="enable-background:new 0 0 350 212.2;" xml:space="preserve">
<style type="text/css">
	.st0{fill:none;stroke:#231F20;stroke-width:0.3299;}
	.st1{fill:#231F20;}
	.st2{font-family:'Segoe UI','Helvetica Neue',sans-serif;}
	.st3{font-size:12px;}
	.st4{font-family:'Segoe UI','Helvetica Neue',sans-serif; font-weight:bold;}
	.st5{font-size:14px;}
	.st6{fill:#9D0B0F;}
	.st7{fill:#005E7F;}
	.st8{fill:#DF897C;}
	.st9{fill:#529DBA;}
	.st10{fill:#9CCDE4;}
	.st11{fill:none;stroke:#231F20;stroke-width:0.5498;}
	.st12{fill:none;stroke:#231F20;stroke-width:2.0208;}
	.st13{fill:none;stroke:#DF897C;stroke-width:2.0208;stroke-miterlimit:10;}
	.st14{fill:none;stroke:#529DBA;stroke-width:2.0208;stroke-miterlimit:10;}
	.st15{fill:none;stroke:#9CCDE4;stroke-width:2.0208;stroke-linecap:round;stroke-linejoin:round;}
	.st16{fill:none;stroke:#005E7F;stroke-width:2.0208;stroke-linecap:round;stroke-linejoin:round;}
	.st17{font-size:15px;}
	.st18{fill:none;stroke:#C4161C;stroke-width:2.0208;stroke-linecap:round;stroke-linejoin:round;}
</style>
<line class="st0" x1="88.7" y1="177.4" x2="88.7" y2="186.5"></line>
<line class="st0" x1="141.6" y1="177.4" x2="141.6" y2="186.5"></line>
<line class="st0" x1="193" y1="177.4" x2="193" y2="186.5"></line>
<line class="st0" x1="245.9" y1="177.4" x2="245.9" y2="186.5"></line>
<line class="st0" x1="297.2" y1="177.4" x2="297.2" y2="186.5"></line>
<g>
	<text transform="matrix(1 0 0 1 33.1544 181.3588)" class="st1 st2 st3">–50</text>
</g>
<g>
	<text transform="matrix(1 0 0 1 47.0114 155.1904)" class="st1 st2 st3">0</text>
</g>
<g>
	<text transform="matrix(1 0 0 1 40.5939 127.8456)" class="st1 st2 st3">50</text>
</g>
<text transform="matrix(1 0 0 1 34.1764 101.2055)" class="st1 st2 st3">100</text>
<text transform="matrix(1 0 0 1 34.1764 74.0956)" class="st1 st2 st3">150</text>
<text transform="matrix(1 0 0 1 34.1764 47.2221)" class="st1 st2 st3">200</text>
<g>
	<g>
		<text transform="matrix(1 0 0 1 64.4251 201.3301)" class="st1 st4 st5">1 March</text>
	</g>
</g>
<g>
	<g>
		<text transform="matrix(1 0 0 1 121.6239 201.3301)" class="st1 st4 st5">1 April</text>
	</g>
</g>
<g>
	<g>
		<text transform="matrix(1 0 0 1 174.8677 201.3301)" class="st1 st4 st5">1 May</text>
	</g>
</g>
<g>
	<g>
		<text transform="matrix(1 0 0 1 225.7674 201.3301)" class="st1 st4 st5">1 June</text>
	</g>
</g>
<g>
	<g>
		<text transform="matrix(1 0 0 1 279.0587 201.3301)" class="st1 st4 st5">1 July</text>
	</g>
</g>
<g>
	<text transform="matrix(1 0 0 1 119.2285 20.4102)" class="st1 st2 st3">Sweden</text>
	<circle class="st6" cx="110.4" cy="14.5" r="5"></circle>
</g>
<g>
	<text transform="matrix(1 0 0 1 179.5762 20.4102)" class="st1 st2 st3">Norway</text>
	<circle class="st7" cx="170.8" cy="14.5" r="5"></circle>
</g>
<g>
	<g>
		<text transform="matrix(1 0 0 1 13.958 20.4102)" class="st1 st2 st3">England &amp; Wales</text>
	</g>
	<circle class="st8" cx="6" cy="14.5" r="5"></circle>
</g>
<g>
	<text transform="matrix(1 0 0 1 238.459 20.4102)" class="st1 st2 st3">Germany</text>
	<circle class="st9" cx="229.7" cy="14.5" r="5"></circle>
</g>
<g>
	<text transform="matrix(1 0 0 1 304.1455 20.4102)" class="st1 st2 st3">Denmark</text>
	<circle class="st10" cx="295.3" cy="14.5" r="5"></circle>
</g>
<line class="st11" x1="56.7" y1="177.4" x2="345.8" y2="177.4"></line>
<line class="st12" x1="56.7" y1="150.5" x2="345.8" y2="150.5"></line>
<line class="st11" x1="56.7" y1="123.6" x2="345.8" y2="123.6"></line>
<line class="st11" x1="56.7" y1="96.7" x2="345.8" y2="96.7"></line>
<line class="st11" x1="56.7" y1="69.8" x2="345.8" y2="69.8"></line>
<line class="st0" x1="56.7" y1="43" x2="345.8" y2="43"></line>
<path class="st13" d="M64.5,156.7l11.9,0.2l11.9-3.1l11.9,2.1l11.8-3.7l11.9-2.4l11.9-8.5L148,95.5L160,78.3l11.9-34.9l11.9,2.8
	L196,78l11.9,44.7l11.9-11.7l11.9,18.4l11.9,6.3l11.9,8.3l11.9,1.5l11.9,5.7l11.9,2.3l11.9-2.5l11.9,4.6l11.9-2.6l11.9-0.9"></path>
<path class="st14" d="M64.5,157l11.9,6.6l11.9,0.1l11.9-2.6l11.8-7l11.9-4.7l11.9-3.8l11.9-9.1l11.9-2.8l11.9,5.8l11.9,3.8l11.9,1.3
	l11.9,4l11.9,1.3l11.9-3l11.9,4l11.9-5.4l11.9,1.3l11.9,5l11.9-5.6l11.9,4.7l11.9-0.6l11.9,2.5l11.9,2.7"></path>
<path class="st15" d="M64.5,160.7l11.9,1.1l11.9,3.6l11.9-4.7l11.8-1.4l11.9-10.3l11.9-0.7l11.9-6.8l11.9,2.3l11.9,2.1l11.9-4.6
	l11.9,8.4l11.9-0.2l11.9,3.3l11.9-4.6l11.9,2.8l11.9,0.7l11.9-3.3l11.9,4.3l11.9-6.4l11.9-0.7l11.9,3.7l11.9-5l11.9,9.8"></path>
<path class="st16" d="M64.5,152.4l11.9,3.6l11.9-1.5l11.9,3l11.8-6.6l12,0.7l11.9-8.4l11.9,4.1l11.9-2.1l11.9,0.6L184,151l11.9-1.5
	l11.9,0.6l11.9,4.4l11.9-4.7l11.9,6l11.9-1.5l11.9-4.1l11.9-0.9l11.9,6.6l11.9,0.4l11.9-0.4l11.9-7.7l11.9,1.9"></path>
<g>
	<text transform="matrix(0 -1 1 0 15.1314 191.1583)" class="st1 st4 st17">Excess deaths per milion </text>
</g>
<path class="st18" d="M64.5,156l11.9,6l11.9-0.8l11.9-5.9l11.8,4.4l11.9-12.7l11.9-8.2l11.9-19.3l11.9-13l11.9,3.1l11.9,10.3
	l11.9-0.9l11.9,2.4l11.9,7l11.9,3.2l11.9,14l11.9-6.4l11.9,0.8l11.9,3.4l11.9,1.2l11.9,6.8l11.9-1.1l11.9,3.4l11.9-1.8"></path>
</svg>