<svg xmlns="http://www.w3.org/2000/svg" version="1.1" style="font-family:&#x27;Segoe UI&#x27;, sans-serif;font-size:18px;background-color:white;" viewBox="0 0 850 600"><g class="HeaderView"><g transform="translate(774, 15) scale(0.29)"><svg className="owidLog" width="210" height="120" viewBox="0 0 210 120" fill="none" xmlns="http://www.w3.org/2000/svg">
<g clip-path="url(#clip0)">
  <path d="M0 0h210v107.89H0V0z" fill="#002147" />
  <path
    d="M40.98 32.25c0 2.36-.38 4.53-1.12 6.51a14.26 14.26 0 0 1-8.1 8.4c-1.9.78-4.02 1.17-6.34 1.17-2.31 0-4.42-.39-6.33-1.17a14.31 14.31 0 0 1-8.08-8.4 18.29 18.29 0 0 1-1.12-6.51c0-2.36.38-4.53 1.12-6.5.75-1.97 1.8-3.67 3.17-5.1a14.32 14.32 0 0 1 4.9-3.34c1.92-.8 4.03-1.19 6.34-1.19 2.32 0 4.43.4 6.34 1.19 1.92.8 3.56 1.9 4.93 3.34a14.87 14.87 0 0 1 3.17 5.1 18.1 18.1 0 0 1 1.12 6.5zm-4.38 0c0-1.94-.26-3.68-.8-5.22a10.91 10.91 0 0 0-2.24-3.89 9.68 9.68 0 0 0-3.52-2.46 11.95 11.95 0 0 0-4.62-.86c-1.68 0-3.21.28-4.6.86a9.88 9.88 0 0 0-3.54 2.46 10.91 10.91 0 0 0-2.24 3.9c-.53 1.53-.8 3.27-.8 5.2 0 1.94.27 3.68.8 5.22a11.17 11.17 0 0 0 2.24 3.9 10.01 10.01 0 0 0 3.55 2.44c1.38.56 2.9.83 4.6.83s3.24-.27 4.61-.83a9.8 9.8 0 0 0 3.52-2.44 11.17 11.17 0 0 0 2.25-3.9c.53-1.54.8-3.28.8-5.21zm26.22-6.54V48H60.5c-.56 0-.9-.27-1.05-.81l-.31-2.4a12.45 12.45 0 0 1-3.26 2.6c-1.2.64-2.58.96-4.13.96-1.22 0-2.3-.2-3.24-.6a6.52 6.52 0 0 1-2.33-1.7 7.37 7.37 0 0 1-1.43-2.67c-.3-1.04-.46-2.2-.46-3.45V25.7h3.91v14.22c0 1.68.38 2.99 1.15 3.91.77.93 1.96 1.39 3.54 1.39 1.16 0 2.24-.27 3.23-.82a10.42 10.42 0 0 0 2.8-2.28V25.7h3.91zm8.61 4.47a9.94 9.94 0 0 1 2.6-3.56 5.64 5.64 0 0 1 3.76-1.3c.47 0 .92.05 1.34.15.44.1.83.27 1.17.49l-.3 2.92c-.09.37-.3.55-.66.55-.2 0-.5-.04-.9-.13a6.21 6.21 0 0 0-3.24.18 4.23 4.23 0 0 0-1.47.92c-.42.4-.81.9-1.17 1.5-.33.58-.64 1.26-.92 2.02V48H67.7V25.71h2.25c.42 0 .72.08.88.25.16.16.27.44.33.83l.26 3.39zm61.16-13.7L122.75 48h-3.82l-7.99-24.05a21.95 21.95 0 0 1-.42-1.58 38.36 38.36 0 0 1-.44 1.58L102.05 48h-3.83L88.4 16.47h3.54c.38 0 .7.1.95.29.26.2.43.43.5.73l6.52 21.9.28 1.28.29 1.46.3-1.46.38-1.27 7.41-21.91c.1-.25.26-.48.51-.69.27-.22.58-.33.95-.33h1.23c.38 0 .69.1.92.29a1.77 1.77 0 0 1 .53.73l7.4 21.9a28.4 28.4 0 0 1 .68 2.62 29.52 29.52 0 0 1 .52-2.61l6.54-21.91a1.31 1.31 0 0 1 .48-.7c.27-.21.58-.32.95-.32h3.32zm9.35 8.88c1.63 0 3.1.27 4.4.82a9.43 9.43 0 0 1 5.46 5.94c.5 1.4.74 2.98.74 4.73 0 1.76-.25 3.34-.74 4.75a9.43 9.43 0 0 1-5.46 5.92c-1.3.52-2.77.79-4.4.79-1.64 0-3.12-.27-4.44-.8a9.42 9.42 0 0 1-3.35-2.3c-.92-1-1.63-2.2-2.13-3.61-.49-1.41-.73-3-.73-4.75s.24-3.33.73-4.73c.5-1.43 1.2-2.64 2.13-3.63.93-1 2.04-1.77 3.35-2.31 1.32-.55 2.8-.82 4.44-.82zm0 19.89c2.2 0 3.84-.73 4.93-2.2 1.08-1.48 1.63-3.54 1.63-6.18 0-2.66-.55-4.72-1.63-6.2-1.09-1.49-2.73-2.23-4.93-2.23-1.12 0-2.09.2-2.93.57a5.71 5.71 0 0 0-2.06 1.65c-.55.72-.96 1.61-1.24 2.67-.26 1.04-.4 2.22-.4 3.54 0 2.64.55 4.7 1.64 6.18 1.1 1.47 2.76 2.2 4.99 2.2zm17.97-15.07a9.94 9.94 0 0 1 2.6-3.56 5.64 5.64 0 0 1 3.76-1.3c.47 0 .91.05 1.34.15.44.1.83.27 1.16.49l-.28 2.92c-.09.37-.31.55-.66.55-.2 0-.5-.04-.9-.13a6.2 6.2 0 0 0-3.24.18 4.23 4.23 0 0 0-1.47.92c-.43.4-.82.9-1.17 1.5a13.1 13.1 0 0 0-.92 2.02V48h-3.94V25.71h2.24c.43 0 .72.08.88.25.17.16.28.44.33.83l.27 3.39zm15.04-14.59V48h-3.92V15.6h3.92zm19.55 15.43a6.22 6.22 0 0 0-2.38-2.05 6.7 6.7 0 0 0-2.86-.6c-2.07 0-3.66.75-4.77 2.23-1.12 1.48-1.68 3.6-1.68 6.33 0 1.46.13 2.7.38 3.74a7.29 7.29 0 0 0 1.1 2.56 4.35 4.35 0 0 0 1.78 1.45c.7.3 1.5.46 2.4.46 1.29 0 2.41-.3 3.36-.88a9.6 9.6 0 0 0 2.67-2.49V31.02zm3.91-15.43V48h-2.33c-.56 0-.9-.27-1.06-.81l-.35-2.71a12.13 12.13 0 0 1-3.25 2.77 8.28 8.28 0 0 1-4.23 1.06 7.31 7.31 0 0 1-6.14-2.9c-.73-.96-1.3-2.15-1.69-3.57a18.35 18.35 0 0 1 .07-9.48 11.29 11.29 0 0 1 1.89-3.7 8.7 8.7 0 0 1 7.06-3.34 7.96 7.96 0 0 1 6.12 2.62V15.59h3.91zM46.61 70.71V93H42.7V70.71h3.91zm.84-7c0 .39-.08.75-.24 1.09-.15.32-.35.61-.62.88-.25.25-.55.44-.9.59a2.67 2.67 0 0 1-2.16 0 2.9 2.9 0 0 1-1.45-1.47 2.67 2.67 0 0 1 0-2.16c.15-.35.35-.65.6-.9.25-.27.53-.47.85-.62a2.67 2.67 0 0 1 2.16 0c.35.15.65.35.9.62.27.25.47.55.62.9.16.34.24.7.24 1.08zm7.97 10.24c.49-.54 1-1.04 1.54-1.48a9.85 9.85 0 0 1 3.66-1.84 8.96 8.96 0 0 1 5.43.35c.94.4 1.72.97 2.33 1.71.63.74 1.11 1.62 1.43 2.67.32 1.04.49 2.19.49 3.45V93h-3.94V78.81c0-1.69-.4-3-1.17-3.92-.76-.93-1.93-1.4-3.5-1.4-1.15 0-2.24.27-3.25.83-1 .56-1.92 1.31-2.77 2.27V93h-3.94V70.71h2.35c.56 0 .9.28 1.04.82l.3 2.42zm57.7 3.3c0 2.36-.37 4.5-1.11 6.44a14.3 14.3 0 0 1-3.17 4.98c-1.37 1.37-3 2.45-4.93 3.2-1.9.76-4.02 1.13-6.33 1.13H85.8V61.47h11.77c2.31 0 4.42.39 6.33 1.15a13.8 13.8 0 0 1 8.1 8.18 17.75 17.75 0 0 1 1.12 6.45zm-4.37 0c0-1.94-.26-3.67-.8-5.2a10.94 10.94 0 0 0-2.23-3.87 9.57 9.57 0 0 0-3.53-2.42 12.23 12.23 0 0 0-4.61-.83h-7.5v24.62h7.5c1.7 0 3.24-.28 4.61-.84a9.7 9.7 0 0 0 3.53-2.4 10.94 10.94 0 0 0 2.24-3.87c.53-1.53.8-3.26.8-5.2zm19.8 5.72c-1.8.06-3.34.2-4.62.44-1.26.22-2.3.51-3.1.88-.8.36-1.37.8-1.74 1.3-.35.5-.53 1.05-.53 1.67 0 .58.1 1.1.3 1.52a3 3 0 0 0 .76 1.05c.34.27.73.46 1.17.6a6.13 6.13 0 0 0 1.45.17 7.28 7.28 0 0 0 3.5-.81 11.95 11.95 0 0 0 2.82-2.2v-4.62zm-12.65-9.11a12.73 12.73 0 0 1 3.98-2.66c1.43-.59 3-.88 4.73-.88 1.25 0 2.36.2 3.33.61a6.81 6.81 0 0 1 3.94 4.38c.33 1.04.5 2.19.5 3.43V93h-1.74a1.8 1.8 0 0 1-.88-.18c-.2-.13-.36-.38-.48-.74l-.44-2.12-1.72 1.46a9.48 9.48 0 0 1-3.74 1.7c-.69.15-1.46.23-2.3.23-.87 0-1.69-.12-2.45-.35a5.34 5.34 0 0 1-3.34-2.93 6.64 6.64 0 0 1-.49-2.64c0-.88.25-1.72.73-2.53a6.33 6.33 0 0 1 2.35-2.17c1.09-.63 2.5-1.15 4.25-1.54 1.75-.41 3.89-.65 6.42-.7v-1.75c0-1.73-.37-3.03-1.12-3.91-.75-.9-1.84-1.34-3.28-1.34-.97 0-1.78.12-2.44.37-.64.23-1.2.5-1.7.81l-1.23.82c-.33.23-.67.35-1 .35-.27 0-.5-.07-.69-.2a2.1 2.1 0 0 1-.48-.53l-.7-1.25zm27.67 19.5c-1.76 0-3.12-.5-4.07-1.48-.94-.98-1.41-2.4-1.41-4.25V74h-2.68a.9.9 0 0 1-.6-.2c-.16-.14-.24-.36-.24-.66v-1.56l3.65-.46.9-6.89c.05-.22.14-.4.29-.52a.88.88 0 0 1 .62-.22H142v7.67h6.44V74H142v13.38c0 .94.22 1.63.68 2.09.45.45 1.04.68 1.76.68a3.21 3.21 0 0 0 1.85-.53l.55-.35c.16-.12.3-.18.41-.18.2 0 .4.13.55.38l1.15 1.87a7.45 7.45 0 0 1-2.44 1.5 8.53 8.53 0 0 1-2.95.52zm19.68-10.4c-1.8.07-3.34.21-4.62.45-1.26.22-2.3.51-3.1.88-.8.36-1.37.8-1.74 1.3-.35.5-.53 1.05-.53 1.67 0 .58.1 1.1.3 1.52a2.9 2.9 0 0 0 .76 1.05c.34.27.73.46 1.17.6a6.13 6.13 0 0 0 1.45.17 7.3 7.3 0 0 0 3.5-.81 12.04 12.04 0 0 0 2.82-2.2v-4.62zm-12.65-9.1a12.72 12.72 0 0 1 3.99-2.66c1.42-.59 3-.88 4.72-.88 1.25 0 2.36.2 3.33.61a6.81 6.81 0 0 1 3.94 4.38c.33 1.04.5 2.19.5 3.43V93h-1.74a1.8 1.8 0 0 1-.88-.18c-.2-.13-.36-.38-.48-.74l-.44-2.12-1.72 1.46a9.48 9.48 0 0 1-3.74 1.7c-.69.15-1.46.23-2.3.23-.87 0-1.69-.12-2.45-.35a5.33 5.33 0 0 1-3.34-2.93 6.62 6.62 0 0 1-.49-2.64c0-.88.25-1.72.73-2.53a6.33 6.33 0 0 1 2.35-2.17c1.09-.63 2.5-1.15 4.25-1.54 1.74-.41 3.89-.65 6.42-.7v-1.75c0-1.73-.37-3.03-1.12-3.91-.75-.9-1.84-1.34-3.28-1.34-.97 0-1.78.12-2.44.37-.64.23-1.2.5-1.7.81l-1.22.82c-.34.23-.68.35-1.02.35-.26 0-.49-.07-.68-.2a1.88 1.88 0 0 1-.48-.53l-.7-1.25zM40.98 32.25c0 2.36-.38 4.53-1.12 6.51a14.26 14.26 0 0 1-8.1 8.4c-1.9.78-4.02 1.17-6.34 1.17-2.31 0-4.42-.39-6.33-1.17a14.31 14.31 0 0 1-8.08-8.4 18.29 18.29 0 0 1-1.12-6.51c0-2.36.38-4.53 1.12-6.5.75-1.97 1.8-3.67 3.17-5.1a14.32 14.32 0 0 1 4.9-3.34c1.92-.8 4.03-1.19 6.34-1.19 2.32 0 4.43.4 6.34 1.19 1.92.8 3.56 1.9 4.93 3.34a14.87 14.87 0 0 1 3.17 5.1 18.1 18.1 0 0 1 1.12 6.5zm-4.38 0c0-1.94-.26-3.68-.8-5.22a10.91 10.91 0 0 0-2.24-3.89 9.68 9.68 0 0 0-3.52-2.46 11.95 11.95 0 0 0-4.62-.86c-1.68 0-3.21.28-4.6.86a9.88 9.88 0 0 0-3.54 2.46 10.91 10.91 0 0 0-2.24 3.9c-.53 1.53-.8 3.27-.8 5.2 0 1.94.27 3.68.8 5.22a11.17 11.17 0 0 0 2.24 3.9 10.01 10.01 0 0 0 3.55 2.44c1.38.56 2.9.83 4.6.83s3.24-.27 4.61-.83a9.8 9.8 0 0 0 3.52-2.44 11.17 11.17 0 0 0 2.25-3.9c.53-1.54.8-3.28.8-5.21zm26.22-6.54V48H60.5c-.56 0-.9-.27-1.05-.81l-.31-2.4a12.45 12.45 0 0 1-3.26 2.6c-1.2.64-2.58.96-4.13.96-1.22 0-2.3-.2-3.24-.6a6.52 6.52 0 0 1-2.33-1.7 7.37 7.37 0 0 1-1.43-2.67c-.3-1.04-.46-2.2-.46-3.45V25.7h3.91v14.22c0 1.68.38 2.99 1.15 3.91.77.93 1.96 1.39 3.54 1.39 1.16 0 2.24-.27 3.23-.82a10.42 10.42 0 0 0 2.8-2.28V25.7h3.91zm8.61 4.47a9.94 9.94 0 0 1 2.6-3.56 5.64 5.64 0 0 1 3.76-1.3c.47 0 .92.05 1.34.15.44.1.83.27 1.17.49l-.3 2.92c-.09.37-.3.55-.66.55-.2 0-.5-.04-.9-.13a6.21 6.21 0 0 0-3.24.18 4.23 4.23 0 0 0-1.47.92c-.42.4-.81.9-1.17 1.5-.33.58-.64 1.26-.92 2.02V48H67.7V25.71h2.25c.42 0 .72.08.88.25.16.16.27.44.33.83l.26 3.39zm61.16-13.7L122.75 48h-3.82l-7.99-24.05a21.95 21.95 0 0 1-.42-1.58 38.36 38.36 0 0 1-.44 1.58L102.05 48h-3.83L88.4 16.47h3.54c.38 0 .7.1.95.29.26.2.43.43.5.73l6.52 21.9.28 1.28.29 1.46.3-1.46.38-1.27 7.41-21.91c.1-.25.26-.48.51-.69.27-.22.58-.33.95-.33h1.23c.38 0 .69.1.92.29a1.77 1.77 0 0 1 .53.73l7.4 21.9a28.4 28.4 0 0 1 .68 2.62 29.52 29.52 0 0 1 .52-2.61l6.54-21.91a1.31 1.31 0 0 1 .48-.7c.27-.21.58-.32.95-.32h3.32zm9.35 8.88c1.63 0 3.1.27 4.4.82a9.43 9.43 0 0 1 5.46 5.94c.5 1.4.74 2.98.74 4.73 0 1.76-.25 3.34-.74 4.75a9.43 9.43 0 0 1-5.46 5.92c-1.3.52-2.77.79-4.4.79-1.64 0-3.12-.27-4.44-.8a9.42 9.42 0 0 1-3.35-2.3c-.92-1-1.63-2.2-2.13-3.61-.49-1.41-.73-3-.73-4.75s.24-3.33.73-4.73c.5-1.43 1.2-2.64 2.13-3.63.93-1 2.04-1.77 3.35-2.31 1.32-.55 2.8-.82 4.44-.82zm0 19.89c2.2 0 3.84-.73 4.93-2.2 1.08-1.48 1.63-3.54 1.63-6.18 0-2.66-.55-4.72-1.63-6.2-1.09-1.49-2.73-2.23-4.93-2.23-1.12 0-2.09.2-2.93.57a5.71 5.71 0 0 0-2.06 1.65c-.55.72-.96 1.61-1.24 2.67-.26 1.04-.4 2.22-.4 3.54 0 2.64.55 4.7 1.64 6.18 1.1 1.47 2.76 2.2 4.99 2.2zm17.97-15.07a9.94 9.94 0 0 1 2.6-3.56 5.64 5.64 0 0 1 3.76-1.3c.47 0 .91.05 1.34.15.44.1.83.27 1.16.49l-.28 2.92c-.09.37-.31.55-.66.55-.2 0-.5-.04-.9-.13a6.2 6.2 0 0 0-3.24.18 4.23 4.23 0 0 0-1.47.92c-.43.4-.82.9-1.17 1.5a13.1 13.1 0 0 0-.92 2.02V48h-3.94V25.71h2.24c.43 0 .72.08.88.25.17.16.28.44.33.83l.27 3.39zm15.04-14.59V48h-3.92V15.6h3.92zm19.55 15.43a6.22 6.22 0 0 0-2.38-2.05 6.7 6.7 0 0 0-2.86-.6c-2.07 0-3.66.75-4.77 2.23-1.12 1.48-1.68 3.6-1.68 6.33 0 1.46.13 2.7.38 3.74a7.29 7.29 0 0 0 1.1 2.56 4.35 4.35 0 0 0 1.78 1.45c.7.3 1.5.46 2.4.46 1.29 0 2.41-.3 3.36-.88a9.6 9.6 0 0 0 2.67-2.49V31.02zm3.91-15.43V48h-2.33c-.56 0-.9-.27-1.06-.81l-.35-2.71a12.13 12.13 0 0 1-3.25 2.77 8.28 8.28 0 0 1-4.23 1.06 7.31 7.31 0 0 1-6.14-2.9c-.73-.96-1.3-2.15-1.69-3.57a18.35 18.35 0 0 1 .07-9.48 11.29 11.29 0 0 1 1.89-3.7 8.7 8.7 0 0 1 7.06-3.34 7.96 7.96 0 0 1 6.12 2.62V15.59h3.91zM46.61 70.71V93H42.7V70.71h3.91zm.84-7c0 .39-.08.75-.24 1.09-.15.32-.35.61-.62.88-.25.25-.55.44-.9.59a2.67 2.67 0 0 1-2.16 0 2.9 2.9 0 0 1-1.45-1.47 2.67 2.67 0 0 1 0-2.16c.15-.35.35-.65.6-.9.25-.27.53-.47.85-.62a2.67 2.67 0 0 1 2.16 0c.35.15.65.35.9.62.27.25.47.55.62.9.16.34.24.7.24 1.08zm7.97 10.24c.49-.54 1-1.04 1.54-1.48a9.85 9.85 0 0 1 3.66-1.84 8.96 8.96 0 0 1 5.43.35c.94.4 1.72.97 2.33 1.71.63.74 1.11 1.62 1.43 2.67.32 1.04.49 2.19.49 3.45V93h-3.94V78.81c0-1.69-.4-3-1.17-3.92-.76-.93-1.93-1.4-3.5-1.4-1.15 0-2.24.27-3.25.83-1 .56-1.92 1.31-2.77 2.27V93h-3.94V70.71h2.35c.56 0 .9.28 1.04.82l.3 2.42zm57.7 3.3c0 2.36-.37 4.5-1.11 6.44a14.3 14.3 0 0 1-3.17 4.98c-1.37 1.37-3 2.45-4.93 3.2-1.9.76-4.02 1.13-6.33 1.13H85.8V61.47h11.77c2.31 0 4.42.39 6.33 1.15a13.8 13.8 0 0 1 8.1 8.18 17.75 17.75 0 0 1 1.12 6.45zm-4.37 0c0-1.94-.26-3.67-.8-5.2a10.94 10.94 0 0 0-2.23-3.87 9.57 9.57 0 0 0-3.53-2.42 12.23 12.23 0 0 0-4.61-.83h-7.5v24.62h7.5c1.7 0 3.24-.28 4.61-.84a9.7 9.7 0 0 0 3.53-2.4 10.94 10.94 0 0 0 2.24-3.87c.53-1.53.8-3.26.8-5.2zm19.8 5.72c-1.8.06-3.34.2-4.62.44-1.26.22-2.3.51-3.1.88-.8.36-1.37.8-1.74 1.3-.35.5-.53 1.05-.53 1.67 0 .58.1 1.1.3 1.52a3 3 0 0 0 .76 1.05c.34.27.73.46 1.17.6a6.13 6.13 0 0 0 1.45.17 7.28 7.28 0 0 0 3.5-.81 11.95 11.95 0 0 0 2.82-2.2v-4.62zm-12.65-9.11a12.73 12.73 0 0 1 3.98-2.66c1.43-.59 3-.88 4.73-.88 1.25 0 2.36.2 3.33.61a6.81 6.81 0 0 1 3.94 4.38c.33 1.04.5 2.19.5 3.43V93h-1.74a1.8 1.8 0 0 1-.88-.18c-.2-.13-.36-.38-.48-.74l-.44-2.12-1.72 1.46a9.48 9.48 0 0 1-3.74 1.7c-.69.15-1.46.23-2.3.23-.87 0-1.69-.12-2.45-.35a5.34 5.34 0 0 1-3.34-2.93 6.64 6.64 0 0 1-.49-2.64c0-.88.25-1.72.73-2.53a6.33 6.33 0 0 1 2.35-2.17c1.09-.63 2.5-1.15 4.25-1.54 1.75-.41 3.89-.65 6.42-.7v-1.75c0-1.73-.37-3.03-1.12-3.91-.75-.9-1.84-1.34-3.28-1.34-.97 0-1.78.12-2.44.37-.64.23-1.2.5-1.7.81l-1.23.82c-.33.23-.67.35-1 .35-.27 0-.5-.07-.69-.2a2.1 2.1 0 0 1-.48-.53l-.7-1.25zm27.67 19.5c-1.76 0-3.12-.5-4.07-1.48-.94-.98-1.41-2.4-1.41-4.25V74h-2.68a.9.9 0 0 1-.6-.2c-.16-.14-.24-.36-.24-.66v-1.56l3.65-.46.9-6.89c.05-.22.14-.4.29-.52a.88.88 0 0 1 .62-.22H142v7.67h6.44V74H142v13.38c0 .94.22 1.63.68 2.09.45.45 1.04.68 1.76.68a3.21 3.21 0 0 0 1.85-.53l.55-.35c.16-.12.3-.18.41-.18.2 0 .4.13.55.38l1.15 1.87a7.45 7.45 0 0 1-2.44 1.5 8.53 8.53 0 0 1-2.95.52zm19.68-10.4c-1.8.07-3.34.21-4.62.45-1.26.22-2.3.51-3.1.88-.8.36-1.37.8-1.74 1.3-.35.5-.53 1.05-.53 1.67 0 .58.1 1.1.3 1.52a2.9 2.9 0 0 0 .76 1.05c.34.27.73.46 1.17.6a6.13 6.13 0 0 0 1.45.17 7.3 7.3 0 0 0 3.5-.81 12.04 12.04 0 0 0 2.82-2.2v-4.62zm-12.65-9.1a12.72 12.72 0 0 1 3.99-2.66c1.42-.59 3-.88 4.72-.88 1.25 0 2.36.2 3.33.61a6.81 6.81 0 0 1 3.94 4.38c.33 1.04.5 2.19.5 3.43V93h-1.74a1.8 1.8 0 0 1-.88-.18c-.2-.13-.36-.38-.48-.74l-.44-2.12-1.72 1.46a9.48 9.48 0 0 1-3.74 1.7c-.69.15-1.46.23-2.3.23-.87 0-1.69-.12-2.45-.35a5.33 5.33 0 0 1-3.34-2.93 6.62 6.62 0 0 1-.49-2.64c0-.88.25-1.72.73-2.53a6.33 6.33 0 0 1 2.35-2.17c1.09-.63 2.5-1.15 4.25-1.54 1.74-.41 3.89-.65 6.42-.7v-1.75c0-1.73-.37-3.03-1.12-3.91-.75-.9-1.84-1.34-3.28-1.34-.97 0-1.78.12-2.44.37-.64.23-1.2.5-1.7.81l-1.22.82c-.34.23-.68.35-1.02.35-.26 0-.49-.07-.68-.2a1.88 1.88 0 0 1-.48-.53l-.7-1.25zM40.98 32.25c0 2.36-.38 4.53-1.12 6.51a14.26 14.26 0 0 1-8.1 8.4c-1.9.78-4.02 1.17-6.34 1.17-2.31 0-4.42-.39-6.33-1.17a14.31 14.31 0 0 1-8.08-8.4 18.29 18.29 0 0 1-1.12-6.51c0-2.36.38-4.53 1.12-6.5.75-1.97 1.8-3.67 3.17-5.1a14.32 14.32 0 0 1 4.9-3.34c1.92-.8 4.03-1.19 6.34-1.19 2.32 0 4.43.4 6.34 1.19 1.92.8 3.56 1.9 4.93 3.34a14.87 14.87 0 0 1 3.17 5.1 18.1 18.1 0 0 1 1.12 6.5zm-4.38 0c0-1.94-.26-3.68-.8-5.22a10.91 10.91 0 0 0-2.24-3.89 9.68 9.68 0 0 0-3.52-2.46 11.95 11.95 0 0 0-4.62-.86c-1.68 0-3.21.28-4.6.86a9.88 9.88 0 0 0-3.54 2.46 10.91 10.91 0 0 0-2.24 3.9c-.53 1.53-.8 3.27-.8 5.2 0 1.94.27 3.68.8 5.22a11.17 11.17 0 0 0 2.24 3.9 10.01 10.01 0 0 0 3.55 2.44c1.38.56 2.9.83 4.6.83s3.24-.27 4.61-.83a9.8 9.8 0 0 0 3.52-2.44 11.17 11.17 0 0 0 2.25-3.9c.53-1.54.8-3.28.8-5.21zm26.22-6.54V48H60.5c-.56 0-.9-.27-1.05-.81l-.31-2.4a12.45 12.45 0 0 1-3.26 2.6c-1.2.64-2.58.96-4.13.96-1.22 0-2.3-.2-3.24-.6a6.52 6.52 0 0 1-2.33-1.7 7.37 7.37 0 0 1-1.43-2.67c-.3-1.04-.46-2.2-.46-3.45V25.7h3.91v14.22c0 1.68.38 2.99 1.15 3.91.77.93 1.96 1.39 3.54 1.39 1.16 0 2.24-.27 3.23-.82a10.42 10.42 0 0 0 2.8-2.28V25.7h3.91zm8.61 4.47a9.94 9.94 0 0 1 2.6-3.56 5.64 5.64 0 0 1 3.76-1.3c.47 0 .92.05 1.34.15.44.1.83.27 1.17.49l-.3 2.92c-.09.37-.3.55-.66.55-.2 0-.5-.04-.9-.13a6.21 6.21 0 0 0-3.24.18 4.23 4.23 0 0 0-1.47.92c-.42.4-.81.9-1.17 1.5-.33.58-.64 1.26-.92 2.02V48H67.7V25.71h2.25c.42 0 .72.08.88.25.16.16.27.44.33.83l.26 3.39zm61.16-13.7L122.75 48h-3.82l-7.99-24.05a21.95 21.95 0 0 1-.42-1.58 38.36 38.36 0 0 1-.44 1.58L102.05 48h-3.83L88.4 16.47h3.54c.38 0 .7.1.95.29.26.2.43.43.5.73l6.52 21.9.28 1.28.29 1.46.3-1.46.38-1.27 7.41-21.91c.1-.25.26-.48.51-.69.27-.22.58-.33.95-.33h1.23c.38 0 .69.1.92.29a1.77 1.77 0 0 1 .53.73l7.4 21.9a28.4 28.4 0 0 1 .68 2.62 29.52 29.52 0 0 1 .52-2.61l6.54-21.91a1.31 1.31 0 0 1 .48-.7c.27-.21.58-.32.95-.32h3.32zm9.35 8.88c1.63 0 3.1.27 4.4.82a9.43 9.43 0 0 1 5.46 5.94c.5 1.4.74 2.98.74 4.73 0 1.76-.25 3.34-.74 4.75a9.43 9.43 0 0 1-5.46 5.92c-1.3.52-2.77.79-4.4.79-1.64 0-3.12-.27-4.44-.8a9.42 9.42 0 0 1-3.35-2.3c-.92-1-1.63-2.2-2.13-3.61-.49-1.41-.73-3-.73-4.75s.24-3.33.73-4.73c.5-1.43 1.2-2.64 2.13-3.63.93-1 2.04-1.77 3.35-2.31 1.32-.55 2.8-.82 4.44-.82zm0 19.89c2.2 0 3.84-.73 4.93-2.2 1.08-1.48 1.63-3.54 1.63-6.18 0-2.66-.55-4.72-1.63-6.2-1.09-1.49-2.73-2.23-4.93-2.23-1.12 0-2.09.2-2.93.57a5.71 5.71 0 0 0-2.06 1.65c-.55.72-.96 1.61-1.24 2.67-.26 1.04-.4 2.22-.4 3.54 0 2.64.55 4.7 1.64 6.18 1.1 1.47 2.76 2.2 4.99 2.2zm17.97-15.07a9.94 9.94 0 0 1 2.6-3.56 5.64 5.64 0 0 1 3.76-1.3c.47 0 .91.05 1.34.15.44.1.83.27 1.16.49l-.28 2.92c-.09.37-.31.55-.66.55-.2 0-.5-.04-.9-.13a6.2 6.2 0 0 0-3.24.18 4.23 4.23 0 0 0-1.47.92c-.43.4-.82.9-1.17 1.5a13.1 13.1 0 0 0-.92 2.02V48h-3.94V25.71h2.24c.43 0 .72.08.88.25.17.16.28.44.33.83l.27 3.39zm15.04-14.59V48h-3.92V15.6h3.92zm19.55 15.43a6.22 6.22 0 0 0-2.38-2.05 6.7 6.7 0 0 0-2.86-.6c-2.07 0-3.66.75-4.77 2.23-1.12 1.48-1.68 3.6-1.68 6.33 0 1.46.13 2.7.38 3.74a7.29 7.29 0 0 0 1.1 2.56 4.35 4.35 0 0 0 1.78 1.45c.7.3 1.5.46 2.4.46 1.29 0 2.41-.3 3.36-.88a9.6 9.6 0 0 0 2.67-2.49V31.02zm3.91-15.43V48h-2.33c-.56 0-.9-.27-1.06-.81l-.35-2.71a12.13 12.13 0 0 1-3.25 2.77 8.28 8.28 0 0 1-4.23 1.06 7.31 7.31 0 0 1-6.14-2.9c-.73-.96-1.3-2.15-1.69-3.57a18.35 18.35 0 0 1 .07-9.48 11.29 11.29 0 0 1 1.89-3.7 8.7 8.7 0 0 1 7.06-3.34 7.96 7.96 0 0 1 6.12 2.62V15.59h3.91zM46.61 70.71V93H42.7V70.71h3.91zm.84-7c0 .39-.08.75-.24 1.09-.15.32-.35.61-.62.88-.25.25-.55.44-.9.59a2.67 2.67 0 0 1-2.16 0 2.9 2.9 0 0 1-1.45-1.47 2.67 2.67 0 0 1 0-2.16c.15-.35.35-.65.6-.9.25-.27.53-.47.85-.62a2.67 2.67 0 0 1 2.16 0c.35.15.65.35.9.62.27.25.47.55.62.9.16.34.24.7.24 1.08zm7.97 10.24c.49-.54 1-1.04 1.54-1.48a9.85 9.85 0 0 1 3.66-1.84 8.96 8.96 0 0 1 5.43.35c.94.4 1.72.97 2.33 1.71.63.74 1.11 1.62 1.43 2.67.32 1.04.49 2.19.49 3.45V93h-3.94V78.81c0-1.69-.4-3-1.17-3.92-.76-.93-1.93-1.4-3.5-1.4-1.15 0-2.24.27-3.25.83-1 .56-1.92 1.31-2.77 2.27V93h-3.94V70.71h2.35c.56 0 .9.28 1.04.82l.3 2.42zm57.7 3.3c0 2.36-.37 4.5-1.11 6.44a14.3 14.3 0 0 1-3.17 4.98c-1.37 1.37-3 2.45-4.93 3.2-1.9.76-4.02 1.13-6.33 1.13H85.8V61.47h11.77c2.31 0 4.42.39 6.33 1.15a13.8 13.8 0 0 1 8.1 8.18 17.75 17.75 0 0 1 1.12 6.45zm-4.37 0c0-1.94-.26-3.67-.8-5.2a10.94 10.94 0 0 0-2.23-3.87 9.57 9.57 0 0 0-3.53-2.42 12.23 12.23 0 0 0-4.61-.83h-7.5v24.62h7.5c1.7 0 3.24-.28 4.61-.84a9.7 9.7 0 0 0 3.53-2.4 10.94 10.94 0 0 0 2.24-3.87c.53-1.53.8-3.26.8-5.2zm19.8 5.72c-1.8.06-3.34.2-4.62.44-1.26.22-2.3.51-3.1.88-.8.36-1.37.8-1.74 1.3-.35.5-.53 1.05-.53 1.67 0 .58.1 1.1.3 1.52a3 3 0 0 0 .76 1.05c.34.27.73.46 1.17.6a6.13 6.13 0 0 0 1.45.17 7.28 7.28 0 0 0 3.5-.81 11.95 11.95 0 0 0 2.82-2.2v-4.62zm-12.65-9.11a12.73 12.73 0 0 1 3.98-2.66c1.43-.59 3-.88 4.73-.88 1.25 0 2.36.2 3.33.61a6.81 6.81 0 0 1 3.94 4.38c.33 1.04.5 2.19.5 3.43V93h-1.74a1.8 1.8 0 0 1-.88-.18c-.2-.13-.36-.38-.48-.74l-.44-2.12-1.72 1.46a9.48 9.48 0 0 1-3.74 1.7c-.69.15-1.46.23-2.3.23-.87 0-1.69-.12-2.45-.35a5.34 5.34 0 0 1-3.34-2.93 6.64 6.64 0 0 1-.49-2.64c0-.88.25-1.72.73-2.53a6.33 6.33 0 0 1 2.35-2.17c1.09-.63 2.5-1.15 4.25-1.54 1.75-.41 3.89-.65 6.42-.7v-1.75c0-1.73-.37-3.03-1.12-3.91-.75-.9-1.84-1.34-3.28-1.34-.97 0-1.78.12-2.44.37-.64.23-1.2.5-1.7.81l-1.23.82c-.33.23-.67.35-1 .35-.27 0-.5-.07-.69-.2a2.1 2.1 0 0 1-.48-.53l-.7-1.25zm27.67 19.5c-1.76 0-3.12-.5-4.07-1.48-.94-.98-1.41-2.4-1.41-4.25V74h-2.68a.9.9 0 0 1-.6-.2c-.16-.14-.24-.36-.24-.66v-1.56l3.65-.46.9-6.89c.05-.22.14-.4.29-.52a.88.88 0 0 1 .62-.22H142v7.67h6.44V74H142v13.38c0 .94.22 1.63.68 2.09.45.45 1.04.68 1.76.68a3.21 3.21 0 0 0 1.85-.53l.55-.35c.16-.12.3-.18.41-.18.2 0 .4.13.55.38l1.15 1.87a7.45 7.45 0 0 1-2.44 1.5 8.53 8.53 0 0 1-2.95.52zm19.68-10.4c-1.8.07-3.34.21-4.62.45-1.26.22-2.3.51-3.1.88-.8.36-1.37.8-1.74 1.3-.35.5-.53 1.05-.53 1.67 0 .58.1 1.1.3 1.52a2.9 2.9 0 0 0 .76 1.05c.34.27.73.46 1.17.6a6.13 6.13 0 0 0 1.45.17 7.3 7.3 0 0 0 3.5-.81 12.04 12.04 0 0 0 2.82-2.2v-4.62zm-12.65-9.1a12.72 12.72 0 0 1 3.99-2.66c1.42-.59 3-.88 4.72-.88 1.25 0 2.36.2 3.33.61a6.81 6.81 0 0 1 3.94 4.38c.33 1.04.5 2.19.5 3.43V93h-1.74a1.8 1.8 0 0 1-.88-.18c-.2-.13-.36-.38-.48-.74l-.44-2.12-1.72 1.46a9.48 9.48 0 0 1-3.74 1.7c-.69.15-1.46.23-2.3.23-.87 0-1.69-.12-2.45-.35a5.33 5.33 0 0 1-3.34-2.93 6.62 6.62 0 0 1-.49-2.64c0-.88.25-1.72.73-2.53a6.33 6.33 0 0 1 2.35-2.17c1.09-.63 2.5-1.15 4.25-1.54 1.74-.41 3.89-.65 6.42-.7v-1.75c0-1.73-.37-3.03-1.12-3.91-.75-.9-1.84-1.34-3.28-1.34-.97 0-1.78.12-2.44.37-.64.23-1.2.5-1.7.81l-1.22.82c-.34.23-.68.35-1.02.35-.26 0-.49-.07-.68-.2a1.88 1.88 0 0 1-.48-.53l-.7-1.25z"
    fill="#fff"
  />
  <path fill="#D42B21" d="M0 106.79h210V120H0z" />
</g>
<defs>
  <clipPath id="clip0"><path fill="#fff" d="M0 0h210v120H0z" /></clipPath>
</defs>
</svg></g><a href="https://ourworldindata.org/explorers/coronavirus-data-explorer?yScale=log&amp;zoomToSelection=true&amp;time=2021-01-20..latest&amp;facet=none&amp;pickerSort=desc&amp;pickerMetric=new_cases_smoothed_per_million&amp;Metric=Confirmed+cases&amp;Interval=7-day+rolling+average&amp;Relative+to+Population=false&amp;Align+outbreaks=false&amp;country=GBR~DEU~FRA~ROU~POL~ITA~ESP" style="font-family:&quot;Playfair Display&quot;, Georgia, &quot;Times New Roman&quot;, serif" target="_blank" rel="noopener"><text font-size="25.20" x="15.0" y="35.2" fill="#555"><tspan x="15" y="35.160000000000004">Daily new confirmed COVID-19 cases</tspan></text></a><text font-size="14.40" x="15.0" y="55.7" fill="#666"><tspan x="15" y="55.72">Shown is the rolling 7-day average. The number of confirmed cases is lower than the number of actual cases; the</tspan><tspan x="15" y="73">main reason for that is limited testing.</tspan></text></g><g class="LineChart"><defs><clipPath id="boundsClip-4"><rect x="59.896" y="82.2" width="840" height="475.2"></rect></clipPath></defs><g class="DualAxisView"><g class="HorizontalAxis"><line x1="69.9" y1="526.2" x2="69.9" y2="531.2" stroke="#999"></line><line x1="703.6" y1="526.2" x2="703.6" y2="531.2" stroke="#999"></line><line x1="289.8" y1="526.2" x2="289.8" y2="531.2" stroke="#999"></line><line x1="419.1" y1="526.2" x2="419.1" y2="531.2" stroke="#999"></line><line x1="548.4" y1="526.2" x2="548.4" y2="531.2" stroke="#999"></line><text x="69.896" y="547.4" fill="#666" text-anchor="start" font-size="16.2">Jan 20, 2021</text><text x="703.61" y="547.4" fill="#666" text-anchor="end" font-size="16.2">Sep 22, 2021</text><text x="289.8" y="547.4" fill="#666" text-anchor="middle" font-size="16.2">Apr 15, 2021</text><text x="419.1" y="547.4" fill="#666" text-anchor="middle" font-size="16.2">Jun 4, 2021</text><text x="548.4" y="547.4" fill="#666" text-anchor="middle" font-size="16.2">Jul 24, 2021</text></g><g class="VerticalAxis"><text x="64.90" y="471" dy=".32em" text-anchor="end" fill="#666" font-size="16.2">100</text><text x="64.90" y="329.6" dy=".32em" text-anchor="end" fill="#666" font-size="16.2">1,000</text><text x="64.90" y="188.2" dy=".32em" text-anchor="end" fill="#666" font-size="16.2">10,000</text></g><g class="AxisGridLines horizontalLines"><line x1="69.90" y1="471" x2="703.61" y2="471" stroke="#ddd" stroke-dasharray="3,2"></line><line x1="69.90" y1="329.6" x2="703.61" y2="329.6" stroke="#ddd" stroke-dasharray="3,2"></line><line x1="69.90" y1="188.2" x2="703.61" y2="188.2" stroke="#ddd" stroke-dasharray="3,2"></line></g></g><g clip-path="url(#boundsClip-4)"><g class="LineLabels" style="cursor:default"><g class="legendMark"><rect x="703.61" y="111.45" width="131.39" height="13.5" fill="#fff" opacity="0"></rect><text font-size="13.50" x="707.6" y="122.3" fill="#CF0A66"><tspan x="707.61" y="122.25">United Kingdom</tspan></text></g><g class="legendMark"><rect x="703.61" y="187.7" width="90.62" height="13.5" fill="#fff" opacity="0"></rect><text font-size="13.50" x="707.6" y="198.5" fill="#00847E"><tspan x="707.61" y="198.5">Germany</tspan></text></g><g class="legendMark"><rect x="703.61" y="203.2" width="77.12" height="13.5" fill="#fff" opacity="0"></rect><text font-size="13.50" x="707.6" y="214.0" fill="#B13507"><tspan x="707.61" y="214">France</tspan></text></g><g class="legendMark"><rect x="703.61" y="223.45" width="89.135" height="13.5" fill="#fff" opacity="0"></rect><text font-size="13.50" x="707.6" y="234.3" fill="#00823F"><tspan x="707.61" y="234.25">Romania</tspan></text></g><g class="legendMark"><rect x="703.61" y="238.15" width="59.84" height="13.5" fill="#fff" opacity="0"></rect><text font-size="13.50" x="707.6" y="249.0" fill="#C05917"><tspan x="707.61" y="248.95000000000002">Italy</tspan></text></g><g class="legendMark"><rect x="703.61" y="262.95" width="69.695" height="13.5" fill="#fff" opacity="0"></rect><text font-size="13.50" x="707.6" y="273.8" fill="#D73C50"><tspan x="707.61" y="273.75">Spain</tspan></text></g><g class="legendMark"><rect x="703.61" y="347.75" width="77.255" height="13.5" fill="#fff" opacity="0"></rect><text font-size="13.50" x="707.6" y="358.6" fill="#4C6A9C"><tspan x="707.61" y="358.55">Poland</tspan></text></g></g><g class="Lines"><rect x="70" y="92" width="634" height="434" fill="rgba(255,255,255,0)" opacity="0"></rect><g><path stroke-linecap="round" stroke-linejoin="round" stroke="#ddd" d="M69.9 99.9L72.5 102.2L75.1 105.6L77.7 107.4L80.2 109.5L82.8 113.3L85.4 116.9L88 120.8L90.6 123.5L93.2 127L95.8 130.4L98.3 133.6L100.9 134.9L103.5 136.1L106.1 138.4L108.7 141.7L111.3 145.9L113.9 148.2L116.5 150.6L119 152.8L121.6 155.1L124.2 158.3L126.8 162.3L129.4 164.7L132 167.7L134.6 170.9L137.1 173.9L139.7 175.1L142.3 175.4L144.9 176.4L147.5 178.7L150.1 180.9L152.7 181.8L155.3 181.1L157.8 182.8L160.4 185.1L163 186.8L165.6 189.9L168.2 192.7L170.8 196.4L173.4 201.8L175.9 204.2L178.5 208.3L181.1 212.6L183.7 216L186.3 217.9L188.9 219.1L191.5 220L194.1 220.8L196.6 221.4L199.2 221.1L201.8 220.1L204.4 220.9L207 221.7L209.6 221.3L212.2 222L214.7 222.4L217.3 223.1L219.9 226L222.5 226L225.1 224.9L227.7 224.5L230.3 224.4L232.9 224.7L235.4 224.7L238 222.6L240.6 225.3L243.2 227.6L245.8 228.7L248.4 231L251 233.7L253.5 237L256.1 242.7L258.7 243.7L261.3 247.2L263.9 251.8L266.5 256.1L269.1 259.7L271.6 263.9L274.2 295.5L276.8 299.2L279.4 302.9L282 298.2L284.6 297.7L287.2 299.1L289.8 301.1L292.3 269.1L294.9 270.6L297.5 270.1L300.1 272.2L302.7 272.1L305.3 272.5L307.9 272.5L310.4 272.7L313 273.2L315.6 273.7L318.2 277.1L320.8 276.5L323.4 277.6L326 278.8L328.6 280.2L331.1 281L333.7 281.2L336.3 283L338.9 286L341.5 285.9L344.1 285.2L346.7 284.8L349.2 284.2L351.8 283.8L354.4 281L357 279L359.6 278.5L362.2 278.3L364.8 279.4L367.4 279.4L369.9 278.8L372.5 280.3L375.1 303.1L377.7 304L380.3 303.8L382.9 300.9L385.5 298.4L388 297.5L390.6 295.6L393.2 275.3L395.8 272.3L398.4 270L401 265.7L403.6 263.5L406.2 260.5L408.7 258L411.3 256.1L413.9 252.8L416.5 248.5L419.1 243.7L421.7 238.7L424.3 234.6L426.8 230.5L429.4 225.6L432 220.9L434.6 217.9L437.2 215.4L439.8 212.8L442.4 210.1L445 207.6L447.5 205.7L450.1 204L452.7 200.1L455.3 197.6L457.9 195.1L460.5 193.4L463.1 190.7L465.6 187.3L468.2 181.4L470.8 176.9L473.4 173.3L476 168.1L478.6 164.7L481.2 157.8L483.8 153.3L486.3 148.6L488.9 143.8L491.5 139.1L494.1 136.5L496.7 133.1L499.3 131.6L501.9 128.7L504.4 126.6L507 125.2L509.6 122.4L512.2 120.3L514.8 118.1L517.4 116L520 113.9L522.5 111.3L525.1 107.3L527.7 103.6L530.3 98.9L532.9 95.6L535.5 94.5L538.1 92.5L540.7 92.2L543.2 93.8L545.8 96.9L548.4 101.5L551 105.7L553.6 109.4L556.2 115.4L558.8 120.5L561.3 123.2L563.9 125.3L566.5 127.2L569.1 128.8L571.7 129.7L574.3 130.2L576.9 129L579.5 129.3L582 128.5L584.6 127.7L587.2 126.7L589.8 125.8L592.4 125.3L595 125.2L597.6 124.3L600.1 124L602.7 123.8L605.3 124L607.9 123L610.5 122L613.1 120.7L615.7 119.7L618.3 118.4L620.8 117.6L623.4 116.1L626 115.1L628.6 114.1L631.2 113.6L633.8 113.2L636.4 113L638.9 112.9L641.5 112.7L644.1 114.1L646.7 113.8L649.3 113.8L651.9 113.8L654.5 112.6L657.1 111.5L659.6 110.6L662.2 107L664.8 105.8L667.4 105.1L670 105.2L672.6 106.4L675.2 108.3L677.7 110.2L680.3 112.9L682.9 115.7L685.5 118.1L688.1 121.2L690.7 122.5L693.3 122.4L695.9 122.2L698.4 120.5L701 119.3L703.6 118.2" fill="none" stroke-width="1"></path></g><g><path stroke-linecap="round" stroke-linejoin="round" stroke="#ddd" d="M69.9 113.5L72.5 111.3L75.1 110.6L77.7 110.6L80.2 110.6L82.8 108.3L85.4 107.8L88 108.1L90.6 110.4L93.2 111.6L95.8 111.6L98.3 111.6L100.9 115.3L103.5 117.3L106.1 119.7L108.7 121.2L111.3 124.1L113.9 124.1L116.5 124.1L119 135L121.6 139.9L124.2 145.6L126.8 151.1L129.4 158.2L132 158.2L134.6 158.2L137.1 168L139.7 172.2L142.3 177.3L144.9 179.8L147.5 182.3L150.1 182.3L152.7 182.3L155.3 190.2L157.8 192.6L160.4 194.2L163 199.2L165.6 202.5L168.2 202.5L170.8 202.5L173.4 208.2L194.1 231.1L196.6 229.4L199.2 229L201.8 231.3L204.4 231.3L207 231.3L209.6 232.4L212.2 230.7L214.7 232.5L217.3 232.6L219.9 243.1L222.5 243.1L225.1 243.1L227.7 233L230.3 232L232.9 244L235.4 230L238 218.1L240.6 218.1L243.2 218.1L245.8 219.5L248.4 220.3L251 208.8L253.5 217.2L256.1 228.9L258.7 214.4L261.3 214.4L263.9 221.8L266.5 219.4L269.1 219L271.6 215L274.2 201.8L276.8 213.2L279.4 213.2L282 198.8L284.6 199.1L287.2 197.4L289.8 197.6L292.3 197.9L294.9 197.9L297.5 197.9L300.1 199.6L302.7 206.7L305.3 198.6L307.9 197.4L310.4 196.3L313 196.3L315.6 196.3L318.2 197.5L320.8 190.2L323.4 199L326 199.7L328.6 202.5L331.1 202.5L333.7 202.5L336.3 206.5L338.9 210.3L341.5 213.4L344.1 216.3L346.7 217.6L349.2 217.6L351.8 217.6L354.4 221.1L357 220.5L359.6 220.3L362.2 223.7L364.8 226.7L367.4 226.7L369.9 226.7L372.5 231.7L375.1 233.4L377.7 234L380.3 234L382.9 236.9L385.5 236.9L388 236.9L390.6 236.9L393.2 234.3L395.8 236.3L398.4 237.2L401 235.9L403.6 235.9L406.2 235.9L408.7 238.5L411.3 240.4L413.9 240.5L416.5 240.6L419.1 241.6L421.7 241.6L424.3 241.6L426.8 242L429.4 243.9L432 245.1L434.6 228.3L437.2 229.7L439.8 229.7L442.4 229.7L445 232.1L447.5 232.2L450.1 233.3L452.7 254.5L455.3 254.3L457.9 254.3L460.5 254.3L463.1 256.8L465.6 255.2L468.2 253.9L470.8 253.1L473.4 251.4L476 251.4L478.6 251.4L481.2 244.5L483.8 238.1L486.3 229.1L488.9 217L491.5 207.1L494.1 207.1L496.7 207.1L499.3 184.9L501.9 179.3L504.4 173.4L507 170.1L509.6 164.3L512.2 164.3L514.8 164.3L517.4 163.5L520 148.1L522.5 144.1L525.1 139.8L527.7 136.3L530.3 136.3L532.9 136.3L535.5 126.6L538.1 132.2L540.7 130.8L543.2 130.1L545.8 130.1L548.4 130.1L551 130.1L553.6 130.1L556.2 130.4L558.8 131.6L561.3 132.6L563.9 134.9L566.5 134.9L569.1 134.9L571.7 137.1L574.3 139.4L576.9 141.5L579.5 143.8L582 145.1L584.6 145.1L587.2 145.1L589.8 152.7L592.4 155L595 157.5L597.6 159.7L600.1 163L602.7 163L605.3 163L607.9 171.7L610.5 172.6L613.1 176.2L615.7 179.9L618.3 182.4L620.8 182.4L623.4 182.4L626 183.9L628.6 187.5L631.2 188.5L633.8 193.4L636.4 196.3L638.9 196.3L641.5 196.3L644.1 205.3L646.7 208.1L649.3 213.1L651.9 209.9L654.5 214L657.1 214L659.6 214L662.2 222.8L664.8 226.4L667.4 228.4L670 237.1L672.6 240.8L675.2 240.8L677.7 240.8L680.3 244.1L682.9 249.3L685.5 253.9L688.1 255.7L690.7 259L693.3 259L695.9 259L698.4 264.3L701 266.8L703.6 269.7" fill="none" stroke-width="1"></path></g><g><path stroke-linecap="round" stroke-linejoin="round" stroke="#ddd" d="M69.9 266.7L72.5 268.7L75.1 270.9L77.7 272.6L80.2 273.8L82.8 273.6L85.4 273.2L88 272.6L90.6 272.5L93.2 272.4L95.8 272.5L98.3 272.5L100.9 273.3L103.5 274L106.1 275.6L108.7 276.4L111.3 277L113.9 277.2L116.5 276.7L119 276.6L121.6 276.2L124.2 275.1L126.8 275.2L129.4 275.3L132 276L134.6 276.4L137.1 276.4L139.7 276.8L142.3 277.7L144.9 276.1L147.5 275.5L150.1 274.4L152.7 272.5L155.3 271.5L157.8 269.1L160.4 267.4L163 264.7L165.6 261.6L168.2 259.6L170.8 258.4L173.4 257.2L175.9 255.7L178.5 253.2L181.1 252.4L183.7 250.9L186.3 249.4L188.9 248.3L191.5 247.9L194.1 245.5L196.6 244.9L199.2 242.8L201.8 241.4L204.4 239.5L207 237.4L209.6 236L212.2 233.9L214.7 231L217.3 229.4L219.9 228.4L222.5 226.5L225.1 226.7L227.7 225.4L230.3 225.4L232.9 225.4L235.4 224.7L238 223.2L240.6 223.6L243.2 223.3L245.8 223.2L248.4 223.1L251 223.1L253.5 223.9L256.1 225L258.7 225.6L261.3 226.1L263.9 226.4L266.5 228.1L269.1 229.3L271.6 231.3L274.2 232.8L276.8 235L279.4 236.7L282 239.2L284.6 242L287.2 244.8L289.8 247.4L292.3 251.4L294.9 253.5L297.5 256.2L300.1 257.7L302.7 260.3L305.3 263.4L307.9 266.1L310.4 268.4L313 272.7L315.6 275.2L318.2 277.1L320.8 280.6L323.4 283.7L326 288.7L328.6 292.8L331.1 297.3L333.7 299.7L336.3 302.9L338.9 309L341.5 313.4L344.1 314.9L346.7 316.4L349.2 316.4L351.8 318L354.4 318.4L357 317.3L359.6 322L362.2 327.5L364.8 332.7L367.4 338.3L369.9 341.3L372.5 343.7L375.1 349.2L377.7 352L380.3 356.4L382.9 361.3L385.5 365.5L388 369.7L390.6 372.5L393.2 378L395.8 384.7L398.4 391.8L401 395.9L403.6 401L406.2 405.3L408.7 407.7L411.3 412.2L413.9 419.9L416.5 424.3L419.1 428.4L421.7 432.2L424.3 434L426.8 437.1L429.4 439.1L432 440.4L434.6 443.9L437.2 451.2L439.8 454.6L442.4 458.2L445 461L447.5 468.9L450.1 472L452.7 476.2L455.3 479.5L457.9 486.3L460.5 488.1L463.1 490.9L465.6 499L468.2 504.5L470.8 507.4L473.4 508.2L476 508.4L478.6 509.5L481.2 507.7L483.8 502.8L486.3 504.9L488.9 510.8L491.5 515.7L494.1 516.5L496.7 518.9L499.3 520.6L501.9 525.1L504.4 523.5L507 523.7L509.6 520.2L512.2 524.7L514.8 526.2L517.4 523.9L520 523.9L522.5 520.1L525.1 514.1L527.7 511L530.3 508.9L532.9 506L535.5 504.9L538.1 498.6L540.7 495.5L543.2 493.4L545.8 489.5L548.4 481L551 474.6L553.6 471.2L556.2 464.5L558.8 460.2L561.3 453.8L563.9 450.6L566.5 448.7L569.1 446.2L571.7 443.1L574.3 440L576.9 434.3L579.5 430.9L582 427.4L584.6 423.3L587.2 421.1L589.8 419.4L592.4 416.5L595 414.5L597.6 410.2L600.1 405.4L602.7 401L605.3 397.8L607.9 395.1L610.5 389.5L613.1 384.7L615.7 380L618.3 375.3L620.8 372L623.4 368.7L626 366.6L628.6 362.9L631.2 358.4L633.8 353.6L636.4 349.6L638.9 344.7L641.5 340.9L644.1 337.9L646.7 332.8L649.3 327.6L651.9 323.3L654.5 318.9L657.1 315L659.6 312.4L662.2 310.3L664.8 305.8L667.4 302.1L670 298L672.6 293L675.2 288L677.7 283.6L680.3 280.3L682.9 273.3L685.5 266.9L688.1 260.3L690.7 254.9L693.3 248.2L695.9 244.7L698.4 241.5L701 235.8L703.6 230.2" fill="none" stroke-width="1"></path></g><g><path stroke-linecap="round" stroke-linejoin="round" stroke="#ddd" d="M69.9 214.2L72.5 217.6L75.1 219.4L77.7 220.6L80.2 222.8L82.8 223.8L85.4 224.2L88 224.5L90.6 224.2L93.2 225.1L95.8 226L98.3 225.8L100.9 226.1L103.5 226.5L106.1 226.5L108.7 227.6L111.3 227.7L113.9 227.6L116.5 227.6L119 227.7L121.6 228.2L124.2 228L126.8 227.1L129.4 226.6L132 225.6L134.6 224.6L137.1 224.4L139.7 222.6L142.3 220L144.9 217L147.5 213.7L150.1 211.2L152.7 209.1L155.3 207.4L157.8 206.1L160.4 202.2L163 198.9L165.6 196.1L168.2 192.6L170.8 189.8L173.4 189L175.9 187.5L178.5 184.5L181.1 182L183.7 178.7L186.3 176.6L188.9 174.2L191.5 173.2L194.1 171.8L196.6 170.8L199.2 167L201.8 165.2L204.4 161.5L207 159.5L209.6 156.9L212.2 154.6L214.7 150.8L217.3 147.9L219.9 144.8L222.5 142.5L225.1 140.6L227.7 139.1L230.3 138.2L232.9 136L235.4 133.5L238 130.3L240.6 128.5L243.2 126.1L245.8 125.3L248.4 124L251 123.4L253.5 123.1L256.1 124.5L258.7 125.6L261.3 127.7L263.9 130L266.5 134.5L269.1 141.4L271.6 144.5L274.2 145.4L276.8 146.8L279.4 147.4L282 146.4L284.6 144.2L287.2 141.6L289.8 144.4L292.3 149.2L294.9 153.6L297.5 158.6L300.1 161.2L302.7 163.4L305.3 167.9L307.9 173.4L310.4 178.4L313 183.3L315.6 187.5L318.2 190.9L320.8 194.2L323.4 199.3L326 204L328.6 208.8L331.1 212.7L333.7 216.2L336.3 217.5L338.9 222.5L341.5 230.7L344.1 234.3L346.7 235.7L349.2 239L351.8 240.6L354.4 241.6L357 240L359.6 239.4L362.2 245.8L364.8 252.4L367.4 257.3L369.9 262L372.5 264.8L375.1 269.1L377.7 275.4L380.3 280.4L382.9 287L385.5 293.3L388 298.9L390.6 301.9L393.2 306.1L395.8 312.9L398.4 319.1L401 324.8L403.6 331.2L406.2 335.8L408.7 338L411.3 342.4L413.9 349.3L416.5 357.6L419.1 366.9L421.7 373L424.3 377.9L426.8 380.7L429.4 384.5L432 386.7L434.6 391L437.2 390.5L439.8 394.9L442.4 397.1L445 398.5L447.5 403.8L450.1 414L452.7 419.9L455.3 425.9L457.9 428.8L460.5 433.1L463.1 436.3L465.6 437.3L468.2 441.5L470.8 445.5L473.4 448.9L476 453.2L478.6 457.6L481.2 459.2L483.8 464.3L486.3 469.3L488.9 473.3L491.5 476.8L494.1 475.9L496.7 477.3L499.3 478.6L501.9 481.3L504.4 481.4L507 481.9L509.6 484.4L512.2 486.9L514.8 485.7L517.4 485L520 485.2L522.5 486.6L525.1 485.3L527.7 483.5L530.3 480.5L532.9 480.2L535.5 477.9L538.1 477L540.7 473.5L543.2 472L545.8 470.4L548.4 470.1L551 469.1L553.6 468.5L556.2 468.2L558.8 467L561.3 463.6L563.9 460L566.5 457.4L569.1 456.7L571.7 455.6L574.3 451.8L576.9 450.2L579.5 449.5L582 448.5L584.6 446.9L587.2 445L589.8 446.6L592.4 444.6L595 442.8L597.6 440.2L600.1 439L602.7 437.5L605.3 436.1L607.9 433L610.5 432.3L613.1 431.8L615.7 433L618.3 432.2L620.8 431.7L623.4 430L626 430.9L628.6 430.2L631.2 429L633.8 428.2L636.4 426.4L638.9 423.6L641.5 422.9L644.1 421L646.7 419L649.3 414.2L651.9 408.8L654.5 405.5L657.1 402.6L659.6 399.2L662.2 398.5L664.8 395.3L667.4 391.2L670 388.1L672.6 384.4L675.2 381.4L677.7 378.3L680.3 376.7L682.9 374.2L685.5 370.1L688.1 366.6L690.7 364.6L693.3 360.6L695.9 359.7L698.4 358.4L701 356L703.6 354.5" fill="none" stroke-width="1"></path></g><g><path stroke-linecap="round" stroke-linejoin="round" stroke="#ddd" d="M69.9 169.3L72.5 171.4L75.1 173.1L77.7 175.2L80.2 175.9L82.8 176.1L85.4 176L88 174.8L90.6 174.6L93.2 174.7L95.8 175.1L98.3 175.4L100.9 175.8L103.5 176.5L106.1 178L108.7 178.5L111.3 178L113.9 177.5L116.5 177.2L119 177.2L121.6 176.5L124.2 176.6L126.8 175.6L129.4 175.8L132 175.7L134.6 176.2L137.1 176.6L139.7 176.8L142.3 177.4L144.9 178.5L147.5 177.3L150.1 176.3L152.7 174.6L155.3 173L157.8 171L160.4 168.2L163 164.4L165.6 161.5L168.2 159.3L170.8 157.2L173.4 155.3L175.9 153.4L178.5 151.3L181.1 149.8L183.7 148.2L186.3 146.1L188.9 144.6L191.5 144.3L194.1 143.2L196.6 142.6L199.2 141.4L201.8 140.3L204.4 139.3L207 139.1L209.6 138.6L212.2 138.3L214.7 138L217.3 138.3L219.9 138.7L222.5 139.6L225.1 140.1L227.7 136.5L230.3 137.1L232.9 137.8L235.4 138.2L238 138.9L240.6 138.9L243.2 139.1L245.8 143.8L248.4 145L251 143.9L253.5 144.5L256.1 145.4L258.7 146.6L261.3 147.3L263.9 148.3L266.5 152.2L269.1 157.4L271.6 160.1L274.2 161.8L276.8 164L279.4 165.3L282 165.9L284.6 162.5L287.2 161.1L289.8 161.2L292.3 163L294.9 164.2L297.5 166.1L300.1 166.6L302.7 167.5L305.3 169L307.9 169.6L310.4 170.3L313 171.3L315.6 171L318.2 171.3L320.8 172.4L323.4 172.8L326 173.9L328.6 174.9L331.1 175.5L333.7 178.4L336.3 180.3L338.9 181.3L341.5 183.5L344.1 185.6L346.7 188.1L349.2 190.6L351.8 191.4L354.4 192.2L357 194.3L359.6 197L362.2 200.8L364.8 204.1L367.4 208.3L369.9 211.5L372.5 213.6L375.1 217L377.7 220.4L380.3 223.9L382.9 227.7L385.5 231.1L388 234.3L390.6 236.1L393.2 238.5L395.8 241.7L398.4 245.1L401 248.5L403.6 251.7L406.2 254.4L408.7 256.1L411.3 258.1L413.9 261L416.5 267.7L419.1 271.6L421.7 274.7L424.3 277.2L426.8 279.3L429.4 281.6L432 284.5L434.6 284L437.2 286.8L439.8 290L442.4 294.3L445 296.1L447.5 299.4L450.1 303.9L452.7 308.4L455.3 313.2L457.9 316.9L460.5 320.6L463.1 323.9L465.6 327.3L468.2 329.6L470.8 339.6L473.4 343.9L476 347.9L478.6 349.1L481.2 350.3L483.8 352.3L486.3 357.1L488.9 349.2L491.5 348.7L494.1 347.6L496.7 347.3L499.3 346.2L501.9 343.6L504.4 341.1L507 335.9L509.6 330.4L512.2 326.4L514.8 321.7L517.4 318.6L520 314.2L522.5 306.9L525.1 300.7L527.7 292.9L530.3 285.1L532.9 278.1L535.5 273.8L538.1 267L540.7 260.7L543.2 253.7L545.8 248.3L548.4 243.7L551 240.3L553.6 238.2L556.2 236.3L558.8 233.6L561.3 231.6L563.9 229L566.5 226.8L569.1 225.8L571.7 225.7L574.3 225.2L576.9 223.8L579.5 222.1L582 222.1L584.6 221.6L587.2 220.9L589.8 219.4L592.4 218.3L595 217.8L597.6 217.8L600.1 216.6L602.7 216.2L605.3 216.3L607.9 217.1L610.5 217.6L613.1 217.3L615.7 217.3L618.3 217.5L620.8 217.1L623.4 216.8L626 216.1L628.6 215L631.2 214.5L633.8 214.5L636.4 213.7L638.9 214.5L641.5 214.5L644.1 214.3L646.7 215.1L649.3 216.6L651.9 217.2L654.5 218.8L657.1 219.8L659.6 220.7L662.2 222.1L664.8 223.3L667.4 224.2L670 226.2L672.6 228L675.2 229.7L677.7 230.8L680.3 231.8L682.9 233.1L685.5 235.1L688.1 235.8L690.7 237.9L693.3 239.2L695.9 240.8L698.4 241.6L701 243L703.6 244.9" fill="none" stroke-width="1"></path></g><g><path stroke-linecap="round" stroke-linejoin="round" stroke="#ddd" d="M69.9 162.3L72.5 170.3L75.1 165.4L77.7 166.9L80.2 167.7L82.8 169.3L85.4 171.1L88 180.7L90.6 175.8L93.2 178.4L95.8 174.7L98.3 181.6L100.9 181.8L103.5 183.2L106.1 185.8L108.7 187.3L111.3 189.1L113.9 197.6L116.5 191.8L119 193.7L121.6 195.6L124.2 198.9L126.8 202.2L129.4 204.1L132 206.6L134.6 208.8L137.1 208.2L139.7 208L142.3 207.6L144.9 207.6L147.5 207.8L150.1 207L152.7 205.5L155.3 205.7L157.8 205.9L160.4 204.5L163 203.1L165.6 202.7L168.2 202.2L170.8 202.1L173.4 201.8L175.9 201L178.5 200.9L181.1 200.5L183.7 200.4L186.3 199.8L188.9 199.4L191.5 199.5L194.1 199.1L196.6 189.2L199.2 195.4L201.8 192.3L204.4 190.2L207 188L209.6 186.8L212.2 178.1L214.7 189.1L217.3 170.9L219.9 169.1L222.5 166.7L225.1 172L227.7 170.8L230.3 168.7L232.9 159.2L235.4 163.1L238 160.1L240.6 158.4L243.2 157.9L245.8 156.8L248.4 155.4L251 154.7L253.5 154.2L256.1 156.6L258.7 164.4L261.3 159.5L263.9 161.9L266.5 171.9L269.1 168.4L271.6 166L274.2 161.3L276.8 153.4L279.4 157.3L282 153.9L284.6 143.8L287.2 143.5L289.8 144.1L292.3 144.1L294.9 143.5L297.5 144.2L300.1 144.5L302.7 143.7L305.3 146.6L307.9 143.7L310.4 144.4L313 146.9L315.6 140.9L318.2 143.2L320.8 145.6L323.4 143.9L326 147.2L328.6 150.9L331.1 148.9L333.7 152.1L336.3 152.3L338.9 153.2L341.5 156.1L344.1 159.5L346.7 159.1L349.2 162.1L351.8 167.4L354.4 166.3L357 169L359.6 180.2L362.2 183.6L364.8 187.5L367.4 192.7L369.9 186.4L372.5 188.1L375.1 199.7L377.7 194.4L380.3 197.3L382.9 199.6L385.5 200.6L388 203.3L390.6 206.8L393.2 213.1L395.8 223.7L398.4 229.9L401 233.3L403.6 236.9L406.2 240.1L408.7 240.4L411.3 239.5L413.9 238.3L416.5 245.1L419.1 252.6L421.7 258.5L424.3 261.6L426.8 263.8L429.4 266.1L432 272.1L434.6 275.4L437.2 278.3L439.8 281.3L442.4 285.3L445 287.8L447.5 292.9L450.1 302.4L452.7 313.8L455.3 323L457.9 327L460.5 331.1L463.1 334.6L465.6 339.3L468.2 342.5L470.8 347.3L473.4 349.5L476 356L478.6 358.6L481.2 360.8L483.8 362.5L486.3 367.7L488.9 363.3L491.5 364.5L494.1 365.4L496.7 364.3L499.3 363.5L501.9 361.3L504.4 358.6L507 356.6L509.6 353.7L512.2 349L514.8 347.1L517.4 345.3L520 341.8L522.5 335.4L525.1 330.4L527.7 324.6L530.3 320.7L532.9 317.6L535.5 314.6L538.1 310.6L540.7 310.4L543.2 307.4L545.8 305.6L548.4 304L551 303.1L553.6 300.6L556.2 298.3L558.8 291.3L561.3 287.5L563.9 284.3L566.5 283.4L569.1 281.7L571.7 281.3L574.3 279.4L576.9 277.1L579.5 274.6L582 271.8L584.6 268.6L587.2 266.5L589.8 264.3L592.4 262.1L595 257L597.6 251.7L600.1 246.6L602.7 242.4L605.3 239.3L607.9 236.7L610.5 232.8L613.1 226.7L615.7 222.3L618.3 217.2L620.8 214.6L623.4 211.7L626 209.1L628.6 196.6L631.2 192.4L633.8 189.3L636.4 195.9L638.9 194.2L641.5 193.5L644.1 192.4L646.7 190.5L649.3 189.7L651.9 187.7L654.5 186.9L657.1 179L659.6 185.1L662.2 185.1L664.8 184.8L667.4 192.8L670 184.2L672.6 184L675.2 192.4L677.7 185.3L680.3 185.8L682.9 195.1L685.5 187.7L688.1 199L690.7 192.3L693.3 193.7L695.9 194.9L698.4 195.9L701 197.5L703.6 199.7" fill="none" stroke-width="1"></path></g><g><path stroke-linecap="round" stroke-linejoin="round" stroke="#ddd" d="M69.9 147.7L72.5 147.1L75.1 146.2L77.7 145L80.2 144.2L82.8 144L85.4 144.8L88 144.8L90.6 144.3L93.2 144.3L95.8 144.3L98.3 144L100.9 143.9L103.5 143.4L106.1 143.6L108.7 154.7L111.3 144.3L113.9 145.8L116.5 145.6L119 145.6L121.6 147.5L124.2 148L126.8 139.1L129.4 149.8L132 149.5L134.6 150.9L137.1 150.9L139.7 150.6L142.3 150.8L144.9 150.1L147.5 148.5L150.1 148L152.7 145.6L155.3 145.5L157.8 145.2L160.4 142.4L163 141.2L165.6 140.8L168.2 140.1L170.8 140.9L173.4 140.9L175.9 139.8L178.5 141.7L181.1 141.8L183.7 142.5L186.3 142.8L188.9 142L191.5 141.7L194.1 141.6L196.6 140.4L199.2 139.3L201.8 138.7L204.4 136.2L207 134.5L209.6 134.2L212.2 131.7L214.7 128.7L217.3 126.4L219.9 123.3L222.5 121.6L225.1 120.4L227.7 117.7L230.3 122.1L232.9 114.6L235.4 111.8L238 110.1L240.6 108.4L243.2 106.8L245.8 108.4L248.4 104.7L251 106.2L253.5 105L256.1 103.9L258.7 114.2L261.3 103.7L263.9 103.3L266.5 108.5L269.1 124.3L271.6 111.4L274.2 124.4L276.8 124L279.4 113.5L282 114.1L284.6 106.4L287.2 97.3L289.8 110.3L292.3 102L294.9 94.9L297.5 114.9L300.1 115.4L302.7 114.1L305.3 116.3L307.9 117.6L310.4 118.8L313 119.7L315.6 121.1L318.2 121.3L320.8 125.5L323.4 126.6L326 128.9L328.6 131.6L331.1 134.1L333.7 139.7L336.3 140.5L338.9 143L341.5 145.4L344.1 147.5L346.7 149.9L349.2 152.2L351.8 152.6L354.4 152.8L357 155.2L359.6 157.5L362.2 158.7L364.8 165.7L367.4 168.8L369.9 165.8L372.5 165.8L375.1 167.3L377.7 168.9L380.3 182.8L382.9 178.4L385.5 180.7L388 184.1L390.6 185L393.2 198L395.8 205L398.4 190.7L401 192.1L403.6 193.2L406.2 194.2L408.7 196.1L411.3 189.7L413.9 200.8L416.5 199.1L419.1 203.8L421.7 209.6L424.3 214.1L426.8 213L429.4 218.3L432 212.5L434.6 229L437.2 234.4L439.8 239.7L442.4 244.3L445 245.4L447.5 251.9L450.1 258.4L452.7 265.5L455.3 267.7L457.9 272.1L460.5 275.9L463.1 276.7L465.6 280.6L468.2 283.6L470.8 283.7L473.4 288.9L476 291.2L478.6 292.5L481.2 292.4L483.8 287L486.3 291.3L488.9 288.3L491.5 285.3L494.1 281.6L496.7 277.9L499.3 276.8L501.9 276.1L504.4 266.9L507 261.5L509.6 256.2L512.2 251.9L514.8 247.8L517.4 246.7L520 239.5L522.5 245.1L525.1 232L527.7 221.5L530.3 212.7L532.9 202.8L535.5 199.6L538.1 188.7L540.7 173.1L543.2 165.9L545.8 161L548.4 153.2L551 151.9L553.6 151.3L556.2 147.1L558.8 144.3L561.3 142.9L563.9 140.9L566.5 141.7L569.1 139.8L571.7 138.6L574.3 139.7L576.9 139.2L579.5 138.6L582 138L584.6 137.3L587.2 137L589.8 137.5L592.4 135.8L595 134.5L597.6 133.5L600.1 132.7L602.7 133.3L605.3 133L607.9 130.8L610.5 132.1L613.1 133.1L615.7 134.6L618.3 136.4L620.8 137.1L623.4 138.6L626 140.8L628.6 140.5L631.2 143.1L633.8 145.5L636.4 156.3L638.9 149.9L641.5 151.6L644.1 151.7L646.7 165.8L649.3 160.3L651.9 163.4L654.5 155.3L657.1 168L659.6 170.1L662.2 173.2L664.8 164L667.4 182.6L670 179.5L672.6 183.6L675.2 186.6L677.7 188.7L680.3 189.4L682.9 189.4L685.5 194.6L688.1 198.4L690.7 200.8L693.3 202.7L695.9 205L698.4 205.9L701 213L703.6 204.7" fill="none" stroke-width="1"></path></g><g><path stroke="#CF0A66" stroke-linecap="round" stroke-linejoin="round" d="M69.9 99.9L72.5 102.2L75.1 105.6L77.7 107.4L80.2 109.5L82.8 113.3L85.4 116.9L88 120.8L90.6 123.5L93.2 127L95.8 130.4L98.3 133.6L100.9 134.9L103.5 136.1L106.1 138.4L108.7 141.7L111.3 145.9L113.9 148.2L116.5 150.6L119 152.8L121.6 155.1L124.2 158.3L126.8 162.3L129.4 164.7L132 167.7L134.6 170.9L137.1 173.9L139.7 175.1L142.3 175.4L144.9 176.4L147.5 178.7L150.1 180.9L152.7 181.8L155.3 181.1L157.8 182.8L160.4 185.1L163 186.8L165.6 189.9L168.2 192.7L170.8 196.4L173.4 201.8L175.9 204.2L178.5 208.3L181.1 212.6L183.7 216L186.3 217.9L188.9 219.1L191.5 220L194.1 220.8L196.6 221.4L199.2 221.1L201.8 220.1L204.4 220.9L207 221.7L209.6 221.3L212.2 222L214.7 222.4L217.3 223.1L219.9 226L222.5 226L225.1 224.9L227.7 224.5L230.3 224.4L232.9 224.7L235.4 224.7L238 222.6L240.6 225.3L243.2 227.6L245.8 228.7L248.4 231L251 233.7L253.5 237L256.1 242.7L258.7 243.7L261.3 247.2L263.9 251.8L266.5 256.1L269.1 259.7L271.6 263.9L274.2 295.5L276.8 299.2L279.4 302.9L282 298.2L284.6 297.7L287.2 299.1L289.8 301.1L292.3 269.1L294.9 270.6L297.5 270.1L300.1 272.2L302.7 272.1L305.3 272.5L307.9 272.5L310.4 272.7L313 273.2L315.6 273.7L318.2 277.1L320.8 276.5L323.4 277.6L326 278.8L328.6 280.2L331.1 281L333.7 281.2L336.3 283L338.9 286L341.5 285.9L344.1 285.2L346.7 284.8L349.2 284.2L351.8 283.8L354.4 281L357 279L359.6 278.5L362.2 278.3L364.8 279.4L367.4 279.4L369.9 278.8L372.5 280.3L375.1 303.1L377.7 304L380.3 303.8L382.9 300.9L385.5 298.4L388 297.5L390.6 295.6L393.2 275.3L395.8 272.3L398.4 270L401 265.7L403.6 263.5L406.2 260.5L408.7 258L411.3 256.1L413.9 252.8L416.5 248.5L419.1 243.7L421.7 238.7L424.3 234.6L426.8 230.5L429.4 225.6L432 220.9L434.6 217.9L437.2 215.4L439.8 212.8L442.4 210.1L445 207.6L447.5 205.7L450.1 204L452.7 200.1L455.3 197.6L457.9 195.1L460.5 193.4L463.1 190.7L465.6 187.3L468.2 181.4L470.8 176.9L473.4 173.3L476 168.1L478.6 164.7L481.2 157.8L483.8 153.3L486.3 148.6L488.9 143.8L491.5 139.1L494.1 136.5L496.7 133.1L499.3 131.6L501.9 128.7L504.4 126.6L507 125.2L509.6 122.4L512.2 120.3L514.8 118.1L517.4 116L520 113.9L522.5 111.3L525.1 107.3L527.7 103.6L530.3 98.9L532.9 95.6L535.5 94.5L538.1 92.5L540.7 92.2L543.2 93.8L545.8 96.9L548.4 101.5L551 105.7L553.6 109.4L556.2 115.4L558.8 120.5L561.3 123.2L563.9 125.3L566.5 127.2L569.1 128.8L571.7 129.7L574.3 130.2L576.9 129L579.5 129.3L582 128.5L584.6 127.7L587.2 126.7L589.8 125.8L592.4 125.3L595 125.2L597.6 124.3L600.1 124L602.7 123.8L605.3 124L607.9 123L610.5 122L613.1 120.7L615.7 119.7L618.3 118.4L620.8 117.6L623.4 116.1L626 115.1L628.6 114.1L631.2 113.6L633.8 113.2L636.4 113L638.9 112.9L641.5 112.7L644.1 114.1L646.7 113.8L649.3 113.8L651.9 113.8L654.5 112.6L657.1 111.5L659.6 110.6L662.2 107L664.8 105.8L667.4 105.1L670 105.2L672.6 106.4L675.2 108.3L677.7 110.2L680.3 112.9L682.9 115.7L685.5 118.1L688.1 121.2L690.7 122.5L693.3 122.4L695.9 122.2L698.4 120.5L701 119.3L703.6 118.2" fill="none" stroke-width="1.5"></path></g><g><path stroke="#D73C50" stroke-linecap="round" stroke-linejoin="round" d="M69.9 113.5L72.5 111.3L75.1 110.6L77.7 110.6L80.2 110.6L82.8 108.3L85.4 107.8L88 108.1L90.6 110.4L93.2 111.6L95.8 111.6L98.3 111.6L100.9 115.3L103.5 117.3L106.1 119.7L108.7 121.2L111.3 124.1L113.9 124.1L116.5 124.1L119 135L121.6 139.9L124.2 145.6L126.8 151.1L129.4 158.2L132 158.2L134.6 158.2L137.1 168L139.7 172.2L142.3 177.3L144.9 179.8L147.5 182.3L150.1 182.3L152.7 182.3L155.3 190.2L157.8 192.6L160.4 194.2L163 199.2L165.6 202.5L168.2 202.5L170.8 202.5L173.4 208.2L194.1 231.1L196.6 229.4L199.2 229L201.8 231.3L204.4 231.3L207 231.3L209.6 232.4L212.2 230.7L214.7 232.5L217.3 232.6L219.9 243.1L222.5 243.1L225.1 243.1L227.7 233L230.3 232L232.9 244L235.4 230L238 218.1L240.6 218.1L243.2 218.1L245.8 219.5L248.4 220.3L251 208.8L253.5 217.2L256.1 228.9L258.7 214.4L261.3 214.4L263.9 221.8L266.5 219.4L269.1 219L271.6 215L274.2 201.8L276.8 213.2L279.4 213.2L282 198.8L284.6 199.1L287.2 197.4L289.8 197.6L292.3 197.9L294.9 197.9L297.5 197.9L300.1 199.6L302.7 206.7L305.3 198.6L307.9 197.4L310.4 196.3L313 196.3L315.6 196.3L318.2 197.5L320.8 190.2L323.4 199L326 199.7L328.6 202.5L331.1 202.5L333.7 202.5L336.3 206.5L338.9 210.3L341.5 213.4L344.1 216.3L346.7 217.6L349.2 217.6L351.8 217.6L354.4 221.1L357 220.5L359.6 220.3L362.2 223.7L364.8 226.7L367.4 226.7L369.9 226.7L372.5 231.7L375.1 233.4L377.7 234L380.3 234L382.9 236.9L385.5 236.9L388 236.9L390.6 236.9L393.2 234.3L395.8 236.3L398.4 237.2L401 235.9L403.6 235.9L406.2 235.9L408.7 238.5L411.3 240.4L413.9 240.5L416.5 240.6L419.1 241.6L421.7 241.6L424.3 241.6L426.8 242L429.4 243.9L432 245.1L434.6 228.3L437.2 229.7L439.8 229.7L442.4 229.7L445 232.1L447.5 232.2L450.1 233.3L452.7 254.5L455.3 254.3L457.9 254.3L460.5 254.3L463.1 256.8L465.6 255.2L468.2 253.9L470.8 253.1L473.4 251.4L476 251.4L478.6 251.4L481.2 244.5L483.8 238.1L486.3 229.1L488.9 217L491.5 207.1L494.1 207.1L496.7 207.1L499.3 184.9L501.9 179.3L504.4 173.4L507 170.1L509.6 164.3L512.2 164.3L514.8 164.3L517.4 163.5L520 148.1L522.5 144.1L525.1 139.8L527.7 136.3L530.3 136.3L532.9 136.3L535.5 126.6L538.1 132.2L540.7 130.8L543.2 130.1L545.8 130.1L548.4 130.1L551 130.1L553.6 130.1L556.2 130.4L558.8 131.6L561.3 132.6L563.9 134.9L566.5 134.9L569.1 134.9L571.7 137.1L574.3 139.4L576.9 141.5L579.5 143.8L582 145.1L584.6 145.1L587.2 145.1L589.8 152.7L592.4 155L595 157.5L597.6 159.7L600.1 163L602.7 163L605.3 163L607.9 171.7L610.5 172.6L613.1 176.2L615.7 179.9L618.3 182.4L620.8 182.4L623.4 182.4L626 183.9L628.6 187.5L631.2 188.5L633.8 193.4L636.4 196.3L638.9 196.3L641.5 196.3L644.1 205.3L646.7 208.1L649.3 213.1L651.9 209.9L654.5 214L657.1 214L659.6 214L662.2 222.8L664.8 226.4L667.4 228.4L670 237.1L672.6 240.8L675.2 240.8L677.7 240.8L680.3 244.1L682.9 249.3L685.5 253.9L688.1 255.7L690.7 259L693.3 259L695.9 259L698.4 264.3L701 266.8L703.6 269.7" fill="none" stroke-width="1.5"></path></g><g><path stroke="#00823F" stroke-linecap="round" stroke-linejoin="round" d="M69.9 266.7L72.5 268.7L75.1 270.9L77.7 272.6L80.2 273.8L82.8 273.6L85.4 273.2L88 272.6L90.6 272.5L93.2 272.4L95.8 272.5L98.3 272.5L100.9 273.3L103.5 274L106.1 275.6L108.7 276.4L111.3 277L113.9 277.2L116.5 276.7L119 276.6L121.6 276.2L124.2 275.1L126.8 275.2L129.4 275.3L132 276L134.6 276.4L137.1 276.4L139.7 276.8L142.3 277.7L144.9 276.1L147.5 275.5L150.1 274.4L152.7 272.5L155.3 271.5L157.8 269.1L160.4 267.4L163 264.7L165.6 261.6L168.2 259.6L170.8 258.4L173.4 257.2L175.9 255.7L178.5 253.2L181.1 252.4L183.7 250.9L186.3 249.4L188.9 248.3L191.5 247.9L194.1 245.5L196.6 244.9L199.2 242.8L201.8 241.4L204.4 239.5L207 237.4L209.6 236L212.2 233.9L214.7 231L217.3 229.4L219.9 228.4L222.5 226.5L225.1 226.7L227.7 225.4L230.3 225.4L232.9 225.4L235.4 224.7L238 223.2L240.6 223.6L243.2 223.3L245.8 223.2L248.4 223.1L251 223.1L253.5 223.9L256.1 225L258.7 225.6L261.3 226.1L263.9 226.4L266.5 228.1L269.1 229.3L271.6 231.3L274.2 232.8L276.8 235L279.4 236.7L282 239.2L284.6 242L287.2 244.8L289.8 247.4L292.3 251.4L294.9 253.5L297.5 256.2L300.1 257.7L302.7 260.3L305.3 263.4L307.9 266.1L310.4 268.4L313 272.7L315.6 275.2L318.2 277.1L320.8 280.6L323.4 283.7L326 288.7L328.6 292.8L331.1 297.3L333.7 299.7L336.3 302.9L338.9 309L341.5 313.4L344.1 314.9L346.7 316.4L349.2 316.4L351.8 318L354.4 318.4L357 317.3L359.6 322L362.2 327.5L364.8 332.7L367.4 338.3L369.9 341.3L372.5 343.7L375.1 349.2L377.7 352L380.3 356.4L382.9 361.3L385.5 365.5L388 369.7L390.6 372.5L393.2 378L395.8 384.7L398.4 391.8L401 395.9L403.6 401L406.2 405.3L408.7 407.7L411.3 412.2L413.9 419.9L416.5 424.3L419.1 428.4L421.7 432.2L424.3 434L426.8 437.1L429.4 439.1L432 440.4L434.6 443.9L437.2 451.2L439.8 454.6L442.4 458.2L445 461L447.5 468.9L450.1 472L452.7 476.2L455.3 479.5L457.9 486.3L460.5 488.1L463.1 490.9L465.6 499L468.2 504.5L470.8 507.4L473.4 508.2L476 508.4L478.6 509.5L481.2 507.7L483.8 502.8L486.3 504.9L488.9 510.8L491.5 515.7L494.1 516.5L496.7 518.9L499.3 520.6L501.9 525.1L504.4 523.5L507 523.7L509.6 520.2L512.2 524.7L514.8 526.2L517.4 523.9L520 523.9L522.5 520.1L525.1 514.1L527.7 511L530.3 508.9L532.9 506L535.5 504.9L538.1 498.6L540.7 495.5L543.2 493.4L545.8 489.5L548.4 481L551 474.6L553.6 471.2L556.2 464.5L558.8 460.2L561.3 453.8L563.9 450.6L566.5 448.7L569.1 446.2L571.7 443.1L574.3 440L576.9 434.3L579.5 430.9L582 427.4L584.6 423.3L587.2 421.1L589.8 419.4L592.4 416.5L595 414.5L597.6 410.2L600.1 405.4L602.7 401L605.3 397.8L607.9 395.1L610.5 389.5L613.1 384.7L615.7 380L618.3 375.3L620.8 372L623.4 368.7L626 366.6L628.6 362.9L631.2 358.4L633.8 353.6L636.4 349.6L638.9 344.7L641.5 340.9L644.1 337.9L646.7 332.8L649.3 327.6L651.9 323.3L654.5 318.9L657.1 315L659.6 312.4L662.2 310.3L664.8 305.8L667.4 302.1L670 298L672.6 293L675.2 288L677.7 283.6L680.3 280.3L682.9 273.3L685.5 266.9L688.1 260.3L690.7 254.9L693.3 248.2L695.9 244.7L698.4 241.5L701 235.8L703.6 230.2" fill="none" stroke-width="1.5"></path></g><g><path stroke="#4C6A9C" stroke-linecap="round" stroke-linejoin="round" d="M69.9 214.2L72.5 217.6L75.1 219.4L77.7 220.6L80.2 222.8L82.8 223.8L85.4 224.2L88 224.5L90.6 224.2L93.2 225.1L95.8 226L98.3 225.8L100.9 226.1L103.5 226.5L106.1 226.5L108.7 227.6L111.3 227.7L113.9 227.6L116.5 227.6L119 227.7L121.6 228.2L124.2 228L126.8 227.1L129.4 226.6L132 225.6L134.6 224.6L137.1 224.4L139.7 222.6L142.3 220L144.9 217L147.5 213.7L150.1 211.2L152.7 209.1L155.3 207.4L157.8 206.1L160.4 202.2L163 198.9L165.6 196.1L168.2 192.6L170.8 189.8L173.4 189L175.9 187.5L178.5 184.5L181.1 182L183.7 178.7L186.3 176.6L188.9 174.2L191.5 173.2L194.1 171.8L196.6 170.8L199.2 167L201.8 165.2L204.4 161.5L207 159.5L209.6 156.9L212.2 154.6L214.7 150.8L217.3 147.9L219.9 144.8L222.5 142.5L225.1 140.6L227.7 139.1L230.3 138.2L232.9 136L235.4 133.5L238 130.3L240.6 128.5L243.2 126.1L245.8 125.3L248.4 124L251 123.4L253.5 123.1L256.1 124.5L258.7 125.6L261.3 127.7L263.9 130L266.5 134.5L269.1 141.4L271.6 144.5L274.2 145.4L276.8 146.8L279.4 147.4L282 146.4L284.6 144.2L287.2 141.6L289.8 144.4L292.3 149.2L294.9 153.6L297.5 158.6L300.1 161.2L302.7 163.4L305.3 167.9L307.9 173.4L310.4 178.4L313 183.3L315.6 187.5L318.2 190.9L320.8 194.2L323.4 199.3L326 204L328.6 208.8L331.1 212.7L333.7 216.2L336.3 217.5L338.9 222.5L341.5 230.7L344.1 234.3L346.7 235.7L349.2 239L351.8 240.6L354.4 241.6L357 240L359.6 239.4L362.2 245.8L364.8 252.4L367.4 257.3L369.9 262L372.5 264.8L375.1 269.1L377.7 275.4L380.3 280.4L382.9 287L385.5 293.3L388 298.9L390.6 301.9L393.2 306.1L395.8 312.9L398.4 319.1L401 324.8L403.6 331.2L406.2 335.8L408.7 338L411.3 342.4L413.9 349.3L416.5 357.6L419.1 366.9L421.7 373L424.3 377.9L426.8 380.7L429.4 384.5L432 386.7L434.6 391L437.2 390.5L439.8 394.9L442.4 397.1L445 398.5L447.5 403.8L450.1 414L452.7 419.9L455.3 425.9L457.9 428.8L460.5 433.1L463.1 436.3L465.6 437.3L468.2 441.5L470.8 445.5L473.4 448.9L476 453.2L478.6 457.6L481.2 459.2L483.8 464.3L486.3 469.3L488.9 473.3L491.5 476.8L494.1 475.9L496.7 477.3L499.3 478.6L501.9 481.3L504.4 481.4L507 481.9L509.6 484.4L512.2 486.9L514.8 485.7L517.4 485L520 485.2L522.5 486.6L525.1 485.3L527.7 483.5L530.3 480.5L532.9 480.2L535.5 477.9L538.1 477L540.7 473.5L543.2 472L545.8 470.4L548.4 470.1L551 469.1L553.6 468.5L556.2 468.2L558.8 467L561.3 463.6L563.9 460L566.5 457.4L569.1 456.7L571.7 455.6L574.3 451.8L576.9 450.2L579.5 449.5L582 448.5L584.6 446.9L587.2 445L589.8 446.6L592.4 444.6L595 442.8L597.6 440.2L600.1 439L602.7 437.5L605.3 436.1L607.9 433L610.5 432.3L613.1 431.8L615.7 433L618.3 432.2L620.8 431.7L623.4 430L626 430.9L628.6 430.2L631.2 429L633.8 428.2L636.4 426.4L638.9 423.6L641.5 422.9L644.1 421L646.7 419L649.3 414.2L651.9 408.8L654.5 405.5L657.1 402.6L659.6 399.2L662.2 398.5L664.8 395.3L667.4 391.2L670 388.1L672.6 384.4L675.2 381.4L677.7 378.3L680.3 376.7L682.9 374.2L685.5 370.1L688.1 366.6L690.7 364.6L693.3 360.6L695.9 359.7L698.4 358.4L701 356L703.6 354.5" fill="none" stroke-width="1.5"></path></g><g><path stroke="#C05917" stroke-linecap="round" stroke-linejoin="round" d="M69.9 169.3L72.5 171.4L75.1 173.1L77.7 175.2L80.2 175.9L82.8 176.1L85.4 176L88 174.8L90.6 174.6L93.2 174.7L95.8 175.1L98.3 175.4L100.9 175.8L103.5 176.5L106.1 178L108.7 178.5L111.3 178L113.9 177.5L116.5 177.2L119 177.2L121.6 176.5L124.2 176.6L126.8 175.6L129.4 175.8L132 175.7L134.6 176.2L137.1 176.6L139.7 176.8L142.3 177.4L144.9 178.5L147.5 177.3L150.1 176.3L152.7 174.6L155.3 173L157.8 171L160.4 168.2L163 164.4L165.6 161.5L168.2 159.3L170.8 157.2L173.4 155.3L175.9 153.4L178.5 151.3L181.1 149.8L183.7 148.2L186.3 146.1L188.9 144.6L191.5 144.3L194.1 143.2L196.6 142.6L199.2 141.4L201.8 140.3L204.4 139.3L207 139.1L209.6 138.6L212.2 138.3L214.7 138L217.3 138.3L219.9 138.7L222.5 139.6L225.1 140.1L227.7 136.5L230.3 137.1L232.9 137.8L235.4 138.2L238 138.9L240.6 138.9L243.2 139.1L245.8 143.8L248.4 145L251 143.9L253.5 144.5L256.1 145.4L258.7 146.6L261.3 147.3L263.9 148.3L266.5 152.2L269.1 157.4L271.6 160.1L274.2 161.8L276.8 164L279.4 165.3L282 165.9L284.6 162.5L287.2 161.1L289.8 161.2L292.3 163L294.9 164.2L297.5 166.1L300.1 166.6L302.7 167.5L305.3 169L307.9 169.6L310.4 170.3L313 171.3L315.6 171L318.2 171.3L320.8 172.4L323.4 172.8L326 173.9L328.6 174.9L331.1 175.5L333.7 178.4L336.3 180.3L338.9 181.3L341.5 183.5L344.1 185.6L346.7 188.1L349.2 190.6L351.8 191.4L354.4 192.2L357 194.3L359.6 197L362.2 200.8L364.8 204.1L367.4 208.3L369.9 211.5L372.5 213.6L375.1 217L377.7 220.4L380.3 223.9L382.9 227.7L385.5 231.1L388 234.3L390.6 236.1L393.2 238.5L395.8 241.7L398.4 245.1L401 248.5L403.6 251.7L406.2 254.4L408.7 256.1L411.3 258.1L413.9 261L416.5 267.7L419.1 271.6L421.7 274.7L424.3 277.2L426.8 279.3L429.4 281.6L432 284.5L434.6 284L437.2 286.8L439.8 290L442.4 294.3L445 296.1L447.5 299.4L450.1 303.9L452.7 308.4L455.3 313.2L457.9 316.9L460.5 320.6L463.1 323.9L465.6 327.3L468.2 329.6L470.8 339.6L473.4 343.9L476 347.9L478.6 349.1L481.2 350.3L483.8 352.3L486.3 357.1L488.9 349.2L491.5 348.7L494.1 347.6L496.7 347.3L499.3 346.2L501.9 343.6L504.4 341.1L507 335.9L509.6 330.4L512.2 326.4L514.8 321.7L517.4 318.6L520 314.2L522.5 306.9L525.1 300.7L527.7 292.9L530.3 285.1L532.9 278.1L535.5 273.8L538.1 267L540.7 260.7L543.2 253.7L545.8 248.3L548.4 243.7L551 240.3L553.6 238.2L556.2 236.3L558.8 233.6L561.3 231.6L563.9 229L566.5 226.8L569.1 225.8L571.7 225.7L574.3 225.2L576.9 223.8L579.5 222.1L582 222.1L584.6 221.6L587.2 220.9L589.8 219.4L592.4 218.3L595 217.8L597.6 217.8L600.1 216.6L602.7 216.2L605.3 216.3L607.9 217.1L610.5 217.6L613.1 217.3L615.7 217.3L618.3 217.5L620.8 217.1L623.4 216.8L626 216.1L628.6 215L631.2 214.5L633.8 214.5L636.4 213.7L638.9 214.5L641.5 214.5L644.1 214.3L646.7 215.1L649.3 216.6L651.9 217.2L654.5 218.8L657.1 219.8L659.6 220.7L662.2 222.1L664.8 223.3L667.4 224.2L670 226.2L672.6 228L675.2 229.7L677.7 230.8L680.3 231.8L682.9 233.1L685.5 235.1L688.1 235.8L690.7 237.9L693.3 239.2L695.9 240.8L698.4 241.6L701 243L703.6 244.9" fill="none" stroke-width="1.5"></path></g><g><path stroke="#00847E" stroke-linecap="round" stroke-linejoin="round" d="M69.9 162.3L72.5 170.3L75.1 165.4L77.7 166.9L80.2 167.7L82.8 169.3L85.4 171.1L88 180.7L90.6 175.8L93.2 178.4L95.8 174.7L98.3 181.6L100.9 181.8L103.5 183.2L106.1 185.8L108.7 187.3L111.3 189.1L113.9 197.6L116.5 191.8L119 193.7L121.6 195.6L124.2 198.9L126.8 202.2L129.4 204.1L132 206.6L134.6 208.8L137.1 208.2L139.7 208L142.3 207.6L144.9 207.6L147.5 207.8L150.1 207L152.7 205.5L155.3 205.7L157.8 205.9L160.4 204.5L163 203.1L165.6 202.7L168.2 202.2L170.8 202.1L173.4 201.8L175.9 201L178.5 200.9L181.1 200.5L183.7 200.4L186.3 199.8L188.9 199.4L191.5 199.5L194.1 199.1L196.6 189.2L199.2 195.4L201.8 192.3L204.4 190.2L207 188L209.6 186.8L212.2 178.1L214.7 189.1L217.3 170.9L219.9 169.1L222.5 166.7L225.1 172L227.7 170.8L230.3 168.7L232.9 159.2L235.4 163.1L238 160.1L240.6 158.4L243.2 157.9L245.8 156.8L248.4 155.4L251 154.7L253.5 154.2L256.1 156.6L258.7 164.4L261.3 159.5L263.9 161.9L266.5 171.9L269.1 168.4L271.6 166L274.2 161.3L276.8 153.4L279.4 157.3L282 153.9L284.6 143.8L287.2 143.5L289.8 144.1L292.3 144.1L294.9 143.5L297.5 144.2L300.1 144.5L302.7 143.7L305.3 146.6L307.9 143.7L310.4 144.4L313 146.9L315.6 140.9L318.2 143.2L320.8 145.6L323.4 143.9L326 147.2L328.6 150.9L331.1 148.9L333.7 152.1L336.3 152.3L338.9 153.2L341.5 156.1L344.1 159.5L346.7 159.1L349.2 162.1L351.8 167.4L354.4 166.3L357 169L359.6 180.2L362.2 183.6L364.8 187.5L367.4 192.7L369.9 186.4L372.5 188.1L375.1 199.7L377.7 194.4L380.3 197.3L382.9 199.6L385.5 200.6L388 203.3L390.6 206.8L393.2 213.1L395.8 223.7L398.4 229.9L401 233.3L403.6 236.9L406.2 240.1L408.7 240.4L411.3 239.5L413.9 238.3L416.5 245.1L419.1 252.6L421.7 258.5L424.3 261.6L426.8 263.8L429.4 266.1L432 272.1L434.6 275.4L437.2 278.3L439.8 281.3L442.4 285.3L445 287.8L447.5 292.9L450.1 302.4L452.7 313.8L455.3 323L457.9 327L460.5 331.1L463.1 334.6L465.6 339.3L468.2 342.5L470.8 347.3L473.4 349.5L476 356L478.6 358.6L481.2 360.8L483.8 362.5L486.3 367.7L488.9 363.3L491.5 364.5L494.1 365.4L496.7 364.3L499.3 363.5L501.9 361.3L504.4 358.6L507 356.6L509.6 353.7L512.2 349L514.8 347.1L517.4 345.3L520 341.8L522.5 335.4L525.1 330.4L527.7 324.6L530.3 320.7L532.9 317.6L535.5 314.6L538.1 310.6L540.7 310.4L543.2 307.4L545.8 305.6L548.4 304L551 303.1L553.6 300.6L556.2 298.3L558.8 291.3L561.3 287.5L563.9 284.3L566.5 283.4L569.1 281.7L571.7 281.3L574.3 279.4L576.9 277.1L579.5 274.6L582 271.8L584.6 268.6L587.2 266.5L589.8 264.3L592.4 262.1L595 257L597.6 251.7L600.1 246.6L602.7 242.4L605.3 239.3L607.9 236.7L610.5 232.8L613.1 226.7L615.7 222.3L618.3 217.2L620.8 214.6L623.4 211.7L626 209.1L628.6 196.6L631.2 192.4L633.8 189.3L636.4 195.9L638.9 194.2L641.5 193.5L644.1 192.4L646.7 190.5L649.3 189.7L651.9 187.7L654.5 186.9L657.1 179L659.6 185.1L662.2 185.1L664.8 184.8L667.4 192.8L670 184.2L672.6 184L675.2 192.4L677.7 185.3L680.3 185.8L682.9 195.1L685.5 187.7L688.1 199L690.7 192.3L693.3 193.7L695.9 194.9L698.4 195.9L701 197.5L703.6 199.7" fill="none" stroke-width="1.5"></path></g><g><path stroke="#B13507" stroke-linecap="round" stroke-linejoin="round" d="M69.9 147.7L72.5 147.1L75.1 146.2L77.7 145L80.2 144.2L82.8 144L85.4 144.8L88 144.8L90.6 144.3L93.2 144.3L95.8 144.3L98.3 144L100.9 143.9L103.5 143.4L106.1 143.6L108.7 154.7L111.3 144.3L113.9 145.8L116.5 145.6L119 145.6L121.6 147.5L124.2 148L126.8 139.1L129.4 149.8L132 149.5L134.6 150.9L137.1 150.9L139.7 150.6L142.3 150.8L144.9 150.1L147.5 148.5L150.1 148L152.7 145.6L155.3 145.5L157.8 145.2L160.4 142.4L163 141.2L165.6 140.8L168.2 140.1L170.8 140.9L173.4 140.9L175.9 139.8L178.5 141.7L181.1 141.8L183.7 142.5L186.3 142.8L188.9 142L191.5 141.7L194.1 141.6L196.6 140.4L199.2 139.3L201.8 138.7L204.4 136.2L207 134.5L209.6 134.2L212.2 131.7L214.7 128.7L217.3 126.4L219.9 123.3L222.5 121.6L225.1 120.4L227.7 117.7L230.3 122.1L232.9 114.6L235.4 111.8L238 110.1L240.6 108.4L243.2 106.8L245.8 108.4L248.4 104.7L251 106.2L253.5 105L256.1 103.9L258.7 114.2L261.3 103.7L263.9 103.3L266.5 108.5L269.1 124.3L271.6 111.4L274.2 124.4L276.8 124L279.4 113.5L282 114.1L284.6 106.4L287.2 97.3L289.8 110.3L292.3 102L294.9 94.9L297.5 114.9L300.1 115.4L302.7 114.1L305.3 116.3L307.9 117.6L310.4 118.8L313 119.7L315.6 121.1L318.2 121.3L320.8 125.5L323.4 126.6L326 128.9L328.6 131.6L331.1 134.1L333.7 139.7L336.3 140.5L338.9 143L341.5 145.4L344.1 147.5L346.7 149.9L349.2 152.2L351.8 152.6L354.4 152.8L357 155.2L359.6 157.5L362.2 158.7L364.8 165.7L367.4 168.8L369.9 165.8L372.5 165.8L375.1 167.3L377.7 168.9L380.3 182.8L382.9 178.4L385.5 180.7L388 184.1L390.6 185L393.2 198L395.8 205L398.4 190.7L401 192.1L403.6 193.2L406.2 194.2L408.7 196.1L411.3 189.7L413.9 200.8L416.5 199.1L419.1 203.8L421.7 209.6L424.3 214.1L426.8 213L429.4 218.3L432 212.5L434.6 229L437.2 234.4L439.8 239.7L442.4 244.3L445 245.4L447.5 251.9L450.1 258.4L452.7 265.5L455.3 267.7L457.9 272.1L460.5 275.9L463.1 276.7L465.6 280.6L468.2 283.6L470.8 283.7L473.4 288.9L476 291.2L478.6 292.5L481.2 292.4L483.8 287L486.3 291.3L488.9 288.3L491.5 285.3L494.1 281.6L496.7 277.9L499.3 276.8L501.9 276.1L504.4 266.9L507 261.5L509.6 256.2L512.2 251.9L514.8 247.8L517.4 246.7L520 239.5L522.5 245.1L525.1 232L527.7 221.5L530.3 212.7L532.9 202.8L535.5 199.6L538.1 188.7L540.7 173.1L543.2 165.9L545.8 161L548.4 153.2L551 151.9L553.6 151.3L556.2 147.1L558.8 144.3L561.3 142.9L563.9 140.9L566.5 141.7L569.1 139.8L571.7 138.6L574.3 139.7L576.9 139.2L579.5 138.6L582 138L584.6 137.3L587.2 137L589.8 137.5L592.4 135.8L595 134.5L597.6 133.5L600.1 132.7L602.7 133.3L605.3 133L607.9 130.8L610.5 132.1L613.1 133.1L615.7 134.6L618.3 136.4L620.8 137.1L623.4 138.6L626 140.8L628.6 140.5L631.2 143.1L633.8 145.5L636.4 156.3L638.9 149.9L641.5 151.6L644.1 151.7L646.7 165.8L649.3 160.3L651.9 163.4L654.5 155.3L657.1 168L659.6 170.1L662.2 173.2L664.8 164L667.4 182.6L670 179.5L672.6 183.6L675.2 186.6L677.7 188.7L680.3 189.4L682.9 189.4L685.5 194.6L688.1 198.4L690.7 200.8L693.3 202.7L695.9 205L698.4 205.9L701 213L703.6 204.7" fill="none" stroke-width="1.5"></path></g></g></g></g><g class="SourcesFooter" style="fill:#777"><g style="fill:#777"><text font-size="12.60" x="15.0" y="582.5"><tspan x="15" y="582.48">Source: Johns Hopkins University CSSE COVID-19 Data</tspan></text></g><text font-size="12.60" x="796.4" y="582.5"><tspan x="796.444" y="582.48"><a style="fill: #777;" class="cclogo" href="http://creativecommons.org/licenses/by/4.0/deed.en_US" target="_blank">CC BY</a></tspan></text></g></svg>