<svg xmlns="http://www.w3.org/2000/svg" version="1.1" style="font-family:&#x27;Segoe UI&#x27;, sans-serif;font-size:16px;background-color:white" viewBox="0 0 850 600"><g class="HeaderView"><g transform="translate(774, 15) scale(0.29)"><svg className="owidLog" width="210" height="120" viewBox="0 0 210 120" fill="none" xmlns="http://www.w3.org/2000/svg">
<g clip-path="url(#clip0)">
  <path d="M0 0h210v107.89H0V0z" fill="#002147" />
  <path
    d="M40.98 32.25c0 2.36-.38 4.53-1.12 6.51a14.26 14.26 0 0 1-8.1 8.4c-1.9.78-4.02 1.17-6.34 1.17-2.31 0-4.42-.39-6.33-1.17a14.31 14.31 0 0 1-8.08-8.4 18.29 18.29 0 0 1-1.12-6.51c0-2.36.38-4.53 1.12-6.5.75-1.97 1.8-3.67 3.17-5.1a14.32 14.32 0 0 1 4.9-3.34c1.92-.8 4.03-1.19 6.34-1.19 2.32 0 4.43.4 6.34 1.19 1.92.8 3.56 1.9 4.93 3.34a14.87 14.87 0 0 1 3.17 5.1 18.1 18.1 0 0 1 1.12 6.5zm-4.38 0c0-1.94-.26-3.68-.8-5.22a10.91 10.91 0 0 0-2.24-3.89 9.68 9.68 0 0 0-3.52-2.46 11.95 11.95 0 0 0-4.62-.86c-1.68 0-3.21.28-4.6.86a9.88 9.88 0 0 0-3.54 2.46 10.91 10.91 0 0 0-2.24 3.9c-.53 1.53-.8 3.27-.8 5.2 0 1.94.27 3.68.8 5.22a11.17 11.17 0 0 0 2.24 3.9 10.01 10.01 0 0 0 3.55 2.44c1.38.56 2.9.83 4.6.83s3.24-.27 4.61-.83a9.8 9.8 0 0 0 3.52-2.44 11.17 11.17 0 0 0 2.25-3.9c.53-1.54.8-3.28.8-5.21zm26.22-6.54V48H60.5c-.56 0-.9-.27-1.05-.81l-.31-2.4a12.45 12.45 0 0 1-3.26 2.6c-1.2.64-2.58.96-4.13.96-1.22 0-2.3-.2-3.24-.6a6.52 6.52 0 0 1-2.33-1.7 7.37 7.37 0 0 1-1.43-2.67c-.3-1.04-.46-2.2-.46-3.45V25.7h3.91v14.22c0 1.68.38 2.99 1.15 3.91.77.93 1.96 1.39 3.54 1.39 1.16 0 2.24-.27 3.23-.82a10.42 10.42 0 0 0 2.8-2.28V25.7h3.91zm8.61 4.47a9.94 9.94 0 0 1 2.6-3.56 5.64 5.64 0 0 1 3.76-1.3c.47 0 .92.05 1.34.15.44.1.83.27 1.17.49l-.3 2.92c-.09.37-.3.55-.66.55-.2 0-.5-.04-.9-.13a6.21 6.21 0 0 0-3.24.18 4.23 4.23 0 0 0-1.47.92c-.42.4-.81.9-1.17 1.5-.33.58-.64 1.26-.92 2.02V48H67.7V25.71h2.25c.42 0 .72.08.88.25.16.16.27.44.33.83l.26 3.39zm61.16-13.7L122.75 48h-3.82l-7.99-24.05a21.95 21.95 0 0 1-.42-1.58 38.36 38.36 0 0 1-.44 1.58L102.05 48h-3.83L88.4 16.47h3.54c.38 0 .7.1.95.29.26.2.43.43.5.73l6.52 21.9.28 1.28.29 1.46.3-1.46.38-1.27 7.41-21.91c.1-.25.26-.48.51-.69.27-.22.58-.33.95-.33h1.23c.38 0 .69.1.92.29a1.77 1.77 0 0 1 .53.73l7.4 21.9a28.4 28.4 0 0 1 .68 2.62 29.52 29.52 0 0 1 .52-2.61l6.54-21.91a1.31 1.31 0 0 1 .48-.7c.27-.21.58-.32.95-.32h3.32zm9.35 8.88c1.63 0 3.1.27 4.4.82a9.43 9.43 0 0 1 5.46 5.94c.5 1.4.74 2.98.74 4.73 0 1.76-.25 3.34-.74 4.75a9.43 9.43 0 0 1-5.46 5.92c-1.3.52-2.77.79-4.4.79-1.64 0-3.12-.27-4.44-.8a9.42 9.42 0 0 1-3.35-2.3c-.92-1-1.63-2.2-2.13-3.61-.49-1.41-.73-3-.73-4.75s.24-3.33.73-4.73c.5-1.43 1.2-2.64 2.13-3.63.93-1 2.04-1.77 3.35-2.31 1.32-.55 2.8-.82 4.44-.82zm0 19.89c2.2 0 3.84-.73 4.93-2.2 1.08-1.48 1.63-3.54 1.63-6.18 0-2.66-.55-4.72-1.63-6.2-1.09-1.49-2.73-2.23-4.93-2.23-1.12 0-2.09.2-2.93.57a5.71 5.71 0 0 0-2.06 1.65c-.55.72-.96 1.61-1.24 2.67-.26 1.04-.4 2.22-.4 3.54 0 2.64.55 4.7 1.64 6.18 1.1 1.47 2.76 2.2 4.99 2.2zm17.97-15.07a9.94 9.94 0 0 1 2.6-3.56 5.64 5.64 0 0 1 3.76-1.3c.47 0 .91.05 1.34.15.44.1.83.27 1.16.49l-.28 2.92c-.09.37-.31.55-.66.55-.2 0-.5-.04-.9-.13a6.2 6.2 0 0 0-3.24.18 4.23 4.23 0 0 0-1.47.92c-.43.4-.82.9-1.17 1.5a13.1 13.1 0 0 0-.92 2.02V48h-3.94V25.71h2.24c.43 0 .72.08.88.25.17.16.28.44.33.83l.27 3.39zm15.04-14.59V48h-3.92V15.6h3.92zm19.55 15.43a6.22 6.22 0 0 0-2.38-2.05 6.7 6.7 0 0 0-2.86-.6c-2.07 0-3.66.75-4.77 2.23-1.12 1.48-1.68 3.6-1.68 6.33 0 1.46.13 2.7.38 3.74a7.29 7.29 0 0 0 1.1 2.56 4.35 4.35 0 0 0 1.78 1.45c.7.3 1.5.46 2.4.46 1.29 0 2.41-.3 3.36-.88a9.6 9.6 0 0 0 2.67-2.49V31.02zm3.91-15.43V48h-2.33c-.56 0-.9-.27-1.06-.81l-.35-2.71a12.13 12.13 0 0 1-3.25 2.77 8.28 8.28 0 0 1-4.23 1.06 7.31 7.31 0 0 1-6.14-2.9c-.73-.96-1.3-2.15-1.69-3.57a18.35 18.35 0 0 1 .07-9.48 11.29 11.29 0 0 1 1.89-3.7 8.7 8.7 0 0 1 7.06-3.34 7.96 7.96 0 0 1 6.12 2.62V15.59h3.91zM46.61 70.71V93H42.7V70.71h3.91zm.84-7c0 .39-.08.75-.24 1.09-.15.32-.35.61-.62.88-.25.25-.55.44-.9.59a2.67 2.67 0 0 1-2.16 0 2.9 2.9 0 0 1-1.45-1.47 2.67 2.67 0 0 1 0-2.16c.15-.35.35-.65.6-.9.25-.27.53-.47.85-.62a2.67 2.67 0 0 1 2.16 0c.35.15.65.35.9.62.27.25.47.55.62.9.16.34.24.7.24 1.08zm7.97 10.24c.49-.54 1-1.04 1.54-1.48a9.85 9.85 0 0 1 3.66-1.84 8.96 8.96 0 0 1 5.43.35c.94.4 1.72.97 2.33 1.71.63.74 1.11 1.62 1.43 2.67.32 1.04.49 2.19.49 3.45V93h-3.94V78.81c0-1.69-.4-3-1.17-3.92-.76-.93-1.93-1.4-3.5-1.4-1.15 0-2.24.27-3.25.83-1 .56-1.92 1.31-2.77 2.27V93h-3.94V70.71h2.35c.56 0 .9.28 1.04.82l.3 2.42zm57.7 3.3c0 2.36-.37 4.5-1.11 6.44a14.3 14.3 0 0 1-3.17 4.98c-1.37 1.37-3 2.45-4.93 3.2-1.9.76-4.02 1.13-6.33 1.13H85.8V61.47h11.77c2.31 0 4.42.39 6.33 1.15a13.8 13.8 0 0 1 8.1 8.18 17.75 17.75 0 0 1 1.12 6.45zm-4.37 0c0-1.94-.26-3.67-.8-5.2a10.94 10.94 0 0 0-2.23-3.87 9.57 9.57 0 0 0-3.53-2.42 12.23 12.23 0 0 0-4.61-.83h-7.5v24.62h7.5c1.7 0 3.24-.28 4.61-.84a9.7 9.7 0 0 0 3.53-2.4 10.94 10.94 0 0 0 2.24-3.87c.53-1.53.8-3.26.8-5.2zm19.8 5.72c-1.8.06-3.34.2-4.62.44-1.26.22-2.3.51-3.1.88-.8.36-1.37.8-1.74 1.3-.35.5-.53 1.05-.53 1.67 0 .58.1 1.1.3 1.52a3 3 0 0 0 .76 1.05c.34.27.73.46 1.17.6a6.13 6.13 0 0 0 1.45.17 7.28 7.28 0 0 0 3.5-.81 11.95 11.95 0 0 0 2.82-2.2v-4.62zm-12.65-9.11a12.73 12.73 0 0 1 3.98-2.66c1.43-.59 3-.88 4.73-.88 1.25 0 2.36.2 3.33.61a6.81 6.81 0 0 1 3.94 4.38c.33 1.04.5 2.19.5 3.43V93h-1.74a1.8 1.8 0 0 1-.88-.18c-.2-.13-.36-.38-.48-.74l-.44-2.12-1.72 1.46a9.48 9.48 0 0 1-3.74 1.7c-.69.15-1.46.23-2.3.23-.87 0-1.69-.12-2.45-.35a5.34 5.34 0 0 1-3.34-2.93 6.64 6.64 0 0 1-.49-2.64c0-.88.25-1.72.73-2.53a6.33 6.33 0 0 1 2.35-2.17c1.09-.63 2.5-1.15 4.25-1.54 1.75-.41 3.89-.65 6.42-.7v-1.75c0-1.73-.37-3.03-1.12-3.91-.75-.9-1.84-1.34-3.28-1.34-.97 0-1.78.12-2.44.37-.64.23-1.2.5-1.7.81l-1.23.82c-.33.23-.67.35-1 .35-.27 0-.5-.07-.69-.2a2.1 2.1 0 0 1-.48-.53l-.7-1.25zm27.67 19.5c-1.76 0-3.12-.5-4.07-1.48-.94-.98-1.41-2.4-1.41-4.25V74h-2.68a.9.9 0 0 1-.6-.2c-.16-.14-.24-.36-.24-.66v-1.56l3.65-.46.9-6.89c.05-.22.14-.4.29-.52a.88.88 0 0 1 .62-.22H142v7.67h6.44V74H142v13.38c0 .94.22 1.63.68 2.09.45.45 1.04.68 1.76.68a3.21 3.21 0 0 0 1.85-.53l.55-.35c.16-.12.3-.18.41-.18.2 0 .4.13.55.38l1.15 1.87a7.45 7.45 0 0 1-2.44 1.5 8.53 8.53 0 0 1-2.95.52zm19.68-10.4c-1.8.07-3.34.21-4.62.45-1.26.22-2.3.51-3.1.88-.8.36-1.37.8-1.74 1.3-.35.5-.53 1.05-.53 1.67 0 .58.1 1.1.3 1.52a2.9 2.9 0 0 0 .76 1.05c.34.27.73.46 1.17.6a6.13 6.13 0 0 0 1.45.17 7.3 7.3 0 0 0 3.5-.81 12.04 12.04 0 0 0 2.82-2.2v-4.62zm-12.65-9.1a12.72 12.72 0 0 1 3.99-2.66c1.42-.59 3-.88 4.72-.88 1.25 0 2.36.2 3.33.61a6.81 6.81 0 0 1 3.94 4.38c.33 1.04.5 2.19.5 3.43V93h-1.74a1.8 1.8 0 0 1-.88-.18c-.2-.13-.36-.38-.48-.74l-.44-2.12-1.72 1.46a9.48 9.48 0 0 1-3.74 1.7c-.69.15-1.46.23-2.3.23-.87 0-1.69-.12-2.45-.35a5.33 5.33 0 0 1-3.34-2.93 6.62 6.62 0 0 1-.49-2.64c0-.88.25-1.72.73-2.53a6.33 6.33 0 0 1 2.35-2.17c1.09-.63 2.5-1.15 4.25-1.54 1.74-.41 3.89-.65 6.42-.7v-1.75c0-1.73-.37-3.03-1.12-3.91-.75-.9-1.84-1.34-3.28-1.34-.97 0-1.78.12-2.44.37-.64.23-1.2.5-1.7.81l-1.22.82c-.34.23-.68.35-1.02.35-.26 0-.49-.07-.68-.2a1.88 1.88 0 0 1-.48-.53l-.7-1.25zM40.98 32.25c0 2.36-.38 4.53-1.12 6.51a14.26 14.26 0 0 1-8.1 8.4c-1.9.78-4.02 1.17-6.34 1.17-2.31 0-4.42-.39-6.33-1.17a14.31 14.31 0 0 1-8.08-8.4 18.29 18.29 0 0 1-1.12-6.51c0-2.36.38-4.53 1.12-6.5.75-1.97 1.8-3.67 3.17-5.1a14.32 14.32 0 0 1 4.9-3.34c1.92-.8 4.03-1.19 6.34-1.19 2.32 0 4.43.4 6.34 1.19 1.92.8 3.56 1.9 4.93 3.34a14.87 14.87 0 0 1 3.17 5.1 18.1 18.1 0 0 1 1.12 6.5zm-4.38 0c0-1.94-.26-3.68-.8-5.22a10.91 10.91 0 0 0-2.24-3.89 9.68 9.68 0 0 0-3.52-2.46 11.95 11.95 0 0 0-4.62-.86c-1.68 0-3.21.28-4.6.86a9.88 9.88 0 0 0-3.54 2.46 10.91 10.91 0 0 0-2.24 3.9c-.53 1.53-.8 3.27-.8 5.2 0 1.94.27 3.68.8 5.22a11.17 11.17 0 0 0 2.24 3.9 10.01 10.01 0 0 0 3.55 2.44c1.38.56 2.9.83 4.6.83s3.24-.27 4.61-.83a9.8 9.8 0 0 0 3.52-2.44 11.17 11.17 0 0 0 2.25-3.9c.53-1.54.8-3.28.8-5.21zm26.22-6.54V48H60.5c-.56 0-.9-.27-1.05-.81l-.31-2.4a12.45 12.45 0 0 1-3.26 2.6c-1.2.64-2.58.96-4.13.96-1.22 0-2.3-.2-3.24-.6a6.52 6.52 0 0 1-2.33-1.7 7.37 7.37 0 0 1-1.43-2.67c-.3-1.04-.46-2.2-.46-3.45V25.7h3.91v14.22c0 1.68.38 2.99 1.15 3.91.77.93 1.96 1.39 3.54 1.39 1.16 0 2.24-.27 3.23-.82a10.42 10.42 0 0 0 2.8-2.28V25.7h3.91zm8.61 4.47a9.94 9.94 0 0 1 2.6-3.56 5.64 5.64 0 0 1 3.76-1.3c.47 0 .92.05 1.34.15.44.1.83.27 1.17.49l-.3 2.92c-.09.37-.3.55-.66.55-.2 0-.5-.04-.9-.13a6.21 6.21 0 0 0-3.24.18 4.23 4.23 0 0 0-1.47.92c-.42.4-.81.9-1.17 1.5-.33.58-.64 1.26-.92 2.02V48H67.7V25.71h2.25c.42 0 .72.08.88.25.16.16.27.44.33.83l.26 3.39zm61.16-13.7L122.75 48h-3.82l-7.99-24.05a21.95 21.95 0 0 1-.42-1.58 38.36 38.36 0 0 1-.44 1.58L102.05 48h-3.83L88.4 16.47h3.54c.38 0 .7.1.95.29.26.2.43.43.5.73l6.52 21.9.28 1.28.29 1.46.3-1.46.38-1.27 7.41-21.91c.1-.25.26-.48.51-.69.27-.22.58-.33.95-.33h1.23c.38 0 .69.1.92.29a1.77 1.77 0 0 1 .53.73l7.4 21.9a28.4 28.4 0 0 1 .68 2.62 29.52 29.52 0 0 1 .52-2.61l6.54-21.91a1.31 1.31 0 0 1 .48-.7c.27-.21.58-.32.95-.32h3.32zm9.35 8.88c1.63 0 3.1.27 4.4.82a9.43 9.43 0 0 1 5.46 5.94c.5 1.4.74 2.98.74 4.73 0 1.76-.25 3.34-.74 4.75a9.43 9.43 0 0 1-5.46 5.92c-1.3.52-2.77.79-4.4.79-1.64 0-3.12-.27-4.44-.8a9.42 9.42 0 0 1-3.35-2.3c-.92-1-1.63-2.2-2.13-3.61-.49-1.41-.73-3-.73-4.75s.24-3.33.73-4.73c.5-1.43 1.2-2.64 2.13-3.63.93-1 2.04-1.77 3.35-2.31 1.32-.55 2.8-.82 4.44-.82zm0 19.89c2.2 0 3.84-.73 4.93-2.2 1.08-1.48 1.63-3.54 1.63-6.18 0-2.66-.55-4.72-1.63-6.2-1.09-1.49-2.73-2.23-4.93-2.23-1.12 0-2.09.2-2.93.57a5.71 5.71 0 0 0-2.06 1.65c-.55.72-.96 1.61-1.24 2.67-.26 1.04-.4 2.22-.4 3.54 0 2.64.55 4.7 1.64 6.18 1.1 1.47 2.76 2.2 4.99 2.2zm17.97-15.07a9.94 9.94 0 0 1 2.6-3.56 5.64 5.64 0 0 1 3.76-1.3c.47 0 .91.05 1.34.15.44.1.83.27 1.16.49l-.28 2.92c-.09.37-.31.55-.66.55-.2 0-.5-.04-.9-.13a6.2 6.2 0 0 0-3.24.18 4.23 4.23 0 0 0-1.47.92c-.43.4-.82.9-1.17 1.5a13.1 13.1 0 0 0-.92 2.02V48h-3.94V25.71h2.24c.43 0 .72.08.88.25.17.16.28.44.33.83l.27 3.39zm15.04-14.59V48h-3.92V15.6h3.92zm19.55 15.43a6.22 6.22 0 0 0-2.38-2.05 6.7 6.7 0 0 0-2.86-.6c-2.07 0-3.66.75-4.77 2.23-1.12 1.48-1.68 3.6-1.68 6.33 0 1.46.13 2.7.38 3.74a7.29 7.29 0 0 0 1.1 2.56 4.35 4.35 0 0 0 1.78 1.45c.7.3 1.5.46 2.4.46 1.29 0 2.41-.3 3.36-.88a9.6 9.6 0 0 0 2.67-2.49V31.02zm3.91-15.43V48h-2.33c-.56 0-.9-.27-1.06-.81l-.35-2.71a12.13 12.13 0 0 1-3.25 2.77 8.28 8.28 0 0 1-4.23 1.06 7.31 7.31 0 0 1-6.14-2.9c-.73-.96-1.3-2.15-1.69-3.57a18.35 18.35 0 0 1 .07-9.48 11.29 11.29 0 0 1 1.89-3.7 8.7 8.7 0 0 1 7.06-3.34 7.96 7.96 0 0 1 6.12 2.62V15.59h3.91zM46.61 70.71V93H42.7V70.71h3.91zm.84-7c0 .39-.08.75-.24 1.09-.15.32-.35.61-.62.88-.25.25-.55.44-.9.59a2.67 2.67 0 0 1-2.16 0 2.9 2.9 0 0 1-1.45-1.47 2.67 2.67 0 0 1 0-2.16c.15-.35.35-.65.6-.9.25-.27.53-.47.85-.62a2.67 2.67 0 0 1 2.16 0c.35.15.65.35.9.62.27.25.47.55.62.9.16.34.24.7.24 1.08zm7.97 10.24c.49-.54 1-1.04 1.54-1.48a9.85 9.85 0 0 1 3.66-1.84 8.96 8.96 0 0 1 5.43.35c.94.4 1.72.97 2.33 1.71.63.74 1.11 1.62 1.43 2.67.32 1.04.49 2.19.49 3.45V93h-3.94V78.81c0-1.69-.4-3-1.17-3.92-.76-.93-1.93-1.4-3.5-1.4-1.15 0-2.24.27-3.25.83-1 .56-1.92 1.31-2.77 2.27V93h-3.94V70.71h2.35c.56 0 .9.28 1.04.82l.3 2.42zm57.7 3.3c0 2.36-.37 4.5-1.11 6.44a14.3 14.3 0 0 1-3.17 4.98c-1.37 1.37-3 2.45-4.93 3.2-1.9.76-4.02 1.13-6.33 1.13H85.8V61.47h11.77c2.31 0 4.42.39 6.33 1.15a13.8 13.8 0 0 1 8.1 8.18 17.75 17.75 0 0 1 1.12 6.45zm-4.37 0c0-1.94-.26-3.67-.8-5.2a10.94 10.94 0 0 0-2.23-3.87 9.57 9.57 0 0 0-3.53-2.42 12.23 12.23 0 0 0-4.61-.83h-7.5v24.62h7.5c1.7 0 3.24-.28 4.61-.84a9.7 9.7 0 0 0 3.53-2.4 10.94 10.94 0 0 0 2.24-3.87c.53-1.53.8-3.26.8-5.2zm19.8 5.72c-1.8.06-3.34.2-4.62.44-1.26.22-2.3.51-3.1.88-.8.36-1.37.8-1.74 1.3-.35.5-.53 1.05-.53 1.67 0 .58.1 1.1.3 1.52a3 3 0 0 0 .76 1.05c.34.27.73.46 1.17.6a6.13 6.13 0 0 0 1.45.17 7.28 7.28 0 0 0 3.5-.81 11.95 11.95 0 0 0 2.82-2.2v-4.62zm-12.65-9.11a12.73 12.73 0 0 1 3.98-2.66c1.43-.59 3-.88 4.73-.88 1.25 0 2.36.2 3.33.61a6.81 6.81 0 0 1 3.94 4.38c.33 1.04.5 2.19.5 3.43V93h-1.74a1.8 1.8 0 0 1-.88-.18c-.2-.13-.36-.38-.48-.74l-.44-2.12-1.72 1.46a9.48 9.48 0 0 1-3.74 1.7c-.69.15-1.46.23-2.3.23-.87 0-1.69-.12-2.45-.35a5.34 5.34 0 0 1-3.34-2.93 6.64 6.64 0 0 1-.49-2.64c0-.88.25-1.72.73-2.53a6.33 6.33 0 0 1 2.35-2.17c1.09-.63 2.5-1.15 4.25-1.54 1.75-.41 3.89-.65 6.42-.7v-1.75c0-1.73-.37-3.03-1.12-3.91-.75-.9-1.84-1.34-3.28-1.34-.97 0-1.78.12-2.44.37-.64.23-1.2.5-1.7.81l-1.23.82c-.33.23-.67.35-1 .35-.27 0-.5-.07-.69-.2a2.1 2.1 0 0 1-.48-.53l-.7-1.25zm27.67 19.5c-1.76 0-3.12-.5-4.07-1.48-.94-.98-1.41-2.4-1.41-4.25V74h-2.68a.9.9 0 0 1-.6-.2c-.16-.14-.24-.36-.24-.66v-1.56l3.65-.46.9-6.89c.05-.22.14-.4.29-.52a.88.88 0 0 1 .62-.22H142v7.67h6.44V74H142v13.38c0 .94.22 1.63.68 2.09.45.45 1.04.68 1.76.68a3.21 3.21 0 0 0 1.85-.53l.55-.35c.16-.12.3-.18.41-.18.2 0 .4.13.55.38l1.15 1.87a7.45 7.45 0 0 1-2.44 1.5 8.53 8.53 0 0 1-2.95.52zm19.68-10.4c-1.8.07-3.34.21-4.62.45-1.26.22-2.3.51-3.1.88-.8.36-1.37.8-1.74 1.3-.35.5-.53 1.05-.53 1.67 0 .58.1 1.1.3 1.52a2.9 2.9 0 0 0 .76 1.05c.34.27.73.46 1.17.6a6.13 6.13 0 0 0 1.45.17 7.3 7.3 0 0 0 3.5-.81 12.04 12.04 0 0 0 2.82-2.2v-4.62zm-12.65-9.1a12.72 12.72 0 0 1 3.99-2.66c1.42-.59 3-.88 4.72-.88 1.25 0 2.36.2 3.33.61a6.81 6.81 0 0 1 3.94 4.38c.33 1.04.5 2.19.5 3.43V93h-1.74a1.8 1.8 0 0 1-.88-.18c-.2-.13-.36-.38-.48-.74l-.44-2.12-1.72 1.46a9.48 9.48 0 0 1-3.74 1.7c-.69.15-1.46.23-2.3.23-.87 0-1.69-.12-2.45-.35a5.33 5.33 0 0 1-3.34-2.93 6.62 6.62 0 0 1-.49-2.64c0-.88.25-1.72.73-2.53a6.33 6.33 0 0 1 2.35-2.17c1.09-.63 2.5-1.15 4.25-1.54 1.74-.41 3.89-.65 6.42-.7v-1.75c0-1.73-.37-3.03-1.12-3.91-.75-.9-1.84-1.34-3.28-1.34-.97 0-1.78.12-2.44.37-.64.23-1.2.5-1.7.81l-1.22.82c-.34.23-.68.35-1.02.35-.26 0-.49-.07-.68-.2a1.88 1.88 0 0 1-.48-.53l-.7-1.25zM40.98 32.25c0 2.36-.38 4.53-1.12 6.51a14.26 14.26 0 0 1-8.1 8.4c-1.9.78-4.02 1.17-6.34 1.17-2.31 0-4.42-.39-6.33-1.17a14.31 14.31 0 0 1-8.08-8.4 18.29 18.29 0 0 1-1.12-6.51c0-2.36.38-4.53 1.12-6.5.75-1.97 1.8-3.67 3.17-5.1a14.32 14.32 0 0 1 4.9-3.34c1.92-.8 4.03-1.19 6.34-1.19 2.32 0 4.43.4 6.34 1.19 1.92.8 3.56 1.9 4.93 3.34a14.87 14.87 0 0 1 3.17 5.1 18.1 18.1 0 0 1 1.12 6.5zm-4.38 0c0-1.94-.26-3.68-.8-5.22a10.91 10.91 0 0 0-2.24-3.89 9.68 9.68 0 0 0-3.52-2.46 11.95 11.95 0 0 0-4.62-.86c-1.68 0-3.21.28-4.6.86a9.88 9.88 0 0 0-3.54 2.46 10.91 10.91 0 0 0-2.24 3.9c-.53 1.53-.8 3.27-.8 5.2 0 1.94.27 3.68.8 5.22a11.17 11.17 0 0 0 2.24 3.9 10.01 10.01 0 0 0 3.55 2.44c1.38.56 2.9.83 4.6.83s3.24-.27 4.61-.83a9.8 9.8 0 0 0 3.52-2.44 11.17 11.17 0 0 0 2.25-3.9c.53-1.54.8-3.28.8-5.21zm26.22-6.54V48H60.5c-.56 0-.9-.27-1.05-.81l-.31-2.4a12.45 12.45 0 0 1-3.26 2.6c-1.2.64-2.58.96-4.13.96-1.22 0-2.3-.2-3.24-.6a6.52 6.52 0 0 1-2.33-1.7 7.37 7.37 0 0 1-1.43-2.67c-.3-1.04-.46-2.2-.46-3.45V25.7h3.91v14.22c0 1.68.38 2.99 1.15 3.91.77.93 1.96 1.39 3.54 1.39 1.16 0 2.24-.27 3.23-.82a10.42 10.42 0 0 0 2.8-2.28V25.7h3.91zm8.61 4.47a9.94 9.94 0 0 1 2.6-3.56 5.64 5.64 0 0 1 3.76-1.3c.47 0 .92.05 1.34.15.44.1.83.27 1.17.49l-.3 2.92c-.09.37-.3.55-.66.55-.2 0-.5-.04-.9-.13a6.21 6.21 0 0 0-3.24.18 4.23 4.23 0 0 0-1.47.92c-.42.4-.81.9-1.17 1.5-.33.58-.64 1.26-.92 2.02V48H67.7V25.71h2.25c.42 0 .72.08.88.25.16.16.27.44.33.83l.26 3.39zm61.16-13.7L122.75 48h-3.82l-7.99-24.05a21.95 21.95 0 0 1-.42-1.58 38.36 38.36 0 0 1-.44 1.58L102.05 48h-3.83L88.4 16.47h3.54c.38 0 .7.1.95.29.26.2.43.43.5.73l6.52 21.9.28 1.28.29 1.46.3-1.46.38-1.27 7.41-21.91c.1-.25.26-.48.51-.69.27-.22.58-.33.95-.33h1.23c.38 0 .69.1.92.29a1.77 1.77 0 0 1 .53.73l7.4 21.9a28.4 28.4 0 0 1 .68 2.62 29.52 29.52 0 0 1 .52-2.61l6.54-21.91a1.31 1.31 0 0 1 .48-.7c.27-.21.58-.32.95-.32h3.32zm9.35 8.88c1.63 0 3.1.27 4.4.82a9.43 9.43 0 0 1 5.46 5.94c.5 1.4.74 2.98.74 4.73 0 1.76-.25 3.34-.74 4.75a9.43 9.43 0 0 1-5.46 5.92c-1.3.52-2.77.79-4.4.79-1.64 0-3.12-.27-4.44-.8a9.42 9.42 0 0 1-3.35-2.3c-.92-1-1.63-2.2-2.13-3.61-.49-1.41-.73-3-.73-4.75s.24-3.33.73-4.73c.5-1.43 1.2-2.64 2.13-3.63.93-1 2.04-1.77 3.35-2.31 1.32-.55 2.8-.82 4.44-.82zm0 19.89c2.2 0 3.84-.73 4.93-2.2 1.08-1.48 1.63-3.54 1.63-6.18 0-2.66-.55-4.72-1.63-6.2-1.09-1.49-2.73-2.23-4.93-2.23-1.12 0-2.09.2-2.93.57a5.71 5.71 0 0 0-2.06 1.65c-.55.72-.96 1.61-1.24 2.67-.26 1.04-.4 2.22-.4 3.54 0 2.64.55 4.7 1.64 6.18 1.1 1.47 2.76 2.2 4.99 2.2zm17.97-15.07a9.94 9.94 0 0 1 2.6-3.56 5.64 5.64 0 0 1 3.76-1.3c.47 0 .91.05 1.34.15.44.1.83.27 1.16.49l-.28 2.92c-.09.37-.31.55-.66.55-.2 0-.5-.04-.9-.13a6.2 6.2 0 0 0-3.24.18 4.23 4.23 0 0 0-1.47.92c-.43.4-.82.9-1.17 1.5a13.1 13.1 0 0 0-.92 2.02V48h-3.94V25.71h2.24c.43 0 .72.08.88.25.17.16.28.44.33.83l.27 3.39zm15.04-14.59V48h-3.92V15.6h3.92zm19.55 15.43a6.22 6.22 0 0 0-2.38-2.05 6.7 6.7 0 0 0-2.86-.6c-2.07 0-3.66.75-4.77 2.23-1.12 1.48-1.68 3.6-1.68 6.33 0 1.46.13 2.7.38 3.74a7.29 7.29 0 0 0 1.1 2.56 4.35 4.35 0 0 0 1.78 1.45c.7.3 1.5.46 2.4.46 1.29 0 2.41-.3 3.36-.88a9.6 9.6 0 0 0 2.67-2.49V31.02zm3.91-15.43V48h-2.33c-.56 0-.9-.27-1.06-.81l-.35-2.71a12.13 12.13 0 0 1-3.25 2.77 8.28 8.28 0 0 1-4.23 1.06 7.31 7.31 0 0 1-6.14-2.9c-.73-.96-1.3-2.15-1.69-3.57a18.35 18.35 0 0 1 .07-9.48 11.29 11.29 0 0 1 1.89-3.7 8.7 8.7 0 0 1 7.06-3.34 7.96 7.96 0 0 1 6.12 2.62V15.59h3.91zM46.61 70.71V93H42.7V70.71h3.91zm.84-7c0 .39-.08.75-.24 1.09-.15.32-.35.61-.62.88-.25.25-.55.44-.9.59a2.67 2.67 0 0 1-2.16 0 2.9 2.9 0 0 1-1.45-1.47 2.67 2.67 0 0 1 0-2.16c.15-.35.35-.65.6-.9.25-.27.53-.47.85-.62a2.67 2.67 0 0 1 2.16 0c.35.15.65.35.9.62.27.25.47.55.62.9.16.34.24.7.24 1.08zm7.97 10.24c.49-.54 1-1.04 1.54-1.48a9.85 9.85 0 0 1 3.66-1.84 8.96 8.96 0 0 1 5.43.35c.94.4 1.72.97 2.33 1.71.63.74 1.11 1.62 1.43 2.67.32 1.04.49 2.19.49 3.45V93h-3.94V78.81c0-1.69-.4-3-1.17-3.92-.76-.93-1.93-1.4-3.5-1.4-1.15 0-2.24.27-3.25.83-1 .56-1.92 1.31-2.77 2.27V93h-3.94V70.71h2.35c.56 0 .9.28 1.04.82l.3 2.42zm57.7 3.3c0 2.36-.37 4.5-1.11 6.44a14.3 14.3 0 0 1-3.17 4.98c-1.37 1.37-3 2.45-4.93 3.2-1.9.76-4.02 1.13-6.33 1.13H85.8V61.47h11.77c2.31 0 4.42.39 6.33 1.15a13.8 13.8 0 0 1 8.1 8.18 17.75 17.75 0 0 1 1.12 6.45zm-4.37 0c0-1.94-.26-3.67-.8-5.2a10.94 10.94 0 0 0-2.23-3.87 9.57 9.57 0 0 0-3.53-2.42 12.23 12.23 0 0 0-4.61-.83h-7.5v24.62h7.5c1.7 0 3.24-.28 4.61-.84a9.7 9.7 0 0 0 3.53-2.4 10.94 10.94 0 0 0 2.24-3.87c.53-1.53.8-3.26.8-5.2zm19.8 5.72c-1.8.06-3.34.2-4.62.44-1.26.22-2.3.51-3.1.88-.8.36-1.37.8-1.74 1.3-.35.5-.53 1.05-.53 1.67 0 .58.1 1.1.3 1.52a3 3 0 0 0 .76 1.05c.34.27.73.46 1.17.6a6.13 6.13 0 0 0 1.45.17 7.28 7.28 0 0 0 3.5-.81 11.95 11.95 0 0 0 2.82-2.2v-4.62zm-12.65-9.11a12.73 12.73 0 0 1 3.98-2.66c1.43-.59 3-.88 4.73-.88 1.25 0 2.36.2 3.33.61a6.81 6.81 0 0 1 3.94 4.38c.33 1.04.5 2.19.5 3.43V93h-1.74a1.8 1.8 0 0 1-.88-.18c-.2-.13-.36-.38-.48-.74l-.44-2.12-1.72 1.46a9.48 9.48 0 0 1-3.74 1.7c-.69.15-1.46.23-2.3.23-.87 0-1.69-.12-2.45-.35a5.34 5.34 0 0 1-3.34-2.93 6.64 6.64 0 0 1-.49-2.64c0-.88.25-1.72.73-2.53a6.33 6.33 0 0 1 2.35-2.17c1.09-.63 2.5-1.15 4.25-1.54 1.75-.41 3.89-.65 6.42-.7v-1.75c0-1.73-.37-3.03-1.12-3.91-.75-.9-1.84-1.34-3.28-1.34-.97 0-1.78.12-2.44.37-.64.23-1.2.5-1.7.81l-1.23.82c-.33.23-.67.35-1 .35-.27 0-.5-.07-.69-.2a2.1 2.1 0 0 1-.48-.53l-.7-1.25zm27.67 19.5c-1.76 0-3.12-.5-4.07-1.48-.94-.98-1.41-2.4-1.41-4.25V74h-2.68a.9.9 0 0 1-.6-.2c-.16-.14-.24-.36-.24-.66v-1.56l3.65-.46.9-6.89c.05-.22.14-.4.29-.52a.88.88 0 0 1 .62-.22H142v7.67h6.44V74H142v13.38c0 .94.22 1.63.68 2.09.45.45 1.04.68 1.76.68a3.21 3.21 0 0 0 1.85-.53l.55-.35c.16-.12.3-.18.41-.18.2 0 .4.13.55.38l1.15 1.87a7.45 7.45 0 0 1-2.44 1.5 8.53 8.53 0 0 1-2.95.52zm19.68-10.4c-1.8.07-3.34.21-4.62.45-1.26.22-2.3.51-3.1.88-.8.36-1.37.8-1.74 1.3-.35.5-.53 1.05-.53 1.67 0 .58.1 1.1.3 1.52a2.9 2.9 0 0 0 .76 1.05c.34.27.73.46 1.17.6a6.13 6.13 0 0 0 1.45.17 7.3 7.3 0 0 0 3.5-.81 12.04 12.04 0 0 0 2.82-2.2v-4.62zm-12.65-9.1a12.72 12.72 0 0 1 3.99-2.66c1.42-.59 3-.88 4.72-.88 1.25 0 2.36.2 3.33.61a6.81 6.81 0 0 1 3.94 4.38c.33 1.04.5 2.19.5 3.43V93h-1.74a1.8 1.8 0 0 1-.88-.18c-.2-.13-.36-.38-.48-.74l-.44-2.12-1.72 1.46a9.48 9.48 0 0 1-3.74 1.7c-.69.15-1.46.23-2.3.23-.87 0-1.69-.12-2.45-.35a5.33 5.33 0 0 1-3.34-2.93 6.62 6.62 0 0 1-.49-2.64c0-.88.25-1.72.73-2.53a6.33 6.33 0 0 1 2.35-2.17c1.09-.63 2.5-1.15 4.25-1.54 1.74-.41 3.89-.65 6.42-.7v-1.75c0-1.73-.37-3.03-1.12-3.91-.75-.9-1.84-1.34-3.28-1.34-.97 0-1.78.12-2.44.37-.64.23-1.2.5-1.7.81l-1.22.82c-.34.23-.68.35-1.02.35-.26 0-.49-.07-.68-.2a1.88 1.88 0 0 1-.48-.53l-.7-1.25z"
    fill="#fff"
  />
  <path fill="#D42B21" d="M0 106.79h210V120H0z" />
</g>
<defs>
  <clipPath id="clip0"><path fill="#fff" d="M0 0h210v120H0z" /></clipPath>
</defs>
</svg></g><a href="https://ourworldindata.org/explorers/coronavirus-data-explorer?zoomToSelection=true&amp;time=162..latest&amp;pickerSort=asc&amp;pickerMetric=location&amp;Metric=Confirmed+cases&amp;Interval=7-day+rolling+average&amp;Relative+to+Population=false&amp;Align+outbreaks=false&amp;country=European+Union~USA~RUS~CHN~IND~BRA" style="font-family:&quot;Playfair Display&quot;, Georgia, &quot;Times New Roman&quot;, serif" target="_blank" rel="noopener"><text font-size="22.40" x="15.0" y="32.9" fill="#555"><tspan x="15" y="32.92">Daily new confirmed COVID-19 cases</tspan></text></a><text font-size="12.80" x="15.0" y="51.6" fill="#666"><tspan x="15" y="51.64">Shown is the rolling 7-day average. The number of confirmed cases is lower than the number of actual cases; the main reason for</tspan><tspan x="15" y="67">that is limited testing.</tspan></text></g><g class="LineChart"><defs><clipPath id="boundsClip-5"><rect x="62.416" y="68.2" width="830" height="925.1999999999999"></rect></clipPath></defs><g class="DualAxisView"><g class="HorizontalAxis"><line x1="72.4" y1="529.4" x2="72.4" y2="533.4" stroke="#ccc"></line><line x1="159.3" y1="529.4" x2="159.3" y2="533.4" stroke="#ccc"></line><line x1="273.7" y1="529.4" x2="273.7" y2="533.4" stroke="#ccc"></line><line x1="388.1" y1="529.4" x2="388.1" y2="533.4" stroke="#ccc"></line><line x1="502.4" y1="529.4" x2="502.4" y2="533.4" stroke="#ccc"></line><line x1="616.8" y1="529.4" x2="616.8" y2="533.4" stroke="#ccc"></line><line x1="712.9" y1="529.4" x2="712.9" y2="533.4" stroke="#ccc"></line><text x="72.4" y="548.8" fill="#666" text-anchor="middle" font-size="14.4">Jul 1, 2020</text><text x="159.3" y="548.8" fill="#666" text-anchor="middle" font-size="14.4">Aug 8, 2020</text><text x="273.7" y="548.8" fill="#666" text-anchor="middle" font-size="14.4">Sep 27, 2020</text><text x="388.1" y="548.8" fill="#666" text-anchor="middle" font-size="14.4">Nov 16, 2020</text><text x="502.4" y="548.8" fill="#666" text-anchor="middle" font-size="14.4">Jan 5, 2021</text><text x="616.8" y="548.8" fill="#666" text-anchor="middle" font-size="14.4">Feb 24, 2021</text><text x="712.9" y="548.8" fill="#666" text-anchor="middle" font-size="14.4">Apr 7, 2021</text></g><g class="VerticalAxis"><text x="67.42" y="529.4" fill="#666" dominant-baseline="middle" text-anchor="end" font-size="14.4">0</text><text x="67.42" y="441" fill="#666" dominant-baseline="middle" text-anchor="end" font-size="14.4">50,000</text><text x="67.42" y="352.7" fill="#666" dominant-baseline="middle" text-anchor="end" font-size="14.4">100,000</text><text x="67.42" y="264.3" fill="#666" dominant-baseline="middle" text-anchor="end" font-size="14.4">150,000</text><text x="67.42" y="175.9" fill="#666" dominant-baseline="middle" text-anchor="end" font-size="14.4">200,000</text><text x="67.42" y="87.5" fill="#666" dominant-baseline="middle" text-anchor="end" font-size="14.4">250,000</text></g><g class="AxisGridLines horizontalLines"><line x1="72.42" y1="529.4" x2="712.88" y2="529.4" stroke="#ccc"></line><line x1="72.42" y1="441" x2="712.88" y2="441" stroke="#d3d3d3" stroke-dasharray="3,2"></line><line x1="72.42" y1="352.7" x2="712.88" y2="352.7" stroke="#d3d3d3" stroke-dasharray="3,2"></line><line x1="72.42" y1="264.3" x2="712.88" y2="264.3" stroke="#d3d3d3" stroke-dasharray="3,2"></line><line x1="72.42" y1="175.9" x2="712.88" y2="175.9" stroke="#d3d3d3" stroke-dasharray="3,2"></line><line x1="72.42" y1="87.5" x2="712.88" y2="87.5" stroke="#d3d3d3" stroke-dasharray="3,2"></line></g></g><g clip-path="url(#boundsClip-5)"><g class="LineLabels" style="cursor:default"><g class="legendMark"><g class="indicator"><path d="M716.88,292.5 H730.38 V292.5 H743.88" stroke="#999" stroke-width="0.5" fill="none"></path></g><rect x="712.88" y="286.5" width="122.11999999999999" height="12" fill="#fff" opacity="0"></rect><text font-size="12.00" x="747.9" y="296.1" fill="#4C6A9C"><tspan x="747.88" y="296.1">European Union</tspan></text></g><g class="legendMark"><g class="indicator"><path d="M716.88,350.9 H730.38 V350.9 H743.88" stroke="#999" stroke-width="0.5" fill="none"></path></g><rect x="712.88" y="344.9" width="61.16" height="12" fill="#fff" opacity="0"></rect><text font-size="12.00" x="747.9" y="354.5" fill="#CD2285"><tspan x="747.88" y="354.5">India</tspan></text></g><g class="legendMark"><g class="indicator"><path d="M716.88,412.9 H730.38 V408.04999999999995 H743.88" stroke="#999" stroke-width="0.5" fill="none"></path></g><rect x="712.88" y="402.04999999999995" width="107.36" height="12" fill="#fff" opacity="0"></rect><text font-size="12.00" x="747.9" y="411.6" fill="#C05917"><tspan x="747.88" y="411.65">United States</tspan></text></g><g class="legendMark"><g class="indicator"><path d="M716.88,417.2 H730.38 V422.04999999999995 H743.88" stroke="#999" stroke-width="0.5" fill="none"></path></g><rect x="712.88" y="416.04999999999995" width="65" height="12" fill="#fff" opacity="0"></rect><text font-size="12.00" x="747.9" y="425.6" fill="#0F739C"><tspan x="747.88" y="425.65">Brazil</tspan></text></g><g class="legendMark"><g class="indicator"><path d="M716.88,514.2 H725.88 V509.40000000000003 H743.88" stroke="#999" stroke-width="0.5" fill="none"></path></g><rect x="712.88" y="503.40000000000003" width="71.72" height="12" fill="#fff" opacity="0"></rect><text font-size="12.00" x="747.9" y="513.0" fill="#D73C50"><tspan x="747.88" y="513.0000000000001">Russia</tspan></text></g><g class="legendMark"><g class="indicator"><path d="M716.88,529.3 H734.88 V523.4000000000001 H743.88" stroke="#999" stroke-width="0.5" fill="none"></path></g><rect x="712.88" y="517.4000000000001" width="66.44" height="12" fill="#fff" opacity="0"></rect><text font-size="12.00" x="747.9" y="527.0" fill="#287669"><tspan x="747.88" y="527.0000000000001">China</tspan></text></g></g><g class="Lines"><rect x="72" y="86" width="640" height="443" fill="rgba(255,255,255,0)" opacity="0"></rect><g><path stroke-linecap="round" stroke="#ddd" d="M72 464L75 462L77 463L79 463L82 464L84 465L86 462L88 463L91 464L93 463L95 463L98 463L100 463L102 464L104 465L107 465L109 467L111 470L114 470L116 470L118 471L121 464L123 460L125 454L127 449L130 448L132 448L134 448L137 447L139 448L141 449L143 450L146 450L148 452L150 449L153 452L155 453L157 454L159 453L162 453L164 452L166 452L169 452L171 451L173 450L175 453L178 452L180 453L182 454L185 456L187 459L189 465L191 462L194 462L196 463L198 463L201 464L203 464L205 461L207 463L210 465L212 457L214 459L217 459L219 459L221 457L223 460L226 460L228 469L230 476L233 479L235 480L237 481L239 481L242 481L244 480L246 474L249 474L251 475L253 476L255 476L258 475L260 476L262 477L265 486L267 478L269 480L271 482L274 482L276 482L278 482L281 474L283 482L285 490L287 482L290 483L292 484L294 481L297 482L299 484L301 477L303 485L306 484L308 485L310 493L313 494L315 494L317 493L320 494L322 497L324 492L326 489L329 490L331 491L333 491L336 490L338 487L340 489L342 488L345 487L347 486L349 488L352 490L354 491L356 493L358 498L361 499L363 505L365 501L368 500L370 500L372 499L374 496L377 490L379 481L381 484L384 480L386 479L388 479L390 476L393 479L395 479L397 477L400 478L402 477L404 476L406 477L409 474L411 473L413 474L416 469L418 468L420 467L422 462L425 461L427 458L429 455L432 457L434 457L436 457L438 457L441 456L443 455L445 453L448 453L450 454L452 453L454 455L457 451L459 446L461 447L464 445L466 444L468 444L470 441L473 447L475 450L477 457L480 466L482 467L484 469L486 468L489 465L491 466L493 466L496 466L498 466L500 467L502 467L505 465L507 457L509 450L512 439L514 436L516 434L519 432L521 433L523 438L525 434L528 434L530 433L532 433L535 434L537 433L539 435L541 438L544 438L546 439L548 439L551 439L553 439L555 438L557 437L560 438L562 439L564 439L567 441L569 443L571 444L573 446L576 461L578 449L580 455L583 450L585 449L587 449L589 449L592 438L594 451L596 443L599 448L601 449L603 449L605 449L608 446L610 445L612 447L615 445L617 442L619 439L621 436L624 434L626 433L628 431L631 431L633 430L635 428L637 425L640 423L642 411L644 412L647 409L649 407L651 407L653 405L656 403L658 412L660 411L663 408L665 405L667 402L669 401L672 400L674 399L676 396L679 397L681 397L683 393L685 395L688 393L690 394L692 397L695 396L697 396L699 398L701 402L704 412L706 416L708 418L711 418L713 417" fill="none" stroke-width="1"></path></g><g><path stroke-linecap="round" stroke="#ddd" d="M72 529L75 529L77 529L79 529L82 529L84 529L86 529L88 529L91 529L93 529L95 529L98 529L100 529L102 529L104 529L107 529L109 529L111 529L114 529L116 529L118 529L121 529L123 529L125 529L127 529L130 529L132 529L134 529L137 529L139 529L141 529L143 529L146 529L148 529L150 529L153 529L155 529L157 529L159 529L162 529L164 529L166 529L169 529L171 529L173 529L175 529L178 529L180 529L182 529L185 529L187 529L189 529L191 529L194 529L196 529L198 529L201 529L203 529L205 529L207 529L210 529L212 529L214 529L217 529L219 529L221 529L223 529L226 529L228 529L230 529L233 529L235 529L237 529L239 529L242 529L244 529L246 529L249 529L251 529L253 529L255 529L258 529L260 529L262 529L265 529L267 529L269 529L271 529L274 529L276 529L278 529L281 529L283 529L285 529L287 529L290 529L292 529L294 529L297 529L299 529L301 529L303 529L306 529L308 529L310 529L313 529L315 529L317 529L320 529L322 529L324 529L326 529L329 529L331 529L333 529L336 529L338 529L340 529L342 529L345 529L347 529L349 529L352 529L354 529L356 529L358 529L361 529L363 529L365 529L368 529L370 529L372 529L374 529L377 529L379 529L381 529L384 529L386 529L388 529L390 529L393 529L395 529L397 529L400 529L402 529L404 529L406 529L409 529L411 529L413 529L416 529L418 529L420 529L422 529L425 529L427 529L429 529L432 529L434 529L436 529L438 529L441 529L443 529L445 529L448 529L450 529L452 529L454 529L457 529L459 529L461 529L464 529L466 529L468 529L470 529L473 529L475 529L477 529L480 529L482 529L484 529L486 529L489 529L491 529L493 529L496 529L498 529L500 529L502 529L505 529L507 529L509 529L512 529L514 529L516 529L519 529L521 529L523 529L525 529L528 529L530 529L532 529L535 529L537 529L539 529L541 529L544 529L546 529L548 529L551 529L553 529L555 529L557 529L560 529L562 529L564 529L567 529L569 529L571 529L573 529L576 529L578 529L580 529L583 529L585 529L587 529L589 529L592 529L594 529L596 529L599 529L601 529L603 529L605 529L608 529L610 529L612 529L615 529L617 529L619 529L621 529L624 529L626 529L628 529L631 529L633 529L635 529L637 529L640 529L642 529L644 529L647 529L649 529L651 529L653 529L656 529L658 529L660 529L663 529L665 529L667 529L669 529L672 529L674 529L676 529L679 529L681 529L683 529L685 529L688 529L690 529L692 529L695 529L697 529L699 529L701 529L704 529L706 529L708 529L711 529L713 529" fill="none" stroke-width="1"></path></g><g><path stroke-linecap="round" stroke="#ddd" d="M72 522L75 522L77 523L79 523L82 523L84 523L86 523L88 523L91 523L93 523L95 523L98 523L100 522L102 522L104 522L107 522L109 521L111 521L114 521L116 520L118 520L121 519L123 519L125 518L127 518L130 518L132 517L134 517L137 516L139 516L141 515L143 515L146 515L148 514L150 513L153 512L155 511L157 510L159 510L162 510L164 509L166 510L169 509L171 508L173 507L175 506L178 505L180 504L182 503L185 502L187 502L189 500L191 500L194 500L196 498L198 497L201 498L203 495L205 495L207 494L210 494L212 492L214 492L217 490L219 491L221 490L223 488L226 488L228 486L230 485L233 484L235 482L237 481L239 479L242 479L244 478L246 477L249 475L251 473L253 470L255 469L258 467L260 465L262 464L265 462L267 460L269 459L271 458L274 458L276 457L278 460L281 456L283 456L285 455L287 453L290 451L292 451L294 445L297 443L299 437L301 429L303 421L306 416L308 410L310 405L313 397L315 386L317 378L320 371L322 361L324 352L326 342L329 330L331 318L333 302L336 289L338 285L340 259L342 243L345 230L347 216L349 202L352 197L354 183L356 169L358 158L361 168L363 162L365 158L368 143L370 143L372 170L374 178L377 160L379 169L381 179L384 196L386 203L388 205L390 200L393 209L395 214L397 218L400 224L402 230L404 240L406 251L409 258L411 266L413 275L416 282L418 287L420 293L422 301L425 307L427 310L429 315L432 313L434 312L436 316L438 316L441 316L443 314L445 311L448 311L450 308L452 307L454 304L457 297L459 296L461 293L464 293L466 297L468 293L470 292L473 293L475 295L477 310L480 327L482 334L484 338L486 339L489 328L491 326L493 322L496 321L498 317L500 312L502 305L505 314L507 298L509 285L512 267L514 264L516 257L519 262L521 259L523 274L525 278L528 285L530 288L532 286L535 290L537 290L539 294L541 293L544 293L546 294L548 293L551 294L553 298L555 298L557 301L560 302L562 305L564 309L567 312L569 318L571 329L573 327L576 332L578 331L580 341L583 348L585 353L587 352L589 363L592 364L594 366L596 370L599 371L601 372L603 372L605 370L608 367L610 363L612 363L615 360L617 354L619 350L621 347L624 342L626 339L628 338L631 356L633 354L635 353L637 350L640 348L642 345L644 346L647 324L649 318L651 315L653 312L656 306L658 302L660 297L663 291L665 289L667 280L669 274L672 272L674 269L676 262L679 264L681 253L683 248L685 242L688 236L690 236L692 239L695 233L697 231L699 231L701 237L704 253L706 244L708 250L711 269L713 293" fill="none" stroke-width="1"></path></g><g><path stroke-linecap="round" stroke="#ddd" d="M72 496L75 495L77 494L79 493L82 492L84 491L86 490L88 488L91 487L93 486L95 485L98 484L100 482L102 481L104 479L107 476L109 474L111 472L114 469L116 467L118 465L121 461L123 458L125 454L127 452L130 449L132 447L134 444L137 443L139 442L141 439L143 437L146 437L148 435L150 434L153 433L155 430L157 430L159 428L162 426L164 425L166 423L169 420L171 420L173 419L175 419L178 420L180 420L182 419L185 418L187 417L189 416L191 415L194 414L196 412L198 414L201 410L203 408L205 406L207 404L210 399L212 397L214 392L217 392L219 391L221 388L223 385L226 382L228 381L230 378L233 375L235 371L237 369L239 368L242 367L244 365L246 365L249 365L251 365L253 366L255 366L258 368L260 370L262 371L265 374L267 377L269 379L271 380L274 381L276 382L278 383L281 383L283 384L285 386L287 389L290 391L292 393L294 395L297 397L299 400L301 402L303 402L306 404L308 406L310 408L313 410L315 412L317 415L320 418L322 421L324 423L326 425L329 428L331 431L333 433L336 436L338 439L340 441L342 444L345 445L347 447L349 448L352 449L354 449L356 448L358 448L361 448L363 448L365 447L368 448L370 448L372 448L374 448L377 449L379 449L381 451L384 452L386 456L388 458L390 460L393 460L395 460L397 459L400 458L402 455L404 453L406 451L409 452L411 452L413 454L416 454L418 456L420 457L422 459L425 462L427 463L429 465L432 466L434 467L436 469L438 470L441 471L443 473L445 474L448 476L450 477L452 478L454 480L457 482L459 483L461 485L464 485L466 486L468 487L470 487L473 487L475 487L477 488L480 490L482 491L484 492L486 493L489 493L491 499L493 500L496 495L498 496L500 496L502 497L505 497L507 492L509 497L512 498L514 498L516 499L519 499L521 500L523 501L525 497L528 502L530 503L532 504L535 504L537 505L539 505L541 505L544 505L546 505L548 505L551 506L553 507L555 506L557 506L560 506L562 507L564 507L567 507L569 507L571 509L573 509L576 509L578 509L580 509L583 509L585 509L587 510L589 510L592 510L594 510L596 510L599 510L601 510L603 509L605 508L608 508L610 507L612 507L615 506L617 505L619 504L621 504L624 503L626 503L628 502L631 502L633 502L635 502L637 501L640 501L642 500L644 499L647 498L649 497L651 495L653 494L656 492L658 490L660 488L663 485L665 482L667 478L669 474L672 469L674 464L676 460L679 455L681 450L683 446L685 440L688 435L690 430L692 426L695 425L697 420L699 414L701 407L704 400L706 391L708 380L711 365L713 351" fill="none" stroke-width="1"></path></g><g><path stroke-linecap="round" stroke="#ddd" d="M72 517L75 518L77 518L79 518L82 518L84 518L86 518L88 518L91 518L93 518L95 518L98 518L100 518L102 518L104 518L107 518L109 518L111 518L114 518L116 518L118 519L121 519L123 519L125 519L127 519L130 519L132 519L134 519L137 519L139 520L141 520L143 520L146 520L148 520L150 520L153 520L155 520L157 520L159 520L162 520L164 520L166 520L169 520L171 520L173 521L175 521L178 521L180 521L182 521L185 521L187 521L189 521L191 521L194 521L196 521L198 521L201 521L203 521L205 521L207 521L210 521L212 521L214 521L217 521L219 521L221 521L223 521L226 521L228 521L230 521L233 520L235 520L237 520L239 520L242 520L244 520L246 520L249 520L251 520L253 520L255 520L258 519L260 519L262 519L265 519L267 519L269 518L271 518L274 518L276 517L278 517L281 516L283 515L285 515L287 514L290 514L292 513L294 512L297 511L299 511L301 510L303 509L306 509L308 508L310 507L313 507L315 506L317 505L320 505L322 504L324 504L326 503L329 503L331 502L333 502L336 501L338 501L340 501L342 501L345 500L347 500L349 500L352 499L354 499L356 499L358 498L361 497L363 497L365 496L368 496L370 495L372 494L374 494L377 494L379 493L381 493L384 492L386 492L388 491L390 491L393 491L395 490L397 490L400 489L402 489L404 488L406 488L409 487L411 486L413 486L416 485L418 484L420 484L422 484L425 483L427 483L429 483L432 482L434 482L436 481L438 481L441 481L443 481L445 481L448 481L450 481L452 482L454 481L457 481L459 481L461 481L464 481L466 481L468 481L470 480L473 480L475 479L477 479L480 479L482 479L484 480L486 480L489 480L491 481L493 481L496 482L498 483L500 484L502 485L505 485L507 486L509 487L512 488L514 488L516 488L519 489L521 489L523 489L525 488L528 488L530 488L532 488L535 489L537 489L539 490L541 490L544 491L546 492L548 493L551 494L553 494L555 495L557 496L560 496L562 497L564 497L567 498L569 498L571 499L573 499L576 500L578 500L580 501L583 501L585 502L587 502L589 503L592 503L594 503L596 504L599 504L601 505L603 505L605 506L608 506L610 506L612 507L615 507L617 507L619 508L621 508L624 509L626 509L628 509L631 510L633 510L635 510L637 510L640 510L642 510L644 511L647 511L649 511L651 512L653 512L656 512L658 513L660 513L663 513L665 513L667 513L669 513L672 513L674 513L676 513L679 513L681 513L683 513L685 513L688 514L690 514L692 514L695 514L697 514L699 514L701 514L704 514L706 514L708 514L711 514L713 514" fill="none" stroke-width="1"></path></g><g><path stroke-linecap="round" stroke="#ddd" d="M72 452L75 448L77 446L79 445L82 443L84 442L86 439L88 436L91 435L93 431L95 427L98 425L100 421L102 419L104 417L107 414L109 413L111 412L114 412L116 411L118 412L121 411L123 413L125 413L127 412L130 414L132 415L134 414L137 414L139 414L141 416L143 418L146 420L148 423L150 425L153 429L155 431L157 434L159 434L162 434L164 434L166 436L169 436L171 438L173 436L175 438L178 440L180 443L182 443L185 446L187 448L189 452L191 453L194 454L196 454L198 455L201 456L203 455L205 456L207 456L210 456L212 456L214 456L217 457L219 457L221 456L223 456L226 457L228 460L230 464L233 465L235 467L237 468L239 469L242 468L244 465L246 462L249 461L251 458L253 458L255 458L258 457L260 452L262 452L265 452L267 452L269 452L271 451L274 452L276 456L278 455L281 455L283 456L285 454L287 453L290 453L292 452L294 451L297 448L299 445L301 445L303 443L306 441L308 440L310 438L313 436L315 435L317 431L320 431L322 430L324 423L326 421L329 420L331 417L333 414L336 407L338 404L340 404L342 401L345 396L347 393L349 388L352 387L354 376L356 371L358 359L361 352L363 343L365 335L368 326L370 323L372 314L374 311L377 300L379 291L381 278L384 268L386 263L388 252L390 246L393 239L395 233L397 228L400 225L402 222L404 220L406 217L409 214L411 234L413 232L416 238L418 239L420 243L422 240L425 235L427 207L429 200L432 185L434 175L436 166L438 157L441 152L443 150L445 148L448 148L450 146L452 146L454 150L457 144L459 142L461 139L464 145L466 145L468 144L470 147L473 151L475 163L477 202L480 193L482 201L484 207L486 207L489 206L491 195L493 181L496 162L498 149L500 147L502 138L505 132L507 122L509 86L512 96L514 95L516 87L519 89L521 95L523 106L525 119L528 134L530 143L532 161L535 174L537 186L539 196L541 209L544 217L546 229L548 227L551 234L553 242L555 248L557 254L560 261L562 266L564 270L567 279L569 287L571 298L573 306L576 316L578 321L580 333L583 338L585 344L587 349L589 358L592 362L594 368L596 377L599 386L601 392L603 401L605 406L608 410L610 412L612 412L615 409L617 408L619 406L621 407L624 408L626 410L628 409L631 413L633 415L635 417L637 420L640 422L642 424L644 428L647 428L649 430L651 431L653 433L656 434L658 435L660 432L663 433L665 432L667 433L669 433L672 432L674 433L676 435L679 435L681 428L683 426L685 422L688 420L690 418L692 413L695 411L697 416L699 413L701 415L704 415L706 417L708 415L711 415L713 413" fill="none" stroke-width="1"></path></g><g><path stroke="#0F739C" stroke-linecap="round" d="M72 464L75 462L77 463L79 463L82 464L84 465L86 462L88 463L91 464L93 463L95 463L98 463L100 463L102 464L104 465L107 465L109 467L111 470L114 470L116 470L118 471L121 464L123 460L125 454L127 449L130 448L132 448L134 448L137 447L139 448L141 449L143 450L146 450L148 452L150 449L153 452L155 453L157 454L159 453L162 453L164 452L166 452L169 452L171 451L173 450L175 453L178 452L180 453L182 454L185 456L187 459L189 465L191 462L194 462L196 463L198 463L201 464L203 464L205 461L207 463L210 465L212 457L214 459L217 459L219 459L221 457L223 460L226 460L228 469L230 476L233 479L235 480L237 481L239 481L242 481L244 480L246 474L249 474L251 475L253 476L255 476L258 475L260 476L262 477L265 486L267 478L269 480L271 482L274 482L276 482L278 482L281 474L283 482L285 490L287 482L290 483L292 484L294 481L297 482L299 484L301 477L303 485L306 484L308 485L310 493L313 494L315 494L317 493L320 494L322 497L324 492L326 489L329 490L331 491L333 491L336 490L338 487L340 489L342 488L345 487L347 486L349 488L352 490L354 491L356 493L358 498L361 499L363 505L365 501L368 500L370 500L372 499L374 496L377 490L379 481L381 484L384 480L386 479L388 479L390 476L393 479L395 479L397 477L400 478L402 477L404 476L406 477L409 474L411 473L413 474L416 469L418 468L420 467L422 462L425 461L427 458L429 455L432 457L434 457L436 457L438 457L441 456L443 455L445 453L448 453L450 454L452 453L454 455L457 451L459 446L461 447L464 445L466 444L468 444L470 441L473 447L475 450L477 457L480 466L482 467L484 469L486 468L489 465L491 466L493 466L496 466L498 466L500 467L502 467L505 465L507 457L509 450L512 439L514 436L516 434L519 432L521 433L523 438L525 434L528 434L530 433L532 433L535 434L537 433L539 435L541 438L544 438L546 439L548 439L551 439L553 439L555 438L557 437L560 438L562 439L564 439L567 441L569 443L571 444L573 446L576 461L578 449L580 455L583 450L585 449L587 449L589 449L592 438L594 451L596 443L599 448L601 449L603 449L605 449L608 446L610 445L612 447L615 445L617 442L619 439L621 436L624 434L626 433L628 431L631 431L633 430L635 428L637 425L640 423L642 411L644 412L647 409L649 407L651 407L653 405L656 403L658 412L660 411L663 408L665 405L667 402L669 401L672 400L674 399L676 396L679 397L681 397L683 393L685 395L688 393L690 394L692 397L695 396L697 396L699 398L701 402L704 412L706 416L708 418L711 418L713 417" fill="none" stroke-width="1.5"></path></g><g><path stroke="#287669" stroke-linecap="round" d="M72 529L75 529L77 529L79 529L82 529L84 529L86 529L88 529L91 529L93 529L95 529L98 529L100 529L102 529L104 529L107 529L109 529L111 529L114 529L116 529L118 529L121 529L123 529L125 529L127 529L130 529L132 529L134 529L137 529L139 529L141 529L143 529L146 529L148 529L150 529L153 529L155 529L157 529L159 529L162 529L164 529L166 529L169 529L171 529L173 529L175 529L178 529L180 529L182 529L185 529L187 529L189 529L191 529L194 529L196 529L198 529L201 529L203 529L205 529L207 529L210 529L212 529L214 529L217 529L219 529L221 529L223 529L226 529L228 529L230 529L233 529L235 529L237 529L239 529L242 529L244 529L246 529L249 529L251 529L253 529L255 529L258 529L260 529L262 529L265 529L267 529L269 529L271 529L274 529L276 529L278 529L281 529L283 529L285 529L287 529L290 529L292 529L294 529L297 529L299 529L301 529L303 529L306 529L308 529L310 529L313 529L315 529L317 529L320 529L322 529L324 529L326 529L329 529L331 529L333 529L336 529L338 529L340 529L342 529L345 529L347 529L349 529L352 529L354 529L356 529L358 529L361 529L363 529L365 529L368 529L370 529L372 529L374 529L377 529L379 529L381 529L384 529L386 529L388 529L390 529L393 529L395 529L397 529L400 529L402 529L404 529L406 529L409 529L411 529L413 529L416 529L418 529L420 529L422 529L425 529L427 529L429 529L432 529L434 529L436 529L438 529L441 529L443 529L445 529L448 529L450 529L452 529L454 529L457 529L459 529L461 529L464 529L466 529L468 529L470 529L473 529L475 529L477 529L480 529L482 529L484 529L486 529L489 529L491 529L493 529L496 529L498 529L500 529L502 529L505 529L507 529L509 529L512 529L514 529L516 529L519 529L521 529L523 529L525 529L528 529L530 529L532 529L535 529L537 529L539 529L541 529L544 529L546 529L548 529L551 529L553 529L555 529L557 529L560 529L562 529L564 529L567 529L569 529L571 529L573 529L576 529L578 529L580 529L583 529L585 529L587 529L589 529L592 529L594 529L596 529L599 529L601 529L603 529L605 529L608 529L610 529L612 529L615 529L617 529L619 529L621 529L624 529L626 529L628 529L631 529L633 529L635 529L637 529L640 529L642 529L644 529L647 529L649 529L651 529L653 529L656 529L658 529L660 529L663 529L665 529L667 529L669 529L672 529L674 529L676 529L679 529L681 529L683 529L685 529L688 529L690 529L692 529L695 529L697 529L699 529L701 529L704 529L706 529L708 529L711 529L713 529" fill="none" stroke-width="1.5"></path></g><g><path stroke="#4C6A9C" stroke-linecap="round" d="M72 522L75 522L77 523L79 523L82 523L84 523L86 523L88 523L91 523L93 523L95 523L98 523L100 522L102 522L104 522L107 522L109 521L111 521L114 521L116 520L118 520L121 519L123 519L125 518L127 518L130 518L132 517L134 517L137 516L139 516L141 515L143 515L146 515L148 514L150 513L153 512L155 511L157 510L159 510L162 510L164 509L166 510L169 509L171 508L173 507L175 506L178 505L180 504L182 503L185 502L187 502L189 500L191 500L194 500L196 498L198 497L201 498L203 495L205 495L207 494L210 494L212 492L214 492L217 490L219 491L221 490L223 488L226 488L228 486L230 485L233 484L235 482L237 481L239 479L242 479L244 478L246 477L249 475L251 473L253 470L255 469L258 467L260 465L262 464L265 462L267 460L269 459L271 458L274 458L276 457L278 460L281 456L283 456L285 455L287 453L290 451L292 451L294 445L297 443L299 437L301 429L303 421L306 416L308 410L310 405L313 397L315 386L317 378L320 371L322 361L324 352L326 342L329 330L331 318L333 302L336 289L338 285L340 259L342 243L345 230L347 216L349 202L352 197L354 183L356 169L358 158L361 168L363 162L365 158L368 143L370 143L372 170L374 178L377 160L379 169L381 179L384 196L386 203L388 205L390 200L393 209L395 214L397 218L400 224L402 230L404 240L406 251L409 258L411 266L413 275L416 282L418 287L420 293L422 301L425 307L427 310L429 315L432 313L434 312L436 316L438 316L441 316L443 314L445 311L448 311L450 308L452 307L454 304L457 297L459 296L461 293L464 293L466 297L468 293L470 292L473 293L475 295L477 310L480 327L482 334L484 338L486 339L489 328L491 326L493 322L496 321L498 317L500 312L502 305L505 314L507 298L509 285L512 267L514 264L516 257L519 262L521 259L523 274L525 278L528 285L530 288L532 286L535 290L537 290L539 294L541 293L544 293L546 294L548 293L551 294L553 298L555 298L557 301L560 302L562 305L564 309L567 312L569 318L571 329L573 327L576 332L578 331L580 341L583 348L585 353L587 352L589 363L592 364L594 366L596 370L599 371L601 372L603 372L605 370L608 367L610 363L612 363L615 360L617 354L619 350L621 347L624 342L626 339L628 338L631 356L633 354L635 353L637 350L640 348L642 345L644 346L647 324L649 318L651 315L653 312L656 306L658 302L660 297L663 291L665 289L667 280L669 274L672 272L674 269L676 262L679 264L681 253L683 248L685 242L688 236L690 236L692 239L695 233L697 231L699 231L701 237L704 253L706 244L708 250L711 269L713 293" fill="none" stroke-width="1.5"></path></g><g><path stroke="#CD2285" stroke-linecap="round" d="M72 496L75 495L77 494L79 493L82 492L84 491L86 490L88 488L91 487L93 486L95 485L98 484L100 482L102 481L104 479L107 476L109 474L111 472L114 469L116 467L118 465L121 461L123 458L125 454L127 452L130 449L132 447L134 444L137 443L139 442L141 439L143 437L146 437L148 435L150 434L153 433L155 430L157 430L159 428L162 426L164 425L166 423L169 420L171 420L173 419L175 419L178 420L180 420L182 419L185 418L187 417L189 416L191 415L194 414L196 412L198 414L201 410L203 408L205 406L207 404L210 399L212 397L214 392L217 392L219 391L221 388L223 385L226 382L228 381L230 378L233 375L235 371L237 369L239 368L242 367L244 365L246 365L249 365L251 365L253 366L255 366L258 368L260 370L262 371L265 374L267 377L269 379L271 380L274 381L276 382L278 383L281 383L283 384L285 386L287 389L290 391L292 393L294 395L297 397L299 400L301 402L303 402L306 404L308 406L310 408L313 410L315 412L317 415L320 418L322 421L324 423L326 425L329 428L331 431L333 433L336 436L338 439L340 441L342 444L345 445L347 447L349 448L352 449L354 449L356 448L358 448L361 448L363 448L365 447L368 448L370 448L372 448L374 448L377 449L379 449L381 451L384 452L386 456L388 458L390 460L393 460L395 460L397 459L400 458L402 455L404 453L406 451L409 452L411 452L413 454L416 454L418 456L420 457L422 459L425 462L427 463L429 465L432 466L434 467L436 469L438 470L441 471L443 473L445 474L448 476L450 477L452 478L454 480L457 482L459 483L461 485L464 485L466 486L468 487L470 487L473 487L475 487L477 488L480 490L482 491L484 492L486 493L489 493L491 499L493 500L496 495L498 496L500 496L502 497L505 497L507 492L509 497L512 498L514 498L516 499L519 499L521 500L523 501L525 497L528 502L530 503L532 504L535 504L537 505L539 505L541 505L544 505L546 505L548 505L551 506L553 507L555 506L557 506L560 506L562 507L564 507L567 507L569 507L571 509L573 509L576 509L578 509L580 509L583 509L585 509L587 510L589 510L592 510L594 510L596 510L599 510L601 510L603 509L605 508L608 508L610 507L612 507L615 506L617 505L619 504L621 504L624 503L626 503L628 502L631 502L633 502L635 502L637 501L640 501L642 500L644 499L647 498L649 497L651 495L653 494L656 492L658 490L660 488L663 485L665 482L667 478L669 474L672 469L674 464L676 460L679 455L681 450L683 446L685 440L688 435L690 430L692 426L695 425L697 420L699 414L701 407L704 400L706 391L708 380L711 365L713 351" fill="none" stroke-width="1.5"></path></g><g><path stroke="#D73C50" stroke-linecap="round" d="M72 517L75 518L77 518L79 518L82 518L84 518L86 518L88 518L91 518L93 518L95 518L98 518L100 518L102 518L104 518L107 518L109 518L111 518L114 518L116 518L118 519L121 519L123 519L125 519L127 519L130 519L132 519L134 519L137 519L139 520L141 520L143 520L146 520L148 520L150 520L153 520L155 520L157 520L159 520L162 520L164 520L166 520L169 520L171 520L173 521L175 521L178 521L180 521L182 521L185 521L187 521L189 521L191 521L194 521L196 521L198 521L201 521L203 521L205 521L207 521L210 521L212 521L214 521L217 521L219 521L221 521L223 521L226 521L228 521L230 521L233 520L235 520L237 520L239 520L242 520L244 520L246 520L249 520L251 520L253 520L255 520L258 519L260 519L262 519L265 519L267 519L269 518L271 518L274 518L276 517L278 517L281 516L283 515L285 515L287 514L290 514L292 513L294 512L297 511L299 511L301 510L303 509L306 509L308 508L310 507L313 507L315 506L317 505L320 505L322 504L324 504L326 503L329 503L331 502L333 502L336 501L338 501L340 501L342 501L345 500L347 500L349 500L352 499L354 499L356 499L358 498L361 497L363 497L365 496L368 496L370 495L372 494L374 494L377 494L379 493L381 493L384 492L386 492L388 491L390 491L393 491L395 490L397 490L400 489L402 489L404 488L406 488L409 487L411 486L413 486L416 485L418 484L420 484L422 484L425 483L427 483L429 483L432 482L434 482L436 481L438 481L441 481L443 481L445 481L448 481L450 481L452 482L454 481L457 481L459 481L461 481L464 481L466 481L468 481L470 480L473 480L475 479L477 479L480 479L482 479L484 480L486 480L489 480L491 481L493 481L496 482L498 483L500 484L502 485L505 485L507 486L509 487L512 488L514 488L516 488L519 489L521 489L523 489L525 488L528 488L530 488L532 488L535 489L537 489L539 490L541 490L544 491L546 492L548 493L551 494L553 494L555 495L557 496L560 496L562 497L564 497L567 498L569 498L571 499L573 499L576 500L578 500L580 501L583 501L585 502L587 502L589 503L592 503L594 503L596 504L599 504L601 505L603 505L605 506L608 506L610 506L612 507L615 507L617 507L619 508L621 508L624 509L626 509L628 509L631 510L633 510L635 510L637 510L640 510L642 510L644 511L647 511L649 511L651 512L653 512L656 512L658 513L660 513L663 513L665 513L667 513L669 513L672 513L674 513L676 513L679 513L681 513L683 513L685 513L688 514L690 514L692 514L695 514L697 514L699 514L701 514L704 514L706 514L708 514L711 514L713 514" fill="none" stroke-width="1.5"></path></g><g><path stroke="#C05917" stroke-linecap="round" d="M72 452L75 448L77 446L79 445L82 443L84 442L86 439L88 436L91 435L93 431L95 427L98 425L100 421L102 419L104 417L107 414L109 413L111 412L114 412L116 411L118 412L121 411L123 413L125 413L127 412L130 414L132 415L134 414L137 414L139 414L141 416L143 418L146 420L148 423L150 425L153 429L155 431L157 434L159 434L162 434L164 434L166 436L169 436L171 438L173 436L175 438L178 440L180 443L182 443L185 446L187 448L189 452L191 453L194 454L196 454L198 455L201 456L203 455L205 456L207 456L210 456L212 456L214 456L217 457L219 457L221 456L223 456L226 457L228 460L230 464L233 465L235 467L237 468L239 469L242 468L244 465L246 462L249 461L251 458L253 458L255 458L258 457L260 452L262 452L265 452L267 452L269 452L271 451L274 452L276 456L278 455L281 455L283 456L285 454L287 453L290 453L292 452L294 451L297 448L299 445L301 445L303 443L306 441L308 440L310 438L313 436L315 435L317 431L320 431L322 430L324 423L326 421L329 420L331 417L333 414L336 407L338 404L340 404L342 401L345 396L347 393L349 388L352 387L354 376L356 371L358 359L361 352L363 343L365 335L368 326L370 323L372 314L374 311L377 300L379 291L381 278L384 268L386 263L388 252L390 246L393 239L395 233L397 228L400 225L402 222L404 220L406 217L409 214L411 234L413 232L416 238L418 239L420 243L422 240L425 235L427 207L429 200L432 185L434 175L436 166L438 157L441 152L443 150L445 148L448 148L450 146L452 146L454 150L457 144L459 142L461 139L464 145L466 145L468 144L470 147L473 151L475 163L477 202L480 193L482 201L484 207L486 207L489 206L491 195L493 181L496 162L498 149L500 147L502 138L505 132L507 122L509 86L512 96L514 95L516 87L519 89L521 95L523 106L525 119L528 134L530 143L532 161L535 174L537 186L539 196L541 209L544 217L546 229L548 227L551 234L553 242L555 248L557 254L560 261L562 266L564 270L567 279L569 287L571 298L573 306L576 316L578 321L580 333L583 338L585 344L587 349L589 358L592 362L594 368L596 377L599 386L601 392L603 401L605 406L608 410L610 412L612 412L615 409L617 408L619 406L621 407L624 408L626 410L628 409L631 413L633 415L635 417L637 420L640 422L642 424L644 428L647 428L649 430L651 431L653 433L656 434L658 435L660 432L663 433L665 432L667 433L669 433L672 432L674 433L676 435L679 435L681 428L683 426L685 422L688 420L690 418L692 413L695 411L697 416L699 413L701 415L704 415L706 417L708 415L711 415L713 413" fill="none" stroke-width="1.5"></path></g></g></g></g><g class="SourcesFooter" style="fill:#777"><g style="fill:#777"><text font-size="11.20" x="15.0" y="582.8"><tspan x="15" y="582.76">Source: Johns Hopkins University CSSE COVID-19 Data</tspan></text></g><text font-size="11.20" x="800.7" y="582.8"><tspan x="800.728" y="582.76"><a style="fill: #777;" class="cclogo" href="http://creativecommons.org/licenses/by/4.0/deed.en_US" target="_blank">CC BY</a></tspan></text></g></svg>