<svg xmlns="http://www.w3.org/2000/svg" version="1.1" style="font-family:&#x27;Segoe UI&#x27;, sans-serif;font-size:18px;background-color:white;" viewBox="0 0 850 600"><g class="HeaderView"><g transform="translate(774, 15) scale(0.29)"><svg className="owidLog" width="210" height="120" viewBox="0 0 210 120" fill="none" xmlns="http://www.w3.org/2000/svg">
<g clip-path="url(#clip0)">
  <path d="M0 0h210v107.89H0V0z" fill="#002147" />
  <path
    d="M40.98 32.25c0 2.36-.38 4.53-1.12 6.51a14.26 14.26 0 0 1-8.1 8.4c-1.9.78-4.02 1.17-6.34 1.17-2.31 0-4.42-.39-6.33-1.17a14.31 14.31 0 0 1-8.08-8.4 18.29 18.29 0 0 1-1.12-6.51c0-2.36.38-4.53 1.12-6.5.75-1.97 1.8-3.67 3.17-5.1a14.32 14.32 0 0 1 4.9-3.34c1.92-.8 4.03-1.19 6.34-1.19 2.32 0 4.43.4 6.34 1.19 1.92.8 3.56 1.9 4.93 3.34a14.87 14.87 0 0 1 3.17 5.1 18.1 18.1 0 0 1 1.12 6.5zm-4.38 0c0-1.94-.26-3.68-.8-5.22a10.91 10.91 0 0 0-2.24-3.89 9.68 9.68 0 0 0-3.52-2.46 11.95 11.95 0 0 0-4.62-.86c-1.68 0-3.21.28-4.6.86a9.88 9.88 0 0 0-3.54 2.46 10.91 10.91 0 0 0-2.24 3.9c-.53 1.53-.8 3.27-.8 5.2 0 1.94.27 3.68.8 5.22a11.17 11.17 0 0 0 2.24 3.9 10.01 10.01 0 0 0 3.55 2.44c1.38.56 2.9.83 4.6.83s3.24-.27 4.61-.83a9.8 9.8 0 0 0 3.52-2.44 11.17 11.17 0 0 0 2.25-3.9c.53-1.54.8-3.28.8-5.21zm26.22-6.54V48H60.5c-.56 0-.9-.27-1.05-.81l-.31-2.4a12.45 12.45 0 0 1-3.26 2.6c-1.2.64-2.58.96-4.13.96-1.22 0-2.3-.2-3.24-.6a6.52 6.52 0 0 1-2.33-1.7 7.37 7.37 0 0 1-1.43-2.67c-.3-1.04-.46-2.2-.46-3.45V25.7h3.91v14.22c0 1.68.38 2.99 1.15 3.91.77.93 1.96 1.39 3.54 1.39 1.16 0 2.24-.27 3.23-.82a10.42 10.42 0 0 0 2.8-2.28V25.7h3.91zm8.61 4.47a9.94 9.94 0 0 1 2.6-3.56 5.64 5.64 0 0 1 3.76-1.3c.47 0 .92.05 1.34.15.44.1.83.27 1.17.49l-.3 2.92c-.09.37-.3.55-.66.55-.2 0-.5-.04-.9-.13a6.21 6.21 0 0 0-3.24.18 4.23 4.23 0 0 0-1.47.92c-.42.4-.81.9-1.17 1.5-.33.58-.64 1.26-.92 2.02V48H67.7V25.71h2.25c.42 0 .72.08.88.25.16.16.27.44.33.83l.26 3.39zm61.16-13.7L122.75 48h-3.82l-7.99-24.05a21.95 21.95 0 0 1-.42-1.58 38.36 38.36 0 0 1-.44 1.58L102.05 48h-3.83L88.4 16.47h3.54c.38 0 .7.1.95.29.26.2.43.43.5.73l6.52 21.9.28 1.28.29 1.46.3-1.46.38-1.27 7.41-21.91c.1-.25.26-.48.51-.69.27-.22.58-.33.95-.33h1.23c.38 0 .69.1.92.29a1.77 1.77 0 0 1 .53.73l7.4 21.9a28.4 28.4 0 0 1 .68 2.62 29.52 29.52 0 0 1 .52-2.61l6.54-21.91a1.31 1.31 0 0 1 .48-.7c.27-.21.58-.32.95-.32h3.32zm9.35 8.88c1.63 0 3.1.27 4.4.82a9.43 9.43 0 0 1 5.46 5.94c.5 1.4.74 2.98.74 4.73 0 1.76-.25 3.34-.74 4.75a9.43 9.43 0 0 1-5.46 5.92c-1.3.52-2.77.79-4.4.79-1.64 0-3.12-.27-4.44-.8a9.42 9.42 0 0 1-3.35-2.3c-.92-1-1.63-2.2-2.13-3.61-.49-1.41-.73-3-.73-4.75s.24-3.33.73-4.73c.5-1.43 1.2-2.64 2.13-3.63.93-1 2.04-1.77 3.35-2.31 1.32-.55 2.8-.82 4.44-.82zm0 19.89c2.2 0 3.84-.73 4.93-2.2 1.08-1.48 1.63-3.54 1.63-6.18 0-2.66-.55-4.72-1.63-6.2-1.09-1.49-2.73-2.23-4.93-2.23-1.12 0-2.09.2-2.93.57a5.71 5.71 0 0 0-2.06 1.65c-.55.72-.96 1.61-1.24 2.67-.26 1.04-.4 2.22-.4 3.54 0 2.64.55 4.7 1.64 6.18 1.1 1.47 2.76 2.2 4.99 2.2zm17.97-15.07a9.94 9.94 0 0 1 2.6-3.56 5.64 5.64 0 0 1 3.76-1.3c.47 0 .91.05 1.34.15.44.1.83.27 1.16.49l-.28 2.92c-.09.37-.31.55-.66.55-.2 0-.5-.04-.9-.13a6.2 6.2 0 0 0-3.24.18 4.23 4.23 0 0 0-1.47.92c-.43.4-.82.9-1.17 1.5a13.1 13.1 0 0 0-.92 2.02V48h-3.94V25.71h2.24c.43 0 .72.08.88.25.17.16.28.44.33.83l.27 3.39zm15.04-14.59V48h-3.92V15.6h3.92zm19.55 15.43a6.22 6.22 0 0 0-2.38-2.05 6.7 6.7 0 0 0-2.86-.6c-2.07 0-3.66.75-4.77 2.23-1.12 1.48-1.68 3.6-1.68 6.33 0 1.46.13 2.7.38 3.74a7.29 7.29 0 0 0 1.1 2.56 4.35 4.35 0 0 0 1.78 1.45c.7.3 1.5.46 2.4.46 1.29 0 2.41-.3 3.36-.88a9.6 9.6 0 0 0 2.67-2.49V31.02zm3.91-15.43V48h-2.33c-.56 0-.9-.27-1.06-.81l-.35-2.71a12.13 12.13 0 0 1-3.25 2.77 8.28 8.28 0 0 1-4.23 1.06 7.31 7.31 0 0 1-6.14-2.9c-.73-.96-1.3-2.15-1.69-3.57a18.35 18.35 0 0 1 .07-9.48 11.29 11.29 0 0 1 1.89-3.7 8.7 8.7 0 0 1 7.06-3.34 7.96 7.96 0 0 1 6.12 2.62V15.59h3.91zM46.61 70.71V93H42.7V70.71h3.91zm.84-7c0 .39-.08.75-.24 1.09-.15.32-.35.61-.62.88-.25.25-.55.44-.9.59a2.67 2.67 0 0 1-2.16 0 2.9 2.9 0 0 1-1.45-1.47 2.67 2.67 0 0 1 0-2.16c.15-.35.35-.65.6-.9.25-.27.53-.47.85-.62a2.67 2.67 0 0 1 2.16 0c.35.15.65.35.9.62.27.25.47.55.62.9.16.34.24.7.24 1.08zm7.97 10.24c.49-.54 1-1.04 1.54-1.48a9.85 9.85 0 0 1 3.66-1.84 8.96 8.96 0 0 1 5.43.35c.94.4 1.72.97 2.33 1.71.63.74 1.11 1.62 1.43 2.67.32 1.04.49 2.19.49 3.45V93h-3.94V78.81c0-1.69-.4-3-1.17-3.92-.76-.93-1.93-1.4-3.5-1.4-1.15 0-2.24.27-3.25.83-1 .56-1.92 1.31-2.77 2.27V93h-3.94V70.71h2.35c.56 0 .9.28 1.04.82l.3 2.42zm57.7 3.3c0 2.36-.37 4.5-1.11 6.44a14.3 14.3 0 0 1-3.17 4.98c-1.37 1.37-3 2.45-4.93 3.2-1.9.76-4.02 1.13-6.33 1.13H85.8V61.47h11.77c2.31 0 4.42.39 6.33 1.15a13.8 13.8 0 0 1 8.1 8.18 17.75 17.75 0 0 1 1.12 6.45zm-4.37 0c0-1.94-.26-3.67-.8-5.2a10.94 10.94 0 0 0-2.23-3.87 9.57 9.57 0 0 0-3.53-2.42 12.23 12.23 0 0 0-4.61-.83h-7.5v24.62h7.5c1.7 0 3.24-.28 4.61-.84a9.7 9.7 0 0 0 3.53-2.4 10.94 10.94 0 0 0 2.24-3.87c.53-1.53.8-3.26.8-5.2zm19.8 5.72c-1.8.06-3.34.2-4.62.44-1.26.22-2.3.51-3.1.88-.8.36-1.37.8-1.74 1.3-.35.5-.53 1.05-.53 1.67 0 .58.1 1.1.3 1.52a3 3 0 0 0 .76 1.05c.34.27.73.46 1.17.6a6.13 6.13 0 0 0 1.45.17 7.28 7.28 0 0 0 3.5-.81 11.95 11.95 0 0 0 2.82-2.2v-4.62zm-12.65-9.11a12.73 12.73 0 0 1 3.98-2.66c1.43-.59 3-.88 4.73-.88 1.25 0 2.36.2 3.33.61a6.81 6.81 0 0 1 3.94 4.38c.33 1.04.5 2.19.5 3.43V93h-1.74a1.8 1.8 0 0 1-.88-.18c-.2-.13-.36-.38-.48-.74l-.44-2.12-1.72 1.46a9.48 9.48 0 0 1-3.74 1.7c-.69.15-1.46.23-2.3.23-.87 0-1.69-.12-2.45-.35a5.34 5.34 0 0 1-3.34-2.93 6.64 6.64 0 0 1-.49-2.64c0-.88.25-1.72.73-2.53a6.33 6.33 0 0 1 2.35-2.17c1.09-.63 2.5-1.15 4.25-1.54 1.75-.41 3.89-.65 6.42-.7v-1.75c0-1.73-.37-3.03-1.12-3.91-.75-.9-1.84-1.34-3.28-1.34-.97 0-1.78.12-2.44.37-.64.23-1.2.5-1.7.81l-1.23.82c-.33.23-.67.35-1 .35-.27 0-.5-.07-.69-.2a2.1 2.1 0 0 1-.48-.53l-.7-1.25zm27.67 19.5c-1.76 0-3.12-.5-4.07-1.48-.94-.98-1.41-2.4-1.41-4.25V74h-2.68a.9.9 0 0 1-.6-.2c-.16-.14-.24-.36-.24-.66v-1.56l3.65-.46.9-6.89c.05-.22.14-.4.29-.52a.88.88 0 0 1 .62-.22H142v7.67h6.44V74H142v13.38c0 .94.22 1.63.68 2.09.45.45 1.04.68 1.76.68a3.21 3.21 0 0 0 1.85-.53l.55-.35c.16-.12.3-.18.41-.18.2 0 .4.13.55.38l1.15 1.87a7.45 7.45 0 0 1-2.44 1.5 8.53 8.53 0 0 1-2.95.52zm19.68-10.4c-1.8.07-3.34.21-4.62.45-1.26.22-2.3.51-3.1.88-.8.36-1.37.8-1.74 1.3-.35.5-.53 1.05-.53 1.67 0 .58.1 1.1.3 1.52a2.9 2.9 0 0 0 .76 1.05c.34.27.73.46 1.17.6a6.13 6.13 0 0 0 1.45.17 7.3 7.3 0 0 0 3.5-.81 12.04 12.04 0 0 0 2.82-2.2v-4.62zm-12.65-9.1a12.72 12.72 0 0 1 3.99-2.66c1.42-.59 3-.88 4.72-.88 1.25 0 2.36.2 3.33.61a6.81 6.81 0 0 1 3.94 4.38c.33 1.04.5 2.19.5 3.43V93h-1.74a1.8 1.8 0 0 1-.88-.18c-.2-.13-.36-.38-.48-.74l-.44-2.12-1.72 1.46a9.48 9.48 0 0 1-3.74 1.7c-.69.15-1.46.23-2.3.23-.87 0-1.69-.12-2.45-.35a5.33 5.33 0 0 1-3.34-2.93 6.62 6.62 0 0 1-.49-2.64c0-.88.25-1.72.73-2.53a6.33 6.33 0 0 1 2.35-2.17c1.09-.63 2.5-1.15 4.25-1.54 1.74-.41 3.89-.65 6.42-.7v-1.75c0-1.73-.37-3.03-1.12-3.91-.75-.9-1.84-1.34-3.28-1.34-.97 0-1.78.12-2.44.37-.64.23-1.2.5-1.7.81l-1.22.82c-.34.23-.68.35-1.02.35-.26 0-.49-.07-.68-.2a1.88 1.88 0 0 1-.48-.53l-.7-1.25zM40.98 32.25c0 2.36-.38 4.53-1.12 6.51a14.26 14.26 0 0 1-8.1 8.4c-1.9.78-4.02 1.17-6.34 1.17-2.31 0-4.42-.39-6.33-1.17a14.31 14.31 0 0 1-8.08-8.4 18.29 18.29 0 0 1-1.12-6.51c0-2.36.38-4.53 1.12-6.5.75-1.97 1.8-3.67 3.17-5.1a14.32 14.32 0 0 1 4.9-3.34c1.92-.8 4.03-1.19 6.34-1.19 2.32 0 4.43.4 6.34 1.19 1.92.8 3.56 1.9 4.93 3.34a14.87 14.87 0 0 1 3.17 5.1 18.1 18.1 0 0 1 1.12 6.5zm-4.38 0c0-1.94-.26-3.68-.8-5.22a10.91 10.91 0 0 0-2.24-3.89 9.68 9.68 0 0 0-3.52-2.46 11.95 11.95 0 0 0-4.62-.86c-1.68 0-3.21.28-4.6.86a9.88 9.88 0 0 0-3.54 2.46 10.91 10.91 0 0 0-2.24 3.9c-.53 1.53-.8 3.27-.8 5.2 0 1.94.27 3.68.8 5.22a11.17 11.17 0 0 0 2.24 3.9 10.01 10.01 0 0 0 3.55 2.44c1.38.56 2.9.83 4.6.83s3.24-.27 4.61-.83a9.8 9.8 0 0 0 3.52-2.44 11.17 11.17 0 0 0 2.25-3.9c.53-1.54.8-3.28.8-5.21zm26.22-6.54V48H60.5c-.56 0-.9-.27-1.05-.81l-.31-2.4a12.45 12.45 0 0 1-3.26 2.6c-1.2.64-2.58.96-4.13.96-1.22 0-2.3-.2-3.24-.6a6.52 6.52 0 0 1-2.33-1.7 7.37 7.37 0 0 1-1.43-2.67c-.3-1.04-.46-2.2-.46-3.45V25.7h3.91v14.22c0 1.68.38 2.99 1.15 3.91.77.93 1.96 1.39 3.54 1.39 1.16 0 2.24-.27 3.23-.82a10.42 10.42 0 0 0 2.8-2.28V25.7h3.91zm8.61 4.47a9.94 9.94 0 0 1 2.6-3.56 5.64 5.64 0 0 1 3.76-1.3c.47 0 .92.05 1.34.15.44.1.83.27 1.17.49l-.3 2.92c-.09.37-.3.55-.66.55-.2 0-.5-.04-.9-.13a6.21 6.21 0 0 0-3.24.18 4.23 4.23 0 0 0-1.47.92c-.42.4-.81.9-1.17 1.5-.33.58-.64 1.26-.92 2.02V48H67.7V25.71h2.25c.42 0 .72.08.88.25.16.16.27.44.33.83l.26 3.39zm61.16-13.7L122.75 48h-3.82l-7.99-24.05a21.95 21.95 0 0 1-.42-1.58 38.36 38.36 0 0 1-.44 1.58L102.05 48h-3.83L88.4 16.47h3.54c.38 0 .7.1.95.29.26.2.43.43.5.73l6.52 21.9.28 1.28.29 1.46.3-1.46.38-1.27 7.41-21.91c.1-.25.26-.48.51-.69.27-.22.58-.33.95-.33h1.23c.38 0 .69.1.92.29a1.77 1.77 0 0 1 .53.73l7.4 21.9a28.4 28.4 0 0 1 .68 2.62 29.52 29.52 0 0 1 .52-2.61l6.54-21.91a1.31 1.31 0 0 1 .48-.7c.27-.21.58-.32.95-.32h3.32zm9.35 8.88c1.63 0 3.1.27 4.4.82a9.43 9.43 0 0 1 5.46 5.94c.5 1.4.74 2.98.74 4.73 0 1.76-.25 3.34-.74 4.75a9.43 9.43 0 0 1-5.46 5.92c-1.3.52-2.77.79-4.4.79-1.64 0-3.12-.27-4.44-.8a9.42 9.42 0 0 1-3.35-2.3c-.92-1-1.63-2.2-2.13-3.61-.49-1.41-.73-3-.73-4.75s.24-3.33.73-4.73c.5-1.43 1.2-2.64 2.13-3.63.93-1 2.04-1.77 3.35-2.31 1.32-.55 2.8-.82 4.44-.82zm0 19.89c2.2 0 3.84-.73 4.93-2.2 1.08-1.48 1.63-3.54 1.63-6.18 0-2.66-.55-4.72-1.63-6.2-1.09-1.49-2.73-2.23-4.93-2.23-1.12 0-2.09.2-2.93.57a5.71 5.71 0 0 0-2.06 1.65c-.55.72-.96 1.61-1.24 2.67-.26 1.04-.4 2.22-.4 3.54 0 2.64.55 4.7 1.64 6.18 1.1 1.47 2.76 2.2 4.99 2.2zm17.97-15.07a9.94 9.94 0 0 1 2.6-3.56 5.64 5.64 0 0 1 3.76-1.3c.47 0 .91.05 1.34.15.44.1.83.27 1.16.49l-.28 2.92c-.09.37-.31.55-.66.55-.2 0-.5-.04-.9-.13a6.2 6.2 0 0 0-3.24.18 4.23 4.23 0 0 0-1.47.92c-.43.4-.82.9-1.17 1.5a13.1 13.1 0 0 0-.92 2.02V48h-3.94V25.71h2.24c.43 0 .72.08.88.25.17.16.28.44.33.83l.27 3.39zm15.04-14.59V48h-3.92V15.6h3.92zm19.55 15.43a6.22 6.22 0 0 0-2.38-2.05 6.7 6.7 0 0 0-2.86-.6c-2.07 0-3.66.75-4.77 2.23-1.12 1.48-1.68 3.6-1.68 6.33 0 1.46.13 2.7.38 3.74a7.29 7.29 0 0 0 1.1 2.56 4.35 4.35 0 0 0 1.78 1.45c.7.3 1.5.46 2.4.46 1.29 0 2.41-.3 3.36-.88a9.6 9.6 0 0 0 2.67-2.49V31.02zm3.91-15.43V48h-2.33c-.56 0-.9-.27-1.06-.81l-.35-2.71a12.13 12.13 0 0 1-3.25 2.77 8.28 8.28 0 0 1-4.23 1.06 7.31 7.31 0 0 1-6.14-2.9c-.73-.96-1.3-2.15-1.69-3.57a18.35 18.35 0 0 1 .07-9.48 11.29 11.29 0 0 1 1.89-3.7 8.7 8.7 0 0 1 7.06-3.34 7.96 7.96 0 0 1 6.12 2.62V15.59h3.91zM46.61 70.71V93H42.7V70.71h3.91zm.84-7c0 .39-.08.75-.24 1.09-.15.32-.35.61-.62.88-.25.25-.55.44-.9.59a2.67 2.67 0 0 1-2.16 0 2.9 2.9 0 0 1-1.45-1.47 2.67 2.67 0 0 1 0-2.16c.15-.35.35-.65.6-.9.25-.27.53-.47.85-.62a2.67 2.67 0 0 1 2.16 0c.35.15.65.35.9.62.27.25.47.55.62.9.16.34.24.7.24 1.08zm7.97 10.24c.49-.54 1-1.04 1.54-1.48a9.85 9.85 0 0 1 3.66-1.84 8.96 8.96 0 0 1 5.43.35c.94.4 1.72.97 2.33 1.71.63.74 1.11 1.62 1.43 2.67.32 1.04.49 2.19.49 3.45V93h-3.94V78.81c0-1.69-.4-3-1.17-3.92-.76-.93-1.93-1.4-3.5-1.4-1.15 0-2.24.27-3.25.83-1 .56-1.92 1.31-2.77 2.27V93h-3.94V70.71h2.35c.56 0 .9.28 1.04.82l.3 2.42zm57.7 3.3c0 2.36-.37 4.5-1.11 6.44a14.3 14.3 0 0 1-3.17 4.98c-1.37 1.37-3 2.45-4.93 3.2-1.9.76-4.02 1.13-6.33 1.13H85.8V61.47h11.77c2.31 0 4.42.39 6.33 1.15a13.8 13.8 0 0 1 8.1 8.18 17.75 17.75 0 0 1 1.12 6.45zm-4.37 0c0-1.94-.26-3.67-.8-5.2a10.94 10.94 0 0 0-2.23-3.87 9.57 9.57 0 0 0-3.53-2.42 12.23 12.23 0 0 0-4.61-.83h-7.5v24.62h7.5c1.7 0 3.24-.28 4.61-.84a9.7 9.7 0 0 0 3.53-2.4 10.94 10.94 0 0 0 2.24-3.87c.53-1.53.8-3.26.8-5.2zm19.8 5.72c-1.8.06-3.34.2-4.62.44-1.26.22-2.3.51-3.1.88-.8.36-1.37.8-1.74 1.3-.35.5-.53 1.05-.53 1.67 0 .58.1 1.1.3 1.52a3 3 0 0 0 .76 1.05c.34.27.73.46 1.17.6a6.13 6.13 0 0 0 1.45.17 7.28 7.28 0 0 0 3.5-.81 11.95 11.95 0 0 0 2.82-2.2v-4.62zm-12.65-9.11a12.73 12.73 0 0 1 3.98-2.66c1.43-.59 3-.88 4.73-.88 1.25 0 2.36.2 3.33.61a6.81 6.81 0 0 1 3.94 4.38c.33 1.04.5 2.19.5 3.43V93h-1.74a1.8 1.8 0 0 1-.88-.18c-.2-.13-.36-.38-.48-.74l-.44-2.12-1.72 1.46a9.48 9.48 0 0 1-3.74 1.7c-.69.15-1.46.23-2.3.23-.87 0-1.69-.12-2.45-.35a5.34 5.34 0 0 1-3.34-2.93 6.64 6.64 0 0 1-.49-2.64c0-.88.25-1.72.73-2.53a6.33 6.33 0 0 1 2.35-2.17c1.09-.63 2.5-1.15 4.25-1.54 1.75-.41 3.89-.65 6.42-.7v-1.75c0-1.73-.37-3.03-1.12-3.91-.75-.9-1.84-1.34-3.28-1.34-.97 0-1.78.12-2.44.37-.64.23-1.2.5-1.7.81l-1.23.82c-.33.23-.67.35-1 .35-.27 0-.5-.07-.69-.2a2.1 2.1 0 0 1-.48-.53l-.7-1.25zm27.67 19.5c-1.76 0-3.12-.5-4.07-1.48-.94-.98-1.41-2.4-1.41-4.25V74h-2.68a.9.9 0 0 1-.6-.2c-.16-.14-.24-.36-.24-.66v-1.56l3.65-.46.9-6.89c.05-.22.14-.4.29-.52a.88.88 0 0 1 .62-.22H142v7.67h6.44V74H142v13.38c0 .94.22 1.63.68 2.09.45.45 1.04.68 1.76.68a3.21 3.21 0 0 0 1.85-.53l.55-.35c.16-.12.3-.18.41-.18.2 0 .4.13.55.38l1.15 1.87a7.45 7.45 0 0 1-2.44 1.5 8.53 8.53 0 0 1-2.95.52zm19.68-10.4c-1.8.07-3.34.21-4.62.45-1.26.22-2.3.51-3.1.88-.8.36-1.37.8-1.74 1.3-.35.5-.53 1.05-.53 1.67 0 .58.1 1.1.3 1.52a2.9 2.9 0 0 0 .76 1.05c.34.27.73.46 1.17.6a6.13 6.13 0 0 0 1.45.17 7.3 7.3 0 0 0 3.5-.81 12.04 12.04 0 0 0 2.82-2.2v-4.62zm-12.65-9.1a12.72 12.72 0 0 1 3.99-2.66c1.42-.59 3-.88 4.72-.88 1.25 0 2.36.2 3.33.61a6.81 6.81 0 0 1 3.94 4.38c.33 1.04.5 2.19.5 3.43V93h-1.74a1.8 1.8 0 0 1-.88-.18c-.2-.13-.36-.38-.48-.74l-.44-2.12-1.72 1.46a9.48 9.48 0 0 1-3.74 1.7c-.69.15-1.46.23-2.3.23-.87 0-1.69-.12-2.45-.35a5.33 5.33 0 0 1-3.34-2.93 6.62 6.62 0 0 1-.49-2.64c0-.88.25-1.72.73-2.53a6.33 6.33 0 0 1 2.35-2.17c1.09-.63 2.5-1.15 4.25-1.54 1.74-.41 3.89-.65 6.42-.7v-1.75c0-1.73-.37-3.03-1.12-3.91-.75-.9-1.84-1.34-3.28-1.34-.97 0-1.78.12-2.44.37-.64.23-1.2.5-1.7.81l-1.22.82c-.34.23-.68.35-1.02.35-.26 0-.49-.07-.68-.2a1.88 1.88 0 0 1-.48-.53l-.7-1.25zM40.98 32.25c0 2.36-.38 4.53-1.12 6.51a14.26 14.26 0 0 1-8.1 8.4c-1.9.78-4.02 1.17-6.34 1.17-2.31 0-4.42-.39-6.33-1.17a14.31 14.31 0 0 1-8.08-8.4 18.29 18.29 0 0 1-1.12-6.51c0-2.36.38-4.53 1.12-6.5.75-1.97 1.8-3.67 3.17-5.1a14.32 14.32 0 0 1 4.9-3.34c1.92-.8 4.03-1.19 6.34-1.19 2.32 0 4.43.4 6.34 1.19 1.92.8 3.56 1.9 4.93 3.34a14.87 14.87 0 0 1 3.17 5.1 18.1 18.1 0 0 1 1.12 6.5zm-4.38 0c0-1.94-.26-3.68-.8-5.22a10.91 10.91 0 0 0-2.24-3.89 9.68 9.68 0 0 0-3.52-2.46 11.95 11.95 0 0 0-4.62-.86c-1.68 0-3.21.28-4.6.86a9.88 9.88 0 0 0-3.54 2.46 10.91 10.91 0 0 0-2.24 3.9c-.53 1.53-.8 3.27-.8 5.2 0 1.94.27 3.68.8 5.22a11.17 11.17 0 0 0 2.24 3.9 10.01 10.01 0 0 0 3.55 2.44c1.38.56 2.9.83 4.6.83s3.24-.27 4.61-.83a9.8 9.8 0 0 0 3.52-2.44 11.17 11.17 0 0 0 2.25-3.9c.53-1.54.8-3.28.8-5.21zm26.22-6.54V48H60.5c-.56 0-.9-.27-1.05-.81l-.31-2.4a12.45 12.45 0 0 1-3.26 2.6c-1.2.64-2.58.96-4.13.96-1.22 0-2.3-.2-3.24-.6a6.52 6.52 0 0 1-2.33-1.7 7.37 7.37 0 0 1-1.43-2.67c-.3-1.04-.46-2.2-.46-3.45V25.7h3.91v14.22c0 1.68.38 2.99 1.15 3.91.77.93 1.96 1.39 3.54 1.39 1.16 0 2.24-.27 3.23-.82a10.42 10.42 0 0 0 2.8-2.28V25.7h3.91zm8.61 4.47a9.94 9.94 0 0 1 2.6-3.56 5.64 5.64 0 0 1 3.76-1.3c.47 0 .92.05 1.34.15.44.1.83.27 1.17.49l-.3 2.92c-.09.37-.3.55-.66.55-.2 0-.5-.04-.9-.13a6.21 6.21 0 0 0-3.24.18 4.23 4.23 0 0 0-1.47.92c-.42.4-.81.9-1.17 1.5-.33.58-.64 1.26-.92 2.02V48H67.7V25.71h2.25c.42 0 .72.08.88.25.16.16.27.44.33.83l.26 3.39zm61.16-13.7L122.75 48h-3.82l-7.99-24.05a21.95 21.95 0 0 1-.42-1.58 38.36 38.36 0 0 1-.44 1.58L102.05 48h-3.83L88.4 16.47h3.54c.38 0 .7.1.95.29.26.2.43.43.5.73l6.52 21.9.28 1.28.29 1.46.3-1.46.38-1.27 7.41-21.91c.1-.25.26-.48.51-.69.27-.22.58-.33.95-.33h1.23c.38 0 .69.1.92.29a1.77 1.77 0 0 1 .53.73l7.4 21.9a28.4 28.4 0 0 1 .68 2.62 29.52 29.52 0 0 1 .52-2.61l6.54-21.91a1.31 1.31 0 0 1 .48-.7c.27-.21.58-.32.95-.32h3.32zm9.35 8.88c1.63 0 3.1.27 4.4.82a9.43 9.43 0 0 1 5.46 5.94c.5 1.4.74 2.98.74 4.73 0 1.76-.25 3.34-.74 4.75a9.43 9.43 0 0 1-5.46 5.92c-1.3.52-2.77.79-4.4.79-1.64 0-3.12-.27-4.44-.8a9.42 9.42 0 0 1-3.35-2.3c-.92-1-1.63-2.2-2.13-3.61-.49-1.41-.73-3-.73-4.75s.24-3.33.73-4.73c.5-1.43 1.2-2.64 2.13-3.63.93-1 2.04-1.77 3.35-2.31 1.32-.55 2.8-.82 4.44-.82zm0 19.89c2.2 0 3.84-.73 4.93-2.2 1.08-1.48 1.63-3.54 1.63-6.18 0-2.66-.55-4.72-1.63-6.2-1.09-1.49-2.73-2.23-4.93-2.23-1.12 0-2.09.2-2.93.57a5.71 5.71 0 0 0-2.06 1.65c-.55.72-.96 1.61-1.24 2.67-.26 1.04-.4 2.22-.4 3.54 0 2.64.55 4.7 1.64 6.18 1.1 1.47 2.76 2.2 4.99 2.2zm17.97-15.07a9.94 9.94 0 0 1 2.6-3.56 5.64 5.64 0 0 1 3.76-1.3c.47 0 .91.05 1.34.15.44.1.83.27 1.16.49l-.28 2.92c-.09.37-.31.55-.66.55-.2 0-.5-.04-.9-.13a6.2 6.2 0 0 0-3.24.18 4.23 4.23 0 0 0-1.47.92c-.43.4-.82.9-1.17 1.5a13.1 13.1 0 0 0-.92 2.02V48h-3.94V25.71h2.24c.43 0 .72.08.88.25.17.16.28.44.33.83l.27 3.39zm15.04-14.59V48h-3.92V15.6h3.92zm19.55 15.43a6.22 6.22 0 0 0-2.38-2.05 6.7 6.7 0 0 0-2.86-.6c-2.07 0-3.66.75-4.77 2.23-1.12 1.48-1.68 3.6-1.68 6.33 0 1.46.13 2.7.38 3.74a7.29 7.29 0 0 0 1.1 2.56 4.35 4.35 0 0 0 1.78 1.45c.7.3 1.5.46 2.4.46 1.29 0 2.41-.3 3.36-.88a9.6 9.6 0 0 0 2.67-2.49V31.02zm3.91-15.43V48h-2.33c-.56 0-.9-.27-1.06-.81l-.35-2.71a12.13 12.13 0 0 1-3.25 2.77 8.28 8.28 0 0 1-4.23 1.06 7.31 7.31 0 0 1-6.14-2.9c-.73-.96-1.3-2.15-1.69-3.57a18.35 18.35 0 0 1 .07-9.48 11.29 11.29 0 0 1 1.89-3.7 8.7 8.7 0 0 1 7.06-3.34 7.96 7.96 0 0 1 6.12 2.62V15.59h3.91zM46.61 70.71V93H42.7V70.71h3.91zm.84-7c0 .39-.08.75-.24 1.09-.15.32-.35.61-.62.88-.25.25-.55.44-.9.59a2.67 2.67 0 0 1-2.16 0 2.9 2.9 0 0 1-1.45-1.47 2.67 2.67 0 0 1 0-2.16c.15-.35.35-.65.6-.9.25-.27.53-.47.85-.62a2.67 2.67 0 0 1 2.16 0c.35.15.65.35.9.62.27.25.47.55.62.9.16.34.24.7.24 1.08zm7.97 10.24c.49-.54 1-1.04 1.54-1.48a9.85 9.85 0 0 1 3.66-1.84 8.96 8.96 0 0 1 5.43.35c.94.4 1.72.97 2.33 1.71.63.74 1.11 1.62 1.43 2.67.32 1.04.49 2.19.49 3.45V93h-3.94V78.81c0-1.69-.4-3-1.17-3.92-.76-.93-1.93-1.4-3.5-1.4-1.15 0-2.24.27-3.25.83-1 .56-1.92 1.31-2.77 2.27V93h-3.94V70.71h2.35c.56 0 .9.28 1.04.82l.3 2.42zm57.7 3.3c0 2.36-.37 4.5-1.11 6.44a14.3 14.3 0 0 1-3.17 4.98c-1.37 1.37-3 2.45-4.93 3.2-1.9.76-4.02 1.13-6.33 1.13H85.8V61.47h11.77c2.31 0 4.42.39 6.33 1.15a13.8 13.8 0 0 1 8.1 8.18 17.75 17.75 0 0 1 1.12 6.45zm-4.37 0c0-1.94-.26-3.67-.8-5.2a10.94 10.94 0 0 0-2.23-3.87 9.57 9.57 0 0 0-3.53-2.42 12.23 12.23 0 0 0-4.61-.83h-7.5v24.62h7.5c1.7 0 3.24-.28 4.61-.84a9.7 9.7 0 0 0 3.53-2.4 10.94 10.94 0 0 0 2.24-3.87c.53-1.53.8-3.26.8-5.2zm19.8 5.72c-1.8.06-3.34.2-4.62.44-1.26.22-2.3.51-3.1.88-.8.36-1.37.8-1.74 1.3-.35.5-.53 1.05-.53 1.67 0 .58.1 1.1.3 1.52a3 3 0 0 0 .76 1.05c.34.27.73.46 1.17.6a6.13 6.13 0 0 0 1.45.17 7.28 7.28 0 0 0 3.5-.81 11.95 11.95 0 0 0 2.82-2.2v-4.62zm-12.65-9.11a12.73 12.73 0 0 1 3.98-2.66c1.43-.59 3-.88 4.73-.88 1.25 0 2.36.2 3.33.61a6.81 6.81 0 0 1 3.94 4.38c.33 1.04.5 2.19.5 3.43V93h-1.74a1.8 1.8 0 0 1-.88-.18c-.2-.13-.36-.38-.48-.74l-.44-2.12-1.72 1.46a9.48 9.48 0 0 1-3.74 1.7c-.69.15-1.46.23-2.3.23-.87 0-1.69-.12-2.45-.35a5.34 5.34 0 0 1-3.34-2.93 6.64 6.64 0 0 1-.49-2.64c0-.88.25-1.72.73-2.53a6.33 6.33 0 0 1 2.35-2.17c1.09-.63 2.5-1.15 4.25-1.54 1.75-.41 3.89-.65 6.42-.7v-1.75c0-1.73-.37-3.03-1.12-3.91-.75-.9-1.84-1.34-3.28-1.34-.97 0-1.78.12-2.44.37-.64.23-1.2.5-1.7.81l-1.23.82c-.33.23-.67.35-1 .35-.27 0-.5-.07-.69-.2a2.1 2.1 0 0 1-.48-.53l-.7-1.25zm27.67 19.5c-1.76 0-3.12-.5-4.07-1.48-.94-.98-1.41-2.4-1.41-4.25V74h-2.68a.9.9 0 0 1-.6-.2c-.16-.14-.24-.36-.24-.66v-1.56l3.65-.46.9-6.89c.05-.22.14-.4.29-.52a.88.88 0 0 1 .62-.22H142v7.67h6.44V74H142v13.38c0 .94.22 1.63.68 2.09.45.45 1.04.68 1.76.68a3.21 3.21 0 0 0 1.85-.53l.55-.35c.16-.12.3-.18.41-.18.2 0 .4.13.55.38l1.15 1.87a7.45 7.45 0 0 1-2.44 1.5 8.53 8.53 0 0 1-2.95.52zm19.68-10.4c-1.8.07-3.34.21-4.62.45-1.26.22-2.3.51-3.1.88-.8.36-1.37.8-1.74 1.3-.35.5-.53 1.05-.53 1.67 0 .58.1 1.1.3 1.52a2.9 2.9 0 0 0 .76 1.05c.34.27.73.46 1.17.6a6.13 6.13 0 0 0 1.45.17 7.3 7.3 0 0 0 3.5-.81 12.04 12.04 0 0 0 2.82-2.2v-4.62zm-12.65-9.1a12.72 12.72 0 0 1 3.99-2.66c1.42-.59 3-.88 4.72-.88 1.25 0 2.36.2 3.33.61a6.81 6.81 0 0 1 3.94 4.38c.33 1.04.5 2.19.5 3.43V93h-1.74a1.8 1.8 0 0 1-.88-.18c-.2-.13-.36-.38-.48-.74l-.44-2.12-1.72 1.46a9.48 9.48 0 0 1-3.74 1.7c-.69.15-1.46.23-2.3.23-.87 0-1.69-.12-2.45-.35a5.33 5.33 0 0 1-3.34-2.93 6.62 6.62 0 0 1-.49-2.64c0-.88.25-1.72.73-2.53a6.33 6.33 0 0 1 2.35-2.17c1.09-.63 2.5-1.15 4.25-1.54 1.74-.41 3.89-.65 6.42-.7v-1.75c0-1.73-.37-3.03-1.12-3.91-.75-.9-1.84-1.34-3.28-1.34-.97 0-1.78.12-2.44.37-.64.23-1.2.5-1.7.81l-1.22.82c-.34.23-.68.35-1.02.35-.26 0-.49-.07-.68-.2a1.88 1.88 0 0 1-.48-.53l-.7-1.25z"
    fill="#fff"
  />
  <path fill="#D42B21" d="M0 106.79h210V120H0z" />
</g>
<defs>
  <clipPath id="clip0"><path fill="#fff" d="M0 0h210v120H0z" /></clipPath>
</defs>
</svg></g><a href="https://ourworldindata.org/explorers/coronavirus-data-explorer?zoomToSelection=true&amp;time=2020-09-01..latest&amp;pickerSort=desc&amp;pickerMetric=new_cases_smoothed_per_million&amp;Metric=Confirmed+cases&amp;Interval=7-day+rolling+average&amp;Relative+to+Population=false&amp;Align+outbreaks=false&amp;country=IND~USA~European+Union~BRA~RUS~GBR" style="font-family:&quot;Playfair Display&quot;, Georgia, &quot;Times New Roman&quot;, serif" target="_blank" rel="noopener"><text font-size="25.20" x="15.0" y="35.2" fill="#555"><tspan x="15" y="35.160000000000004">Daily new confirmed COVID-19 cases</tspan></text></a><text font-size="14.40" x="15.0" y="55.7" fill="#666"><tspan x="15" y="55.72">Shown is the rolling 7-day average. The number of confirmed cases is lower than the number of actual cases; the</tspan><tspan x="15" y="73">main reason for that is limited testing.</tspan></text></g><g class="LineChart"><defs><clipPath id="boundsClip-7"><rect x="68.968" y="74.2" width="830" height="910.4"></rect></clipPath></defs><g class="DualAxisView"><g class="HorizontalAxis"><line x1="79" y1="526.2" x2="79" y2="530.2" stroke="#ccc"></line><line x1="244.5" y1="526.2" x2="244.5" y2="530.2" stroke="#ccc"></line><line x1="353.4" y1="526.2" x2="353.4" y2="530.2" stroke="#ccc"></line><line x1="462.4" y1="526.2" x2="462.4" y2="530.2" stroke="#ccc"></line><line x1="571.3" y1="526.2" x2="571.3" y2="530.2" stroke="#ccc"></line><line x1="702" y1="526.2" x2="702" y2="530.2" stroke="#ccc"></line><text x="79" y="547.4" fill="#666" text-anchor="middle" font-size="16.2">Sep 1, 2020</text><text x="244.5" y="547.4" fill="#666" text-anchor="middle" font-size="16.2">Nov 16, 2020</text><text x="353.4" y="547.4" fill="#666" text-anchor="middle" font-size="16.2">Jan 5, 2021</text><text x="462.4" y="547.4" fill="#666" text-anchor="middle" font-size="16.2">Feb 24, 2021</text><text x="571.3" y="547.4" fill="#666" text-anchor="middle" font-size="16.2">Apr 15, 2021</text><text x="702" y="547.4" fill="#666" text-anchor="middle" font-size="16.2">Jun 14, 2021</text></g><g class="VerticalAxis"><text x="73.97" y="526.2" fill="#666" dominant-baseline="middle" text-anchor="end" font-size="16.2">0</text><text x="73.97" y="470.7" fill="#666" dominant-baseline="middle" text-anchor="end" font-size="16.2">50,000</text><text x="73.97" y="415.3" fill="#666" dominant-baseline="middle" text-anchor="end" font-size="16.2">100,000</text><text x="73.97" y="359.8" fill="#666" dominant-baseline="middle" text-anchor="end" font-size="16.2">150,000</text><text x="73.97" y="304.3" fill="#666" dominant-baseline="middle" text-anchor="end" font-size="16.2">200,000</text><text x="73.97" y="248.9" fill="#666" dominant-baseline="middle" text-anchor="end" font-size="16.2">250,000</text><text x="73.97" y="193.4" fill="#666" dominant-baseline="middle" text-anchor="end" font-size="16.2">300,000</text><text x="73.97" y="137.9" fill="#666" dominant-baseline="middle" text-anchor="end" font-size="16.2">350,000</text></g><g class="AxisGridLines horizontalLines"><line x1="78.97" y1="526.2" x2="701.99" y2="526.2" stroke="#ccc"></line><line x1="78.97" y1="470.7" x2="701.99" y2="470.7" stroke="#d3d3d3" stroke-dasharray="3,2"></line><line x1="78.97" y1="415.3" x2="701.99" y2="415.3" stroke="#d3d3d3" stroke-dasharray="3,2"></line><line x1="78.97" y1="359.8" x2="701.99" y2="359.8" stroke="#d3d3d3" stroke-dasharray="3,2"></line><line x1="78.97" y1="304.3" x2="701.99" y2="304.3" stroke="#d3d3d3" stroke-dasharray="3,2"></line><line x1="78.97" y1="248.9" x2="701.99" y2="248.9" stroke="#d3d3d3" stroke-dasharray="3,2"></line><line x1="78.97" y1="193.4" x2="701.99" y2="193.4" stroke="#d3d3d3" stroke-dasharray="3,2"></line><line x1="78.97" y1="137.9" x2="701.99" y2="137.9" stroke="#d3d3d3" stroke-dasharray="3,2"></line></g></g><g clip-path="url(#boundsClip-7)"><g class="LineLabels" style="cursor:default"><g class="legendMark"><g class="indicator"><path d="M705.99,435.2 H719.49 V435.2 H732.99" stroke="#999" stroke-width="0.5" fill="none"></path></g><rect x="701.99" y="428.45" width="64.43" height="13.5" fill="#fff" opacity="0"></rect><text font-size="13.50" x="737.0" y="439.3" fill="#6D3E91"><tspan x="736.99" y="439.25">India</tspan></text></g><g class="legendMark"><g class="indicator"><path d="M705.99,452 H719.49 V452 H732.99" stroke="#999" stroke-width="0.5" fill="none"></path></g><rect x="701.99" y="445.25" width="68.75" height="13.5" fill="#fff" opacity="0"></rect><text font-size="13.50" x="737.0" y="456.1" fill="#4C6A9C"><tspan x="736.99" y="456.05">Brazil</tspan></text></g><g class="legendMark"><g class="indicator"><path d="M705.99,504.4 H712.74 V472.95000000000016 H732.99" stroke="#999" stroke-width="0.5" fill="none"></path></g><rect x="701.99" y="466.20000000000016" width="133.01" height="13.5" fill="#fff" opacity="0"></rect><text font-size="13.50" x="737.0" y="477.0" fill="#00823F"><tspan x="736.99" y="477.00000000000017">European Union</tspan></text></g><g class="legendMark"><g class="indicator"><path d="M705.99,510.9 H719.49 V488.45000000000016 H732.99" stroke="#999" stroke-width="0.5" fill="none"></path></g><rect x="701.99" y="481.70000000000016" width="116.405" height="13.5" fill="#fff" opacity="0"></rect><text font-size="13.50" x="737.0" y="492.5" fill="#883039"><tspan x="736.99" y="492.50000000000017">United States</tspan></text></g><g class="legendMark"><g class="indicator"><path d="M705.99,512.6 H726.24 V503.95000000000016 H732.99" stroke="#999" stroke-width="0.5" fill="none"></path></g><rect x="701.99" y="497.20000000000016" width="76.31" height="13.5" fill="#fff" opacity="0"></rect><text font-size="13.50" x="737.0" y="508.0" fill="#C05917"><tspan x="736.99" y="508.00000000000017">Russia</tspan></text></g><g class="legendMark"><g class="indicator"><path d="M705.99,518.1 H726.24 V519.4500000000002 H732.99" stroke="#999" stroke-width="0.5" fill="none"></path></g><rect x="701.99" y="512.7000000000002" width="131.39" height="13.5" fill="#fff" opacity="0"></rect><text font-size="13.50" x="737.0" y="523.5" fill="#CF0A66"><tspan x="736.99" y="523.5000000000001">United Kingdom</tspan></text></g></g><g class="Lines"><rect x="79" y="92" width="623" height="434" fill="rgba(255,255,255,0)" opacity="0"></rect><g><path stroke-linecap="round" stroke="#ddd" d="M79 480L81 481L83 481L86 480L88 480L90 481L92 483L94 485L96 486L99 487L101 488L103 488L105 488L107 486L110 484L112 483L114 482L116 481L118 481L120 481L123 478L125 478L127 478L129 477L131 478L133 477L136 477L138 480L140 480L142 480L144 480L147 479L149 478L151 479L153 478L155 477L157 475L160 473L162 473L164 472L166 471L168 470L171 469L173 468L175 467L177 465L179 464L181 464L184 460L186 458L188 458L190 456L192 454L194 450L197 448L199 448L201 445L203 443L205 440L208 438L210 437L212 430L214 427L216 419L218 415L221 409L223 404L225 398L227 397L229 391L232 389L234 382L236 377L238 368L240 362L242 359L245 352L247 348L249 344L251 340L253 337L255 335L258 334L260 332L262 330L264 328L266 341L269 339L271 343L273 344L275 346L277 344L279 341L282 324L284 320L286 310L288 304L290 298L293 293L295 289L297 288L299 287L301 287L303 286L306 286L308 288L310 284L312 283L314 281L316 285L319 285L321 284L323 286L325 289L327 296L330 320L332 315L334 320L336 324L338 324L340 323L343 316L345 308L347 296L349 287L351 286L353 280L356 277L358 270L360 248L362 254L364 253L367 248L369 250L371 254L373 260L375 269L377 278L380 284L382 295L384 303L386 311L388 317L391 325L393 330L395 338L397 336L399 341L401 346L404 350L406 353L408 358L410 361L412 364L414 369L417 374L419 381L421 386L423 392L425 396L428 403L430 406L432 410L434 413L436 418L438 421L441 425L443 431L445 436L447 440L449 446L452 449L454 451L456 453L458 452L460 451L462 450L465 449L467 449L469 450L471 451L473 451L475 453L478 454L480 456L482 458L484 459L486 460L489 462L491 462L493 464L495 465L497 465L499 466L502 467L504 465L506 465L508 465L510 466L513 466L515 465L517 466L519 467L521 467L523 462L526 461L528 459L530 458L532 456L534 453L536 452L539 455L541 453L543 455L545 454L547 456L550 454L552 455L554 453L556 453L558 451L560 451L563 449L565 450L567 447L569 447L571 448L574 448L576 451L578 451L580 452L582 454L584 456L587 457L589 460L591 460L593 462L595 465L597 467L600 468L602 469L604 470L606 471L608 472L611 471L613 473L615 474L617 476L619 478L621 480L624 481L626 483L628 484L630 486L632 487L635 488L637 489L639 489L641 491L643 492L645 493L648 494L650 496L652 498L654 498L656 499L658 500L661 500L663 501L665 502L667 503L669 504L672 507L674 507L676 508L678 510L680 510L682 510L685 510L687 509L689 510L691 510L693 511L696 509L698 510L700 511L702 511" fill="none" stroke-width="1"></path></g><g><path stroke-linecap="round" stroke="#ddd" d="M79 525L81 525L83 525L86 525L88 524L90 524L92 524L94 524L96 524L99 523L101 523L103 523L105 523L107 523L110 523L112 523L114 523L116 522L118 522L120 522L123 522L125 522L127 521L129 521L131 520L133 520L136 520L138 520L140 519L142 519L144 519L147 519L149 518L151 515L153 514L155 513L157 512L160 510L162 509L164 509L166 510L168 510L171 510L173 509L175 509L177 508L179 508L181 507L184 507L186 506L188 505L190 505L192 504L194 503L197 502L199 502L201 502L203 502L205 502L208 501L210 501L212 501L214 501L216 501L218 501L221 501L223 501L225 501L227 501L229 501L232 501L234 501L236 500L238 499L240 499L242 498L245 498L247 498L249 499L251 500L253 501L255 503L258 504L260 505L262 506L264 506L266 507L269 508L271 508L273 510L275 510L277 510L279 510L282 510L284 510L286 510L288 509L290 509L293 509L295 509L297 508L299 507L301 506L303 506L306 505L308 504L310 503L312 501L314 500L316 499L319 496L321 494L323 491L325 489L327 488L330 487L332 486L334 487L336 486L338 483L340 481L343 479L345 475L347 472L349 468L351 465L353 464L356 462L358 463L360 460L362 460L364 460L367 462L369 464L371 467L373 467L375 469L377 472L380 475L382 476L384 478L386 480L388 481L391 484L393 485L395 486L397 489L399 491L401 493L404 494L406 496L408 498L410 499L412 500L414 500L417 501L419 503L421 504L423 505L425 506L428 507L430 507L432 508L434 509L436 510L438 511L441 512L443 512L445 513L447 513L449 513L452 513L454 514L456 514L458 514L460 514L462 515L465 515L467 515L469 516L471 517L473 517L475 518L478 518L480 519L482 519L484 519L486 520L489 520L491 520L493 520L495 520L497 520L499 520L502 520L504 520L506 520L508 520L510 520L513 520L515 520L517 520L519 520L521 520L523 520L526 520L528 520L530 520L532 520L534 521L536 521L539 521L541 521L543 522L545 522L547 522L550 522L552 523L554 523L556 523L558 524L560 524L563 525L565 524L567 524L569 524L571 524L574 523L576 523L578 523L580 523L582 523L584 523L587 523L589 523L591 523L593 523L595 524L597 524L600 524L602 524L604 524L606 524L608 524L611 524L613 524L615 524L617 524L619 524L621 524L624 524L626 524L628 524L630 524L632 524L635 524L637 524L639 524L641 524L643 525L645 525L648 525L650 524L652 524L654 524L656 524L658 524L661 523L663 523L665 523L667 523L669 523L672 523L674 523L676 522L678 522L680 522L682 521L685 521L687 521L689 520L691 520L693 519L696 519L698 519L700 518L702 518" fill="none" stroke-width="1"></path></g><g><path stroke-linecap="round" stroke="#ddd" d="M79 521L81 521L83 521L86 521L88 521L90 521L92 521L94 521L96 521L99 521L101 521L103 520L105 520L107 520L110 520L112 520L114 520L116 520L118 520L120 520L123 520L125 520L127 520L129 519L131 519L133 519L136 519L138 518L140 518L142 518L144 517L147 517L149 517L151 516L153 516L155 515L157 515L160 515L162 514L164 514L166 513L168 513L171 512L173 512L175 512L177 511L179 511L181 511L184 510L186 510L188 510L190 509L192 509L194 509L197 508L199 508L201 508L203 508L205 508L208 508L210 507L212 507L214 507L216 507L218 506L221 506L223 505L225 505L227 505L229 504L232 504L234 504L236 503L238 503L240 503L242 503L245 502L247 502L249 502L251 502L253 501L255 501L258 501L260 500L262 500L264 500L266 499L269 499L271 498L273 498L275 498L277 498L279 497L282 497L284 497L286 497L288 496L290 496L293 496L295 496L297 496L299 496L301 496L303 496L306 496L308 496L310 496L312 496L314 496L316 496L319 496L321 496L323 495L325 495L327 495L330 495L332 495L334 495L336 495L338 495L340 495L343 496L345 496L347 496L349 497L351 498L353 498L356 499L358 499L360 500L362 500L364 500L367 500L369 501L371 501L373 501L375 501L377 500L380 500L382 500L384 501L386 501L388 501L391 502L393 502L395 503L397 503L399 504L401 504L404 505L406 505L408 505L410 506L412 506L414 506L417 506L419 507L421 507L423 508L425 508L428 508L430 509L432 509L434 509L436 509L438 510L441 510L443 510L445 510L447 511L449 511L452 511L454 512L456 512L458 512L460 512L462 512L465 513L467 513L469 513L471 514L473 514L475 514L478 514L480 514L482 514L484 514L486 514L489 514L491 515L493 515L495 515L497 515L499 516L502 516L504 516L506 516L508 516L510 516L513 516L515 516L517 516L519 516L521 516L523 516L526 516L528 516L530 516L532 516L534 516L536 517L539 517L541 517L543 517L545 517L547 517L550 517L552 517L554 517L556 517L558 517L560 517L563 517L565 517L567 517L569 517L571 517L574 517L576 517L578 517L580 517L582 517L584 517L587 517L589 517L591 517L593 517L595 517L597 517L600 517L602 517L604 517L606 517L608 517L611 517L613 517L615 517L617 517L619 517L621 517L624 517L626 517L628 517L630 517L632 517L635 517L637 517L639 517L641 517L643 517L645 517L648 517L650 517L652 517L654 517L656 517L658 517L661 517L663 517L665 517L667 517L669 517L672 517L674 516L676 516L678 516L680 516L682 516L685 516L687 516L689 516L691 516L693 516L696 515L698 514L700 513L702 513" fill="none" stroke-width="1"></path></g><g><path stroke-linecap="round" stroke="#ddd" d="M79 440L81 440L83 439L86 438L88 436L90 434L92 433L94 431L96 429L99 427L101 425L103 425L105 425L107 423L110 423L112 423L114 423L116 424L118 424L120 425L123 426L125 427L127 429L129 431L131 432L133 432L136 433L138 434L140 434L142 434L144 435L147 436L149 438L151 439L153 441L155 442L157 443L160 445L162 446L164 446L166 448L168 448L171 450L173 452L175 453L177 454L179 456L181 458L184 460L186 461L188 463L190 464L192 466L194 468L197 469L199 471L201 472L203 473L205 474L208 475L210 476L212 476L214 475L216 475L218 475L221 475L223 475L225 475L227 475L229 475L232 475L234 476L236 476L238 477L240 478L242 480L245 481L247 482L249 483L251 483L253 482L255 482L258 480L260 478L262 477L264 477L266 478L269 479L271 479L273 480L275 481L277 482L279 484L282 485L284 486L286 486L288 487L290 488L293 489L295 489L297 491L299 492L301 493L303 493L306 494L308 495L310 496L312 497L314 498L316 499L319 499L321 499L323 500L325 500L327 500L330 500L332 501L334 502L336 503L338 503L340 504L343 507L345 508L347 505L349 505L351 505L353 506L356 506L358 503L360 506L362 506L364 506L367 507L369 507L371 508L373 508L375 506L377 509L380 510L382 510L384 510L386 511L388 511L391 511L393 511L395 511L397 511L399 511L401 512L404 511L406 511L408 512L410 512L412 512L414 512L417 512L419 513L421 513L423 514L425 513L428 513L430 513L432 513L434 514L436 514L438 514L441 514L443 514L445 514L447 514L449 513L452 513L454 513L456 512L458 512L460 512L462 511L465 510L467 510L469 510L471 509L473 509L475 509L478 509L480 509L482 508L484 508L486 508L489 507L491 507L493 506L495 505L497 504L499 503L502 502L504 500L506 498L508 496L510 494L513 491L515 488L517 485L519 482L521 479L523 477L526 474L528 470L530 467L532 464L534 461L536 460L539 457L541 454L543 450L545 445L547 439L550 433L552 423L554 414L556 406L558 397L560 388L563 377L565 367L567 356L569 345L571 331L574 317L576 300L578 283L580 268L582 250L584 232L587 214L589 196L591 182L593 169L595 159L597 149L600 139L602 130L604 121L606 115L608 112L611 107L613 103L615 98L617 94L619 94L621 92L624 92L626 97L628 102L630 110L632 121L635 133L637 148L639 161L641 172L643 185L645 198L648 212L650 223L652 234L654 243L656 254L658 263L661 273L663 285L665 298L667 310L669 321L672 332L674 344L676 356L678 365L680 373L682 381L685 390L687 396L689 402L691 409L693 415L696 421L698 426L700 431L702 435" fill="none" stroke-width="1"></path></g><g><path stroke-linecap="round" stroke="#ddd" d="M79 503L81 501L83 502L86 501L88 501L90 500L92 499L94 498L96 498L99 497L101 496L103 495L105 495L107 494L110 493L112 492L114 491L116 489L118 488L120 487L123 486L125 485L127 484L129 483L131 482L133 482L136 481L138 481L140 483L142 480L144 480L147 480L149 478L151 477L153 477L155 473L157 472L160 468L162 463L164 458L166 455L168 451L171 448L173 443L175 437L177 431L179 427L181 421L184 415L186 408L188 401L190 394L192 383L194 375L197 373L199 356L201 347L203 339L205 329L208 321L210 317L212 309L214 300L216 293L218 299L221 296L223 293L225 284L227 284L229 301L232 306L234 295L236 300L238 306L240 317L242 321L245 322L247 319L249 325L251 328L253 331L255 334L258 339L260 345L262 352L264 356L266 361L269 366L271 371L273 374L275 378L277 383L279 387L282 389L284 392L286 391L288 390L290 392L293 392L295 392L297 391L299 389L301 389L303 387L306 387L308 384L310 381L312 380L314 378L316 378L319 380L321 378L323 377L325 378L327 379L330 389L332 399L334 403L336 406L338 407L340 400L343 399L345 396L347 395L349 393L351 390L353 385L356 391L358 381L360 373L362 362L364 359L367 355L369 358L371 357L373 366L375 369L377 373L380 375L382 373L384 376L386 376L388 379L391 378L393 378L395 378L397 378L399 378L401 381L404 381L406 383L408 383L410 385L412 388L414 390L417 394L419 400L421 399L423 402L425 402L428 408L430 412L432 416L434 415L436 422L438 422L441 423L443 426L445 427L447 428L449 427L452 426L454 424L456 422L458 422L460 420L462 416L465 414L467 411L469 409L471 407L473 406L475 417L478 416L480 415L482 414L484 412L486 411L489 411L491 397L493 394L495 392L497 390L499 386L502 383L504 381L506 376L508 375L510 369L513 366L515 365L517 363L519 358L521 360L523 353L526 350L528 346L530 342L532 342L534 344L536 340L539 339L541 339L543 343L545 353L547 347L550 351L552 363L554 378L556 372L558 377L560 377L563 373L565 370L567 359L569 351L571 363L574 361L576 358L578 375L580 377L582 379L584 382L587 384L589 386L591 390L593 390L595 392L597 396L600 399L602 403L604 409L606 411L608 416L611 418L613 421L615 425L617 429L619 431L621 433L624 435L626 436L628 438L630 443L632 447L635 452L637 456L639 455L641 457L643 462L645 463L648 467L650 469L652 471L654 473L656 474L658 479L661 483L663 483L665 485L667 486L669 487L672 488L674 488L676 491L678 491L680 493L682 495L685 496L687 496L689 498L691 498L693 500L696 502L698 503L700 504L702 504" fill="none" stroke-width="1"></path></g><g><path stroke-linecap="round" stroke="#ddd" d="M79 482L81 482L83 482L86 481L88 482L90 483L92 488L94 493L96 495L99 495L101 496L103 496L105 496L107 495L110 491L112 491L114 492L116 492L118 493L120 492L123 493L125 493L127 499L129 494L131 495L133 496L136 497L138 497L140 497L142 491L144 496L147 501L149 496L151 497L153 497L155 496L157 496L160 498L162 493L164 498L166 498L168 498L171 503L173 504L175 504L177 503L179 504L181 506L184 503L186 501L188 501L190 502L192 502L194 501L197 499L199 501L201 500L203 499L205 499L208 500L210 502L212 502L214 503L216 506L218 507L221 511L223 508L225 508L227 507L229 507L232 505L234 501L236 496L238 498L240 495L242 495L245 494L247 493L249 495L251 495L253 493L255 494L258 493L260 493L262 493L264 491L266 491L269 492L271 489L273 488L275 487L277 484L279 483L282 481L284 479L286 481L288 480L290 481L293 481L295 480L297 480L299 478L301 478L303 479L306 478L308 479L310 477L312 474L314 474L316 473L319 473L321 473L323 471L325 475L327 477L330 481L332 486L334 487L336 488L338 487L340 486L343 486L345 486L347 487L349 487L351 487L353 487L356 486L358 481L360 477L362 469L364 467L367 466L369 465L371 466L373 469L375 466L377 466L380 466L382 466L384 466L386 466L388 467L391 469L393 469L395 470L397 469L399 469L401 469L404 469L406 468L408 469L410 469L412 470L414 471L417 472L419 473L421 474L423 483L425 476L428 479L430 476L432 476L434 476L436 476L438 469L441 477L443 472L445 475L447 476L449 476L452 476L454 474L456 473L458 474L460 473L462 471L465 469L467 467L469 466L471 466L473 464L475 465L478 464L480 462L482 461L484 459L486 452L489 453L491 451L493 450L495 450L497 448L499 447L502 453L504 452L506 450L508 448L510 447L513 446L515 445L517 445L519 443L521 443L523 443L526 441L528 442L530 441L532 441L534 443L536 443L539 442L541 444L543 446L545 453L547 455L550 457L552 456L554 456L556 457L558 453L560 448L563 447L565 446L567 447L569 450L571 452L574 453L576 454L578 453L580 454L582 456L584 455L587 459L589 462L591 462L593 463L595 464L597 463L600 463L602 459L604 459L606 460L608 461L611 461L613 460L615 461L617 461L619 459L621 460L624 458L626 458L628 459L630 458L632 458L635 457L637 456L639 456L641 455L643 455L645 455L648 453L650 455L652 453L654 454L656 453L658 453L661 453L663 455L665 460L667 459L669 458L672 459L674 458L676 456L678 453L680 455L682 457L685 458L687 457L689 461L691 462L693 462L696 454L698 452L700 452L702 452" fill="none" stroke-width="1"></path></g><g><path stroke="#883039" stroke-linecap="round" d="M79 480L81 481L83 481L86 480L88 480L90 481L92 483L94 485L96 486L99 487L101 488L103 488L105 488L107 486L110 484L112 483L114 482L116 481L118 481L120 481L123 478L125 478L127 478L129 477L131 478L133 477L136 477L138 480L140 480L142 480L144 480L147 479L149 478L151 479L153 478L155 477L157 475L160 473L162 473L164 472L166 471L168 470L171 469L173 468L175 467L177 465L179 464L181 464L184 460L186 458L188 458L190 456L192 454L194 450L197 448L199 448L201 445L203 443L205 440L208 438L210 437L212 430L214 427L216 419L218 415L221 409L223 404L225 398L227 397L229 391L232 389L234 382L236 377L238 368L240 362L242 359L245 352L247 348L249 344L251 340L253 337L255 335L258 334L260 332L262 330L264 328L266 341L269 339L271 343L273 344L275 346L277 344L279 341L282 324L284 320L286 310L288 304L290 298L293 293L295 289L297 288L299 287L301 287L303 286L306 286L308 288L310 284L312 283L314 281L316 285L319 285L321 284L323 286L325 289L327 296L330 320L332 315L334 320L336 324L338 324L340 323L343 316L345 308L347 296L349 287L351 286L353 280L356 277L358 270L360 248L362 254L364 253L367 248L369 250L371 254L373 260L375 269L377 278L380 284L382 295L384 303L386 311L388 317L391 325L393 330L395 338L397 336L399 341L401 346L404 350L406 353L408 358L410 361L412 364L414 369L417 374L419 381L421 386L423 392L425 396L428 403L430 406L432 410L434 413L436 418L438 421L441 425L443 431L445 436L447 440L449 446L452 449L454 451L456 453L458 452L460 451L462 450L465 449L467 449L469 450L471 451L473 451L475 453L478 454L480 456L482 458L484 459L486 460L489 462L491 462L493 464L495 465L497 465L499 466L502 467L504 465L506 465L508 465L510 466L513 466L515 465L517 466L519 467L521 467L523 462L526 461L528 459L530 458L532 456L534 453L536 452L539 455L541 453L543 455L545 454L547 456L550 454L552 455L554 453L556 453L558 451L560 451L563 449L565 450L567 447L569 447L571 448L574 448L576 451L578 451L580 452L582 454L584 456L587 457L589 460L591 460L593 462L595 465L597 467L600 468L602 469L604 470L606 471L608 472L611 471L613 473L615 474L617 476L619 478L621 480L624 481L626 483L628 484L630 486L632 487L635 488L637 489L639 489L641 491L643 492L645 493L648 494L650 496L652 498L654 498L656 499L658 500L661 500L663 501L665 502L667 503L669 504L672 507L674 507L676 508L678 510L680 510L682 510L685 510L687 509L689 510L691 510L693 511L696 509L698 510L700 511L702 511" fill="none" stroke-width="1.5"></path></g><g><path stroke="#CF0A66" stroke-linecap="round" d="M79 525L81 525L83 525L86 525L88 524L90 524L92 524L94 524L96 524L99 523L101 523L103 523L105 523L107 523L110 523L112 523L114 523L116 522L118 522L120 522L123 522L125 522L127 521L129 521L131 520L133 520L136 520L138 520L140 519L142 519L144 519L147 519L149 518L151 515L153 514L155 513L157 512L160 510L162 509L164 509L166 510L168 510L171 510L173 509L175 509L177 508L179 508L181 507L184 507L186 506L188 505L190 505L192 504L194 503L197 502L199 502L201 502L203 502L205 502L208 501L210 501L212 501L214 501L216 501L218 501L221 501L223 501L225 501L227 501L229 501L232 501L234 501L236 500L238 499L240 499L242 498L245 498L247 498L249 499L251 500L253 501L255 503L258 504L260 505L262 506L264 506L266 507L269 508L271 508L273 510L275 510L277 510L279 510L282 510L284 510L286 510L288 509L290 509L293 509L295 509L297 508L299 507L301 506L303 506L306 505L308 504L310 503L312 501L314 500L316 499L319 496L321 494L323 491L325 489L327 488L330 487L332 486L334 487L336 486L338 483L340 481L343 479L345 475L347 472L349 468L351 465L353 464L356 462L358 463L360 460L362 460L364 460L367 462L369 464L371 467L373 467L375 469L377 472L380 475L382 476L384 478L386 480L388 481L391 484L393 485L395 486L397 489L399 491L401 493L404 494L406 496L408 498L410 499L412 500L414 500L417 501L419 503L421 504L423 505L425 506L428 507L430 507L432 508L434 509L436 510L438 511L441 512L443 512L445 513L447 513L449 513L452 513L454 514L456 514L458 514L460 514L462 515L465 515L467 515L469 516L471 517L473 517L475 518L478 518L480 519L482 519L484 519L486 520L489 520L491 520L493 520L495 520L497 520L499 520L502 520L504 520L506 520L508 520L510 520L513 520L515 520L517 520L519 520L521 520L523 520L526 520L528 520L530 520L532 520L534 521L536 521L539 521L541 521L543 522L545 522L547 522L550 522L552 523L554 523L556 523L558 524L560 524L563 525L565 524L567 524L569 524L571 524L574 523L576 523L578 523L580 523L582 523L584 523L587 523L589 523L591 523L593 523L595 524L597 524L600 524L602 524L604 524L606 524L608 524L611 524L613 524L615 524L617 524L619 524L621 524L624 524L626 524L628 524L630 524L632 524L635 524L637 524L639 524L641 524L643 525L645 525L648 525L650 524L652 524L654 524L656 524L658 524L661 523L663 523L665 523L667 523L669 523L672 523L674 523L676 522L678 522L680 522L682 521L685 521L687 521L689 520L691 520L693 519L696 519L698 519L700 518L702 518" fill="none" stroke-width="1.5"></path></g><g><path stroke="#C05917" stroke-linecap="round" d="M79 521L81 521L83 521L86 521L88 521L90 521L92 521L94 521L96 521L99 521L101 521L103 520L105 520L107 520L110 520L112 520L114 520L116 520L118 520L120 520L123 520L125 520L127 520L129 519L131 519L133 519L136 519L138 518L140 518L142 518L144 517L147 517L149 517L151 516L153 516L155 515L157 515L160 515L162 514L164 514L166 513L168 513L171 512L173 512L175 512L177 511L179 511L181 511L184 510L186 510L188 510L190 509L192 509L194 509L197 508L199 508L201 508L203 508L205 508L208 508L210 507L212 507L214 507L216 507L218 506L221 506L223 505L225 505L227 505L229 504L232 504L234 504L236 503L238 503L240 503L242 503L245 502L247 502L249 502L251 502L253 501L255 501L258 501L260 500L262 500L264 500L266 499L269 499L271 498L273 498L275 498L277 498L279 497L282 497L284 497L286 497L288 496L290 496L293 496L295 496L297 496L299 496L301 496L303 496L306 496L308 496L310 496L312 496L314 496L316 496L319 496L321 496L323 495L325 495L327 495L330 495L332 495L334 495L336 495L338 495L340 495L343 496L345 496L347 496L349 497L351 498L353 498L356 499L358 499L360 500L362 500L364 500L367 500L369 501L371 501L373 501L375 501L377 500L380 500L382 500L384 501L386 501L388 501L391 502L393 502L395 503L397 503L399 504L401 504L404 505L406 505L408 505L410 506L412 506L414 506L417 506L419 507L421 507L423 508L425 508L428 508L430 509L432 509L434 509L436 509L438 510L441 510L443 510L445 510L447 511L449 511L452 511L454 512L456 512L458 512L460 512L462 512L465 513L467 513L469 513L471 514L473 514L475 514L478 514L480 514L482 514L484 514L486 514L489 514L491 515L493 515L495 515L497 515L499 516L502 516L504 516L506 516L508 516L510 516L513 516L515 516L517 516L519 516L521 516L523 516L526 516L528 516L530 516L532 516L534 516L536 517L539 517L541 517L543 517L545 517L547 517L550 517L552 517L554 517L556 517L558 517L560 517L563 517L565 517L567 517L569 517L571 517L574 517L576 517L578 517L580 517L582 517L584 517L587 517L589 517L591 517L593 517L595 517L597 517L600 517L602 517L604 517L606 517L608 517L611 517L613 517L615 517L617 517L619 517L621 517L624 517L626 517L628 517L630 517L632 517L635 517L637 517L639 517L641 517L643 517L645 517L648 517L650 517L652 517L654 517L656 517L658 517L661 517L663 517L665 517L667 517L669 517L672 517L674 516L676 516L678 516L680 516L682 516L685 516L687 516L689 516L691 516L693 516L696 515L698 514L700 513L702 513" fill="none" stroke-width="1.5"></path></g><g><path stroke="#6D3E91" stroke-linecap="round" d="M79 440L81 440L83 439L86 438L88 436L90 434L92 433L94 431L96 429L99 427L101 425L103 425L105 425L107 423L110 423L112 423L114 423L116 424L118 424L120 425L123 426L125 427L127 429L129 431L131 432L133 432L136 433L138 434L140 434L142 434L144 435L147 436L149 438L151 439L153 441L155 442L157 443L160 445L162 446L164 446L166 448L168 448L171 450L173 452L175 453L177 454L179 456L181 458L184 460L186 461L188 463L190 464L192 466L194 468L197 469L199 471L201 472L203 473L205 474L208 475L210 476L212 476L214 475L216 475L218 475L221 475L223 475L225 475L227 475L229 475L232 475L234 476L236 476L238 477L240 478L242 480L245 481L247 482L249 483L251 483L253 482L255 482L258 480L260 478L262 477L264 477L266 478L269 479L271 479L273 480L275 481L277 482L279 484L282 485L284 486L286 486L288 487L290 488L293 489L295 489L297 491L299 492L301 493L303 493L306 494L308 495L310 496L312 497L314 498L316 499L319 499L321 499L323 500L325 500L327 500L330 500L332 501L334 502L336 503L338 503L340 504L343 507L345 508L347 505L349 505L351 505L353 506L356 506L358 503L360 506L362 506L364 506L367 507L369 507L371 508L373 508L375 506L377 509L380 510L382 510L384 510L386 511L388 511L391 511L393 511L395 511L397 511L399 511L401 512L404 511L406 511L408 512L410 512L412 512L414 512L417 512L419 513L421 513L423 514L425 513L428 513L430 513L432 513L434 514L436 514L438 514L441 514L443 514L445 514L447 514L449 513L452 513L454 513L456 512L458 512L460 512L462 511L465 510L467 510L469 510L471 509L473 509L475 509L478 509L480 509L482 508L484 508L486 508L489 507L491 507L493 506L495 505L497 504L499 503L502 502L504 500L506 498L508 496L510 494L513 491L515 488L517 485L519 482L521 479L523 477L526 474L528 470L530 467L532 464L534 461L536 460L539 457L541 454L543 450L545 445L547 439L550 433L552 423L554 414L556 406L558 397L560 388L563 377L565 367L567 356L569 345L571 331L574 317L576 300L578 283L580 268L582 250L584 232L587 214L589 196L591 182L593 169L595 159L597 149L600 139L602 130L604 121L606 115L608 112L611 107L613 103L615 98L617 94L619 94L621 92L624 92L626 97L628 102L630 110L632 121L635 133L637 148L639 161L641 172L643 185L645 198L648 212L650 223L652 234L654 243L656 254L658 263L661 273L663 285L665 298L667 310L669 321L672 332L674 344L676 356L678 365L680 373L682 381L685 390L687 396L689 402L691 409L693 415L696 421L698 426L700 431L702 435" fill="none" stroke-width="1.5"></path></g><g><path stroke="#00823F" stroke-linecap="round" d="M79 503L81 501L83 502L86 501L88 501L90 500L92 499L94 498L96 498L99 497L101 496L103 495L105 495L107 494L110 493L112 492L114 491L116 489L118 488L120 487L123 486L125 485L127 484L129 483L131 482L133 482L136 481L138 481L140 483L142 480L144 480L147 480L149 478L151 477L153 477L155 473L157 472L160 468L162 463L164 458L166 455L168 451L171 448L173 443L175 437L177 431L179 427L181 421L184 415L186 408L188 401L190 394L192 383L194 375L197 373L199 356L201 347L203 339L205 329L208 321L210 317L212 309L214 300L216 293L218 299L221 296L223 293L225 284L227 284L229 301L232 306L234 295L236 300L238 306L240 317L242 321L245 322L247 319L249 325L251 328L253 331L255 334L258 339L260 345L262 352L264 356L266 361L269 366L271 371L273 374L275 378L277 383L279 387L282 389L284 392L286 391L288 390L290 392L293 392L295 392L297 391L299 389L301 389L303 387L306 387L308 384L310 381L312 380L314 378L316 378L319 380L321 378L323 377L325 378L327 379L330 389L332 399L334 403L336 406L338 407L340 400L343 399L345 396L347 395L349 393L351 390L353 385L356 391L358 381L360 373L362 362L364 359L367 355L369 358L371 357L373 366L375 369L377 373L380 375L382 373L384 376L386 376L388 379L391 378L393 378L395 378L397 378L399 378L401 381L404 381L406 383L408 383L410 385L412 388L414 390L417 394L419 400L421 399L423 402L425 402L428 408L430 412L432 416L434 415L436 422L438 422L441 423L443 426L445 427L447 428L449 427L452 426L454 424L456 422L458 422L460 420L462 416L465 414L467 411L469 409L471 407L473 406L475 417L478 416L480 415L482 414L484 412L486 411L489 411L491 397L493 394L495 392L497 390L499 386L502 383L504 381L506 376L508 375L510 369L513 366L515 365L517 363L519 358L521 360L523 353L526 350L528 346L530 342L532 342L534 344L536 340L539 339L541 339L543 343L545 353L547 347L550 351L552 363L554 378L556 372L558 377L560 377L563 373L565 370L567 359L569 351L571 363L574 361L576 358L578 375L580 377L582 379L584 382L587 384L589 386L591 390L593 390L595 392L597 396L600 399L602 403L604 409L606 411L608 416L611 418L613 421L615 425L617 429L619 431L621 433L624 435L626 436L628 438L630 443L632 447L635 452L637 456L639 455L641 457L643 462L645 463L648 467L650 469L652 471L654 473L656 474L658 479L661 483L663 483L665 485L667 486L669 487L672 488L674 488L676 491L678 491L680 493L682 495L685 496L687 496L689 498L691 498L693 500L696 502L698 503L700 504L702 504" fill="none" stroke-width="1.5"></path></g><g><path stroke="#4C6A9C" stroke-linecap="round" d="M79 482L81 482L83 482L86 481L88 482L90 483L92 488L94 493L96 495L99 495L101 496L103 496L105 496L107 495L110 491L112 491L114 492L116 492L118 493L120 492L123 493L125 493L127 499L129 494L131 495L133 496L136 497L138 497L140 497L142 491L144 496L147 501L149 496L151 497L153 497L155 496L157 496L160 498L162 493L164 498L166 498L168 498L171 503L173 504L175 504L177 503L179 504L181 506L184 503L186 501L188 501L190 502L192 502L194 501L197 499L199 501L201 500L203 499L205 499L208 500L210 502L212 502L214 503L216 506L218 507L221 511L223 508L225 508L227 507L229 507L232 505L234 501L236 496L238 498L240 495L242 495L245 494L247 493L249 495L251 495L253 493L255 494L258 493L260 493L262 493L264 491L266 491L269 492L271 489L273 488L275 487L277 484L279 483L282 481L284 479L286 481L288 480L290 481L293 481L295 480L297 480L299 478L301 478L303 479L306 478L308 479L310 477L312 474L314 474L316 473L319 473L321 473L323 471L325 475L327 477L330 481L332 486L334 487L336 488L338 487L340 486L343 486L345 486L347 487L349 487L351 487L353 487L356 486L358 481L360 477L362 469L364 467L367 466L369 465L371 466L373 469L375 466L377 466L380 466L382 466L384 466L386 466L388 467L391 469L393 469L395 470L397 469L399 469L401 469L404 469L406 468L408 469L410 469L412 470L414 471L417 472L419 473L421 474L423 483L425 476L428 479L430 476L432 476L434 476L436 476L438 469L441 477L443 472L445 475L447 476L449 476L452 476L454 474L456 473L458 474L460 473L462 471L465 469L467 467L469 466L471 466L473 464L475 465L478 464L480 462L482 461L484 459L486 452L489 453L491 451L493 450L495 450L497 448L499 447L502 453L504 452L506 450L508 448L510 447L513 446L515 445L517 445L519 443L521 443L523 443L526 441L528 442L530 441L532 441L534 443L536 443L539 442L541 444L543 446L545 453L547 455L550 457L552 456L554 456L556 457L558 453L560 448L563 447L565 446L567 447L569 450L571 452L574 453L576 454L578 453L580 454L582 456L584 455L587 459L589 462L591 462L593 463L595 464L597 463L600 463L602 459L604 459L606 460L608 461L611 461L613 460L615 461L617 461L619 459L621 460L624 458L626 458L628 459L630 458L632 458L635 457L637 456L639 456L641 455L643 455L645 455L648 453L650 455L652 453L654 454L656 453L658 453L661 453L663 455L665 460L667 459L669 458L672 459L674 458L676 456L678 453L680 455L682 457L685 458L687 457L689 461L691 462L693 462L696 454L698 452L700 452L702 452" fill="none" stroke-width="1.5"></path></g></g></g></g><g class="SourcesFooter" style="fill:#777"><g style="fill:#777"><text font-size="12.60" x="15.0" y="582.5"><tspan x="15" y="582.48">Source: Johns Hopkins University CSSE COVID-19 Data</tspan></text></g><text font-size="12.60" x="796.4" y="582.5"><tspan x="796.444" y="582.48"><a style="fill: #777;" class="cclogo" href="http://creativecommons.org/licenses/by/4.0/deed.en_US" target="_blank">CC BY</a></tspan></text></g></svg>