<svg xmlns="http://www.w3.org/2000/svg" version="1.1" style="font-family:&#x27;Segoe UI&#x27;, sans-serif;font-size:18px;background-color:white;text-rendering:optimizeLegibility;-webkit-font-smoothing:antialiased" viewBox="0 0 850 600"><g class="HeaderView"><g transform="translate(774, 15) scale(0.29)"><svg width="210" height="120" viewBox="0 0 210 120" fill="none" xmlns="http://www.w3.org/2000/svg">
<g clip-path="url(#clip0)">
  <path d="M0 0h210v107.89H0V0z" fill="#002147" />
  <path
    d="M40.98 32.25c0 2.36-.38 4.53-1.12 6.51a14.26 14.26 0 0 1-8.1 8.4c-1.9.78-4.02 1.17-6.34 1.17-2.31 0-4.42-.39-6.33-1.17a14.31 14.31 0 0 1-8.08-8.4 18.29 18.29 0 0 1-1.12-6.51c0-2.36.38-4.53 1.12-6.5.75-1.97 1.8-3.67 3.17-5.1a14.32 14.32 0 0 1 4.9-3.34c1.92-.8 4.03-1.19 6.34-1.19 2.32 0 4.43.4 6.34 1.19 1.92.8 3.56 1.9 4.93 3.34a14.87 14.87 0 0 1 3.17 5.1 18.1 18.1 0 0 1 1.12 6.5zm-4.38 0c0-1.94-.26-3.68-.8-5.22a10.91 10.91 0 0 0-2.24-3.89 9.68 9.68 0 0 0-3.52-2.46 11.95 11.95 0 0 0-4.62-.86c-1.68 0-3.21.28-4.6.86a9.88 9.88 0 0 0-3.54 2.46 10.91 10.91 0 0 0-2.24 3.9c-.53 1.53-.8 3.27-.8 5.2 0 1.94.27 3.68.8 5.22a11.17 11.17 0 0 0 2.24 3.9 10.01 10.01 0 0 0 3.55 2.44c1.38.56 2.9.83 4.6.83s3.24-.27 4.61-.83a9.8 9.8 0 0 0 3.52-2.44 11.17 11.17 0 0 0 2.25-3.9c.53-1.54.8-3.28.8-5.21zm26.22-6.54V48H60.5c-.56 0-.9-.27-1.05-.81l-.31-2.4a12.45 12.45 0 0 1-3.26 2.6c-1.2.64-2.58.96-4.13.96-1.22 0-2.3-.2-3.24-.6a6.52 6.52 0 0 1-2.33-1.7 7.37 7.37 0 0 1-1.43-2.67c-.3-1.04-.46-2.2-.46-3.45V25.7h3.91v14.22c0 1.68.38 2.99 1.15 3.91.77.93 1.96 1.39 3.54 1.39 1.16 0 2.24-.27 3.23-.82a10.42 10.42 0 0 0 2.8-2.28V25.7h3.91zm8.61 4.47a9.94 9.94 0 0 1 2.6-3.56 5.64 5.64 0 0 1 3.76-1.3c.47 0 .92.05 1.34.15.44.1.83.27 1.17.49l-.3 2.92c-.09.37-.3.55-.66.55-.2 0-.5-.04-.9-.13a6.21 6.21 0 0 0-3.24.18 4.23 4.23 0 0 0-1.47.92c-.42.4-.81.9-1.17 1.5-.33.58-.64 1.26-.92 2.02V48H67.7V25.71h2.25c.42 0 .72.08.88.25.16.16.27.44.33.83l.26 3.39zm61.16-13.7L122.75 48h-3.82l-7.99-24.05a21.95 21.95 0 0 1-.42-1.58 38.36 38.36 0 0 1-.44 1.58L102.05 48h-3.83L88.4 16.47h3.54c.38 0 .7.1.95.29.26.2.43.43.5.73l6.52 21.9.28 1.28.29 1.46.3-1.46.38-1.27 7.41-21.91c.1-.25.26-.48.51-.69.27-.22.58-.33.95-.33h1.23c.38 0 .69.1.92.29a1.77 1.77 0 0 1 .53.73l7.4 21.9a28.4 28.4 0 0 1 .68 2.62 29.52 29.52 0 0 1 .52-2.61l6.54-21.91a1.31 1.31 0 0 1 .48-.7c.27-.21.58-.32.95-.32h3.32zm9.35 8.88c1.63 0 3.1.27 4.4.82a9.43 9.43 0 0 1 5.46 5.94c.5 1.4.74 2.98.74 4.73 0 1.76-.25 3.34-.74 4.75a9.43 9.43 0 0 1-5.46 5.92c-1.3.52-2.77.79-4.4.79-1.64 0-3.12-.27-4.44-.8a9.42 9.42 0 0 1-3.35-2.3c-.92-1-1.63-2.2-2.13-3.61-.49-1.41-.73-3-.73-4.75s.24-3.33.73-4.73c.5-1.43 1.2-2.64 2.13-3.63.93-1 2.04-1.77 3.35-2.31 1.32-.55 2.8-.82 4.44-.82zm0 19.89c2.2 0 3.84-.73 4.93-2.2 1.08-1.48 1.63-3.54 1.63-6.18 0-2.66-.55-4.72-1.63-6.2-1.09-1.49-2.73-2.23-4.93-2.23-1.12 0-2.09.2-2.93.57a5.71 5.71 0 0 0-2.06 1.65c-.55.72-.96 1.61-1.24 2.67-.26 1.04-.4 2.22-.4 3.54 0 2.64.55 4.7 1.64 6.18 1.1 1.47 2.76 2.2 4.99 2.2zm17.97-15.07a9.94 9.94 0 0 1 2.6-3.56 5.64 5.64 0 0 1 3.76-1.3c.47 0 .91.05 1.34.15.44.1.83.27 1.16.49l-.28 2.92c-.09.37-.31.55-.66.55-.2 0-.5-.04-.9-.13a6.2 6.2 0 0 0-3.24.18 4.23 4.23 0 0 0-1.47.92c-.43.4-.82.9-1.17 1.5a13.1 13.1 0 0 0-.92 2.02V48h-3.94V25.71h2.24c.43 0 .72.08.88.25.17.16.28.44.33.83l.27 3.39zm15.04-14.59V48h-3.92V15.6h3.92zm19.55 15.43a6.22 6.22 0 0 0-2.38-2.05 6.7 6.7 0 0 0-2.86-.6c-2.07 0-3.66.75-4.77 2.23-1.12 1.48-1.68 3.6-1.68 6.33 0 1.46.13 2.7.38 3.74a7.29 7.29 0 0 0 1.1 2.56 4.35 4.35 0 0 0 1.78 1.45c.7.3 1.5.46 2.4.46 1.29 0 2.41-.3 3.36-.88a9.6 9.6 0 0 0 2.67-2.49V31.02zm3.91-15.43V48h-2.33c-.56 0-.9-.27-1.06-.81l-.35-2.71a12.13 12.13 0 0 1-3.25 2.77 8.28 8.28 0 0 1-4.23 1.06 7.31 7.31 0 0 1-6.14-2.9c-.73-.96-1.3-2.15-1.69-3.57a18.35 18.35 0 0 1 .07-9.48 11.29 11.29 0 0 1 1.89-3.7 8.7 8.7 0 0 1 7.06-3.34 7.96 7.96 0 0 1 6.12 2.62V15.59h3.91zM46.61 70.71V93H42.7V70.71h3.91zm.84-7c0 .39-.08.75-.24 1.09-.15.32-.35.61-.62.88-.25.25-.55.44-.9.59a2.67 2.67 0 0 1-2.16 0 2.9 2.9 0 0 1-1.45-1.47 2.67 2.67 0 0 1 0-2.16c.15-.35.35-.65.6-.9.25-.27.53-.47.85-.62a2.67 2.67 0 0 1 2.16 0c.35.15.65.35.9.62.27.25.47.55.62.9.16.34.24.7.24 1.08zm7.97 10.24c.49-.54 1-1.04 1.54-1.48a9.85 9.85 0 0 1 3.66-1.84 8.96 8.96 0 0 1 5.43.35c.94.4 1.72.97 2.33 1.71.63.74 1.11 1.62 1.43 2.67.32 1.04.49 2.19.49 3.45V93h-3.94V78.81c0-1.69-.4-3-1.17-3.92-.76-.93-1.93-1.4-3.5-1.4-1.15 0-2.24.27-3.25.83-1 .56-1.92 1.31-2.77 2.27V93h-3.94V70.71h2.35c.56 0 .9.28 1.04.82l.3 2.42zm57.7 3.3c0 2.36-.37 4.5-1.11 6.44a14.3 14.3 0 0 1-3.17 4.98c-1.37 1.37-3 2.45-4.93 3.2-1.9.76-4.02 1.13-6.33 1.13H85.8V61.47h11.77c2.31 0 4.42.39 6.33 1.15a13.8 13.8 0 0 1 8.1 8.18 17.75 17.75 0 0 1 1.12 6.45zm-4.37 0c0-1.94-.26-3.67-.8-5.2a10.94 10.94 0 0 0-2.23-3.87 9.57 9.57 0 0 0-3.53-2.42 12.23 12.23 0 0 0-4.61-.83h-7.5v24.62h7.5c1.7 0 3.24-.28 4.61-.84a9.7 9.7 0 0 0 3.53-2.4 10.94 10.94 0 0 0 2.24-3.87c.53-1.53.8-3.26.8-5.2zm19.8 5.72c-1.8.06-3.34.2-4.62.44-1.26.22-2.3.51-3.1.88-.8.36-1.37.8-1.74 1.3-.35.5-.53 1.05-.53 1.67 0 .58.1 1.1.3 1.52a3 3 0 0 0 .76 1.05c.34.27.73.46 1.17.6a6.13 6.13 0 0 0 1.45.17 7.28 7.28 0 0 0 3.5-.81 11.95 11.95 0 0 0 2.82-2.2v-4.62zm-12.65-9.11a12.73 12.73 0 0 1 3.98-2.66c1.43-.59 3-.88 4.73-.88 1.25 0 2.36.2 3.33.61a6.81 6.81 0 0 1 3.94 4.38c.33 1.04.5 2.19.5 3.43V93h-1.74a1.8 1.8 0 0 1-.88-.18c-.2-.13-.36-.38-.48-.74l-.44-2.12-1.72 1.46a9.48 9.48 0 0 1-3.74 1.7c-.69.15-1.46.23-2.3.23-.87 0-1.69-.12-2.45-.35a5.34 5.34 0 0 1-3.34-2.93 6.64 6.64 0 0 1-.49-2.64c0-.88.25-1.72.73-2.53a6.33 6.33 0 0 1 2.35-2.17c1.09-.63 2.5-1.15 4.25-1.54 1.75-.41 3.89-.65 6.42-.7v-1.75c0-1.73-.37-3.03-1.12-3.91-.75-.9-1.84-1.34-3.28-1.34-.97 0-1.78.12-2.44.37-.64.23-1.2.5-1.7.81l-1.23.82c-.33.23-.67.35-1 .35-.27 0-.5-.07-.69-.2a2.1 2.1 0 0 1-.48-.53l-.7-1.25zm27.67 19.5c-1.76 0-3.12-.5-4.07-1.48-.94-.98-1.41-2.4-1.41-4.25V74h-2.68a.9.9 0 0 1-.6-.2c-.16-.14-.24-.36-.24-.66v-1.56l3.65-.46.9-6.89c.05-.22.14-.4.29-.52a.88.88 0 0 1 .62-.22H142v7.67h6.44V74H142v13.38c0 .94.22 1.63.68 2.09.45.45 1.04.68 1.76.68a3.21 3.21 0 0 0 1.85-.53l.55-.35c.16-.12.3-.18.41-.18.2 0 .4.13.55.38l1.15 1.87a7.45 7.45 0 0 1-2.44 1.5 8.53 8.53 0 0 1-2.95.52zm19.68-10.4c-1.8.07-3.34.21-4.62.45-1.26.22-2.3.51-3.1.88-.8.36-1.37.8-1.74 1.3-.35.5-.53 1.05-.53 1.67 0 .58.1 1.1.3 1.52a2.9 2.9 0 0 0 .76 1.05c.34.27.73.46 1.17.6a6.13 6.13 0 0 0 1.45.17 7.3 7.3 0 0 0 3.5-.81 12.04 12.04 0 0 0 2.82-2.2v-4.62zm-12.65-9.1a12.72 12.72 0 0 1 3.99-2.66c1.42-.59 3-.88 4.72-.88 1.25 0 2.36.2 3.33.61a6.81 6.81 0 0 1 3.94 4.38c.33 1.04.5 2.19.5 3.43V93h-1.74a1.8 1.8 0 0 1-.88-.18c-.2-.13-.36-.38-.48-.74l-.44-2.12-1.72 1.46a9.48 9.48 0 0 1-3.74 1.7c-.69.15-1.46.23-2.3.23-.87 0-1.69-.12-2.45-.35a5.33 5.33 0 0 1-3.34-2.93 6.62 6.62 0 0 1-.49-2.64c0-.88.25-1.72.73-2.53a6.33 6.33 0 0 1 2.35-2.17c1.09-.63 2.5-1.15 4.25-1.54 1.74-.41 3.89-.65 6.42-.7v-1.75c0-1.73-.37-3.03-1.12-3.91-.75-.9-1.84-1.34-3.28-1.34-.97 0-1.78.12-2.44.37-.64.23-1.2.5-1.7.81l-1.22.82c-.34.23-.68.35-1.02.35-.26 0-.49-.07-.68-.2a1.88 1.88 0 0 1-.48-.53l-.7-1.25zM40.98 32.25c0 2.36-.38 4.53-1.12 6.51a14.26 14.26 0 0 1-8.1 8.4c-1.9.78-4.02 1.17-6.34 1.17-2.31 0-4.42-.39-6.33-1.17a14.31 14.31 0 0 1-8.08-8.4 18.29 18.29 0 0 1-1.12-6.51c0-2.36.38-4.53 1.12-6.5.75-1.97 1.8-3.67 3.17-5.1a14.32 14.32 0 0 1 4.9-3.34c1.92-.8 4.03-1.19 6.34-1.19 2.32 0 4.43.4 6.34 1.19 1.92.8 3.56 1.9 4.93 3.34a14.87 14.87 0 0 1 3.17 5.1 18.1 18.1 0 0 1 1.12 6.5zm-4.38 0c0-1.94-.26-3.68-.8-5.22a10.91 10.91 0 0 0-2.24-3.89 9.68 9.68 0 0 0-3.52-2.46 11.95 11.95 0 0 0-4.62-.86c-1.68 0-3.21.28-4.6.86a9.88 9.88 0 0 0-3.54 2.46 10.91 10.91 0 0 0-2.24 3.9c-.53 1.53-.8 3.27-.8 5.2 0 1.94.27 3.68.8 5.22a11.17 11.17 0 0 0 2.24 3.9 10.01 10.01 0 0 0 3.55 2.44c1.38.56 2.9.83 4.6.83s3.24-.27 4.61-.83a9.8 9.8 0 0 0 3.52-2.44 11.17 11.17 0 0 0 2.25-3.9c.53-1.54.8-3.28.8-5.21zm26.22-6.54V48H60.5c-.56 0-.9-.27-1.05-.81l-.31-2.4a12.45 12.45 0 0 1-3.26 2.6c-1.2.64-2.58.96-4.13.96-1.22 0-2.3-.2-3.24-.6a6.52 6.52 0 0 1-2.33-1.7 7.37 7.37 0 0 1-1.43-2.67c-.3-1.04-.46-2.2-.46-3.45V25.7h3.91v14.22c0 1.68.38 2.99 1.15 3.91.77.93 1.96 1.39 3.54 1.39 1.16 0 2.24-.27 3.23-.82a10.42 10.42 0 0 0 2.8-2.28V25.7h3.91zm8.61 4.47a9.94 9.94 0 0 1 2.6-3.56 5.64 5.64 0 0 1 3.76-1.3c.47 0 .92.05 1.34.15.44.1.83.27 1.17.49l-.3 2.92c-.09.37-.3.55-.66.55-.2 0-.5-.04-.9-.13a6.21 6.21 0 0 0-3.24.18 4.23 4.23 0 0 0-1.47.92c-.42.4-.81.9-1.17 1.5-.33.58-.64 1.26-.92 2.02V48H67.7V25.71h2.25c.42 0 .72.08.88.25.16.16.27.44.33.83l.26 3.39zm61.16-13.7L122.75 48h-3.82l-7.99-24.05a21.95 21.95 0 0 1-.42-1.58 38.36 38.36 0 0 1-.44 1.58L102.05 48h-3.83L88.4 16.47h3.54c.38 0 .7.1.95.29.26.2.43.43.5.73l6.52 21.9.28 1.28.29 1.46.3-1.46.38-1.27 7.41-21.91c.1-.25.26-.48.51-.69.27-.22.58-.33.95-.33h1.23c.38 0 .69.1.92.29a1.77 1.77 0 0 1 .53.73l7.4 21.9a28.4 28.4 0 0 1 .68 2.62 29.52 29.52 0 0 1 .52-2.61l6.54-21.91a1.31 1.31 0 0 1 .48-.7c.27-.21.58-.32.95-.32h3.32zm9.35 8.88c1.63 0 3.1.27 4.4.82a9.43 9.43 0 0 1 5.46 5.94c.5 1.4.74 2.98.74 4.73 0 1.76-.25 3.34-.74 4.75a9.43 9.43 0 0 1-5.46 5.92c-1.3.52-2.77.79-4.4.79-1.64 0-3.12-.27-4.44-.8a9.42 9.42 0 0 1-3.35-2.3c-.92-1-1.63-2.2-2.13-3.61-.49-1.41-.73-3-.73-4.75s.24-3.33.73-4.73c.5-1.43 1.2-2.64 2.13-3.63.93-1 2.04-1.77 3.35-2.31 1.32-.55 2.8-.82 4.44-.82zm0 19.89c2.2 0 3.84-.73 4.93-2.2 1.08-1.48 1.63-3.54 1.63-6.18 0-2.66-.55-4.72-1.63-6.2-1.09-1.49-2.73-2.23-4.93-2.23-1.12 0-2.09.2-2.93.57a5.71 5.71 0 0 0-2.06 1.65c-.55.72-.96 1.61-1.24 2.67-.26 1.04-.4 2.22-.4 3.54 0 2.64.55 4.7 1.64 6.18 1.1 1.47 2.76 2.2 4.99 2.2zm17.97-15.07a9.94 9.94 0 0 1 2.6-3.56 5.64 5.64 0 0 1 3.76-1.3c.47 0 .91.05 1.34.15.44.1.83.27 1.16.49l-.28 2.92c-.09.37-.31.55-.66.55-.2 0-.5-.04-.9-.13a6.2 6.2 0 0 0-3.24.18 4.23 4.23 0 0 0-1.47.92c-.43.4-.82.9-1.17 1.5a13.1 13.1 0 0 0-.92 2.02V48h-3.94V25.71h2.24c.43 0 .72.08.88.25.17.16.28.44.33.83l.27 3.39zm15.04-14.59V48h-3.92V15.6h3.92zm19.55 15.43a6.22 6.22 0 0 0-2.38-2.05 6.7 6.7 0 0 0-2.86-.6c-2.07 0-3.66.75-4.77 2.23-1.12 1.48-1.68 3.6-1.68 6.33 0 1.46.13 2.7.38 3.74a7.29 7.29 0 0 0 1.1 2.56 4.35 4.35 0 0 0 1.78 1.45c.7.3 1.5.46 2.4.46 1.29 0 2.41-.3 3.36-.88a9.6 9.6 0 0 0 2.67-2.49V31.02zm3.91-15.43V48h-2.33c-.56 0-.9-.27-1.06-.81l-.35-2.71a12.13 12.13 0 0 1-3.25 2.77 8.28 8.28 0 0 1-4.23 1.06 7.31 7.31 0 0 1-6.14-2.9c-.73-.96-1.3-2.15-1.69-3.57a18.35 18.35 0 0 1 .07-9.48 11.29 11.29 0 0 1 1.89-3.7 8.7 8.7 0 0 1 7.06-3.34 7.96 7.96 0 0 1 6.12 2.62V15.59h3.91zM46.61 70.71V93H42.7V70.71h3.91zm.84-7c0 .39-.08.75-.24 1.09-.15.32-.35.61-.62.88-.25.25-.55.44-.9.59a2.67 2.67 0 0 1-2.16 0 2.9 2.9 0 0 1-1.45-1.47 2.67 2.67 0 0 1 0-2.16c.15-.35.35-.65.6-.9.25-.27.53-.47.85-.62a2.67 2.67 0 0 1 2.16 0c.35.15.65.35.9.62.27.25.47.55.62.9.16.34.24.7.24 1.08zm7.97 10.24c.49-.54 1-1.04 1.54-1.48a9.85 9.85 0 0 1 3.66-1.84 8.96 8.96 0 0 1 5.43.35c.94.4 1.72.97 2.33 1.71.63.74 1.11 1.62 1.43 2.67.32 1.04.49 2.19.49 3.45V93h-3.94V78.81c0-1.69-.4-3-1.17-3.92-.76-.93-1.93-1.4-3.5-1.4-1.15 0-2.24.27-3.25.83-1 .56-1.92 1.31-2.77 2.27V93h-3.94V70.71h2.35c.56 0 .9.28 1.04.82l.3 2.42zm57.7 3.3c0 2.36-.37 4.5-1.11 6.44a14.3 14.3 0 0 1-3.17 4.98c-1.37 1.37-3 2.45-4.93 3.2-1.9.76-4.02 1.13-6.33 1.13H85.8V61.47h11.77c2.31 0 4.42.39 6.33 1.15a13.8 13.8 0 0 1 8.1 8.18 17.75 17.75 0 0 1 1.12 6.45zm-4.37 0c0-1.94-.26-3.67-.8-5.2a10.94 10.94 0 0 0-2.23-3.87 9.57 9.57 0 0 0-3.53-2.42 12.23 12.23 0 0 0-4.61-.83h-7.5v24.62h7.5c1.7 0 3.24-.28 4.61-.84a9.7 9.7 0 0 0 3.53-2.4 10.94 10.94 0 0 0 2.24-3.87c.53-1.53.8-3.26.8-5.2zm19.8 5.72c-1.8.06-3.34.2-4.62.44-1.26.22-2.3.51-3.1.88-.8.36-1.37.8-1.74 1.3-.35.5-.53 1.05-.53 1.67 0 .58.1 1.1.3 1.52a3 3 0 0 0 .76 1.05c.34.27.73.46 1.17.6a6.13 6.13 0 0 0 1.45.17 7.28 7.28 0 0 0 3.5-.81 11.95 11.95 0 0 0 2.82-2.2v-4.62zm-12.65-9.11a12.73 12.73 0 0 1 3.98-2.66c1.43-.59 3-.88 4.73-.88 1.25 0 2.36.2 3.33.61a6.81 6.81 0 0 1 3.94 4.38c.33 1.04.5 2.19.5 3.43V93h-1.74a1.8 1.8 0 0 1-.88-.18c-.2-.13-.36-.38-.48-.74l-.44-2.12-1.72 1.46a9.48 9.48 0 0 1-3.74 1.7c-.69.15-1.46.23-2.3.23-.87 0-1.69-.12-2.45-.35a5.34 5.34 0 0 1-3.34-2.93 6.64 6.64 0 0 1-.49-2.64c0-.88.25-1.72.73-2.53a6.33 6.33 0 0 1 2.35-2.17c1.09-.63 2.5-1.15 4.25-1.54 1.75-.41 3.89-.65 6.42-.7v-1.75c0-1.73-.37-3.03-1.12-3.91-.75-.9-1.84-1.34-3.28-1.34-.97 0-1.78.12-2.44.37-.64.23-1.2.5-1.7.81l-1.23.82c-.33.23-.67.35-1 .35-.27 0-.5-.07-.69-.2a2.1 2.1 0 0 1-.48-.53l-.7-1.25zm27.67 19.5c-1.76 0-3.12-.5-4.07-1.48-.94-.98-1.41-2.4-1.41-4.25V74h-2.68a.9.9 0 0 1-.6-.2c-.16-.14-.24-.36-.24-.66v-1.56l3.65-.46.9-6.89c.05-.22.14-.4.29-.52a.88.88 0 0 1 .62-.22H142v7.67h6.44V74H142v13.38c0 .94.22 1.63.68 2.09.45.45 1.04.68 1.76.68a3.21 3.21 0 0 0 1.85-.53l.55-.35c.16-.12.3-.18.41-.18.2 0 .4.13.55.38l1.15 1.87a7.45 7.45 0 0 1-2.44 1.5 8.53 8.53 0 0 1-2.95.52zm19.68-10.4c-1.8.07-3.34.21-4.62.45-1.26.22-2.3.51-3.1.88-.8.36-1.37.8-1.74 1.3-.35.5-.53 1.05-.53 1.67 0 .58.1 1.1.3 1.52a2.9 2.9 0 0 0 .76 1.05c.34.27.73.46 1.17.6a6.13 6.13 0 0 0 1.45.17 7.3 7.3 0 0 0 3.5-.81 12.04 12.04 0 0 0 2.82-2.2v-4.62zm-12.65-9.1a12.72 12.72 0 0 1 3.99-2.66c1.42-.59 3-.88 4.72-.88 1.25 0 2.36.2 3.33.61a6.81 6.81 0 0 1 3.94 4.38c.33 1.04.5 2.19.5 3.43V93h-1.74a1.8 1.8 0 0 1-.88-.18c-.2-.13-.36-.38-.48-.74l-.44-2.12-1.72 1.46a9.48 9.48 0 0 1-3.74 1.7c-.69.15-1.46.23-2.3.23-.87 0-1.69-.12-2.45-.35a5.33 5.33 0 0 1-3.34-2.93 6.62 6.62 0 0 1-.49-2.64c0-.88.25-1.72.73-2.53a6.33 6.33 0 0 1 2.35-2.17c1.09-.63 2.5-1.15 4.25-1.54 1.74-.41 3.89-.65 6.42-.7v-1.75c0-1.73-.37-3.03-1.12-3.91-.75-.9-1.84-1.34-3.28-1.34-.97 0-1.78.12-2.44.37-.64.23-1.2.5-1.7.81l-1.22.82c-.34.23-.68.35-1.02.35-.26 0-.49-.07-.68-.2a1.88 1.88 0 0 1-.48-.53l-.7-1.25zM40.98 32.25c0 2.36-.38 4.53-1.12 6.51a14.26 14.26 0 0 1-8.1 8.4c-1.9.78-4.02 1.17-6.34 1.17-2.31 0-4.42-.39-6.33-1.17a14.31 14.31 0 0 1-8.08-8.4 18.29 18.29 0 0 1-1.12-6.51c0-2.36.38-4.53 1.12-6.5.75-1.97 1.8-3.67 3.17-5.1a14.32 14.32 0 0 1 4.9-3.34c1.92-.8 4.03-1.19 6.34-1.19 2.32 0 4.43.4 6.34 1.19 1.92.8 3.56 1.9 4.93 3.34a14.87 14.87 0 0 1 3.17 5.1 18.1 18.1 0 0 1 1.12 6.5zm-4.38 0c0-1.94-.26-3.68-.8-5.22a10.91 10.91 0 0 0-2.24-3.89 9.68 9.68 0 0 0-3.52-2.46 11.95 11.95 0 0 0-4.62-.86c-1.68 0-3.21.28-4.6.86a9.88 9.88 0 0 0-3.54 2.46 10.91 10.91 0 0 0-2.24 3.9c-.53 1.53-.8 3.27-.8 5.2 0 1.94.27 3.68.8 5.22a11.17 11.17 0 0 0 2.24 3.9 10.01 10.01 0 0 0 3.55 2.44c1.38.56 2.9.83 4.6.83s3.24-.27 4.61-.83a9.8 9.8 0 0 0 3.52-2.44 11.17 11.17 0 0 0 2.25-3.9c.53-1.54.8-3.28.8-5.21zm26.22-6.54V48H60.5c-.56 0-.9-.27-1.05-.81l-.31-2.4a12.45 12.45 0 0 1-3.26 2.6c-1.2.64-2.58.96-4.13.96-1.22 0-2.3-.2-3.24-.6a6.52 6.52 0 0 1-2.33-1.7 7.37 7.37 0 0 1-1.43-2.67c-.3-1.04-.46-2.2-.46-3.45V25.7h3.91v14.22c0 1.68.38 2.99 1.15 3.91.77.93 1.96 1.39 3.54 1.39 1.16 0 2.24-.27 3.23-.82a10.42 10.42 0 0 0 2.8-2.28V25.7h3.91zm8.61 4.47a9.94 9.94 0 0 1 2.6-3.56 5.64 5.64 0 0 1 3.76-1.3c.47 0 .92.05 1.34.15.44.1.83.27 1.17.49l-.3 2.92c-.09.37-.3.55-.66.55-.2 0-.5-.04-.9-.13a6.21 6.21 0 0 0-3.24.18 4.23 4.23 0 0 0-1.47.92c-.42.4-.81.9-1.17 1.5-.33.58-.64 1.26-.92 2.02V48H67.7V25.71h2.25c.42 0 .72.08.88.25.16.16.27.44.33.83l.26 3.39zm61.16-13.7L122.75 48h-3.82l-7.99-24.05a21.95 21.95 0 0 1-.42-1.58 38.36 38.36 0 0 1-.44 1.58L102.05 48h-3.83L88.4 16.47h3.54c.38 0 .7.1.95.29.26.2.43.43.5.73l6.52 21.9.28 1.28.29 1.46.3-1.46.38-1.27 7.41-21.91c.1-.25.26-.48.51-.69.27-.22.58-.33.95-.33h1.23c.38 0 .69.1.92.29a1.77 1.77 0 0 1 .53.73l7.4 21.9a28.4 28.4 0 0 1 .68 2.62 29.52 29.52 0 0 1 .52-2.61l6.54-21.91a1.31 1.31 0 0 1 .48-.7c.27-.21.58-.32.95-.32h3.32zm9.35 8.88c1.63 0 3.1.27 4.4.82a9.43 9.43 0 0 1 5.46 5.94c.5 1.4.74 2.98.74 4.73 0 1.76-.25 3.34-.74 4.75a9.43 9.43 0 0 1-5.46 5.92c-1.3.52-2.77.79-4.4.79-1.64 0-3.12-.27-4.44-.8a9.42 9.42 0 0 1-3.35-2.3c-.92-1-1.63-2.2-2.13-3.61-.49-1.41-.73-3-.73-4.75s.24-3.33.73-4.73c.5-1.43 1.2-2.64 2.13-3.63.93-1 2.04-1.77 3.35-2.31 1.32-.55 2.8-.82 4.44-.82zm0 19.89c2.2 0 3.84-.73 4.93-2.2 1.08-1.48 1.63-3.54 1.63-6.18 0-2.66-.55-4.72-1.63-6.2-1.09-1.49-2.73-2.23-4.93-2.23-1.12 0-2.09.2-2.93.57a5.71 5.71 0 0 0-2.06 1.65c-.55.72-.96 1.61-1.24 2.67-.26 1.04-.4 2.22-.4 3.54 0 2.64.55 4.7 1.64 6.18 1.1 1.47 2.76 2.2 4.99 2.2zm17.97-15.07a9.94 9.94 0 0 1 2.6-3.56 5.64 5.64 0 0 1 3.76-1.3c.47 0 .91.05 1.34.15.44.1.83.27 1.16.49l-.28 2.92c-.09.37-.31.55-.66.55-.2 0-.5-.04-.9-.13a6.2 6.2 0 0 0-3.24.18 4.23 4.23 0 0 0-1.47.92c-.43.4-.82.9-1.17 1.5a13.1 13.1 0 0 0-.92 2.02V48h-3.94V25.71h2.24c.43 0 .72.08.88.25.17.16.28.44.33.83l.27 3.39zm15.04-14.59V48h-3.92V15.6h3.92zm19.55 15.43a6.22 6.22 0 0 0-2.38-2.05 6.7 6.7 0 0 0-2.86-.6c-2.07 0-3.66.75-4.77 2.23-1.12 1.48-1.68 3.6-1.68 6.33 0 1.46.13 2.7.38 3.74a7.29 7.29 0 0 0 1.1 2.56 4.35 4.35 0 0 0 1.78 1.45c.7.3 1.5.46 2.4.46 1.29 0 2.41-.3 3.36-.88a9.6 9.6 0 0 0 2.67-2.49V31.02zm3.91-15.43V48h-2.33c-.56 0-.9-.27-1.06-.81l-.35-2.71a12.13 12.13 0 0 1-3.25 2.77 8.28 8.28 0 0 1-4.23 1.06 7.31 7.31 0 0 1-6.14-2.9c-.73-.96-1.3-2.15-1.69-3.57a18.35 18.35 0 0 1 .07-9.48 11.29 11.29 0 0 1 1.89-3.7 8.7 8.7 0 0 1 7.06-3.34 7.96 7.96 0 0 1 6.12 2.62V15.59h3.91zM46.61 70.71V93H42.7V70.71h3.91zm.84-7c0 .39-.08.75-.24 1.09-.15.32-.35.61-.62.88-.25.25-.55.44-.9.59a2.67 2.67 0 0 1-2.16 0 2.9 2.9 0 0 1-1.45-1.47 2.67 2.67 0 0 1 0-2.16c.15-.35.35-.65.6-.9.25-.27.53-.47.85-.62a2.67 2.67 0 0 1 2.16 0c.35.15.65.35.9.62.27.25.47.55.62.9.16.34.24.7.24 1.08zm7.97 10.24c.49-.54 1-1.04 1.54-1.48a9.85 9.85 0 0 1 3.66-1.84 8.96 8.96 0 0 1 5.43.35c.94.4 1.72.97 2.33 1.71.63.74 1.11 1.62 1.43 2.67.32 1.04.49 2.19.49 3.45V93h-3.94V78.81c0-1.69-.4-3-1.17-3.92-.76-.93-1.93-1.4-3.5-1.4-1.15 0-2.24.27-3.25.83-1 .56-1.92 1.31-2.77 2.27V93h-3.94V70.71h2.35c.56 0 .9.28 1.04.82l.3 2.42zm57.7 3.3c0 2.36-.37 4.5-1.11 6.44a14.3 14.3 0 0 1-3.17 4.98c-1.37 1.37-3 2.45-4.93 3.2-1.9.76-4.02 1.13-6.33 1.13H85.8V61.47h11.77c2.31 0 4.42.39 6.33 1.15a13.8 13.8 0 0 1 8.1 8.18 17.75 17.75 0 0 1 1.12 6.45zm-4.37 0c0-1.94-.26-3.67-.8-5.2a10.94 10.94 0 0 0-2.23-3.87 9.57 9.57 0 0 0-3.53-2.42 12.23 12.23 0 0 0-4.61-.83h-7.5v24.62h7.5c1.7 0 3.24-.28 4.61-.84a9.7 9.7 0 0 0 3.53-2.4 10.94 10.94 0 0 0 2.24-3.87c.53-1.53.8-3.26.8-5.2zm19.8 5.72c-1.8.06-3.34.2-4.62.44-1.26.22-2.3.51-3.1.88-.8.36-1.37.8-1.74 1.3-.35.5-.53 1.05-.53 1.67 0 .58.1 1.1.3 1.52a3 3 0 0 0 .76 1.05c.34.27.73.46 1.17.6a6.13 6.13 0 0 0 1.45.17 7.28 7.28 0 0 0 3.5-.81 11.95 11.95 0 0 0 2.82-2.2v-4.62zm-12.65-9.11a12.73 12.73 0 0 1 3.98-2.66c1.43-.59 3-.88 4.73-.88 1.25 0 2.36.2 3.33.61a6.81 6.81 0 0 1 3.94 4.38c.33 1.04.5 2.19.5 3.43V93h-1.74a1.8 1.8 0 0 1-.88-.18c-.2-.13-.36-.38-.48-.74l-.44-2.12-1.72 1.46a9.48 9.48 0 0 1-3.74 1.7c-.69.15-1.46.23-2.3.23-.87 0-1.69-.12-2.45-.35a5.34 5.34 0 0 1-3.34-2.93 6.64 6.64 0 0 1-.49-2.64c0-.88.25-1.72.73-2.53a6.33 6.33 0 0 1 2.35-2.17c1.09-.63 2.5-1.15 4.25-1.54 1.75-.41 3.89-.65 6.42-.7v-1.75c0-1.73-.37-3.03-1.12-3.91-.75-.9-1.84-1.34-3.28-1.34-.97 0-1.78.12-2.44.37-.64.23-1.2.5-1.7.81l-1.23.82c-.33.23-.67.35-1 .35-.27 0-.5-.07-.69-.2a2.1 2.1 0 0 1-.48-.53l-.7-1.25zm27.67 19.5c-1.76 0-3.12-.5-4.07-1.48-.94-.98-1.41-2.4-1.41-4.25V74h-2.68a.9.9 0 0 1-.6-.2c-.16-.14-.24-.36-.24-.66v-1.56l3.65-.46.9-6.89c.05-.22.14-.4.29-.52a.88.88 0 0 1 .62-.22H142v7.67h6.44V74H142v13.38c0 .94.22 1.63.68 2.09.45.45 1.04.68 1.76.68a3.21 3.21 0 0 0 1.85-.53l.55-.35c.16-.12.3-.18.41-.18.2 0 .4.13.55.38l1.15 1.87a7.45 7.45 0 0 1-2.44 1.5 8.53 8.53 0 0 1-2.95.52zm19.68-10.4c-1.8.07-3.34.21-4.62.45-1.26.22-2.3.51-3.1.88-.8.36-1.37.8-1.74 1.3-.35.5-.53 1.05-.53 1.67 0 .58.1 1.1.3 1.52a2.9 2.9 0 0 0 .76 1.05c.34.27.73.46 1.17.6a6.13 6.13 0 0 0 1.45.17 7.3 7.3 0 0 0 3.5-.81 12.04 12.04 0 0 0 2.82-2.2v-4.62zm-12.65-9.1a12.72 12.72 0 0 1 3.99-2.66c1.42-.59 3-.88 4.72-.88 1.25 0 2.36.2 3.33.61a6.81 6.81 0 0 1 3.94 4.38c.33 1.04.5 2.19.5 3.43V93h-1.74a1.8 1.8 0 0 1-.88-.18c-.2-.13-.36-.38-.48-.74l-.44-2.12-1.72 1.46a9.48 9.48 0 0 1-3.74 1.7c-.69.15-1.46.23-2.3.23-.87 0-1.69-.12-2.45-.35a5.33 5.33 0 0 1-3.34-2.93 6.62 6.62 0 0 1-.49-2.64c0-.88.25-1.72.73-2.53a6.33 6.33 0 0 1 2.35-2.17c1.09-.63 2.5-1.15 4.25-1.54 1.74-.41 3.89-.65 6.42-.7v-1.75c0-1.73-.37-3.03-1.12-3.91-.75-.9-1.84-1.34-3.28-1.34-.97 0-1.78.12-2.44.37-.64.23-1.2.5-1.7.81l-1.22.82c-.34.23-.68.35-1.02.35-.26 0-.49-.07-.68-.2a1.88 1.88 0 0 1-.48-.53l-.7-1.25z"
    fill="#fff"
  />
  <path fill="#D42B21" d="M0 106.79h210V120H0z" />
</g>
<defs>
  <clipPath id="clip0"><path fill="#fff" d="M0 0h210v120H0z" /></clipPath>
</defs>
</svg></g><a href="https://ourworldindata.org/coronavirus-data-explorer?zoomToSelection=true&amp;time=2020-03-15..latest&amp;country=CHN~BRA~RUS~EuropeanUnion~USA~IND&amp;region=World&amp;casesMetric=true&amp;interval=smoothed&amp;smoothing=7&amp;pickerMetric=location&amp;pickerSort=asc" style="font-family:&quot;Playfair Display&quot;, Georgia, &quot;Times New Roman&quot;, serif" target="_blank" rel="noopener"><text font-size="25.20" x="15.0" y="35.2" fill="#555"><tspan x="15" y="35.160000000000004">Daily new confirmed COVID-19 cases</tspan></text></a><text font-size="14.40" x="15.0" y="55.7" fill="#666"><tspan x="15" y="55.72">Shown is the rolling 7-day average. The number of confirmed cases is lower than the number of actual cases; the</tspan><tspan x="15" y="73">main reason for that is limited testing.</tspan></text></g><g class="LineChart"><defs><clipPath id="boundsClip-3"><rect x="68.968" y="0" width="830" height="928.6"></rect></clipPath></defs><g class="DualAxisView"><g class="HorizontalAxis"><line x1="79" y1="535.3000000000001" x2="79" y2="539.3000000000001" stroke="#ccc"></line><line x1="168.8" y1="535.3000000000001" x2="168.8" y2="539.3000000000001" stroke="#ccc"></line><line x1="266.5" y1="535.3000000000001" x2="266.5" y2="539.3000000000001" stroke="#ccc"></line><line x1="364.1" y1="535.3000000000001" x2="364.1" y2="539.3000000000001" stroke="#ccc"></line><line x1="461.8" y1="535.3000000000001" x2="461.8" y2="539.3000000000001" stroke="#ccc"></line><line x1="559.4" y1="535.3000000000001" x2="559.4" y2="539.3000000000001" stroke="#ccc"></line><line x1="702" y1="535.3000000000001" x2="702" y2="539.3000000000001" stroke="#ccc"></line><text x="79" y="556.5" fill="#666" text-anchor="middle" font-size="16.2">Mar 15, 2020</text><text x="168.8" y="556.5" fill="#666" text-anchor="middle" font-size="16.2">Apr 30</text><text x="266.5" y="556.5" fill="#666" text-anchor="middle" font-size="16.2">Jun 19</text><text x="364.1" y="556.5" fill="#666" text-anchor="middle" font-size="16.2">Aug 8</text><text x="461.8" y="556.5" fill="#666" text-anchor="middle" font-size="16.2">Sep 27</text><text x="559.4" y="556.5" fill="#666" text-anchor="middle" font-size="16.2">Nov 16</text><text x="702" y="556.5" fill="#666" text-anchor="middle" font-size="16.2">Jan 28, 2021</text></g><g class="VerticalAxis"><text x="73.97" y="535.3" fill="#666" dominant-baseline="middle" text-anchor="end" font-size="16.2">0</text><text x="73.97" y="446.6" fill="#666" dominant-baseline="middle" text-anchor="end" font-size="16.2">50,000</text><text x="73.97" y="357.9" fill="#666" dominant-baseline="middle" text-anchor="end" font-size="16.2">100,000</text><text x="73.97" y="269.3" fill="#666" dominant-baseline="middle" text-anchor="end" font-size="16.2">150,000</text><text x="73.97" y="180.6" fill="#666" dominant-baseline="middle" text-anchor="end" font-size="16.2">200,000</text></g><g class="AxisGridLines horizontalLines"><line x1="78.97" y1="535.3" x2="701.99" y2="535.3" stroke="#ccc"></line><line x1="78.97" y1="446.6" x2="701.99" y2="446.6" stroke="#d3d3d3" stroke-dasharray="3,2"></line><line x1="78.97" y1="357.9" x2="701.99" y2="357.9" stroke="#d3d3d3" stroke-dasharray="3,2"></line><line x1="78.97" y1="269.3" x2="701.99" y2="269.3" stroke="#d3d3d3" stroke-dasharray="3,2"></line><line x1="78.97" y1="180.6" x2="701.99" y2="180.6" stroke="#d3d3d3" stroke-dasharray="3,2"></line></g></g><g clip-path="url(#boundsClip-3)"><g class="LineLabels" style="cursor:default"><g class="legendMark"><rect x="701.99" y="247.35" width="116.405" height="13.5" fill="#fff" opacity="0"></rect><text font-size="13.50" x="706.0" y="258.2" fill="#CF0A66"><tspan x="705.99" y="258.15000000000003">United States</tspan></text></g><g class="legendMark"><rect x="701.99" y="303.05" width="133.01" height="13.5" fill="#fff" opacity="0"></rect><text font-size="13.50" x="706.0" y="313.9" fill="#6D3E91"><tspan x="705.99" y="313.85">European Union</tspan></text></g><g class="legendMark"><rect x="701.99" y="437.05" width="68.75" height="13.5" fill="#fff" opacity="0"></rect><text font-size="13.50" x="706.0" y="447.9" fill="#B13507"><tspan x="705.99" y="447.85">Brazil</tspan></text></g><g class="legendMark"><rect x="701.99" y="491.6" width="76.31" height="13.5" fill="#fff" opacity="0"></rect><text font-size="13.50" x="706.0" y="502.4" fill="#00847E"><tspan x="705.99" y="502.40000000000003">Russia</tspan></text></g><g class="legendMark"><rect x="701.99" y="507.1" width="64.43" height="13.5" fill="#fff" opacity="0"></rect><text font-size="13.50" x="706.0" y="517.9" fill="#883039"><tspan x="705.99" y="517.9">India</tspan></text></g><g class="legendMark"><rect x="701.99" y="521.8000000000001" width="70.37" height="13.5" fill="#fff" opacity="0"></rect><text font-size="13.50" x="706.0" y="532.6" fill="#3C4E66"><tspan x="705.99" y="532.6">China</tspan></text></g></g><g class="Lines"><rect x="79" y="92" width="623" height="443" fill="rgba(255,255,255,0)" opacity="0"></rect><g class="key-China_0"><path stroke="#3C4E66" stroke-linecap="round" d="M79 535L81 535L83 535L85 535L87 535L89 535L91 535L93 535L95 535L97 535L99 535L101 535L102 535L104 535L106 535L108 535L110 535L112 535L114 535L116 535L118 535L120 535L122 535L124 535L126 535L128 535L130 535L132 535L134 535L136 535L138 535L140 535L142 535L143 535L145 535L147 535L149 535L151 535L153 535L155 535L157 535L159 535L161 535L163 535L165 535L167 535L169 535L171 535L173 535L175 535L177 535L179 535L181 535L183 535L184 535L186 535L188 535L190 535L192 535L194 535L196 535L198 535L200 535L202 535L204 535L206 535L208 535L210 535L212 535L214 535L216 535L218 535L220 535L222 535L224 535L225 535L227 535L229 535L231 535L233 535L235 535L237 535L239 535L241 535L243 535L245 535L247 535L249 535L251 535L253 535L255 535L257 535L259 535L261 535L263 535L265 535L267 535L268 535L270 535L272 535L274 535L276 535L278 535L280 535L282 535L284 535L286 535L288 535L290 535L292 535L294 535L296 535L298 535L300 535L302 535L304 535L306 535L308 535L309 535L311 535L313 535L315 535L317 535L319 535L321 535L323 535L325 535L327 535L329 535L331 535L333 535L335 535L337 535L339 535L341 535L343 535L345 535L347 535L349 535L350 535L352 535L354 535L356 535L358 535L360 535L362 535L364 535L366 535L368 535L370 535L372 535L374 535L376 535L378 535L380 535L382 535L384 535L386 535L388 535L390 535L392 535L393 535L395 535L397 535L399 535L401 535L403 535L405 535L407 535L409 535L411 535L413 535L415 535L417 535L419 535L421 535L423 535L425 535L427 535L429 535L431 535L433 535L434 535L436 535L438 535L440 535L442 535L444 535L446 535L448 535L450 535L452 535L454 535L456 535L458 535L460 535L462 535L464 535L466 535L468 535L470 535L472 535L474 535L475 535L477 535L479 535L481 535L483 535L485 535L487 535L489 535L491 535L493 535L495 535L497 535L499 535L501 535L503 535L505 535L507 535L509 535L511 535L513 535L515 535L517 535L518 535L520 535L522 535L524 535L526 535L528 535L530 535L532 535L534 535L536 535L538 535L540 535L542 535L544 535L546 535L548 535L550 535L552 535L554 535L556 535L558 535L559 535L561 535L563 535L565 535L567 535L569 535L571 535L573 535L575 535L577 535L579 535L581 535L583 535L585 535L587 535L589 535L591 535L593 535L595 535L597 535L599 535L600 535L602 535L604 535L606 535L608 535L610 535L612 535L614 535L616 535L618 535L620 535L622 535L624 535L626 535L628 535L630 535L632 535L634 535L636 535L638 535L640 535L641 535L643 535L645 535L647 535L649 535L651 535L653 535L655 535L657 535L659 535L661 535L663 535L665 535L667 535L669 535L671 535L673 535L675 535L677 535L679 535L681 535L683 535L684 535L686 535L688 535L690 535L692 535L694 535L696 535L698 535L700 535L702 535" fill="none" stroke-width="1.5"></path></g><g class="key-Brazil_0"><path stroke="#B13507" stroke-linecap="round" d="M79 535L81 535L83 535L85 535L87 535L89 535L91 535L93 535L95 535L97 535L99 535L101 535L102 535L104 535L106 535L108 535L110 534L112 534L114 534L116 534L118 534L120 534L122 533L124 533L126 533L128 533L130 533L132 533L134 533L136 532L138 533L140 532L142 532L143 532L145 531L147 531L149 531L151 531L153 531L155 530L157 530L159 530L161 529L163 529L165 528L167 527L169 526L171 526L173 526L175 526L177 525L179 525L181 523L183 523L184 521L186 520L188 520L190 520L192 519L194 519L196 518L198 517L200 516L202 515L204 514L206 512L208 510L210 508L212 507L214 506L216 504L218 505L220 505L222 505L224 503L225 501L227 497L229 497L231 497L233 494L235 492L237 491L239 490L241 491L243 491L245 489L247 489L249 488L251 488L253 489L255 490L257 491L259 490L261 489L263 489L265 491L267 484L268 480L270 481L272 480L274 479L276 476L278 472L280 474L282 473L284 469L286 469L288 470L290 469L292 467L294 468L296 469L298 470L300 471L302 468L304 468L306 470L308 469L309 469L311 469L313 469L315 470L317 471L319 470L321 473L323 476L325 476L327 476L329 476L331 469L333 466L335 460L337 454L339 454L341 453L343 453L345 453L347 454L349 454L350 456L352 456L354 457L356 455L358 458L360 459L362 459L364 458L366 459L368 458L370 457L372 458L374 456L376 456L378 458L380 458L382 459L384 460L386 461L388 465L390 470L392 468L393 468L395 469L397 469L399 469L401 470L403 466L405 469L407 470L409 463L411 464L413 464L415 464L417 463L419 465L421 466L423 475L425 482L427 485L429 485L431 487L433 487L434 486L436 485L438 480L440 479L442 480L444 481L446 481L448 481L450 482L452 482L454 492L456 484L458 486L460 487L462 488L464 488L466 488L468 480L470 487L472 495L474 488L475 489L477 489L479 487L481 487L483 489L485 482L487 491L489 490L491 491L493 499L495 500L497 500L499 499L501 499L503 503L505 498L507 495L509 495L511 496L513 496L515 496L517 492L518 495L520 493L522 492L524 492L526 494L528 496L530 497L532 499L534 503L536 505L538 511L540 506L542 505L544 505L546 505L548 502L550 495L552 487L554 490L556 486L558 485L559 484L561 481L563 485L565 485L567 482L569 484L571 483L573 482L575 483L577 479L579 479L581 480L583 475L585 474L587 472L589 467L591 467L593 464L595 460L597 463L599 462L600 462L602 462L604 461L606 461L608 459L610 459L612 460L614 459L616 461L618 456L620 452L622 453L624 451L626 450L628 450L630 447L632 453L634 456L636 463L638 471L640 473L641 474L643 473L645 471L647 471L649 471L651 472L653 472L655 472L657 473L659 471L661 463L663 456L665 444L667 441L669 440L671 438L673 438L675 443L677 439L679 439L681 438L683 439L684 440L686 439L688 441L690 444L692 444L694 445L696 444L698 444L700 444L702 444" fill="none" stroke-width="1.5"></path></g><g class="key-Russia_0"><path stroke="#00847E" stroke-linecap="round" d="M79 535L81 535L83 535L85 535L87 535L89 535L91 535L93 535L95 535L97 535L99 535L101 535L102 535L104 535L106 535L108 535L110 535L112 535L114 535L116 535L118 534L120 534L122 534L124 534L126 534L128 534L130 533L132 533L134 533L136 532L138 532L140 531L142 531L143 530L145 529L147 528L149 528L151 527L153 527L155 527L157 526L159 526L161 526L163 525L165 525L167 525L169 524L171 524L173 523L175 522L177 521L179 520L181 518L183 517L184 517L186 516L188 516L190 516L192 516L194 516L196 516L198 516L200 517L202 517L204 518L206 518L208 519L210 519L212 519L214 519L216 519L218 519L220 520L222 520L224 520L225 520L227 520L229 520L231 520L233 520L235 520L237 520L239 520L241 520L243 520L245 520L247 520L249 520L251 520L253 520L255 520L257 520L259 520L261 520L263 520L265 521L267 521L268 521L270 521L272 521L274 522L276 522L278 522L280 522L282 523L284 523L286 523L288 523L290 523L292 523L294 523L296 523L298 524L300 524L302 524L304 524L306 524L308 524L309 524L311 524L313 524L315 524L317 524L319 524L321 524L323 524L325 524L327 524L329 524L331 525L333 525L335 525L337 525L339 525L341 525L343 525L345 525L347 525L349 525L350 526L352 526L354 526L356 526L358 526L360 526L362 526L364 526L366 526L368 526L370 526L372 526L374 526L376 526L378 526L380 526L382 527L384 527L386 527L388 527L390 527L392 527L393 527L395 527L397 527L399 527L401 527L403 527L405 527L407 527L409 527L411 527L413 527L415 527L417 527L419 527L421 527L423 526L425 526L427 526L429 526L431 526L433 526L434 526L436 526L438 526L440 526L442 526L444 526L446 525L448 525L450 525L452 525L454 525L456 524L458 524L460 524L462 523L464 523L466 522L468 522L470 521L472 521L474 520L475 519L477 519L479 518L481 517L483 517L485 516L487 515L489 514L491 514L493 513L495 512L497 512L499 511L501 511L503 510L505 510L507 509L509 509L511 508L513 508L515 507L517 507L518 506L520 506L522 506L524 506L526 506L528 505L530 505L532 504L534 504L536 503L538 503L540 502L542 501L544 501L546 500L548 499L550 499L552 499L554 499L556 498L558 497L559 497L561 497L563 497L565 496L567 495L569 495L571 494L573 494L575 493L577 493L579 492L581 491L583 491L585 490L587 490L589 489L591 489L593 488L595 488L597 488L599 487L600 487L602 487L604 487L606 487L608 487L610 487L612 487L614 487L616 487L618 487L620 487L622 487L624 487L626 487L628 486L630 486L632 486L634 485L636 485L638 485L640 485L641 485L643 486L645 486L647 487L649 487L651 488L653 489L655 490L657 491L659 491L661 492L663 493L665 494L667 494L669 494L671 494L673 495L675 494L677 494L679 494L681 494L683 494L684 494L686 495L688 495L690 496L692 497L694 498L696 499L698 499L700 500L702 501" fill="none" stroke-width="1.5"></path></g><g class="key-European-Union_0"><path stroke="#6D3E91" stroke-linecap="round" d="M79 526L81 524L83 522L85 520L87 516L89 515L91 512L93 509L95 506L97 504L99 500L101 496L102 493L104 490L106 488L108 487L110 484L112 483L114 484L116 484L118 491L120 492L122 494L124 497L126 498L128 499L130 501L132 497L134 485L136 486L138 483L140 484L142 482L143 482L145 484L147 496L149 497L151 500L153 501L155 506L157 511L159 512L161 514L163 514L165 515L167 518L169 519L171 517L173 519L175 520L177 521L179 522L181 522L183 522L184 522L186 522L188 523L190 522L192 523L194 524L196 525L198 525L200 526L202 526L204 527L206 527L208 527L210 527L212 527L214 527L216 527L218 528L220 528L222 528L224 527L225 528L227 528L229 528L231 527L233 528L235 529L237 529L239 529L241 529L243 529L245 529L247 528L249 527L251 528L253 528L255 528L257 528L259 529L261 528L263 528L265 528L267 528L268 528L270 528L272 528L274 528L276 528L278 528L280 528L282 528L284 528L286 528L288 528L290 528L292 528L294 529L296 529L298 529L300 529L302 529L304 529L306 529L308 529L309 528L311 528L313 528L315 528L317 528L319 528L321 527L323 527L325 527L327 526L329 526L331 525L333 525L335 524L337 524L339 524L341 523L343 523L345 522L347 521L349 521L350 521L352 521L354 520L356 518L358 518L360 517L362 516L364 516L366 516L368 515L370 515L372 515L374 513L376 513L378 512L380 511L382 510L384 509L386 508L388 508L390 506L392 506L393 505L395 504L397 503L399 504L401 501L403 500L405 500L407 499L409 498L411 498L413 495L415 496L417 495L419 494L421 493L423 492L425 491L427 490L429 488L431 487L433 485L434 485L436 483L438 482L440 480L442 479L444 476L446 475L448 473L450 471L452 469L454 468L456 466L458 465L460 464L462 463L464 463L466 465L468 462L470 461L472 461L474 458L475 457L477 456L479 450L481 448L483 442L485 435L487 427L489 422L491 416L493 410L495 402L497 392L499 384L501 376L503 366L505 357L507 347L509 336L511 323L513 307L515 294L517 290L518 263L520 248L522 235L524 220L526 206L528 200L530 186L532 172L534 162L536 172L538 166L540 162L542 147L544 147L546 173L548 183L550 165L552 173L554 183L556 200L558 208L559 210L561 204L563 213L565 218L567 223L569 229L571 235L573 245L575 256L577 263L579 271L581 280L583 287L585 292L587 298L589 306L591 313L593 316L595 320L597 318L599 317L600 321L602 321L604 320L606 319L608 316L610 319L612 313L614 311L616 309L618 303L620 300L622 298L624 296L626 302L628 298L630 297L632 298L634 299L636 313L638 330L640 337L641 341L643 344L645 334L647 331L649 327L651 326L653 322L655 317L657 311L659 318L661 312L663 294L665 275L667 272L669 266L671 268L673 266L675 274L677 284L679 297L681 294L683 293L684 296L686 295L688 299L690 297L692 292L694 298L696 297L698 299L700 303L702 310" fill="none" stroke-width="1.5"></path></g><g class="key-United-States_0"><path stroke="#CF0A66" stroke-linecap="round" d="M79 535L81 534L83 534L85 533L87 532L89 531L91 530L93 527L95 525L97 523L99 520L101 517L102 514L104 510L106 508L108 505L110 501L112 496L114 492L116 489L118 486L120 483L122 480L124 479L126 480L128 479L130 478L132 479L134 480L136 481L138 481L140 483L142 484L143 485L145 485L147 485L149 484L151 485L153 484L155 483L157 484L159 483L161 483L163 484L165 485L167 485L169 486L171 486L173 487L175 487L177 487L179 487L181 487L183 488L184 490L186 491L188 492L190 493L192 494L194 495L196 495L198 495L200 496L202 496L204 495L206 495L208 495L210 495L212 495L214 496L216 496L218 497L220 497L222 498L224 499L225 499L227 498L229 498L231 499L233 498L235 498L237 498L239 498L241 498L243 499L245 499L247 499L249 499L251 499L253 499L255 498L257 498L259 497L261 496L263 494L265 493L267 491L268 489L270 488L272 485L274 481L276 479L278 476L280 472L282 470L284 466L286 464L288 461L290 457L292 453L294 452L296 451L298 448L300 448L302 444L304 442L306 441L308 436L309 433L311 431L313 427L315 425L317 423L319 419L321 418L323 418L325 417L327 416L329 417L331 417L333 419L335 418L337 418L339 419L341 421L343 420L345 420L347 420L349 421L350 423L352 426L354 429L356 430L358 435L360 437L362 439L364 440L366 440L368 439L370 442L372 442L374 444L376 442L378 444L380 446L382 448L384 449L386 451L388 453L390 457L392 458L393 460L395 460L397 461L399 461L401 461L403 462L405 462L407 462L409 462L411 461L413 463L415 463L417 462L419 462L421 463L423 466L425 469L427 471L429 473L431 474L433 474L434 474L436 471L438 468L440 466L442 464L444 464L446 464L448 463L450 458L452 458L454 458L456 458L458 458L460 457L462 457L464 462L466 461L468 461L470 461L472 460L474 459L475 459L477 458L479 457L481 454L483 451L485 451L487 449L489 446L491 446L493 444L495 442L497 440L499 437L501 437L503 436L505 429L507 427L509 426L511 423L513 420L515 413L517 410L518 410L520 406L522 402L524 398L526 394L528 392L530 381L532 377L534 364L536 358L538 348L540 341L542 331L544 329L546 320L548 316L550 306L552 297L554 284L556 273L558 268L559 257L561 251L563 245L565 238L567 233L569 231L571 228L573 225L575 222L577 220L579 240L581 237L583 243L585 245L587 248L589 245L591 240L593 212L595 206L597 191L599 181L600 172L602 163L604 158L606 156L608 154L610 154L612 152L614 152L616 156L618 150L620 148L622 145L624 151L626 151L628 150L630 153L632 157L634 168L636 208L638 199L640 207L641 213L643 213L645 212L647 201L649 187L651 169L653 155L655 153L657 144L659 138L661 128L663 92L665 102L667 101L669 93L671 95L673 101L675 112L677 125L679 140L681 149L683 167L684 180L686 192L688 202L690 215L692 223L694 235L696 233L698 240L700 248L702 254" fill="none" stroke-width="1.5"></path></g><g class="key-India_0"><path stroke="#883039" stroke-linecap="round" d="M79 535L81 535L83 535L85 535L87 535L89 535L91 535L93 535L95 535L97 535L99 535L101 535L102 535L104 535L106 535L108 535L110 535L112 535L114 535L116 535L118 535L120 535L122 534L124 534L126 534L128 534L130 534L132 534L134 534L136 534L138 534L140 534L142 534L143 534L145 534L147 533L149 533L151 533L153 533L155 533L157 533L159 533L161 533L163 533L165 533L167 532L169 532L171 532L173 532L175 532L177 531L179 531L181 530L183 530L184 530L186 529L188 529L190 529L192 529L194 529L196 529L198 529L200 528L202 528L204 528L206 527L208 527L210 526L212 525L214 525L216 524L218 524L220 524L222 524L224 523L225 523L227 523L229 522L231 522L233 521L235 520L237 520L239 519L241 519L243 518L245 518L247 518L249 518L251 517L253 517L255 517L257 516L259 516L261 516L263 515L265 514L267 514L268 513L270 512L272 511L274 509L276 508L278 508L280 506L282 505L284 504L286 503L288 503L290 502L292 501L294 500L296 499L298 498L300 497L302 496L304 494L306 493L308 492L309 491L311 490L313 488L315 486L317 484L319 482L321 480L323 478L325 475L327 472L329 470L331 467L333 463L335 460L337 457L339 455L341 453L343 450L345 448L347 448L349 444L350 443L352 442L354 440L356 440L358 438L360 436L362 436L364 433L366 431L368 431L370 429L372 426L374 425L376 425L378 425L380 426L382 425L384 424L386 424L388 423L390 421L392 420L393 419L395 418L397 419L399 415L401 413L403 412L405 409L407 405L409 403L411 397L413 398L415 396L417 394L419 391L421 388L423 386L425 383L427 380L429 377L431 374L433 373L434 373L436 371L438 371L440 370L442 370L444 371L446 372L448 373L450 375L452 377L454 380L456 382L458 384L460 385L462 387L464 388L466 388L468 388L470 390L472 391L474 394L475 396L477 399L479 401L481 403L483 406L485 407L487 408L489 409L491 411L493 413L495 416L497 418L499 421L501 424L503 426L505 429L507 431L509 434L511 436L513 439L515 442L517 444L518 447L520 449L522 451L524 452L526 454L528 454L530 454L532 454L534 453L536 453L538 454L540 453L542 453L544 453L546 453L548 454L550 454L552 455L554 456L556 458L558 462L559 464L561 465L563 466L565 466L567 465L569 464L571 461L573 458L575 457L577 457L579 458L581 459L583 460L585 461L587 463L589 465L591 467L593 469L595 470L597 472L599 473L600 474L602 475L604 476L606 478L608 480L610 481L612 483L614 484L616 486L618 487L620 489L622 490L624 491L626 492L628 493L630 493L632 493L634 493L636 494L638 496L640 497L641 498L643 498L645 499L647 505L649 506L651 501L653 502L655 502L657 502L659 503L661 498L663 503L665 503L667 503L669 504L671 505L673 506L675 506L677 503L679 508L681 509L683 509L684 510L686 510L688 511L690 511L692 511L694 511L696 511L698 512L700 512L702 511" fill="none" stroke-width="1.5"></path></g></g></g></g><g class="SourcesFooter" style="fill:#777"><g class="clickable" style="fill:#777"><text font-size="12.60" x="15.0" y="581.6"><tspan x="15" y="581.58">Source: Johns Hopkins University CSSE COVID-19 Data – Last updated 29 January, 10:03 (London time)</tspan></text></g><text font-size="12.60" x="796.4" y="581.6"><tspan x="796.444" y="581.58"><a style="fill: #777;" class="cclogo" href="http://creativecommons.org/licenses/by/4.0/deed.en_US" target="_blank">CC BY</a></tspan></text></g></svg>