<svg viewBox="0 0 960 720" xmlns="http://www.w3.org/2000/svg" xmlns:xlink="http://www.w3.org/1999/xlink" overflow="hidden">
<style> text { font-family: "Segoe UI",Candara,sans-serif; font-weight: 400; } </style>
<defs><clipPath id="clip0"><rect x="0" y="0" width="960" height="720"/></clipPath><clipPath id="clip1"><rect x="0" y="0" width="960" height="720"/></clipPath><clipPath id="clip2"><rect x="59" y="15" width="887" height="558"/></clipPath><clipPath id="clip3"><rect x="59" y="15" width="887" height="558"/></clipPath><clipPath id="clip4"><rect x="59" y="15" width="887" height="558"/></clipPath><clipPath id="clip5"><rect x="59" y="15" width="887" height="558"/></clipPath><clipPath id="clip6"><rect x="59" y="15" width="887" height="558"/></clipPath><clipPath id="clip7"><rect x="59" y="15" width="887" height="558"/></clipPath><clipPath id="clip8"><rect x="0" y="0" width="960" height="720"/></clipPath><clipPath id="clip9"><rect x="0" y="0" width="960" height="720"/></clipPath><clipPath id="clip10"><rect x="59" y="15" width="887" height="558"/></clipPath><clipPath id="clip11"><rect x="0" y="0" width="960" height="720"/></clipPath><clipPath id="clip12"><rect x="0" y="0" width="960" height="720"/></clipPath><clipPath id="clip13"><rect x="0" y="0" width="960" height="720"/></clipPath><clipPath id="clip14"><rect x="0" y="0" width="960" height="720"/></clipPath><clipPath id="clip15"><rect x="0" y="0" width="960" height="720"/></clipPath><clipPath id="clip16"><rect x="0" y="0" width="960" height="720"/></clipPath><clipPath id="clip17"><rect x="0" y="0" width="960" height="720"/></clipPath><clipPath id="clip18"><rect x="0" y="0" width="960" height="720"/></clipPath><clipPath id="clip19"><rect x="0" y="0" width="960" height="720"/></clipPath><clipPath id="clip20"><rect x="0" y="0" width="960" height="720"/></clipPath><clipPath id="clip21"><rect x="0" y="0" width="960" height="720"/></clipPath><clipPath id="clip22"><rect x="0" y="0" width="960" height="720"/></clipPath><clipPath id="clip23"><rect x="0" y="0" width="960" height="720"/></clipPath><clipPath id="clip24"><rect x="0" y="0" width="960" height="720"/></clipPath><clipPath id="clip25"><rect x="0" y="0" width="960" height="720"/></clipPath><clipPath id="clip26"><rect x="0" y="0" width="960" height="720"/></clipPath><clipPath id="clip27"><rect x="0" y="0" width="960" height="720"/></clipPath><clipPath id="clip28"><rect x="0" y="0" width="960" height="720"/></clipPath><clipPath id="clip29"><rect x="0" y="0" width="960" height="720"/></clipPath><clipPath id="clip30"><rect x="0" y="0" width="960" height="720"/></clipPath><clipPath id="clip31"><rect x="0" y="0" width="960" height="720"/></clipPath><clipPath id="clip32"><rect x="0" y="0" width="960" height="720"/></clipPath><clipPath id="clip33"><rect x="0" y="0" width="960" height="720"/></clipPath><clipPath id="clip34"><rect x="0" y="0" width="960" height="720"/></clipPath><clipPath id="clip35"><rect x="0" y="0" width="960" height="720"/></clipPath><clipPath id="clip36"><rect x="0" y="0" width="960" height="720"/></clipPath><clipPath id="clip37"><rect x="0" y="0" width="960" height="720"/></clipPath><clipPath id="clip38"><rect x="0" y="0" width="960" height="720"/></clipPath><clipPath id="clip39"><rect x="0" y="0" width="960" height="720"/></clipPath><clipPath id="clip40"><rect x="0" y="0" width="960" height="720"/></clipPath><clipPath id="clip41"><rect x="0" y="0" width="960" height="720"/></clipPath><clipPath id="clip42"><rect x="0" y="0" width="960" height="720"/></clipPath><clipPath id="clip43"><rect x="0" y="0" width="960" height="720"/></clipPath><clipPath id="clip44"><rect x="0" y="0" width="960" height="720"/></clipPath><clipPath id="clip45"><rect x="0" y="0" width="960" height="720"/></clipPath><clipPath id="clip46"><rect x="0" y="0" width="960" height="720"/></clipPath><clipPath id="clip47"><rect x="0" y="0" width="960" height="720"/></clipPath></defs><g clip-path="url(#clip0)"><rect x="0" y="0" width="960" height="720" fill="#FFFFFF"/><g clip-path="url(#clip1)"><path d="M59.5001 493.5 945.5 493.5M59.5001 413.5 945.5 413.5M59.5001 334.5 945.5 334.5M59.5001 254.5 945.5 254.5M59.5001 174.5 945.5 174.5M59.5001 95.5001 945.5 95.5001M59.5001 15.5001 945.5 15.5001" stroke="#D9D9D9" stroke-linejoin="round" stroke-miterlimit="10" fill="none"/></g><g clip-path="url(#clip2)"><path d="M494 519 502 519 502 573 494 573ZM502 493 511 493 511 573 502 573ZM511 499 520 499 520 573 511 573ZM520 502 528 502 528 573 520 573ZM528 498 537 498 537 573 528 573ZM537 500 546 500 546 573 537 573ZM546 507 554 507 554 573 546 573ZM554 495 563 495 563 573 554 573ZM563 496 572 496 572 573 563 573ZM572 495 581 495 581 573 572 573ZM581 492 589 492 589 573 581 573ZM589 483 598 483 598 573 589 573ZM598 494 607 494 607 573 598 573ZM607 509 615 509 615 573 607 573ZM615 500 624 500 624 573 615 573ZM624 498 633 498 633 573 624 573ZM633 504 641 504 641 573 633 573ZM641 512 650 512 650 573 641 573ZM650 511 659 511 659 573 650 573ZM659 514 667 514 667 573 659 573ZM667 521 676 521 676 573 667 573ZM676 523 685 523 685 573 676 573ZM685 515 693 515 693 573 685 573ZM693 515 702 515 702 573 693 573ZM702 523 711 523 711 573 702 573ZM711 526 720 526 720 573 711 573ZM720 526 728 526 728 573 720 573ZM728 530 737 530 737 573 728 573ZM737 514 746 514 746 573 737 573ZM746 517 754 517 754 573 746 573ZM754 521 763 521 763 573 754 573ZM763 518 772 518 772 573 763 573ZM772 516 780 516 780 573 772 573ZM780 508 789 508 789 573 780 573ZM789 510 798 510 798 573 789 573ZM798 515 806 515 806 573 798 573ZM806 507 815 507 815 573 806 573ZM815 509 824 509 824 573 815 573ZM824 513 832 513 832 573 824 573ZM832 513 841 513 841 573 832 573ZM841 505 850 505 850 573 841 573ZM850 507 858 507 858 573 850 573ZM858 514 867 514 867 573 858 573ZM867 513 876 513 876 573 867 573ZM876 521 885 521 885 573 876 573ZM885 523 893 523 893 573 885 573ZM893 523 902 523 902 573 893 573ZM902 526 911 526 911 573 902 573ZM911 539 919 539 919 573 911 573ZM919 541 928 541 928 573 919 573ZM928 546 937 546 937 573 928 573ZM937 552 945 552 945 573 937 573Z" fill="#F4B183"/></g><g clip-path="url(#clip3)"><path d="M398 522 407 522 407 573 398 573ZM407 505 416 505 416 573 407 573ZM416 508 424 508 424 573 416 573ZM424 510 433 510 433 573 424 573ZM433 538 442 538 442 573 433 573ZM442 534 450 534 450 573 442 573ZM450 541 459 541 459 573 450 573ZM459 546 468 546 468 573 459 573ZM468 544 476 544 476 573 468 573ZM476 545 485 545 485 573 476 573ZM485 549 494 549 494 573 485 573ZM494 495 502 495 502 519 494 519ZM502 430 511 430 511 493 502 493ZM511 456 520 456 520 499 511 499ZM520 483 528 483 528 502 520 502ZM528 492 537 492 537 498 528 498ZM537 498 546 498 546 500 537 500ZM546 506 554 506 554 507 546 507ZM554 494 563 494 563 495 554 495ZM563 495 572 495 572 496 563 496ZM572 494 581 494 581 495 572 495ZM581 491 589 491 589 492 581 492ZM633 503 641 503 641 504 633 504ZM641 511 650 511 650 512 641 512ZM650 510 659 510 659 511 650 511ZM659 513 667 513 667 514 659 514ZM667 520 676 520 676 521 667 521ZM676 522 685 522 685 523 676 523ZM685 514 693 514 693 515 685 515ZM693 514 702 514 702 515 693 515ZM702 522 711 522 711 523 702 523ZM711 525 720 525 720 526 711 526ZM720 525 728 525 728 526 720 526ZM728 529 737 529 737 530 728 530ZM737 488 746 488 746 514 737 514ZM746 484 754 484 754 517 746 517ZM754 489 763 489 763 521 754 521ZM763 482 772 482 772 518 763 518ZM772 483 780 483 780 516 772 516ZM780 473 789 473 789 508 780 508ZM789 476 798 476 798 510 789 510ZM798 484 806 484 806 515 798 515ZM806 473 815 473 815 507 806 507ZM815 475 824 475 824 509 815 509ZM824 479 832 479 832 513 824 513ZM832 480 841 480 841 513 832 513ZM841 467 850 467 850 505 841 505ZM850 473 858 473 858 507 850 507ZM858 484 867 484 867 514 858 514ZM867 477 876 477 876 513 867 513ZM876 488 885 488 885 521 876 521ZM885 489 893 489 893 523 885 523ZM893 488 902 488 902 523 893 523ZM902 489 911 489 911 526 902 526ZM911 505 919 505 919 539 911 539ZM919 511 928 511 928 541 919 541ZM928 509 937 509 937 546 928 546ZM937 514 945 514 945 552 937 552Z" fill="#C5E0B4"/></g><g clip-path="url(#clip4)"><path d="M59 565 68 565 68 573 59 573ZM68 564 77 564 77 573 68 573ZM77 567 85 567 85 573 77 573ZM85 550 94 550 94 573 85 573ZM94 536 103 536 103 573 94 573ZM103 562 112 562 112 573 103 573ZM112 560 120 560 120 573 112 573ZM120 570 129 570 129 573 120 573ZM129 478 138 478 138 573 129 573ZM138 445 146 445 146 573 138 573ZM146 438 155 438 155 573 146 573ZM155 431 164 431 164 573 155 573ZM164 443 172 443 172 573 164 573ZM172 497 181 497 181 573 172 573ZM181 525 190 525 190 573 181 573ZM190 438 198 438 198 573 190 573ZM198 451 207 451 207 573 198 573ZM207 463 216 463 216 573 207 573ZM216 467 224 467 224 573 216 573ZM224 445 233 445 233 573 224 573ZM233 474 242 474 242 573 233 573ZM242 515 251 515 251 573 242 573ZM251 334 259 334 259 573 251 573ZM259 301 268 301 268 573 259 573ZM268 293 277 293 277 573 268 573ZM277 289 285 289 285 573 277 573ZM285 283 294 283 294 573 285 573ZM294 324 303 324 303 573 294 573ZM303 357 311 357 311 573 303 573ZM311 362 320 362 320 573 311 573ZM320 349 329 349 329 573 320 573ZM329 368 337 368 337 573 329 573ZM337 406 346 406 346 573 337 573ZM346 409 355 409 355 573 346 573ZM355 444 363 444 363 573 355 573ZM363 460 372 460 372 573 363 573ZM372 470 381 470 381 573 372 573ZM381 475 389 475 389 573 381 573ZM389 495 398 495 398 573 389 573ZM398 500 407 500 407 522 398 522ZM407 496 416 496 416 505 407 505ZM416 503 424 503 424 508 416 508ZM424 505 433 505 433 510 424 510ZM433 534 442 534 442 538 433 538ZM442 526 450 526 450 534 442 534ZM450 537 459 537 459 541 450 541ZM459 543 468 543 468 546 459 546ZM468 540 476 540 476 544 468 544ZM476 541 485 541 485 545 476 545ZM485 547 494 547 494 549 485 549ZM494 491 502 491 502 495 494 495ZM502 423 511 423 511 430 502 430ZM511 420 520 420 520 456 511 456ZM520 423 528 423 528 483 520 483ZM528 434 537 434 537 492 528 492ZM537 435 546 435 546 498 537 498ZM546 457 554 457 554 506 546 506ZM554 443 563 443 563 494 554 494ZM563 434 572 434 572 496 563 496ZM572 428 581 428 581 495 572 495ZM581 435 589 435 589 492 581 492ZM589 432 598 432 598 483 589 483ZM598 453 607 453 607 494 598 494ZM607 488 615 488 615 509 607 509ZM615 326 624 326 624 500 615 500ZM624 277 633 277 633 498 624 498ZM633 270 641 270 641 504 633 504ZM641 283 650 283 650 512 641 512ZM650 267 659 267 659 510 650 510ZM659 255 667 255 667 513 659 513ZM667 276 676 276 676 520 667 520ZM676 268 685 268 685 522 676 522ZM685 236 693 236 693 514 685 514ZM693 236 702 236 702 514 693 514ZM702 257 711 257 711 522 702 522ZM711 264 720 264 720 526 711 526ZM720 270 728 270 728 525 720 525ZM728 304 737 304 737 529 728 529ZM737 256 746 256 746 488 737 488ZM746 220 754 220 754 484 746 484ZM754 247 763 247 763 489 754 489ZM763 230 772 230 772 482 763 482ZM772 233 780 233 780 483 772 483ZM780 205 789 205 789 473 780 473ZM789 241 798 241 798 476 789 476ZM798 383 806 383 806 484 798 484ZM806 328 815 328 815 473 806 473ZM815 328 824 328 824 475 815 475ZM824 333 832 333 832 479 824 479ZM832 363 841 363 841 480 832 480ZM841 358 850 358 850 467 841 467ZM850 377 858 377 858 473 850 473ZM858 385 867 385 867 484 858 484ZM867 356 876 356 876 477 867 477ZM876 375 885 375 885 488 876 488ZM885 372 893 372 893 489 885 489ZM893 374 902 374 902 488 893 488ZM902 375 911 375 911 489 902 489ZM911 410 919 410 919 505 911 505ZM919 405 928 405 928 511 919 511ZM928 383 937 383 937 509 928 509ZM937 375 945 375 945 514 937 514Z" fill="#8FAADC"/></g><g clip-path="url(#clip5)"><path d="M806 327 815 327 815 328 806 328ZM824 332 832 332 832 333 824 333ZM841 357 850 357 850 358 841 358ZM867 355 876 355 876 356 867 356ZM919 404 928 404 928 405 919 405ZM928 382 937 382 937 383 928 383ZM937 374 945 374 945 375 937 375Z" fill="#C55A11"/></g><g clip-path="url(#clip6)"><path d="M468 539 476 539 476 540 468 540ZM641 229 650 229 650 283 641 283ZM650 201 659 201 659 267 650 267ZM659 189 667 189 667 255 659 255ZM667 215 676 215 676 276 667 276ZM676 232 685 232 685 268 676 268ZM685 198 693 198 693 236 685 236ZM693 205 702 205 702 236 693 236ZM702 231 711 231 711 257 702 257ZM711 237 720 237 720 264 711 264ZM720 244 728 244 728 270 720 270ZM728 282 737 282 737 304 728 304ZM737 230 746 230 746 256 737 256ZM746 157 754 157 754 220 746 220ZM754 206 763 206 763 247 754 247ZM763 214 772 214 772 230 763 230ZM772 228 780 228 780 233 772 233ZM780 203 789 203 789 205 780 205ZM789 240 798 240 798 241 789 241ZM798 382 806 382 806 383 798 383ZM806 327 815 327 815 328 806 328ZM815 327 824 327 824 328 815 328ZM824 332 832 332 832 333 824 333ZM832 362 841 362 841 363 832 363ZM841 357 850 357 850 358 841 358ZM850 376 858 376 858 377 850 377ZM858 384 867 384 867 385 858 385ZM867 355 876 355 876 356 867 356ZM876 374 885 374 885 375 876 375ZM885 371 893 371 893 372 885 372ZM893 373 902 373 902 374 893 374ZM902 374 911 374 911 375 902 375ZM911 409 919 409 919 410 911 410ZM919 404 928 404 928 405 919 405ZM928 382 937 382 937 383 928 383ZM937 374 945 374 945 375 937 375Z" fill="#548235"/></g><g clip-path="url(#clip7)"><path d="M242 508 251 508 251 515 242 515ZM251 326 259 326 259 334 251 334ZM259 296 268 296 268 301 259 301ZM268 268 277 268 277 293 268 293ZM277 257 285 257 285 289 277 289ZM285 272 294 272 294 283 285 283ZM294 311 303 311 303 324 294 324ZM303 355 311 355 311 357 303 357ZM311 268 320 268 320 362 311 362ZM320 225 329 225 329 349 320 349ZM329 236 337 236 337 368 329 368ZM337 265 346 265 346 406 337 406ZM346 274 355 274 355 409 346 409ZM355 371 363 371 363 444 355 444ZM363 421 372 421 372 460 363 460ZM372 336 381 336 381 470 372 470ZM381 354 389 354 389 475 381 475ZM389 386 398 386 398 495 389 495ZM398 393 407 393 407 500 398 500ZM407 360 416 360 416 496 407 496ZM416 420 424 420 424 503 416 503ZM424 449 433 449 433 505 424 505ZM433 294 442 294 442 534 433 534ZM442 264 450 264 450 526 442 526ZM450 248 459 248 459 537 450 537ZM459 267 468 267 468 543 459 543ZM468 259 476 259 476 540 468 540ZM476 292 485 292 485 541 476 541ZM485 335 494 335 494 547 485 547ZM494 277 502 277 502 491 494 491ZM502 207 511 207 511 423 502 423ZM511 228 520 228 520 420 511 420ZM520 256 528 256 528 423 520 423ZM528 269 537 269 537 434 528 434ZM537 311 546 311 546 435 537 435ZM546 350 554 350 554 457 546 457ZM554 335 563 335 563 443 554 443ZM563 339 572 339 572 434 563 434ZM572 348 581 348 581 428 572 428ZM581 412 589 412 589 435 581 435ZM589 421 598 421 598 432 589 432ZM598 448 607 448 607 453 598 453ZM607 484 615 484 615 488 607 488ZM615 317 624 317 624 326 615 326ZM624 269 633 269 633 277 624 277ZM633 265 641 265 641 270 633 270ZM641 225 650 225 650 229 641 229ZM650 196 659 196 659 201 650 201ZM659 186 667 186 667 189 659 189ZM667 213 676 213 676 215 667 215ZM676 227 685 227 685 232 676 232ZM685 189 693 189 693 198 685 198ZM693 164 702 164 702 205 693 205ZM702 176 711 176 711 231 702 231ZM711 180 720 180 720 237 711 237ZM720 185 728 185 728 244 720 244ZM728 233 737 233 737 282 728 282ZM737 178 746 178 746 230 737 230ZM746 95 754 95 754 157 746 157ZM754 141 763 141 763 206 754 206ZM763 160 772 160 772 214 763 214ZM772 176 780 176 780 228 772 228ZM780 168 789 168 789 203 780 203ZM789 219 798 219 798 240 789 240ZM798 197 806 197 806 382 798 382ZM806 111 815 111 815 328 806 328ZM815 102 824 102 824 327 815 327ZM824 104 832 104 832 333 824 333ZM832 134 841 134 841 362 832 362ZM841 105 850 105 850 357 841 357ZM850 137 858 137 858 377 850 377ZM858 155 867 155 867 384 858 384ZM867 60 876 60 876 356 867 356ZM876 109 885 109 885 374 876 374ZM885 114 893 114 893 371 885 371ZM893 111 902 111 902 373 893 373ZM902 132 911 132 911 374 902 374ZM911 188 919 188 919 409 911 409ZM919 164 928 164 928 404 919 404ZM928 135 937 135 937 382 928 382ZM937 132 945 132 945 374 937 374Z" fill="#4472C4"/></g><g clip-path="url(#clip8)"><path d="M59.5001 572.5 945.5 572.5" stroke="#D9D9D9" stroke-linejoin="round" stroke-miterlimit="10" fill="none" fill-rule="evenodd"/></g><g clip-path="url(#clip9)"><path d="M59.5001 572.5 59.5001 577.5M120.5 572.5 120.5 577.5M181.5 572.5 181.5 577.5M241.5 572.5 241.5 577.5M302.5 572.5 302.5 577.5M363.5 572.5 363.5 577.5M424.5 572.5 424.5 577.5M485.5 572.5 485.5 577.5M545.5 572.5 545.5 577.5M606.5 572.5 606.5 577.5M667.5 572.5 667.5 577.5M728.5 572.5 728.5 577.5M788.5 572.5 788.5 577.5M849.5 572.5 849.5 577.5M910.5 572.5 910.5 577.5" stroke="#D9D9D9" stroke-linejoin="round" stroke-miterlimit="10" fill="none"/></g><g clip-path="url(#clip10)"><path d="M63.5001 565.5 72.5001 565.5 81.5001 556.5 89.5001 557.5 98.5001 558.5 107.5 546.5 115.5 528.5 124.5 512.5 133.5 497.5 141.5 480.5 150.5 471.5 159.5 465.5 168.5 459.5 176.5 460.5 185.5 464.5 194.5 469.5 202.5 469.5 211.5 466.5 220.5 463.5 228.5 448.5 237.5 426.5 246.5 398.5 254.5 368.5 263.5 343.5 272.5 320.5 280.5 298.5 289.5 289.5 298.5 279.5 306.5 274.5 315.5 275.5 324.5 275.5 333.5 284.5 341.5 294.5 350.5 303.5 359.5 322.5 367.5 343.5 376.5 362.5 385.5 374.5 393.5 381.5 402.5 385.5 411.5 379.5 419.5 366.5 428.5 346.5 437.5 328.5 445.5 314.5 454.5 296.5 463.5 279.5 471.5 277.5 480.5 269.5 489.5 266.5 498.5 264.5 506.5 266.5 515.5 269.5 524.5 271.5 532.5 279.5 541.5 298.5 550.5 315.5 558.5 337.5 567.5 359.5 576.5 379.5 584.5 398.5 593.5 395.5 602.5 385.5 610.5 373.5 619.5 346.5 628.5 314.5 637.5 277.5 645.5 238.5 654.5 225.5 663.5 214.5 671.5 199.5 680.5 192.5 689.5 190.5 697.5 190.5 706.5 193.5 715.5 186.5 723.5 172.5 732.5 169.5 741.5 167.5 749.5 166.5 758.5 164.5 767.5 162.5 775.5 165.5 784.5 167.5 793.5 161.5 802.5 153.5 810.5 147.5 819.5 139.5 828.5 127.5 836.5 121.5 845.5 114.5 854.5 115.5 862.5 116.5 871.5 113.5 880.5 116.5 888.5 124.5 897.5 125.5 906.5 136.5 914.5 139.5 923.5 143.5 932.5 150.5 940.5 154.5" stroke="#FF0000" stroke-width="2.66667" stroke-linecap="round" stroke-linejoin="round" stroke-miterlimit="10" fill="none"/></g><g clip-path="url(#clip11)"><text fill="#595959"  font-size="15" transform="translate(38.4002 577)">0</text></g><g clip-path="url(#clip12)"><text fill="#595959"  font-size="15" transform="translate(8.66667 498)">10000</text></g><g clip-path="url(#clip13)"><text fill="#595959"  font-size="15" transform="translate(8.66667 418)">20000</text></g><g clip-path="url(#clip14)"><text fill="#595959"  font-size="15" transform="translate(8.66667 338)">30000</text></g><g clip-path="url(#clip15)"><text fill="#595959"  font-size="15" transform="translate(8.66667 259)">40000</text></g><g clip-path="url(#clip16)"><text fill="#595959"  font-size="15" transform="translate(8.66667 179)">50000</text></g><g clip-path="url(#clip17)"><text fill="#595959"  font-size="15" transform="translate(8.66667 99)">60000</text></g><g clip-path="url(#clip18)"><text fill="#595959"  font-size="15" transform="translate(8.66667 20)">70000</text></g><g clip-path="url(#clip19)"><text fill="#595959"  font-size="15" transform="matrix(6.12323e-17 -1 1 6.12323e-17 68.8318 651)">2020-12-27</text></g><g clip-path="url(#clip20)"><text fill="#595959"  font-size="15" transform="matrix(6.12323e-17 -1 1 6.12323e-17 129.628 651)">2021-01-03</text></g><g clip-path="url(#clip21)"><text fill="#595959"  font-size="15" transform="matrix(6.12323e-17 -1 1 6.12323e-17 190.425 651)">2021-01-10</text></g><g clip-path="url(#clip22)"><text fill="#595959"  font-size="15" transform="matrix(6.12323e-17 -1 1 6.12323e-17 251.221 651)">2021-01-17</text></g><g clip-path="url(#clip23)"><text fill="#595959"  font-size="15" transform="matrix(6.12323e-17 -1 1 6.12323e-17 312.017 651)">2021-01-24</text></g><g clip-path="url(#clip24)"><text fill="#595959"  font-size="15" transform="matrix(6.12323e-17 -1 1 6.12323e-17 372.814 651)">2021-01-31</text></g><g clip-path="url(#clip25)"><text fill="#595959"  font-size="15" transform="matrix(6.12323e-17 -1 1 6.12323e-17 433.61 651)">2021-02-07</text></g><g clip-path="url(#clip26)"><text fill="#595959"  font-size="15" transform="matrix(6.12323e-17 -1 1 6.12323e-17 494.407 651)">2021-02-14</text></g><g clip-path="url(#clip27)"><text fill="#595959"  font-size="15" transform="matrix(6.12323e-17 -1 1 6.12323e-17 555.203 651)">2021-02-21</text></g><g clip-path="url(#clip28)"><text fill="#595959"  font-size="15" transform="matrix(6.12323e-17 -1 1 6.12323e-17 616 651)">2021-02-28</text></g><g clip-path="url(#clip29)"><text fill="#595959"  font-size="15" transform="matrix(6.12323e-17 -1 1 6.12323e-17 676.796 651)">2021-03-07</text></g><g clip-path="url(#clip30)"><text fill="#595959"  font-size="15" transform="matrix(6.12323e-17 -1 1 6.12323e-17 737.593 651)">2021-03-14</text></g><g clip-path="url(#clip31)"><text fill="#595959"  font-size="15" transform="matrix(6.12323e-17 -1 1 6.12323e-17 798.389 651)">2021-03-21</text></g><g clip-path="url(#clip32)"><text fill="#595959"  font-size="15" transform="matrix(6.12323e-17 -1 1 6.12323e-17 859.185 651)">2021-03-28</text></g><g clip-path="url(#clip33)"><text fill="#595959"  font-size="15" transform="matrix(6.12323e-17 -1 1 6.12323e-17 919.982 651)">2021-04-04</text></g><g clip-path="url(#clip34)"><rect x="110" y="669" width="25" height="8" fill="#F4B183"/></g><g clip-path="url(#clip35)"><text fill="#595959"  font-size="16" transform="translate(138.032 677)">AstraZeneca_doza_1</text></g><g clip-path="url(#clip36)"><rect x="297" y="669" width="26" height="8" fill="#C5E0B4"/></g><g clip-path="url(#clip37)"><text fill="#595959"  font-size="16" transform="translate(325.266 677)">Moderna_doza_1</text></g><g clip-path="url(#clip38)"><rect x="484" y="669" width="26" height="8" fill="#8FAADC"/></g><g clip-path="url(#clip39)"><text fill="#595959"  font-size="16" transform="translate(512.5 677)">Pfizer_doza_1</text></g><g clip-path="url(#clip40)"><rect x="671" y="669" width="26" height="8" fill="#C55A11"/></g><g clip-path="url(#clip41)"><text fill="#595959"  font-size="16" transform="translate(699.734 677)">AstraZeneca_doza_2</text></g><g clip-path="url(#clip42)"><rect x="110" y="696" width="25" height="9" fill="#548235"/></g><g clip-path="url(#clip43)"><text fill="#595959"  font-size="16" transform="translate(138.032 705)">Moderna_doza_2</text></g><g clip-path="url(#clip44)"><rect x="297" y="696" width="26" height="9" fill="#4472C4"/></g><g clip-path="url(#clip45)"><text fill="#595959"  font-size="16" transform="translate(325.266 705)">Pfizer_doza_2</text></g><g clip-path="url(#clip46)"><path d="M484.5 700.5 509.5 700.5" stroke="#FF0000" stroke-width="2.66667" stroke-linecap="round" stroke-linejoin="round" stroke-miterlimit="10" fill="none" fill-rule="evenodd"/></g><g clip-path="url(#clip47)"><text fill="#595959"  font-size="16" transform="translate(512.5 705)">Weekly moving average</text></g></g></svg>